G04 #@! TF.GenerationSoftware,KiCad,Pcbnew,9.0.6*
G04 #@! TF.CreationDate,2026-01-01T21:38:39-05:00*
G04 #@! TF.ProjectId,Experimental,45787065-7269-46d6-956e-74616c2e6b69,rev?*
G04 #@! TF.SameCoordinates,Original*
G04 #@! TF.FileFunction,AssemblyDrawing,Bot*
%FSLAX46Y46*%
G04 Gerber Fmt 4.6, Leading zero omitted, Abs format (unit mm)*
G04 Created by KiCad (PCBNEW 9.0.6) date 2026-01-01 21:38:39*
%MOMM*%
%LPD*%
G01*
G04 APERTURE LIST*
%ADD10C,0.150000*%
%ADD11C,0.100000*%
G04 APERTURE END LIST*
D10*
X149557200Y-89435714D02*
X149604819Y-89578571D01*
X149604819Y-89578571D02*
X149604819Y-89816666D01*
X149604819Y-89816666D02*
X149557200Y-89911904D01*
X149557200Y-89911904D02*
X149509580Y-89959523D01*
X149509580Y-89959523D02*
X149414342Y-90007142D01*
X149414342Y-90007142D02*
X149319104Y-90007142D01*
X149319104Y-90007142D02*
X149223866Y-89959523D01*
X149223866Y-89959523D02*
X149176247Y-89911904D01*
X149176247Y-89911904D02*
X149128628Y-89816666D01*
X149128628Y-89816666D02*
X149081009Y-89626190D01*
X149081009Y-89626190D02*
X149033390Y-89530952D01*
X149033390Y-89530952D02*
X148985771Y-89483333D01*
X148985771Y-89483333D02*
X148890533Y-89435714D01*
X148890533Y-89435714D02*
X148795295Y-89435714D01*
X148795295Y-89435714D02*
X148700057Y-89483333D01*
X148700057Y-89483333D02*
X148652438Y-89530952D01*
X148652438Y-89530952D02*
X148604819Y-89626190D01*
X148604819Y-89626190D02*
X148604819Y-89864285D01*
X148604819Y-89864285D02*
X148652438Y-90007142D01*
X148461961Y-89721428D02*
X149747676Y-89721428D01*
X149985771Y-90721428D02*
X149985771Y-90673809D01*
X149985771Y-90673809D02*
X149938152Y-90578571D01*
X149938152Y-90578571D02*
X149842914Y-90530952D01*
X149842914Y-90530952D02*
X149366723Y-90530952D01*
X149366723Y-90530952D02*
X149271485Y-90483333D01*
X149271485Y-90483333D02*
X149223866Y-90388095D01*
X149223866Y-90388095D02*
X149176247Y-90483333D01*
X149176247Y-90483333D02*
X149081009Y-90530952D01*
X149081009Y-90530952D02*
X148604819Y-90530952D01*
X148604819Y-90530952D02*
X148509580Y-90578571D01*
X148509580Y-90578571D02*
X148461961Y-90673809D01*
X148461961Y-90673809D02*
X148461961Y-90721428D01*
X149604819Y-91673809D02*
X149128628Y-91340476D01*
X149604819Y-91102381D02*
X148604819Y-91102381D01*
X148604819Y-91102381D02*
X148604819Y-91483333D01*
X148604819Y-91483333D02*
X148652438Y-91578571D01*
X148652438Y-91578571D02*
X148700057Y-91626190D01*
X148700057Y-91626190D02*
X148795295Y-91673809D01*
X148795295Y-91673809D02*
X148938152Y-91673809D01*
X148938152Y-91673809D02*
X149033390Y-91626190D01*
X149033390Y-91626190D02*
X149081009Y-91578571D01*
X149081009Y-91578571D02*
X149128628Y-91483333D01*
X149128628Y-91483333D02*
X149128628Y-91102381D01*
X149081009Y-92102381D02*
X149081009Y-92435714D01*
X149604819Y-92578571D02*
X149604819Y-92102381D01*
X149604819Y-92102381D02*
X148604819Y-92102381D01*
X148604819Y-92102381D02*
X148604819Y-92578571D01*
X149081009Y-93340476D02*
X149081009Y-93007143D01*
X149604819Y-93007143D02*
X148604819Y-93007143D01*
X148604819Y-93007143D02*
X148604819Y-93483333D01*
X149081009Y-93864286D02*
X149081009Y-94197619D01*
X149604819Y-94340476D02*
X149604819Y-93864286D01*
X149604819Y-93864286D02*
X148604819Y-93864286D01*
X148604819Y-93864286D02*
X148604819Y-94340476D01*
X149604819Y-95340476D02*
X149128628Y-95007143D01*
X149604819Y-94769048D02*
X148604819Y-94769048D01*
X148604819Y-94769048D02*
X148604819Y-95150000D01*
X148604819Y-95150000D02*
X148652438Y-95245238D01*
X148652438Y-95245238D02*
X148700057Y-95292857D01*
X148700057Y-95292857D02*
X148795295Y-95340476D01*
X148795295Y-95340476D02*
X148938152Y-95340476D01*
X148938152Y-95340476D02*
X149033390Y-95292857D01*
X149033390Y-95292857D02*
X149081009Y-95245238D01*
X149081009Y-95245238D02*
X149128628Y-95150000D01*
X149128628Y-95150000D02*
X149128628Y-94769048D01*
X149081009Y-95769048D02*
X149081009Y-96102381D01*
X149604819Y-96245238D02*
X149604819Y-95769048D01*
X149604819Y-95769048D02*
X148604819Y-95769048D01*
X148604819Y-95769048D02*
X148604819Y-96245238D01*
X149604819Y-96673810D02*
X148604819Y-96673810D01*
X148604819Y-96673810D02*
X149604819Y-97245238D01*
X149604819Y-97245238D02*
X148604819Y-97245238D01*
X149509580Y-98292857D02*
X149557200Y-98245238D01*
X149557200Y-98245238D02*
X149604819Y-98102381D01*
X149604819Y-98102381D02*
X149604819Y-98007143D01*
X149604819Y-98007143D02*
X149557200Y-97864286D01*
X149557200Y-97864286D02*
X149461961Y-97769048D01*
X149461961Y-97769048D02*
X149366723Y-97721429D01*
X149366723Y-97721429D02*
X149176247Y-97673810D01*
X149176247Y-97673810D02*
X149033390Y-97673810D01*
X149033390Y-97673810D02*
X148842914Y-97721429D01*
X148842914Y-97721429D02*
X148747676Y-97769048D01*
X148747676Y-97769048D02*
X148652438Y-97864286D01*
X148652438Y-97864286D02*
X148604819Y-98007143D01*
X148604819Y-98007143D02*
X148604819Y-98102381D01*
X148604819Y-98102381D02*
X148652438Y-98245238D01*
X148652438Y-98245238D02*
X148700057Y-98292857D01*
X149081009Y-98721429D02*
X149081009Y-99054762D01*
X149604819Y-99197619D02*
X149604819Y-98721429D01*
X149604819Y-98721429D02*
X148604819Y-98721429D01*
X148604819Y-98721429D02*
X148604819Y-99197619D01*
X149985771Y-99530953D02*
X149985771Y-99578572D01*
X149985771Y-99578572D02*
X149938152Y-99673810D01*
X149938152Y-99673810D02*
X149842914Y-99721429D01*
X149842914Y-99721429D02*
X149366723Y-99721429D01*
X149366723Y-99721429D02*
X149271485Y-99769048D01*
X149271485Y-99769048D02*
X149223866Y-99864286D01*
X149223866Y-99864286D02*
X149176247Y-99769048D01*
X149176247Y-99769048D02*
X149081009Y-99721429D01*
X149081009Y-99721429D02*
X148604819Y-99721429D01*
X148604819Y-99721429D02*
X148509580Y-99673810D01*
X148509580Y-99673810D02*
X148461961Y-99578572D01*
X148461961Y-99578572D02*
X148461961Y-99530953D01*
X139407200Y-79285714D02*
X139454819Y-79428571D01*
X139454819Y-79428571D02*
X139454819Y-79666666D01*
X139454819Y-79666666D02*
X139407200Y-79761904D01*
X139407200Y-79761904D02*
X139359580Y-79809523D01*
X139359580Y-79809523D02*
X139264342Y-79857142D01*
X139264342Y-79857142D02*
X139169104Y-79857142D01*
X139169104Y-79857142D02*
X139073866Y-79809523D01*
X139073866Y-79809523D02*
X139026247Y-79761904D01*
X139026247Y-79761904D02*
X138978628Y-79666666D01*
X138978628Y-79666666D02*
X138931009Y-79476190D01*
X138931009Y-79476190D02*
X138883390Y-79380952D01*
X138883390Y-79380952D02*
X138835771Y-79333333D01*
X138835771Y-79333333D02*
X138740533Y-79285714D01*
X138740533Y-79285714D02*
X138645295Y-79285714D01*
X138645295Y-79285714D02*
X138550057Y-79333333D01*
X138550057Y-79333333D02*
X138502438Y-79380952D01*
X138502438Y-79380952D02*
X138454819Y-79476190D01*
X138454819Y-79476190D02*
X138454819Y-79714285D01*
X138454819Y-79714285D02*
X138502438Y-79857142D01*
X138311961Y-79571428D02*
X139597676Y-79571428D01*
X139835771Y-80571428D02*
X139835771Y-80523809D01*
X139835771Y-80523809D02*
X139788152Y-80428571D01*
X139788152Y-80428571D02*
X139692914Y-80380952D01*
X139692914Y-80380952D02*
X139216723Y-80380952D01*
X139216723Y-80380952D02*
X139121485Y-80333333D01*
X139121485Y-80333333D02*
X139073866Y-80238095D01*
X139073866Y-80238095D02*
X139026247Y-80333333D01*
X139026247Y-80333333D02*
X138931009Y-80380952D01*
X138931009Y-80380952D02*
X138454819Y-80380952D01*
X138454819Y-80380952D02*
X138359580Y-80428571D01*
X138359580Y-80428571D02*
X138311961Y-80523809D01*
X138311961Y-80523809D02*
X138311961Y-80571428D01*
X139454819Y-81523809D02*
X138978628Y-81190476D01*
X139454819Y-80952381D02*
X138454819Y-80952381D01*
X138454819Y-80952381D02*
X138454819Y-81333333D01*
X138454819Y-81333333D02*
X138502438Y-81428571D01*
X138502438Y-81428571D02*
X138550057Y-81476190D01*
X138550057Y-81476190D02*
X138645295Y-81523809D01*
X138645295Y-81523809D02*
X138788152Y-81523809D01*
X138788152Y-81523809D02*
X138883390Y-81476190D01*
X138883390Y-81476190D02*
X138931009Y-81428571D01*
X138931009Y-81428571D02*
X138978628Y-81333333D01*
X138978628Y-81333333D02*
X138978628Y-80952381D01*
X138931009Y-81952381D02*
X138931009Y-82285714D01*
X139454819Y-82428571D02*
X139454819Y-81952381D01*
X139454819Y-81952381D02*
X138454819Y-81952381D01*
X138454819Y-81952381D02*
X138454819Y-82428571D01*
X138931009Y-83190476D02*
X138931009Y-82857143D01*
X139454819Y-82857143D02*
X138454819Y-82857143D01*
X138454819Y-82857143D02*
X138454819Y-83333333D01*
X138931009Y-83714286D02*
X138931009Y-84047619D01*
X139454819Y-84190476D02*
X139454819Y-83714286D01*
X139454819Y-83714286D02*
X138454819Y-83714286D01*
X138454819Y-83714286D02*
X138454819Y-84190476D01*
X139454819Y-85190476D02*
X138978628Y-84857143D01*
X139454819Y-84619048D02*
X138454819Y-84619048D01*
X138454819Y-84619048D02*
X138454819Y-85000000D01*
X138454819Y-85000000D02*
X138502438Y-85095238D01*
X138502438Y-85095238D02*
X138550057Y-85142857D01*
X138550057Y-85142857D02*
X138645295Y-85190476D01*
X138645295Y-85190476D02*
X138788152Y-85190476D01*
X138788152Y-85190476D02*
X138883390Y-85142857D01*
X138883390Y-85142857D02*
X138931009Y-85095238D01*
X138931009Y-85095238D02*
X138978628Y-85000000D01*
X138978628Y-85000000D02*
X138978628Y-84619048D01*
X138931009Y-85619048D02*
X138931009Y-85952381D01*
X139454819Y-86095238D02*
X139454819Y-85619048D01*
X139454819Y-85619048D02*
X138454819Y-85619048D01*
X138454819Y-85619048D02*
X138454819Y-86095238D01*
X139454819Y-86523810D02*
X138454819Y-86523810D01*
X138454819Y-86523810D02*
X139454819Y-87095238D01*
X139454819Y-87095238D02*
X138454819Y-87095238D01*
X139359580Y-88142857D02*
X139407200Y-88095238D01*
X139407200Y-88095238D02*
X139454819Y-87952381D01*
X139454819Y-87952381D02*
X139454819Y-87857143D01*
X139454819Y-87857143D02*
X139407200Y-87714286D01*
X139407200Y-87714286D02*
X139311961Y-87619048D01*
X139311961Y-87619048D02*
X139216723Y-87571429D01*
X139216723Y-87571429D02*
X139026247Y-87523810D01*
X139026247Y-87523810D02*
X138883390Y-87523810D01*
X138883390Y-87523810D02*
X138692914Y-87571429D01*
X138692914Y-87571429D02*
X138597676Y-87619048D01*
X138597676Y-87619048D02*
X138502438Y-87714286D01*
X138502438Y-87714286D02*
X138454819Y-87857143D01*
X138454819Y-87857143D02*
X138454819Y-87952381D01*
X138454819Y-87952381D02*
X138502438Y-88095238D01*
X138502438Y-88095238D02*
X138550057Y-88142857D01*
X138931009Y-88571429D02*
X138931009Y-88904762D01*
X139454819Y-89047619D02*
X139454819Y-88571429D01*
X139454819Y-88571429D02*
X138454819Y-88571429D01*
X138454819Y-88571429D02*
X138454819Y-89047619D01*
X139835771Y-89380953D02*
X139835771Y-89428572D01*
X139835771Y-89428572D02*
X139788152Y-89523810D01*
X139788152Y-89523810D02*
X139692914Y-89571429D01*
X139692914Y-89571429D02*
X139216723Y-89571429D01*
X139216723Y-89571429D02*
X139121485Y-89619048D01*
X139121485Y-89619048D02*
X139073866Y-89714286D01*
X139073866Y-89714286D02*
X139026247Y-89619048D01*
X139026247Y-89619048D02*
X138931009Y-89571429D01*
X138931009Y-89571429D02*
X138454819Y-89571429D01*
X138454819Y-89571429D02*
X138359580Y-89523810D01*
X138359580Y-89523810D02*
X138311961Y-89428572D01*
X138311961Y-89428572D02*
X138311961Y-89380953D01*
X138454819Y-78357143D02*
X139454819Y-78595238D01*
X139454819Y-78595238D02*
X138740533Y-78785714D01*
X138740533Y-78785714D02*
X139454819Y-78976190D01*
X139454819Y-78976190D02*
X138454819Y-79214286D01*
X139407200Y-79547619D02*
X139454819Y-79690476D01*
X139454819Y-79690476D02*
X139454819Y-79928571D01*
X139454819Y-79928571D02*
X139407200Y-80023809D01*
X139407200Y-80023809D02*
X139359580Y-80071428D01*
X139359580Y-80071428D02*
X139264342Y-80119047D01*
X139264342Y-80119047D02*
X139169104Y-80119047D01*
X139169104Y-80119047D02*
X139073866Y-80071428D01*
X139073866Y-80071428D02*
X139026247Y-80023809D01*
X139026247Y-80023809D02*
X138978628Y-79928571D01*
X138978628Y-79928571D02*
X138931009Y-79738095D01*
X138931009Y-79738095D02*
X138883390Y-79642857D01*
X138883390Y-79642857D02*
X138835771Y-79595238D01*
X138835771Y-79595238D02*
X138740533Y-79547619D01*
X138740533Y-79547619D02*
X138645295Y-79547619D01*
X138645295Y-79547619D02*
X138550057Y-79595238D01*
X138550057Y-79595238D02*
X138502438Y-79642857D01*
X138502438Y-79642857D02*
X138454819Y-79738095D01*
X138454819Y-79738095D02*
X138454819Y-79976190D01*
X138454819Y-79976190D02*
X138502438Y-80119047D01*
X138454819Y-80738095D02*
X138454819Y-80928571D01*
X138454819Y-80928571D02*
X138502438Y-81023809D01*
X138502438Y-81023809D02*
X138597676Y-81119047D01*
X138597676Y-81119047D02*
X138788152Y-81166666D01*
X138788152Y-81166666D02*
X139121485Y-81166666D01*
X139121485Y-81166666D02*
X139311961Y-81119047D01*
X139311961Y-81119047D02*
X139407200Y-81023809D01*
X139407200Y-81023809D02*
X139454819Y-80928571D01*
X139454819Y-80928571D02*
X139454819Y-80738095D01*
X139454819Y-80738095D02*
X139407200Y-80642857D01*
X139407200Y-80642857D02*
X139311961Y-80547619D01*
X139311961Y-80547619D02*
X139121485Y-80500000D01*
X139121485Y-80500000D02*
X138788152Y-80500000D01*
X138788152Y-80500000D02*
X138597676Y-80547619D01*
X138597676Y-80547619D02*
X138502438Y-80642857D01*
X138502438Y-80642857D02*
X138454819Y-80738095D01*
X139454819Y-81595238D02*
X138454819Y-81595238D01*
X138454819Y-81595238D02*
X139454819Y-82166666D01*
X139454819Y-82166666D02*
X138454819Y-82166666D01*
X139073866Y-82642857D02*
X139073866Y-83404762D01*
X138883390Y-84023809D02*
X138835771Y-83928571D01*
X138835771Y-83928571D02*
X138788152Y-83880952D01*
X138788152Y-83880952D02*
X138692914Y-83833333D01*
X138692914Y-83833333D02*
X138645295Y-83833333D01*
X138645295Y-83833333D02*
X138550057Y-83880952D01*
X138550057Y-83880952D02*
X138502438Y-83928571D01*
X138502438Y-83928571D02*
X138454819Y-84023809D01*
X138454819Y-84023809D02*
X138454819Y-84214285D01*
X138454819Y-84214285D02*
X138502438Y-84309523D01*
X138502438Y-84309523D02*
X138550057Y-84357142D01*
X138550057Y-84357142D02*
X138645295Y-84404761D01*
X138645295Y-84404761D02*
X138692914Y-84404761D01*
X138692914Y-84404761D02*
X138788152Y-84357142D01*
X138788152Y-84357142D02*
X138835771Y-84309523D01*
X138835771Y-84309523D02*
X138883390Y-84214285D01*
X138883390Y-84214285D02*
X138883390Y-84023809D01*
X138883390Y-84023809D02*
X138931009Y-83928571D01*
X138931009Y-83928571D02*
X138978628Y-83880952D01*
X138978628Y-83880952D02*
X139073866Y-83833333D01*
X139073866Y-83833333D02*
X139264342Y-83833333D01*
X139264342Y-83833333D02*
X139359580Y-83880952D01*
X139359580Y-83880952D02*
X139407200Y-83928571D01*
X139407200Y-83928571D02*
X139454819Y-84023809D01*
X139454819Y-84023809D02*
X139454819Y-84214285D01*
X139454819Y-84214285D02*
X139407200Y-84309523D01*
X139407200Y-84309523D02*
X139359580Y-84357142D01*
X139359580Y-84357142D02*
X139264342Y-84404761D01*
X139264342Y-84404761D02*
X139073866Y-84404761D01*
X139073866Y-84404761D02*
X138978628Y-84357142D01*
X138978628Y-84357142D02*
X138931009Y-84309523D01*
X138931009Y-84309523D02*
X138883390Y-84214285D01*
X139073866Y-84833333D02*
X139073866Y-85595238D01*
X138931009Y-86404761D02*
X138931009Y-86071428D01*
X139454819Y-86071428D02*
X138454819Y-86071428D01*
X138454819Y-86071428D02*
X138454819Y-86547618D01*
X139454819Y-87071428D02*
X139407200Y-86976190D01*
X139407200Y-86976190D02*
X139311961Y-86928571D01*
X139311961Y-86928571D02*
X138454819Y-86928571D01*
X139454819Y-87880952D02*
X138931009Y-87880952D01*
X138931009Y-87880952D02*
X138835771Y-87833333D01*
X138835771Y-87833333D02*
X138788152Y-87738095D01*
X138788152Y-87738095D02*
X138788152Y-87547619D01*
X138788152Y-87547619D02*
X138835771Y-87452381D01*
X139407200Y-87880952D02*
X139454819Y-87785714D01*
X139454819Y-87785714D02*
X139454819Y-87547619D01*
X139454819Y-87547619D02*
X139407200Y-87452381D01*
X139407200Y-87452381D02*
X139311961Y-87404762D01*
X139311961Y-87404762D02*
X139216723Y-87404762D01*
X139216723Y-87404762D02*
X139121485Y-87452381D01*
X139121485Y-87452381D02*
X139073866Y-87547619D01*
X139073866Y-87547619D02*
X139073866Y-87785714D01*
X139073866Y-87785714D02*
X139026247Y-87880952D01*
X139407200Y-88309524D02*
X139454819Y-88404762D01*
X139454819Y-88404762D02*
X139454819Y-88595238D01*
X139454819Y-88595238D02*
X139407200Y-88690476D01*
X139407200Y-88690476D02*
X139311961Y-88738095D01*
X139311961Y-88738095D02*
X139264342Y-88738095D01*
X139264342Y-88738095D02*
X139169104Y-88690476D01*
X139169104Y-88690476D02*
X139121485Y-88595238D01*
X139121485Y-88595238D02*
X139121485Y-88452381D01*
X139121485Y-88452381D02*
X139073866Y-88357143D01*
X139073866Y-88357143D02*
X138978628Y-88309524D01*
X138978628Y-88309524D02*
X138931009Y-88309524D01*
X138931009Y-88309524D02*
X138835771Y-88357143D01*
X138835771Y-88357143D02*
X138788152Y-88452381D01*
X138788152Y-88452381D02*
X138788152Y-88595238D01*
X138788152Y-88595238D02*
X138835771Y-88690476D01*
X139454819Y-89166667D02*
X138454819Y-89166667D01*
X139454819Y-89595238D02*
X138931009Y-89595238D01*
X138931009Y-89595238D02*
X138835771Y-89547619D01*
X138835771Y-89547619D02*
X138788152Y-89452381D01*
X138788152Y-89452381D02*
X138788152Y-89309524D01*
X138788152Y-89309524D02*
X138835771Y-89214286D01*
X138835771Y-89214286D02*
X138883390Y-89166667D01*
X139454819Y-90595238D02*
X139454819Y-90023810D01*
X139454819Y-90309524D02*
X138454819Y-90309524D01*
X138454819Y-90309524D02*
X138597676Y-90214286D01*
X138597676Y-90214286D02*
X138692914Y-90119048D01*
X138692914Y-90119048D02*
X138740533Y-90023810D01*
D11*
X134095000Y-90250000D02*
X128095000Y-90250000D01*
X128095000Y-83250000D01*
X129095000Y-82250000D01*
X134095000Y-82250000D01*
X134095000Y-90250000D01*
X142500000Y-84400000D02*
X142500000Y-104900000D01*
X142500000Y-104900000D02*
X150300000Y-104900000D01*
X145287000Y-88418000D02*
X147518000Y-86187000D01*
X145287000Y-93418000D02*
X147518000Y-91187000D01*
X145287000Y-98418000D02*
X147518000Y-96187000D01*
X145287000Y-103418000D02*
X147518000Y-101187000D01*
X145482000Y-88613000D02*
X147713000Y-86382000D01*
X145482000Y-93613000D02*
X147713000Y-91382000D01*
X145482000Y-98613000D02*
X147713000Y-96382000D01*
X145482000Y-103613000D02*
X147713000Y-101382000D01*
X146000000Y-84400000D02*
X146000000Y-104900000D01*
X147000000Y-84400000D02*
X147000000Y-104900000D01*
X148300000Y-84400000D02*
X148300000Y-104900000D01*
X148350000Y-84400000D02*
X142500000Y-84400000D01*
X150300000Y-86350000D02*
X148350000Y-84400000D01*
X150300000Y-104900000D02*
X150300000Y-86350000D01*
X148100000Y-87400000D02*
G75*
G02*
X144900000Y-87400000I-1600000J0D01*
G01*
X144900000Y-87400000D02*
G75*
G02*
X148100000Y-87400000I1600000J0D01*
G01*
X148100000Y-92400000D02*
G75*
G02*
X144900000Y-92400000I-1600000J0D01*
G01*
X144900000Y-92400000D02*
G75*
G02*
X148100000Y-92400000I1600000J0D01*
G01*
X148100000Y-97400000D02*
G75*
G02*
X144900000Y-97400000I-1600000J0D01*
G01*
X144900000Y-97400000D02*
G75*
G02*
X148100000Y-97400000I1600000J0D01*
G01*
X148100000Y-102400000D02*
G75*
G02*
X144900000Y-102400000I-1600000J0D01*
G01*
X144900000Y-102400000D02*
G75*
G02*
X148100000Y-102400000I1600000J0D01*
G01*
X118250000Y-75000000D02*
G75*
G02*
X105750000Y-75000000I-6250000J0D01*
G01*
X105750000Y-75000000D02*
G75*
G02*
X118250000Y-75000000I6250000J0D01*
G01*
M02*
