G04 #@! TF.GenerationSoftware,KiCad,Pcbnew,9.0.3*
G04 #@! TF.CreationDate,2025-12-20T12:13:59-05:00*
G04 #@! TF.ProjectId,Experimental,45787065-7269-46d6-956e-74616c2e6b69,rev?*
G04 #@! TF.SameCoordinates,Original*
G04 #@! TF.FileFunction,Paste,Top*
G04 #@! TF.FilePolarity,Positive*
%FSLAX46Y46*%
G04 Gerber Fmt 4.6, Leading zero omitted, Abs format (unit mm)*
G04 Created by KiCad (PCBNEW 9.0.3) date 2025-12-20 12:13:59*
%MOMM*%
%LPD*%
G01*
G04 APERTURE LIST*
G04 Aperture macros list*
%AMRoundRect*
0 Rectangle with rounded corners*
0 $1 Rounding radius*
0 $2 $3 $4 $5 $6 $7 $8 $9 X,Y pos of 4 corners*
0 Add a 4 corners polygon primitive as box body*
4,1,4,$2,$3,$4,$5,$6,$7,$8,$9,$2,$3,0*
0 Add four circle primitives for the rounded corners*
1,1,$1+$1,$2,$3*
1,1,$1+$1,$4,$5*
1,1,$1+$1,$6,$7*
1,1,$1+$1,$8,$9*
0 Add four rect primitives between the rounded corners*
20,1,$1+$1,$2,$3,$4,$5,0*
20,1,$1+$1,$4,$5,$6,$7,0*
20,1,$1+$1,$6,$7,$8,$9,0*
20,1,$1+$1,$8,$9,$2,$3,0*%
G04 Aperture macros list end*
%ADD10C,0.000100*%
%ADD11RoundRect,0.150000X-0.150000X-0.425000X0.150000X-0.425000X0.150000X0.425000X-0.150000X0.425000X0*%
%ADD12RoundRect,0.075000X-0.075000X-0.500000X0.075000X-0.500000X0.075000X0.500000X-0.075000X0.500000X0*%
%ADD13O,1.000000X2.100000*%
%ADD14O,1.000000X1.800000*%
%ADD15RoundRect,0.218750X0.218750X0.256250X-0.218750X0.256250X-0.218750X-0.256250X0.218750X-0.256250X0*%
%ADD16RoundRect,0.158750X-0.158750X0.158750X-0.158750X-0.158750X0.158750X-0.158750X0.158750X0.158750X0*%
%ADD17RoundRect,0.158750X0.158750X-0.158750X0.158750X0.158750X-0.158750X0.158750X-0.158750X-0.158750X0*%
%ADD18RoundRect,0.135000X0.185000X-0.135000X0.185000X0.135000X-0.185000X0.135000X-0.185000X-0.135000X0*%
%ADD19RoundRect,0.150000X0.587500X0.150000X-0.587500X0.150000X-0.587500X-0.150000X0.587500X-0.150000X0*%
%ADD20RoundRect,0.147500X-0.147500X-0.172500X0.147500X-0.172500X0.147500X0.172500X-0.147500X0.172500X0*%
%ADD21R,0.900000X0.900000*%
%ADD22R,1.500000X0.900000*%
%ADD23R,0.900000X1.500000*%
%ADD24RoundRect,0.150000X-0.150000X0.587500X-0.150000X-0.587500X0.150000X-0.587500X0.150000X0.587500X0*%
%ADD25R,1.600000X1.000000*%
%ADD26RoundRect,0.158750X0.158750X0.158750X-0.158750X0.158750X-0.158750X-0.158750X0.158750X-0.158750X0*%
%ADD27RoundRect,0.250000X-0.400000X-0.450000X0.400000X-0.450000X0.400000X0.450000X-0.400000X0.450000X0*%
%ADD28RoundRect,0.158750X-0.158750X-0.158750X0.158750X-0.158750X0.158750X0.158750X-0.158750X0.158750X0*%
%ADD29R,1.050000X2.200000*%
%ADD30R,1.000000X1.050000*%
%ADD31RoundRect,0.250000X0.400000X0.450000X-0.400000X0.450000X-0.400000X-0.450000X0.400000X-0.450000X0*%
G04 APERTURE END LIST*
D10*
X118900000Y-56600000D02*
X119800000Y-56600000D01*
X119800000Y-57200000D01*
X118900000Y-57200000D01*
X118900000Y-57300000D01*
X117700000Y-57300000D01*
X117700000Y-56500000D01*
X118900000Y-56500000D01*
X118900000Y-56600000D01*
G36*
X118900000Y-56600000D02*
G01*
X119800000Y-56600000D01*
X119800000Y-57200000D01*
X118900000Y-57200000D01*
X118900000Y-57300000D01*
X117700000Y-57300000D01*
X117700000Y-56500000D01*
X118900000Y-56500000D01*
X118900000Y-56600000D01*
G37*
X118900000Y-58800000D02*
X119800000Y-58800000D01*
X119800000Y-59400000D01*
X118900000Y-59400000D01*
X118900000Y-59500000D01*
X117700000Y-59500000D01*
X117700000Y-58700000D01*
X118900000Y-58700000D01*
X118900000Y-58800000D01*
G36*
X118900000Y-58800000D02*
G01*
X119800000Y-58800000D01*
X119800000Y-59400000D01*
X118900000Y-59400000D01*
X118900000Y-59500000D01*
X117700000Y-59500000D01*
X117700000Y-58700000D01*
X118900000Y-58700000D01*
X118900000Y-58800000D01*
G37*
X118900000Y-57700000D02*
X119800000Y-57700000D01*
X119800000Y-58300000D01*
X118900000Y-58300000D01*
X118900000Y-58400000D01*
X117700000Y-58400000D01*
X117700000Y-57600000D01*
X118900000Y-57600000D01*
X118900000Y-57700000D01*
G36*
X118900000Y-57700000D02*
G01*
X119800000Y-57700000D01*
X119800000Y-58300000D01*
X118900000Y-58300000D01*
X118900000Y-58400000D01*
X117700000Y-58400000D01*
X117700000Y-57600000D01*
X118900000Y-57600000D01*
X118900000Y-57700000D01*
G37*
X118900000Y-54400000D02*
X119800000Y-54400000D01*
X119800000Y-55000000D01*
X118900000Y-55000000D01*
X118900000Y-55100000D01*
X117700000Y-55100000D01*
X117700000Y-54300000D01*
X118900000Y-54300000D01*
X118900000Y-54400000D01*
G36*
X118900000Y-54400000D02*
G01*
X119800000Y-54400000D01*
X119800000Y-55000000D01*
X118900000Y-55000000D01*
X118900000Y-55100000D01*
X117700000Y-55100000D01*
X117700000Y-54300000D01*
X118900000Y-54300000D01*
X118900000Y-54400000D01*
G37*
X118900000Y-55500000D02*
X119800000Y-55500000D01*
X119800000Y-56100000D01*
X118900000Y-56100000D01*
X118900000Y-56200000D01*
X117700000Y-56200000D01*
X117700000Y-55400000D01*
X118900000Y-55400000D01*
X118900000Y-55500000D01*
G36*
X118900000Y-55500000D02*
G01*
X119800000Y-55500000D01*
X119800000Y-56100000D01*
X118900000Y-56100000D01*
X118900000Y-56200000D01*
X117700000Y-56200000D01*
X117700000Y-55400000D01*
X118900000Y-55400000D01*
X118900000Y-55500000D01*
G37*
X118900000Y-52200000D02*
X119800000Y-52200000D01*
X119800000Y-52800000D01*
X118900000Y-52800000D01*
X118900000Y-52900000D01*
X117700000Y-52900000D01*
X117700000Y-52100000D01*
X118900000Y-52100000D01*
X118900000Y-52200000D01*
G36*
X118900000Y-52200000D02*
G01*
X119800000Y-52200000D01*
X119800000Y-52800000D01*
X118900000Y-52800000D01*
X118900000Y-52900000D01*
X117700000Y-52900000D01*
X117700000Y-52100000D01*
X118900000Y-52100000D01*
X118900000Y-52200000D01*
G37*
X118900000Y-53300000D02*
X119800000Y-53300000D01*
X119800000Y-53900000D01*
X118900000Y-53900000D01*
X118900000Y-54000000D01*
X117700000Y-54000000D01*
X117700000Y-53200000D01*
X118900000Y-53200000D01*
X118900000Y-53300000D01*
G36*
X118900000Y-53300000D02*
G01*
X119800000Y-53300000D01*
X119800000Y-53900000D01*
X118900000Y-53900000D01*
X118900000Y-54000000D01*
X117700000Y-54000000D01*
X117700000Y-53200000D01*
X118900000Y-53200000D01*
X118900000Y-53300000D01*
G37*
X132300000Y-63600000D02*
X131100000Y-63600000D01*
X131100000Y-63500000D01*
X130200000Y-63500000D01*
X130200000Y-62900000D01*
X131100000Y-62900000D01*
X131100000Y-62800000D01*
X132300000Y-62800000D01*
X132300000Y-63600000D01*
G36*
X132300000Y-63600000D02*
G01*
X131100000Y-63600000D01*
X131100000Y-63500000D01*
X130200000Y-63500000D01*
X130200000Y-62900000D01*
X131100000Y-62900000D01*
X131100000Y-62800000D01*
X132300000Y-62800000D01*
X132300000Y-63600000D01*
G37*
X132300000Y-62500000D02*
X131100000Y-62500000D01*
X131100000Y-62400000D01*
X130200000Y-62400000D01*
X130200000Y-61800000D01*
X131100000Y-61800000D01*
X131100000Y-61700000D01*
X132300000Y-61700000D01*
X132300000Y-62500000D01*
G36*
X132300000Y-62500000D02*
G01*
X131100000Y-62500000D01*
X131100000Y-62400000D01*
X130200000Y-62400000D01*
X130200000Y-61800000D01*
X131100000Y-61800000D01*
X131100000Y-61700000D01*
X132300000Y-61700000D01*
X132300000Y-62500000D01*
G37*
X132300000Y-65800000D02*
X131100000Y-65800000D01*
X131100000Y-65700000D01*
X130200000Y-65700000D01*
X130200000Y-65100000D01*
X131100000Y-65100000D01*
X131100000Y-65000000D01*
X132300000Y-65000000D01*
X132300000Y-65800000D01*
G36*
X132300000Y-65800000D02*
G01*
X131100000Y-65800000D01*
X131100000Y-65700000D01*
X130200000Y-65700000D01*
X130200000Y-65100000D01*
X131100000Y-65100000D01*
X131100000Y-65000000D01*
X132300000Y-65000000D01*
X132300000Y-65800000D01*
G37*
X132300000Y-64700000D02*
X131100000Y-64700000D01*
X131100000Y-64600000D01*
X130200000Y-64600000D01*
X130200000Y-64000000D01*
X131100000Y-64000000D01*
X131100000Y-63900000D01*
X132300000Y-63900000D01*
X132300000Y-64700000D01*
G36*
X132300000Y-64700000D02*
G01*
X131100000Y-64700000D01*
X131100000Y-64600000D01*
X130200000Y-64600000D01*
X130200000Y-64000000D01*
X131100000Y-64000000D01*
X131100000Y-63900000D01*
X132300000Y-63900000D01*
X132300000Y-64700000D01*
G37*
X132300000Y-66900000D02*
X131100000Y-66900000D01*
X131100000Y-66800000D01*
X130200000Y-66800000D01*
X130200000Y-66200000D01*
X131100000Y-66200000D01*
X131100000Y-66100000D01*
X132300000Y-66100000D01*
X132300000Y-66900000D01*
G36*
X132300000Y-66900000D02*
G01*
X131100000Y-66900000D01*
X131100000Y-66800000D01*
X130200000Y-66800000D01*
X130200000Y-66200000D01*
X131100000Y-66200000D01*
X131100000Y-66100000D01*
X132300000Y-66100000D01*
X132300000Y-66900000D01*
G37*
X118900000Y-61800000D02*
X119800000Y-61800000D01*
X119800000Y-62400000D01*
X118900000Y-62400000D01*
X118900000Y-62500000D01*
X117700000Y-62500000D01*
X117700000Y-61700000D01*
X118900000Y-61700000D01*
X118900000Y-61800000D01*
G36*
X118900000Y-61800000D02*
G01*
X119800000Y-61800000D01*
X119800000Y-62400000D01*
X118900000Y-62400000D01*
X118900000Y-62500000D01*
X117700000Y-62500000D01*
X117700000Y-61700000D01*
X118900000Y-61700000D01*
X118900000Y-61800000D01*
G37*
X118900000Y-62900000D02*
X119800000Y-62900000D01*
X119800000Y-63500000D01*
X118900000Y-63500000D01*
X118900000Y-63600000D01*
X117700000Y-63600000D01*
X117700000Y-62800000D01*
X118900000Y-62800000D01*
X118900000Y-62900000D01*
G36*
X118900000Y-62900000D02*
G01*
X119800000Y-62900000D01*
X119800000Y-63500000D01*
X118900000Y-63500000D01*
X118900000Y-63600000D01*
X117700000Y-63600000D01*
X117700000Y-62800000D01*
X118900000Y-62800000D01*
X118900000Y-62900000D01*
G37*
X118900000Y-64000000D02*
X119800000Y-64000000D01*
X119800000Y-64600000D01*
X118900000Y-64600000D01*
X118900000Y-64700000D01*
X117700000Y-64700000D01*
X117700000Y-63900000D01*
X118900000Y-63900000D01*
X118900000Y-64000000D01*
G36*
X118900000Y-64000000D02*
G01*
X119800000Y-64000000D01*
X119800000Y-64600000D01*
X118900000Y-64600000D01*
X118900000Y-64700000D01*
X117700000Y-64700000D01*
X117700000Y-63900000D01*
X118900000Y-63900000D01*
X118900000Y-64000000D01*
G37*
X118900000Y-65100000D02*
X119800000Y-65100000D01*
X119800000Y-65700000D01*
X118900000Y-65700000D01*
X118900000Y-65800000D01*
X117700000Y-65800000D01*
X117700000Y-65000000D01*
X118900000Y-65000000D01*
X118900000Y-65100000D01*
G36*
X118900000Y-65100000D02*
G01*
X119800000Y-65100000D01*
X119800000Y-65700000D01*
X118900000Y-65700000D01*
X118900000Y-65800000D01*
X117700000Y-65800000D01*
X117700000Y-65000000D01*
X118900000Y-65000000D01*
X118900000Y-65100000D01*
G37*
X118900000Y-66200000D02*
X119800000Y-66200000D01*
X119800000Y-66800000D01*
X118900000Y-66800000D01*
X118900000Y-66900000D01*
X117700000Y-66900000D01*
X117700000Y-66100000D01*
X118900000Y-66100000D01*
X118900000Y-66200000D01*
G36*
X118900000Y-66200000D02*
G01*
X119800000Y-66200000D01*
X119800000Y-66800000D01*
X118900000Y-66800000D01*
X118900000Y-66900000D01*
X117700000Y-66900000D01*
X117700000Y-66100000D01*
X118900000Y-66100000D01*
X118900000Y-66200000D01*
G37*
X132300000Y-59500000D02*
X131100000Y-59500000D01*
X131100000Y-59400000D01*
X130200000Y-59400000D01*
X130200000Y-58800000D01*
X131100000Y-58800000D01*
X131100000Y-58700000D01*
X132300000Y-58700000D01*
X132300000Y-59500000D01*
G36*
X132300000Y-59500000D02*
G01*
X131100000Y-59500000D01*
X131100000Y-59400000D01*
X130200000Y-59400000D01*
X130200000Y-58800000D01*
X131100000Y-58800000D01*
X131100000Y-58700000D01*
X132300000Y-58700000D01*
X132300000Y-59500000D01*
G37*
X132300000Y-58400000D02*
X131100000Y-58400000D01*
X131100000Y-58300000D01*
X130200000Y-58300000D01*
X130200000Y-57700000D01*
X131100000Y-57700000D01*
X131100000Y-57600000D01*
X132300000Y-57600000D01*
X132300000Y-58400000D01*
G36*
X132300000Y-58400000D02*
G01*
X131100000Y-58400000D01*
X131100000Y-58300000D01*
X130200000Y-58300000D01*
X130200000Y-57700000D01*
X131100000Y-57700000D01*
X131100000Y-57600000D01*
X132300000Y-57600000D01*
X132300000Y-58400000D01*
G37*
X132300000Y-57300000D02*
X131100000Y-57300000D01*
X131100000Y-57200000D01*
X130200000Y-57200000D01*
X130200000Y-56600000D01*
X131100000Y-56600000D01*
X131100000Y-56500000D01*
X132300000Y-56500000D01*
X132300000Y-57300000D01*
G36*
X132300000Y-57300000D02*
G01*
X131100000Y-57300000D01*
X131100000Y-57200000D01*
X130200000Y-57200000D01*
X130200000Y-56600000D01*
X131100000Y-56600000D01*
X131100000Y-56500000D01*
X132300000Y-56500000D01*
X132300000Y-57300000D01*
G37*
X132300000Y-56200000D02*
X131100000Y-56200000D01*
X131100000Y-56100000D01*
X130200000Y-56100000D01*
X130200000Y-55500000D01*
X131100000Y-55500000D01*
X131100000Y-55400000D01*
X132300000Y-55400000D01*
X132300000Y-56200000D01*
G36*
X132300000Y-56200000D02*
G01*
X131100000Y-56200000D01*
X131100000Y-56100000D01*
X130200000Y-56100000D01*
X130200000Y-55500000D01*
X131100000Y-55500000D01*
X131100000Y-55400000D01*
X132300000Y-55400000D01*
X132300000Y-56200000D01*
G37*
X132300000Y-55100000D02*
X131100000Y-55100000D01*
X131100000Y-55000000D01*
X130200000Y-55000000D01*
X130200000Y-54400000D01*
X131100000Y-54400000D01*
X131100000Y-54300000D01*
X132300000Y-54300000D01*
X132300000Y-55100000D01*
G36*
X132300000Y-55100000D02*
G01*
X131100000Y-55100000D01*
X131100000Y-55000000D01*
X130200000Y-55000000D01*
X130200000Y-54400000D01*
X131100000Y-54400000D01*
X131100000Y-54300000D01*
X132300000Y-54300000D01*
X132300000Y-55100000D01*
G37*
X132300000Y-54000000D02*
X131100000Y-54000000D01*
X131100000Y-53900000D01*
X130200000Y-53900000D01*
X130200000Y-53300000D01*
X131100000Y-53300000D01*
X131100000Y-53200000D01*
X132300000Y-53200000D01*
X132300000Y-54000000D01*
G36*
X132300000Y-54000000D02*
G01*
X131100000Y-54000000D01*
X131100000Y-53900000D01*
X130200000Y-53900000D01*
X130200000Y-53300000D01*
X131100000Y-53300000D01*
X131100000Y-53200000D01*
X132300000Y-53200000D01*
X132300000Y-54000000D01*
G37*
X132300000Y-52900000D02*
X131100000Y-52900000D01*
X131100000Y-52800000D01*
X130200000Y-52800000D01*
X130200000Y-52200000D01*
X131100000Y-52200000D01*
X131100000Y-52100000D01*
X132300000Y-52100000D01*
X132300000Y-52900000D01*
G36*
X132300000Y-52900000D02*
G01*
X131100000Y-52900000D01*
X131100000Y-52800000D01*
X130200000Y-52800000D01*
X130200000Y-52200000D01*
X131100000Y-52200000D01*
X131100000Y-52100000D01*
X132300000Y-52100000D01*
X132300000Y-52900000D01*
G37*
D11*
X122938400Y-113320000D03*
X123738400Y-113320000D03*
D12*
X124888400Y-113320000D03*
X125888400Y-113320000D03*
X126388400Y-113320000D03*
X127388400Y-113320000D03*
D11*
X128538400Y-113320000D03*
X129338400Y-113320000D03*
X129338400Y-113320000D03*
X128538400Y-113320000D03*
D12*
X127888400Y-113320000D03*
X126888400Y-113320000D03*
X125388400Y-113320000D03*
X124388400Y-113320000D03*
D11*
X123738400Y-113320000D03*
X122938400Y-113320000D03*
D13*
X121818400Y-113895000D03*
D14*
X121818400Y-118075000D03*
D13*
X130458400Y-113895000D03*
D14*
X130458400Y-118075000D03*
D15*
X103575000Y-114500000D03*
X102000000Y-114500000D03*
D16*
X108500000Y-78500000D03*
X107611000Y-78500000D03*
X108944500Y-115500000D03*
X108055500Y-115500000D03*
D17*
X107055500Y-117500000D03*
X107944500Y-117500000D03*
X109055500Y-120000000D03*
X109944500Y-120000000D03*
D18*
X102000000Y-117500000D03*
X102000000Y-116480000D03*
D19*
X112437500Y-119950000D03*
X112437500Y-118050000D03*
X110562500Y-119000000D03*
D20*
X107015000Y-120000000D03*
X107985000Y-120000000D03*
D21*
X122845606Y-81690000D03*
X122850000Y-78890000D03*
X122850000Y-80290000D03*
X124245606Y-81690000D03*
X124250000Y-78890000D03*
X124250000Y-80290000D03*
X125645606Y-81690000D03*
X125650000Y-78890000D03*
X125650000Y-80290000D03*
D22*
X117000000Y-72570000D03*
X117000000Y-73840000D03*
X117000000Y-75110000D03*
X117000000Y-76380000D03*
X117000000Y-77650000D03*
X117000000Y-78920000D03*
X117000000Y-80190000D03*
X117000000Y-81460000D03*
X117000000Y-82730000D03*
X117000000Y-84000000D03*
X117000000Y-85270000D03*
X117000000Y-86540000D03*
X117000000Y-87810000D03*
X117000000Y-89080000D03*
D23*
X118765000Y-90330000D03*
X120035000Y-90330000D03*
X121305000Y-90330000D03*
X122575000Y-90330000D03*
X123845000Y-90330000D03*
X125115000Y-90330000D03*
X126385000Y-90330000D03*
X127655000Y-90330000D03*
X128925000Y-90330000D03*
X130195000Y-90330000D03*
X131465000Y-90330000D03*
X132735000Y-90330000D03*
D22*
X134500000Y-89080000D03*
X134500000Y-87810000D03*
X134500000Y-86540000D03*
X134500000Y-85270000D03*
X134500000Y-84000000D03*
X134500000Y-82730000D03*
X134500000Y-81460000D03*
X134500000Y-80190000D03*
X134500000Y-78920000D03*
X134500000Y-77650000D03*
X134500000Y-76380000D03*
X134500000Y-75110000D03*
X134500000Y-73840000D03*
X134500000Y-72570000D03*
D17*
X116055500Y-60500000D03*
X116944500Y-60500000D03*
D24*
X113950000Y-94562500D03*
X112050000Y-94562500D03*
X113000000Y-96437500D03*
D25*
X113538400Y-58170000D03*
X113538400Y-60670000D03*
X113538400Y-63170000D03*
X111138400Y-58170000D03*
X111138400Y-60670000D03*
X111138400Y-63170000D03*
D26*
X127500000Y-115944500D03*
X127500000Y-115055500D03*
D27*
X120100000Y-111000000D03*
X123000000Y-111000000D03*
D28*
X111062500Y-103555500D03*
X111062500Y-104444500D03*
D26*
X125000000Y-115944500D03*
X125000000Y-115055500D03*
D19*
X113000000Y-108450000D03*
X113000000Y-106550000D03*
X111125000Y-107500000D03*
D29*
X141500000Y-56500000D03*
D30*
X140025000Y-58025000D03*
D29*
X138550000Y-56500000D03*
D28*
X113062500Y-102060300D03*
X113062500Y-102949300D03*
X113000000Y-90111000D03*
X113000000Y-91000000D03*
X111500000Y-91555500D03*
X111500000Y-92444500D03*
D31*
X113450000Y-111000000D03*
X110550000Y-111000000D03*
X132900000Y-110500000D03*
X130000000Y-110500000D03*
X128950000Y-107500000D03*
X126050000Y-107500000D03*
D25*
X137100000Y-93000000D03*
X137100000Y-90500000D03*
X137100000Y-88000000D03*
X139500000Y-93000000D03*
X139500000Y-90500000D03*
X139500000Y-88000000D03*
D16*
X134889000Y-92500000D03*
X134000000Y-92500000D03*
M02*
