G04 #@! TF.GenerationSoftware,KiCad,Pcbnew,9.0.3*
G04 #@! TF.CreationDate,2025-12-20T12:13:59-05:00*
G04 #@! TF.ProjectId,Experimental,45787065-7269-46d6-956e-74616c2e6b69,rev?*
G04 #@! TF.SameCoordinates,Original*
G04 #@! TF.FileFunction,Paste,Bot*
G04 #@! TF.FilePolarity,Positive*
%FSLAX46Y46*%
G04 Gerber Fmt 4.6, Leading zero omitted, Abs format (unit mm)*
G04 Created by KiCad (PCBNEW 9.0.3) date 2025-12-20 12:13:59*
%MOMM*%
%LPD*%
G01*
G04 APERTURE LIST*
G04 Aperture macros list*
%AMRoundRect*
0 Rectangle with rounded corners*
0 $1 Rounding radius*
0 $2 $3 $4 $5 $6 $7 $8 $9 X,Y pos of 4 corners*
0 Add a 4 corners polygon primitive as box body*
4,1,4,$2,$3,$4,$5,$6,$7,$8,$9,$2,$3,0*
0 Add four circle primitives for the rounded corners*
1,1,$1+$1,$2,$3*
1,1,$1+$1,$4,$5*
1,1,$1+$1,$6,$7*
1,1,$1+$1,$8,$9*
0 Add four rect primitives between the rounded corners*
20,1,$1+$1,$2,$3,$4,$5,0*
20,1,$1+$1,$4,$5,$6,$7,0*
20,1,$1+$1,$6,$7,$8,$9,0*
20,1,$1+$1,$8,$9,$2,$3,0*%
G04 Aperture macros list end*
%ADD10R,0.610000X0.350000*%
%ADD11R,0.350000X0.610000*%
%ADD12RoundRect,0.158750X-0.158750X-0.158750X0.158750X-0.158750X0.158750X0.158750X-0.158750X0.158750X0*%
%ADD13RoundRect,0.140000X0.140000X0.170000X-0.140000X0.170000X-0.140000X-0.170000X0.140000X-0.170000X0*%
%ADD14RoundRect,0.116250X0.348750X-0.358750X0.348750X0.358750X-0.348750X0.358750X-0.348750X-0.358750X0*%
%ADD15RoundRect,0.140000X0.170000X-0.140000X0.170000X0.140000X-0.170000X0.140000X-0.170000X-0.140000X0*%
%ADD16RoundRect,0.015750X0.174250X-0.159250X0.174250X0.159250X-0.174250X0.159250X-0.174250X-0.159250X0*%
%ADD17RoundRect,0.250000X-0.475000X0.250000X-0.475000X-0.250000X0.475000X-0.250000X0.475000X0.250000X0*%
%ADD18RoundRect,0.116250X-0.348750X0.358750X-0.348750X-0.358750X0.348750X-0.358750X0.348750X0.358750X0*%
%ADD19R,0.700000X1.200000*%
%ADD20R,1.000000X0.800000*%
%ADD21R,1.000000X1.200000*%
%ADD22R,1.000000X2.800000*%
%ADD23R,1.300000X1.900000*%
%ADD24RoundRect,0.158750X-0.158750X0.158750X-0.158750X-0.158750X0.158750X-0.158750X0.158750X0.158750X0*%
%ADD25RoundRect,0.150000X-0.150000X0.512500X-0.150000X-0.512500X0.150000X-0.512500X0.150000X0.512500X0*%
%ADD26RoundRect,0.158750X0.158750X-0.158750X0.158750X0.158750X-0.158750X0.158750X-0.158750X-0.158750X0*%
%ADD27R,1.600000X3.200000*%
%ADD28RoundRect,0.250000X0.615000X-0.435000X0.615000X0.435000X-0.615000X0.435000X-0.615000X-0.435000X0*%
%ADD29RoundRect,0.125000X0.125000X-0.200000X0.125000X0.200000X-0.125000X0.200000X-0.125000X-0.200000X0*%
%ADD30R,0.375000X0.350000*%
%ADD31R,0.350000X0.375000*%
%ADD32RoundRect,0.135000X-0.185000X0.135000X-0.185000X-0.135000X0.185000X-0.135000X0.185000X0.135000X0*%
%ADD33RoundRect,0.218750X0.256250X-0.218750X0.256250X0.218750X-0.256250X0.218750X-0.256250X-0.218750X0*%
%ADD34R,1.020000X0.890000*%
G04 APERTURE END LIST*
D10*
X101478400Y-81680000D03*
X101478400Y-81180000D03*
X101478400Y-80680000D03*
X101478400Y-80180000D03*
D11*
X102138400Y-80020000D03*
X102638400Y-80020000D03*
X103138400Y-80020000D03*
D10*
X103798400Y-80180000D03*
X103798400Y-80680000D03*
X103798400Y-81180000D03*
X103798400Y-81680000D03*
D11*
X103138400Y-81840000D03*
X102638400Y-81840000D03*
X102138400Y-81840000D03*
D12*
X112861600Y-80330000D03*
X112861600Y-79441000D03*
D13*
X134480000Y-103000000D03*
X133520000Y-103000000D03*
D14*
X107000000Y-76740000D03*
X107000000Y-75260000D03*
X109138400Y-76740000D03*
X109138400Y-75260000D03*
X112138400Y-75930000D03*
X112138400Y-74450000D03*
D15*
X110638400Y-75910000D03*
X110638400Y-74950000D03*
D16*
X106888400Y-81445000D03*
X106388400Y-81445000D03*
X105873400Y-81180000D03*
X105873400Y-80680000D03*
X105873400Y-80180000D03*
X106388400Y-79915000D03*
X106888400Y-79915000D03*
X107403400Y-80180000D03*
X107403400Y-80680000D03*
X107403400Y-81180000D03*
D17*
X117000000Y-98550000D03*
X117000000Y-100450000D03*
D12*
X120638400Y-83559000D03*
X120638400Y-82670000D03*
D18*
X104000000Y-75260000D03*
X104000000Y-76740000D03*
D19*
X142745000Y-67690000D03*
X141645000Y-67690000D03*
X140545000Y-67690000D03*
X139445000Y-67690000D03*
X138345000Y-67690000D03*
X137245000Y-67690000D03*
X136145000Y-67690000D03*
X135045000Y-67690000D03*
X134095000Y-67690000D03*
D20*
X133145000Y-57190000D03*
D21*
X133145000Y-63390000D03*
D22*
X133145000Y-53040000D03*
D21*
X144295000Y-67690000D03*
D23*
X146645000Y-52590000D03*
D24*
X103555500Y-83500000D03*
X104444500Y-83500000D03*
D25*
X133600000Y-105000000D03*
X134550000Y-105000000D03*
X135500000Y-105000000D03*
X135500000Y-107275000D03*
X133600000Y-107275000D03*
D12*
X119638400Y-83559000D03*
X119638400Y-82670000D03*
D26*
X130944500Y-89000000D03*
X130055500Y-89000000D03*
D12*
X101500000Y-78000000D03*
X101500000Y-77111000D03*
D14*
X105500000Y-76740000D03*
X105500000Y-75260000D03*
D12*
X114000000Y-80444500D03*
X114000000Y-79555500D03*
D13*
X134480000Y-109000000D03*
X133520000Y-109000000D03*
D27*
X128325000Y-97395000D03*
X128325000Y-92395000D03*
D28*
X131150000Y-85100000D03*
X129000000Y-85100000D03*
X131150000Y-83400000D03*
X129000000Y-83400000D03*
D29*
X131980000Y-88000000D03*
X130710000Y-88000000D03*
X129440000Y-88000000D03*
X128170000Y-88000000D03*
X128170000Y-80500000D03*
X129440000Y-80500000D03*
X130710000Y-80500000D03*
X131980000Y-80500000D03*
D30*
X109625900Y-81417500D03*
X109625900Y-80917500D03*
X109625900Y-80417500D03*
X109625900Y-79917500D03*
D31*
X110138400Y-79905000D03*
X110638400Y-79905000D03*
D30*
X111150900Y-79917500D03*
X111150900Y-80417500D03*
X111150900Y-80917500D03*
X111150900Y-81417500D03*
D31*
X110638400Y-81430000D03*
X110138400Y-81430000D03*
D32*
X139000000Y-103277500D03*
X139000000Y-104297500D03*
D33*
X139000000Y-107075000D03*
X139000000Y-105500000D03*
D18*
X102500000Y-75260000D03*
X102500000Y-76740000D03*
D34*
X122000000Y-99830000D03*
X122000000Y-101170000D03*
M02*
