G04 #@! TF.GenerationSoftware,KiCad,Pcbnew,9.0.6*
G04 #@! TF.CreationDate,2026-01-01T21:38:39-05:00*
G04 #@! TF.ProjectId,Experimental,45787065-7269-46d6-956e-74616c2e6b69,rev?*
G04 #@! TF.SameCoordinates,Original*
G04 #@! TF.FileFunction,Copper,L4,Bot*
G04 #@! TF.FilePolarity,Positive*
%FSLAX46Y46*%
G04 Gerber Fmt 4.6, Leading zero omitted, Abs format (unit mm)*
G04 Created by KiCad (PCBNEW 9.0.6) date 2026-01-01 21:38:39*
%MOMM*%
%LPD*%
G01*
G04 APERTURE LIST*
G04 Aperture macros list*
%AMRoundRect*
0 Rectangle with rounded corners*
0 $1 Rounding radius*
0 $2 $3 $4 $5 $6 $7 $8 $9 X,Y pos of 4 corners*
0 Add a 4 corners polygon primitive as box body*
4,1,4,$2,$3,$4,$5,$6,$7,$8,$9,$2,$3,0*
0 Add four circle primitives for the rounded corners*
1,1,$1+$1,$2,$3*
1,1,$1+$1,$4,$5*
1,1,$1+$1,$6,$7*
1,1,$1+$1,$8,$9*
0 Add four rect primitives between the rounded corners*
20,1,$1+$1,$2,$3,$4,$5,0*
20,1,$1+$1,$4,$5,$6,$7,0*
20,1,$1+$1,$6,$7,$8,$9,0*
20,1,$1+$1,$8,$9,$2,$3,0*%
G04 Aperture macros list end*
G04 #@! TA.AperFunction,ComponentPad*
%ADD10C,2.800000*%
G04 #@! TD*
G04 #@! TA.AperFunction,ComponentPad*
%ADD11RoundRect,0.250001X-1.149999X1.149999X-1.149999X-1.149999X1.149999X-1.149999X1.149999X1.149999X0*%
G04 #@! TD*
G04 #@! TA.AperFunction,HeatsinkPad*
%ADD12R,4.300000X3.400000*%
G04 #@! TD*
G04 #@! TA.AperFunction,SMDPad,CuDef*
%ADD13RoundRect,0.125000X-0.125000X0.200000X-0.125000X-0.200000X0.125000X-0.200000X0.125000X0.200000X0*%
G04 #@! TD*
G04 #@! TA.AperFunction,ComponentPad*
%ADD14RoundRect,0.250001X1.149999X-1.149999X1.149999X1.149999X-1.149999X1.149999X-1.149999X-1.149999X0*%
G04 #@! TD*
G04 #@! TA.AperFunction,ComponentPad*
%ADD15O,1.200000X1.750000*%
G04 #@! TD*
G04 #@! TA.AperFunction,ComponentPad*
%ADD16RoundRect,0.250000X-0.350000X-0.625000X0.350000X-0.625000X0.350000X0.625000X-0.350000X0.625000X0*%
G04 #@! TD*
G04 #@! TA.AperFunction,HeatsinkPad*
%ADD17C,0.600000*%
G04 #@! TD*
G04 #@! TA.AperFunction,SMDPad,CuDef*
%ADD18RoundRect,0.158750X-0.158750X-0.158750X0.158750X-0.158750X0.158750X0.158750X-0.158750X0.158750X0*%
G04 #@! TD*
G04 #@! TA.AperFunction,ComponentPad*
%ADD19C,1.710000*%
G04 #@! TD*
G04 #@! TA.AperFunction,ComponentPad*
%ADD20R,1.710000X1.710000*%
G04 #@! TD*
G04 #@! TA.AperFunction,SMDPad,CuDef*
%ADD21RoundRect,0.158750X0.158750X-0.158750X0.158750X0.158750X-0.158750X0.158750X-0.158750X-0.158750X0*%
G04 #@! TD*
G04 #@! TA.AperFunction,HeatsinkPad*
%ADD22O,1.000000X2.100000*%
G04 #@! TD*
G04 #@! TA.AperFunction,HeatsinkPad*
%ADD23O,1.000000X1.800000*%
G04 #@! TD*
G04 #@! TA.AperFunction,ComponentPad*
%ADD24R,1.575000X1.575000*%
G04 #@! TD*
G04 #@! TA.AperFunction,ComponentPad*
%ADD25C,1.575000*%
G04 #@! TD*
G04 #@! TA.AperFunction,ViaPad*
%ADD26C,0.457200*%
G04 #@! TD*
G04 #@! TA.AperFunction,Conductor*
%ADD27C,0.304800*%
G04 #@! TD*
G04 #@! TA.AperFunction,Conductor*
%ADD28C,0.254000*%
G04 #@! TD*
G04 #@! TA.AperFunction,Conductor*
%ADD29C,0.152400*%
G04 #@! TD*
G04 #@! TA.AperFunction,Conductor*
%ADD30C,0.508000*%
G04 #@! TD*
G04 APERTURE END LIST*
D10*
X105000000Y-69000000D03*
D11*
X105000000Y-64000000D03*
D12*
X131095000Y-86250000D03*
D13*
X129190000Y-90000000D03*
X130460000Y-90000000D03*
X131730000Y-90000000D03*
X133000000Y-90000000D03*
X133000000Y-82500000D03*
X131730000Y-82500000D03*
X130460000Y-82500000D03*
X129190000Y-82500000D03*
D10*
X105000000Y-87500000D03*
X105000000Y-92500000D03*
X105000000Y-97500000D03*
D14*
X105000000Y-102500000D03*
D10*
X105000000Y-80500000D03*
D11*
X105000000Y-75500000D03*
D15*
X105500000Y-52950000D03*
D16*
X103500000Y-52950000D03*
D17*
X126650000Y-90260000D03*
X126650000Y-88860000D03*
X125950000Y-90960000D03*
X125950000Y-89560000D03*
X125950000Y-88160000D03*
X125250000Y-90260000D03*
X125250000Y-88860000D03*
X124550000Y-90960000D03*
X124550000Y-89560000D03*
X124550000Y-88160000D03*
X123850000Y-90260000D03*
X123850000Y-88860000D03*
D18*
X107500000Y-69555500D03*
X107500000Y-70444500D03*
D19*
X114450000Y-58000000D03*
X114450000Y-55460000D03*
D20*
X114450000Y-52920000D03*
D21*
X107055500Y-82500000D03*
X107944500Y-82500000D03*
D11*
X104500000Y-132000000D03*
D10*
X104500000Y-137000000D03*
X104500000Y-142000000D03*
X104500000Y-147000000D03*
D14*
X146000000Y-146500000D03*
D10*
X146000000Y-141500000D03*
X146000000Y-136500000D03*
X146000000Y-131500000D03*
D22*
X120500000Y-142402577D03*
D23*
X120500000Y-146582577D03*
D22*
X129140000Y-142402577D03*
D23*
X129140000Y-146582577D03*
D11*
X146500000Y-87400000D03*
D10*
X146500000Y-92400000D03*
X146500000Y-97400000D03*
X146500000Y-102400000D03*
D24*
X112000000Y-72500000D03*
D25*
X112000000Y-77500000D03*
D26*
X133500000Y-143007577D03*
X125984845Y-143492422D03*
X124000000Y-137507577D03*
X124000000Y-131507577D03*
X125000000Y-132007577D03*
X138500000Y-124254178D03*
X125450000Y-138007577D03*
X125000000Y-143507577D03*
X112500000Y-109500000D03*
X107000000Y-113000000D03*
X138000000Y-65000000D03*
X117500000Y-104500000D03*
X125000000Y-73500000D03*
X111430000Y-114012500D03*
X149500000Y-56500000D03*
X137000000Y-85000000D03*
X114500000Y-84500000D03*
X132000000Y-81500000D03*
X137000000Y-97000000D03*
X121000000Y-93500000D03*
X125000000Y-101500000D03*
X121000000Y-101000000D03*
X133840000Y-81840000D03*
X129000000Y-91500000D03*
X139500000Y-98000000D03*
X136000000Y-100000000D03*
X119500000Y-107000000D03*
X115000000Y-109000000D03*
X107500000Y-114000000D03*
X111500000Y-111500000D03*
X113500000Y-100500000D03*
X130500000Y-80500000D03*
X138500000Y-62500000D03*
X137000000Y-82500000D03*
X120000000Y-95000000D03*
X128000000Y-83500000D03*
X121000000Y-92500000D03*
X133500000Y-91500000D03*
X132500000Y-89000000D03*
X138500000Y-97500000D03*
X132000000Y-91500000D03*
X121000000Y-91000000D03*
X122500000Y-98000000D03*
X126000000Y-97500000D03*
X135500000Y-104000000D03*
X116750000Y-66250000D03*
X138500000Y-80500000D03*
X137000000Y-83500000D03*
X137500000Y-86000000D03*
X121250000Y-94750000D03*
D27*
X124778644Y-144041977D02*
X124000000Y-143263333D01*
X125984845Y-143492422D02*
X127000000Y-144507577D01*
X127000000Y-144507577D02*
X132000000Y-144507577D01*
X125984845Y-143492422D02*
X125435290Y-144041977D01*
X125435290Y-144041977D02*
X124778644Y-144041977D01*
X132000000Y-144507577D02*
X133500000Y-143007577D01*
X124000000Y-143263333D02*
X124000000Y-137507577D01*
X125000000Y-110500000D02*
X125000000Y-132007577D01*
D28*
X138500000Y-124254178D02*
X138500000Y-107000000D01*
D29*
X125000000Y-143507577D02*
X125000000Y-138457577D01*
X125000000Y-138457577D02*
X125450000Y-138007577D01*
D28*
X139500000Y-78352007D02*
X139500000Y-67000000D01*
X144100000Y-95000000D02*
X146500000Y-97400000D01*
D27*
X131460000Y-89000000D02*
X132500000Y-89000000D01*
X129000000Y-91500000D02*
X129190000Y-91310000D01*
X115000000Y-109000000D02*
X117500000Y-109000000D01*
D28*
X138500000Y-107000000D02*
X135500000Y-104000000D01*
X145900000Y-93000000D02*
X146500000Y-92400000D01*
D27*
X114500000Y-91255756D02*
X114500000Y-84500000D01*
X113500000Y-105000000D02*
X114000000Y-104500000D01*
X113500000Y-100500000D02*
X113500000Y-101250000D01*
X122500000Y-98000000D02*
X121244244Y-98000000D01*
X138500000Y-80500000D02*
X138500000Y-82000000D01*
X120432800Y-87567200D02*
X120432800Y-94500000D01*
X112000000Y-83500000D02*
X109500000Y-81000000D01*
D28*
X144000000Y-93000000D02*
X121500000Y-93000000D01*
X144000000Y-93000000D02*
X145900000Y-93000000D01*
D27*
X137000000Y-97000000D02*
X138000000Y-97000000D01*
X110000000Y-83500000D02*
X108944500Y-83500000D01*
X128000000Y-80000000D02*
X120432800Y-87567200D01*
D28*
X121000000Y-93500000D02*
X139000000Y-93500000D01*
D27*
X107000000Y-113000000D02*
X113500000Y-106500000D01*
X117500000Y-103000000D02*
X125000000Y-110500000D01*
D28*
X139500000Y-67000000D02*
X139500000Y-63500000D01*
D27*
X133000000Y-91000000D02*
X133500000Y-91500000D01*
X122965600Y-97465600D02*
X125965600Y-97465600D01*
X129190000Y-91310000D02*
X129190000Y-90000000D01*
D28*
X138500000Y-92500000D02*
X122500000Y-92500000D01*
D27*
X111430000Y-112570000D02*
X113500000Y-110500000D01*
X114000000Y-104500000D02*
X117500000Y-104500000D01*
X121000000Y-101000000D02*
X112000000Y-92000000D01*
X138000000Y-78500000D02*
X135500000Y-81000000D01*
X113500000Y-110500000D02*
X113500000Y-106500000D01*
D28*
X139500000Y-98000000D02*
X137500000Y-100000000D01*
D27*
X120432800Y-94500000D02*
X120534400Y-94601600D01*
X135500000Y-81000000D02*
X135500000Y-84255756D01*
D29*
X128190000Y-83500000D02*
X129190000Y-82500000D01*
D27*
X113500000Y-106500000D02*
X113500000Y-105000000D01*
X132000000Y-81500000D02*
X132000000Y-82230000D01*
X138000000Y-97000000D02*
X138500000Y-97500000D01*
X108944500Y-83500000D02*
X107944500Y-82500000D01*
X121244244Y-98000000D02*
X114500000Y-91255756D01*
D28*
X122500000Y-92500000D02*
X121000000Y-91000000D01*
X137500000Y-100000000D02*
X136000000Y-100000000D01*
D27*
X107500000Y-114000000D02*
X111500000Y-110000000D01*
X133000000Y-90000000D02*
X133000000Y-91000000D01*
X110000000Y-96000000D02*
X110000000Y-83500000D01*
X133000000Y-84345000D02*
X131095000Y-86250000D01*
X138500000Y-82000000D02*
X137000000Y-83500000D01*
X108500000Y-81000000D02*
X108500000Y-71000000D01*
X120000000Y-69500000D02*
X116750000Y-66250000D01*
X131730000Y-90000000D02*
X131730000Y-91230000D01*
X133840000Y-81840000D02*
X133160000Y-81840000D01*
D29*
X128000000Y-83500000D02*
X128190000Y-83500000D01*
D27*
X112000000Y-109500000D02*
X112500000Y-109500000D01*
X112000000Y-92000000D02*
X112000000Y-83500000D01*
X125000000Y-101500000D02*
X115500000Y-101500000D01*
X115500000Y-101500000D02*
X110000000Y-96000000D01*
X108055500Y-71000000D02*
X107500000Y-70444500D01*
X108500000Y-71000000D02*
X108055500Y-71000000D01*
X133000000Y-82000000D02*
X133000000Y-82500000D01*
X133160000Y-81840000D02*
X133000000Y-82000000D01*
X133000000Y-82500000D02*
X133000000Y-84345000D01*
D29*
X107055500Y-82500000D02*
X107000000Y-82500000D01*
D27*
X111500000Y-110000000D02*
X112000000Y-109500000D01*
X111500000Y-111500000D02*
X111500000Y-110000000D01*
X130460000Y-90000000D02*
X131460000Y-89000000D01*
X109500000Y-81000000D02*
X108500000Y-81000000D01*
X117500000Y-109000000D02*
X119500000Y-107000000D01*
D28*
X121500000Y-93000000D02*
X121000000Y-92500000D01*
X139500000Y-63500000D02*
X138500000Y-62500000D01*
D27*
X113500000Y-101250000D02*
X115250000Y-103000000D01*
X115250000Y-103000000D02*
X117500000Y-103000000D01*
D28*
X137000000Y-80852007D02*
X139500000Y-78352007D01*
X137000000Y-82500000D02*
X137000000Y-80852007D01*
D30*
X107000000Y-82500000D02*
X105000000Y-80500000D01*
D27*
X120000000Y-95000000D02*
X120000000Y-69500000D01*
D28*
X140500000Y-95000000D02*
X144100000Y-95000000D01*
D27*
X130500000Y-80500000D02*
X130500000Y-82460000D01*
X130500000Y-82460000D02*
X130460000Y-82500000D01*
X131730000Y-91230000D02*
X132000000Y-91500000D01*
D28*
X146500000Y-87400000D02*
X143600000Y-87400000D01*
X143600000Y-87400000D02*
X138500000Y-92500000D01*
X139000000Y-93500000D02*
X140500000Y-95000000D01*
D27*
X125965600Y-97465600D02*
X126000000Y-97500000D01*
X120534400Y-94601600D02*
X120534400Y-95034400D01*
X126000000Y-73500000D02*
X128000000Y-75500000D01*
X128000000Y-75500000D02*
X128000000Y-80000000D01*
X120534400Y-95034400D02*
X122965600Y-97465600D01*
X125000000Y-73500000D02*
X126000000Y-73500000D01*
X132000000Y-82230000D02*
X131730000Y-82500000D01*
X149500000Y-72500000D02*
X149500000Y-56500000D01*
X137000000Y-85000000D02*
X149500000Y-72500000D01*
X135500000Y-84255756D02*
X137244244Y-86000000D01*
X138000000Y-65000000D02*
X138000000Y-78500000D01*
X137244244Y-86000000D02*
X137500000Y-86000000D01*
D28*
X122500000Y-96000000D02*
X140100000Y-96000000D01*
X140100000Y-96000000D02*
X146500000Y-102400000D01*
X121250000Y-94750000D02*
X122500000Y-96000000D01*
D29*
X105555500Y-69555500D02*
X105000000Y-69000000D01*
D30*
X107500000Y-69555500D02*
X105555500Y-69555500D01*
D27*
X111430000Y-114012500D02*
X111430000Y-112570000D01*
M02*
