%TF.GenerationSoftware,KiCad,Pcbnew,9.0.3*%
%TF.CreationDate,2025-12-18T02:01:30-05:00*%
%TF.ProjectId,Experimental,45787065-7269-46d6-956e-74616c2e6b69,rev?*%
%TF.SameCoordinates,Original*%
%TF.FileFunction,Drillmap*%
%TF.FilePolarity,Positive*%
%FSLAX45Y45*%
G04 Gerber Fmt 4.5, Leading zero omitted, Abs format (unit mm)*
G04 Created by KiCad (PCBNEW 9.0.3) date 2025-12-18 02:01:30*
%MOMM*%
%LPD*%
G01*
G04 APERTURE LIST*
%ADD10C,0.200000*%
%ADD11C,0.100000*%
G04 APERTURE END LIST*
D10*
X10000000Y-5000000D02*
X15050000Y-5000000D01*
X15050000Y-12100000D01*
X10000000Y-12100000D01*
X10000000Y-5000000D01*
X15000000Y-11950000D02*
G75*
G02*
X14800000Y-11950000I-100000J0D01*
G01*
X14800000Y-11950000D02*
G75*
G02*
X15000000Y-11950000I100000J0D01*
G01*
X10300000Y-11950000D02*
G75*
G02*
X10100000Y-11950000I-100000J0D01*
G01*
X10100000Y-11950000D02*
G75*
G02*
X10300000Y-11950000I100000J0D01*
G01*
X10300000Y-5150000D02*
G75*
G02*
X10100000Y-5150000I-100000J0D01*
G01*
X10100000Y-5150000D02*
G75*
G02*
X10300000Y-5150000I100000J0D01*
G01*
X15000000Y-5250000D02*
G75*
G02*
X14800000Y-5250000I-100000J0D01*
G01*
X14800000Y-5250000D02*
G75*
G02*
X15000000Y-5250000I100000J0D01*
G01*
D11*
X12292340Y-11407000D02*
X12357340Y-11472000D01*
X12357340Y-11407000D02*
X12292340Y-11472000D01*
X12870340Y-11407000D02*
X12935340Y-11472000D01*
X12935340Y-11407000D02*
X12870340Y-11472000D01*
D10*
X10250777Y-12421484D02*
X10250777Y-12221484D01*
X10250777Y-12221484D02*
X10298396Y-12221484D01*
X10298396Y-12221484D02*
X10326967Y-12231008D01*
X10326967Y-12231008D02*
X10346015Y-12250055D01*
X10346015Y-12250055D02*
X10355539Y-12269103D01*
X10355539Y-12269103D02*
X10365063Y-12307198D01*
X10365063Y-12307198D02*
X10365063Y-12335769D01*
X10365063Y-12335769D02*
X10355539Y-12373865D01*
X10355539Y-12373865D02*
X10346015Y-12392912D01*
X10346015Y-12392912D02*
X10326967Y-12411960D01*
X10326967Y-12411960D02*
X10298396Y-12421484D01*
X10298396Y-12421484D02*
X10250777Y-12421484D01*
X10450777Y-12421484D02*
X10450777Y-12288150D01*
X10450777Y-12326246D02*
X10460301Y-12307198D01*
X10460301Y-12307198D02*
X10469824Y-12297674D01*
X10469824Y-12297674D02*
X10488872Y-12288150D01*
X10488872Y-12288150D02*
X10507920Y-12288150D01*
X10574586Y-12421484D02*
X10574586Y-12288150D01*
X10574586Y-12221484D02*
X10565063Y-12231008D01*
X10565063Y-12231008D02*
X10574586Y-12240531D01*
X10574586Y-12240531D02*
X10584110Y-12231008D01*
X10584110Y-12231008D02*
X10574586Y-12221484D01*
X10574586Y-12221484D02*
X10574586Y-12240531D01*
X10698396Y-12421484D02*
X10679348Y-12411960D01*
X10679348Y-12411960D02*
X10669824Y-12392912D01*
X10669824Y-12392912D02*
X10669824Y-12221484D01*
X10803158Y-12421484D02*
X10784110Y-12411960D01*
X10784110Y-12411960D02*
X10774586Y-12392912D01*
X10774586Y-12392912D02*
X10774586Y-12221484D01*
X11031729Y-12421484D02*
X11031729Y-12221484D01*
X11031729Y-12221484D02*
X11098396Y-12364341D01*
X11098396Y-12364341D02*
X11165063Y-12221484D01*
X11165063Y-12221484D02*
X11165063Y-12421484D01*
X11346015Y-12421484D02*
X11346015Y-12316722D01*
X11346015Y-12316722D02*
X11336491Y-12297674D01*
X11336491Y-12297674D02*
X11317443Y-12288150D01*
X11317443Y-12288150D02*
X11279348Y-12288150D01*
X11279348Y-12288150D02*
X11260301Y-12297674D01*
X11346015Y-12411960D02*
X11326967Y-12421484D01*
X11326967Y-12421484D02*
X11279348Y-12421484D01*
X11279348Y-12421484D02*
X11260301Y-12411960D01*
X11260301Y-12411960D02*
X11250777Y-12392912D01*
X11250777Y-12392912D02*
X11250777Y-12373865D01*
X11250777Y-12373865D02*
X11260301Y-12354817D01*
X11260301Y-12354817D02*
X11279348Y-12345293D01*
X11279348Y-12345293D02*
X11326967Y-12345293D01*
X11326967Y-12345293D02*
X11346015Y-12335769D01*
X11441253Y-12288150D02*
X11441253Y-12488150D01*
X11441253Y-12297674D02*
X11460301Y-12288150D01*
X11460301Y-12288150D02*
X11498396Y-12288150D01*
X11498396Y-12288150D02*
X11517443Y-12297674D01*
X11517443Y-12297674D02*
X11526967Y-12307198D01*
X11526967Y-12307198D02*
X11536491Y-12326246D01*
X11536491Y-12326246D02*
X11536491Y-12383388D01*
X11536491Y-12383388D02*
X11526967Y-12402436D01*
X11526967Y-12402436D02*
X11517443Y-12411960D01*
X11517443Y-12411960D02*
X11498396Y-12421484D01*
X11498396Y-12421484D02*
X11460301Y-12421484D01*
X11460301Y-12421484D02*
X11441253Y-12411960D01*
X11622205Y-12402436D02*
X11631729Y-12411960D01*
X11631729Y-12411960D02*
X11622205Y-12421484D01*
X11622205Y-12421484D02*
X11612682Y-12411960D01*
X11612682Y-12411960D02*
X11622205Y-12402436D01*
X11622205Y-12402436D02*
X11622205Y-12421484D01*
X11622205Y-12297674D02*
X11631729Y-12307198D01*
X11631729Y-12307198D02*
X11622205Y-12316722D01*
X11622205Y-12316722D02*
X11612682Y-12307198D01*
X11612682Y-12307198D02*
X11622205Y-12297674D01*
X11622205Y-12297674D02*
X11622205Y-12316722D01*
D11*
X9925000Y-12717500D02*
X9990000Y-12782500D01*
X9990000Y-12717500D02*
X9925000Y-12782500D01*
D10*
X10288872Y-12641484D02*
X10307920Y-12641484D01*
X10307920Y-12641484D02*
X10326967Y-12651008D01*
X10326967Y-12651008D02*
X10336491Y-12660531D01*
X10336491Y-12660531D02*
X10346015Y-12679579D01*
X10346015Y-12679579D02*
X10355539Y-12717674D01*
X10355539Y-12717674D02*
X10355539Y-12765293D01*
X10355539Y-12765293D02*
X10346015Y-12803388D01*
X10346015Y-12803388D02*
X10336491Y-12822436D01*
X10336491Y-12822436D02*
X10326967Y-12831960D01*
X10326967Y-12831960D02*
X10307920Y-12841484D01*
X10307920Y-12841484D02*
X10288872Y-12841484D01*
X10288872Y-12841484D02*
X10269824Y-12831960D01*
X10269824Y-12831960D02*
X10260301Y-12822436D01*
X10260301Y-12822436D02*
X10250777Y-12803388D01*
X10250777Y-12803388D02*
X10241253Y-12765293D01*
X10241253Y-12765293D02*
X10241253Y-12717674D01*
X10241253Y-12717674D02*
X10250777Y-12679579D01*
X10250777Y-12679579D02*
X10260301Y-12660531D01*
X10260301Y-12660531D02*
X10269824Y-12651008D01*
X10269824Y-12651008D02*
X10288872Y-12641484D01*
X10441253Y-12822436D02*
X10450777Y-12831960D01*
X10450777Y-12831960D02*
X10441253Y-12841484D01*
X10441253Y-12841484D02*
X10431729Y-12831960D01*
X10431729Y-12831960D02*
X10441253Y-12822436D01*
X10441253Y-12822436D02*
X10441253Y-12841484D01*
X10622205Y-12641484D02*
X10584110Y-12641484D01*
X10584110Y-12641484D02*
X10565063Y-12651008D01*
X10565063Y-12651008D02*
X10555539Y-12660531D01*
X10555539Y-12660531D02*
X10536491Y-12689103D01*
X10536491Y-12689103D02*
X10526967Y-12727198D01*
X10526967Y-12727198D02*
X10526967Y-12803388D01*
X10526967Y-12803388D02*
X10536491Y-12822436D01*
X10536491Y-12822436D02*
X10546015Y-12831960D01*
X10546015Y-12831960D02*
X10565063Y-12841484D01*
X10565063Y-12841484D02*
X10603158Y-12841484D01*
X10603158Y-12841484D02*
X10622205Y-12831960D01*
X10622205Y-12831960D02*
X10631729Y-12822436D01*
X10631729Y-12822436D02*
X10641253Y-12803388D01*
X10641253Y-12803388D02*
X10641253Y-12755769D01*
X10641253Y-12755769D02*
X10631729Y-12736722D01*
X10631729Y-12736722D02*
X10622205Y-12727198D01*
X10622205Y-12727198D02*
X10603158Y-12717674D01*
X10603158Y-12717674D02*
X10565063Y-12717674D01*
X10565063Y-12717674D02*
X10546015Y-12727198D01*
X10546015Y-12727198D02*
X10536491Y-12736722D01*
X10536491Y-12736722D02*
X10526967Y-12755769D01*
X10822205Y-12641484D02*
X10726967Y-12641484D01*
X10726967Y-12641484D02*
X10717444Y-12736722D01*
X10717444Y-12736722D02*
X10726967Y-12727198D01*
X10726967Y-12727198D02*
X10746015Y-12717674D01*
X10746015Y-12717674D02*
X10793634Y-12717674D01*
X10793634Y-12717674D02*
X10812682Y-12727198D01*
X10812682Y-12727198D02*
X10822205Y-12736722D01*
X10822205Y-12736722D02*
X10831729Y-12755769D01*
X10831729Y-12755769D02*
X10831729Y-12803388D01*
X10831729Y-12803388D02*
X10822205Y-12822436D01*
X10822205Y-12822436D02*
X10812682Y-12831960D01*
X10812682Y-12831960D02*
X10793634Y-12841484D01*
X10793634Y-12841484D02*
X10746015Y-12841484D01*
X10746015Y-12841484D02*
X10726967Y-12831960D01*
X10726967Y-12831960D02*
X10717444Y-12822436D01*
X10955539Y-12641484D02*
X10974586Y-12641484D01*
X10974586Y-12641484D02*
X10993634Y-12651008D01*
X10993634Y-12651008D02*
X11003158Y-12660531D01*
X11003158Y-12660531D02*
X11012682Y-12679579D01*
X11012682Y-12679579D02*
X11022205Y-12717674D01*
X11022205Y-12717674D02*
X11022205Y-12765293D01*
X11022205Y-12765293D02*
X11012682Y-12803388D01*
X11012682Y-12803388D02*
X11003158Y-12822436D01*
X11003158Y-12822436D02*
X10993634Y-12831960D01*
X10993634Y-12831960D02*
X10974586Y-12841484D01*
X10974586Y-12841484D02*
X10955539Y-12841484D01*
X10955539Y-12841484D02*
X10936491Y-12831960D01*
X10936491Y-12831960D02*
X10926967Y-12822436D01*
X10926967Y-12822436D02*
X10917444Y-12803388D01*
X10917444Y-12803388D02*
X10907920Y-12765293D01*
X10907920Y-12765293D02*
X10907920Y-12717674D01*
X10907920Y-12717674D02*
X10917444Y-12679579D01*
X10917444Y-12679579D02*
X10926967Y-12660531D01*
X10926967Y-12660531D02*
X10936491Y-12651008D01*
X10936491Y-12651008D02*
X10955539Y-12641484D01*
X11107920Y-12841484D02*
X11107920Y-12708150D01*
X11107920Y-12727198D02*
X11117444Y-12717674D01*
X11117444Y-12717674D02*
X11136491Y-12708150D01*
X11136491Y-12708150D02*
X11165063Y-12708150D01*
X11165063Y-12708150D02*
X11184110Y-12717674D01*
X11184110Y-12717674D02*
X11193634Y-12736722D01*
X11193634Y-12736722D02*
X11193634Y-12841484D01*
X11193634Y-12736722D02*
X11203158Y-12717674D01*
X11203158Y-12717674D02*
X11222205Y-12708150D01*
X11222205Y-12708150D02*
X11250777Y-12708150D01*
X11250777Y-12708150D02*
X11269824Y-12717674D01*
X11269824Y-12717674D02*
X11279348Y-12736722D01*
X11279348Y-12736722D02*
X11279348Y-12841484D01*
X11374586Y-12841484D02*
X11374586Y-12708150D01*
X11374586Y-12727198D02*
X11384110Y-12717674D01*
X11384110Y-12717674D02*
X11403158Y-12708150D01*
X11403158Y-12708150D02*
X11431729Y-12708150D01*
X11431729Y-12708150D02*
X11450777Y-12717674D01*
X11450777Y-12717674D02*
X11460301Y-12736722D01*
X11460301Y-12736722D02*
X11460301Y-12841484D01*
X11460301Y-12736722D02*
X11469824Y-12717674D01*
X11469824Y-12717674D02*
X11488872Y-12708150D01*
X11488872Y-12708150D02*
X11517443Y-12708150D01*
X11517443Y-12708150D02*
X11536491Y-12717674D01*
X11536491Y-12717674D02*
X11546015Y-12736722D01*
X11546015Y-12736722D02*
X11546015Y-12841484D01*
X11936491Y-12631960D02*
X11765063Y-12889103D01*
X12193634Y-12641484D02*
X12212682Y-12641484D01*
X12212682Y-12641484D02*
X12231729Y-12651008D01*
X12231729Y-12651008D02*
X12241253Y-12660531D01*
X12241253Y-12660531D02*
X12250777Y-12679579D01*
X12250777Y-12679579D02*
X12260301Y-12717674D01*
X12260301Y-12717674D02*
X12260301Y-12765293D01*
X12260301Y-12765293D02*
X12250777Y-12803388D01*
X12250777Y-12803388D02*
X12241253Y-12822436D01*
X12241253Y-12822436D02*
X12231729Y-12831960D01*
X12231729Y-12831960D02*
X12212682Y-12841484D01*
X12212682Y-12841484D02*
X12193634Y-12841484D01*
X12193634Y-12841484D02*
X12174586Y-12831960D01*
X12174586Y-12831960D02*
X12165063Y-12822436D01*
X12165063Y-12822436D02*
X12155539Y-12803388D01*
X12155539Y-12803388D02*
X12146015Y-12765293D01*
X12146015Y-12765293D02*
X12146015Y-12717674D01*
X12146015Y-12717674D02*
X12155539Y-12679579D01*
X12155539Y-12679579D02*
X12165063Y-12660531D01*
X12165063Y-12660531D02*
X12174586Y-12651008D01*
X12174586Y-12651008D02*
X12193634Y-12641484D01*
X12346015Y-12822436D02*
X12355539Y-12831960D01*
X12355539Y-12831960D02*
X12346015Y-12841484D01*
X12346015Y-12841484D02*
X12336491Y-12831960D01*
X12336491Y-12831960D02*
X12346015Y-12822436D01*
X12346015Y-12822436D02*
X12346015Y-12841484D01*
X12479348Y-12641484D02*
X12498396Y-12641484D01*
X12498396Y-12641484D02*
X12517444Y-12651008D01*
X12517444Y-12651008D02*
X12526967Y-12660531D01*
X12526967Y-12660531D02*
X12536491Y-12679579D01*
X12536491Y-12679579D02*
X12546015Y-12717674D01*
X12546015Y-12717674D02*
X12546015Y-12765293D01*
X12546015Y-12765293D02*
X12536491Y-12803388D01*
X12536491Y-12803388D02*
X12526967Y-12822436D01*
X12526967Y-12822436D02*
X12517444Y-12831960D01*
X12517444Y-12831960D02*
X12498396Y-12841484D01*
X12498396Y-12841484D02*
X12479348Y-12841484D01*
X12479348Y-12841484D02*
X12460301Y-12831960D01*
X12460301Y-12831960D02*
X12450777Y-12822436D01*
X12450777Y-12822436D02*
X12441253Y-12803388D01*
X12441253Y-12803388D02*
X12431729Y-12765293D01*
X12431729Y-12765293D02*
X12431729Y-12717674D01*
X12431729Y-12717674D02*
X12441253Y-12679579D01*
X12441253Y-12679579D02*
X12450777Y-12660531D01*
X12450777Y-12660531D02*
X12460301Y-12651008D01*
X12460301Y-12651008D02*
X12479348Y-12641484D01*
X12622206Y-12660531D02*
X12631729Y-12651008D01*
X12631729Y-12651008D02*
X12650777Y-12641484D01*
X12650777Y-12641484D02*
X12698396Y-12641484D01*
X12698396Y-12641484D02*
X12717444Y-12651008D01*
X12717444Y-12651008D02*
X12726967Y-12660531D01*
X12726967Y-12660531D02*
X12736491Y-12679579D01*
X12736491Y-12679579D02*
X12736491Y-12698627D01*
X12736491Y-12698627D02*
X12726967Y-12727198D01*
X12726967Y-12727198D02*
X12612682Y-12841484D01*
X12612682Y-12841484D02*
X12736491Y-12841484D01*
X12917444Y-12641484D02*
X12822206Y-12641484D01*
X12822206Y-12641484D02*
X12812682Y-12736722D01*
X12812682Y-12736722D02*
X12822206Y-12727198D01*
X12822206Y-12727198D02*
X12841253Y-12717674D01*
X12841253Y-12717674D02*
X12888872Y-12717674D01*
X12888872Y-12717674D02*
X12907920Y-12727198D01*
X12907920Y-12727198D02*
X12917444Y-12736722D01*
X12917444Y-12736722D02*
X12926967Y-12755769D01*
X12926967Y-12755769D02*
X12926967Y-12803388D01*
X12926967Y-12803388D02*
X12917444Y-12822436D01*
X12917444Y-12822436D02*
X12907920Y-12831960D01*
X12907920Y-12831960D02*
X12888872Y-12841484D01*
X12888872Y-12841484D02*
X12841253Y-12841484D01*
X12841253Y-12841484D02*
X12822206Y-12831960D01*
X12822206Y-12831960D02*
X12812682Y-12822436D01*
X13098396Y-12641484D02*
X13060301Y-12641484D01*
X13060301Y-12641484D02*
X13041253Y-12651008D01*
X13041253Y-12651008D02*
X13031729Y-12660531D01*
X13031729Y-12660531D02*
X13012682Y-12689103D01*
X13012682Y-12689103D02*
X13003158Y-12727198D01*
X13003158Y-12727198D02*
X13003158Y-12803388D01*
X13003158Y-12803388D02*
X13012682Y-12822436D01*
X13012682Y-12822436D02*
X13022206Y-12831960D01*
X13022206Y-12831960D02*
X13041253Y-12841484D01*
X13041253Y-12841484D02*
X13079348Y-12841484D01*
X13079348Y-12841484D02*
X13098396Y-12831960D01*
X13098396Y-12831960D02*
X13107920Y-12822436D01*
X13107920Y-12822436D02*
X13117444Y-12803388D01*
X13117444Y-12803388D02*
X13117444Y-12755769D01*
X13117444Y-12755769D02*
X13107920Y-12736722D01*
X13107920Y-12736722D02*
X13098396Y-12727198D01*
X13098396Y-12727198D02*
X13079348Y-12717674D01*
X13079348Y-12717674D02*
X13041253Y-12717674D01*
X13041253Y-12717674D02*
X13022206Y-12727198D01*
X13022206Y-12727198D02*
X13012682Y-12736722D01*
X13012682Y-12736722D02*
X13003158Y-12755769D01*
X13193634Y-12641484D02*
X13193634Y-12679579D01*
X13269825Y-12641484D02*
X13269825Y-12679579D01*
X13565063Y-12917674D02*
X13555539Y-12908150D01*
X13555539Y-12908150D02*
X13536491Y-12879579D01*
X13536491Y-12879579D02*
X13526968Y-12860531D01*
X13526968Y-12860531D02*
X13517444Y-12831960D01*
X13517444Y-12831960D02*
X13507920Y-12784341D01*
X13507920Y-12784341D02*
X13507920Y-12746246D01*
X13507920Y-12746246D02*
X13517444Y-12698627D01*
X13517444Y-12698627D02*
X13526968Y-12670055D01*
X13526968Y-12670055D02*
X13536491Y-12651008D01*
X13536491Y-12651008D02*
X13555539Y-12622436D01*
X13555539Y-12622436D02*
X13565063Y-12612912D01*
X13631729Y-12660531D02*
X13641253Y-12651008D01*
X13641253Y-12651008D02*
X13660301Y-12641484D01*
X13660301Y-12641484D02*
X13707920Y-12641484D01*
X13707920Y-12641484D02*
X13726968Y-12651008D01*
X13726968Y-12651008D02*
X13736491Y-12660531D01*
X13736491Y-12660531D02*
X13746015Y-12679579D01*
X13746015Y-12679579D02*
X13746015Y-12698627D01*
X13746015Y-12698627D02*
X13736491Y-12727198D01*
X13736491Y-12727198D02*
X13622206Y-12841484D01*
X13622206Y-12841484D02*
X13746015Y-12841484D01*
X13984110Y-12841484D02*
X13984110Y-12641484D01*
X14069825Y-12841484D02*
X14069825Y-12736722D01*
X14069825Y-12736722D02*
X14060301Y-12717674D01*
X14060301Y-12717674D02*
X14041253Y-12708150D01*
X14041253Y-12708150D02*
X14012682Y-12708150D01*
X14012682Y-12708150D02*
X13993634Y-12717674D01*
X13993634Y-12717674D02*
X13984110Y-12727198D01*
X14193634Y-12841484D02*
X14174587Y-12831960D01*
X14174587Y-12831960D02*
X14165063Y-12822436D01*
X14165063Y-12822436D02*
X14155539Y-12803388D01*
X14155539Y-12803388D02*
X14155539Y-12746246D01*
X14155539Y-12746246D02*
X14165063Y-12727198D01*
X14165063Y-12727198D02*
X14174587Y-12717674D01*
X14174587Y-12717674D02*
X14193634Y-12708150D01*
X14193634Y-12708150D02*
X14222206Y-12708150D01*
X14222206Y-12708150D02*
X14241253Y-12717674D01*
X14241253Y-12717674D02*
X14250777Y-12727198D01*
X14250777Y-12727198D02*
X14260301Y-12746246D01*
X14260301Y-12746246D02*
X14260301Y-12803388D01*
X14260301Y-12803388D02*
X14250777Y-12822436D01*
X14250777Y-12822436D02*
X14241253Y-12831960D01*
X14241253Y-12831960D02*
X14222206Y-12841484D01*
X14222206Y-12841484D02*
X14193634Y-12841484D01*
X14374587Y-12841484D02*
X14355539Y-12831960D01*
X14355539Y-12831960D02*
X14346015Y-12812912D01*
X14346015Y-12812912D02*
X14346015Y-12641484D01*
X14526968Y-12831960D02*
X14507920Y-12841484D01*
X14507920Y-12841484D02*
X14469825Y-12841484D01*
X14469825Y-12841484D02*
X14450777Y-12831960D01*
X14450777Y-12831960D02*
X14441253Y-12812912D01*
X14441253Y-12812912D02*
X14441253Y-12736722D01*
X14441253Y-12736722D02*
X14450777Y-12717674D01*
X14450777Y-12717674D02*
X14469825Y-12708150D01*
X14469825Y-12708150D02*
X14507920Y-12708150D01*
X14507920Y-12708150D02*
X14526968Y-12717674D01*
X14526968Y-12717674D02*
X14536491Y-12736722D01*
X14536491Y-12736722D02*
X14536491Y-12755769D01*
X14536491Y-12755769D02*
X14441253Y-12774817D01*
X14612682Y-12831960D02*
X14631730Y-12841484D01*
X14631730Y-12841484D02*
X14669825Y-12841484D01*
X14669825Y-12841484D02*
X14688872Y-12831960D01*
X14688872Y-12831960D02*
X14698396Y-12812912D01*
X14698396Y-12812912D02*
X14698396Y-12803388D01*
X14698396Y-12803388D02*
X14688872Y-12784341D01*
X14688872Y-12784341D02*
X14669825Y-12774817D01*
X14669825Y-12774817D02*
X14641253Y-12774817D01*
X14641253Y-12774817D02*
X14622206Y-12765293D01*
X14622206Y-12765293D02*
X14612682Y-12746246D01*
X14612682Y-12746246D02*
X14612682Y-12736722D01*
X14612682Y-12736722D02*
X14622206Y-12717674D01*
X14622206Y-12717674D02*
X14641253Y-12708150D01*
X14641253Y-12708150D02*
X14669825Y-12708150D01*
X14669825Y-12708150D02*
X14688872Y-12717674D01*
X14765063Y-12917674D02*
X14774587Y-12908150D01*
X14774587Y-12908150D02*
X14793634Y-12879579D01*
X14793634Y-12879579D02*
X14803158Y-12860531D01*
X14803158Y-12860531D02*
X14812682Y-12831960D01*
X14812682Y-12831960D02*
X14822206Y-12784341D01*
X14822206Y-12784341D02*
X14822206Y-12746246D01*
X14822206Y-12746246D02*
X14812682Y-12698627D01*
X14812682Y-12698627D02*
X14803158Y-12670055D01*
X14803158Y-12670055D02*
X14793634Y-12651008D01*
X14793634Y-12651008D02*
X14774587Y-12622436D01*
X14774587Y-12622436D02*
X14765063Y-12612912D01*
X15126968Y-12917674D02*
X15117444Y-12908150D01*
X15117444Y-12908150D02*
X15098396Y-12879579D01*
X15098396Y-12879579D02*
X15088872Y-12860531D01*
X15088872Y-12860531D02*
X15079349Y-12831960D01*
X15079349Y-12831960D02*
X15069825Y-12784341D01*
X15069825Y-12784341D02*
X15069825Y-12746246D01*
X15069825Y-12746246D02*
X15079349Y-12698627D01*
X15079349Y-12698627D02*
X15088872Y-12670055D01*
X15088872Y-12670055D02*
X15098396Y-12651008D01*
X15098396Y-12651008D02*
X15117444Y-12622436D01*
X15117444Y-12622436D02*
X15126968Y-12612912D01*
X15203158Y-12708150D02*
X15203158Y-12841484D01*
X15203158Y-12727198D02*
X15212682Y-12717674D01*
X15212682Y-12717674D02*
X15231730Y-12708150D01*
X15231730Y-12708150D02*
X15260301Y-12708150D01*
X15260301Y-12708150D02*
X15279349Y-12717674D01*
X15279349Y-12717674D02*
X15288872Y-12736722D01*
X15288872Y-12736722D02*
X15288872Y-12841484D01*
X15412682Y-12841484D02*
X15393634Y-12831960D01*
X15393634Y-12831960D02*
X15384111Y-12822436D01*
X15384111Y-12822436D02*
X15374587Y-12803388D01*
X15374587Y-12803388D02*
X15374587Y-12746246D01*
X15374587Y-12746246D02*
X15384111Y-12727198D01*
X15384111Y-12727198D02*
X15393634Y-12717674D01*
X15393634Y-12717674D02*
X15412682Y-12708150D01*
X15412682Y-12708150D02*
X15441253Y-12708150D01*
X15441253Y-12708150D02*
X15460301Y-12717674D01*
X15460301Y-12717674D02*
X15469825Y-12727198D01*
X15469825Y-12727198D02*
X15479349Y-12746246D01*
X15479349Y-12746246D02*
X15479349Y-12803388D01*
X15479349Y-12803388D02*
X15469825Y-12822436D01*
X15469825Y-12822436D02*
X15460301Y-12831960D01*
X15460301Y-12831960D02*
X15441253Y-12841484D01*
X15441253Y-12841484D02*
X15412682Y-12841484D01*
X15536492Y-12708150D02*
X15612682Y-12708150D01*
X15565063Y-12641484D02*
X15565063Y-12812912D01*
X15565063Y-12812912D02*
X15574587Y-12831960D01*
X15574587Y-12831960D02*
X15593634Y-12841484D01*
X15593634Y-12841484D02*
X15612682Y-12841484D01*
X15831730Y-12708150D02*
X15831730Y-12908150D01*
X15831730Y-12717674D02*
X15850777Y-12708150D01*
X15850777Y-12708150D02*
X15888873Y-12708150D01*
X15888873Y-12708150D02*
X15907920Y-12717674D01*
X15907920Y-12717674D02*
X15917444Y-12727198D01*
X15917444Y-12727198D02*
X15926968Y-12746246D01*
X15926968Y-12746246D02*
X15926968Y-12803388D01*
X15926968Y-12803388D02*
X15917444Y-12822436D01*
X15917444Y-12822436D02*
X15907920Y-12831960D01*
X15907920Y-12831960D02*
X15888873Y-12841484D01*
X15888873Y-12841484D02*
X15850777Y-12841484D01*
X15850777Y-12841484D02*
X15831730Y-12831960D01*
X16041253Y-12841484D02*
X16022206Y-12831960D01*
X16022206Y-12831960D02*
X16012682Y-12812912D01*
X16012682Y-12812912D02*
X16012682Y-12641484D01*
X16203158Y-12841484D02*
X16203158Y-12736722D01*
X16203158Y-12736722D02*
X16193634Y-12717674D01*
X16193634Y-12717674D02*
X16174587Y-12708150D01*
X16174587Y-12708150D02*
X16136492Y-12708150D01*
X16136492Y-12708150D02*
X16117444Y-12717674D01*
X16203158Y-12831960D02*
X16184111Y-12841484D01*
X16184111Y-12841484D02*
X16136492Y-12841484D01*
X16136492Y-12841484D02*
X16117444Y-12831960D01*
X16117444Y-12831960D02*
X16107920Y-12812912D01*
X16107920Y-12812912D02*
X16107920Y-12793865D01*
X16107920Y-12793865D02*
X16117444Y-12774817D01*
X16117444Y-12774817D02*
X16136492Y-12765293D01*
X16136492Y-12765293D02*
X16184111Y-12765293D01*
X16184111Y-12765293D02*
X16203158Y-12755769D01*
X16269825Y-12708150D02*
X16346015Y-12708150D01*
X16298396Y-12641484D02*
X16298396Y-12812912D01*
X16298396Y-12812912D02*
X16307920Y-12831960D01*
X16307920Y-12831960D02*
X16326968Y-12841484D01*
X16326968Y-12841484D02*
X16346015Y-12841484D01*
X16488873Y-12831960D02*
X16469825Y-12841484D01*
X16469825Y-12841484D02*
X16431730Y-12841484D01*
X16431730Y-12841484D02*
X16412682Y-12831960D01*
X16412682Y-12831960D02*
X16403158Y-12812912D01*
X16403158Y-12812912D02*
X16403158Y-12736722D01*
X16403158Y-12736722D02*
X16412682Y-12717674D01*
X16412682Y-12717674D02*
X16431730Y-12708150D01*
X16431730Y-12708150D02*
X16469825Y-12708150D01*
X16469825Y-12708150D02*
X16488873Y-12717674D01*
X16488873Y-12717674D02*
X16498396Y-12736722D01*
X16498396Y-12736722D02*
X16498396Y-12755769D01*
X16498396Y-12755769D02*
X16403158Y-12774817D01*
X16669825Y-12841484D02*
X16669825Y-12641484D01*
X16669825Y-12831960D02*
X16650777Y-12841484D01*
X16650777Y-12841484D02*
X16612682Y-12841484D01*
X16612682Y-12841484D02*
X16593634Y-12831960D01*
X16593634Y-12831960D02*
X16584111Y-12822436D01*
X16584111Y-12822436D02*
X16574587Y-12803388D01*
X16574587Y-12803388D02*
X16574587Y-12746246D01*
X16574587Y-12746246D02*
X16584111Y-12727198D01*
X16584111Y-12727198D02*
X16593634Y-12717674D01*
X16593634Y-12717674D02*
X16612682Y-12708150D01*
X16612682Y-12708150D02*
X16650777Y-12708150D01*
X16650777Y-12708150D02*
X16669825Y-12717674D01*
X16746015Y-12917674D02*
X16755539Y-12908150D01*
X16755539Y-12908150D02*
X16774587Y-12879579D01*
X16774587Y-12879579D02*
X16784111Y-12860531D01*
X16784111Y-12860531D02*
X16793635Y-12831960D01*
X16793635Y-12831960D02*
X16803158Y-12784341D01*
X16803158Y-12784341D02*
X16803158Y-12746246D01*
X16803158Y-12746246D02*
X16793635Y-12698627D01*
X16793635Y-12698627D02*
X16784111Y-12670055D01*
X16784111Y-12670055D02*
X16774587Y-12651008D01*
X16774587Y-12651008D02*
X16755539Y-12622436D01*
X16755539Y-12622436D02*
X16746015Y-12612912D01*
M02*
