M48
; DRILL file {KiCad 9.0.3} date 2025-12-18T02:01:30-0500
; FORMAT={-:-/ absolute / metric / decimal}
; #@! TF.CreationDate,2025-12-18T02:01:30-05:00
; #@! TF.GenerationSoftware,Kicad,Pcbnew,9.0.3
; #@! TF.FileFunction,Plated,1,4,PTH
FMAT,2
METRIC
; #@! TA.AperFunction,Plated,PTH,ComponentDrill
T1C0.200
; #@! TA.AperFunction,Plated,PTH,ViaDrill
T2C0.300
; #@! TA.AperFunction,Plated,PTH,ComponentDrill
T3C0.600
; #@! TA.AperFunction,Plated,PTH,ComponentDrill
T4C0.750
; #@! TA.AperFunction,Plated,PTH,ComponentDrill
T5C1.010
; #@! TA.AperFunction,Plated,PTH,ComponentDrill
T6C1.050
; #@! TA.AperFunction,Plated,PTH,ComponentDrill
T7C1.300
%
G90
G05
T1
X122.85Y-79.59
X122.85Y-80.99
X123.55Y-78.89
X123.55Y-80.29
X123.55Y-81.69
X124.25Y-79.59
X124.25Y-80.99
X124.95Y-78.89
X124.95Y-80.29
X124.95Y-81.69
X125.65Y-79.59
X125.65Y-80.99
T2
X101.5Y-75.5
X101.5Y-79.0
X102.5Y-73.5
X103.0Y-78.0
X103.0Y-79.0
X103.123Y-84.877
X104.0Y-73.5
X104.0Y-78.0
X104.5Y-84.35
X104.5Y-117.5
X105.5Y-73.5
X105.5Y-78.5
X106.388Y-77.76
X106.5Y-82.5
X107.0Y-73.5
X107.015Y-119.015
X107.5Y-82.5
X108.5Y-80.68
X109.0Y-74.31
X109.5Y-103.5
X109.5Y-113.0
X110.0Y-83.5
X110.138Y-77.0
X110.5Y-74.0
X110.75Y-108.75
X111.034Y-77.034
X112.0Y-73.5
X112.0Y-87.5
X112.0Y-95.91
X112.337Y-91.645
X113.0Y-106.5
X113.5Y-78.0
X113.5Y-88.655
X114.0Y-119.5
X115.0Y-100.0
X115.5Y-58.0
X116.5Y-108.0
X117.0Y-72.57
X117.0Y-73.84
X117.0Y-86.5
X117.0Y-119.5
X118.0Y-60.5
X118.0Y-97.0
X119.5Y-88.0
X119.5Y-109.0
X120.0Y-81.5
X120.1Y-111.0
X120.357Y-113.0
X120.5Y-59.0
X120.5Y-64.2
X120.5Y-66.4
X121.25Y-84.25
X122.0Y-99.0
X122.5Y-92.0
X122.947Y-116.947
X123.845Y-88.655
X124.0Y-93.0
X124.861Y-112.139
X125.0Y-60.0
X125.5Y-89.0
X126.0Y-62.0
X126.0Y-72.5
X126.0Y-107.5
X126.5Y-70.5
X126.557Y-56.5
X127.5Y-66.5
X127.877Y-81.377
X128.0Y-58.5
X128.0Y-111.5
X128.325Y-97.395
X128.5Y-87.0
X128.925Y-89.575
X128.95Y-107.5
X129.0Y-52.5
X129.0Y-53.6
X129.0Y-54.7
X129.0Y-59.0
X129.0Y-69.5
X129.192Y-116.808
X129.5Y-67.0
X130.671Y-59.973
X131.0Y-112.5
X132.31Y-79.5
X132.9Y-110.5
X132.971Y-88.529
X133.0Y-82.0
X133.6Y-107.275
X134.48Y-109.0
X134.5Y-53.216
X134.528Y-87.782
X134.55Y-105.0
X135.0Y-63.5
X135.0Y-70.5
X135.5Y-71.5
X135.618Y-81.5
X135.618Y-83.0
X135.877Y-85.877
X137.0Y-70.5
X137.5Y-94.5
X138.0Y-87.0
X138.5Y-96.5
X138.55Y-56.5
X139.0Y-103.277
X139.0Y-107.075
X139.5Y-69.5
X140.5Y-65.5
X141.5Y-56.5
X143.0Y-71.0
X143.0Y-76.0
X143.0Y-82.5
X143.0Y-87.5
X146.5Y-54.5
T4
X116.0Y-117.0
X118.0Y-117.0
T5
X116.96Y-106.5
X119.5Y-106.5
X122.04Y-106.5
T6
X106.0Y-114.5
X111.0Y-114.5
T7
X104.468Y-92.75
X104.468Y-97.75
X104.468Y-104.25
X104.468Y-109.25
X105.0Y-56.0
X105.0Y-61.0
X105.0Y-66.0
X105.0Y-71.0
X145.968Y-82.5
X145.968Y-87.5
X146.0Y-71.0
X146.0Y-76.0
X146.0Y-94.0
X146.0Y-99.0
X146.0Y-104.0
X146.0Y-109.0
T3
G00X121.818Y-113.345
M15
G01X121.818Y-114.445
M16
G05
G00X121.818Y-117.675
M15
G01X121.818Y-118.475
M16
G05
G00X130.458Y-113.345
M15
G01X130.458Y-114.445
M16
G05
G00X130.458Y-117.675
M15
G01X130.458Y-118.475
M16
G05
M30
