G04 #@! TF.GenerationSoftware,KiCad,Pcbnew,9.0.3*
G04 #@! TF.CreationDate,2025-12-20T12:13:59-05:00*
G04 #@! TF.ProjectId,Experimental,45787065-7269-46d6-956e-74616c2e6b69,rev?*
G04 #@! TF.SameCoordinates,Original*
G04 #@! TF.FileFunction,Copper,L2,Inr*
G04 #@! TF.FilePolarity,Positive*
%FSLAX46Y46*%
G04 Gerber Fmt 4.6, Leading zero omitted, Abs format (unit mm)*
G04 Created by KiCad (PCBNEW 9.0.3) date 2025-12-20 12:13:59*
%MOMM*%
%LPD*%
G01*
G04 APERTURE LIST*
G04 Aperture macros list*
%AMRoundRect*
0 Rectangle with rounded corners*
0 $1 Rounding radius*
0 $2 $3 $4 $5 $6 $7 $8 $9 X,Y pos of 4 corners*
0 Add a 4 corners polygon primitive as box body*
4,1,4,$2,$3,$4,$5,$6,$7,$8,$9,$2,$3,0*
0 Add four circle primitives for the rounded corners*
1,1,$1+$1,$2,$3*
1,1,$1+$1,$4,$5*
1,1,$1+$1,$6,$7*
1,1,$1+$1,$8,$9*
0 Add four rect primitives between the rounded corners*
20,1,$1+$1,$2,$3,$4,$5,0*
20,1,$1+$1,$4,$5,$6,$7,0*
20,1,$1+$1,$6,$7,$8,$9,0*
20,1,$1+$1,$8,$9,$2,$3,0*%
G04 Aperture macros list end*
G04 #@! TA.AperFunction,HeatsinkPad*
%ADD10O,1.000000X2.100000*%
G04 #@! TD*
G04 #@! TA.AperFunction,HeatsinkPad*
%ADD11O,1.000000X1.800000*%
G04 #@! TD*
G04 #@! TA.AperFunction,ComponentPad*
%ADD12RoundRect,0.250000X-0.350000X-0.625000X0.350000X-0.625000X0.350000X0.625000X-0.350000X0.625000X0*%
G04 #@! TD*
G04 #@! TA.AperFunction,ComponentPad*
%ADD13O,1.200000X1.750000*%
G04 #@! TD*
G04 #@! TA.AperFunction,ComponentPad*
%ADD14RoundRect,0.250001X1.149999X-1.149999X1.149999X1.149999X-1.149999X1.149999X-1.149999X-1.149999X0*%
G04 #@! TD*
G04 #@! TA.AperFunction,ComponentPad*
%ADD15C,2.800000*%
G04 #@! TD*
G04 #@! TA.AperFunction,HeatsinkPad*
%ADD16C,0.600000*%
G04 #@! TD*
G04 #@! TA.AperFunction,ViaPad*
%ADD17C,0.600000*%
G04 #@! TD*
G04 APERTURE END LIST*
D10*
X121818400Y-113895000D03*
D11*
X121818400Y-118075000D03*
D10*
X130458400Y-113895000D03*
D11*
X130458400Y-118075000D03*
D12*
X116000000Y-117000000D03*
D13*
X118000000Y-117000000D03*
D14*
X145967500Y-87500000D03*
D15*
X145967500Y-82500000D03*
D14*
X146000000Y-76000000D03*
D15*
X146000000Y-71000000D03*
D16*
X122850000Y-79590000D03*
X122850000Y-80990000D03*
X123550000Y-78890000D03*
X123550000Y-80290000D03*
X123550000Y-81690000D03*
X124250000Y-79590000D03*
X124250000Y-80990000D03*
X124950000Y-78890000D03*
X124950000Y-80290000D03*
X124950000Y-81690000D03*
X125650000Y-79590000D03*
X125650000Y-80990000D03*
D14*
X104467500Y-109250000D03*
D15*
X104467500Y-104250000D03*
D14*
X146000000Y-109000000D03*
D15*
X146000000Y-104000000D03*
X146000000Y-99000000D03*
X146000000Y-94000000D03*
D14*
X105000000Y-71000000D03*
D15*
X105000000Y-66000000D03*
X105000000Y-61000000D03*
X105000000Y-56000000D03*
D14*
X104467500Y-97750000D03*
D15*
X104467500Y-92750000D03*
D17*
X101500000Y-79000000D03*
X103000000Y-79000000D03*
X107500000Y-82500000D03*
X119500000Y-109000000D03*
X125500000Y-89000000D03*
X115000000Y-100000000D03*
X122000000Y-99000000D03*
X117000000Y-119500000D03*
X124000000Y-93000000D03*
X113500000Y-88655000D03*
X123845000Y-88655000D03*
X122500000Y-92000000D03*
X104500000Y-117500000D03*
X114000000Y-119500000D03*
X103000000Y-78000000D03*
X118000000Y-60500000D03*
X109500000Y-113000000D03*
X107015000Y-119015000D03*
X143000000Y-87500000D03*
X143000000Y-82500000D03*
X143000000Y-76000000D03*
X143000000Y-71000000D03*
X138500000Y-96500000D03*
X138000000Y-87000000D03*
X137500000Y-94500000D03*
X135877354Y-85877354D03*
X124861400Y-112138600D03*
X126000000Y-107500000D03*
X128000000Y-111500000D03*
X113000000Y-106500000D03*
X110750000Y-108750000D03*
X116500000Y-108000000D03*
X112000000Y-95910500D03*
X120500000Y-59000000D03*
X109000000Y-74310000D03*
X112000000Y-73500000D03*
X139000000Y-107075000D03*
X107000000Y-73500000D03*
X118000000Y-97000000D03*
X105500000Y-78500000D03*
X134500000Y-53216359D03*
X104000000Y-73500000D03*
X120357000Y-113000000D03*
X105500000Y-73500000D03*
X108500000Y-80680000D03*
X129191700Y-116808300D03*
X131000000Y-112500000D03*
X128950000Y-107500000D03*
X128500000Y-87000000D03*
X129000000Y-52500000D03*
X109500000Y-103500000D03*
X135000000Y-63500000D03*
X120100000Y-111000000D03*
X134550000Y-105000000D03*
X115500000Y-58000000D03*
X112337500Y-91645000D03*
X141500000Y-56500000D03*
X122946700Y-116946700D03*
X134480000Y-109000000D03*
X120500000Y-66400000D03*
X129500000Y-67000000D03*
X132900000Y-110500000D03*
X140500000Y-65500000D03*
X128325000Y-97395000D03*
X120500000Y-64200000D03*
X117000000Y-72570000D03*
X138550000Y-56500000D03*
X135500000Y-71500000D03*
X102500000Y-73500000D03*
X110500000Y-74000000D03*
X146500000Y-54500000D03*
X104000000Y-78000000D03*
X104500000Y-84350354D03*
X132310000Y-79500000D03*
X139000000Y-103277500D03*
X133600000Y-107275000D03*
X111034200Y-77034200D03*
X120000000Y-81500000D03*
X101500000Y-75500000D03*
X117000000Y-73840000D03*
X106388400Y-77760000D03*
X129000000Y-53600000D03*
X139500000Y-69500000D03*
X129000000Y-54700000D03*
X110138400Y-77000000D03*
X113500000Y-78000000D03*
X129000000Y-59000000D03*
X112000000Y-87500000D03*
X121250000Y-84250000D03*
X119500000Y-88000000D03*
X106500000Y-82500000D03*
X110000000Y-83500000D03*
X103122646Y-84877354D03*
X130671000Y-59973000D03*
X117000000Y-86500000D03*
X127877354Y-81377354D03*
X135618000Y-83000000D03*
X126556879Y-56500000D03*
X126500000Y-70500000D03*
X126000000Y-72500000D03*
X128000000Y-58500000D03*
X137000000Y-70500000D03*
X135000000Y-70500000D03*
X128925000Y-89575000D03*
X132971290Y-88528709D03*
X135618000Y-81500000D03*
X126000000Y-62000000D03*
X127500000Y-66500000D03*
X129000000Y-69500000D03*
X125000000Y-60000000D03*
X133000000Y-82000000D03*
X134527646Y-87782354D03*
G04 #@! TA.AperFunction,Conductor*
G36*
X149942539Y-50520185D02*
G01*
X149988294Y-50572989D01*
X149999500Y-50624500D01*
X149999500Y-51128095D01*
X149979815Y-51195134D01*
X149927011Y-51240889D01*
X149857853Y-51250833D01*
X149802615Y-51228414D01*
X149786432Y-51216656D01*
X149575996Y-51109433D01*
X149351368Y-51036446D01*
X149118097Y-50999500D01*
X149118092Y-50999500D01*
X148881908Y-50999500D01*
X148881903Y-50999500D01*
X148648631Y-51036446D01*
X148424003Y-51109433D01*
X148213566Y-51216657D01*
X148104550Y-51295862D01*
X148022490Y-51355483D01*
X148022488Y-51355485D01*
X148022487Y-51355485D01*
X147855485Y-51522487D01*
X147855485Y-51522488D01*
X147855483Y-51522490D01*
X147824454Y-51565198D01*
X147716657Y-51713566D01*
X147609433Y-51924003D01*
X147536446Y-52148631D01*
X147499500Y-52381902D01*
X147499500Y-52618097D01*
X147536446Y-52851368D01*
X147609433Y-53075996D01*
X147677405Y-53209397D01*
X147716657Y-53286433D01*
X147855483Y-53477510D01*
X148022490Y-53644517D01*
X148213567Y-53783343D01*
X148273802Y-53814034D01*
X148424003Y-53890566D01*
X148424005Y-53890566D01*
X148424008Y-53890568D01*
X148532284Y-53925749D01*
X148648631Y-53963553D01*
X148881903Y-54000500D01*
X148881908Y-54000500D01*
X149118097Y-54000500D01*
X149351368Y-53963553D01*
X149575992Y-53890568D01*
X149786433Y-53783343D01*
X149802612Y-53771587D01*
X149868418Y-53748106D01*
X149936472Y-53763930D01*
X149985168Y-53814034D01*
X149999500Y-53871904D01*
X149999500Y-118128095D01*
X149979815Y-118195134D01*
X149927011Y-118240889D01*
X149857853Y-118250833D01*
X149802615Y-118228414D01*
X149786432Y-118216656D01*
X149575996Y-118109433D01*
X149351368Y-118036446D01*
X149118097Y-117999500D01*
X149118092Y-117999500D01*
X148881908Y-117999500D01*
X148881903Y-117999500D01*
X148648631Y-118036446D01*
X148424003Y-118109433D01*
X148213566Y-118216657D01*
X148140509Y-118269737D01*
X148022490Y-118355483D01*
X148022488Y-118355485D01*
X148022487Y-118355485D01*
X147855485Y-118522487D01*
X147855485Y-118522488D01*
X147855483Y-118522490D01*
X147818392Y-118573541D01*
X147716657Y-118713566D01*
X147609433Y-118924003D01*
X147536446Y-119148631D01*
X147499500Y-119381902D01*
X147499500Y-119618097D01*
X147536446Y-119851368D01*
X147609433Y-120075996D01*
X147716656Y-120286432D01*
X147728414Y-120302615D01*
X147751893Y-120368422D01*
X147736067Y-120436476D01*
X147685961Y-120485170D01*
X147628095Y-120499500D01*
X117302190Y-120499500D01*
X117235151Y-120479815D01*
X117189396Y-120427011D01*
X117179452Y-120357853D01*
X117208477Y-120294297D01*
X117254738Y-120260939D01*
X117379172Y-120209397D01*
X117379172Y-120209396D01*
X117379179Y-120209394D01*
X117510289Y-120121789D01*
X117621789Y-120010289D01*
X117709394Y-119879179D01*
X117769737Y-119733497D01*
X117800500Y-119578842D01*
X117800500Y-119421158D01*
X117800500Y-119421155D01*
X117800499Y-119421153D01*
X117795135Y-119394185D01*
X117769737Y-119266503D01*
X117763786Y-119252136D01*
X117709397Y-119120827D01*
X117709390Y-119120814D01*
X117621789Y-118989711D01*
X117621786Y-118989707D01*
X117510292Y-118878213D01*
X117510288Y-118878210D01*
X117379185Y-118790609D01*
X117379172Y-118790602D01*
X117233501Y-118730264D01*
X117233489Y-118730261D01*
X117078845Y-118699500D01*
X117078842Y-118699500D01*
X116921158Y-118699500D01*
X116921155Y-118699500D01*
X116766510Y-118730261D01*
X116766498Y-118730264D01*
X116620827Y-118790602D01*
X116620814Y-118790609D01*
X116489711Y-118878210D01*
X116489707Y-118878213D01*
X116378213Y-118989707D01*
X116378210Y-118989711D01*
X116290609Y-119120814D01*
X116290602Y-119120827D01*
X116230264Y-119266498D01*
X116230261Y-119266510D01*
X116199500Y-119421153D01*
X116199500Y-119578846D01*
X116230261Y-119733489D01*
X116230264Y-119733501D01*
X116290602Y-119879172D01*
X116290609Y-119879185D01*
X116378210Y-120010288D01*
X116378213Y-120010292D01*
X116489707Y-120121786D01*
X116489711Y-120121789D01*
X116620814Y-120209390D01*
X116620827Y-120209397D01*
X116745262Y-120260939D01*
X116799666Y-120304779D01*
X116821731Y-120371074D01*
X116804452Y-120438773D01*
X116753315Y-120486384D01*
X116697810Y-120499500D01*
X114302190Y-120499500D01*
X114235151Y-120479815D01*
X114189396Y-120427011D01*
X114179452Y-120357853D01*
X114208477Y-120294297D01*
X114254738Y-120260939D01*
X114379172Y-120209397D01*
X114379172Y-120209396D01*
X114379179Y-120209394D01*
X114510289Y-120121789D01*
X114621789Y-120010289D01*
X114709394Y-119879179D01*
X114769737Y-119733497D01*
X114800500Y-119578842D01*
X114800500Y-119421158D01*
X114800500Y-119421155D01*
X114800499Y-119421153D01*
X114795135Y-119394185D01*
X114769737Y-119266503D01*
X114763786Y-119252136D01*
X114709397Y-119120827D01*
X114709390Y-119120814D01*
X114621789Y-118989711D01*
X114621786Y-118989707D01*
X114510292Y-118878213D01*
X114510288Y-118878210D01*
X114379185Y-118790609D01*
X114379172Y-118790602D01*
X114233501Y-118730264D01*
X114233489Y-118730261D01*
X114078845Y-118699500D01*
X114078842Y-118699500D01*
X113921158Y-118699500D01*
X113921155Y-118699500D01*
X113766510Y-118730261D01*
X113766498Y-118730264D01*
X113620827Y-118790602D01*
X113620814Y-118790609D01*
X113489711Y-118878210D01*
X113489707Y-118878213D01*
X113378213Y-118989707D01*
X113378210Y-118989711D01*
X113290609Y-119120814D01*
X113290602Y-119120827D01*
X113230264Y-119266498D01*
X113230261Y-119266510D01*
X113199500Y-119421153D01*
X113199500Y-119578846D01*
X113230261Y-119733489D01*
X113230264Y-119733501D01*
X113290602Y-119879172D01*
X113290609Y-119879185D01*
X113378210Y-120010288D01*
X113378213Y-120010292D01*
X113489707Y-120121786D01*
X113489711Y-120121789D01*
X113620814Y-120209390D01*
X113620827Y-120209397D01*
X113745262Y-120260939D01*
X113799666Y-120304779D01*
X113821731Y-120371074D01*
X113804452Y-120438773D01*
X113753315Y-120486384D01*
X113697810Y-120499500D01*
X103371905Y-120499500D01*
X103304866Y-120479815D01*
X103259111Y-120427011D01*
X103249167Y-120357853D01*
X103271586Y-120302615D01*
X103277629Y-120294297D01*
X103283343Y-120286433D01*
X103390568Y-120075992D01*
X103463553Y-119851368D01*
X103474107Y-119784735D01*
X103500500Y-119618097D01*
X103500500Y-119381902D01*
X103471043Y-119195924D01*
X103463553Y-119148632D01*
X103463552Y-119148628D01*
X103463552Y-119148627D01*
X103411915Y-118989707D01*
X103394514Y-118936153D01*
X106214500Y-118936153D01*
X106214500Y-119093846D01*
X106245261Y-119248489D01*
X106245264Y-119248501D01*
X106305602Y-119394172D01*
X106305609Y-119394185D01*
X106393210Y-119525288D01*
X106393213Y-119525292D01*
X106504707Y-119636786D01*
X106504711Y-119636789D01*
X106635814Y-119724390D01*
X106635827Y-119724397D01*
X106781498Y-119784735D01*
X106781503Y-119784737D01*
X106936153Y-119815499D01*
X106936156Y-119815500D01*
X106936158Y-119815500D01*
X107093844Y-119815500D01*
X107093845Y-119815499D01*
X107248497Y-119784737D01*
X107394179Y-119724394D01*
X107525289Y-119636789D01*
X107636789Y-119525289D01*
X107724394Y-119394179D01*
X107784737Y-119248497D01*
X107815500Y-119093842D01*
X107815500Y-118936158D01*
X107815500Y-118936155D01*
X107815499Y-118936153D01*
X107803974Y-118878213D01*
X107784737Y-118781503D01*
X107769617Y-118744999D01*
X107724397Y-118635827D01*
X107724390Y-118635814D01*
X107682781Y-118573543D01*
X120817899Y-118573543D01*
X120856347Y-118766829D01*
X120856350Y-118766839D01*
X120931764Y-118948907D01*
X120931771Y-118948920D01*
X121041260Y-119112781D01*
X121041263Y-119112785D01*
X121180614Y-119252136D01*
X121180618Y-119252139D01*
X121344479Y-119361628D01*
X121344492Y-119361635D01*
X121521135Y-119434802D01*
X121526565Y-119437051D01*
X121526569Y-119437051D01*
X121526570Y-119437052D01*
X121719856Y-119475500D01*
X121719859Y-119475500D01*
X121916943Y-119475500D01*
X122046982Y-119449632D01*
X122110235Y-119437051D01*
X122251055Y-119378721D01*
X122292307Y-119361635D01*
X122292307Y-119361634D01*
X122292314Y-119361632D01*
X122456182Y-119252139D01*
X122595539Y-119112782D01*
X122705032Y-118948914D01*
X122780451Y-118766835D01*
X122802193Y-118657533D01*
X122818900Y-118573543D01*
X122818900Y-117871200D01*
X122838585Y-117804161D01*
X122891389Y-117758406D01*
X122942900Y-117747200D01*
X123025544Y-117747200D01*
X123025545Y-117747199D01*
X123180197Y-117716437D01*
X123325879Y-117656094D01*
X123456989Y-117568489D01*
X123568489Y-117456989D01*
X123656094Y-117325879D01*
X123716437Y-117180197D01*
X123747200Y-117025542D01*
X123747200Y-116867858D01*
X123747200Y-116867855D01*
X123723271Y-116747558D01*
X123723271Y-116747557D01*
X123719669Y-116729453D01*
X128391200Y-116729453D01*
X128391200Y-116887146D01*
X128421961Y-117041789D01*
X128421964Y-117041801D01*
X128482302Y-117187472D01*
X128482309Y-117187485D01*
X128569910Y-117318588D01*
X128569913Y-117318592D01*
X128681407Y-117430086D01*
X128681411Y-117430089D01*
X128812514Y-117517690D01*
X128812527Y-117517697D01*
X128935152Y-117568489D01*
X128958203Y-117578037D01*
X129104990Y-117607235D01*
X129112853Y-117608799D01*
X129112856Y-117608800D01*
X129112858Y-117608800D01*
X129270542Y-117608800D01*
X129309708Y-117601009D01*
X129379298Y-117607235D01*
X129434476Y-117650097D01*
X129457722Y-117715987D01*
X129457900Y-117722626D01*
X129457900Y-118573541D01*
X129457900Y-118573543D01*
X129457899Y-118573543D01*
X129496347Y-118766829D01*
X129496350Y-118766839D01*
X129571764Y-118948907D01*
X129571771Y-118948920D01*
X129681260Y-119112781D01*
X129681263Y-119112785D01*
X129820614Y-119252136D01*
X129820618Y-119252139D01*
X129984479Y-119361628D01*
X129984492Y-119361635D01*
X130161135Y-119434802D01*
X130166565Y-119437051D01*
X130166569Y-119437051D01*
X130166570Y-119437052D01*
X130359856Y-119475500D01*
X130359859Y-119475500D01*
X130556943Y-119475500D01*
X130686982Y-119449632D01*
X130750235Y-119437051D01*
X130891055Y-119378721D01*
X130932307Y-119361635D01*
X130932307Y-119361634D01*
X130932314Y-119361632D01*
X131096182Y-119252139D01*
X131235539Y-119112782D01*
X131345032Y-118948914D01*
X131420451Y-118766835D01*
X131442193Y-118657533D01*
X131458900Y-118573543D01*
X131458900Y-117576456D01*
X131420452Y-117383170D01*
X131420451Y-117383169D01*
X131420451Y-117383165D01*
X131393703Y-117318588D01*
X131345035Y-117201092D01*
X131345028Y-117201079D01*
X131235539Y-117037218D01*
X131235536Y-117037214D01*
X131096185Y-116897863D01*
X131096181Y-116897860D01*
X130932320Y-116788371D01*
X130932307Y-116788364D01*
X130750239Y-116712950D01*
X130750229Y-116712947D01*
X130556943Y-116674500D01*
X130556941Y-116674500D01*
X130359859Y-116674500D01*
X130359857Y-116674500D01*
X130166571Y-116712947D01*
X130166568Y-116712948D01*
X130166566Y-116712948D01*
X130166565Y-116712949D01*
X130142028Y-116723112D01*
X130072561Y-116730579D01*
X130010082Y-116699304D01*
X129974430Y-116639214D01*
X129972962Y-116632741D01*
X129961438Y-116574810D01*
X129961437Y-116574803D01*
X129904112Y-116436407D01*
X129901097Y-116429127D01*
X129901090Y-116429114D01*
X129813489Y-116298011D01*
X129813486Y-116298007D01*
X129701992Y-116186513D01*
X129701988Y-116186510D01*
X129570885Y-116098909D01*
X129570872Y-116098902D01*
X129425201Y-116038564D01*
X129425189Y-116038561D01*
X129270545Y-116007800D01*
X129270542Y-116007800D01*
X129112858Y-116007800D01*
X129112855Y-116007800D01*
X128958210Y-116038561D01*
X128958198Y-116038564D01*
X128812527Y-116098902D01*
X128812514Y-116098909D01*
X128681411Y-116186510D01*
X128681407Y-116186513D01*
X128569913Y-116298007D01*
X128569910Y-116298011D01*
X128482309Y-116429114D01*
X128482302Y-116429127D01*
X128421964Y-116574798D01*
X128421961Y-116574810D01*
X128391200Y-116729453D01*
X123719669Y-116729453D01*
X123716438Y-116713210D01*
X123716437Y-116713203D01*
X123685790Y-116639214D01*
X123656097Y-116567527D01*
X123656090Y-116567514D01*
X123568489Y-116436411D01*
X123568486Y-116436407D01*
X123456992Y-116324913D01*
X123456988Y-116324910D01*
X123325885Y-116237309D01*
X123325872Y-116237302D01*
X123180201Y-116176964D01*
X123180189Y-116176961D01*
X123025545Y-116146200D01*
X123025542Y-116146200D01*
X122867858Y-116146200D01*
X122867855Y-116146200D01*
X122713210Y-116176961D01*
X122713198Y-116176964D01*
X122567527Y-116237302D01*
X122567514Y-116237309D01*
X122436411Y-116324910D01*
X122436407Y-116324913D01*
X122324913Y-116436407D01*
X122324910Y-116436411D01*
X122237309Y-116567514D01*
X122237302Y-116567527D01*
X122210924Y-116631212D01*
X122167083Y-116685616D01*
X122100789Y-116707681D01*
X122072172Y-116705377D01*
X121916944Y-116674500D01*
X121916941Y-116674500D01*
X121719859Y-116674500D01*
X121719857Y-116674500D01*
X121526570Y-116712947D01*
X121526560Y-116712950D01*
X121344492Y-116788364D01*
X121344479Y-116788371D01*
X121180618Y-116897860D01*
X121180614Y-116897863D01*
X121041263Y-117037214D01*
X121041260Y-117037218D01*
X120931771Y-117201079D01*
X120931764Y-117201092D01*
X120856350Y-117383160D01*
X120856347Y-117383170D01*
X120817900Y-117576456D01*
X120817900Y-117576459D01*
X120817900Y-118573541D01*
X120817900Y-118573543D01*
X120817899Y-118573543D01*
X107682781Y-118573543D01*
X107636789Y-118504711D01*
X107636786Y-118504707D01*
X107525292Y-118393213D01*
X107525288Y-118393210D01*
X107394185Y-118305609D01*
X107394172Y-118305602D01*
X107248501Y-118245264D01*
X107248489Y-118245261D01*
X107093845Y-118214500D01*
X107093842Y-118214500D01*
X106936158Y-118214500D01*
X106936155Y-118214500D01*
X106781510Y-118245261D01*
X106781498Y-118245264D01*
X106635827Y-118305602D01*
X106635814Y-118305609D01*
X106504711Y-118393210D01*
X106504707Y-118393213D01*
X106393213Y-118504707D01*
X106393210Y-118504711D01*
X106305609Y-118635814D01*
X106305602Y-118635827D01*
X106245264Y-118781498D01*
X106245261Y-118781510D01*
X106214500Y-118936153D01*
X103394514Y-118936153D01*
X103390568Y-118924008D01*
X103283343Y-118713567D01*
X103144517Y-118522490D01*
X102977510Y-118355483D01*
X102786433Y-118216657D01*
X102782200Y-118214500D01*
X102575996Y-118109433D01*
X102351368Y-118036446D01*
X102118097Y-117999500D01*
X102118092Y-117999500D01*
X101881908Y-117999500D01*
X101881903Y-117999500D01*
X101648631Y-118036446D01*
X101424003Y-118109433D01*
X101213566Y-118216657D01*
X101140509Y-118269737D01*
X101022490Y-118355483D01*
X101022488Y-118355485D01*
X101022487Y-118355485D01*
X100855485Y-118522487D01*
X100855485Y-118522488D01*
X100855483Y-118522490D01*
X100818392Y-118573541D01*
X100724818Y-118702334D01*
X100669488Y-118744999D01*
X100599874Y-118750978D01*
X100538079Y-118718372D01*
X100503722Y-118657533D01*
X100500500Y-118629448D01*
X100500500Y-117421153D01*
X103699500Y-117421153D01*
X103699500Y-117578846D01*
X103730261Y-117733489D01*
X103730264Y-117733501D01*
X103790602Y-117879172D01*
X103790609Y-117879185D01*
X103878210Y-118010288D01*
X103878213Y-118010292D01*
X103989707Y-118121786D01*
X103989711Y-118121789D01*
X104120814Y-118209390D01*
X104120827Y-118209397D01*
X104220864Y-118250833D01*
X104266503Y-118269737D01*
X104421153Y-118300499D01*
X104421156Y-118300500D01*
X104421158Y-118300500D01*
X104578844Y-118300500D01*
X104578845Y-118300499D01*
X104733497Y-118269737D01*
X104846166Y-118223067D01*
X104879172Y-118209397D01*
X104879172Y-118209396D01*
X104879179Y-118209394D01*
X105010289Y-118121789D01*
X105121789Y-118010289D01*
X105209394Y-117879179D01*
X105218112Y-117858133D01*
X105240467Y-117804161D01*
X105269737Y-117733497D01*
X105300500Y-117578842D01*
X105300500Y-117421158D01*
X105300500Y-117421155D01*
X105300499Y-117421153D01*
X105281549Y-117325885D01*
X105269737Y-117266503D01*
X105237007Y-117187485D01*
X105209397Y-117120827D01*
X105209390Y-117120814D01*
X105121789Y-116989711D01*
X105121786Y-116989707D01*
X105010292Y-116878213D01*
X105010288Y-116878210D01*
X104879185Y-116790609D01*
X104879172Y-116790602D01*
X104733501Y-116730264D01*
X104733489Y-116730261D01*
X104578845Y-116699500D01*
X104578842Y-116699500D01*
X104421158Y-116699500D01*
X104421155Y-116699500D01*
X104266510Y-116730261D01*
X104266498Y-116730264D01*
X104120827Y-116790602D01*
X104120814Y-116790609D01*
X103989711Y-116878210D01*
X103989707Y-116878213D01*
X103878213Y-116989707D01*
X103878210Y-116989711D01*
X103790609Y-117120814D01*
X103790602Y-117120827D01*
X103730264Y-117266498D01*
X103730261Y-117266510D01*
X103699500Y-117421153D01*
X100500500Y-117421153D01*
X100500500Y-116324983D01*
X114899500Y-116324983D01*
X114899500Y-117675001D01*
X114899501Y-117675018D01*
X114910000Y-117777796D01*
X114910001Y-117777799D01*
X114965185Y-117944331D01*
X114965187Y-117944336D01*
X114988870Y-117982732D01*
X115057288Y-118093656D01*
X115181344Y-118217712D01*
X115330666Y-118309814D01*
X115497203Y-118364999D01*
X115599991Y-118375500D01*
X116400008Y-118375499D01*
X116400016Y-118375498D01*
X116400019Y-118375498D01*
X116456302Y-118369748D01*
X116502797Y-118364999D01*
X116669334Y-118309814D01*
X116818656Y-118217712D01*
X116942712Y-118093656D01*
X116982310Y-118029456D01*
X117034258Y-117982732D01*
X117103220Y-117971509D01*
X117167303Y-117999352D01*
X117175530Y-118006872D01*
X117283072Y-118114414D01*
X117423212Y-118216232D01*
X117577555Y-118294873D01*
X117742299Y-118348402D01*
X117913389Y-118375500D01*
X117913390Y-118375500D01*
X118086610Y-118375500D01*
X118086611Y-118375500D01*
X118257701Y-118348402D01*
X118422445Y-118294873D01*
X118576788Y-118216232D01*
X118716928Y-118114414D01*
X118839414Y-117991928D01*
X118941232Y-117851788D01*
X119019873Y-117697445D01*
X119073402Y-117532701D01*
X119100500Y-117361611D01*
X119100500Y-116638389D01*
X119073402Y-116467299D01*
X119019873Y-116302555D01*
X118941232Y-116148212D01*
X118839414Y-116008072D01*
X118716928Y-115885586D01*
X118576788Y-115783768D01*
X118422445Y-115705127D01*
X118257701Y-115651598D01*
X118257699Y-115651597D01*
X118257698Y-115651597D01*
X118126271Y-115630781D01*
X118086611Y-115624500D01*
X117913389Y-115624500D01*
X117873728Y-115630781D01*
X117742302Y-115651597D01*
X117577552Y-115705128D01*
X117423211Y-115783768D01*
X117283073Y-115885585D01*
X117175530Y-115993128D01*
X117114207Y-116026612D01*
X117044515Y-116021628D01*
X116988582Y-115979756D01*
X116982310Y-115970543D01*
X116942712Y-115906344D01*
X116818656Y-115782288D01*
X116693559Y-115705128D01*
X116669336Y-115690187D01*
X116669331Y-115690185D01*
X116667862Y-115689698D01*
X116502797Y-115635001D01*
X116502795Y-115635000D01*
X116400010Y-115624500D01*
X115599998Y-115624500D01*
X115599980Y-115624501D01*
X115497203Y-115635000D01*
X115497200Y-115635001D01*
X115330668Y-115690185D01*
X115330663Y-115690187D01*
X115181342Y-115782289D01*
X115057289Y-115906342D01*
X114965187Y-116055663D01*
X114965185Y-116055668D01*
X114937349Y-116139670D01*
X114910001Y-116222203D01*
X114910001Y-116222204D01*
X114910000Y-116222204D01*
X114899500Y-116324983D01*
X100500500Y-116324983D01*
X100500500Y-114398992D01*
X104974500Y-114398992D01*
X104974500Y-114601007D01*
X105013907Y-114799119D01*
X105013909Y-114799127D01*
X105091212Y-114985752D01*
X105091217Y-114985762D01*
X105203441Y-115153718D01*
X105346281Y-115296558D01*
X105514237Y-115408782D01*
X105514241Y-115408784D01*
X105514244Y-115408786D01*
X105700873Y-115486091D01*
X105898992Y-115525499D01*
X105898996Y-115525500D01*
X105898997Y-115525500D01*
X106101004Y-115525500D01*
X106101005Y-115525499D01*
X106299127Y-115486091D01*
X106485756Y-115408786D01*
X106653718Y-115296558D01*
X106796558Y-115153718D01*
X106908786Y-114985756D01*
X106986091Y-114799127D01*
X107025500Y-114601003D01*
X107025500Y-114398997D01*
X107025499Y-114398992D01*
X109974500Y-114398992D01*
X109974500Y-114601007D01*
X110013907Y-114799119D01*
X110013909Y-114799127D01*
X110091212Y-114985752D01*
X110091217Y-114985762D01*
X110203441Y-115153718D01*
X110346281Y-115296558D01*
X110514237Y-115408782D01*
X110514241Y-115408784D01*
X110514244Y-115408786D01*
X110700873Y-115486091D01*
X110898992Y-115525499D01*
X110898996Y-115525500D01*
X110898997Y-115525500D01*
X111101004Y-115525500D01*
X111101005Y-115525499D01*
X111299127Y-115486091D01*
X111485756Y-115408786D01*
X111653718Y-115296558D01*
X111796558Y-115153718D01*
X111908786Y-114985756D01*
X111986091Y-114799127D01*
X112025500Y-114601003D01*
X112025500Y-114398997D01*
X111986091Y-114200873D01*
X111908786Y-114014244D01*
X111908784Y-114014241D01*
X111908782Y-114014237D01*
X111796558Y-113846281D01*
X111653718Y-113703441D01*
X111485762Y-113591217D01*
X111485752Y-113591212D01*
X111299127Y-113513909D01*
X111299119Y-113513907D01*
X111101007Y-113474500D01*
X111101003Y-113474500D01*
X110898997Y-113474500D01*
X110898992Y-113474500D01*
X110700880Y-113513907D01*
X110700872Y-113513909D01*
X110514247Y-113591212D01*
X110514237Y-113591217D01*
X110346281Y-113703441D01*
X110203441Y-113846281D01*
X110091217Y-114014237D01*
X110091212Y-114014247D01*
X110013909Y-114200872D01*
X110013907Y-114200880D01*
X109974500Y-114398992D01*
X107025499Y-114398992D01*
X106986091Y-114200873D01*
X106908786Y-114014244D01*
X106908784Y-114014241D01*
X106908782Y-114014237D01*
X106796558Y-113846281D01*
X106653718Y-113703441D01*
X106485762Y-113591217D01*
X106485752Y-113591212D01*
X106299127Y-113513909D01*
X106299119Y-113513907D01*
X106101007Y-113474500D01*
X106101003Y-113474500D01*
X105898997Y-113474500D01*
X105898992Y-113474500D01*
X105700880Y-113513907D01*
X105700872Y-113513909D01*
X105514247Y-113591212D01*
X105514237Y-113591217D01*
X105346281Y-113703441D01*
X105203441Y-113846281D01*
X105091217Y-114014237D01*
X105091212Y-114014247D01*
X105013909Y-114200872D01*
X105013907Y-114200880D01*
X104974500Y-114398992D01*
X100500500Y-114398992D01*
X100500500Y-112921153D01*
X108699500Y-112921153D01*
X108699500Y-113078846D01*
X108730261Y-113233489D01*
X108730264Y-113233501D01*
X108790602Y-113379172D01*
X108790609Y-113379185D01*
X108878210Y-113510288D01*
X108878213Y-113510292D01*
X108989707Y-113621786D01*
X108989711Y-113621789D01*
X109120814Y-113709390D01*
X109120827Y-113709397D01*
X109266498Y-113769735D01*
X109266503Y-113769737D01*
X109421153Y-113800499D01*
X109421156Y-113800500D01*
X109421158Y-113800500D01*
X109578844Y-113800500D01*
X109578845Y-113800499D01*
X109733497Y-113769737D01*
X109879179Y-113709394D01*
X110010289Y-113621789D01*
X110121789Y-113510289D01*
X110209394Y-113379179D01*
X110269737Y-113233497D01*
X110300500Y-113078842D01*
X110300500Y-112921158D01*
X110300500Y-112921155D01*
X110300499Y-112921153D01*
X119556500Y-112921153D01*
X119556500Y-113078846D01*
X119587261Y-113233489D01*
X119587264Y-113233501D01*
X119647602Y-113379172D01*
X119647609Y-113379185D01*
X119735210Y-113510288D01*
X119735213Y-113510292D01*
X119846707Y-113621786D01*
X119846711Y-113621789D01*
X119977814Y-113709390D01*
X119977827Y-113709397D01*
X120123498Y-113769735D01*
X120123503Y-113769737D01*
X120278153Y-113800499D01*
X120278156Y-113800500D01*
X120278158Y-113800500D01*
X120435844Y-113800500D01*
X120435845Y-113800499D01*
X120590497Y-113769737D01*
X120646450Y-113746560D01*
X120715916Y-113739092D01*
X120778395Y-113770366D01*
X120814048Y-113830455D01*
X120817900Y-113861122D01*
X120817900Y-114543541D01*
X120817900Y-114543543D01*
X120817899Y-114543543D01*
X120856347Y-114736829D01*
X120856350Y-114736839D01*
X120931764Y-114918907D01*
X120931771Y-114918920D01*
X121041260Y-115082781D01*
X121041263Y-115082785D01*
X121180614Y-115222136D01*
X121180618Y-115222139D01*
X121344479Y-115331628D01*
X121344492Y-115331635D01*
X121526560Y-115407049D01*
X121526565Y-115407051D01*
X121526569Y-115407051D01*
X121526570Y-115407052D01*
X121719856Y-115445500D01*
X121719859Y-115445500D01*
X121916943Y-115445500D01*
X122046982Y-115419632D01*
X122110235Y-115407051D01*
X122292314Y-115331632D01*
X122456182Y-115222139D01*
X122595539Y-115082782D01*
X122705032Y-114918914D01*
X122728944Y-114861182D01*
X122772784Y-114806782D01*
X122839078Y-114784716D01*
X122906777Y-114801995D01*
X122918734Y-114811283D01*
X122919290Y-114810559D01*
X122925733Y-114815503D01*
X122925735Y-114815505D01*
X123045564Y-114884688D01*
X123179217Y-114920500D01*
X123179219Y-114920500D01*
X123317581Y-114920500D01*
X123317583Y-114920500D01*
X123451236Y-114884688D01*
X123571065Y-114815505D01*
X123668905Y-114717665D01*
X123738088Y-114597836D01*
X123773900Y-114464183D01*
X123773900Y-114325817D01*
X128502900Y-114325817D01*
X128502900Y-114464183D01*
X128524165Y-114543543D01*
X128538712Y-114597835D01*
X128538713Y-114597838D01*
X128607892Y-114717661D01*
X128607894Y-114717664D01*
X128607895Y-114717665D01*
X128705735Y-114815505D01*
X128825564Y-114884688D01*
X128959217Y-114920500D01*
X128959219Y-114920500D01*
X129097581Y-114920500D01*
X129097583Y-114920500D01*
X129231236Y-114884688D01*
X129351065Y-114815505D01*
X129351069Y-114815500D01*
X129357510Y-114810559D01*
X129359638Y-114813333D01*
X129406731Y-114787516D01*
X129476431Y-114792382D01*
X129532435Y-114834159D01*
X129547855Y-114861184D01*
X129571766Y-114918910D01*
X129571771Y-114918920D01*
X129681260Y-115082781D01*
X129681263Y-115082785D01*
X129820614Y-115222136D01*
X129820618Y-115222139D01*
X129984479Y-115331628D01*
X129984492Y-115331635D01*
X130166560Y-115407049D01*
X130166565Y-115407051D01*
X130166569Y-115407051D01*
X130166570Y-115407052D01*
X130359856Y-115445500D01*
X130359859Y-115445500D01*
X130556943Y-115445500D01*
X130686982Y-115419632D01*
X130750235Y-115407051D01*
X130932314Y-115331632D01*
X131096182Y-115222139D01*
X131235539Y-115082782D01*
X131345032Y-114918914D01*
X131420451Y-114736835D01*
X131458900Y-114543541D01*
X131458900Y-113246459D01*
X131458900Y-113246456D01*
X131458303Y-113240394D01*
X131459898Y-113240236D01*
X131465429Y-113178400D01*
X131506004Y-113126160D01*
X131505585Y-113125649D01*
X131507838Y-113123799D01*
X131508289Y-113123220D01*
X131509954Y-113122063D01*
X131510283Y-113121792D01*
X131510289Y-113121789D01*
X131621789Y-113010289D01*
X131709394Y-112879179D01*
X131769737Y-112733497D01*
X131800500Y-112578842D01*
X131800500Y-112421158D01*
X131800500Y-112421155D01*
X131800499Y-112421153D01*
X131790741Y-112372097D01*
X131769737Y-112266503D01*
X131769735Y-112266498D01*
X131709397Y-112120827D01*
X131709390Y-112120814D01*
X131621789Y-111989711D01*
X131621786Y-111989707D01*
X131510292Y-111878213D01*
X131510288Y-111878210D01*
X131379185Y-111790609D01*
X131379172Y-111790602D01*
X131233501Y-111730264D01*
X131233489Y-111730261D01*
X131078845Y-111699500D01*
X131078842Y-111699500D01*
X130921158Y-111699500D01*
X130921155Y-111699500D01*
X130766510Y-111730261D01*
X130766498Y-111730264D01*
X130620827Y-111790602D01*
X130620814Y-111790609D01*
X130489711Y-111878210D01*
X130489707Y-111878213D01*
X130378213Y-111989707D01*
X130378210Y-111989711D01*
X130290609Y-112120814D01*
X130290602Y-112120827D01*
X130230264Y-112266498D01*
X130230261Y-112266508D01*
X130223670Y-112299646D01*
X130191285Y-112361557D01*
X130149505Y-112390015D01*
X129984492Y-112458364D01*
X129984479Y-112458371D01*
X129820618Y-112567860D01*
X129820614Y-112567863D01*
X129681263Y-112707214D01*
X129681260Y-112707218D01*
X129571771Y-112871079D01*
X129571764Y-112871092D01*
X129496350Y-113053160D01*
X129496347Y-113053170D01*
X129457900Y-113246456D01*
X129457900Y-113821402D01*
X129438215Y-113888441D01*
X129385411Y-113934196D01*
X129316253Y-113944140D01*
X129271901Y-113928789D01*
X129231242Y-113905315D01*
X129231238Y-113905313D01*
X129231236Y-113905312D01*
X129097583Y-113869500D01*
X128959217Y-113869500D01*
X128825564Y-113905312D01*
X128825561Y-113905313D01*
X128705738Y-113974492D01*
X128705733Y-113974496D01*
X128607896Y-114072333D01*
X128607892Y-114072338D01*
X128538713Y-114192161D01*
X128538712Y-114192164D01*
X128502900Y-114325817D01*
X123773900Y-114325817D01*
X123738088Y-114192164D01*
X123668905Y-114072335D01*
X123571065Y-113974495D01*
X123571064Y-113974494D01*
X123571061Y-113974492D01*
X123451238Y-113905313D01*
X123451237Y-113905312D01*
X123451236Y-113905312D01*
X123317583Y-113869500D01*
X123179217Y-113869500D01*
X123045564Y-113905312D01*
X123045557Y-113905315D01*
X123004899Y-113928789D01*
X122936999Y-113945262D01*
X122870972Y-113922409D01*
X122827782Y-113867488D01*
X122818900Y-113821402D01*
X122818900Y-113246456D01*
X122780452Y-113053170D01*
X122780451Y-113053169D01*
X122780451Y-113053165D01*
X122733204Y-112939099D01*
X122705035Y-112871092D01*
X122705028Y-112871079D01*
X122595539Y-112707218D01*
X122595536Y-112707214D01*
X122456185Y-112567863D01*
X122456181Y-112567860D01*
X122292320Y-112458371D01*
X122292307Y-112458364D01*
X122110239Y-112382950D01*
X122110229Y-112382947D01*
X121916943Y-112344500D01*
X121916941Y-112344500D01*
X121719859Y-112344500D01*
X121719857Y-112344500D01*
X121526570Y-112382947D01*
X121526560Y-112382950D01*
X121344492Y-112458364D01*
X121344474Y-112458374D01*
X121180287Y-112568080D01*
X121113610Y-112588958D01*
X121046230Y-112570473D01*
X121008295Y-112533869D01*
X120978789Y-112489711D01*
X120978786Y-112489707D01*
X120867292Y-112378213D01*
X120867288Y-112378210D01*
X120736185Y-112290609D01*
X120736172Y-112290602D01*
X120590501Y-112230264D01*
X120590489Y-112230261D01*
X120435845Y-112199500D01*
X120435842Y-112199500D01*
X120278158Y-112199500D01*
X120278155Y-112199500D01*
X120123510Y-112230261D01*
X120123498Y-112230264D01*
X119977827Y-112290602D01*
X119977814Y-112290609D01*
X119846711Y-112378210D01*
X119846707Y-112378213D01*
X119735213Y-112489707D01*
X119735210Y-112489711D01*
X119647609Y-112620814D01*
X119647602Y-112620827D01*
X119587264Y-112766498D01*
X119587261Y-112766510D01*
X119556500Y-112921153D01*
X110300499Y-112921153D01*
X110290540Y-112871086D01*
X110269737Y-112766503D01*
X110227338Y-112664141D01*
X110209397Y-112620827D01*
X110209390Y-112620814D01*
X110121789Y-112489711D01*
X110121786Y-112489707D01*
X110010292Y-112378213D01*
X110010288Y-112378210D01*
X109879185Y-112290609D01*
X109879172Y-112290602D01*
X109733501Y-112230264D01*
X109733489Y-112230261D01*
X109578845Y-112199500D01*
X109578842Y-112199500D01*
X109421158Y-112199500D01*
X109421155Y-112199500D01*
X109266510Y-112230261D01*
X109266498Y-112230264D01*
X109120827Y-112290602D01*
X109120814Y-112290609D01*
X108989711Y-112378210D01*
X108989707Y-112378213D01*
X108878213Y-112489707D01*
X108878210Y-112489711D01*
X108790609Y-112620814D01*
X108790602Y-112620827D01*
X108730264Y-112766498D01*
X108730261Y-112766510D01*
X108699500Y-112921153D01*
X100500500Y-112921153D01*
X100500500Y-112059753D01*
X124060900Y-112059753D01*
X124060900Y-112217446D01*
X124091661Y-112372089D01*
X124091664Y-112372101D01*
X124152002Y-112517772D01*
X124152009Y-112517785D01*
X124239610Y-112648888D01*
X124239613Y-112648892D01*
X124351107Y-112760386D01*
X124351111Y-112760389D01*
X124482214Y-112847990D01*
X124482227Y-112847997D01*
X124557523Y-112879185D01*
X124627903Y-112908337D01*
X124782553Y-112939099D01*
X124782556Y-112939100D01*
X124782558Y-112939100D01*
X124940244Y-112939100D01*
X124940245Y-112939099D01*
X125094897Y-112908337D01*
X125240579Y-112847994D01*
X125371689Y-112760389D01*
X125483189Y-112648889D01*
X125570794Y-112517779D01*
X125631137Y-112372097D01*
X125661900Y-112217442D01*
X125661900Y-112059758D01*
X125661900Y-112059755D01*
X125661899Y-112059753D01*
X125631137Y-111905103D01*
X125631135Y-111905098D01*
X125570797Y-111759427D01*
X125570790Y-111759414D01*
X125483189Y-111628311D01*
X125483186Y-111628307D01*
X125371690Y-111516811D01*
X125240585Y-111429209D01*
X125240572Y-111429202D01*
X125221140Y-111421153D01*
X127199500Y-111421153D01*
X127199500Y-111578846D01*
X127230261Y-111733489D01*
X127230264Y-111733501D01*
X127290602Y-111879172D01*
X127290609Y-111879185D01*
X127378210Y-112010288D01*
X127378213Y-112010292D01*
X127489707Y-112121786D01*
X127489711Y-112121789D01*
X127620814Y-112209390D01*
X127620827Y-112209397D01*
X127758683Y-112266498D01*
X127766503Y-112269737D01*
X127916865Y-112299646D01*
X127921153Y-112300499D01*
X127921156Y-112300500D01*
X127921158Y-112300500D01*
X128078844Y-112300500D01*
X128078845Y-112300499D01*
X128233497Y-112269737D01*
X128359740Y-112217446D01*
X128379172Y-112209397D01*
X128379172Y-112209396D01*
X128379179Y-112209394D01*
X128510289Y-112121789D01*
X128621789Y-112010289D01*
X128709394Y-111879179D01*
X128769737Y-111733497D01*
X128800500Y-111578842D01*
X128800500Y-111421158D01*
X128800500Y-111421155D01*
X128800499Y-111421153D01*
X128790097Y-111368861D01*
X128769737Y-111266503D01*
X128746080Y-111209390D01*
X128709397Y-111120827D01*
X128709390Y-111120814D01*
X128621789Y-110989711D01*
X128621786Y-110989707D01*
X128510292Y-110878213D01*
X128510288Y-110878210D01*
X128379185Y-110790609D01*
X128379172Y-110790602D01*
X128233501Y-110730264D01*
X128233489Y-110730261D01*
X128078845Y-110699500D01*
X128078842Y-110699500D01*
X127921158Y-110699500D01*
X127921155Y-110699500D01*
X127766510Y-110730261D01*
X127766498Y-110730264D01*
X127620827Y-110790602D01*
X127620814Y-110790609D01*
X127489711Y-110878210D01*
X127489707Y-110878213D01*
X127378213Y-110989707D01*
X127378210Y-110989711D01*
X127290609Y-111120814D01*
X127290602Y-111120827D01*
X127230264Y-111266498D01*
X127230261Y-111266510D01*
X127199500Y-111421153D01*
X125221140Y-111421153D01*
X125094901Y-111368864D01*
X125094889Y-111368861D01*
X124940245Y-111338100D01*
X124940242Y-111338100D01*
X124782558Y-111338100D01*
X124782555Y-111338100D01*
X124627910Y-111368861D01*
X124627898Y-111368864D01*
X124482227Y-111429202D01*
X124482214Y-111429209D01*
X124351111Y-111516810D01*
X124351107Y-111516813D01*
X124239613Y-111628307D01*
X124239610Y-111628311D01*
X124152009Y-111759414D01*
X124152002Y-111759427D01*
X124091664Y-111905098D01*
X124091661Y-111905110D01*
X124060900Y-112059753D01*
X100500500Y-112059753D01*
X100500500Y-108049984D01*
X102567000Y-108049984D01*
X102567000Y-110450015D01*
X102577500Y-110552795D01*
X102577501Y-110552797D01*
X102586132Y-110578844D01*
X102632686Y-110719335D01*
X102632687Y-110719337D01*
X102724786Y-110868651D01*
X102724789Y-110868655D01*
X102848844Y-110992710D01*
X102848848Y-110992713D01*
X102998162Y-111084812D01*
X102998164Y-111084813D01*
X102998166Y-111084814D01*
X103164703Y-111139999D01*
X103267492Y-111150500D01*
X103267497Y-111150500D01*
X105667503Y-111150500D01*
X105667508Y-111150500D01*
X105770297Y-111139999D01*
X105936834Y-111084814D01*
X106086155Y-110992711D01*
X106157713Y-110921153D01*
X119299500Y-110921153D01*
X119299500Y-111078846D01*
X119330261Y-111233489D01*
X119330264Y-111233501D01*
X119390602Y-111379172D01*
X119390609Y-111379185D01*
X119478210Y-111510288D01*
X119478213Y-111510292D01*
X119589707Y-111621786D01*
X119589711Y-111621789D01*
X119720814Y-111709390D01*
X119720827Y-111709397D01*
X119841612Y-111759427D01*
X119866503Y-111769737D01*
X120021153Y-111800499D01*
X120021156Y-111800500D01*
X120021158Y-111800500D01*
X120178844Y-111800500D01*
X120178845Y-111800499D01*
X120333497Y-111769737D01*
X120479179Y-111709394D01*
X120610289Y-111621789D01*
X120721789Y-111510289D01*
X120809394Y-111379179D01*
X120869737Y-111233497D01*
X120900500Y-111078842D01*
X120900500Y-110921158D01*
X120900500Y-110921155D01*
X120900499Y-110921153D01*
X120886340Y-110849970D01*
X120869737Y-110766503D01*
X120856062Y-110733489D01*
X120809397Y-110620827D01*
X120809390Y-110620814D01*
X120721790Y-110489712D01*
X120721784Y-110489705D01*
X120653232Y-110421153D01*
X132099500Y-110421153D01*
X132099500Y-110578846D01*
X132130261Y-110733489D01*
X132130264Y-110733501D01*
X132190602Y-110879172D01*
X132190609Y-110879185D01*
X132278210Y-111010288D01*
X132278213Y-111010292D01*
X132389707Y-111121786D01*
X132389711Y-111121789D01*
X132520814Y-111209390D01*
X132520827Y-111209397D01*
X132658683Y-111266498D01*
X132666503Y-111269737D01*
X132821153Y-111300499D01*
X132821156Y-111300500D01*
X132821158Y-111300500D01*
X132978844Y-111300500D01*
X132978845Y-111300499D01*
X133133497Y-111269737D01*
X133279179Y-111209394D01*
X133410289Y-111121789D01*
X133521789Y-111010289D01*
X133609394Y-110879179D01*
X133669737Y-110733497D01*
X133700500Y-110578842D01*
X133700500Y-110421158D01*
X133700500Y-110421155D01*
X133700499Y-110421153D01*
X133674531Y-110290606D01*
X133669737Y-110266503D01*
X133669735Y-110266498D01*
X133609397Y-110120827D01*
X133609390Y-110120814D01*
X133521789Y-109989711D01*
X133521786Y-109989707D01*
X133410292Y-109878213D01*
X133410288Y-109878210D01*
X133279185Y-109790609D01*
X133279172Y-109790602D01*
X133133501Y-109730264D01*
X133133489Y-109730261D01*
X132978845Y-109699500D01*
X132978842Y-109699500D01*
X132821158Y-109699500D01*
X132821155Y-109699500D01*
X132666510Y-109730261D01*
X132666498Y-109730264D01*
X132520827Y-109790602D01*
X132520814Y-109790609D01*
X132389711Y-109878210D01*
X132389707Y-109878213D01*
X132278213Y-109989707D01*
X132278210Y-109989711D01*
X132190609Y-110120814D01*
X132190602Y-110120827D01*
X132130264Y-110266498D01*
X132130261Y-110266510D01*
X132099500Y-110421153D01*
X120653232Y-110421153D01*
X120610292Y-110378213D01*
X120610288Y-110378210D01*
X120479185Y-110290609D01*
X120479172Y-110290602D01*
X120333501Y-110230264D01*
X120333489Y-110230261D01*
X120178845Y-110199500D01*
X120178842Y-110199500D01*
X120021158Y-110199500D01*
X120021155Y-110199500D01*
X119866510Y-110230261D01*
X119866498Y-110230264D01*
X119720827Y-110290602D01*
X119720814Y-110290609D01*
X119589711Y-110378210D01*
X119589707Y-110378213D01*
X119478213Y-110489707D01*
X119478210Y-110489711D01*
X119390609Y-110620814D01*
X119390602Y-110620827D01*
X119330264Y-110766498D01*
X119330261Y-110766510D01*
X119299500Y-110921153D01*
X106157713Y-110921153D01*
X106210211Y-110868655D01*
X106302314Y-110719334D01*
X106357499Y-110552797D01*
X106368000Y-110450008D01*
X106368000Y-108671153D01*
X109949500Y-108671153D01*
X109949500Y-108828846D01*
X109980261Y-108983489D01*
X109980264Y-108983501D01*
X110040602Y-109129172D01*
X110040609Y-109129185D01*
X110128210Y-109260288D01*
X110128213Y-109260292D01*
X110239707Y-109371786D01*
X110239711Y-109371789D01*
X110370814Y-109459390D01*
X110370827Y-109459397D01*
X110516498Y-109519735D01*
X110516503Y-109519737D01*
X110671153Y-109550499D01*
X110671156Y-109550500D01*
X110671158Y-109550500D01*
X110828844Y-109550500D01*
X110828845Y-109550499D01*
X110983497Y-109519737D01*
X111129179Y-109459394D01*
X111260289Y-109371789D01*
X111371789Y-109260289D01*
X111459394Y-109129179D01*
X111519737Y-108983497D01*
X111532138Y-108921153D01*
X118699500Y-108921153D01*
X118699500Y-109078846D01*
X118730261Y-109233489D01*
X118730264Y-109233501D01*
X118790602Y-109379172D01*
X118790609Y-109379185D01*
X118878210Y-109510288D01*
X118878213Y-109510292D01*
X118989707Y-109621786D01*
X118989711Y-109621789D01*
X119120814Y-109709390D01*
X119120827Y-109709397D01*
X119266498Y-109769735D01*
X119266503Y-109769737D01*
X119421153Y-109800499D01*
X119421156Y-109800500D01*
X119421158Y-109800500D01*
X119578844Y-109800500D01*
X119578845Y-109800499D01*
X119733497Y-109769737D01*
X119879179Y-109709394D01*
X120010289Y-109621789D01*
X120121789Y-109510289D01*
X120209394Y-109379179D01*
X120269737Y-109233497D01*
X120300500Y-109078842D01*
X120300500Y-108921158D01*
X120300500Y-108921155D01*
X120300499Y-108921153D01*
X133679500Y-108921153D01*
X133679500Y-109078846D01*
X133710261Y-109233489D01*
X133710264Y-109233501D01*
X133770602Y-109379172D01*
X133770609Y-109379185D01*
X133858210Y-109510288D01*
X133858213Y-109510292D01*
X133969707Y-109621786D01*
X133969711Y-109621789D01*
X134100814Y-109709390D01*
X134100827Y-109709397D01*
X134246498Y-109769735D01*
X134246503Y-109769737D01*
X134401153Y-109800499D01*
X134401156Y-109800500D01*
X134401158Y-109800500D01*
X134558844Y-109800500D01*
X134558845Y-109800499D01*
X134713497Y-109769737D01*
X134859179Y-109709394D01*
X134990289Y-109621789D01*
X135101789Y-109510289D01*
X135189394Y-109379179D01*
X135249737Y-109233497D01*
X135280500Y-109078842D01*
X135280500Y-108921158D01*
X135280500Y-108921155D01*
X135280499Y-108921153D01*
X135249738Y-108766510D01*
X135249737Y-108766503D01*
X135189794Y-108621786D01*
X135189397Y-108620827D01*
X135189390Y-108620814D01*
X135101789Y-108489711D01*
X135101786Y-108489707D01*
X134990292Y-108378213D01*
X134990288Y-108378210D01*
X134859185Y-108290609D01*
X134859172Y-108290602D01*
X134713501Y-108230264D01*
X134713489Y-108230261D01*
X134558845Y-108199500D01*
X134558842Y-108199500D01*
X134401158Y-108199500D01*
X134401155Y-108199500D01*
X134246510Y-108230261D01*
X134246498Y-108230264D01*
X134100827Y-108290602D01*
X134100814Y-108290609D01*
X133969711Y-108378210D01*
X133969707Y-108378213D01*
X133858213Y-108489707D01*
X133858210Y-108489711D01*
X133770609Y-108620814D01*
X133770602Y-108620827D01*
X133710264Y-108766498D01*
X133710261Y-108766510D01*
X133679500Y-108921153D01*
X120300499Y-108921153D01*
X120269738Y-108766510D01*
X120269737Y-108766503D01*
X120209794Y-108621786D01*
X120209397Y-108620827D01*
X120209390Y-108620814D01*
X120121789Y-108489711D01*
X120121786Y-108489707D01*
X120010292Y-108378213D01*
X120010288Y-108378210D01*
X119879185Y-108290609D01*
X119879172Y-108290602D01*
X119733501Y-108230264D01*
X119733489Y-108230261D01*
X119578845Y-108199500D01*
X119578842Y-108199500D01*
X119421158Y-108199500D01*
X119421155Y-108199500D01*
X119266510Y-108230261D01*
X119266498Y-108230264D01*
X119120827Y-108290602D01*
X119120814Y-108290609D01*
X118989711Y-108378210D01*
X118989707Y-108378213D01*
X118878213Y-108489707D01*
X118878210Y-108489711D01*
X118790609Y-108620814D01*
X118790602Y-108620827D01*
X118730264Y-108766498D01*
X118730261Y-108766510D01*
X118699500Y-108921153D01*
X111532138Y-108921153D01*
X111550500Y-108828842D01*
X111550500Y-108671158D01*
X111550500Y-108671155D01*
X111550499Y-108671153D01*
X111519738Y-108516510D01*
X111519737Y-108516503D01*
X111517163Y-108510288D01*
X111459397Y-108370827D01*
X111459390Y-108370814D01*
X111371789Y-108239711D01*
X111371786Y-108239707D01*
X111260292Y-108128213D01*
X111260288Y-108128210D01*
X111129185Y-108040609D01*
X111129173Y-108040602D01*
X111102674Y-108029627D01*
X110983501Y-107980264D01*
X110983489Y-107980261D01*
X110828845Y-107949500D01*
X110828842Y-107949500D01*
X110671158Y-107949500D01*
X110671155Y-107949500D01*
X110516510Y-107980261D01*
X110516498Y-107980264D01*
X110370827Y-108040602D01*
X110370814Y-108040609D01*
X110239711Y-108128210D01*
X110239707Y-108128213D01*
X110128213Y-108239707D01*
X110128210Y-108239711D01*
X110040609Y-108370814D01*
X110040602Y-108370827D01*
X109980264Y-108516498D01*
X109980261Y-108516510D01*
X109949500Y-108671153D01*
X106368000Y-108671153D01*
X106368000Y-108049992D01*
X106357499Y-107947203D01*
X106348867Y-107921153D01*
X115699500Y-107921153D01*
X115699500Y-108078846D01*
X115730261Y-108233489D01*
X115730264Y-108233501D01*
X115790602Y-108379172D01*
X115790609Y-108379185D01*
X115878210Y-108510288D01*
X115878213Y-108510292D01*
X115989707Y-108621786D01*
X115989711Y-108621789D01*
X116120814Y-108709390D01*
X116120827Y-108709397D01*
X116258683Y-108766498D01*
X116266503Y-108769737D01*
X116421153Y-108800499D01*
X116421156Y-108800500D01*
X116421158Y-108800500D01*
X116578844Y-108800500D01*
X116578845Y-108800499D01*
X116589179Y-108798443D01*
X116614287Y-108793450D01*
X116614292Y-108793449D01*
X116699800Y-108776439D01*
X116733497Y-108769737D01*
X116879179Y-108709394D01*
X117010289Y-108621789D01*
X117121789Y-108510289D01*
X117209394Y-108379179D01*
X117212854Y-108370827D01*
X117241984Y-108300499D01*
X117269737Y-108233497D01*
X117300500Y-108078842D01*
X117300500Y-107921158D01*
X117300500Y-107921155D01*
X117300499Y-107921153D01*
X117273296Y-107784397D01*
X117269737Y-107766503D01*
X117241033Y-107697204D01*
X117208842Y-107619487D01*
X117201373Y-107550018D01*
X117232648Y-107487539D01*
X117275950Y-107457474D01*
X117436283Y-107391062D01*
X117600969Y-107281023D01*
X117741023Y-107140969D01*
X117851062Y-106976283D01*
X117926859Y-106793293D01*
X117965500Y-106599033D01*
X117965500Y-106400967D01*
X117965500Y-106400964D01*
X117965499Y-106400962D01*
X118494500Y-106400962D01*
X118494500Y-106599037D01*
X118532607Y-106790609D01*
X118533141Y-106793293D01*
X118608938Y-106976283D01*
X118622215Y-106996153D01*
X118718978Y-107140971D01*
X118859028Y-107281021D01*
X118859031Y-107281023D01*
X119023717Y-107391062D01*
X119206707Y-107466859D01*
X119336261Y-107492629D01*
X119400962Y-107505499D01*
X119400965Y-107505500D01*
X119400967Y-107505500D01*
X119599035Y-107505500D01*
X119599036Y-107505499D01*
X119793293Y-107466859D01*
X119903637Y-107421153D01*
X125199500Y-107421153D01*
X125199500Y-107578846D01*
X125230261Y-107733489D01*
X125230264Y-107733501D01*
X125290602Y-107879172D01*
X125290609Y-107879185D01*
X125378210Y-108010288D01*
X125378213Y-108010292D01*
X125489707Y-108121786D01*
X125489711Y-108121789D01*
X125620814Y-108209390D01*
X125620827Y-108209397D01*
X125694013Y-108239711D01*
X125766503Y-108269737D01*
X125921153Y-108300499D01*
X125921156Y-108300500D01*
X125921158Y-108300500D01*
X126078844Y-108300500D01*
X126078845Y-108300499D01*
X126233497Y-108269737D01*
X126379179Y-108209394D01*
X126510289Y-108121789D01*
X126621789Y-108010289D01*
X126709394Y-107879179D01*
X126769737Y-107733497D01*
X126800500Y-107578842D01*
X126800500Y-107421158D01*
X126800500Y-107421155D01*
X126800499Y-107421153D01*
X128149500Y-107421153D01*
X128149500Y-107578846D01*
X128180261Y-107733489D01*
X128180264Y-107733501D01*
X128240602Y-107879172D01*
X128240609Y-107879185D01*
X128328210Y-108010288D01*
X128328213Y-108010292D01*
X128439707Y-108121786D01*
X128439711Y-108121789D01*
X128570814Y-108209390D01*
X128570827Y-108209397D01*
X128644013Y-108239711D01*
X128716503Y-108269737D01*
X128871153Y-108300499D01*
X128871156Y-108300500D01*
X128871158Y-108300500D01*
X129028844Y-108300500D01*
X129028845Y-108300499D01*
X129183497Y-108269737D01*
X129329179Y-108209394D01*
X129460289Y-108121789D01*
X129571789Y-108010289D01*
X129659394Y-107879179D01*
X129719737Y-107733497D01*
X129750500Y-107578842D01*
X129750500Y-107421158D01*
X129750500Y-107421155D01*
X129750499Y-107421153D01*
X129736246Y-107349500D01*
X129719737Y-107266503D01*
X129719735Y-107266498D01*
X129659397Y-107120827D01*
X129659390Y-107120814D01*
X129618058Y-107058957D01*
X129576093Y-106996153D01*
X138199500Y-106996153D01*
X138199500Y-107153846D01*
X138230261Y-107308489D01*
X138230264Y-107308501D01*
X138290602Y-107454172D01*
X138290609Y-107454185D01*
X138378210Y-107585288D01*
X138378213Y-107585292D01*
X138489707Y-107696786D01*
X138489711Y-107696789D01*
X138620814Y-107784390D01*
X138620827Y-107784397D01*
X138766498Y-107844735D01*
X138766503Y-107844737D01*
X138921153Y-107875499D01*
X138921156Y-107875500D01*
X138921158Y-107875500D01*
X139078844Y-107875500D01*
X139078845Y-107875499D01*
X139233497Y-107844737D01*
X139341541Y-107799984D01*
X144099500Y-107799984D01*
X144099500Y-110200015D01*
X144110000Y-110302795D01*
X144110001Y-110302796D01*
X144165186Y-110469335D01*
X144165187Y-110469337D01*
X144257286Y-110618651D01*
X144257289Y-110618655D01*
X144381344Y-110742710D01*
X144381348Y-110742713D01*
X144530662Y-110834812D01*
X144530664Y-110834813D01*
X144530666Y-110834814D01*
X144697203Y-110889999D01*
X144799992Y-110900500D01*
X144799997Y-110900500D01*
X147200003Y-110900500D01*
X147200008Y-110900500D01*
X147302797Y-110889999D01*
X147469334Y-110834814D01*
X147618655Y-110742711D01*
X147742711Y-110618655D01*
X147834814Y-110469334D01*
X147889999Y-110302797D01*
X147900500Y-110200008D01*
X147900500Y-107799992D01*
X147889999Y-107697203D01*
X147834814Y-107530666D01*
X147819291Y-107505500D01*
X147742713Y-107381348D01*
X147742710Y-107381344D01*
X147618655Y-107257289D01*
X147618651Y-107257286D01*
X147469337Y-107165187D01*
X147469335Y-107165186D01*
X147386065Y-107137593D01*
X147302797Y-107110001D01*
X147302795Y-107110000D01*
X147200015Y-107099500D01*
X147200008Y-107099500D01*
X144799992Y-107099500D01*
X144799984Y-107099500D01*
X144697204Y-107110000D01*
X144697203Y-107110001D01*
X144530664Y-107165186D01*
X144530662Y-107165187D01*
X144381348Y-107257286D01*
X144381344Y-107257289D01*
X144257289Y-107381344D01*
X144257286Y-107381348D01*
X144165187Y-107530662D01*
X144165186Y-107530664D01*
X144110001Y-107697203D01*
X144110000Y-107697204D01*
X144099500Y-107799984D01*
X139341541Y-107799984D01*
X139379179Y-107784394D01*
X139510289Y-107696789D01*
X139621789Y-107585289D01*
X139709394Y-107454179D01*
X139769737Y-107308497D01*
X139800500Y-107153842D01*
X139800500Y-106996158D01*
X139800500Y-106996155D01*
X139800499Y-106996153D01*
X139777039Y-106878213D01*
X139769737Y-106841503D01*
X139748655Y-106790606D01*
X139709397Y-106695827D01*
X139709390Y-106695814D01*
X139621789Y-106564711D01*
X139621786Y-106564707D01*
X139510292Y-106453213D01*
X139510288Y-106453210D01*
X139379185Y-106365609D01*
X139379172Y-106365602D01*
X139233501Y-106305264D01*
X139233489Y-106305261D01*
X139078845Y-106274500D01*
X139078842Y-106274500D01*
X138921158Y-106274500D01*
X138921155Y-106274500D01*
X138766510Y-106305261D01*
X138766498Y-106305264D01*
X138620827Y-106365602D01*
X138620814Y-106365609D01*
X138489711Y-106453210D01*
X138489707Y-106453213D01*
X138378213Y-106564707D01*
X138378210Y-106564711D01*
X138290609Y-106695814D01*
X138290602Y-106695827D01*
X138230264Y-106841498D01*
X138230261Y-106841510D01*
X138199500Y-106996153D01*
X129576093Y-106996153D01*
X129571789Y-106989711D01*
X129571786Y-106989707D01*
X129460292Y-106878213D01*
X129460287Y-106878209D01*
X129329185Y-106790609D01*
X129329172Y-106790602D01*
X129183501Y-106730264D01*
X129183489Y-106730261D01*
X129028845Y-106699500D01*
X129028842Y-106699500D01*
X128871158Y-106699500D01*
X128871155Y-106699500D01*
X128716510Y-106730261D01*
X128716498Y-106730264D01*
X128570827Y-106790602D01*
X128570814Y-106790609D01*
X128439713Y-106878209D01*
X128439707Y-106878213D01*
X128328213Y-106989707D01*
X128328210Y-106989711D01*
X128240609Y-107120814D01*
X128240602Y-107120827D01*
X128180264Y-107266498D01*
X128180261Y-107266510D01*
X128149500Y-107421153D01*
X126800499Y-107421153D01*
X126786246Y-107349500D01*
X126769737Y-107266503D01*
X126769735Y-107266498D01*
X126709397Y-107120827D01*
X126709390Y-107120814D01*
X126621789Y-106989711D01*
X126621786Y-106989707D01*
X126510292Y-106878213D01*
X126510287Y-106878209D01*
X126379185Y-106790609D01*
X126379172Y-106790602D01*
X126233501Y-106730264D01*
X126233489Y-106730261D01*
X126078845Y-106699500D01*
X126078842Y-106699500D01*
X125921158Y-106699500D01*
X125921155Y-106699500D01*
X125766510Y-106730261D01*
X125766498Y-106730264D01*
X125620827Y-106790602D01*
X125620814Y-106790609D01*
X125489713Y-106878209D01*
X125489707Y-106878213D01*
X125378213Y-106989707D01*
X125378210Y-106989711D01*
X125290609Y-107120814D01*
X125290602Y-107120827D01*
X125230264Y-107266498D01*
X125230261Y-107266510D01*
X125199500Y-107421153D01*
X119903637Y-107421153D01*
X119976283Y-107391062D01*
X120140969Y-107281023D01*
X120281023Y-107140969D01*
X120391062Y-106976283D01*
X120466859Y-106793293D01*
X120505500Y-106599033D01*
X120505500Y-106425585D01*
X121284500Y-106425585D01*
X121284500Y-106574414D01*
X121313530Y-106720363D01*
X121313533Y-106720372D01*
X121370480Y-106857857D01*
X121370487Y-106857870D01*
X121453163Y-106981602D01*
X121453166Y-106981606D01*
X121558393Y-107086833D01*
X121558397Y-107086836D01*
X121682129Y-107169512D01*
X121682142Y-107169519D01*
X121778401Y-107209390D01*
X121819629Y-107226467D01*
X121819631Y-107226467D01*
X121819636Y-107226469D01*
X121965585Y-107255499D01*
X121965589Y-107255500D01*
X121965590Y-107255500D01*
X122114411Y-107255500D01*
X122114412Y-107255499D01*
X122163063Y-107245822D01*
X122260363Y-107226469D01*
X122260366Y-107226467D01*
X122260371Y-107226467D01*
X122397864Y-107169516D01*
X122521603Y-107086836D01*
X122626836Y-106981603D01*
X122709516Y-106857864D01*
X122766467Y-106720371D01*
X122770619Y-106699500D01*
X122790602Y-106599033D01*
X122795500Y-106574410D01*
X122795500Y-106425590D01*
X122783568Y-106365602D01*
X122766469Y-106279636D01*
X122766466Y-106279627D01*
X122764342Y-106274500D01*
X122736262Y-106206706D01*
X122709519Y-106142142D01*
X122709512Y-106142129D01*
X122626836Y-106018397D01*
X122626833Y-106018393D01*
X122521606Y-105913166D01*
X122521602Y-105913163D01*
X122397870Y-105830487D01*
X122397857Y-105830480D01*
X122260372Y-105773533D01*
X122260363Y-105773530D01*
X122114414Y-105744500D01*
X122114410Y-105744500D01*
X121965590Y-105744500D01*
X121965585Y-105744500D01*
X121819636Y-105773530D01*
X121819627Y-105773533D01*
X121682142Y-105830480D01*
X121682129Y-105830487D01*
X121558397Y-105913163D01*
X121558393Y-105913166D01*
X121453166Y-106018393D01*
X121453163Y-106018397D01*
X121370487Y-106142129D01*
X121370480Y-106142142D01*
X121313533Y-106279627D01*
X121313530Y-106279636D01*
X121284500Y-106425585D01*
X120505500Y-106425585D01*
X120505500Y-106400967D01*
X120505500Y-106400964D01*
X120505499Y-106400962D01*
X120486463Y-106305261D01*
X120466859Y-106206707D01*
X120391062Y-106023717D01*
X120281023Y-105859031D01*
X120281021Y-105859028D01*
X120140971Y-105718978D01*
X119995516Y-105621789D01*
X119976283Y-105608938D01*
X119915109Y-105583599D01*
X119793293Y-105533141D01*
X119793285Y-105533139D01*
X119599036Y-105494500D01*
X119599033Y-105494500D01*
X119400967Y-105494500D01*
X119400964Y-105494500D01*
X119206714Y-105533139D01*
X119206706Y-105533141D01*
X119023718Y-105608937D01*
X118859028Y-105718978D01*
X118718978Y-105859028D01*
X118608937Y-106023718D01*
X118533141Y-106206706D01*
X118533139Y-106206714D01*
X118494500Y-106400962D01*
X117965499Y-106400962D01*
X117946463Y-106305261D01*
X117926859Y-106206707D01*
X117851062Y-106023717D01*
X117741023Y-105859031D01*
X117741021Y-105859028D01*
X117600971Y-105718978D01*
X117455516Y-105621789D01*
X117436283Y-105608938D01*
X117375109Y-105583599D01*
X117253293Y-105533141D01*
X117253285Y-105533139D01*
X117059036Y-105494500D01*
X117059033Y-105494500D01*
X116860967Y-105494500D01*
X116860964Y-105494500D01*
X116666714Y-105533139D01*
X116666706Y-105533141D01*
X116483718Y-105608937D01*
X116319028Y-105718978D01*
X116178978Y-105859028D01*
X116068937Y-106023718D01*
X115993141Y-106206706D01*
X115993139Y-106206714D01*
X115954500Y-106400962D01*
X115954500Y-106599037D01*
X115993139Y-106793285D01*
X115993141Y-106793293D01*
X116068938Y-106976285D01*
X116161335Y-107114567D01*
X116182213Y-107181244D01*
X116163728Y-107248624D01*
X116124637Y-107285352D01*
X116125886Y-107287221D01*
X115989711Y-107378210D01*
X115989707Y-107378213D01*
X115878213Y-107489707D01*
X115878210Y-107489711D01*
X115790609Y-107620814D01*
X115790602Y-107620827D01*
X115730264Y-107766498D01*
X115730261Y-107766510D01*
X115699500Y-107921153D01*
X106348867Y-107921153D01*
X106302314Y-107780666D01*
X106293582Y-107766510D01*
X106210213Y-107631348D01*
X106210210Y-107631344D01*
X106086155Y-107507289D01*
X106086151Y-107507286D01*
X105936837Y-107415187D01*
X105936835Y-107415186D01*
X105825248Y-107378210D01*
X105770297Y-107360001D01*
X105770295Y-107360000D01*
X105667515Y-107349500D01*
X105667508Y-107349500D01*
X103267492Y-107349500D01*
X103267484Y-107349500D01*
X103164704Y-107360000D01*
X103164703Y-107360001D01*
X102998164Y-107415186D01*
X102998162Y-107415187D01*
X102848848Y-107507286D01*
X102848844Y-107507289D01*
X102724789Y-107631344D01*
X102724786Y-107631348D01*
X102632687Y-107780662D01*
X102632686Y-107780664D01*
X102577501Y-107947203D01*
X102577500Y-107947204D01*
X102567000Y-108049984D01*
X100500500Y-108049984D01*
X100500500Y-106421153D01*
X112199500Y-106421153D01*
X112199500Y-106578846D01*
X112230261Y-106733489D01*
X112230264Y-106733501D01*
X112290602Y-106879172D01*
X112290609Y-106879185D01*
X112378210Y-107010288D01*
X112378213Y-107010292D01*
X112489707Y-107121786D01*
X112489711Y-107121789D01*
X112620814Y-107209390D01*
X112620827Y-107209397D01*
X112758683Y-107266498D01*
X112766503Y-107269737D01*
X112871418Y-107290606D01*
X112921153Y-107300499D01*
X112921156Y-107300500D01*
X112921158Y-107300500D01*
X113078844Y-107300500D01*
X113078845Y-107300499D01*
X113233497Y-107269737D01*
X113379179Y-107209394D01*
X113510289Y-107121789D01*
X113621789Y-107010289D01*
X113709394Y-106879179D01*
X113769737Y-106733497D01*
X113800500Y-106578842D01*
X113800500Y-106421158D01*
X113800500Y-106421155D01*
X113800499Y-106421153D01*
X113796483Y-106400962D01*
X113769737Y-106266503D01*
X113744969Y-106206707D01*
X113709397Y-106120827D01*
X113709390Y-106120814D01*
X113621789Y-105989711D01*
X113621786Y-105989707D01*
X113510292Y-105878213D01*
X113510288Y-105878210D01*
X113379185Y-105790609D01*
X113379172Y-105790602D01*
X113233501Y-105730264D01*
X113233489Y-105730261D01*
X113078845Y-105699500D01*
X113078842Y-105699500D01*
X112921158Y-105699500D01*
X112921155Y-105699500D01*
X112766510Y-105730261D01*
X112766498Y-105730264D01*
X112620827Y-105790602D01*
X112620814Y-105790609D01*
X112489711Y-105878210D01*
X112489707Y-105878213D01*
X112378213Y-105989707D01*
X112378210Y-105989711D01*
X112290609Y-106120814D01*
X112290602Y-106120827D01*
X112230264Y-106266498D01*
X112230261Y-106266510D01*
X112199500Y-106421153D01*
X100500500Y-106421153D01*
X100500500Y-104125441D01*
X102567000Y-104125441D01*
X102567000Y-104374558D01*
X102567001Y-104374575D01*
X102599517Y-104621561D01*
X102663998Y-104862207D01*
X102759330Y-105092361D01*
X102759337Y-105092376D01*
X102883900Y-105308126D01*
X103035560Y-105505774D01*
X103035566Y-105505781D01*
X103211718Y-105681933D01*
X103211725Y-105681939D01*
X103409373Y-105833599D01*
X103625123Y-105958162D01*
X103625138Y-105958169D01*
X103701278Y-105989707D01*
X103855293Y-106053502D01*
X104095935Y-106117982D01*
X104342935Y-106150500D01*
X104342942Y-106150500D01*
X104592058Y-106150500D01*
X104592065Y-106150500D01*
X104839065Y-106117982D01*
X105079707Y-106053502D01*
X105309873Y-105958164D01*
X105525627Y-105833599D01*
X105723276Y-105681938D01*
X105899438Y-105505776D01*
X106051099Y-105308127D01*
X106175664Y-105092373D01*
X106246586Y-104921153D01*
X133749500Y-104921153D01*
X133749500Y-105078846D01*
X133780261Y-105233489D01*
X133780264Y-105233501D01*
X133840602Y-105379172D01*
X133840609Y-105379185D01*
X133928210Y-105510288D01*
X133928213Y-105510292D01*
X134039707Y-105621786D01*
X134039711Y-105621789D01*
X134170814Y-105709390D01*
X134170827Y-105709397D01*
X134316498Y-105769735D01*
X134316503Y-105769737D01*
X134471153Y-105800499D01*
X134471156Y-105800500D01*
X134471158Y-105800500D01*
X134628844Y-105800500D01*
X134628845Y-105800499D01*
X134783497Y-105769737D01*
X134929179Y-105709394D01*
X135060289Y-105621789D01*
X135171789Y-105510289D01*
X135259394Y-105379179D01*
X135319737Y-105233497D01*
X135350500Y-105078842D01*
X135350500Y-104921158D01*
X135350500Y-104921155D01*
X135350499Y-104921153D01*
X135334829Y-104842376D01*
X135319737Y-104766503D01*
X135319735Y-104766498D01*
X135259397Y-104620827D01*
X135259390Y-104620814D01*
X135171789Y-104489711D01*
X135171786Y-104489707D01*
X135060292Y-104378213D01*
X135060288Y-104378210D01*
X134929185Y-104290609D01*
X134929172Y-104290602D01*
X134783501Y-104230264D01*
X134783489Y-104230261D01*
X134628845Y-104199500D01*
X134628842Y-104199500D01*
X134471158Y-104199500D01*
X134471155Y-104199500D01*
X134316510Y-104230261D01*
X134316498Y-104230264D01*
X134170827Y-104290602D01*
X134170814Y-104290609D01*
X134039711Y-104378210D01*
X134039707Y-104378213D01*
X133928213Y-104489707D01*
X133928210Y-104489711D01*
X133840609Y-104620814D01*
X133840602Y-104620827D01*
X133780264Y-104766498D01*
X133780261Y-104766510D01*
X133749500Y-104921153D01*
X106246586Y-104921153D01*
X106271002Y-104862207D01*
X106335482Y-104621565D01*
X106368000Y-104374565D01*
X106368000Y-104125435D01*
X106335482Y-103878435D01*
X106271002Y-103637793D01*
X106181269Y-103421158D01*
X106181267Y-103421153D01*
X108699500Y-103421153D01*
X108699500Y-103578846D01*
X108730261Y-103733489D01*
X108730264Y-103733501D01*
X108790602Y-103879172D01*
X108790609Y-103879185D01*
X108878210Y-104010288D01*
X108878213Y-104010292D01*
X108989707Y-104121786D01*
X108989711Y-104121789D01*
X109120814Y-104209390D01*
X109120827Y-104209397D01*
X109266498Y-104269735D01*
X109266503Y-104269737D01*
X109421153Y-104300499D01*
X109421156Y-104300500D01*
X109421158Y-104300500D01*
X109578844Y-104300500D01*
X109578845Y-104300499D01*
X109733497Y-104269737D01*
X109879179Y-104209394D01*
X110010289Y-104121789D01*
X110121789Y-104010289D01*
X110209394Y-103879179D01*
X110210942Y-103875441D01*
X144099500Y-103875441D01*
X144099500Y-104124558D01*
X144099501Y-104124575D01*
X144132017Y-104371561D01*
X144196498Y-104612207D01*
X144291830Y-104842361D01*
X144291837Y-104842376D01*
X144416400Y-105058126D01*
X144568060Y-105255774D01*
X144568066Y-105255781D01*
X144744218Y-105431933D01*
X144744225Y-105431939D01*
X144941873Y-105583599D01*
X145157623Y-105708162D01*
X145157638Y-105708169D01*
X145210981Y-105730264D01*
X145387793Y-105803502D01*
X145628435Y-105867982D01*
X145875435Y-105900500D01*
X145875442Y-105900500D01*
X146124558Y-105900500D01*
X146124565Y-105900500D01*
X146371565Y-105867982D01*
X146612207Y-105803502D01*
X146842373Y-105708164D01*
X147058127Y-105583599D01*
X147255776Y-105431938D01*
X147431938Y-105255776D01*
X147583599Y-105058127D01*
X147708164Y-104842373D01*
X147803502Y-104612207D01*
X147867982Y-104371565D01*
X147900500Y-104124565D01*
X147900500Y-103875435D01*
X147867982Y-103628435D01*
X147803502Y-103387793D01*
X147708164Y-103157627D01*
X147583599Y-102941873D01*
X147488594Y-102818060D01*
X147431939Y-102744225D01*
X147431933Y-102744218D01*
X147255781Y-102568066D01*
X147255774Y-102568060D01*
X147058126Y-102416400D01*
X146842376Y-102291837D01*
X146842361Y-102291830D01*
X146612207Y-102196498D01*
X146371561Y-102132017D01*
X146124575Y-102099501D01*
X146124570Y-102099500D01*
X146124565Y-102099500D01*
X145875435Y-102099500D01*
X145875429Y-102099500D01*
X145875424Y-102099501D01*
X145628438Y-102132017D01*
X145387792Y-102196498D01*
X145157638Y-102291830D01*
X145157623Y-102291837D01*
X144941873Y-102416400D01*
X144744225Y-102568060D01*
X144744218Y-102568066D01*
X144568066Y-102744218D01*
X144568060Y-102744225D01*
X144416400Y-102941873D01*
X144291837Y-103157623D01*
X144291830Y-103157638D01*
X144196498Y-103387792D01*
X144132017Y-103628438D01*
X144099501Y-103875424D01*
X144099500Y-103875441D01*
X110210942Y-103875441D01*
X110269737Y-103733497D01*
X110300500Y-103578842D01*
X110300500Y-103421158D01*
X110300500Y-103421155D01*
X110300499Y-103421153D01*
X110269738Y-103266510D01*
X110269737Y-103266503D01*
X110269735Y-103266498D01*
X110209397Y-103120827D01*
X110209390Y-103120814D01*
X110121789Y-102989711D01*
X110121786Y-102989707D01*
X110010292Y-102878213D01*
X110010288Y-102878210D01*
X109879185Y-102790609D01*
X109879172Y-102790602D01*
X109733501Y-102730264D01*
X109733489Y-102730261D01*
X109578845Y-102699500D01*
X109578842Y-102699500D01*
X109421158Y-102699500D01*
X109421155Y-102699500D01*
X109266510Y-102730261D01*
X109266498Y-102730264D01*
X109120827Y-102790602D01*
X109120814Y-102790609D01*
X108989711Y-102878210D01*
X108989707Y-102878213D01*
X108878213Y-102989707D01*
X108878210Y-102989711D01*
X108790609Y-103120814D01*
X108790602Y-103120827D01*
X108730264Y-103266498D01*
X108730261Y-103266510D01*
X108699500Y-103421153D01*
X106181267Y-103421153D01*
X106175669Y-103407638D01*
X106175662Y-103407623D01*
X106051099Y-103191873D01*
X105899439Y-102994225D01*
X105899433Y-102994218D01*
X105723281Y-102818066D01*
X105723274Y-102818060D01*
X105525626Y-102666400D01*
X105309876Y-102541837D01*
X105309861Y-102541830D01*
X105079707Y-102446498D01*
X104839061Y-102382017D01*
X104592075Y-102349501D01*
X104592070Y-102349500D01*
X104592065Y-102349500D01*
X104342935Y-102349500D01*
X104342929Y-102349500D01*
X104342924Y-102349501D01*
X104095938Y-102382017D01*
X103855292Y-102446498D01*
X103625138Y-102541830D01*
X103625123Y-102541837D01*
X103409373Y-102666400D01*
X103211725Y-102818060D01*
X103211718Y-102818066D01*
X103035566Y-102994218D01*
X103035560Y-102994225D01*
X102883900Y-103191873D01*
X102759337Y-103407623D01*
X102759330Y-103407638D01*
X102663998Y-103637792D01*
X102599517Y-103878438D01*
X102567001Y-104125424D01*
X102567000Y-104125441D01*
X100500500Y-104125441D01*
X100500500Y-99921153D01*
X114199500Y-99921153D01*
X114199500Y-100078846D01*
X114230261Y-100233489D01*
X114230264Y-100233501D01*
X114290602Y-100379172D01*
X114290609Y-100379185D01*
X114378210Y-100510288D01*
X114378213Y-100510292D01*
X114489707Y-100621786D01*
X114489711Y-100621789D01*
X114620814Y-100709390D01*
X114620827Y-100709397D01*
X114766498Y-100769735D01*
X114766503Y-100769737D01*
X114921153Y-100800499D01*
X114921156Y-100800500D01*
X114921158Y-100800500D01*
X115078844Y-100800500D01*
X115078845Y-100800499D01*
X115233497Y-100769737D01*
X115379179Y-100709394D01*
X115510289Y-100621789D01*
X115621789Y-100510289D01*
X115709394Y-100379179D01*
X115769737Y-100233497D01*
X115800500Y-100078842D01*
X115800500Y-99921158D01*
X115800500Y-99921155D01*
X115800499Y-99921153D01*
X115784829Y-99842376D01*
X115769737Y-99766503D01*
X115746080Y-99709390D01*
X115709397Y-99620827D01*
X115709390Y-99620814D01*
X115621789Y-99489711D01*
X115621786Y-99489707D01*
X115510292Y-99378213D01*
X115510288Y-99378210D01*
X115379185Y-99290609D01*
X115379172Y-99290602D01*
X115233501Y-99230264D01*
X115233489Y-99230261D01*
X115078845Y-99199500D01*
X115078842Y-99199500D01*
X114921158Y-99199500D01*
X114921155Y-99199500D01*
X114766510Y-99230261D01*
X114766498Y-99230264D01*
X114620827Y-99290602D01*
X114620814Y-99290609D01*
X114489711Y-99378210D01*
X114489707Y-99378213D01*
X114378213Y-99489707D01*
X114378210Y-99489711D01*
X114290609Y-99620814D01*
X114290602Y-99620827D01*
X114230264Y-99766498D01*
X114230261Y-99766510D01*
X114199500Y-99921153D01*
X100500500Y-99921153D01*
X100500500Y-96549984D01*
X102567000Y-96549984D01*
X102567000Y-98950015D01*
X102577500Y-99052795D01*
X102577501Y-99052797D01*
X102586132Y-99078844D01*
X102632686Y-99219335D01*
X102632687Y-99219337D01*
X102724786Y-99368651D01*
X102724789Y-99368655D01*
X102848844Y-99492710D01*
X102848848Y-99492713D01*
X102998162Y-99584812D01*
X102998164Y-99584813D01*
X102998166Y-99584814D01*
X103164703Y-99639999D01*
X103267492Y-99650500D01*
X103267497Y-99650500D01*
X105667503Y-99650500D01*
X105667508Y-99650500D01*
X105770297Y-99639999D01*
X105936834Y-99584814D01*
X106086155Y-99492711D01*
X106210211Y-99368655D01*
X106302314Y-99219334D01*
X106357499Y-99052797D01*
X106368000Y-98950008D01*
X106368000Y-98921153D01*
X121199500Y-98921153D01*
X121199500Y-99078846D01*
X121230261Y-99233489D01*
X121230264Y-99233501D01*
X121290602Y-99379172D01*
X121290609Y-99379185D01*
X121378210Y-99510288D01*
X121378213Y-99510292D01*
X121489707Y-99621786D01*
X121489711Y-99621789D01*
X121620814Y-99709390D01*
X121620827Y-99709397D01*
X121758683Y-99766498D01*
X121766503Y-99769737D01*
X121921153Y-99800499D01*
X121921156Y-99800500D01*
X121921158Y-99800500D01*
X122078844Y-99800500D01*
X122078845Y-99800499D01*
X122233497Y-99769737D01*
X122379179Y-99709394D01*
X122510289Y-99621789D01*
X122621789Y-99510289D01*
X122709394Y-99379179D01*
X122712550Y-99371561D01*
X122723067Y-99346166D01*
X122769737Y-99233497D01*
X122800500Y-99078842D01*
X122800500Y-98921158D01*
X122800500Y-98921155D01*
X122795410Y-98895568D01*
X122795410Y-98895567D01*
X122791407Y-98875441D01*
X144099500Y-98875441D01*
X144099500Y-99124558D01*
X144099501Y-99124575D01*
X144132017Y-99371561D01*
X144196498Y-99612207D01*
X144291830Y-99842361D01*
X144291837Y-99842376D01*
X144416400Y-100058126D01*
X144568060Y-100255774D01*
X144568066Y-100255781D01*
X144744218Y-100431933D01*
X144744225Y-100431939D01*
X144941873Y-100583599D01*
X145157623Y-100708162D01*
X145157638Y-100708169D01*
X145256825Y-100749253D01*
X145387793Y-100803502D01*
X145628435Y-100867982D01*
X145875435Y-100900500D01*
X145875442Y-100900500D01*
X146124558Y-100900500D01*
X146124565Y-100900500D01*
X146371565Y-100867982D01*
X146612207Y-100803502D01*
X146842373Y-100708164D01*
X147058127Y-100583599D01*
X147255776Y-100431938D01*
X147431938Y-100255776D01*
X147583599Y-100058127D01*
X147708164Y-99842373D01*
X147803502Y-99612207D01*
X147867982Y-99371565D01*
X147900500Y-99124565D01*
X147900500Y-98875435D01*
X147867982Y-98628435D01*
X147803502Y-98387793D01*
X147738250Y-98230261D01*
X147708169Y-98157638D01*
X147708162Y-98157623D01*
X147583599Y-97941873D01*
X147431939Y-97744225D01*
X147431933Y-97744218D01*
X147255781Y-97568066D01*
X147255774Y-97568060D01*
X147058126Y-97416400D01*
X146842376Y-97291837D01*
X146842361Y-97291830D01*
X146612207Y-97196498D01*
X146481604Y-97161503D01*
X146371565Y-97132018D01*
X146371564Y-97132017D01*
X146371561Y-97132017D01*
X146124575Y-97099501D01*
X146124570Y-97099500D01*
X146124565Y-97099500D01*
X145875435Y-97099500D01*
X145875429Y-97099500D01*
X145875424Y-97099501D01*
X145628438Y-97132017D01*
X145387792Y-97196498D01*
X145157638Y-97291830D01*
X145157623Y-97291837D01*
X144941873Y-97416400D01*
X144744225Y-97568060D01*
X144744218Y-97568066D01*
X144568066Y-97744218D01*
X144568060Y-97744225D01*
X144416400Y-97941873D01*
X144291837Y-98157623D01*
X144291830Y-98157638D01*
X144196498Y-98387792D01*
X144132017Y-98628438D01*
X144099501Y-98875424D01*
X144099500Y-98875441D01*
X122791407Y-98875441D01*
X122769738Y-98766510D01*
X122769737Y-98766503D01*
X122769735Y-98766498D01*
X122709397Y-98620827D01*
X122709390Y-98620814D01*
X122621789Y-98489711D01*
X122621786Y-98489707D01*
X122510292Y-98378213D01*
X122510288Y-98378210D01*
X122379185Y-98290609D01*
X122379172Y-98290602D01*
X122233501Y-98230264D01*
X122233489Y-98230261D01*
X122078845Y-98199500D01*
X122078842Y-98199500D01*
X121921158Y-98199500D01*
X121921155Y-98199500D01*
X121766510Y-98230261D01*
X121766498Y-98230264D01*
X121620827Y-98290602D01*
X121620814Y-98290609D01*
X121489711Y-98378210D01*
X121489707Y-98378213D01*
X121378213Y-98489707D01*
X121378210Y-98489711D01*
X121290609Y-98620814D01*
X121290602Y-98620827D01*
X121230264Y-98766498D01*
X121230261Y-98766510D01*
X121199500Y-98921153D01*
X106368000Y-98921153D01*
X106368000Y-96921153D01*
X117199500Y-96921153D01*
X117199500Y-97078846D01*
X117230261Y-97233489D01*
X117230264Y-97233501D01*
X117290602Y-97379172D01*
X117290609Y-97379185D01*
X117378210Y-97510288D01*
X117378213Y-97510292D01*
X117489707Y-97621786D01*
X117489711Y-97621789D01*
X117620814Y-97709390D01*
X117620827Y-97709397D01*
X117766498Y-97769735D01*
X117766503Y-97769737D01*
X117921153Y-97800499D01*
X117921156Y-97800500D01*
X117921158Y-97800500D01*
X118078844Y-97800500D01*
X118078845Y-97800499D01*
X118233497Y-97769737D01*
X118379179Y-97709394D01*
X118510289Y-97621789D01*
X118621789Y-97510289D01*
X118709394Y-97379179D01*
X118735500Y-97316153D01*
X127524500Y-97316153D01*
X127524500Y-97473846D01*
X127555261Y-97628489D01*
X127555264Y-97628501D01*
X127615602Y-97774172D01*
X127615609Y-97774185D01*
X127703210Y-97905288D01*
X127703213Y-97905292D01*
X127814707Y-98016786D01*
X127814711Y-98016789D01*
X127945814Y-98104390D01*
X127945827Y-98104397D01*
X128074328Y-98157623D01*
X128091503Y-98164737D01*
X128246153Y-98195499D01*
X128246156Y-98195500D01*
X128246158Y-98195500D01*
X128403844Y-98195500D01*
X128403845Y-98195499D01*
X128558497Y-98164737D01*
X128704179Y-98104394D01*
X128835289Y-98016789D01*
X128946789Y-97905289D01*
X129034394Y-97774179D01*
X129094737Y-97628497D01*
X129125500Y-97473842D01*
X129125500Y-97316158D01*
X129125500Y-97316155D01*
X129125499Y-97316153D01*
X129109058Y-97233501D01*
X129094737Y-97161503D01*
X129060498Y-97078842D01*
X129034397Y-97015827D01*
X129034390Y-97015814D01*
X128946789Y-96884711D01*
X128946786Y-96884707D01*
X128835292Y-96773213D01*
X128835288Y-96773210D01*
X128704185Y-96685609D01*
X128704172Y-96685602D01*
X128558501Y-96625264D01*
X128558489Y-96625261D01*
X128403845Y-96594500D01*
X128403842Y-96594500D01*
X128246158Y-96594500D01*
X128246155Y-96594500D01*
X128091510Y-96625261D01*
X128091498Y-96625264D01*
X127945827Y-96685602D01*
X127945814Y-96685609D01*
X127814711Y-96773210D01*
X127814707Y-96773213D01*
X127703213Y-96884707D01*
X127703210Y-96884711D01*
X127615609Y-97015814D01*
X127615602Y-97015827D01*
X127555264Y-97161498D01*
X127555261Y-97161510D01*
X127524500Y-97316153D01*
X118735500Y-97316153D01*
X118745572Y-97291837D01*
X118757674Y-97262621D01*
X118757676Y-97262614D01*
X118769737Y-97233497D01*
X118800500Y-97078842D01*
X118800500Y-96921158D01*
X118800500Y-96921155D01*
X118800499Y-96921153D01*
X118792148Y-96879172D01*
X118769737Y-96766503D01*
X118734004Y-96680235D01*
X118709397Y-96620827D01*
X118709390Y-96620814D01*
X118621790Y-96489712D01*
X118621784Y-96489705D01*
X118553232Y-96421153D01*
X137699500Y-96421153D01*
X137699500Y-96578846D01*
X137730261Y-96733489D01*
X137730264Y-96733501D01*
X137790602Y-96879172D01*
X137790609Y-96879185D01*
X137878210Y-97010288D01*
X137878213Y-97010292D01*
X137989707Y-97121786D01*
X137989711Y-97121789D01*
X138120814Y-97209390D01*
X138120827Y-97209397D01*
X138249306Y-97262614D01*
X138266503Y-97269737D01*
X138421153Y-97300499D01*
X138421156Y-97300500D01*
X138421158Y-97300500D01*
X138578844Y-97300500D01*
X138578845Y-97300499D01*
X138733497Y-97269737D01*
X138879179Y-97209394D01*
X139010289Y-97121789D01*
X139121789Y-97010289D01*
X139209394Y-96879179D01*
X139269737Y-96733497D01*
X139300500Y-96578842D01*
X139300500Y-96421158D01*
X139300500Y-96421155D01*
X139300499Y-96421153D01*
X139274531Y-96290606D01*
X139269737Y-96266503D01*
X139269735Y-96266498D01*
X139209397Y-96120827D01*
X139209390Y-96120814D01*
X139121789Y-95989711D01*
X139121786Y-95989707D01*
X139010292Y-95878213D01*
X139010288Y-95878210D01*
X138879185Y-95790609D01*
X138879172Y-95790602D01*
X138733501Y-95730264D01*
X138733489Y-95730261D01*
X138578845Y-95699500D01*
X138578842Y-95699500D01*
X138421158Y-95699500D01*
X138421155Y-95699500D01*
X138266510Y-95730261D01*
X138266498Y-95730264D01*
X138120827Y-95790602D01*
X138120814Y-95790609D01*
X137989711Y-95878210D01*
X137989707Y-95878213D01*
X137878213Y-95989707D01*
X137878210Y-95989711D01*
X137790609Y-96120814D01*
X137790602Y-96120827D01*
X137730264Y-96266498D01*
X137730261Y-96266510D01*
X137699500Y-96421153D01*
X118553232Y-96421153D01*
X118510292Y-96378213D01*
X118510288Y-96378210D01*
X118379185Y-96290609D01*
X118379172Y-96290602D01*
X118233501Y-96230264D01*
X118233489Y-96230261D01*
X118078845Y-96199500D01*
X118078842Y-96199500D01*
X117921158Y-96199500D01*
X117921155Y-96199500D01*
X117766510Y-96230261D01*
X117766498Y-96230264D01*
X117620827Y-96290602D01*
X117620814Y-96290609D01*
X117489711Y-96378210D01*
X117489707Y-96378213D01*
X117378213Y-96489707D01*
X117378210Y-96489711D01*
X117290609Y-96620814D01*
X117290602Y-96620827D01*
X117230264Y-96766498D01*
X117230261Y-96766510D01*
X117199500Y-96921153D01*
X106368000Y-96921153D01*
X106368000Y-96549992D01*
X106357499Y-96447203D01*
X106302314Y-96280666D01*
X106293582Y-96266510D01*
X106210213Y-96131348D01*
X106210210Y-96131344D01*
X106086155Y-96007289D01*
X106086151Y-96007286D01*
X105962645Y-95931105D01*
X105962643Y-95931105D01*
X105936834Y-95915186D01*
X105936833Y-95915185D01*
X105936832Y-95915185D01*
X105825248Y-95878210D01*
X105770297Y-95860001D01*
X105770295Y-95860000D01*
X105667515Y-95849500D01*
X105667508Y-95849500D01*
X103267492Y-95849500D01*
X103267484Y-95849500D01*
X103164704Y-95860000D01*
X103164703Y-95860001D01*
X102998164Y-95915186D01*
X102998162Y-95915187D01*
X102848848Y-96007286D01*
X102848844Y-96007289D01*
X102724789Y-96131344D01*
X102724786Y-96131348D01*
X102632687Y-96280662D01*
X102632686Y-96280664D01*
X102577501Y-96447203D01*
X102577500Y-96447204D01*
X102567000Y-96549984D01*
X100500500Y-96549984D01*
X100500500Y-95831653D01*
X111199500Y-95831653D01*
X111199500Y-95989346D01*
X111230261Y-96143989D01*
X111230264Y-96144001D01*
X111290602Y-96289672D01*
X111290609Y-96289685D01*
X111378210Y-96420788D01*
X111378213Y-96420792D01*
X111489707Y-96532286D01*
X111489711Y-96532289D01*
X111620814Y-96619890D01*
X111620827Y-96619897D01*
X111766498Y-96680235D01*
X111766503Y-96680237D01*
X111921153Y-96710999D01*
X111921156Y-96711000D01*
X111921158Y-96711000D01*
X112078844Y-96711000D01*
X112078845Y-96710999D01*
X112233497Y-96680237D01*
X112379179Y-96619894D01*
X112510289Y-96532289D01*
X112621789Y-96420789D01*
X112709394Y-96289679D01*
X112769737Y-96143997D01*
X112800500Y-95989342D01*
X112800500Y-95831658D01*
X112800500Y-95831655D01*
X112800499Y-95831653D01*
X112780331Y-95730263D01*
X112769737Y-95677003D01*
X112731048Y-95583599D01*
X112709397Y-95531327D01*
X112709390Y-95531314D01*
X112621789Y-95400211D01*
X112621786Y-95400207D01*
X112510292Y-95288713D01*
X112510288Y-95288710D01*
X112379185Y-95201109D01*
X112379172Y-95201102D01*
X112233501Y-95140764D01*
X112233489Y-95140761D01*
X112078845Y-95110000D01*
X112078842Y-95110000D01*
X111921158Y-95110000D01*
X111921155Y-95110000D01*
X111766510Y-95140761D01*
X111766498Y-95140764D01*
X111620827Y-95201102D01*
X111620814Y-95201109D01*
X111489711Y-95288710D01*
X111489707Y-95288713D01*
X111378213Y-95400207D01*
X111378210Y-95400211D01*
X111290609Y-95531314D01*
X111290602Y-95531327D01*
X111230264Y-95676998D01*
X111230261Y-95677010D01*
X111199500Y-95831653D01*
X100500500Y-95831653D01*
X100500500Y-92625441D01*
X102567000Y-92625441D01*
X102567000Y-92874558D01*
X102567001Y-92874575D01*
X102599517Y-93121561D01*
X102663998Y-93362207D01*
X102759330Y-93592361D01*
X102759337Y-93592376D01*
X102883900Y-93808126D01*
X103035560Y-94005774D01*
X103035566Y-94005781D01*
X103211718Y-94181933D01*
X103211725Y-94181939D01*
X103409373Y-94333599D01*
X103625123Y-94458162D01*
X103625138Y-94458169D01*
X103724325Y-94499253D01*
X103855293Y-94553502D01*
X104095935Y-94617982D01*
X104342935Y-94650500D01*
X104342942Y-94650500D01*
X104592058Y-94650500D01*
X104592065Y-94650500D01*
X104839065Y-94617982D01*
X105079707Y-94553502D01*
X105309873Y-94458164D01*
X105373978Y-94421153D01*
X136699500Y-94421153D01*
X136699500Y-94578846D01*
X136730261Y-94733489D01*
X136730264Y-94733501D01*
X136790602Y-94879172D01*
X136790609Y-94879185D01*
X136878210Y-95010288D01*
X136878213Y-95010292D01*
X136989707Y-95121786D01*
X136989711Y-95121789D01*
X137120814Y-95209390D01*
X137120827Y-95209397D01*
X137232810Y-95255781D01*
X137266503Y-95269737D01*
X137421153Y-95300499D01*
X137421156Y-95300500D01*
X137421158Y-95300500D01*
X137578844Y-95300500D01*
X137578845Y-95300499D01*
X137733497Y-95269737D01*
X137879179Y-95209394D01*
X138010289Y-95121789D01*
X138121789Y-95010289D01*
X138209394Y-94879179D01*
X138269737Y-94733497D01*
X138300500Y-94578842D01*
X138300500Y-94421158D01*
X138300500Y-94421155D01*
X138300499Y-94421153D01*
X138290634Y-94371561D01*
X138269737Y-94266503D01*
X138234710Y-94181939D01*
X138209397Y-94120827D01*
X138209390Y-94120814D01*
X138121789Y-93989711D01*
X138121786Y-93989707D01*
X138010292Y-93878213D01*
X138010288Y-93878210D01*
X138006144Y-93875441D01*
X144099500Y-93875441D01*
X144099500Y-94124558D01*
X144099501Y-94124575D01*
X144132017Y-94371561D01*
X144196498Y-94612207D01*
X144291830Y-94842361D01*
X144291837Y-94842376D01*
X144416400Y-95058126D01*
X144568060Y-95255774D01*
X144568066Y-95255781D01*
X144744218Y-95431933D01*
X144744225Y-95431939D01*
X144941873Y-95583599D01*
X145157623Y-95708162D01*
X145157638Y-95708169D01*
X145210981Y-95730264D01*
X145387793Y-95803502D01*
X145628435Y-95867982D01*
X145875435Y-95900500D01*
X145875442Y-95900500D01*
X146124558Y-95900500D01*
X146124565Y-95900500D01*
X146371565Y-95867982D01*
X146612207Y-95803502D01*
X146842373Y-95708164D01*
X147058127Y-95583599D01*
X147255776Y-95431938D01*
X147431938Y-95255776D01*
X147583599Y-95058127D01*
X147708164Y-94842373D01*
X147803502Y-94612207D01*
X147867982Y-94371565D01*
X147900500Y-94124565D01*
X147900500Y-93875435D01*
X147867982Y-93628435D01*
X147803502Y-93387793D01*
X147739592Y-93233501D01*
X147708169Y-93157638D01*
X147708162Y-93157623D01*
X147583599Y-92941873D01*
X147431939Y-92744225D01*
X147431933Y-92744218D01*
X147255781Y-92568066D01*
X147255774Y-92568060D01*
X147058126Y-92416400D01*
X146842376Y-92291837D01*
X146842361Y-92291830D01*
X146612207Y-92196498D01*
X146371565Y-92132018D01*
X146371564Y-92132017D01*
X146371561Y-92132017D01*
X146124575Y-92099501D01*
X146124570Y-92099500D01*
X146124565Y-92099500D01*
X145875435Y-92099500D01*
X145875429Y-92099500D01*
X145875424Y-92099501D01*
X145628438Y-92132017D01*
X145387792Y-92196498D01*
X145157638Y-92291830D01*
X145157623Y-92291837D01*
X144941873Y-92416400D01*
X144744225Y-92568060D01*
X144744218Y-92568066D01*
X144568066Y-92744218D01*
X144568060Y-92744225D01*
X144416400Y-92941873D01*
X144291837Y-93157623D01*
X144291830Y-93157638D01*
X144196498Y-93387792D01*
X144132017Y-93628438D01*
X144099501Y-93875424D01*
X144099500Y-93875441D01*
X138006144Y-93875441D01*
X137879185Y-93790609D01*
X137879172Y-93790602D01*
X137733501Y-93730264D01*
X137733489Y-93730261D01*
X137578845Y-93699500D01*
X137578842Y-93699500D01*
X137421158Y-93699500D01*
X137421155Y-93699500D01*
X137266510Y-93730261D01*
X137266498Y-93730264D01*
X137120827Y-93790602D01*
X137120814Y-93790609D01*
X136989711Y-93878210D01*
X136989707Y-93878213D01*
X136878213Y-93989707D01*
X136878210Y-93989711D01*
X136790609Y-94120814D01*
X136790602Y-94120827D01*
X136730264Y-94266498D01*
X136730261Y-94266510D01*
X136699500Y-94421153D01*
X105373978Y-94421153D01*
X105525627Y-94333599D01*
X105723276Y-94181938D01*
X105899438Y-94005776D01*
X106051099Y-93808127D01*
X106175664Y-93592373D01*
X106271002Y-93362207D01*
X106335482Y-93121565D01*
X106368000Y-92874565D01*
X106368000Y-92625435D01*
X106335482Y-92378435D01*
X106271002Y-92137793D01*
X106181269Y-91921158D01*
X106175669Y-91907638D01*
X106175662Y-91907623D01*
X106051099Y-91691873D01*
X106007883Y-91635552D01*
X105954631Y-91566153D01*
X111537000Y-91566153D01*
X111537000Y-91723846D01*
X111567761Y-91878489D01*
X111567764Y-91878501D01*
X111628102Y-92024172D01*
X111628109Y-92024185D01*
X111715710Y-92155288D01*
X111715713Y-92155292D01*
X111827207Y-92266786D01*
X111827211Y-92266789D01*
X111958314Y-92354390D01*
X111958327Y-92354397D01*
X112103998Y-92414735D01*
X112104003Y-92414737D01*
X112249875Y-92443753D01*
X112258653Y-92445499D01*
X112258656Y-92445500D01*
X112258658Y-92445500D01*
X112416344Y-92445500D01*
X112416345Y-92445499D01*
X112570997Y-92414737D01*
X112716679Y-92354394D01*
X112847789Y-92266789D01*
X112959289Y-92155289D01*
X113046894Y-92024179D01*
X113089568Y-91921153D01*
X121699500Y-91921153D01*
X121699500Y-92078846D01*
X121730261Y-92233489D01*
X121730264Y-92233501D01*
X121790602Y-92379172D01*
X121790609Y-92379185D01*
X121878210Y-92510288D01*
X121878213Y-92510292D01*
X121989707Y-92621786D01*
X121989711Y-92621789D01*
X122120814Y-92709390D01*
X122120827Y-92709397D01*
X122258683Y-92766498D01*
X122266503Y-92769737D01*
X122421153Y-92800499D01*
X122421156Y-92800500D01*
X122421158Y-92800500D01*
X122578844Y-92800500D01*
X122578845Y-92800499D01*
X122733497Y-92769737D01*
X122879179Y-92709394D01*
X123010289Y-92621789D01*
X123047331Y-92584747D01*
X123108653Y-92551261D01*
X123178345Y-92556245D01*
X123234279Y-92598115D01*
X123258697Y-92663579D01*
X123249575Y-92719878D01*
X123230263Y-92766502D01*
X123230261Y-92766510D01*
X123199500Y-92921153D01*
X123199500Y-93078846D01*
X123230261Y-93233489D01*
X123230264Y-93233501D01*
X123290602Y-93379172D01*
X123290609Y-93379185D01*
X123378210Y-93510288D01*
X123378213Y-93510292D01*
X123489707Y-93621786D01*
X123489711Y-93621789D01*
X123620814Y-93709390D01*
X123620827Y-93709397D01*
X123766498Y-93769735D01*
X123766503Y-93769737D01*
X123921153Y-93800499D01*
X123921156Y-93800500D01*
X123921158Y-93800500D01*
X124078844Y-93800500D01*
X124078845Y-93800499D01*
X124233497Y-93769737D01*
X124379179Y-93709394D01*
X124510289Y-93621789D01*
X124621789Y-93510289D01*
X124709394Y-93379179D01*
X124769737Y-93233497D01*
X124800500Y-93078842D01*
X124800500Y-92921158D01*
X124800500Y-92921155D01*
X124800499Y-92921153D01*
X124791232Y-92874565D01*
X124769737Y-92766503D01*
X124760506Y-92744218D01*
X124709397Y-92620827D01*
X124709390Y-92620814D01*
X124621789Y-92489711D01*
X124621786Y-92489707D01*
X124510292Y-92378213D01*
X124510288Y-92378210D01*
X124379185Y-92290609D01*
X124379172Y-92290602D01*
X124233501Y-92230264D01*
X124233489Y-92230261D01*
X124078845Y-92199500D01*
X124078842Y-92199500D01*
X123921158Y-92199500D01*
X123921155Y-92199500D01*
X123766510Y-92230261D01*
X123766498Y-92230264D01*
X123620827Y-92290602D01*
X123620814Y-92290609D01*
X123489711Y-92378210D01*
X123489706Y-92378214D01*
X123452666Y-92415254D01*
X123391343Y-92448739D01*
X123321651Y-92443753D01*
X123265718Y-92401881D01*
X123241302Y-92336417D01*
X123250424Y-92280121D01*
X123269737Y-92233497D01*
X123300500Y-92078842D01*
X123300500Y-91921158D01*
X123300500Y-91921155D01*
X123300499Y-91921153D01*
X123292014Y-91878495D01*
X123269737Y-91766503D01*
X123252067Y-91723844D01*
X123209397Y-91620827D01*
X123209390Y-91620814D01*
X123121789Y-91489711D01*
X123121786Y-91489707D01*
X123010292Y-91378213D01*
X123010288Y-91378210D01*
X122879185Y-91290609D01*
X122879172Y-91290602D01*
X122733501Y-91230264D01*
X122733489Y-91230261D01*
X122578845Y-91199500D01*
X122578842Y-91199500D01*
X122421158Y-91199500D01*
X122421155Y-91199500D01*
X122266510Y-91230261D01*
X122266498Y-91230264D01*
X122120827Y-91290602D01*
X122120814Y-91290609D01*
X121989711Y-91378210D01*
X121989707Y-91378213D01*
X121878213Y-91489707D01*
X121878210Y-91489711D01*
X121790609Y-91620814D01*
X121790602Y-91620827D01*
X121730264Y-91766498D01*
X121730261Y-91766510D01*
X121699500Y-91921153D01*
X113089568Y-91921153D01*
X113107237Y-91878497D01*
X113138000Y-91723842D01*
X113138000Y-91566158D01*
X113138000Y-91566155D01*
X113137999Y-91566153D01*
X113107237Y-91411503D01*
X113093447Y-91378210D01*
X113046897Y-91265827D01*
X113046890Y-91265814D01*
X112959289Y-91134711D01*
X112959286Y-91134707D01*
X112847792Y-91023213D01*
X112847788Y-91023210D01*
X112716685Y-90935609D01*
X112716672Y-90935602D01*
X112571001Y-90875264D01*
X112570989Y-90875261D01*
X112416345Y-90844500D01*
X112416342Y-90844500D01*
X112258658Y-90844500D01*
X112258655Y-90844500D01*
X112104010Y-90875261D01*
X112103998Y-90875264D01*
X111958327Y-90935602D01*
X111958314Y-90935609D01*
X111827211Y-91023210D01*
X111827207Y-91023213D01*
X111715713Y-91134707D01*
X111715710Y-91134711D01*
X111628109Y-91265814D01*
X111628102Y-91265827D01*
X111567764Y-91411498D01*
X111567761Y-91411510D01*
X111537000Y-91566153D01*
X105954631Y-91566153D01*
X105899439Y-91494225D01*
X105899433Y-91494218D01*
X105723281Y-91318066D01*
X105723274Y-91318060D01*
X105525626Y-91166400D01*
X105309876Y-91041837D01*
X105309861Y-91041830D01*
X105079707Y-90946498D01*
X104839061Y-90882017D01*
X104592075Y-90849501D01*
X104592070Y-90849500D01*
X104592065Y-90849500D01*
X104342935Y-90849500D01*
X104342929Y-90849500D01*
X104342924Y-90849501D01*
X104095938Y-90882017D01*
X103855292Y-90946498D01*
X103625138Y-91041830D01*
X103625123Y-91041837D01*
X103409373Y-91166400D01*
X103211725Y-91318060D01*
X103211718Y-91318066D01*
X103035566Y-91494218D01*
X103035560Y-91494225D01*
X102883900Y-91691873D01*
X102759337Y-91907623D01*
X102759330Y-91907638D01*
X102663998Y-92137792D01*
X102599517Y-92378438D01*
X102567001Y-92625424D01*
X102567000Y-92625441D01*
X100500500Y-92625441D01*
X100500500Y-88576153D01*
X112699500Y-88576153D01*
X112699500Y-88733846D01*
X112730261Y-88888489D01*
X112730264Y-88888501D01*
X112790602Y-89034172D01*
X112790609Y-89034185D01*
X112878210Y-89165288D01*
X112878213Y-89165292D01*
X112989707Y-89276786D01*
X112989711Y-89276789D01*
X113120814Y-89364390D01*
X113120827Y-89364397D01*
X113266498Y-89424735D01*
X113266503Y-89424737D01*
X113421153Y-89455499D01*
X113421156Y-89455500D01*
X113421158Y-89455500D01*
X113578844Y-89455500D01*
X113578845Y-89455499D01*
X113733497Y-89424737D01*
X113879179Y-89364394D01*
X114010289Y-89276789D01*
X114121789Y-89165289D01*
X114209394Y-89034179D01*
X114269737Y-88888497D01*
X114300500Y-88733842D01*
X114300500Y-88576158D01*
X114300500Y-88576155D01*
X114300499Y-88576153D01*
X114291122Y-88529013D01*
X114269737Y-88421503D01*
X114257061Y-88390900D01*
X114209397Y-88275827D01*
X114209390Y-88275814D01*
X114121789Y-88144711D01*
X114121786Y-88144707D01*
X114010289Y-88033210D01*
X113987776Y-88018168D01*
X113879185Y-87945609D01*
X113879172Y-87945602D01*
X113820146Y-87921153D01*
X118699500Y-87921153D01*
X118699500Y-88078846D01*
X118730261Y-88233489D01*
X118730264Y-88233501D01*
X118790602Y-88379172D01*
X118790609Y-88379185D01*
X118878210Y-88510288D01*
X118878213Y-88510292D01*
X118989707Y-88621786D01*
X118989711Y-88621789D01*
X119120814Y-88709390D01*
X119120827Y-88709397D01*
X119248302Y-88762198D01*
X119266503Y-88769737D01*
X119421153Y-88800499D01*
X119421156Y-88800500D01*
X119421158Y-88800500D01*
X119578844Y-88800500D01*
X119578845Y-88800499D01*
X119733497Y-88769737D01*
X119879179Y-88709394D01*
X120010289Y-88621789D01*
X120055925Y-88576153D01*
X123044500Y-88576153D01*
X123044500Y-88733846D01*
X123075261Y-88888489D01*
X123075264Y-88888501D01*
X123135602Y-89034172D01*
X123135609Y-89034185D01*
X123223210Y-89165288D01*
X123223213Y-89165292D01*
X123334707Y-89276786D01*
X123334711Y-89276789D01*
X123465814Y-89364390D01*
X123465827Y-89364397D01*
X123611498Y-89424735D01*
X123611503Y-89424737D01*
X123766153Y-89455499D01*
X123766156Y-89455500D01*
X123766158Y-89455500D01*
X123923844Y-89455500D01*
X123923845Y-89455499D01*
X124078497Y-89424737D01*
X124224179Y-89364394D01*
X124355289Y-89276789D01*
X124466789Y-89165289D01*
X124493049Y-89125988D01*
X124546659Y-89081183D01*
X124615984Y-89072474D01*
X124679012Y-89102628D01*
X124715732Y-89162070D01*
X124717768Y-89170685D01*
X124730262Y-89233492D01*
X124730264Y-89233501D01*
X124790602Y-89379172D01*
X124790609Y-89379185D01*
X124878210Y-89510288D01*
X124878213Y-89510292D01*
X124989707Y-89621786D01*
X124989711Y-89621789D01*
X125120814Y-89709390D01*
X125120827Y-89709397D01*
X125266498Y-89769735D01*
X125266503Y-89769737D01*
X125421153Y-89800499D01*
X125421156Y-89800500D01*
X125421158Y-89800500D01*
X125578844Y-89800500D01*
X125578845Y-89800499D01*
X125733497Y-89769737D01*
X125879179Y-89709394D01*
X126010289Y-89621789D01*
X126121789Y-89510289D01*
X126131235Y-89496153D01*
X128124500Y-89496153D01*
X128124500Y-89653846D01*
X128155261Y-89808489D01*
X128155264Y-89808501D01*
X128215602Y-89954172D01*
X128215609Y-89954185D01*
X128303210Y-90085288D01*
X128303213Y-90085292D01*
X128414707Y-90196786D01*
X128414711Y-90196789D01*
X128545814Y-90284390D01*
X128545827Y-90284397D01*
X128691498Y-90344735D01*
X128691503Y-90344737D01*
X128846153Y-90375499D01*
X128846156Y-90375500D01*
X128846158Y-90375500D01*
X129003844Y-90375500D01*
X129003845Y-90375499D01*
X129158497Y-90344737D01*
X129304179Y-90284394D01*
X129435289Y-90196789D01*
X129546789Y-90085289D01*
X129634394Y-89954179D01*
X129694737Y-89808497D01*
X129725500Y-89653842D01*
X129725500Y-89496158D01*
X129725500Y-89496155D01*
X129725499Y-89496153D01*
X129694737Y-89341503D01*
X129676903Y-89298447D01*
X129634397Y-89195827D01*
X129634390Y-89195814D01*
X129546789Y-89064711D01*
X129546786Y-89064707D01*
X129435292Y-88953213D01*
X129435288Y-88953210D01*
X129304185Y-88865609D01*
X129304172Y-88865602D01*
X129158501Y-88805264D01*
X129158489Y-88805261D01*
X129003845Y-88774500D01*
X129003842Y-88774500D01*
X128846158Y-88774500D01*
X128846155Y-88774500D01*
X128691510Y-88805261D01*
X128691498Y-88805264D01*
X128545827Y-88865602D01*
X128545814Y-88865609D01*
X128414711Y-88953210D01*
X128414707Y-88953213D01*
X128303213Y-89064707D01*
X128303210Y-89064711D01*
X128215609Y-89195814D01*
X128215602Y-89195827D01*
X128155264Y-89341498D01*
X128155261Y-89341510D01*
X128124500Y-89496153D01*
X126131235Y-89496153D01*
X126158399Y-89455499D01*
X126181334Y-89421175D01*
X126181335Y-89421173D01*
X126209387Y-89379190D01*
X126209390Y-89379185D01*
X126209394Y-89379179D01*
X126269737Y-89233497D01*
X126300500Y-89078842D01*
X126300500Y-88921158D01*
X126300500Y-88921155D01*
X126300499Y-88921153D01*
X126294002Y-88888489D01*
X126269737Y-88766503D01*
X126256209Y-88733844D01*
X126209397Y-88620827D01*
X126209390Y-88620814D01*
X126137127Y-88512666D01*
X126137126Y-88512665D01*
X126135540Y-88510292D01*
X126121789Y-88489711D01*
X126121787Y-88489708D01*
X126081941Y-88449862D01*
X132170790Y-88449862D01*
X132170790Y-88607555D01*
X132201551Y-88762198D01*
X132201554Y-88762210D01*
X132261892Y-88907881D01*
X132261899Y-88907894D01*
X132349500Y-89038997D01*
X132349503Y-89039001D01*
X132460997Y-89150495D01*
X132461001Y-89150498D01*
X132592104Y-89238099D01*
X132592117Y-89238106D01*
X132737788Y-89298444D01*
X132737793Y-89298446D01*
X132892443Y-89329208D01*
X132892446Y-89329209D01*
X132892448Y-89329209D01*
X133050134Y-89329209D01*
X133050135Y-89329208D01*
X133204787Y-89298446D01*
X133317456Y-89251776D01*
X133350462Y-89238106D01*
X133350462Y-89238105D01*
X133350469Y-89238103D01*
X133481579Y-89150498D01*
X133593079Y-89038998D01*
X133680684Y-88907888D01*
X133741027Y-88762206D01*
X133771790Y-88607551D01*
X133771790Y-88457939D01*
X133791475Y-88390900D01*
X133844279Y-88345145D01*
X133913437Y-88335201D01*
X133976993Y-88364226D01*
X133983471Y-88370258D01*
X134017353Y-88404140D01*
X134017357Y-88404143D01*
X134148460Y-88491744D01*
X134148473Y-88491751D01*
X134238433Y-88529013D01*
X134294149Y-88552091D01*
X134447145Y-88582524D01*
X134448799Y-88582853D01*
X134448802Y-88582854D01*
X134448804Y-88582854D01*
X134606490Y-88582854D01*
X134606491Y-88582853D01*
X134761143Y-88552091D01*
X134906825Y-88491748D01*
X135037935Y-88404143D01*
X135149435Y-88292643D01*
X135237040Y-88161533D01*
X135297383Y-88015851D01*
X135328146Y-87861196D01*
X135328146Y-87703512D01*
X135328146Y-87703509D01*
X135328145Y-87703507D01*
X135311890Y-87621789D01*
X135297383Y-87548857D01*
X135281408Y-87510289D01*
X135261621Y-87462518D01*
X135244487Y-87421153D01*
X142199500Y-87421153D01*
X142199500Y-87578846D01*
X142230261Y-87733489D01*
X142230264Y-87733501D01*
X142290602Y-87879172D01*
X142290609Y-87879185D01*
X142378210Y-88010288D01*
X142378213Y-88010292D01*
X142489707Y-88121786D01*
X142489711Y-88121789D01*
X142620814Y-88209390D01*
X142620827Y-88209397D01*
X142766498Y-88269735D01*
X142766503Y-88269737D01*
X142894574Y-88295212D01*
X142921153Y-88300499D01*
X142921156Y-88300500D01*
X142921158Y-88300500D01*
X143078844Y-88300500D01*
X143078845Y-88300499D01*
X143233497Y-88269737D01*
X143379179Y-88209394D01*
X143510289Y-88121789D01*
X143621789Y-88010289D01*
X143709394Y-87879179D01*
X143769737Y-87733497D01*
X143800500Y-87578842D01*
X143800500Y-87421158D01*
X143800500Y-87421155D01*
X143800499Y-87421153D01*
X143796923Y-87403175D01*
X143769737Y-87266503D01*
X143756062Y-87233489D01*
X143709397Y-87120827D01*
X143709390Y-87120814D01*
X143621789Y-86989711D01*
X143621786Y-86989707D01*
X143510292Y-86878213D01*
X143510288Y-86878210D01*
X143379185Y-86790609D01*
X143379172Y-86790602D01*
X143233501Y-86730264D01*
X143233489Y-86730261D01*
X143078845Y-86699500D01*
X143078842Y-86699500D01*
X142921158Y-86699500D01*
X142921155Y-86699500D01*
X142766510Y-86730261D01*
X142766498Y-86730264D01*
X142620827Y-86790602D01*
X142620814Y-86790609D01*
X142489711Y-86878210D01*
X142489707Y-86878213D01*
X142378213Y-86989707D01*
X142378210Y-86989711D01*
X142290609Y-87120814D01*
X142290602Y-87120827D01*
X142230264Y-87266498D01*
X142230261Y-87266510D01*
X142199500Y-87421153D01*
X135244487Y-87421153D01*
X135237043Y-87403181D01*
X135237036Y-87403168D01*
X135149435Y-87272065D01*
X135149432Y-87272061D01*
X135037938Y-87160567D01*
X135037934Y-87160564D01*
X134906831Y-87072963D01*
X134906818Y-87072956D01*
X134761147Y-87012618D01*
X134761135Y-87012615D01*
X134606491Y-86981854D01*
X134606488Y-86981854D01*
X134448804Y-86981854D01*
X134448801Y-86981854D01*
X134294156Y-87012615D01*
X134294144Y-87012618D01*
X134148473Y-87072956D01*
X134148460Y-87072963D01*
X134017357Y-87160564D01*
X134017353Y-87160567D01*
X133905859Y-87272061D01*
X133905856Y-87272065D01*
X133818255Y-87403168D01*
X133818248Y-87403181D01*
X133757910Y-87548852D01*
X133757907Y-87548864D01*
X133727146Y-87703507D01*
X133727146Y-87853124D01*
X133707461Y-87920163D01*
X133654657Y-87965918D01*
X133585499Y-87975862D01*
X133521943Y-87946837D01*
X133515465Y-87940805D01*
X133481582Y-87906922D01*
X133481578Y-87906919D01*
X133350475Y-87819318D01*
X133350462Y-87819311D01*
X133204791Y-87758973D01*
X133204779Y-87758970D01*
X133050135Y-87728209D01*
X133050132Y-87728209D01*
X132892448Y-87728209D01*
X132892445Y-87728209D01*
X132737800Y-87758970D01*
X132737788Y-87758973D01*
X132592117Y-87819311D01*
X132592104Y-87819318D01*
X132461001Y-87906919D01*
X132460997Y-87906922D01*
X132349503Y-88018416D01*
X132349500Y-88018420D01*
X132261899Y-88149523D01*
X132261892Y-88149536D01*
X132201554Y-88295207D01*
X132201551Y-88295219D01*
X132170790Y-88449862D01*
X126081941Y-88449862D01*
X126010292Y-88378213D01*
X126010288Y-88378210D01*
X125879185Y-88290609D01*
X125879172Y-88290602D01*
X125733501Y-88230264D01*
X125733489Y-88230261D01*
X125578845Y-88199500D01*
X125578842Y-88199500D01*
X125421158Y-88199500D01*
X125421155Y-88199500D01*
X125266510Y-88230261D01*
X125266498Y-88230264D01*
X125120827Y-88290602D01*
X125120814Y-88290609D01*
X124989711Y-88378210D01*
X124989707Y-88378213D01*
X124878213Y-88489707D01*
X124851950Y-88529013D01*
X124798337Y-88573817D01*
X124729012Y-88582524D01*
X124665985Y-88552369D01*
X124629266Y-88492926D01*
X124627231Y-88484312D01*
X124614738Y-88421510D01*
X124614737Y-88421503D01*
X124602061Y-88390900D01*
X124554397Y-88275827D01*
X124554390Y-88275814D01*
X124466789Y-88144711D01*
X124466786Y-88144707D01*
X124355292Y-88033213D01*
X124355288Y-88033210D01*
X124224185Y-87945609D01*
X124224172Y-87945602D01*
X124078501Y-87885264D01*
X124078489Y-87885261D01*
X123923845Y-87854500D01*
X123923842Y-87854500D01*
X123766158Y-87854500D01*
X123766155Y-87854500D01*
X123611510Y-87885261D01*
X123611498Y-87885264D01*
X123465827Y-87945602D01*
X123465814Y-87945609D01*
X123334711Y-88033210D01*
X123334707Y-88033213D01*
X123223213Y-88144707D01*
X123223210Y-88144711D01*
X123135609Y-88275814D01*
X123135602Y-88275827D01*
X123075264Y-88421498D01*
X123075261Y-88421510D01*
X123044500Y-88576153D01*
X120055925Y-88576153D01*
X120121789Y-88510289D01*
X120209394Y-88379179D01*
X120269737Y-88233497D01*
X120300500Y-88078842D01*
X120300500Y-87921158D01*
X120300500Y-87921155D01*
X120300499Y-87921153D01*
X120293360Y-87885263D01*
X120269737Y-87766503D01*
X120246080Y-87709390D01*
X120209397Y-87620827D01*
X120209390Y-87620814D01*
X120121789Y-87489711D01*
X120121786Y-87489707D01*
X120010292Y-87378213D01*
X120010288Y-87378210D01*
X119879185Y-87290609D01*
X119879172Y-87290602D01*
X119733501Y-87230264D01*
X119733489Y-87230261D01*
X119578845Y-87199500D01*
X119578842Y-87199500D01*
X119421158Y-87199500D01*
X119421155Y-87199500D01*
X119266510Y-87230261D01*
X119266498Y-87230264D01*
X119120827Y-87290602D01*
X119120814Y-87290609D01*
X118989711Y-87378210D01*
X118989707Y-87378213D01*
X118878213Y-87489707D01*
X118878210Y-87489711D01*
X118790609Y-87620814D01*
X118790602Y-87620827D01*
X118730264Y-87766498D01*
X118730261Y-87766510D01*
X118699500Y-87921153D01*
X113820146Y-87921153D01*
X113733501Y-87885264D01*
X113733489Y-87885261D01*
X113578845Y-87854500D01*
X113578842Y-87854500D01*
X113421158Y-87854500D01*
X113421155Y-87854500D01*
X113266510Y-87885261D01*
X113266498Y-87885264D01*
X113120827Y-87945602D01*
X113120814Y-87945609D01*
X112989711Y-88033210D01*
X112989707Y-88033213D01*
X112878213Y-88144707D01*
X112878210Y-88144711D01*
X112790609Y-88275814D01*
X112790602Y-88275827D01*
X112730264Y-88421498D01*
X112730261Y-88421510D01*
X112699500Y-88576153D01*
X100500500Y-88576153D01*
X100500500Y-87421153D01*
X111199500Y-87421153D01*
X111199500Y-87578846D01*
X111230261Y-87733489D01*
X111230264Y-87733501D01*
X111290602Y-87879172D01*
X111290609Y-87879185D01*
X111378210Y-88010288D01*
X111378213Y-88010292D01*
X111489707Y-88121786D01*
X111489711Y-88121789D01*
X111620814Y-88209390D01*
X111620827Y-88209397D01*
X111766498Y-88269735D01*
X111766503Y-88269737D01*
X111894574Y-88295212D01*
X111921153Y-88300499D01*
X111921156Y-88300500D01*
X111921158Y-88300500D01*
X112078844Y-88300500D01*
X112078845Y-88300499D01*
X112233497Y-88269737D01*
X112379179Y-88209394D01*
X112510289Y-88121789D01*
X112621789Y-88010289D01*
X112709394Y-87879179D01*
X112769737Y-87733497D01*
X112800500Y-87578842D01*
X112800500Y-87421158D01*
X112800500Y-87421155D01*
X112800499Y-87421153D01*
X112796923Y-87403175D01*
X112769737Y-87266503D01*
X112756062Y-87233489D01*
X112709397Y-87120827D01*
X112709390Y-87120814D01*
X112621789Y-86989711D01*
X112621786Y-86989707D01*
X112510292Y-86878213D01*
X112510288Y-86878210D01*
X112379185Y-86790609D01*
X112379172Y-86790602D01*
X112233501Y-86730264D01*
X112233489Y-86730261D01*
X112078845Y-86699500D01*
X112078842Y-86699500D01*
X111921158Y-86699500D01*
X111921155Y-86699500D01*
X111766510Y-86730261D01*
X111766498Y-86730264D01*
X111620827Y-86790602D01*
X111620814Y-86790609D01*
X111489711Y-86878210D01*
X111489707Y-86878213D01*
X111378213Y-86989707D01*
X111378210Y-86989711D01*
X111290609Y-87120814D01*
X111290602Y-87120827D01*
X111230264Y-87266498D01*
X111230261Y-87266510D01*
X111199500Y-87421153D01*
X100500500Y-87421153D01*
X100500500Y-86421153D01*
X116199500Y-86421153D01*
X116199500Y-86578846D01*
X116230261Y-86733489D01*
X116230264Y-86733501D01*
X116290602Y-86879172D01*
X116290609Y-86879185D01*
X116378210Y-87010288D01*
X116378213Y-87010292D01*
X116489707Y-87121786D01*
X116489711Y-87121789D01*
X116620814Y-87209390D01*
X116620827Y-87209397D01*
X116758683Y-87266498D01*
X116766503Y-87269737D01*
X116921153Y-87300499D01*
X116921156Y-87300500D01*
X116921158Y-87300500D01*
X117078844Y-87300500D01*
X117078845Y-87300499D01*
X117233497Y-87269737D01*
X117379179Y-87209394D01*
X117510289Y-87121789D01*
X117621789Y-87010289D01*
X117681348Y-86921153D01*
X127699500Y-86921153D01*
X127699500Y-87078846D01*
X127730261Y-87233489D01*
X127730264Y-87233501D01*
X127790602Y-87379172D01*
X127790609Y-87379185D01*
X127878210Y-87510288D01*
X127878213Y-87510292D01*
X127989707Y-87621786D01*
X127989711Y-87621789D01*
X128120814Y-87709390D01*
X128120827Y-87709397D01*
X128240516Y-87758973D01*
X128266503Y-87769737D01*
X128421153Y-87800499D01*
X128421156Y-87800500D01*
X128421158Y-87800500D01*
X128578844Y-87800500D01*
X128578845Y-87800499D01*
X128733497Y-87769737D01*
X128879179Y-87709394D01*
X129010289Y-87621789D01*
X129121789Y-87510289D01*
X129209394Y-87379179D01*
X129269737Y-87233497D01*
X129300500Y-87078842D01*
X129300500Y-86921158D01*
X129300500Y-86921155D01*
X129300499Y-86921153D01*
X129274531Y-86790606D01*
X129269737Y-86766503D01*
X129256062Y-86733489D01*
X129209397Y-86620827D01*
X129209390Y-86620814D01*
X129121789Y-86489711D01*
X129121786Y-86489707D01*
X129010292Y-86378213D01*
X129010288Y-86378210D01*
X128879185Y-86290609D01*
X128879172Y-86290602D01*
X128733501Y-86230264D01*
X128733489Y-86230261D01*
X128578845Y-86199500D01*
X128578842Y-86199500D01*
X128421158Y-86199500D01*
X128421155Y-86199500D01*
X128266510Y-86230261D01*
X128266498Y-86230264D01*
X128120827Y-86290602D01*
X128120814Y-86290609D01*
X127989711Y-86378210D01*
X127989707Y-86378213D01*
X127878213Y-86489707D01*
X127878210Y-86489711D01*
X127790609Y-86620814D01*
X127790602Y-86620827D01*
X127730264Y-86766498D01*
X127730261Y-86766510D01*
X127699500Y-86921153D01*
X117681348Y-86921153D01*
X117709394Y-86879179D01*
X117769737Y-86733497D01*
X117800500Y-86578842D01*
X117800500Y-86421158D01*
X117800500Y-86421155D01*
X117800499Y-86421153D01*
X117774531Y-86290606D01*
X117769737Y-86266503D01*
X117765607Y-86256532D01*
X117709397Y-86120827D01*
X117709390Y-86120814D01*
X117621789Y-85989711D01*
X117621786Y-85989707D01*
X117510292Y-85878213D01*
X117510288Y-85878210D01*
X117391005Y-85798507D01*
X135076854Y-85798507D01*
X135076854Y-85956200D01*
X135107615Y-86110843D01*
X135107618Y-86110855D01*
X135167956Y-86256526D01*
X135167963Y-86256539D01*
X135255564Y-86387642D01*
X135255567Y-86387646D01*
X135367061Y-86499140D01*
X135367065Y-86499143D01*
X135498168Y-86586744D01*
X135498181Y-86586751D01*
X135643852Y-86647089D01*
X135643857Y-86647091D01*
X135798507Y-86677853D01*
X135798510Y-86677854D01*
X135798512Y-86677854D01*
X135956198Y-86677854D01*
X135956199Y-86677853D01*
X136110851Y-86647091D01*
X136256533Y-86586748D01*
X136387643Y-86499143D01*
X136499143Y-86387643D01*
X136557715Y-86299984D01*
X144067000Y-86299984D01*
X144067000Y-88700015D01*
X144077500Y-88802795D01*
X144077501Y-88802797D01*
X144098313Y-88865602D01*
X144132686Y-88969335D01*
X144132687Y-88969337D01*
X144224786Y-89118651D01*
X144224789Y-89118655D01*
X144348844Y-89242710D01*
X144348848Y-89242713D01*
X144498162Y-89334812D01*
X144498164Y-89334813D01*
X144498166Y-89334814D01*
X144664703Y-89389999D01*
X144767492Y-89400500D01*
X144767497Y-89400500D01*
X147167503Y-89400500D01*
X147167508Y-89400500D01*
X147270297Y-89389999D01*
X147436834Y-89334814D01*
X147586155Y-89242711D01*
X147710211Y-89118655D01*
X147802314Y-88969334D01*
X147857499Y-88802797D01*
X147868000Y-88700008D01*
X147868000Y-86299992D01*
X147857499Y-86197203D01*
X147802314Y-86030666D01*
X147777052Y-85989711D01*
X147710213Y-85881348D01*
X147710210Y-85881344D01*
X147586155Y-85757289D01*
X147586151Y-85757286D01*
X147436837Y-85665187D01*
X147436835Y-85665186D01*
X147353565Y-85637593D01*
X147270297Y-85610001D01*
X147270295Y-85610000D01*
X147167515Y-85599500D01*
X147167508Y-85599500D01*
X144767492Y-85599500D01*
X144767484Y-85599500D01*
X144664704Y-85610000D01*
X144664703Y-85610001D01*
X144498164Y-85665186D01*
X144498162Y-85665187D01*
X144348848Y-85757286D01*
X144348844Y-85757289D01*
X144224789Y-85881344D01*
X144224786Y-85881348D01*
X144132687Y-86030662D01*
X144132686Y-86030664D01*
X144077501Y-86197203D01*
X144077500Y-86197204D01*
X144067000Y-86299984D01*
X136557715Y-86299984D01*
X136586748Y-86256533D01*
X136647091Y-86110851D01*
X136677854Y-85956196D01*
X136677854Y-85798512D01*
X136677854Y-85798509D01*
X136677853Y-85798507D01*
X136669654Y-85757289D01*
X136647091Y-85643857D01*
X136647089Y-85643852D01*
X136586751Y-85498181D01*
X136586744Y-85498168D01*
X136499143Y-85367065D01*
X136499140Y-85367061D01*
X136387646Y-85255567D01*
X136387642Y-85255564D01*
X136256539Y-85167963D01*
X136256526Y-85167956D01*
X136110855Y-85107618D01*
X136110843Y-85107615D01*
X135956199Y-85076854D01*
X135956196Y-85076854D01*
X135798512Y-85076854D01*
X135798509Y-85076854D01*
X135643864Y-85107615D01*
X135643852Y-85107618D01*
X135498181Y-85167956D01*
X135498168Y-85167963D01*
X135367065Y-85255564D01*
X135367061Y-85255567D01*
X135255567Y-85367061D01*
X135255564Y-85367065D01*
X135167963Y-85498168D01*
X135167956Y-85498181D01*
X135107618Y-85643852D01*
X135107615Y-85643864D01*
X135076854Y-85798507D01*
X117391005Y-85798507D01*
X117379185Y-85790609D01*
X117379172Y-85790602D01*
X117233501Y-85730264D01*
X117233489Y-85730261D01*
X117078845Y-85699500D01*
X117078842Y-85699500D01*
X116921158Y-85699500D01*
X116921155Y-85699500D01*
X116766510Y-85730261D01*
X116766498Y-85730264D01*
X116620827Y-85790602D01*
X116620814Y-85790609D01*
X116489711Y-85878210D01*
X116489707Y-85878213D01*
X116378213Y-85989707D01*
X116378210Y-85989711D01*
X116290609Y-86120814D01*
X116290602Y-86120827D01*
X116230264Y-86266498D01*
X116230261Y-86266510D01*
X116199500Y-86421153D01*
X100500500Y-86421153D01*
X100500500Y-84798507D01*
X102322146Y-84798507D01*
X102322146Y-84956200D01*
X102352907Y-85110843D01*
X102352910Y-85110855D01*
X102413248Y-85256526D01*
X102413255Y-85256539D01*
X102500856Y-85387642D01*
X102500859Y-85387646D01*
X102612353Y-85499140D01*
X102612357Y-85499143D01*
X102743460Y-85586744D01*
X102743473Y-85586751D01*
X102881329Y-85643852D01*
X102889149Y-85647091D01*
X103043799Y-85677853D01*
X103043802Y-85677854D01*
X103043804Y-85677854D01*
X103201490Y-85677854D01*
X103201491Y-85677853D01*
X103356143Y-85647091D01*
X103501825Y-85586748D01*
X103632935Y-85499143D01*
X103744435Y-85387643D01*
X103832040Y-85256533D01*
X103892383Y-85110851D01*
X103923146Y-84956196D01*
X103923146Y-84798512D01*
X103923146Y-84798509D01*
X103923145Y-84798507D01*
X103892383Y-84643857D01*
X103886300Y-84629172D01*
X103832043Y-84498181D01*
X103832036Y-84498168D01*
X103744435Y-84367065D01*
X103744432Y-84367061D01*
X103632938Y-84255567D01*
X103632934Y-84255564D01*
X103501831Y-84167963D01*
X103501818Y-84167956D01*
X103356147Y-84107618D01*
X103356135Y-84107615D01*
X103201491Y-84076854D01*
X103201488Y-84076854D01*
X103043804Y-84076854D01*
X103043801Y-84076854D01*
X102889156Y-84107615D01*
X102889144Y-84107618D01*
X102743473Y-84167956D01*
X102743460Y-84167963D01*
X102612357Y-84255564D01*
X102612353Y-84255567D01*
X102500859Y-84367061D01*
X102500856Y-84367065D01*
X102413255Y-84498168D01*
X102413248Y-84498181D01*
X102352910Y-84643852D01*
X102352907Y-84643864D01*
X102322146Y-84798507D01*
X100500500Y-84798507D01*
X100500500Y-83421153D01*
X109199500Y-83421153D01*
X109199500Y-83578846D01*
X109230261Y-83733489D01*
X109230264Y-83733501D01*
X109290602Y-83879172D01*
X109290609Y-83879185D01*
X109378210Y-84010288D01*
X109378213Y-84010292D01*
X109489707Y-84121786D01*
X109489711Y-84121789D01*
X109620814Y-84209390D01*
X109620827Y-84209397D01*
X109732293Y-84255567D01*
X109766503Y-84269737D01*
X109921153Y-84300499D01*
X109921156Y-84300500D01*
X109921158Y-84300500D01*
X110078844Y-84300500D01*
X110078845Y-84300499D01*
X110233497Y-84269737D01*
X110379179Y-84209394D01*
X110436411Y-84171153D01*
X120449500Y-84171153D01*
X120449500Y-84328846D01*
X120480261Y-84483489D01*
X120480264Y-84483501D01*
X120540602Y-84629172D01*
X120540609Y-84629185D01*
X120628210Y-84760288D01*
X120628213Y-84760292D01*
X120739707Y-84871786D01*
X120739711Y-84871789D01*
X120870814Y-84959390D01*
X120870827Y-84959397D01*
X121016498Y-85019735D01*
X121016503Y-85019737D01*
X121171153Y-85050499D01*
X121171156Y-85050500D01*
X121171158Y-85050500D01*
X121328844Y-85050500D01*
X121328845Y-85050499D01*
X121483497Y-85019737D01*
X121629179Y-84959394D01*
X121760289Y-84871789D01*
X121871789Y-84760289D01*
X121959394Y-84629179D01*
X122019737Y-84483497D01*
X122050500Y-84328842D01*
X122050500Y-84171158D01*
X122050500Y-84171155D01*
X122050499Y-84171153D01*
X122031847Y-84077385D01*
X122019737Y-84016503D01*
X121984710Y-83931939D01*
X121959397Y-83870827D01*
X121959390Y-83870814D01*
X121871789Y-83739711D01*
X121871786Y-83739707D01*
X121760292Y-83628213D01*
X121760288Y-83628210D01*
X121629185Y-83540609D01*
X121629172Y-83540602D01*
X121483501Y-83480264D01*
X121483489Y-83480261D01*
X121328845Y-83449500D01*
X121328842Y-83449500D01*
X121171158Y-83449500D01*
X121171155Y-83449500D01*
X121016510Y-83480261D01*
X121016498Y-83480264D01*
X120870827Y-83540602D01*
X120870814Y-83540609D01*
X120739711Y-83628210D01*
X120739707Y-83628213D01*
X120628213Y-83739707D01*
X120628210Y-83739711D01*
X120540609Y-83870814D01*
X120540602Y-83870827D01*
X120480264Y-84016498D01*
X120480261Y-84016510D01*
X120449500Y-84171153D01*
X110436411Y-84171153D01*
X110510289Y-84121789D01*
X110524463Y-84107615D01*
X110554694Y-84077385D01*
X110621786Y-84010292D01*
X110621789Y-84010289D01*
X110709394Y-83879179D01*
X110712854Y-83870827D01*
X110741984Y-83800499D01*
X110769737Y-83733497D01*
X110800500Y-83578842D01*
X110800500Y-83421158D01*
X110800500Y-83421155D01*
X110800499Y-83421153D01*
X110784829Y-83342376D01*
X110769737Y-83266503D01*
X110709794Y-83121786D01*
X110709397Y-83120827D01*
X110709390Y-83120814D01*
X110621789Y-82989711D01*
X110621786Y-82989707D01*
X110510292Y-82878213D01*
X110510288Y-82878210D01*
X110379185Y-82790609D01*
X110379172Y-82790602D01*
X110233501Y-82730264D01*
X110233489Y-82730261D01*
X110078845Y-82699500D01*
X110078842Y-82699500D01*
X109921158Y-82699500D01*
X109921155Y-82699500D01*
X109766510Y-82730261D01*
X109766498Y-82730264D01*
X109620827Y-82790602D01*
X109620814Y-82790609D01*
X109489711Y-82878210D01*
X109489707Y-82878213D01*
X109378213Y-82989707D01*
X109378210Y-82989711D01*
X109290609Y-83120814D01*
X109290602Y-83120827D01*
X109230264Y-83266498D01*
X109230261Y-83266510D01*
X109199500Y-83421153D01*
X100500500Y-83421153D01*
X100500500Y-82421153D01*
X105699500Y-82421153D01*
X105699500Y-82578846D01*
X105730261Y-82733489D01*
X105730264Y-82733501D01*
X105790602Y-82879172D01*
X105790609Y-82879185D01*
X105878210Y-83010288D01*
X105878213Y-83010292D01*
X105989707Y-83121786D01*
X105989711Y-83121789D01*
X106120814Y-83209390D01*
X106120827Y-83209397D01*
X106258683Y-83266498D01*
X106266503Y-83269737D01*
X106421153Y-83300499D01*
X106421156Y-83300500D01*
X106421158Y-83300500D01*
X106578844Y-83300500D01*
X106578845Y-83300499D01*
X106589179Y-83298443D01*
X106614287Y-83293450D01*
X106614292Y-83293449D01*
X106699800Y-83276439D01*
X106733497Y-83269737D01*
X106879179Y-83209394D01*
X107010289Y-83121789D01*
X107121789Y-83010289D01*
X107209394Y-82879179D01*
X107212550Y-82871561D01*
X107241984Y-82800499D01*
X107269737Y-82733497D01*
X107300500Y-82578842D01*
X107300500Y-82421158D01*
X107300500Y-82421155D01*
X107300499Y-82421153D01*
X107286963Y-82353102D01*
X107269737Y-82266503D01*
X107256062Y-82233489D01*
X107209397Y-82120827D01*
X107209390Y-82120814D01*
X107121789Y-81989711D01*
X107121786Y-81989707D01*
X107010292Y-81878213D01*
X107010288Y-81878210D01*
X106879185Y-81790609D01*
X106879172Y-81790602D01*
X106733501Y-81730264D01*
X106733489Y-81730261D01*
X106578845Y-81699500D01*
X106578842Y-81699500D01*
X106421158Y-81699500D01*
X106421155Y-81699500D01*
X106266510Y-81730261D01*
X106266498Y-81730264D01*
X106120827Y-81790602D01*
X106120814Y-81790609D01*
X105989711Y-81878210D01*
X105989707Y-81878213D01*
X105878213Y-81989707D01*
X105878210Y-81989711D01*
X105790609Y-82120814D01*
X105790602Y-82120827D01*
X105730264Y-82266498D01*
X105730261Y-82266510D01*
X105699500Y-82421153D01*
X100500500Y-82421153D01*
X100500500Y-80601153D01*
X107699500Y-80601153D01*
X107699500Y-80758846D01*
X107730261Y-80913489D01*
X107730264Y-80913501D01*
X107790602Y-81059172D01*
X107790609Y-81059185D01*
X107878210Y-81190288D01*
X107878213Y-81190292D01*
X107989707Y-81301786D01*
X107989711Y-81301789D01*
X108120814Y-81389390D01*
X108120827Y-81389397D01*
X108247517Y-81441873D01*
X108266503Y-81449737D01*
X108421153Y-81480499D01*
X108421156Y-81480500D01*
X108421158Y-81480500D01*
X108578844Y-81480500D01*
X108578845Y-81480499D01*
X108733497Y-81449737D01*
X108879179Y-81389394D01*
X109010289Y-81301789D01*
X109121789Y-81190289D01*
X109209394Y-81059179D01*
X109269737Y-80913497D01*
X109300500Y-80758842D01*
X109300500Y-80601158D01*
X109300500Y-80601155D01*
X109300499Y-80601153D01*
X109295666Y-80576854D01*
X109269737Y-80446503D01*
X109237308Y-80368211D01*
X109209397Y-80300827D01*
X109209390Y-80300814D01*
X109121789Y-80169711D01*
X109121786Y-80169707D01*
X109010292Y-80058213D01*
X109010288Y-80058210D01*
X108879185Y-79970609D01*
X108879172Y-79970602D01*
X108733501Y-79910264D01*
X108733489Y-79910261D01*
X108578845Y-79879500D01*
X108578842Y-79879500D01*
X108421158Y-79879500D01*
X108421155Y-79879500D01*
X108266510Y-79910261D01*
X108266498Y-79910264D01*
X108120827Y-79970602D01*
X108120814Y-79970609D01*
X107989711Y-80058210D01*
X107989707Y-80058213D01*
X107878213Y-80169707D01*
X107878210Y-80169711D01*
X107790609Y-80300814D01*
X107790602Y-80300827D01*
X107730264Y-80446498D01*
X107730261Y-80446510D01*
X107699500Y-80601153D01*
X100500500Y-80601153D01*
X100500500Y-79302190D01*
X100520185Y-79235151D01*
X100572989Y-79189396D01*
X100642147Y-79179452D01*
X100705703Y-79208477D01*
X100739061Y-79254738D01*
X100790602Y-79379172D01*
X100790609Y-79379185D01*
X100878210Y-79510288D01*
X100878213Y-79510292D01*
X100989707Y-79621786D01*
X100989711Y-79621789D01*
X101120814Y-79709390D01*
X101120827Y-79709397D01*
X101266498Y-79769735D01*
X101266503Y-79769737D01*
X101421153Y-79800499D01*
X101421156Y-79800500D01*
X101421158Y-79800500D01*
X101578844Y-79800500D01*
X101578845Y-79800499D01*
X101733497Y-79769737D01*
X101879179Y-79709394D01*
X102010289Y-79621789D01*
X102121789Y-79510289D01*
X102129145Y-79499279D01*
X102146898Y-79472712D01*
X102200510Y-79427906D01*
X102269835Y-79419199D01*
X102332862Y-79449353D01*
X102353102Y-79472712D01*
X102378207Y-79510284D01*
X102378213Y-79510292D01*
X102489707Y-79621786D01*
X102489711Y-79621789D01*
X102620814Y-79709390D01*
X102620827Y-79709397D01*
X102766498Y-79769735D01*
X102766503Y-79769737D01*
X102921153Y-79800499D01*
X102921156Y-79800500D01*
X102921158Y-79800500D01*
X103078844Y-79800500D01*
X103078845Y-79800499D01*
X103233497Y-79769737D01*
X103379179Y-79709394D01*
X103510289Y-79621789D01*
X103620925Y-79511153D01*
X122049500Y-79511153D01*
X122049500Y-79668846D01*
X122080261Y-79823489D01*
X122080264Y-79823501D01*
X122140602Y-79969172D01*
X122140609Y-79969185D01*
X122228210Y-80100288D01*
X122228213Y-80100292D01*
X122330240Y-80202319D01*
X122363725Y-80263642D01*
X122358741Y-80333334D01*
X122330240Y-80377681D01*
X122228213Y-80479707D01*
X122228210Y-80479711D01*
X122140609Y-80610814D01*
X122140602Y-80610827D01*
X122080264Y-80756498D01*
X122080261Y-80756510D01*
X122049500Y-80911153D01*
X122049500Y-81068846D01*
X122080261Y-81223489D01*
X122080264Y-81223501D01*
X122140602Y-81369172D01*
X122140609Y-81369185D01*
X122228210Y-81500288D01*
X122228213Y-81500292D01*
X122339707Y-81611786D01*
X122339711Y-81611789D01*
X122470814Y-81699390D01*
X122470827Y-81699397D01*
X122553163Y-81733501D01*
X122616503Y-81759737D01*
X122671831Y-81770742D01*
X122733740Y-81803126D01*
X122768315Y-81863841D01*
X122769256Y-81868166D01*
X122780261Y-81923492D01*
X122780264Y-81923501D01*
X122840602Y-82069172D01*
X122840609Y-82069185D01*
X122928210Y-82200288D01*
X122928213Y-82200292D01*
X123039707Y-82311786D01*
X123039711Y-82311789D01*
X123170814Y-82399390D01*
X123170827Y-82399397D01*
X123316498Y-82459735D01*
X123316503Y-82459737D01*
X123471153Y-82490499D01*
X123471156Y-82490500D01*
X123471158Y-82490500D01*
X123628844Y-82490500D01*
X123628845Y-82490499D01*
X123783497Y-82459737D01*
X123929179Y-82399394D01*
X124060289Y-82311789D01*
X124105580Y-82266498D01*
X124162319Y-82209760D01*
X124223642Y-82176275D01*
X124293334Y-82181259D01*
X124337681Y-82209760D01*
X124439707Y-82311786D01*
X124439711Y-82311789D01*
X124570814Y-82399390D01*
X124570827Y-82399397D01*
X124716498Y-82459735D01*
X124716503Y-82459737D01*
X124871153Y-82490499D01*
X124871156Y-82490500D01*
X124871158Y-82490500D01*
X125028844Y-82490500D01*
X125028845Y-82490499D01*
X125183497Y-82459737D01*
X125329179Y-82399394D01*
X125460289Y-82311789D01*
X125571789Y-82200289D01*
X125659394Y-82069179D01*
X125719737Y-81923497D01*
X125730743Y-81868166D01*
X125763125Y-81806258D01*
X125823841Y-81771683D01*
X125828118Y-81770752D01*
X125883497Y-81759737D01*
X126029179Y-81699394D01*
X126160289Y-81611789D01*
X126271789Y-81500289D01*
X126359394Y-81369179D01*
X126388667Y-81298507D01*
X127076854Y-81298507D01*
X127076854Y-81456200D01*
X127107615Y-81610843D01*
X127107618Y-81610855D01*
X127167956Y-81756526D01*
X127167963Y-81756539D01*
X127255564Y-81887642D01*
X127255567Y-81887646D01*
X127367061Y-81999140D01*
X127367065Y-81999143D01*
X127498168Y-82086744D01*
X127498181Y-82086751D01*
X127582779Y-82121792D01*
X127643857Y-82147091D01*
X127790574Y-82176275D01*
X127798507Y-82177853D01*
X127798510Y-82177854D01*
X127798512Y-82177854D01*
X127956198Y-82177854D01*
X127956199Y-82177853D01*
X128110851Y-82147091D01*
X128256533Y-82086748D01*
X128387643Y-81999143D01*
X128465633Y-81921153D01*
X132199500Y-81921153D01*
X132199500Y-82078846D01*
X132230261Y-82233489D01*
X132230264Y-82233501D01*
X132290602Y-82379172D01*
X132290609Y-82379185D01*
X132378210Y-82510288D01*
X132378213Y-82510292D01*
X132489707Y-82621786D01*
X132489711Y-82621789D01*
X132620814Y-82709390D01*
X132620827Y-82709397D01*
X132758683Y-82766498D01*
X132766503Y-82769737D01*
X132921153Y-82800499D01*
X132921156Y-82800500D01*
X132921158Y-82800500D01*
X133078844Y-82800500D01*
X133078845Y-82800499D01*
X133233497Y-82769737D01*
X133379179Y-82709394D01*
X133510289Y-82621789D01*
X133621789Y-82510289D01*
X133709394Y-82379179D01*
X133769737Y-82233497D01*
X133800500Y-82078842D01*
X133800500Y-81921158D01*
X133800500Y-81921155D01*
X133800499Y-81921153D01*
X133789099Y-81863841D01*
X133769737Y-81766503D01*
X133769735Y-81766498D01*
X133709397Y-81620827D01*
X133709390Y-81620814D01*
X133621790Y-81489712D01*
X133621784Y-81489705D01*
X133553232Y-81421153D01*
X134817500Y-81421153D01*
X134817500Y-81578846D01*
X134848261Y-81733489D01*
X134848264Y-81733501D01*
X134908602Y-81879172D01*
X134908609Y-81879185D01*
X134996210Y-82010288D01*
X134996213Y-82010292D01*
X135107707Y-82121786D01*
X135107710Y-82121788D01*
X135107711Y-82121789D01*
X135117662Y-82128438D01*
X135145289Y-82146898D01*
X135190093Y-82200511D01*
X135198800Y-82269836D01*
X135168645Y-82332863D01*
X135145289Y-82353102D01*
X135107707Y-82378213D01*
X134996213Y-82489707D01*
X134996210Y-82489711D01*
X134908609Y-82620814D01*
X134908602Y-82620827D01*
X134848264Y-82766498D01*
X134848261Y-82766510D01*
X134817500Y-82921153D01*
X134817500Y-83078846D01*
X134848261Y-83233489D01*
X134848264Y-83233501D01*
X134908602Y-83379172D01*
X134908609Y-83379185D01*
X134996210Y-83510288D01*
X134996213Y-83510292D01*
X135107707Y-83621786D01*
X135107711Y-83621789D01*
X135238814Y-83709390D01*
X135238827Y-83709397D01*
X135350810Y-83755781D01*
X135384503Y-83769737D01*
X135539153Y-83800499D01*
X135539156Y-83800500D01*
X135539158Y-83800500D01*
X135696844Y-83800500D01*
X135696845Y-83800499D01*
X135851497Y-83769737D01*
X135997179Y-83709394D01*
X136128289Y-83621789D01*
X136239789Y-83510289D01*
X136327394Y-83379179D01*
X136387737Y-83233497D01*
X136418500Y-83078842D01*
X136418500Y-82921158D01*
X136418500Y-82921155D01*
X136418499Y-82921153D01*
X136392531Y-82790606D01*
X136387737Y-82766503D01*
X136374062Y-82733489D01*
X136327397Y-82620827D01*
X136327390Y-82620814D01*
X136244340Y-82496522D01*
X136244339Y-82496521D01*
X136239789Y-82489711D01*
X136171231Y-82421153D01*
X142199500Y-82421153D01*
X142199500Y-82578846D01*
X142230261Y-82733489D01*
X142230264Y-82733501D01*
X142290602Y-82879172D01*
X142290609Y-82879185D01*
X142378210Y-83010288D01*
X142378213Y-83010292D01*
X142489707Y-83121786D01*
X142489711Y-83121789D01*
X142620814Y-83209390D01*
X142620827Y-83209397D01*
X142758683Y-83266498D01*
X142766503Y-83269737D01*
X142921153Y-83300499D01*
X142921156Y-83300500D01*
X142921158Y-83300500D01*
X143078844Y-83300500D01*
X143078845Y-83300499D01*
X143233497Y-83269737D01*
X143379179Y-83209394D01*
X143510289Y-83121789D01*
X143621789Y-83010289D01*
X143709394Y-82879179D01*
X143712550Y-82871561D01*
X143741984Y-82800499D01*
X143769737Y-82733497D01*
X143800500Y-82578842D01*
X143800500Y-82421158D01*
X143800500Y-82421155D01*
X143795410Y-82395568D01*
X143795410Y-82395567D01*
X143791406Y-82375441D01*
X144067000Y-82375441D01*
X144067000Y-82624558D01*
X144067001Y-82624575D01*
X144099517Y-82871561D01*
X144163998Y-83112207D01*
X144259330Y-83342361D01*
X144259337Y-83342376D01*
X144383900Y-83558126D01*
X144535560Y-83755774D01*
X144535566Y-83755781D01*
X144711718Y-83931933D01*
X144711725Y-83931939D01*
X144909373Y-84083599D01*
X145125123Y-84208162D01*
X145125138Y-84208169D01*
X145224325Y-84249253D01*
X145355293Y-84303502D01*
X145595935Y-84367982D01*
X145842935Y-84400500D01*
X145842942Y-84400500D01*
X146092058Y-84400500D01*
X146092065Y-84400500D01*
X146339065Y-84367982D01*
X146579707Y-84303502D01*
X146809873Y-84208164D01*
X147025627Y-84083599D01*
X147223276Y-83931938D01*
X147399438Y-83755776D01*
X147551099Y-83558127D01*
X147675664Y-83342373D01*
X147771002Y-83112207D01*
X147835482Y-82871565D01*
X147868000Y-82624565D01*
X147868000Y-82375435D01*
X147835482Y-82128435D01*
X147771002Y-81887793D01*
X147707092Y-81733501D01*
X147675669Y-81657638D01*
X147675662Y-81657623D01*
X147551099Y-81441873D01*
X147399439Y-81244225D01*
X147399433Y-81244218D01*
X147223281Y-81068066D01*
X147223274Y-81068060D01*
X147025626Y-80916400D01*
X146809876Y-80791837D01*
X146809861Y-80791830D01*
X146579707Y-80696498D01*
X146339061Y-80632017D01*
X146092075Y-80599501D01*
X146092070Y-80599500D01*
X146092065Y-80599500D01*
X145842935Y-80599500D01*
X145842929Y-80599500D01*
X145842924Y-80599501D01*
X145595938Y-80632017D01*
X145355292Y-80696498D01*
X145125138Y-80791830D01*
X145125123Y-80791837D01*
X144909373Y-80916400D01*
X144711725Y-81068060D01*
X144711718Y-81068066D01*
X144535566Y-81244218D01*
X144535560Y-81244225D01*
X144383900Y-81441873D01*
X144259337Y-81657623D01*
X144259330Y-81657638D01*
X144163998Y-81887792D01*
X144099517Y-82128438D01*
X144067001Y-82375424D01*
X144067000Y-82375441D01*
X143791406Y-82375441D01*
X143778744Y-82311786D01*
X143769737Y-82266503D01*
X143756062Y-82233489D01*
X143709397Y-82120827D01*
X143709390Y-82120814D01*
X143621789Y-81989711D01*
X143621786Y-81989707D01*
X143510292Y-81878213D01*
X143510288Y-81878210D01*
X143379185Y-81790609D01*
X143379172Y-81790602D01*
X143233501Y-81730264D01*
X143233489Y-81730261D01*
X143078845Y-81699500D01*
X143078842Y-81699500D01*
X142921158Y-81699500D01*
X142921155Y-81699500D01*
X142766510Y-81730261D01*
X142766498Y-81730264D01*
X142620827Y-81790602D01*
X142620814Y-81790609D01*
X142489711Y-81878210D01*
X142489707Y-81878213D01*
X142378213Y-81989707D01*
X142378210Y-81989711D01*
X142290609Y-82120814D01*
X142290602Y-82120827D01*
X142230264Y-82266498D01*
X142230261Y-82266510D01*
X142199500Y-82421153D01*
X136171231Y-82421153D01*
X136128289Y-82378211D01*
X136082709Y-82347755D01*
X136075627Y-82341237D01*
X136062386Y-82319208D01*
X136045906Y-82299490D01*
X136044683Y-82289759D01*
X136039631Y-82281353D01*
X136040401Y-82255661D01*
X136037199Y-82230165D01*
X136041431Y-82221319D01*
X136041725Y-82211515D01*
X136056261Y-82190320D01*
X136067353Y-82167138D01*
X136079206Y-82156867D01*
X136081245Y-82153895D01*
X136083951Y-82152755D01*
X136090712Y-82146898D01*
X136118343Y-82128435D01*
X136128289Y-82121789D01*
X136239789Y-82010289D01*
X136327394Y-81879179D01*
X136387737Y-81733497D01*
X136418500Y-81578842D01*
X136418500Y-81421158D01*
X136418500Y-81421155D01*
X136418499Y-81421153D01*
X136392531Y-81290606D01*
X136387737Y-81266503D01*
X136378819Y-81244973D01*
X136327397Y-81120827D01*
X136327390Y-81120814D01*
X136239789Y-80989711D01*
X136239786Y-80989707D01*
X136128292Y-80878213D01*
X136128288Y-80878210D01*
X135997185Y-80790609D01*
X135997172Y-80790602D01*
X135851501Y-80730264D01*
X135851489Y-80730261D01*
X135696845Y-80699500D01*
X135696842Y-80699500D01*
X135539158Y-80699500D01*
X135539155Y-80699500D01*
X135384510Y-80730261D01*
X135384498Y-80730264D01*
X135238827Y-80790602D01*
X135238814Y-80790609D01*
X135107711Y-80878210D01*
X135107707Y-80878213D01*
X134996213Y-80989707D01*
X134996210Y-80989711D01*
X134908609Y-81120814D01*
X134908602Y-81120827D01*
X134848264Y-81266498D01*
X134848261Y-81266510D01*
X134817500Y-81421153D01*
X133553232Y-81421153D01*
X133510292Y-81378213D01*
X133510288Y-81378210D01*
X133379185Y-81290609D01*
X133379172Y-81290602D01*
X133233501Y-81230264D01*
X133233489Y-81230261D01*
X133078845Y-81199500D01*
X133078842Y-81199500D01*
X132921158Y-81199500D01*
X132921155Y-81199500D01*
X132766510Y-81230261D01*
X132766498Y-81230264D01*
X132620827Y-81290602D01*
X132620814Y-81290609D01*
X132489711Y-81378210D01*
X132489707Y-81378213D01*
X132378213Y-81489707D01*
X132378210Y-81489711D01*
X132290609Y-81620814D01*
X132290602Y-81620827D01*
X132230264Y-81766498D01*
X132230261Y-81766510D01*
X132199500Y-81921153D01*
X128465633Y-81921153D01*
X128499143Y-81887643D01*
X128586748Y-81756533D01*
X128647091Y-81610851D01*
X128677854Y-81456196D01*
X128677854Y-81298512D01*
X128677854Y-81298509D01*
X128677853Y-81298507D01*
X128667204Y-81244973D01*
X128647091Y-81143857D01*
X128612019Y-81059185D01*
X128586751Y-80998181D01*
X128586744Y-80998168D01*
X128499143Y-80867065D01*
X128499140Y-80867061D01*
X128387646Y-80755567D01*
X128387642Y-80755564D01*
X128256539Y-80667963D01*
X128256526Y-80667956D01*
X128110855Y-80607618D01*
X128110843Y-80607615D01*
X127956199Y-80576854D01*
X127956196Y-80576854D01*
X127798512Y-80576854D01*
X127798509Y-80576854D01*
X127643864Y-80607615D01*
X127643852Y-80607618D01*
X127498181Y-80667956D01*
X127498168Y-80667963D01*
X127367065Y-80755564D01*
X127367061Y-80755567D01*
X127255567Y-80867061D01*
X127255564Y-80867065D01*
X127167963Y-80998168D01*
X127167956Y-80998181D01*
X127107618Y-81143852D01*
X127107615Y-81143864D01*
X127076854Y-81298507D01*
X126388667Y-81298507D01*
X126419737Y-81223497D01*
X126450500Y-81068842D01*
X126450500Y-80911158D01*
X126450500Y-80911155D01*
X126450499Y-80911153D01*
X126441729Y-80867065D01*
X126419737Y-80756503D01*
X126419349Y-80755567D01*
X126359397Y-80610827D01*
X126359390Y-80610814D01*
X126271789Y-80479711D01*
X126271786Y-80479707D01*
X126169760Y-80377681D01*
X126136275Y-80316358D01*
X126141259Y-80246666D01*
X126169760Y-80202319D01*
X126271786Y-80100292D01*
X126271789Y-80100289D01*
X126359394Y-79969179D01*
X126419737Y-79823497D01*
X126450500Y-79668842D01*
X126450500Y-79511158D01*
X126450500Y-79511155D01*
X126450499Y-79511153D01*
X126450326Y-79510284D01*
X126419737Y-79356503D01*
X126396540Y-79300499D01*
X126359397Y-79210827D01*
X126359390Y-79210814D01*
X126271789Y-79079711D01*
X126271786Y-79079707D01*
X126160292Y-78968213D01*
X126160288Y-78968210D01*
X126029185Y-78880609D01*
X126029172Y-78880602D01*
X125883501Y-78820264D01*
X125883492Y-78820261D01*
X125828166Y-78809256D01*
X125766256Y-78776870D01*
X125731682Y-78716154D01*
X125730750Y-78711874D01*
X125719737Y-78656503D01*
X125687569Y-78578842D01*
X125659397Y-78510827D01*
X125659390Y-78510814D01*
X125571789Y-78379711D01*
X125571786Y-78379707D01*
X125460292Y-78268213D01*
X125460288Y-78268210D01*
X125329185Y-78180609D01*
X125329172Y-78180602D01*
X125183501Y-78120264D01*
X125183489Y-78120261D01*
X125028845Y-78089500D01*
X125028842Y-78089500D01*
X124871158Y-78089500D01*
X124871155Y-78089500D01*
X124716510Y-78120261D01*
X124716498Y-78120264D01*
X124570827Y-78180602D01*
X124570814Y-78180609D01*
X124439711Y-78268210D01*
X124439707Y-78268213D01*
X124337681Y-78370240D01*
X124276358Y-78403725D01*
X124206666Y-78398741D01*
X124162319Y-78370240D01*
X124060292Y-78268213D01*
X124060288Y-78268210D01*
X123929185Y-78180609D01*
X123929172Y-78180602D01*
X123783501Y-78120264D01*
X123783489Y-78120261D01*
X123628845Y-78089500D01*
X123628842Y-78089500D01*
X123471158Y-78089500D01*
X123471155Y-78089500D01*
X123316510Y-78120261D01*
X123316498Y-78120264D01*
X123170827Y-78180602D01*
X123170814Y-78180609D01*
X123039711Y-78268210D01*
X123039707Y-78268213D01*
X122928213Y-78379707D01*
X122928210Y-78379711D01*
X122840609Y-78510814D01*
X122840602Y-78510827D01*
X122780264Y-78656498D01*
X122780262Y-78656505D01*
X122769256Y-78711833D01*
X122736870Y-78773743D01*
X122676153Y-78808316D01*
X122671833Y-78809256D01*
X122616505Y-78820262D01*
X122616498Y-78820264D01*
X122470827Y-78880602D01*
X122470814Y-78880609D01*
X122339711Y-78968210D01*
X122339707Y-78968213D01*
X122228213Y-79079707D01*
X122228210Y-79079711D01*
X122140609Y-79210814D01*
X122140602Y-79210827D01*
X122080264Y-79356498D01*
X122080261Y-79356510D01*
X122049500Y-79511153D01*
X103620925Y-79511153D01*
X103621789Y-79510289D01*
X103648894Y-79469722D01*
X103671311Y-79436175D01*
X103709390Y-79379185D01*
X103709390Y-79379184D01*
X103709394Y-79379179D01*
X103769737Y-79233497D01*
X103800500Y-79078842D01*
X103800500Y-78921158D01*
X103800500Y-78921155D01*
X103800499Y-78921153D01*
X103780431Y-78820264D01*
X103769737Y-78766503D01*
X103747092Y-78711833D01*
X103709397Y-78620827D01*
X103709390Y-78620814D01*
X103621790Y-78489712D01*
X103621784Y-78489705D01*
X103553232Y-78421153D01*
X104699500Y-78421153D01*
X104699500Y-78578846D01*
X104730261Y-78733489D01*
X104730264Y-78733501D01*
X104790602Y-78879172D01*
X104790609Y-78879185D01*
X104878210Y-79010288D01*
X104878213Y-79010292D01*
X104989707Y-79121786D01*
X104989711Y-79121789D01*
X105120814Y-79209390D01*
X105120827Y-79209397D01*
X105266498Y-79269735D01*
X105266503Y-79269737D01*
X105421153Y-79300499D01*
X105421156Y-79300500D01*
X105421158Y-79300500D01*
X105578844Y-79300500D01*
X105578845Y-79300499D01*
X105733497Y-79269737D01*
X105846166Y-79223067D01*
X105879172Y-79209397D01*
X105879172Y-79209396D01*
X105879179Y-79209394D01*
X106010289Y-79121789D01*
X106121789Y-79010289D01*
X106209394Y-78879179D01*
X106269737Y-78733497D01*
X106300500Y-78578842D01*
X106300500Y-78421158D01*
X106300500Y-78421155D01*
X106300499Y-78421153D01*
X106274531Y-78290606D01*
X106269737Y-78266503D01*
X106269735Y-78266498D01*
X106209397Y-78120827D01*
X106209390Y-78120814D01*
X106121789Y-77989711D01*
X106121786Y-77989707D01*
X106010292Y-77878213D01*
X106010288Y-77878210D01*
X105879185Y-77790609D01*
X105879172Y-77790602D01*
X105733501Y-77730264D01*
X105733489Y-77730261D01*
X105578845Y-77699500D01*
X105578842Y-77699500D01*
X105421158Y-77699500D01*
X105421155Y-77699500D01*
X105266510Y-77730261D01*
X105266498Y-77730264D01*
X105120827Y-77790602D01*
X105120814Y-77790609D01*
X104989711Y-77878210D01*
X104989707Y-77878213D01*
X104878213Y-77989707D01*
X104878210Y-77989711D01*
X104790609Y-78120814D01*
X104790602Y-78120827D01*
X104730264Y-78266498D01*
X104730261Y-78266510D01*
X104699500Y-78421153D01*
X103553232Y-78421153D01*
X103510292Y-78378213D01*
X103510288Y-78378210D01*
X103379185Y-78290609D01*
X103379172Y-78290602D01*
X103233501Y-78230264D01*
X103233489Y-78230261D01*
X103078845Y-78199500D01*
X103078842Y-78199500D01*
X102921158Y-78199500D01*
X102921155Y-78199500D01*
X102766510Y-78230261D01*
X102766498Y-78230264D01*
X102620827Y-78290602D01*
X102620814Y-78290609D01*
X102489711Y-78378210D01*
X102489707Y-78378213D01*
X102378213Y-78489707D01*
X102353102Y-78527289D01*
X102299489Y-78572093D01*
X102230164Y-78580800D01*
X102167137Y-78550645D01*
X102146898Y-78527289D01*
X102135890Y-78510814D01*
X102121789Y-78489711D01*
X102121788Y-78489710D01*
X102121786Y-78489707D01*
X102010292Y-78378213D01*
X102010288Y-78378210D01*
X101879185Y-78290609D01*
X101879172Y-78290602D01*
X101733501Y-78230264D01*
X101733489Y-78230261D01*
X101578845Y-78199500D01*
X101578842Y-78199500D01*
X101421158Y-78199500D01*
X101421155Y-78199500D01*
X101266510Y-78230261D01*
X101266498Y-78230264D01*
X101120827Y-78290602D01*
X101120814Y-78290609D01*
X100989711Y-78378210D01*
X100989707Y-78378213D01*
X100878213Y-78489707D01*
X100878210Y-78489711D01*
X100790609Y-78620814D01*
X100790602Y-78620827D01*
X100739061Y-78745261D01*
X100695220Y-78799665D01*
X100628926Y-78821730D01*
X100561227Y-78804451D01*
X100513616Y-78753314D01*
X100500500Y-78697809D01*
X100500500Y-73421153D01*
X101699500Y-73421153D01*
X101699500Y-73578846D01*
X101730261Y-73733489D01*
X101730264Y-73733501D01*
X101790602Y-73879172D01*
X101790609Y-73879185D01*
X101878210Y-74010288D01*
X101878213Y-74010292D01*
X101989707Y-74121786D01*
X101989711Y-74121789D01*
X102120814Y-74209390D01*
X102120827Y-74209397D01*
X102266498Y-74269735D01*
X102266503Y-74269737D01*
X102421153Y-74300499D01*
X102421156Y-74300500D01*
X102421158Y-74300500D01*
X102578844Y-74300500D01*
X102578845Y-74300499D01*
X102733497Y-74269737D01*
X102879179Y-74209394D01*
X103010289Y-74121789D01*
X103121789Y-74010289D01*
X103129145Y-73999279D01*
X103146898Y-73972712D01*
X103200510Y-73927906D01*
X103269835Y-73919199D01*
X103332862Y-73949353D01*
X103353102Y-73972712D01*
X103378207Y-74010284D01*
X103378213Y-74010292D01*
X103489707Y-74121786D01*
X103489711Y-74121789D01*
X103620814Y-74209390D01*
X103620827Y-74209397D01*
X103766498Y-74269735D01*
X103766503Y-74269737D01*
X103921153Y-74300499D01*
X103921156Y-74300500D01*
X103921158Y-74300500D01*
X104078844Y-74300500D01*
X104078845Y-74300499D01*
X104233497Y-74269737D01*
X104379179Y-74209394D01*
X104510289Y-74121789D01*
X104621789Y-74010289D01*
X104629145Y-73999279D01*
X104646898Y-73972712D01*
X104700510Y-73927906D01*
X104769835Y-73919199D01*
X104832862Y-73949353D01*
X104853102Y-73972712D01*
X104878207Y-74010284D01*
X104878213Y-74010292D01*
X104989707Y-74121786D01*
X104989711Y-74121789D01*
X105120814Y-74209390D01*
X105120827Y-74209397D01*
X105266498Y-74269735D01*
X105266503Y-74269737D01*
X105421153Y-74300499D01*
X105421156Y-74300500D01*
X105421158Y-74300500D01*
X105578844Y-74300500D01*
X105578845Y-74300499D01*
X105733497Y-74269737D01*
X105879179Y-74209394D01*
X106010289Y-74121789D01*
X106121789Y-74010289D01*
X106129145Y-73999279D01*
X106146898Y-73972712D01*
X106200510Y-73927906D01*
X106269835Y-73919199D01*
X106332862Y-73949353D01*
X106353102Y-73972712D01*
X106378207Y-74010284D01*
X106378213Y-74010292D01*
X106489707Y-74121786D01*
X106489711Y-74121789D01*
X106620814Y-74209390D01*
X106620827Y-74209397D01*
X106766498Y-74269735D01*
X106766503Y-74269737D01*
X106921153Y-74300499D01*
X106921156Y-74300500D01*
X106921158Y-74300500D01*
X107078844Y-74300500D01*
X107078845Y-74300499D01*
X107233497Y-74269737D01*
X107326648Y-74231153D01*
X108199500Y-74231153D01*
X108199500Y-74388846D01*
X108230261Y-74543489D01*
X108230264Y-74543501D01*
X108290602Y-74689172D01*
X108290609Y-74689185D01*
X108378210Y-74820288D01*
X108378213Y-74820292D01*
X108489707Y-74931786D01*
X108489711Y-74931789D01*
X108620814Y-75019390D01*
X108620827Y-75019397D01*
X108766498Y-75079735D01*
X108766503Y-75079737D01*
X108921153Y-75110499D01*
X108921156Y-75110500D01*
X108921158Y-75110500D01*
X109078844Y-75110500D01*
X109078845Y-75110499D01*
X109233497Y-75079737D01*
X109379179Y-75019394D01*
X109510289Y-74931789D01*
X109621789Y-74820289D01*
X109709394Y-74689179D01*
X109740217Y-74614763D01*
X109784055Y-74560363D01*
X109850349Y-74538297D01*
X109918049Y-74555575D01*
X109942458Y-74574537D01*
X109989707Y-74621786D01*
X109989711Y-74621789D01*
X110120814Y-74709390D01*
X110120827Y-74709397D01*
X110266498Y-74769735D01*
X110266503Y-74769737D01*
X110421153Y-74800499D01*
X110421156Y-74800500D01*
X110421158Y-74800500D01*
X110578844Y-74800500D01*
X110578845Y-74800499D01*
X110733497Y-74769737D01*
X110879179Y-74709394D01*
X111010289Y-74621789D01*
X111121789Y-74510289D01*
X111209394Y-74379179D01*
X111269737Y-74233497D01*
X111279508Y-74184373D01*
X111311892Y-74122464D01*
X111372607Y-74087890D01*
X111442377Y-74091629D01*
X111484696Y-74118295D01*
X111485001Y-74117924D01*
X111487957Y-74120350D01*
X111488806Y-74120885D01*
X111489707Y-74121786D01*
X111489711Y-74121789D01*
X111620814Y-74209390D01*
X111620827Y-74209397D01*
X111766498Y-74269735D01*
X111766503Y-74269737D01*
X111921153Y-74300499D01*
X111921156Y-74300500D01*
X111921158Y-74300500D01*
X112078844Y-74300500D01*
X112078845Y-74300499D01*
X112233497Y-74269737D01*
X112379179Y-74209394D01*
X112510289Y-74121789D01*
X112621789Y-74010289D01*
X112709394Y-73879179D01*
X112769737Y-73733497D01*
X112800500Y-73578842D01*
X112800500Y-73421158D01*
X112800500Y-73421155D01*
X112800499Y-73421153D01*
X112774531Y-73290606D01*
X112769737Y-73266503D01*
X112769735Y-73266498D01*
X112709397Y-73120827D01*
X112709390Y-73120814D01*
X112621789Y-72989711D01*
X112621786Y-72989707D01*
X112510292Y-72878213D01*
X112510288Y-72878210D01*
X112379185Y-72790609D01*
X112379172Y-72790602D01*
X112233501Y-72730264D01*
X112233489Y-72730261D01*
X112078845Y-72699500D01*
X112078842Y-72699500D01*
X111921158Y-72699500D01*
X111921155Y-72699500D01*
X111766510Y-72730261D01*
X111766498Y-72730264D01*
X111620827Y-72790602D01*
X111620814Y-72790609D01*
X111489711Y-72878210D01*
X111489707Y-72878213D01*
X111378213Y-72989707D01*
X111378210Y-72989711D01*
X111290609Y-73120814D01*
X111290602Y-73120827D01*
X111230264Y-73266498D01*
X111230261Y-73266507D01*
X111220491Y-73315626D01*
X111188105Y-73377536D01*
X111127389Y-73412110D01*
X111057620Y-73408369D01*
X111015303Y-73381704D01*
X111014999Y-73382076D01*
X111012040Y-73379647D01*
X111011193Y-73379114D01*
X111010292Y-73378213D01*
X111010288Y-73378210D01*
X110879185Y-73290609D01*
X110879172Y-73290602D01*
X110733501Y-73230264D01*
X110733489Y-73230261D01*
X110578845Y-73199500D01*
X110578842Y-73199500D01*
X110421158Y-73199500D01*
X110421155Y-73199500D01*
X110266510Y-73230261D01*
X110266498Y-73230264D01*
X110120827Y-73290602D01*
X110120814Y-73290609D01*
X109989711Y-73378210D01*
X109989707Y-73378213D01*
X109878213Y-73489707D01*
X109878210Y-73489711D01*
X109790609Y-73620814D01*
X109790604Y-73620823D01*
X109759783Y-73695234D01*
X109715942Y-73749637D01*
X109649648Y-73771702D01*
X109581949Y-73754423D01*
X109557541Y-73735462D01*
X109510292Y-73688213D01*
X109510288Y-73688210D01*
X109379185Y-73600609D01*
X109379172Y-73600602D01*
X109233501Y-73540264D01*
X109233489Y-73540261D01*
X109078845Y-73509500D01*
X109078842Y-73509500D01*
X108921158Y-73509500D01*
X108921155Y-73509500D01*
X108766510Y-73540261D01*
X108766498Y-73540264D01*
X108620827Y-73600602D01*
X108620814Y-73600609D01*
X108489711Y-73688210D01*
X108489707Y-73688213D01*
X108378213Y-73799707D01*
X108378210Y-73799711D01*
X108290609Y-73930814D01*
X108290602Y-73930827D01*
X108230264Y-74076498D01*
X108230261Y-74076510D01*
X108199500Y-74231153D01*
X107326648Y-74231153D01*
X107379179Y-74209394D01*
X107416621Y-74184376D01*
X107510028Y-74121964D01*
X107510194Y-74121852D01*
X107510289Y-74121789D01*
X107621789Y-74010289D01*
X107709394Y-73879179D01*
X107769737Y-73733497D01*
X107800500Y-73578842D01*
X107800500Y-73421158D01*
X107800500Y-73421155D01*
X107800499Y-73421153D01*
X107774531Y-73290606D01*
X107769737Y-73266503D01*
X107769735Y-73266498D01*
X107709397Y-73120827D01*
X107709390Y-73120814D01*
X107621789Y-72989711D01*
X107621786Y-72989707D01*
X107510292Y-72878213D01*
X107510288Y-72878210D01*
X107379185Y-72790609D01*
X107379172Y-72790602D01*
X107233501Y-72730264D01*
X107233489Y-72730261D01*
X107078845Y-72699500D01*
X107078842Y-72699500D01*
X106921158Y-72699500D01*
X106915066Y-72699500D01*
X106915066Y-72698298D01*
X106910653Y-72699427D01*
X106884094Y-72690602D01*
X106856687Y-72684928D01*
X106851388Y-72679734D01*
X106844347Y-72677395D01*
X106826772Y-72655608D01*
X106806788Y-72636022D01*
X106805138Y-72628790D01*
X106800479Y-72623014D01*
X106797473Y-72595185D01*
X106791250Y-72567902D01*
X106793586Y-72559204D01*
X106792976Y-72553548D01*
X106800134Y-72534834D01*
X106804106Y-72520054D01*
X106806572Y-72515119D01*
X106821355Y-72491153D01*
X116199500Y-72491153D01*
X116199500Y-72648846D01*
X116230261Y-72803489D01*
X116230264Y-72803501D01*
X116290602Y-72949172D01*
X116290609Y-72949185D01*
X116378210Y-73080288D01*
X116378213Y-73080292D01*
X116489707Y-73191786D01*
X116489711Y-73191789D01*
X116620814Y-73279390D01*
X116620827Y-73279397D01*
X116708293Y-73315626D01*
X116766503Y-73339737D01*
X116921153Y-73370499D01*
X116921156Y-73370500D01*
X116921158Y-73370500D01*
X117078844Y-73370500D01*
X117078845Y-73370499D01*
X117233497Y-73339737D01*
X117379179Y-73279394D01*
X117510289Y-73191789D01*
X117621789Y-73080289D01*
X117709394Y-72949179D01*
X117769737Y-72803497D01*
X117800500Y-72648842D01*
X117800500Y-72491158D01*
X117800500Y-72491155D01*
X117800499Y-72491153D01*
X117790177Y-72439257D01*
X117786576Y-72421153D01*
X125199500Y-72421153D01*
X125199500Y-72578846D01*
X125230261Y-72733489D01*
X125230264Y-72733501D01*
X125290602Y-72879172D01*
X125290609Y-72879185D01*
X125378210Y-73010288D01*
X125378213Y-73010292D01*
X125489707Y-73121786D01*
X125489711Y-73121789D01*
X125620814Y-73209390D01*
X125620827Y-73209397D01*
X125758683Y-73266498D01*
X125766503Y-73269737D01*
X125921153Y-73300499D01*
X125921156Y-73300500D01*
X125921158Y-73300500D01*
X126078844Y-73300500D01*
X126078845Y-73300499D01*
X126233497Y-73269737D01*
X126379179Y-73209394D01*
X126510289Y-73121789D01*
X126621789Y-73010289D01*
X126709394Y-72879179D01*
X126769737Y-72733497D01*
X126800500Y-72578842D01*
X126800500Y-72421158D01*
X126800500Y-72421155D01*
X126800499Y-72421153D01*
X126769738Y-72266510D01*
X126769737Y-72266503D01*
X126742192Y-72200002D01*
X126709397Y-72120827D01*
X126709390Y-72120814D01*
X126621789Y-71989711D01*
X126621786Y-71989707D01*
X126510292Y-71878213D01*
X126510288Y-71878210D01*
X126379185Y-71790609D01*
X126379172Y-71790602D01*
X126233501Y-71730264D01*
X126233489Y-71730261D01*
X126078845Y-71699500D01*
X126078842Y-71699500D01*
X125921158Y-71699500D01*
X125921155Y-71699500D01*
X125766510Y-71730261D01*
X125766498Y-71730264D01*
X125620827Y-71790602D01*
X125620814Y-71790609D01*
X125489711Y-71878210D01*
X125489707Y-71878213D01*
X125378213Y-71989707D01*
X125378210Y-71989711D01*
X125290609Y-72120814D01*
X125290602Y-72120827D01*
X125230264Y-72266498D01*
X125230261Y-72266510D01*
X125199500Y-72421153D01*
X117786576Y-72421153D01*
X117769738Y-72336508D01*
X117769737Y-72336507D01*
X117769737Y-72336503D01*
X117754824Y-72300499D01*
X117709397Y-72190827D01*
X117709390Y-72190814D01*
X117621789Y-72059711D01*
X117621786Y-72059707D01*
X117510292Y-71948213D01*
X117510288Y-71948210D01*
X117379185Y-71860609D01*
X117379172Y-71860602D01*
X117233501Y-71800264D01*
X117233489Y-71800261D01*
X117078845Y-71769500D01*
X117078842Y-71769500D01*
X116921158Y-71769500D01*
X116921155Y-71769500D01*
X116766510Y-71800261D01*
X116766498Y-71800264D01*
X116620827Y-71860602D01*
X116620814Y-71860609D01*
X116489711Y-71948210D01*
X116489707Y-71948213D01*
X116378213Y-72059707D01*
X116378210Y-72059711D01*
X116290609Y-72190814D01*
X116290602Y-72190827D01*
X116230264Y-72336498D01*
X116230261Y-72336510D01*
X116199500Y-72491153D01*
X106821355Y-72491153D01*
X106834814Y-72469334D01*
X106889999Y-72302797D01*
X106900500Y-72200008D01*
X106900500Y-70421153D01*
X125699500Y-70421153D01*
X125699500Y-70578846D01*
X125730261Y-70733489D01*
X125730264Y-70733501D01*
X125790602Y-70879172D01*
X125790609Y-70879185D01*
X125878210Y-71010288D01*
X125878213Y-71010292D01*
X125989707Y-71121786D01*
X125989711Y-71121789D01*
X126120814Y-71209390D01*
X126120827Y-71209397D01*
X126234425Y-71256450D01*
X126266503Y-71269737D01*
X126421153Y-71300499D01*
X126421156Y-71300500D01*
X126421158Y-71300500D01*
X126578844Y-71300500D01*
X126578845Y-71300499D01*
X126733497Y-71269737D01*
X126879179Y-71209394D01*
X127010289Y-71121789D01*
X127121789Y-71010289D01*
X127209394Y-70879179D01*
X127269737Y-70733497D01*
X127300500Y-70578842D01*
X127300500Y-70421158D01*
X127300500Y-70421155D01*
X127300499Y-70421153D01*
X134199500Y-70421153D01*
X134199500Y-70578846D01*
X134230261Y-70733489D01*
X134230264Y-70733501D01*
X134290602Y-70879172D01*
X134290609Y-70879185D01*
X134378210Y-71010288D01*
X134378213Y-71010292D01*
X134489707Y-71121786D01*
X134489711Y-71121789D01*
X134620817Y-71209392D01*
X134620819Y-71209393D01*
X134620821Y-71209394D01*
X134638409Y-71216679D01*
X134692812Y-71260520D01*
X134714877Y-71326814D01*
X134712573Y-71355431D01*
X134699500Y-71421153D01*
X134699500Y-71578846D01*
X134730261Y-71733489D01*
X134730264Y-71733501D01*
X134790602Y-71879172D01*
X134790609Y-71879185D01*
X134878210Y-72010288D01*
X134878213Y-72010292D01*
X134989707Y-72121786D01*
X134989711Y-72121789D01*
X135120814Y-72209390D01*
X135120827Y-72209397D01*
X135258683Y-72266498D01*
X135266503Y-72269737D01*
X135421153Y-72300499D01*
X135421156Y-72300500D01*
X135421158Y-72300500D01*
X135578844Y-72300500D01*
X135578845Y-72300499D01*
X135733497Y-72269737D01*
X135879179Y-72209394D01*
X136010289Y-72121789D01*
X136121789Y-72010289D01*
X136209394Y-71879179D01*
X136269737Y-71733497D01*
X136300500Y-71578842D01*
X136300500Y-71421158D01*
X136300500Y-71421155D01*
X136300499Y-71421153D01*
X136287426Y-71355431D01*
X136269737Y-71266503D01*
X136250424Y-71219879D01*
X136242956Y-71150410D01*
X136274231Y-71087931D01*
X136334320Y-71052279D01*
X136404145Y-71054773D01*
X136452667Y-71084746D01*
X136489707Y-71121786D01*
X136489711Y-71121789D01*
X136620814Y-71209390D01*
X136620827Y-71209397D01*
X136734425Y-71256450D01*
X136766503Y-71269737D01*
X136921153Y-71300499D01*
X136921156Y-71300500D01*
X136921158Y-71300500D01*
X137078844Y-71300500D01*
X137078845Y-71300499D01*
X137233497Y-71269737D01*
X137379179Y-71209394D01*
X137510289Y-71121789D01*
X137621789Y-71010289D01*
X137709394Y-70879179D01*
X137769737Y-70733497D01*
X137800500Y-70578842D01*
X137800500Y-70421158D01*
X137800500Y-70421155D01*
X137800499Y-70421153D01*
X137769738Y-70266510D01*
X137769737Y-70266503D01*
X137709794Y-70121786D01*
X137709397Y-70120827D01*
X137709390Y-70120814D01*
X137621789Y-69989711D01*
X137621786Y-69989707D01*
X137510292Y-69878213D01*
X137510288Y-69878210D01*
X137379185Y-69790609D01*
X137379172Y-69790602D01*
X137233501Y-69730264D01*
X137233489Y-69730261D01*
X137078845Y-69699500D01*
X137078842Y-69699500D01*
X136921158Y-69699500D01*
X136921155Y-69699500D01*
X136766510Y-69730261D01*
X136766498Y-69730264D01*
X136620827Y-69790602D01*
X136620814Y-69790609D01*
X136489711Y-69878210D01*
X136489707Y-69878213D01*
X136378213Y-69989707D01*
X136378210Y-69989711D01*
X136290609Y-70120814D01*
X136290602Y-70120827D01*
X136230264Y-70266498D01*
X136230261Y-70266510D01*
X136199500Y-70421153D01*
X136199500Y-70578846D01*
X136230261Y-70733489D01*
X136230263Y-70733497D01*
X136249575Y-70780120D01*
X136257043Y-70849590D01*
X136225767Y-70912069D01*
X136165678Y-70947721D01*
X136095853Y-70945226D01*
X136047332Y-70915253D01*
X136010292Y-70878213D01*
X136010288Y-70878210D01*
X135879185Y-70790609D01*
X135879179Y-70790606D01*
X135861589Y-70783320D01*
X135807186Y-70739478D01*
X135785122Y-70673184D01*
X135787425Y-70644571D01*
X135800500Y-70578842D01*
X135800500Y-70421158D01*
X135800500Y-70421155D01*
X135800499Y-70421153D01*
X135769738Y-70266510D01*
X135769737Y-70266503D01*
X135709794Y-70121786D01*
X135709397Y-70120827D01*
X135709390Y-70120814D01*
X135621789Y-69989711D01*
X135621786Y-69989707D01*
X135510292Y-69878213D01*
X135510288Y-69878210D01*
X135379185Y-69790609D01*
X135379172Y-69790602D01*
X135233501Y-69730264D01*
X135233489Y-69730261D01*
X135078845Y-69699500D01*
X135078842Y-69699500D01*
X134921158Y-69699500D01*
X134921155Y-69699500D01*
X134766510Y-69730261D01*
X134766498Y-69730264D01*
X134620827Y-69790602D01*
X134620814Y-69790609D01*
X134489711Y-69878210D01*
X134489707Y-69878213D01*
X134378213Y-69989707D01*
X134378210Y-69989711D01*
X134290609Y-70120814D01*
X134290602Y-70120827D01*
X134230264Y-70266498D01*
X134230261Y-70266510D01*
X134199500Y-70421153D01*
X127300499Y-70421153D01*
X127269738Y-70266510D01*
X127269737Y-70266503D01*
X127209794Y-70121786D01*
X127209397Y-70120827D01*
X127209390Y-70120814D01*
X127121789Y-69989711D01*
X127121786Y-69989707D01*
X127010292Y-69878213D01*
X127010288Y-69878210D01*
X126879185Y-69790609D01*
X126879172Y-69790602D01*
X126733501Y-69730264D01*
X126733489Y-69730261D01*
X126578845Y-69699500D01*
X126578842Y-69699500D01*
X126421158Y-69699500D01*
X126421155Y-69699500D01*
X126266510Y-69730261D01*
X126266498Y-69730264D01*
X126120827Y-69790602D01*
X126120814Y-69790609D01*
X125989711Y-69878210D01*
X125989707Y-69878213D01*
X125878213Y-69989707D01*
X125878210Y-69989711D01*
X125790609Y-70120814D01*
X125790602Y-70120827D01*
X125730264Y-70266498D01*
X125730261Y-70266510D01*
X125699500Y-70421153D01*
X106900500Y-70421153D01*
X106900500Y-69799992D01*
X106889999Y-69697203D01*
X106834814Y-69530666D01*
X106767265Y-69421153D01*
X128199500Y-69421153D01*
X128199500Y-69578846D01*
X128230261Y-69733489D01*
X128230264Y-69733501D01*
X128290602Y-69879172D01*
X128290609Y-69879185D01*
X128378210Y-70010288D01*
X128378213Y-70010292D01*
X128489707Y-70121786D01*
X128489711Y-70121789D01*
X128620814Y-70209390D01*
X128620827Y-70209397D01*
X128758683Y-70266498D01*
X128766503Y-70269737D01*
X128921153Y-70300499D01*
X128921156Y-70300500D01*
X128921158Y-70300500D01*
X129078844Y-70300500D01*
X129078845Y-70300499D01*
X129089179Y-70298443D01*
X129114287Y-70293450D01*
X129114292Y-70293449D01*
X129199800Y-70276439D01*
X129233497Y-70269737D01*
X129379179Y-70209394D01*
X129510289Y-70121789D01*
X129621789Y-70010289D01*
X129709394Y-69879179D01*
X129769737Y-69733497D01*
X129800500Y-69578842D01*
X129800500Y-69421158D01*
X129800500Y-69421155D01*
X129800499Y-69421153D01*
X129769738Y-69266510D01*
X129769737Y-69266503D01*
X129769735Y-69266498D01*
X129709397Y-69120827D01*
X129709390Y-69120814D01*
X129621789Y-68989711D01*
X129621786Y-68989707D01*
X129510292Y-68878213D01*
X129510288Y-68878210D01*
X129379185Y-68790609D01*
X129379172Y-68790602D01*
X129233501Y-68730264D01*
X129233489Y-68730261D01*
X129078845Y-68699500D01*
X129078842Y-68699500D01*
X128921158Y-68699500D01*
X128921155Y-68699500D01*
X128766510Y-68730261D01*
X128766498Y-68730264D01*
X128620827Y-68790602D01*
X128620814Y-68790609D01*
X128489711Y-68878210D01*
X128489707Y-68878213D01*
X128378213Y-68989707D01*
X128378210Y-68989711D01*
X128290609Y-69120814D01*
X128290602Y-69120827D01*
X128230264Y-69266498D01*
X128230261Y-69266510D01*
X128199500Y-69421153D01*
X106767265Y-69421153D01*
X106742711Y-69381345D01*
X106618655Y-69257289D01*
X106618651Y-69257286D01*
X106469337Y-69165187D01*
X106469335Y-69165186D01*
X106386065Y-69137593D01*
X106302797Y-69110001D01*
X106302795Y-69110000D01*
X106200015Y-69099500D01*
X106200008Y-69099500D01*
X103799992Y-69099500D01*
X103799984Y-69099500D01*
X103697204Y-69110000D01*
X103697203Y-69110001D01*
X103530664Y-69165186D01*
X103530662Y-69165187D01*
X103381348Y-69257286D01*
X103381344Y-69257289D01*
X103257289Y-69381344D01*
X103257286Y-69381348D01*
X103165187Y-69530662D01*
X103165186Y-69530664D01*
X103110001Y-69697203D01*
X103110000Y-69697204D01*
X103099500Y-69799984D01*
X103099500Y-72200015D01*
X103110000Y-72302795D01*
X103110001Y-72302797D01*
X103137593Y-72386065D01*
X103165186Y-72469335D01*
X103165187Y-72469337D01*
X103257286Y-72618651D01*
X103257289Y-72618655D01*
X103381345Y-72742711D01*
X103398702Y-72753417D01*
X103410770Y-72766834D01*
X103426096Y-72776364D01*
X103433649Y-72792271D01*
X103445426Y-72805365D01*
X103448324Y-72823177D01*
X103456065Y-72839480D01*
X103453818Y-72856947D01*
X103456647Y-72874328D01*
X103449455Y-72890879D01*
X103447154Y-72908779D01*
X103432117Y-72930783D01*
X103428804Y-72938410D01*
X103428517Y-72938752D01*
X103425070Y-72942851D01*
X103378211Y-72989711D01*
X103349311Y-73032962D01*
X103344913Y-73038194D01*
X103321267Y-73053893D01*
X103299489Y-73072093D01*
X103292540Y-73072965D01*
X103286705Y-73076840D01*
X103258322Y-73077263D01*
X103230164Y-73080800D01*
X103223846Y-73077777D01*
X103216843Y-73077882D01*
X103192737Y-73062893D01*
X103167137Y-73050645D01*
X103160241Y-73042687D01*
X103157508Y-73040988D01*
X103155979Y-73037769D01*
X103146898Y-73027289D01*
X103121786Y-72989707D01*
X103010292Y-72878213D01*
X103010288Y-72878210D01*
X102879185Y-72790609D01*
X102879172Y-72790602D01*
X102733501Y-72730264D01*
X102733489Y-72730261D01*
X102578845Y-72699500D01*
X102578842Y-72699500D01*
X102421158Y-72699500D01*
X102421155Y-72699500D01*
X102266510Y-72730261D01*
X102266498Y-72730264D01*
X102120827Y-72790602D01*
X102120814Y-72790609D01*
X101989711Y-72878210D01*
X101989707Y-72878213D01*
X101878213Y-72989707D01*
X101878210Y-72989711D01*
X101790609Y-73120814D01*
X101790602Y-73120827D01*
X101730264Y-73266498D01*
X101730261Y-73266510D01*
X101699500Y-73421153D01*
X100500500Y-73421153D01*
X100500500Y-65875441D01*
X103099500Y-65875441D01*
X103099500Y-66124558D01*
X103099501Y-66124575D01*
X103132017Y-66371561D01*
X103196498Y-66612207D01*
X103291830Y-66842361D01*
X103291837Y-66842376D01*
X103416400Y-67058126D01*
X103568060Y-67255774D01*
X103568066Y-67255781D01*
X103744218Y-67431933D01*
X103744225Y-67431939D01*
X103941873Y-67583599D01*
X104157623Y-67708162D01*
X104157638Y-67708169D01*
X104256825Y-67749253D01*
X104387793Y-67803502D01*
X104628435Y-67867982D01*
X104875435Y-67900500D01*
X104875442Y-67900500D01*
X105124558Y-67900500D01*
X105124565Y-67900500D01*
X105371565Y-67867982D01*
X105612207Y-67803502D01*
X105842373Y-67708164D01*
X106058127Y-67583599D01*
X106255776Y-67431938D01*
X106431938Y-67255776D01*
X106583599Y-67058127D01*
X106708164Y-66842373D01*
X106803502Y-66612207D01*
X106867982Y-66371565D01*
X106874619Y-66321153D01*
X119699500Y-66321153D01*
X119699500Y-66478846D01*
X119730261Y-66633489D01*
X119730264Y-66633501D01*
X119790602Y-66779172D01*
X119790609Y-66779185D01*
X119878210Y-66910288D01*
X119878213Y-66910292D01*
X119989707Y-67021786D01*
X119989711Y-67021789D01*
X120120814Y-67109390D01*
X120120827Y-67109397D01*
X120266498Y-67169735D01*
X120266503Y-67169737D01*
X120421153Y-67200499D01*
X120421156Y-67200500D01*
X120421158Y-67200500D01*
X120578844Y-67200500D01*
X120578845Y-67200499D01*
X120733497Y-67169737D01*
X120879179Y-67109394D01*
X121010289Y-67021789D01*
X121121789Y-66910289D01*
X121209394Y-66779179D01*
X121269737Y-66633497D01*
X121300500Y-66478842D01*
X121300500Y-66421153D01*
X126699500Y-66421153D01*
X126699500Y-66578846D01*
X126730261Y-66733489D01*
X126730264Y-66733501D01*
X126790602Y-66879172D01*
X126790609Y-66879185D01*
X126878210Y-67010288D01*
X126878213Y-67010292D01*
X126989707Y-67121786D01*
X126989711Y-67121789D01*
X127120814Y-67209390D01*
X127120827Y-67209397D01*
X127232810Y-67255781D01*
X127266503Y-67269737D01*
X127421153Y-67300499D01*
X127421156Y-67300500D01*
X127421158Y-67300500D01*
X127578844Y-67300500D01*
X127578845Y-67300499D01*
X127733497Y-67269737D01*
X127879179Y-67209394D01*
X128010289Y-67121789D01*
X128121789Y-67010289D01*
X128181348Y-66921153D01*
X128699500Y-66921153D01*
X128699500Y-67078846D01*
X128730261Y-67233489D01*
X128730264Y-67233501D01*
X128790602Y-67379172D01*
X128790609Y-67379185D01*
X128878210Y-67510288D01*
X128878213Y-67510292D01*
X128989707Y-67621786D01*
X128989711Y-67621789D01*
X129120814Y-67709390D01*
X129120827Y-67709397D01*
X129266498Y-67769735D01*
X129266503Y-67769737D01*
X129421153Y-67800499D01*
X129421156Y-67800500D01*
X129421158Y-67800500D01*
X129578844Y-67800500D01*
X129578845Y-67800499D01*
X129733497Y-67769737D01*
X129879179Y-67709394D01*
X130010289Y-67621789D01*
X130121789Y-67510289D01*
X130209394Y-67379179D01*
X130269737Y-67233497D01*
X130300500Y-67078842D01*
X130300500Y-66921158D01*
X130300500Y-66921155D01*
X130300499Y-66921153D01*
X130284829Y-66842376D01*
X130269737Y-66766503D01*
X130256062Y-66733489D01*
X130209397Y-66620827D01*
X130209390Y-66620814D01*
X130121789Y-66489711D01*
X130121786Y-66489707D01*
X130010292Y-66378213D01*
X130010288Y-66378210D01*
X129879185Y-66290609D01*
X129879172Y-66290602D01*
X129733501Y-66230264D01*
X129733489Y-66230261D01*
X129578845Y-66199500D01*
X129578842Y-66199500D01*
X129421158Y-66199500D01*
X129421155Y-66199500D01*
X129266510Y-66230261D01*
X129266498Y-66230264D01*
X129120827Y-66290602D01*
X129120814Y-66290609D01*
X128989711Y-66378210D01*
X128989707Y-66378213D01*
X128878213Y-66489707D01*
X128878210Y-66489711D01*
X128790609Y-66620814D01*
X128790602Y-66620827D01*
X128730264Y-66766498D01*
X128730261Y-66766510D01*
X128699500Y-66921153D01*
X128181348Y-66921153D01*
X128209394Y-66879179D01*
X128269737Y-66733497D01*
X128300500Y-66578842D01*
X128300500Y-66421158D01*
X128300500Y-66421155D01*
X128300499Y-66421153D01*
X128290634Y-66371561D01*
X128269737Y-66266503D01*
X128269735Y-66266498D01*
X128209397Y-66120827D01*
X128209390Y-66120814D01*
X128121789Y-65989711D01*
X128121786Y-65989707D01*
X128010292Y-65878213D01*
X128010288Y-65878210D01*
X127879185Y-65790609D01*
X127879172Y-65790602D01*
X127733501Y-65730264D01*
X127733489Y-65730261D01*
X127578845Y-65699500D01*
X127578842Y-65699500D01*
X127421158Y-65699500D01*
X127421155Y-65699500D01*
X127266510Y-65730261D01*
X127266498Y-65730264D01*
X127120827Y-65790602D01*
X127120814Y-65790609D01*
X126989711Y-65878210D01*
X126989707Y-65878213D01*
X126878213Y-65989707D01*
X126878210Y-65989711D01*
X126790609Y-66120814D01*
X126790602Y-66120827D01*
X126730264Y-66266498D01*
X126730261Y-66266510D01*
X126699500Y-66421153D01*
X121300500Y-66421153D01*
X121300500Y-66321158D01*
X121300500Y-66321155D01*
X121300499Y-66321153D01*
X121278269Y-66209397D01*
X121269737Y-66166503D01*
X121250812Y-66120814D01*
X121209397Y-66020827D01*
X121209390Y-66020814D01*
X121121789Y-65889711D01*
X121121786Y-65889707D01*
X121010292Y-65778213D01*
X121010288Y-65778210D01*
X120879185Y-65690609D01*
X120879172Y-65690602D01*
X120733501Y-65630264D01*
X120733489Y-65630261D01*
X120578845Y-65599500D01*
X120578842Y-65599500D01*
X120421158Y-65599500D01*
X120421155Y-65599500D01*
X120266510Y-65630261D01*
X120266498Y-65630264D01*
X120120827Y-65690602D01*
X120120814Y-65690609D01*
X119989711Y-65778210D01*
X119989707Y-65778213D01*
X119878213Y-65889707D01*
X119878210Y-65889711D01*
X119790609Y-66020814D01*
X119790602Y-66020827D01*
X119730264Y-66166498D01*
X119730261Y-66166510D01*
X119699500Y-66321153D01*
X106874619Y-66321153D01*
X106900500Y-66124565D01*
X106900500Y-65875435D01*
X106867982Y-65628435D01*
X106812441Y-65421153D01*
X139699500Y-65421153D01*
X139699500Y-65578846D01*
X139730261Y-65733489D01*
X139730264Y-65733501D01*
X139790602Y-65879172D01*
X139790609Y-65879185D01*
X139878210Y-66010288D01*
X139878213Y-66010292D01*
X139989707Y-66121786D01*
X139989711Y-66121789D01*
X140120814Y-66209390D01*
X140120827Y-66209397D01*
X140258683Y-66266498D01*
X140266503Y-66269737D01*
X140413019Y-66298881D01*
X140421153Y-66300499D01*
X140421156Y-66300500D01*
X140421158Y-66300500D01*
X140578844Y-66300500D01*
X140578845Y-66300499D01*
X140733497Y-66269737D01*
X140879179Y-66209394D01*
X141010289Y-66121789D01*
X141121789Y-66010289D01*
X141209394Y-65879179D01*
X141269737Y-65733497D01*
X141300500Y-65578842D01*
X141300500Y-65421158D01*
X141300500Y-65421155D01*
X141300499Y-65421153D01*
X141269738Y-65266510D01*
X141269737Y-65266503D01*
X141224644Y-65157638D01*
X141209397Y-65120827D01*
X141209390Y-65120814D01*
X141121789Y-64989711D01*
X141121786Y-64989707D01*
X141010292Y-64878213D01*
X141010288Y-64878210D01*
X140879185Y-64790609D01*
X140879172Y-64790602D01*
X140733501Y-64730264D01*
X140733489Y-64730261D01*
X140578845Y-64699500D01*
X140578842Y-64699500D01*
X140421158Y-64699500D01*
X140421155Y-64699500D01*
X140266510Y-64730261D01*
X140266498Y-64730264D01*
X140120827Y-64790602D01*
X140120814Y-64790609D01*
X139989711Y-64878210D01*
X139989707Y-64878213D01*
X139878213Y-64989707D01*
X139878210Y-64989711D01*
X139790609Y-65120814D01*
X139790602Y-65120827D01*
X139730264Y-65266498D01*
X139730261Y-65266510D01*
X139699500Y-65421153D01*
X106812441Y-65421153D01*
X106803502Y-65387793D01*
X106708164Y-65157627D01*
X106583599Y-64941873D01*
X106491453Y-64821786D01*
X106431939Y-64744225D01*
X106431933Y-64744218D01*
X106255781Y-64568066D01*
X106255774Y-64568060D01*
X106058126Y-64416400D01*
X105842376Y-64291837D01*
X105842366Y-64291833D01*
X105692187Y-64229627D01*
X105692185Y-64229626D01*
X105612207Y-64196498D01*
X105371561Y-64132017D01*
X105289040Y-64121153D01*
X119699500Y-64121153D01*
X119699500Y-64278846D01*
X119730261Y-64433489D01*
X119730264Y-64433501D01*
X119790602Y-64579172D01*
X119790609Y-64579185D01*
X119878210Y-64710288D01*
X119878213Y-64710292D01*
X119989707Y-64821786D01*
X119989711Y-64821789D01*
X120120814Y-64909390D01*
X120120827Y-64909397D01*
X120266498Y-64969735D01*
X120266503Y-64969737D01*
X120421153Y-65000499D01*
X120421156Y-65000500D01*
X120421158Y-65000500D01*
X120578844Y-65000500D01*
X120578845Y-65000499D01*
X120733497Y-64969737D01*
X120879179Y-64909394D01*
X121010289Y-64821789D01*
X121121789Y-64710289D01*
X121209394Y-64579179D01*
X121269737Y-64433497D01*
X121300500Y-64278842D01*
X121300500Y-64121158D01*
X121300500Y-64121155D01*
X121300499Y-64121153D01*
X121278447Y-64010292D01*
X121269737Y-63966503D01*
X121233569Y-63879185D01*
X121209397Y-63820827D01*
X121209390Y-63820814D01*
X121121789Y-63689711D01*
X121121786Y-63689707D01*
X121010292Y-63578213D01*
X121010288Y-63578210D01*
X120920429Y-63518168D01*
X120879185Y-63490609D01*
X120879172Y-63490602D01*
X120733501Y-63430264D01*
X120733489Y-63430261D01*
X120687701Y-63421153D01*
X134199500Y-63421153D01*
X134199500Y-63578846D01*
X134230261Y-63733489D01*
X134230264Y-63733501D01*
X134290602Y-63879172D01*
X134290609Y-63879185D01*
X134378210Y-64010288D01*
X134378213Y-64010292D01*
X134489707Y-64121786D01*
X134489711Y-64121789D01*
X134620814Y-64209390D01*
X134620827Y-64209397D01*
X134766498Y-64269735D01*
X134766503Y-64269737D01*
X134921153Y-64300499D01*
X134921156Y-64300500D01*
X134921158Y-64300500D01*
X135078844Y-64300500D01*
X135078845Y-64300499D01*
X135233497Y-64269737D01*
X135379179Y-64209394D01*
X135510289Y-64121789D01*
X135621789Y-64010289D01*
X135709394Y-63879179D01*
X135769737Y-63733497D01*
X135800500Y-63578842D01*
X135800500Y-63421158D01*
X135800500Y-63421155D01*
X135800499Y-63421153D01*
X135769738Y-63266510D01*
X135769737Y-63266503D01*
X135769735Y-63266498D01*
X135709397Y-63120827D01*
X135709390Y-63120814D01*
X135621789Y-62989711D01*
X135621786Y-62989707D01*
X135510292Y-62878213D01*
X135510288Y-62878210D01*
X135379185Y-62790609D01*
X135379172Y-62790602D01*
X135233501Y-62730264D01*
X135233489Y-62730261D01*
X135078845Y-62699500D01*
X135078842Y-62699500D01*
X134921158Y-62699500D01*
X134921155Y-62699500D01*
X134766510Y-62730261D01*
X134766498Y-62730264D01*
X134620827Y-62790602D01*
X134620814Y-62790609D01*
X134489711Y-62878210D01*
X134489707Y-62878213D01*
X134378213Y-62989707D01*
X134378210Y-62989711D01*
X134290609Y-63120814D01*
X134290602Y-63120827D01*
X134230264Y-63266498D01*
X134230261Y-63266510D01*
X134199500Y-63421153D01*
X120687701Y-63421153D01*
X120578845Y-63399500D01*
X120578842Y-63399500D01*
X120421158Y-63399500D01*
X120421155Y-63399500D01*
X120266510Y-63430261D01*
X120266498Y-63430264D01*
X120120827Y-63490602D01*
X120120814Y-63490609D01*
X119989711Y-63578210D01*
X119989707Y-63578213D01*
X119878213Y-63689707D01*
X119878210Y-63689711D01*
X119790609Y-63820814D01*
X119790602Y-63820827D01*
X119730264Y-63966498D01*
X119730261Y-63966510D01*
X119699500Y-64121153D01*
X105289040Y-64121153D01*
X105124575Y-64099501D01*
X105124570Y-64099500D01*
X105124565Y-64099500D01*
X104875435Y-64099500D01*
X104875429Y-64099500D01*
X104875424Y-64099501D01*
X104628438Y-64132017D01*
X104387792Y-64196498D01*
X104157638Y-64291830D01*
X104157623Y-64291837D01*
X103941873Y-64416400D01*
X103744225Y-64568060D01*
X103744218Y-64568066D01*
X103568066Y-64744218D01*
X103568060Y-64744225D01*
X103416400Y-64941873D01*
X103291837Y-65157623D01*
X103291830Y-65157638D01*
X103196498Y-65387792D01*
X103132017Y-65628438D01*
X103099501Y-65875424D01*
X103099500Y-65875441D01*
X100500500Y-65875441D01*
X100500500Y-60875441D01*
X103099500Y-60875441D01*
X103099500Y-61124558D01*
X103099501Y-61124575D01*
X103132017Y-61371561D01*
X103196498Y-61612207D01*
X103291830Y-61842361D01*
X103291837Y-61842376D01*
X103416400Y-62058126D01*
X103568060Y-62255774D01*
X103568066Y-62255781D01*
X103744218Y-62431933D01*
X103744225Y-62431939D01*
X103941873Y-62583599D01*
X104157623Y-62708162D01*
X104157638Y-62708169D01*
X104210981Y-62730264D01*
X104387793Y-62803502D01*
X104628435Y-62867982D01*
X104875435Y-62900500D01*
X104875442Y-62900500D01*
X105124558Y-62900500D01*
X105124565Y-62900500D01*
X105371565Y-62867982D01*
X105612207Y-62803502D01*
X105842373Y-62708164D01*
X106058127Y-62583599D01*
X106255776Y-62431938D01*
X106431938Y-62255776D01*
X106583599Y-62058127D01*
X106662678Y-61921158D01*
X106662681Y-61921153D01*
X125199500Y-61921153D01*
X125199500Y-62078846D01*
X125230261Y-62233489D01*
X125230264Y-62233501D01*
X125290602Y-62379172D01*
X125290609Y-62379185D01*
X125378210Y-62510288D01*
X125378213Y-62510292D01*
X125489707Y-62621786D01*
X125489711Y-62621789D01*
X125620814Y-62709390D01*
X125620827Y-62709397D01*
X125766498Y-62769735D01*
X125766503Y-62769737D01*
X125921153Y-62800499D01*
X125921156Y-62800500D01*
X125921158Y-62800500D01*
X126078844Y-62800500D01*
X126078845Y-62800499D01*
X126233497Y-62769737D01*
X126379179Y-62709394D01*
X126510289Y-62621789D01*
X126621789Y-62510289D01*
X126709394Y-62379179D01*
X126769737Y-62233497D01*
X126800500Y-62078842D01*
X126800500Y-61921158D01*
X126800500Y-61921155D01*
X126800499Y-61921153D01*
X126784829Y-61842376D01*
X126769737Y-61766503D01*
X126769735Y-61766498D01*
X126709397Y-61620827D01*
X126709390Y-61620814D01*
X126621789Y-61489711D01*
X126621786Y-61489707D01*
X126510292Y-61378213D01*
X126510288Y-61378210D01*
X126379185Y-61290609D01*
X126379172Y-61290602D01*
X126233501Y-61230264D01*
X126233489Y-61230261D01*
X126078845Y-61199500D01*
X126078842Y-61199500D01*
X125921158Y-61199500D01*
X125921155Y-61199500D01*
X125766510Y-61230261D01*
X125766498Y-61230264D01*
X125620827Y-61290602D01*
X125620814Y-61290609D01*
X125489711Y-61378210D01*
X125489707Y-61378213D01*
X125378213Y-61489707D01*
X125378210Y-61489711D01*
X125290609Y-61620814D01*
X125290602Y-61620827D01*
X125230264Y-61766498D01*
X125230261Y-61766510D01*
X125199500Y-61921153D01*
X106662681Y-61921153D01*
X106701990Y-61853067D01*
X106701990Y-61853066D01*
X106708164Y-61842373D01*
X106803502Y-61612207D01*
X106867982Y-61371565D01*
X106900500Y-61124565D01*
X106900500Y-60875435D01*
X106867982Y-60628435D01*
X106803502Y-60387793D01*
X106739592Y-60233501D01*
X106708169Y-60157638D01*
X106708162Y-60157623D01*
X106583599Y-59941873D01*
X106567700Y-59921153D01*
X124199500Y-59921153D01*
X124199500Y-60078846D01*
X124230261Y-60233489D01*
X124230264Y-60233501D01*
X124290602Y-60379172D01*
X124290609Y-60379185D01*
X124378210Y-60510288D01*
X124378213Y-60510292D01*
X124489707Y-60621786D01*
X124489711Y-60621789D01*
X124620814Y-60709390D01*
X124620827Y-60709397D01*
X124701321Y-60742738D01*
X124766503Y-60769737D01*
X124921153Y-60800499D01*
X124921156Y-60800500D01*
X124921158Y-60800500D01*
X125078844Y-60800500D01*
X125078845Y-60800499D01*
X125233497Y-60769737D01*
X125379179Y-60709394D01*
X125510289Y-60621789D01*
X125621789Y-60510289D01*
X125709394Y-60379179D01*
X125769737Y-60233497D01*
X125800500Y-60078842D01*
X125800500Y-59921158D01*
X125800500Y-59921155D01*
X125800499Y-59921153D01*
X125795128Y-59894153D01*
X129870500Y-59894153D01*
X129870500Y-60051846D01*
X129901261Y-60206489D01*
X129901264Y-60206501D01*
X129961602Y-60352172D01*
X129961609Y-60352185D01*
X130049210Y-60483288D01*
X130049213Y-60483292D01*
X130160707Y-60594786D01*
X130160711Y-60594789D01*
X130291814Y-60682390D01*
X130291827Y-60682397D01*
X130437498Y-60742735D01*
X130437503Y-60742737D01*
X130592153Y-60773499D01*
X130592156Y-60773500D01*
X130592158Y-60773500D01*
X130749844Y-60773500D01*
X130749845Y-60773499D01*
X130904497Y-60742737D01*
X131050179Y-60682394D01*
X131181289Y-60594789D01*
X131292789Y-60483289D01*
X131380394Y-60352179D01*
X131440737Y-60206497D01*
X131471500Y-60051842D01*
X131471500Y-59894158D01*
X131471500Y-59894155D01*
X131471499Y-59894153D01*
X131451468Y-59793450D01*
X131440737Y-59739503D01*
X131391979Y-59621789D01*
X131380397Y-59593827D01*
X131380390Y-59593814D01*
X131292789Y-59462711D01*
X131292786Y-59462707D01*
X131181292Y-59351213D01*
X131181288Y-59351210D01*
X131050185Y-59263609D01*
X131050172Y-59263602D01*
X130904501Y-59203264D01*
X130904489Y-59203261D01*
X130749845Y-59172500D01*
X130749842Y-59172500D01*
X130592158Y-59172500D01*
X130592155Y-59172500D01*
X130437510Y-59203261D01*
X130437498Y-59203264D01*
X130291827Y-59263602D01*
X130291814Y-59263609D01*
X130160711Y-59351210D01*
X130160707Y-59351213D01*
X130049213Y-59462707D01*
X130049210Y-59462711D01*
X129961609Y-59593814D01*
X129961602Y-59593827D01*
X129901264Y-59739498D01*
X129901261Y-59739510D01*
X129870500Y-59894153D01*
X125795128Y-59894153D01*
X125769738Y-59766510D01*
X125769737Y-59766503D01*
X125709794Y-59621786D01*
X125709397Y-59620827D01*
X125709390Y-59620814D01*
X125621789Y-59489711D01*
X125621786Y-59489707D01*
X125510292Y-59378213D01*
X125510288Y-59378210D01*
X125379185Y-59290609D01*
X125379172Y-59290602D01*
X125233501Y-59230264D01*
X125233489Y-59230261D01*
X125078845Y-59199500D01*
X125078842Y-59199500D01*
X124921158Y-59199500D01*
X124921155Y-59199500D01*
X124766510Y-59230261D01*
X124766498Y-59230264D01*
X124620827Y-59290602D01*
X124620814Y-59290609D01*
X124489711Y-59378210D01*
X124489707Y-59378213D01*
X124378213Y-59489707D01*
X124378210Y-59489711D01*
X124290609Y-59620814D01*
X124290602Y-59620827D01*
X124230264Y-59766498D01*
X124230261Y-59766510D01*
X124199500Y-59921153D01*
X106567700Y-59921153D01*
X106431939Y-59744225D01*
X106431933Y-59744218D01*
X106255781Y-59568066D01*
X106255774Y-59568060D01*
X106058126Y-59416400D01*
X105842376Y-59291837D01*
X105842361Y-59291830D01*
X105612207Y-59196498D01*
X105371561Y-59132017D01*
X105124575Y-59099501D01*
X105124570Y-59099500D01*
X105124565Y-59099500D01*
X104875435Y-59099500D01*
X104875429Y-59099500D01*
X104875424Y-59099501D01*
X104628438Y-59132017D01*
X104387792Y-59196498D01*
X104157638Y-59291830D01*
X104157623Y-59291837D01*
X103941873Y-59416400D01*
X103744225Y-59568060D01*
X103744218Y-59568066D01*
X103568066Y-59744218D01*
X103568060Y-59744225D01*
X103416400Y-59941873D01*
X103291837Y-60157623D01*
X103291830Y-60157638D01*
X103196498Y-60387792D01*
X103132017Y-60628438D01*
X103099501Y-60875424D01*
X103099500Y-60875441D01*
X100500500Y-60875441D01*
X100500500Y-58921153D01*
X119699500Y-58921153D01*
X119699500Y-59078846D01*
X119730261Y-59233489D01*
X119730264Y-59233501D01*
X119790602Y-59379172D01*
X119790609Y-59379185D01*
X119878210Y-59510288D01*
X119878213Y-59510292D01*
X119989707Y-59621786D01*
X119989711Y-59621789D01*
X120120814Y-59709390D01*
X120120827Y-59709397D01*
X120258683Y-59766498D01*
X120266503Y-59769737D01*
X120421153Y-59800499D01*
X120421156Y-59800500D01*
X120421158Y-59800500D01*
X120578844Y-59800500D01*
X120578845Y-59800499D01*
X120589179Y-59798443D01*
X120614287Y-59793450D01*
X120614292Y-59793449D01*
X120699800Y-59776439D01*
X120733497Y-59769737D01*
X120879179Y-59709394D01*
X121010289Y-59621789D01*
X121121789Y-59510289D01*
X121209394Y-59379179D01*
X121269737Y-59233497D01*
X121300500Y-59078842D01*
X121300500Y-58921158D01*
X121300500Y-58921155D01*
X121300499Y-58921153D01*
X121269738Y-58766510D01*
X121269737Y-58766503D01*
X121209794Y-58621786D01*
X121209397Y-58620827D01*
X121209390Y-58620814D01*
X121121790Y-58489712D01*
X121121784Y-58489705D01*
X121053232Y-58421153D01*
X127199500Y-58421153D01*
X127199500Y-58578846D01*
X127230261Y-58733489D01*
X127230264Y-58733501D01*
X127290602Y-58879172D01*
X127290609Y-58879185D01*
X127378210Y-59010288D01*
X127378213Y-59010292D01*
X127489707Y-59121786D01*
X127489711Y-59121789D01*
X127620814Y-59209390D01*
X127620827Y-59209397D01*
X127756450Y-59265573D01*
X127766503Y-59269737D01*
X127886736Y-59293653D01*
X127921153Y-59300499D01*
X127921156Y-59300500D01*
X127921158Y-59300500D01*
X128078843Y-59300500D01*
X128095304Y-59297225D01*
X128144568Y-59287426D01*
X128214158Y-59293653D01*
X128269336Y-59336515D01*
X128283320Y-59361589D01*
X128290606Y-59379179D01*
X128290609Y-59379185D01*
X128378210Y-59510288D01*
X128378213Y-59510292D01*
X128489707Y-59621786D01*
X128489711Y-59621789D01*
X128620814Y-59709390D01*
X128620827Y-59709397D01*
X128758683Y-59766498D01*
X128766503Y-59769737D01*
X128921153Y-59800499D01*
X128921156Y-59800500D01*
X128921158Y-59800500D01*
X129078844Y-59800500D01*
X129078845Y-59800499D01*
X129233497Y-59769737D01*
X129379179Y-59709394D01*
X129510289Y-59621789D01*
X129621789Y-59510289D01*
X129709394Y-59379179D01*
X129769737Y-59233497D01*
X129800500Y-59078842D01*
X129800500Y-58921158D01*
X129800500Y-58921155D01*
X129800499Y-58921153D01*
X129769738Y-58766510D01*
X129769737Y-58766503D01*
X129709794Y-58621786D01*
X129709397Y-58620827D01*
X129709390Y-58620814D01*
X129621789Y-58489711D01*
X129621786Y-58489707D01*
X129510292Y-58378213D01*
X129510288Y-58378210D01*
X129379185Y-58290609D01*
X129379172Y-58290602D01*
X129233501Y-58230264D01*
X129233489Y-58230261D01*
X129078845Y-58199500D01*
X129078842Y-58199500D01*
X128921158Y-58199500D01*
X128921153Y-58199500D01*
X128855431Y-58212573D01*
X128785839Y-58206346D01*
X128730662Y-58163482D01*
X128716679Y-58138409D01*
X128709392Y-58120817D01*
X128621789Y-57989711D01*
X128621786Y-57989707D01*
X128510292Y-57878213D01*
X128510288Y-57878210D01*
X128379185Y-57790609D01*
X128379172Y-57790602D01*
X128233501Y-57730264D01*
X128233489Y-57730261D01*
X128078845Y-57699500D01*
X128078842Y-57699500D01*
X127921158Y-57699500D01*
X127921155Y-57699500D01*
X127766510Y-57730261D01*
X127766498Y-57730264D01*
X127620827Y-57790602D01*
X127620814Y-57790609D01*
X127489711Y-57878210D01*
X127489707Y-57878213D01*
X127378213Y-57989707D01*
X127378210Y-57989711D01*
X127290609Y-58120814D01*
X127290602Y-58120827D01*
X127230264Y-58266498D01*
X127230261Y-58266510D01*
X127199500Y-58421153D01*
X121053232Y-58421153D01*
X121010292Y-58378213D01*
X121010288Y-58378210D01*
X120879185Y-58290609D01*
X120879172Y-58290602D01*
X120733501Y-58230264D01*
X120733489Y-58230261D01*
X120578845Y-58199500D01*
X120578842Y-58199500D01*
X120421158Y-58199500D01*
X120421155Y-58199500D01*
X120266510Y-58230261D01*
X120266498Y-58230264D01*
X120120827Y-58290602D01*
X120120814Y-58290609D01*
X119989711Y-58378210D01*
X119989707Y-58378213D01*
X119878213Y-58489707D01*
X119878210Y-58489711D01*
X119790609Y-58620814D01*
X119790602Y-58620827D01*
X119730264Y-58766498D01*
X119730261Y-58766510D01*
X119699500Y-58921153D01*
X100500500Y-58921153D01*
X100500500Y-57921153D01*
X114699500Y-57921153D01*
X114699500Y-58078846D01*
X114730261Y-58233489D01*
X114730264Y-58233501D01*
X114790602Y-58379172D01*
X114790609Y-58379185D01*
X114878210Y-58510288D01*
X114878213Y-58510292D01*
X114989707Y-58621786D01*
X114989711Y-58621789D01*
X115120814Y-58709390D01*
X115120827Y-58709397D01*
X115258683Y-58766498D01*
X115266503Y-58769737D01*
X115421153Y-58800499D01*
X115421156Y-58800500D01*
X115421158Y-58800500D01*
X115578844Y-58800500D01*
X115578845Y-58800499D01*
X115589179Y-58798443D01*
X115614287Y-58793450D01*
X115614292Y-58793449D01*
X115699800Y-58776439D01*
X115733497Y-58769737D01*
X115879179Y-58709394D01*
X116010289Y-58621789D01*
X116121789Y-58510289D01*
X116209394Y-58379179D01*
X116269737Y-58233497D01*
X116300500Y-58078842D01*
X116300500Y-57921158D01*
X116300500Y-57921155D01*
X116300499Y-57921153D01*
X116291957Y-57878210D01*
X116269737Y-57766503D01*
X116269735Y-57766498D01*
X116209397Y-57620827D01*
X116209390Y-57620814D01*
X116121789Y-57489711D01*
X116121786Y-57489707D01*
X116010292Y-57378213D01*
X116010288Y-57378210D01*
X115879185Y-57290609D01*
X115879172Y-57290602D01*
X115733501Y-57230264D01*
X115733489Y-57230261D01*
X115578845Y-57199500D01*
X115578842Y-57199500D01*
X115421158Y-57199500D01*
X115421155Y-57199500D01*
X115266510Y-57230261D01*
X115266498Y-57230264D01*
X115120827Y-57290602D01*
X115120814Y-57290609D01*
X114989711Y-57378210D01*
X114989707Y-57378213D01*
X114878213Y-57489707D01*
X114878210Y-57489711D01*
X114790609Y-57620814D01*
X114790602Y-57620827D01*
X114730264Y-57766498D01*
X114730261Y-57766510D01*
X114699500Y-57921153D01*
X100500500Y-57921153D01*
X100500500Y-55875441D01*
X103099500Y-55875441D01*
X103099500Y-56124558D01*
X103099501Y-56124575D01*
X103132017Y-56371561D01*
X103196498Y-56612207D01*
X103291830Y-56842361D01*
X103291837Y-56842376D01*
X103416400Y-57058126D01*
X103568060Y-57255774D01*
X103568066Y-57255781D01*
X103744218Y-57431933D01*
X103744225Y-57431939D01*
X103941873Y-57583599D01*
X104157623Y-57708162D01*
X104157638Y-57708169D01*
X104210981Y-57730264D01*
X104387793Y-57803502D01*
X104628435Y-57867982D01*
X104875435Y-57900500D01*
X104875442Y-57900500D01*
X105124558Y-57900500D01*
X105124565Y-57900500D01*
X105371565Y-57867982D01*
X105612207Y-57803502D01*
X105842373Y-57708164D01*
X106058127Y-57583599D01*
X106255776Y-57431938D01*
X106431938Y-57255776D01*
X106583599Y-57058127D01*
X106708164Y-56842373D01*
X106803502Y-56612207D01*
X106854695Y-56421153D01*
X125756379Y-56421153D01*
X125756379Y-56578846D01*
X125787140Y-56733489D01*
X125787143Y-56733501D01*
X125847481Y-56879172D01*
X125847488Y-56879185D01*
X125935089Y-57010288D01*
X125935092Y-57010292D01*
X126046586Y-57121786D01*
X126046590Y-57121789D01*
X126177693Y-57209390D01*
X126177706Y-57209397D01*
X126289689Y-57255781D01*
X126323382Y-57269737D01*
X126478032Y-57300499D01*
X126478035Y-57300500D01*
X126478037Y-57300500D01*
X126635723Y-57300500D01*
X126635724Y-57300499D01*
X126790376Y-57269737D01*
X126936058Y-57209394D01*
X127067168Y-57121789D01*
X127178668Y-57010289D01*
X127266273Y-56879179D01*
X127326616Y-56733497D01*
X127357379Y-56578842D01*
X127357379Y-56421158D01*
X127357379Y-56421155D01*
X127357378Y-56421153D01*
X137749500Y-56421153D01*
X137749500Y-56578846D01*
X137780261Y-56733489D01*
X137780264Y-56733501D01*
X137840602Y-56879172D01*
X137840609Y-56879185D01*
X137928210Y-57010288D01*
X137928213Y-57010292D01*
X138039707Y-57121786D01*
X138039711Y-57121789D01*
X138170814Y-57209390D01*
X138170827Y-57209397D01*
X138282810Y-57255781D01*
X138316503Y-57269737D01*
X138471153Y-57300499D01*
X138471156Y-57300500D01*
X138471158Y-57300500D01*
X138628844Y-57300500D01*
X138628845Y-57300499D01*
X138783497Y-57269737D01*
X138929179Y-57209394D01*
X139060289Y-57121789D01*
X139171789Y-57010289D01*
X139259394Y-56879179D01*
X139319737Y-56733497D01*
X139350500Y-56578842D01*
X139350500Y-56421158D01*
X139350500Y-56421155D01*
X139350499Y-56421153D01*
X140699500Y-56421153D01*
X140699500Y-56578846D01*
X140730261Y-56733489D01*
X140730264Y-56733501D01*
X140790602Y-56879172D01*
X140790609Y-56879185D01*
X140878210Y-57010288D01*
X140878213Y-57010292D01*
X140989707Y-57121786D01*
X140989711Y-57121789D01*
X141120814Y-57209390D01*
X141120827Y-57209397D01*
X141232810Y-57255781D01*
X141266503Y-57269737D01*
X141421153Y-57300499D01*
X141421156Y-57300500D01*
X141421158Y-57300500D01*
X141578844Y-57300500D01*
X141578845Y-57300499D01*
X141733497Y-57269737D01*
X141879179Y-57209394D01*
X142010289Y-57121789D01*
X142121789Y-57010289D01*
X142209394Y-56879179D01*
X142269737Y-56733497D01*
X142300500Y-56578842D01*
X142300500Y-56421158D01*
X142300500Y-56421155D01*
X142300499Y-56421153D01*
X142269738Y-56266510D01*
X142269737Y-56266503D01*
X142210942Y-56124558D01*
X142209397Y-56120827D01*
X142209390Y-56120814D01*
X142121789Y-55989711D01*
X142121786Y-55989707D01*
X142010292Y-55878213D01*
X142010288Y-55878210D01*
X141879185Y-55790609D01*
X141879172Y-55790602D01*
X141733501Y-55730264D01*
X141733489Y-55730261D01*
X141578845Y-55699500D01*
X141578842Y-55699500D01*
X141421158Y-55699500D01*
X141421155Y-55699500D01*
X141266510Y-55730261D01*
X141266498Y-55730264D01*
X141120827Y-55790602D01*
X141120814Y-55790609D01*
X140989711Y-55878210D01*
X140989707Y-55878213D01*
X140878213Y-55989707D01*
X140878210Y-55989711D01*
X140790609Y-56120814D01*
X140790602Y-56120827D01*
X140730264Y-56266498D01*
X140730261Y-56266510D01*
X140699500Y-56421153D01*
X139350499Y-56421153D01*
X139319738Y-56266510D01*
X139319737Y-56266503D01*
X139260942Y-56124558D01*
X139259397Y-56120827D01*
X139259390Y-56120814D01*
X139171789Y-55989711D01*
X139171786Y-55989707D01*
X139060292Y-55878213D01*
X139060288Y-55878210D01*
X138929185Y-55790609D01*
X138929172Y-55790602D01*
X138783501Y-55730264D01*
X138783489Y-55730261D01*
X138628845Y-55699500D01*
X138628842Y-55699500D01*
X138471158Y-55699500D01*
X138471155Y-55699500D01*
X138316510Y-55730261D01*
X138316498Y-55730264D01*
X138170827Y-55790602D01*
X138170814Y-55790609D01*
X138039711Y-55878210D01*
X138039707Y-55878213D01*
X137928213Y-55989707D01*
X137928210Y-55989711D01*
X137840609Y-56120814D01*
X137840602Y-56120827D01*
X137780264Y-56266498D01*
X137780261Y-56266510D01*
X137749500Y-56421153D01*
X127357378Y-56421153D01*
X127326617Y-56266510D01*
X127326616Y-56266503D01*
X127267821Y-56124558D01*
X127266276Y-56120827D01*
X127266269Y-56120814D01*
X127178668Y-55989711D01*
X127178665Y-55989707D01*
X127067171Y-55878213D01*
X127067167Y-55878210D01*
X126936064Y-55790609D01*
X126936051Y-55790602D01*
X126790380Y-55730264D01*
X126790368Y-55730261D01*
X126635724Y-55699500D01*
X126635721Y-55699500D01*
X126478037Y-55699500D01*
X126478034Y-55699500D01*
X126323389Y-55730261D01*
X126323377Y-55730264D01*
X126177706Y-55790602D01*
X126177693Y-55790609D01*
X126046590Y-55878210D01*
X126046586Y-55878213D01*
X125935092Y-55989707D01*
X125935089Y-55989711D01*
X125847488Y-56120814D01*
X125847481Y-56120827D01*
X125787143Y-56266498D01*
X125787140Y-56266510D01*
X125756379Y-56421153D01*
X106854695Y-56421153D01*
X106867982Y-56371565D01*
X106900500Y-56124565D01*
X106900500Y-55875435D01*
X106867982Y-55628435D01*
X106803502Y-55387793D01*
X106708164Y-55157627D01*
X106687471Y-55121786D01*
X106583599Y-54941873D01*
X106431939Y-54744225D01*
X106431933Y-54744218D01*
X106255781Y-54568066D01*
X106255774Y-54568060D01*
X106184594Y-54513442D01*
X106064320Y-54421153D01*
X145699500Y-54421153D01*
X145699500Y-54578846D01*
X145730261Y-54733489D01*
X145730264Y-54733501D01*
X145790602Y-54879172D01*
X145790609Y-54879185D01*
X145878210Y-55010288D01*
X145878213Y-55010292D01*
X145989707Y-55121786D01*
X145989711Y-55121789D01*
X146120814Y-55209390D01*
X146120827Y-55209397D01*
X146266498Y-55269735D01*
X146266503Y-55269737D01*
X146421153Y-55300499D01*
X146421156Y-55300500D01*
X146421158Y-55300500D01*
X146578844Y-55300500D01*
X146578845Y-55300499D01*
X146733497Y-55269737D01*
X146879179Y-55209394D01*
X147010289Y-55121789D01*
X147121789Y-55010289D01*
X147209394Y-54879179D01*
X147269737Y-54733497D01*
X147300500Y-54578842D01*
X147300500Y-54421158D01*
X147300500Y-54421155D01*
X147300499Y-54421153D01*
X147269738Y-54266510D01*
X147269737Y-54266503D01*
X147214032Y-54132018D01*
X147209397Y-54120827D01*
X147209390Y-54120814D01*
X147121789Y-53989711D01*
X147121786Y-53989707D01*
X147010292Y-53878213D01*
X147010288Y-53878210D01*
X146879185Y-53790609D01*
X146879172Y-53790602D01*
X146733501Y-53730264D01*
X146733489Y-53730261D01*
X146578845Y-53699500D01*
X146578842Y-53699500D01*
X146421158Y-53699500D01*
X146421155Y-53699500D01*
X146266510Y-53730261D01*
X146266498Y-53730264D01*
X146120827Y-53790602D01*
X146120814Y-53790609D01*
X145989711Y-53878210D01*
X145989707Y-53878213D01*
X145878213Y-53989707D01*
X145878210Y-53989711D01*
X145790609Y-54120814D01*
X145790602Y-54120827D01*
X145730264Y-54266498D01*
X145730261Y-54266510D01*
X145699500Y-54421153D01*
X106064320Y-54421153D01*
X106058126Y-54416400D01*
X105842376Y-54291837D01*
X105842361Y-54291830D01*
X105612207Y-54196498D01*
X105371561Y-54132017D01*
X105124575Y-54099501D01*
X105124570Y-54099500D01*
X105124565Y-54099500D01*
X104875435Y-54099500D01*
X104875429Y-54099500D01*
X104875424Y-54099501D01*
X104628438Y-54132017D01*
X104387792Y-54196498D01*
X104157638Y-54291830D01*
X104157623Y-54291837D01*
X103941873Y-54416400D01*
X103744225Y-54568060D01*
X103744218Y-54568066D01*
X103568066Y-54744218D01*
X103568060Y-54744225D01*
X103416400Y-54941873D01*
X103291837Y-55157623D01*
X103291830Y-55157638D01*
X103196498Y-55387792D01*
X103132017Y-55628438D01*
X103099501Y-55875424D01*
X103099500Y-55875441D01*
X100500500Y-55875441D01*
X100500500Y-52370551D01*
X100520185Y-52303512D01*
X100572989Y-52257757D01*
X100642147Y-52247813D01*
X100705703Y-52276838D01*
X100724815Y-52297662D01*
X100855483Y-52477510D01*
X101022490Y-52644517D01*
X101213567Y-52783343D01*
X101254258Y-52804076D01*
X101424003Y-52890566D01*
X101424005Y-52890566D01*
X101424008Y-52890568D01*
X101544412Y-52929689D01*
X101648631Y-52963553D01*
X101881903Y-53000500D01*
X101881908Y-53000500D01*
X102118097Y-53000500D01*
X102351368Y-52963553D01*
X102357754Y-52961478D01*
X102575992Y-52890568D01*
X102786433Y-52783343D01*
X102977510Y-52644517D01*
X103144517Y-52477510D01*
X103185463Y-52421153D01*
X128199500Y-52421153D01*
X128199500Y-52578846D01*
X128230261Y-52733489D01*
X128230264Y-52733501D01*
X128290602Y-52879172D01*
X128290609Y-52879185D01*
X128378210Y-53010288D01*
X128378213Y-53010292D01*
X128489707Y-53121786D01*
X128489711Y-53121789D01*
X128620814Y-53209390D01*
X128620827Y-53209397D01*
X128766498Y-53269735D01*
X128766503Y-53269737D01*
X128921153Y-53300499D01*
X128921156Y-53300500D01*
X128921158Y-53300500D01*
X129078844Y-53300500D01*
X129078845Y-53300499D01*
X129233497Y-53269737D01*
X129379179Y-53209394D01*
X129486758Y-53137512D01*
X133699500Y-53137512D01*
X133699500Y-53295205D01*
X133730261Y-53449848D01*
X133730264Y-53449860D01*
X133790602Y-53595531D01*
X133790609Y-53595544D01*
X133878210Y-53726647D01*
X133878213Y-53726651D01*
X133989707Y-53838145D01*
X133989711Y-53838148D01*
X134120814Y-53925749D01*
X134120827Y-53925756D01*
X134266498Y-53986094D01*
X134266503Y-53986096D01*
X134421153Y-54016858D01*
X134421156Y-54016859D01*
X134421158Y-54016859D01*
X134578844Y-54016859D01*
X134578845Y-54016858D01*
X134733497Y-53986096D01*
X134879179Y-53925753D01*
X135010289Y-53838148D01*
X135121789Y-53726648D01*
X135209394Y-53595538D01*
X135269737Y-53449856D01*
X135300500Y-53295201D01*
X135300500Y-53137517D01*
X135300500Y-53137514D01*
X135300499Y-53137512D01*
X135297371Y-53121786D01*
X135269737Y-52982862D01*
X135226793Y-52879185D01*
X135209397Y-52837186D01*
X135209390Y-52837173D01*
X135121789Y-52706070D01*
X135121786Y-52706066D01*
X135010292Y-52594572D01*
X135010288Y-52594569D01*
X134879185Y-52506968D01*
X134879172Y-52506961D01*
X134733501Y-52446623D01*
X134733489Y-52446620D01*
X134578845Y-52415859D01*
X134578842Y-52415859D01*
X134421158Y-52415859D01*
X134421155Y-52415859D01*
X134266510Y-52446620D01*
X134266498Y-52446623D01*
X134120827Y-52506961D01*
X134120814Y-52506968D01*
X133989711Y-52594569D01*
X133989707Y-52594572D01*
X133878213Y-52706066D01*
X133878210Y-52706070D01*
X133790609Y-52837173D01*
X133790602Y-52837186D01*
X133730264Y-52982857D01*
X133730261Y-52982869D01*
X133699500Y-53137512D01*
X129486758Y-53137512D01*
X129510289Y-53121789D01*
X129510292Y-53121786D01*
X129588335Y-53043744D01*
X129621786Y-53010292D01*
X129621789Y-53010289D01*
X129709394Y-52879179D01*
X129769737Y-52733497D01*
X129800500Y-52578842D01*
X129800500Y-52421158D01*
X129800500Y-52421155D01*
X129800499Y-52421153D01*
X129792691Y-52381902D01*
X129769737Y-52266503D01*
X129766114Y-52257757D01*
X129709397Y-52120827D01*
X129709390Y-52120814D01*
X129621789Y-51989711D01*
X129621786Y-51989707D01*
X129510292Y-51878213D01*
X129510288Y-51878210D01*
X129379185Y-51790609D01*
X129379172Y-51790602D01*
X129233501Y-51730264D01*
X129233489Y-51730261D01*
X129078845Y-51699500D01*
X129078842Y-51699500D01*
X128921158Y-51699500D01*
X128921155Y-51699500D01*
X128766510Y-51730261D01*
X128766498Y-51730264D01*
X128620827Y-51790602D01*
X128620814Y-51790609D01*
X128489711Y-51878210D01*
X128489707Y-51878213D01*
X128378213Y-51989707D01*
X128378210Y-51989711D01*
X128290609Y-52120814D01*
X128290602Y-52120827D01*
X128230264Y-52266498D01*
X128230261Y-52266510D01*
X128199500Y-52421153D01*
X103185463Y-52421153D01*
X103283343Y-52286433D01*
X103390568Y-52075992D01*
X103463553Y-51851368D01*
X103473177Y-51790606D01*
X103500500Y-51618097D01*
X103500500Y-51381902D01*
X103463553Y-51148631D01*
X103390566Y-50924003D01*
X103283343Y-50713567D01*
X103271586Y-50697385D01*
X103248107Y-50631578D01*
X103263933Y-50563524D01*
X103314039Y-50514830D01*
X103371905Y-50500500D01*
X149875500Y-50500500D01*
X149942539Y-50520185D01*
G37*
G04 #@! TD.AperFunction*
M02*
