G04 #@! TF.GenerationSoftware,KiCad,Pcbnew,9.0.6*
G04 #@! TF.CreationDate,2026-01-01T21:38:39-05:00*
G04 #@! TF.ProjectId,Experimental,45787065-7269-46d6-956e-74616c2e6b69,rev?*
G04 #@! TF.SameCoordinates,Original*
G04 #@! TF.FileFunction,Copper,L1,Top*
G04 #@! TF.FilePolarity,Positive*
%FSLAX46Y46*%
G04 Gerber Fmt 4.6, Leading zero omitted, Abs format (unit mm)*
G04 Created by KiCad (PCBNEW 9.0.6) date 2026-01-01 21:38:39*
%MOMM*%
%LPD*%
G01*
G04 APERTURE LIST*
G04 Aperture macros list*
%AMRoundRect*
0 Rectangle with rounded corners*
0 $1 Rounding radius*
0 $2 $3 $4 $5 $6 $7 $8 $9 X,Y pos of 4 corners*
0 Add a 4 corners polygon primitive as box body*
4,1,4,$2,$3,$4,$5,$6,$7,$8,$9,$2,$3,0*
0 Add four circle primitives for the rounded corners*
1,1,$1+$1,$2,$3*
1,1,$1+$1,$4,$5*
1,1,$1+$1,$6,$7*
1,1,$1+$1,$8,$9*
0 Add four rect primitives between the rounded corners*
20,1,$1+$1,$2,$3,$4,$5,0*
20,1,$1+$1,$4,$5,$6,$7,0*
20,1,$1+$1,$6,$7,$8,$9,0*
20,1,$1+$1,$8,$9,$2,$3,0*%
G04 Aperture macros list end*
G04 #@! TA.AperFunction,SMDPad,CuDef*
%ADD10RoundRect,0.140000X0.140000X0.170000X-0.140000X0.170000X-0.140000X-0.170000X0.140000X-0.170000X0*%
G04 #@! TD*
G04 #@! TA.AperFunction,SMDPad,CuDef*
%ADD11RoundRect,0.218750X0.256250X-0.218750X0.256250X0.218750X-0.256250X0.218750X-0.256250X-0.218750X0*%
G04 #@! TD*
G04 #@! TA.AperFunction,SMDPad,CuDef*
%ADD12RoundRect,0.135000X-0.185000X0.135000X-0.185000X-0.135000X0.185000X-0.135000X0.185000X0.135000X0*%
G04 #@! TD*
G04 #@! TA.AperFunction,SMDPad,CuDef*
%ADD13RoundRect,0.250000X0.400000X0.450000X-0.400000X0.450000X-0.400000X-0.450000X0.400000X-0.450000X0*%
G04 #@! TD*
G04 #@! TA.AperFunction,SMDPad,CuDef*
%ADD14RoundRect,0.158750X0.158750X0.158750X-0.158750X0.158750X-0.158750X-0.158750X0.158750X-0.158750X0*%
G04 #@! TD*
G04 #@! TA.AperFunction,ComponentPad*
%ADD15C,2.800000*%
G04 #@! TD*
G04 #@! TA.AperFunction,ComponentPad*
%ADD16RoundRect,0.250001X-1.149999X1.149999X-1.149999X-1.149999X1.149999X-1.149999X1.149999X1.149999X0*%
G04 #@! TD*
G04 #@! TA.AperFunction,SMDPad,CuDef*
%ADD17R,1.000000X1.600000*%
G04 #@! TD*
G04 #@! TA.AperFunction,SMDPad,CuDef*
%ADD18RoundRect,0.200000X-0.700000X-0.200000X0.700000X-0.200000X0.700000X0.200000X-0.700000X0.200000X0*%
G04 #@! TD*
G04 #@! TA.AperFunction,ComponentPad*
%ADD19RoundRect,0.250001X1.149999X-1.149999X1.149999X1.149999X-1.149999X1.149999X-1.149999X-1.149999X0*%
G04 #@! TD*
G04 #@! TA.AperFunction,SMDPad,CuDef*
%ADD20RoundRect,0.158750X-0.158750X0.158750X-0.158750X-0.158750X0.158750X-0.158750X0.158750X0.158750X0*%
G04 #@! TD*
G04 #@! TA.AperFunction,SMDPad,CuDef*
%ADD21RoundRect,0.150000X0.587500X0.150000X-0.587500X0.150000X-0.587500X-0.150000X0.587500X-0.150000X0*%
G04 #@! TD*
G04 #@! TA.AperFunction,SMDPad,CuDef*
%ADD22RoundRect,0.100000X0.130000X0.100000X-0.130000X0.100000X-0.130000X-0.100000X0.130000X-0.100000X0*%
G04 #@! TD*
G04 #@! TA.AperFunction,SMDPad,CuDef*
%ADD23RoundRect,0.158750X0.158750X-0.158750X0.158750X0.158750X-0.158750X0.158750X-0.158750X-0.158750X0*%
G04 #@! TD*
G04 #@! TA.AperFunction,SMDPad,CuDef*
%ADD24RoundRect,0.116250X-0.358750X-0.348750X0.358750X-0.348750X0.358750X0.348750X-0.358750X0.348750X0*%
G04 #@! TD*
G04 #@! TA.AperFunction,SMDPad,CuDef*
%ADD25RoundRect,0.250000X0.475000X-0.250000X0.475000X0.250000X-0.475000X0.250000X-0.475000X-0.250000X0*%
G04 #@! TD*
G04 #@! TA.AperFunction,SMDPad,CuDef*
%ADD26RoundRect,0.150000X-0.150000X0.587500X-0.150000X-0.587500X0.150000X-0.587500X0.150000X0.587500X0*%
G04 #@! TD*
G04 #@! TA.AperFunction,ComponentPad*
%ADD27O,1.200000X1.750000*%
G04 #@! TD*
G04 #@! TA.AperFunction,ComponentPad*
%ADD28RoundRect,0.250000X-0.350000X-0.625000X0.350000X-0.625000X0.350000X0.625000X-0.350000X0.625000X0*%
G04 #@! TD*
G04 #@! TA.AperFunction,SMDPad,CuDef*
%ADD29RoundRect,0.158750X-0.158750X-0.158750X0.158750X-0.158750X0.158750X0.158750X-0.158750X0.158750X0*%
G04 #@! TD*
G04 #@! TA.AperFunction,HeatsinkPad*
%ADD30C,0.600000*%
G04 #@! TD*
G04 #@! TA.AperFunction,HeatsinkPad*
%ADD31R,3.900000X3.900000*%
G04 #@! TD*
G04 #@! TA.AperFunction,SMDPad,CuDef*
%ADD32R,1.500000X0.900000*%
G04 #@! TD*
G04 #@! TA.AperFunction,SMDPad,CuDef*
%ADD33R,0.900000X1.500000*%
G04 #@! TD*
G04 #@! TA.AperFunction,ComponentPad*
%ADD34C,1.710000*%
G04 #@! TD*
G04 #@! TA.AperFunction,ComponentPad*
%ADD35R,1.710000X1.710000*%
G04 #@! TD*
G04 #@! TA.AperFunction,SMDPad,CuDef*
%ADD36RoundRect,0.116250X0.348750X-0.358750X0.348750X0.358750X-0.348750X0.358750X-0.348750X-0.358750X0*%
G04 #@! TD*
G04 #@! TA.AperFunction,SMDPad,CuDef*
%ADD37RoundRect,0.147500X0.172500X-0.147500X0.172500X0.147500X-0.172500X0.147500X-0.172500X-0.147500X0*%
G04 #@! TD*
G04 #@! TA.AperFunction,SMDPad,CuDef*
%ADD38R,1.900000X1.300000*%
G04 #@! TD*
G04 #@! TA.AperFunction,SMDPad,CuDef*
%ADD39R,1.200000X1.000000*%
G04 #@! TD*
G04 #@! TA.AperFunction,SMDPad,CuDef*
%ADD40R,2.800000X1.000000*%
G04 #@! TD*
G04 #@! TA.AperFunction,SMDPad,CuDef*
%ADD41R,0.800000X1.000000*%
G04 #@! TD*
G04 #@! TA.AperFunction,SMDPad,CuDef*
%ADD42R,1.200000X0.700000*%
G04 #@! TD*
G04 #@! TA.AperFunction,SMDPad,CuDef*
%ADD43R,1.050000X2.200000*%
G04 #@! TD*
G04 #@! TA.AperFunction,SMDPad,CuDef*
%ADD44R,1.000000X1.050000*%
G04 #@! TD*
G04 #@! TA.AperFunction,SMDPad,CuDef*
%ADD45RoundRect,0.140000X-0.170000X0.140000X-0.170000X-0.140000X0.170000X-0.140000X0.170000X0.140000X0*%
G04 #@! TD*
G04 #@! TA.AperFunction,SMDPad,CuDef*
%ADD46RoundRect,0.150000X-0.512500X-0.150000X0.512500X-0.150000X0.512500X0.150000X-0.512500X0.150000X0*%
G04 #@! TD*
G04 #@! TA.AperFunction,SMDPad,CuDef*
%ADD47RoundRect,0.150000X-0.150000X0.512500X-0.150000X-0.512500X0.150000X-0.512500X0.150000X0.512500X0*%
G04 #@! TD*
G04 #@! TA.AperFunction,SMDPad,CuDef*
%ADD48RoundRect,0.015750X-0.174250X0.159250X-0.174250X-0.159250X0.174250X-0.159250X0.174250X0.159250X0*%
G04 #@! TD*
G04 #@! TA.AperFunction,SMDPad,CuDef*
%ADD49RoundRect,0.116250X-0.348750X0.358750X-0.348750X-0.358750X0.348750X-0.358750X0.348750X0.358750X0*%
G04 #@! TD*
G04 #@! TA.AperFunction,SMDPad,CuDef*
%ADD50R,0.350000X0.375000*%
G04 #@! TD*
G04 #@! TA.AperFunction,SMDPad,CuDef*
%ADD51R,0.375000X0.350000*%
G04 #@! TD*
G04 #@! TA.AperFunction,SMDPad,CuDef*
%ADD52R,0.350000X0.610000*%
G04 #@! TD*
G04 #@! TA.AperFunction,SMDPad,CuDef*
%ADD53R,0.610000X0.350000*%
G04 #@! TD*
G04 #@! TA.AperFunction,SMDPad,CuDef*
%ADD54RoundRect,0.140000X0.170000X-0.140000X0.170000X0.140000X-0.170000X0.140000X-0.170000X-0.140000X0*%
G04 #@! TD*
G04 #@! TA.AperFunction,SMDPad,CuDef*
%ADD55RoundRect,0.218750X0.218750X0.256250X-0.218750X0.256250X-0.218750X-0.256250X0.218750X-0.256250X0*%
G04 #@! TD*
G04 #@! TA.AperFunction,SMDPad,CuDef*
%ADD56RoundRect,0.150000X-0.150000X-0.425000X0.150000X-0.425000X0.150000X0.425000X-0.150000X0.425000X0*%
G04 #@! TD*
G04 #@! TA.AperFunction,SMDPad,CuDef*
%ADD57RoundRect,0.075000X-0.075000X-0.500000X0.075000X-0.500000X0.075000X0.500000X-0.075000X0.500000X0*%
G04 #@! TD*
G04 #@! TA.AperFunction,HeatsinkPad*
%ADD58O,1.000000X2.100000*%
G04 #@! TD*
G04 #@! TA.AperFunction,HeatsinkPad*
%ADD59O,1.000000X1.800000*%
G04 #@! TD*
G04 #@! TA.AperFunction,ComponentPad*
%ADD60R,1.575000X1.575000*%
G04 #@! TD*
G04 #@! TA.AperFunction,ComponentPad*
%ADD61C,1.575000*%
G04 #@! TD*
G04 #@! TA.AperFunction,ViaPad*
%ADD62C,0.457200*%
G04 #@! TD*
G04 #@! TA.AperFunction,Conductor*
%ADD63C,0.304800*%
G04 #@! TD*
G04 #@! TA.AperFunction,Conductor*
%ADD64C,0.200000*%
G04 #@! TD*
G04 #@! TA.AperFunction,Conductor*
%ADD65C,0.152400*%
G04 #@! TD*
G04 #@! TA.AperFunction,Conductor*
%ADD66C,0.254000*%
G04 #@! TD*
G04 #@! TA.AperFunction,Conductor*
%ADD67C,0.508000*%
G04 #@! TD*
G04 APERTURE END LIST*
D10*
X149480000Y-77500000D03*
X148520000Y-77500000D03*
D11*
X133000000Y-103712500D03*
X133000000Y-105287500D03*
D12*
X119950000Y-59470000D03*
X119950000Y-58450000D03*
D13*
X103550000Y-58500000D03*
X106450000Y-58500000D03*
D14*
X124500000Y-106055500D03*
X124500000Y-106944500D03*
D12*
X132500000Y-102510000D03*
X132500000Y-101490000D03*
D15*
X105000000Y-69000000D03*
D16*
X105000000Y-64000000D03*
D17*
X147000000Y-82400000D03*
X144500000Y-82400000D03*
X142000000Y-82400000D03*
X147000000Y-80000000D03*
X144500000Y-80000000D03*
X142000000Y-80000000D03*
D18*
X148000000Y-52800000D03*
X148000000Y-53900000D03*
X148000000Y-55000000D03*
X148000000Y-56100000D03*
X148000000Y-57200000D03*
X148000000Y-58300000D03*
X148000000Y-59400000D03*
X148000000Y-62400000D03*
X148000000Y-63500000D03*
X148000000Y-64600000D03*
X148000000Y-65700000D03*
X148000000Y-66800000D03*
X136000000Y-66800000D03*
X136000000Y-65700000D03*
X136000000Y-64600000D03*
X136000000Y-63500000D03*
X136000000Y-62400000D03*
X136000000Y-59400000D03*
X136000000Y-58300000D03*
X136000000Y-57200000D03*
X136000000Y-56100000D03*
X136000000Y-55000000D03*
X136000000Y-53900000D03*
X136000000Y-52800000D03*
D15*
X105000000Y-87500000D03*
X105000000Y-92500000D03*
X105000000Y-97500000D03*
D19*
X105000000Y-102500000D03*
D20*
X117500000Y-72500000D03*
X118389000Y-72500000D03*
D21*
X111062500Y-65000000D03*
X112937500Y-64050000D03*
X112937500Y-65950000D03*
D20*
X140055500Y-97000000D03*
X140944500Y-97000000D03*
D22*
X119785000Y-56460000D03*
X120425000Y-56460000D03*
D21*
X120062500Y-72550000D03*
X121937500Y-71600000D03*
X121937500Y-73500000D03*
D23*
X116444500Y-68500000D03*
X115555500Y-68500000D03*
D14*
X113500000Y-83055500D03*
X113500000Y-83944500D03*
D15*
X105000000Y-80500000D03*
D16*
X105000000Y-75500000D03*
D23*
X124444500Y-74500000D03*
X123555500Y-74500000D03*
D14*
X114500000Y-71000000D03*
X114500000Y-71889000D03*
D24*
X118500000Y-113500000D03*
X117020000Y-113500000D03*
D21*
X111125000Y-80450000D03*
X113000000Y-79500000D03*
X113000000Y-81400000D03*
D25*
X119900000Y-53010000D03*
X119900000Y-54910000D03*
D14*
X135500000Y-101500000D03*
X135500000Y-102389000D03*
D26*
X124000000Y-68937500D03*
X123050000Y-67062500D03*
X124950000Y-67062500D03*
D14*
X104500000Y-109136000D03*
X104500000Y-110025000D03*
D27*
X105500000Y-52950000D03*
D28*
X103500000Y-52950000D03*
D29*
X115500000Y-64444500D03*
X115500000Y-63555500D03*
D30*
X126650000Y-90260000D03*
X126650000Y-88860000D03*
X125950000Y-90960000D03*
X125950000Y-89560000D03*
X125950000Y-88160000D03*
X125250000Y-90260000D03*
D31*
X125250000Y-89560000D03*
D30*
X125250000Y-88860000D03*
X124550000Y-90960000D03*
X124550000Y-89560000D03*
X124550000Y-88160000D03*
X123850000Y-90260000D03*
X123850000Y-88860000D03*
D32*
X135500000Y-81840000D03*
X135500000Y-83110000D03*
X135500000Y-84380000D03*
X135500000Y-85650000D03*
X135500000Y-86920000D03*
X135500000Y-88190000D03*
X135500000Y-89460000D03*
X135500000Y-90730000D03*
X135500000Y-92000000D03*
X135500000Y-93270000D03*
X135500000Y-94540000D03*
X135500000Y-95810000D03*
X135500000Y-97080000D03*
X135500000Y-98350000D03*
D33*
X133735000Y-99600000D03*
X132465000Y-99600000D03*
X131195000Y-99600000D03*
X129925000Y-99600000D03*
X128655000Y-99600000D03*
X127385000Y-99600000D03*
X126115000Y-99600000D03*
X124845000Y-99600000D03*
X123575000Y-99600000D03*
X122305000Y-99600000D03*
X121035000Y-99600000D03*
X119765000Y-99600000D03*
D32*
X118000000Y-98350000D03*
X118000000Y-97080000D03*
X118000000Y-95810000D03*
X118000000Y-94540000D03*
X118000000Y-93270000D03*
X118000000Y-92000000D03*
X118000000Y-90730000D03*
X118000000Y-89460000D03*
X118000000Y-88190000D03*
X118000000Y-86920000D03*
X118000000Y-85650000D03*
X118000000Y-84380000D03*
X118000000Y-83110000D03*
X118000000Y-81840000D03*
D17*
X126000000Y-78900000D03*
X123500000Y-78900000D03*
X121000000Y-78900000D03*
X126000000Y-76500000D03*
X123500000Y-76500000D03*
X121000000Y-76500000D03*
D20*
X115000000Y-66000000D03*
X115889000Y-66000000D03*
D29*
X122000000Y-105444500D03*
X122000000Y-104555500D03*
D20*
X114555500Y-81000000D03*
X115444500Y-81000000D03*
D34*
X114450000Y-58000000D03*
X114450000Y-55460000D03*
D35*
X114450000Y-52920000D03*
D36*
X107000000Y-109760000D03*
X107000000Y-111240000D03*
D22*
X119630000Y-57460000D03*
X120270000Y-57460000D03*
D14*
X116000000Y-72085500D03*
X116000000Y-72974500D03*
X127000000Y-65111000D03*
X127000000Y-66000000D03*
D37*
X116000000Y-74530000D03*
X116000000Y-75500000D03*
D38*
X148910000Y-112355000D03*
D39*
X133810000Y-114705000D03*
D40*
X148460000Y-125855000D03*
D39*
X138110000Y-125855000D03*
D41*
X144310000Y-125855000D03*
D42*
X133810000Y-124905000D03*
X133810000Y-123955000D03*
X133810000Y-122855000D03*
X133810000Y-121755000D03*
X133810000Y-120655000D03*
X133810000Y-119555000D03*
X133810000Y-118455000D03*
X133810000Y-117355000D03*
X133810000Y-116255000D03*
D43*
X143975000Y-72500000D03*
X141025000Y-72500000D03*
D44*
X142500000Y-70975000D03*
D16*
X104500000Y-132000000D03*
D15*
X104500000Y-137000000D03*
X104500000Y-142000000D03*
X104500000Y-147000000D03*
D29*
X126500000Y-126166500D03*
X126500000Y-127055500D03*
D36*
X131500000Y-131740000D03*
X131500000Y-130260000D03*
D45*
X110500000Y-119020000D03*
X110500000Y-119980000D03*
D20*
X127944500Y-140007577D03*
X127055500Y-140007577D03*
D46*
X133862500Y-139057577D03*
X133862500Y-140007577D03*
X133862500Y-140957577D03*
X136137500Y-140957577D03*
X136137500Y-139057577D03*
D29*
X109500000Y-116055500D03*
X109500000Y-116944500D03*
X110500000Y-116055500D03*
X110500000Y-116944500D03*
D24*
X117020000Y-117000000D03*
X118500000Y-117000000D03*
D47*
X124950000Y-133370077D03*
X124000000Y-133370077D03*
X123050000Y-133370077D03*
X123050000Y-135645077D03*
X124000000Y-135645077D03*
X124950000Y-135645077D03*
D29*
X107000000Y-115080500D03*
X107000000Y-115969500D03*
D48*
X113755000Y-113177500D03*
X113255000Y-113177500D03*
X112740000Y-113442500D03*
X112740000Y-113942500D03*
X112740000Y-114442500D03*
X113255000Y-114707500D03*
X113755000Y-114707500D03*
X114270000Y-114442500D03*
X114270000Y-113942500D03*
X114270000Y-113442500D03*
D19*
X146000000Y-146500000D03*
D15*
X146000000Y-141500000D03*
X146000000Y-136500000D03*
X146000000Y-131500000D03*
D14*
X112500000Y-116444500D03*
X112500000Y-115555500D03*
D29*
X122000000Y-138118577D03*
X122000000Y-139007577D03*
D49*
X109000000Y-119280000D03*
X109000000Y-120760000D03*
D14*
X128500000Y-126944500D03*
X128500000Y-126055500D03*
D29*
X131000000Y-126055500D03*
X131000000Y-126944500D03*
D36*
X103500000Y-121025000D03*
X103500000Y-119545000D03*
D29*
X127500000Y-126111000D03*
X127500000Y-127000000D03*
X132000000Y-126055500D03*
X132000000Y-126944500D03*
D45*
X137500000Y-136527577D03*
X137500000Y-137487577D03*
D50*
X110500000Y-113000000D03*
X110000000Y-113000000D03*
X109500000Y-113000000D03*
X109000000Y-113000000D03*
D51*
X108987500Y-113512500D03*
X108987500Y-114012500D03*
D50*
X109000000Y-114525000D03*
X109500000Y-114525000D03*
X110000000Y-114525000D03*
X110500000Y-114525000D03*
D51*
X110512500Y-114012500D03*
X110512500Y-113512500D03*
D45*
X134000000Y-136527577D03*
X134000000Y-137487577D03*
D52*
X105410000Y-113102500D03*
X104910000Y-113102500D03*
X104410000Y-113102500D03*
X103910000Y-113102500D03*
D53*
X103750000Y-113762500D03*
X103750000Y-114262500D03*
X103750000Y-114762500D03*
D52*
X103910000Y-115422500D03*
X104410000Y-115422500D03*
X104910000Y-115422500D03*
X105410000Y-115422500D03*
D53*
X105570000Y-114762500D03*
X105570000Y-114262500D03*
X105570000Y-113762500D03*
D54*
X129000000Y-131480000D03*
X129000000Y-130520000D03*
D55*
X121737500Y-60960000D03*
X120162500Y-60960000D03*
D36*
X101975000Y-120810000D03*
X101975000Y-119330000D03*
D56*
X121620000Y-141827577D03*
X122420000Y-141827577D03*
D57*
X123570000Y-141827577D03*
X124570000Y-141827577D03*
X125070000Y-141827577D03*
X126070000Y-141827577D03*
D56*
X127220000Y-141827577D03*
X128020000Y-141827577D03*
X128020000Y-141827577D03*
X127220000Y-141827577D03*
D57*
X126570000Y-141827577D03*
X125570000Y-141827577D03*
X124070000Y-141827577D03*
X123070000Y-141827577D03*
D56*
X122420000Y-141827577D03*
X121620000Y-141827577D03*
D58*
X120500000Y-142402577D03*
D59*
X120500000Y-146582577D03*
D58*
X129140000Y-142402577D03*
D59*
X129140000Y-146582577D03*
D16*
X146500000Y-87400000D03*
D15*
X146500000Y-92400000D03*
X146500000Y-97400000D03*
X146500000Y-102400000D03*
D60*
X112000000Y-72500000D03*
D61*
X112000000Y-77500000D03*
D62*
X133500000Y-143007577D03*
X125984845Y-143492422D03*
X124000000Y-137507577D03*
X148356600Y-120000000D03*
X102500000Y-115000000D03*
X122000000Y-137007577D03*
X120500000Y-140507577D03*
X129000000Y-140507577D03*
X136000000Y-136507577D03*
X132000000Y-122500000D03*
X131500000Y-115000000D03*
X109000000Y-139500000D03*
X124000000Y-131507577D03*
X103500000Y-122525000D03*
X132500000Y-140007577D03*
X130000000Y-131500000D03*
X118500000Y-115500000D03*
X141500000Y-139000000D03*
X129000000Y-129000000D03*
X107000000Y-117525000D03*
X103000000Y-117025000D03*
X115000000Y-117000000D03*
X125000000Y-132007577D03*
X138500000Y-124254178D03*
X125450000Y-138007577D03*
X125000000Y-143507577D03*
X125980000Y-131020000D03*
X112500000Y-109500000D03*
X136500000Y-101000000D03*
X107000000Y-113000000D03*
X134500000Y-107000000D03*
X146500000Y-76500000D03*
X138000000Y-65000000D03*
X124000000Y-71500000D03*
X112000000Y-113000000D03*
X121000000Y-58450000D03*
X117500000Y-104500000D03*
X122950000Y-60960000D03*
X125000000Y-73500000D03*
X125500000Y-74500000D03*
X111430000Y-114012500D03*
X149500000Y-56500000D03*
X137000000Y-85000000D03*
X114500000Y-84500000D03*
X132000000Y-81500000D03*
X137000000Y-97000000D03*
X150000000Y-78500000D03*
X121000000Y-93500000D03*
X142000000Y-78000000D03*
X118000000Y-79500000D03*
X125000000Y-101500000D03*
X114500000Y-78000000D03*
X121000000Y-101000000D03*
X108370000Y-111130000D03*
X116000000Y-76500000D03*
X141000000Y-75000000D03*
X133840000Y-81840000D03*
X146034400Y-52500000D03*
X139500000Y-98000000D03*
X124500000Y-106055500D03*
X115500000Y-113177500D03*
X116000000Y-83000000D03*
X141500000Y-53900000D03*
X136000000Y-100000000D03*
X119500000Y-107000000D03*
X115000000Y-109000000D03*
X107500000Y-114000000D03*
X111500000Y-111500000D03*
X113500000Y-100500000D03*
X130500000Y-80500000D03*
X138500000Y-62500000D03*
X137000000Y-82500000D03*
X120000000Y-95000000D03*
X128000000Y-83500000D03*
X121000000Y-92500000D03*
X133500000Y-91500000D03*
X132500000Y-89000000D03*
X138500000Y-97500000D03*
X132000000Y-91500000D03*
X121000000Y-91000000D03*
X122500000Y-98000000D03*
X126000000Y-97500000D03*
X135500000Y-104000000D03*
X116750000Y-66250000D03*
X138500000Y-80500000D03*
X137000000Y-83500000D03*
X137500000Y-86000000D03*
X121250000Y-94750000D03*
D63*
X109000000Y-138500000D02*
X109000000Y-138000000D01*
X122420000Y-142356807D02*
X124105170Y-144041977D01*
X132694244Y-139057577D02*
X131500000Y-140251821D01*
X133500000Y-141320077D02*
X133862500Y-140957577D01*
X125435290Y-144041977D02*
X125984845Y-143492422D01*
X127220000Y-142257267D02*
X127220000Y-141827577D01*
X122420000Y-141827577D02*
X122420000Y-142356807D01*
X133862500Y-139057577D02*
X132694244Y-139057577D01*
X133862500Y-139057577D02*
X133862500Y-137625077D01*
X133862500Y-137625077D02*
X134000000Y-137487577D01*
X124105170Y-144041977D02*
X125435290Y-144041977D01*
X131500000Y-141007577D02*
X133500000Y-143007577D01*
X131500000Y-140251821D02*
X131500000Y-141007577D01*
X124000000Y-137507577D02*
X124000000Y-135645077D01*
X125984845Y-143492422D02*
X127220000Y-142257267D01*
X133500000Y-143007577D02*
X133500000Y-141320077D01*
X132745000Y-121755000D02*
X132000000Y-122500000D01*
X129140000Y-146582577D02*
X129140000Y-142402577D01*
X137160000Y-124905000D02*
X138110000Y-125855000D01*
X121620000Y-141627577D02*
X120500000Y-140507577D01*
X102737500Y-114762500D02*
X102500000Y-115000000D01*
X107500000Y-142000000D02*
X109000000Y-140500000D01*
X148460000Y-125855000D02*
X147679600Y-126635400D01*
X103500000Y-121025000D02*
X103500000Y-122525000D01*
X109668416Y-120760000D02*
X109000000Y-120760000D01*
X101975000Y-121000000D02*
X103500000Y-122525000D01*
X120500000Y-140507577D02*
X120500000Y-142402577D01*
X104500000Y-137000000D02*
X108000000Y-137000000D01*
X122000000Y-138118577D02*
X122000000Y-137007577D01*
X121620000Y-141827577D02*
X121620000Y-141627577D01*
X107500000Y-142000000D02*
X104500000Y-142000000D01*
X104500000Y-147000000D02*
X106000000Y-147000000D01*
X147679600Y-126635400D02*
X138873460Y-126635400D01*
X111566300Y-119980000D02*
X110500000Y-119980000D01*
X128420000Y-140507577D02*
X128000000Y-140927577D01*
X109720000Y-120760000D02*
X110500000Y-119980000D01*
X138110000Y-125871940D02*
X138110000Y-125855000D01*
X129140000Y-142402577D02*
X128595000Y-142402577D01*
X108000000Y-137000000D02*
X109000000Y-138000000D01*
X117754600Y-117745400D02*
X118500000Y-117000000D01*
X120500000Y-142402577D02*
X120500000Y-146582577D01*
X133810000Y-121755000D02*
X132745000Y-121755000D01*
X148356600Y-125751600D02*
X148356600Y-112908400D01*
X127944500Y-140007577D02*
X127944500Y-140032077D01*
X129140000Y-146582577D02*
X120500000Y-146582577D01*
X107000000Y-132000000D02*
X104500000Y-132000000D01*
X112500000Y-116444500D02*
X113800900Y-117745400D01*
X118500000Y-114990800D02*
X118500000Y-117000000D01*
X129000000Y-131480000D02*
X131240000Y-131480000D01*
X117754600Y-114245400D02*
X118500000Y-114990800D01*
X101975000Y-120810000D02*
X101975000Y-121000000D01*
X109000000Y-140500000D02*
X109000000Y-138500000D01*
X109000000Y-138000000D02*
X109000000Y-134000000D01*
X113800900Y-117745400D02*
X111566300Y-119980000D01*
X129000000Y-140507577D02*
X129140000Y-140647577D01*
X133862500Y-140007577D02*
X132500000Y-140007577D01*
X127944500Y-140032077D02*
X128420000Y-140507577D01*
X128000000Y-140927577D02*
X128000000Y-141807577D01*
X148460000Y-125855000D02*
X148356600Y-125751600D01*
X106000000Y-147000000D02*
X109000000Y-144000000D01*
X128000000Y-141807577D02*
X128020000Y-141827577D01*
X138873460Y-126635400D02*
X138110000Y-125871940D01*
X133810000Y-124905000D02*
X137160000Y-124905000D01*
X109000000Y-134000000D02*
X107000000Y-132000000D01*
X134000000Y-136527577D02*
X137500000Y-136527577D01*
X109000000Y-120760000D02*
X109720000Y-120760000D01*
X124000000Y-133370077D02*
X124000000Y-131507577D01*
X131795000Y-114705000D02*
X131500000Y-115000000D01*
X129140000Y-140647577D02*
X129140000Y-142402577D01*
X113800900Y-117745400D02*
X117754600Y-117745400D01*
X129000000Y-140507577D02*
X128420000Y-140507577D01*
X109000000Y-144000000D02*
X109000000Y-140500000D01*
X131240000Y-131480000D02*
X131500000Y-131740000D01*
X128595000Y-142402577D02*
X128020000Y-141827577D01*
X115000000Y-117000000D02*
X117020000Y-117000000D01*
X128500000Y-126944500D02*
X128500000Y-128500000D01*
D64*
X103000000Y-117025000D02*
X101500000Y-115525000D01*
D63*
X130500000Y-130520000D02*
X131240000Y-130520000D01*
X137500000Y-138557577D02*
X137500000Y-137487577D01*
X128500000Y-128500000D02*
X129000000Y-129000000D01*
X132000000Y-126944500D02*
X131055500Y-126944500D01*
X133810000Y-119555000D02*
X133399200Y-119555000D01*
D64*
X103500000Y-117525000D02*
X103000000Y-117025000D01*
D63*
X144000000Y-141500000D02*
X141500000Y-139000000D01*
X107000000Y-115969500D02*
X107000000Y-117525000D01*
X129097900Y-123856300D02*
X129097900Y-128902100D01*
X146000000Y-131500000D02*
X141500000Y-136000000D01*
D64*
X103500000Y-119545000D02*
X103500000Y-117525000D01*
D63*
X108475000Y-117525000D02*
X108500000Y-117500000D01*
X107000000Y-117525000D02*
X108475000Y-117525000D01*
X131240000Y-130520000D02*
X131500000Y-130260000D01*
X109555500Y-117964500D02*
X109500000Y-118020000D01*
X108500000Y-114101700D02*
X108500000Y-117500000D01*
X138000000Y-139057577D02*
X137500000Y-138557577D01*
D64*
X103000000Y-117025000D02*
X101975000Y-118050000D01*
D63*
X127500000Y-127500000D02*
X129000000Y-129000000D01*
X108500000Y-117520000D02*
X109000000Y-118020000D01*
X131000000Y-127000000D02*
X129000000Y-129000000D01*
X109000000Y-118020000D02*
X109000000Y-119280000D01*
D64*
X103000000Y-116332500D02*
X103910000Y-115422500D01*
D63*
X108500000Y-117500000D02*
X108500000Y-117520000D01*
X113255000Y-115255000D02*
X115000000Y-117000000D01*
X113255000Y-114707500D02*
X113255000Y-115255000D01*
X131055500Y-126944500D02*
X129000000Y-129000000D01*
X141442423Y-139057577D02*
X141500000Y-139000000D01*
X109555500Y-117889000D02*
X110500000Y-116944500D01*
X144000000Y-136500000D02*
X141500000Y-139000000D01*
X109500000Y-118020000D02*
X110500000Y-119020000D01*
X109555500Y-117964500D02*
X109555500Y-117889000D01*
D64*
X101975000Y-118050000D02*
X101975000Y-119330000D01*
D63*
X146000000Y-141500000D02*
X144000000Y-141500000D01*
D64*
X103000000Y-117025000D02*
X103000000Y-116332500D01*
D63*
X141500000Y-142000000D02*
X146000000Y-146500000D01*
X127055500Y-127055500D02*
X129000000Y-129000000D01*
X126500000Y-127055500D02*
X127055500Y-127055500D01*
X141500000Y-139000000D02*
X141500000Y-142000000D01*
X138000000Y-139057577D02*
X141442423Y-139057577D01*
X136137500Y-139057577D02*
X138000000Y-139057577D01*
X109500000Y-118020000D02*
X109500000Y-116944500D01*
X109000000Y-118020000D02*
X109500000Y-118020000D01*
X130500000Y-130500000D02*
X129000000Y-129000000D01*
X129000000Y-130520000D02*
X130500000Y-130520000D01*
X130500000Y-130520000D02*
X130500000Y-130500000D01*
X129097900Y-128902100D02*
X129000000Y-129000000D01*
X131000000Y-126944500D02*
X131000000Y-127000000D01*
X133399200Y-119555000D02*
X129097900Y-123856300D01*
X146000000Y-136500000D02*
X144000000Y-136500000D01*
D64*
X101500000Y-115525000D02*
X101500000Y-114500000D01*
D63*
X127500000Y-127000000D02*
X127500000Y-127500000D01*
X141500000Y-136000000D02*
X141500000Y-139000000D01*
D65*
X126570000Y-140493077D02*
X127055500Y-140007577D01*
X126570000Y-141827577D02*
X126570000Y-140493077D01*
X123570000Y-141827577D02*
X123570000Y-141077577D01*
X122000000Y-139507577D02*
X122000000Y-139007577D01*
X123570000Y-141077577D02*
X122000000Y-139507577D01*
D63*
X124950000Y-133370077D02*
X124950000Y-132057577D01*
X124950000Y-132057577D02*
X125000000Y-132007577D01*
X133810000Y-118455000D02*
X133545000Y-118455000D01*
X133810000Y-118455000D02*
X134688400Y-118455000D01*
X136500000Y-116643400D02*
X136500000Y-114500000D01*
X133545000Y-118455000D02*
X128500000Y-123500000D01*
X134688400Y-118455000D02*
X136500000Y-116643400D01*
X128500000Y-123500000D02*
X128500000Y-126055500D01*
D65*
X107000000Y-115080500D02*
X105888000Y-115080500D01*
X105888000Y-115080500D02*
X105570000Y-114762500D01*
X110000000Y-115555500D02*
X109500000Y-116055500D01*
X110000000Y-114525000D02*
X110000000Y-115555500D01*
X110500000Y-114525000D02*
X110500000Y-116055500D01*
D63*
X133399200Y-122855000D02*
X131000000Y-125254200D01*
X134645000Y-122855000D02*
X138500000Y-119000000D01*
X138500000Y-119000000D02*
X138500000Y-97500000D01*
X131000000Y-125254200D02*
X131000000Y-126055500D01*
X133810000Y-122855000D02*
X133399200Y-122855000D01*
X133810000Y-122855000D02*
X134645000Y-122855000D01*
X134220800Y-120655000D02*
X138000000Y-116875800D01*
X133810000Y-120655000D02*
X134220800Y-120655000D01*
X138000000Y-116875800D02*
X138000000Y-97755756D01*
X133399200Y-117355000D02*
X127500000Y-123254200D01*
X127500000Y-123254200D02*
X127500000Y-126111000D01*
X134690400Y-116809600D02*
X134690400Y-109690400D01*
X133810000Y-117355000D02*
X134145000Y-117355000D01*
X133810000Y-117355000D02*
X133399200Y-117355000D01*
X134145000Y-117355000D02*
X134690400Y-116809600D01*
X123050000Y-116243050D02*
X115500000Y-108693050D01*
X123050000Y-133370077D02*
X123050000Y-116243050D01*
D65*
X143687200Y-125232200D02*
X139478022Y-125232200D01*
X139478022Y-125232200D02*
X138500000Y-124254178D01*
X144310000Y-125855000D02*
X143687200Y-125232200D01*
X124570000Y-141827577D02*
X124570000Y-141355651D01*
X123050000Y-139221103D02*
X123050000Y-135645077D01*
X124877274Y-141048377D02*
X123050000Y-139221103D01*
X124570000Y-141355651D02*
X124877274Y-141048377D01*
X124877274Y-141048377D02*
X125365799Y-141048377D01*
X125365799Y-141048377D02*
X125570000Y-141252578D01*
X125570000Y-141252578D02*
X125570000Y-141827577D01*
X124865799Y-142606777D02*
X125070000Y-142402576D01*
X124070000Y-141827577D02*
X124070000Y-142299503D01*
X125070000Y-142402576D02*
X125070000Y-141827577D01*
X124950000Y-137007577D02*
X124950000Y-135645077D01*
X125450000Y-138007577D02*
X125450000Y-137507577D01*
X124070000Y-142299503D02*
X124377274Y-142606777D01*
X125000000Y-142740978D02*
X125000000Y-143507577D01*
X124865799Y-142606777D02*
X125000000Y-142740978D01*
X124377274Y-142606777D02*
X124865799Y-142606777D01*
X125450000Y-137507577D02*
X124950000Y-137007577D01*
X133810000Y-123955000D02*
X133401600Y-123955000D01*
X133401600Y-123955000D02*
X132000000Y-125356600D01*
X132000000Y-125356600D02*
X132000000Y-126055500D01*
X126500000Y-123000000D02*
X126500000Y-126166500D01*
X133810000Y-116255000D02*
X133245000Y-116255000D01*
X133245000Y-116255000D02*
X126500000Y-123000000D01*
X112740000Y-114442500D02*
X112740000Y-115315500D01*
X112740000Y-115315500D02*
X112500000Y-115555500D01*
D63*
X125980000Y-131020000D02*
X127500000Y-132540000D01*
D65*
X123050000Y-136271103D02*
X123050000Y-135645077D01*
D63*
X133502500Y-139647577D02*
X133862500Y-140007577D01*
X127500000Y-137007577D02*
X131500000Y-141007577D01*
X125960000Y-131000000D02*
X125980000Y-131020000D01*
X127500000Y-132540000D02*
X127500000Y-138000000D01*
X148000000Y-53900000D02*
X141500000Y-53900000D01*
X134530700Y-66230700D02*
X134530700Y-65000000D01*
D65*
X113889000Y-72500000D02*
X114500000Y-71889000D01*
D63*
X111500000Y-111500000D02*
X110500000Y-112500000D01*
D66*
X112740000Y-113442500D02*
X112442500Y-113442500D01*
D63*
X118950000Y-57460000D02*
X119630000Y-57460000D01*
X134930700Y-64600000D02*
X136000000Y-64600000D01*
X135500000Y-90730000D02*
X136648728Y-90730000D01*
X134445200Y-93270000D02*
X135500000Y-93270000D01*
X141500000Y-53900000D02*
X136000000Y-53900000D01*
D67*
X115000000Y-64944500D02*
X115500000Y-64444500D01*
D63*
X108500000Y-111000000D02*
X111000000Y-111000000D01*
X109500000Y-113000000D02*
X110000000Y-113000000D01*
D67*
X106500000Y-58450000D02*
X106450000Y-58500000D01*
D63*
X114000000Y-77500000D02*
X114500000Y-78000000D01*
X129055500Y-100000500D02*
X128655000Y-99600000D01*
D67*
X124000000Y-68937500D02*
X118118000Y-68937500D01*
D63*
X122305000Y-99600000D02*
X122305000Y-100195000D01*
D67*
X105500000Y-52950000D02*
X106500000Y-53950000D01*
D63*
X124555500Y-107000000D02*
X129055500Y-102500000D01*
D66*
X117500000Y-70275334D02*
X117775334Y-70000000D01*
D64*
X101500000Y-114500000D02*
X102237500Y-113762500D01*
D63*
X136000000Y-55000000D02*
X135515070Y-55000000D01*
X118000000Y-79500000D02*
X118000000Y-81840000D01*
X141025000Y-71825000D02*
X141025000Y-72500000D01*
D66*
X112442500Y-113442500D02*
X112000000Y-113000000D01*
D63*
X148484930Y-65700000D02*
X148000000Y-65700000D01*
X136580000Y-86920000D02*
X137500000Y-86000000D01*
X104182501Y-109136000D02*
X102237500Y-111081001D01*
X124845000Y-100655000D02*
X124845000Y-99600000D01*
X122000000Y-96500000D02*
X119765000Y-98735000D01*
X136000000Y-66800000D02*
X135100000Y-66800000D01*
X112740000Y-113942500D02*
X111500000Y-113942500D01*
D67*
X107950000Y-52950000D02*
X107990000Y-52950000D01*
D63*
X137000000Y-96500000D02*
X136310000Y-95810000D01*
X138067200Y-89311528D02*
X138067200Y-82179272D01*
X119500000Y-58000000D02*
X119950000Y-58450000D01*
X115500000Y-100000000D02*
X115675000Y-99825000D01*
X138500000Y-90500000D02*
X138500000Y-82000000D01*
X111430000Y-114012500D02*
X110512500Y-114012500D01*
X111500000Y-113942500D02*
X111430000Y-114012500D01*
X118450000Y-57960000D02*
X118450000Y-56960000D01*
X149180400Y-69319600D02*
X149180400Y-66395470D01*
X137042400Y-113957600D02*
X137042400Y-98131600D01*
X134097900Y-75902100D02*
X122000000Y-88000000D01*
X113037356Y-112987100D02*
X113210400Y-113160144D01*
X110089200Y-113512500D02*
X110512500Y-113512500D01*
D67*
X112937500Y-65950000D02*
X114950000Y-65950000D01*
D63*
X125944500Y-102500000D02*
X127385000Y-101059500D01*
X115444500Y-81000000D02*
X117160000Y-81000000D01*
D67*
X106500000Y-53950000D02*
X106500000Y-58450000D01*
D65*
X120770000Y-93270000D02*
X118000000Y-93270000D01*
D63*
X123575000Y-98575000D02*
X123575000Y-99600000D01*
X112000000Y-77500000D02*
X114000000Y-77500000D01*
X113944500Y-83944500D02*
X114500000Y-84500000D01*
D66*
X124900000Y-70000000D02*
X124950000Y-70050000D01*
D67*
X125500000Y-64612500D02*
X123050000Y-67062500D01*
D63*
X125000000Y-100810000D02*
X124845000Y-100655000D01*
X133500000Y-91500000D02*
X133500000Y-92324800D01*
X122500000Y-98000000D02*
X123000000Y-98000000D01*
D67*
X119900000Y-53010000D02*
X125500000Y-58610000D01*
D63*
X133000000Y-105287500D02*
X133000000Y-105500000D01*
X120950000Y-58450000D02*
X121000000Y-58500000D01*
D66*
X136000000Y-100000000D02*
X135500000Y-99500000D01*
D67*
X112937500Y-56972500D02*
X112937500Y-64050000D01*
D63*
X137000000Y-97000000D02*
X137000000Y-96500000D01*
X114270000Y-113442500D02*
X114020000Y-113442500D01*
D65*
X120500000Y-92000000D02*
X118000000Y-92000000D01*
D67*
X118118000Y-68937500D02*
X116000000Y-71055500D01*
D63*
X123889000Y-105444500D02*
X124500000Y-106055500D01*
X120425000Y-56960000D02*
X120425000Y-56460000D01*
D67*
X105000000Y-69000000D02*
X101500000Y-65500000D01*
D63*
X105570000Y-113762500D02*
X106237500Y-113762500D01*
X114270000Y-114442500D02*
X114375800Y-114442500D01*
X114270000Y-113942500D02*
X114270000Y-114442500D01*
X103750000Y-114762500D02*
X103750000Y-114262500D01*
X125944500Y-102817499D02*
X125944500Y-102500000D01*
X114450000Y-58000000D02*
X118450000Y-58000000D01*
D65*
X120500000Y-91000000D02*
X120230000Y-90730000D01*
D63*
X120270000Y-57460000D02*
X120425000Y-57305000D01*
D65*
X105410000Y-110935000D02*
X104500000Y-110025000D01*
D63*
X118450000Y-58000000D02*
X118450000Y-57960000D01*
X126000000Y-99485000D02*
X126115000Y-99600000D01*
X118450000Y-57960000D02*
X118950000Y-57460000D01*
X118450000Y-58000000D02*
X119500000Y-58000000D01*
D66*
X143000000Y-81500000D02*
X144500000Y-80000000D01*
D63*
X135515070Y-55000000D02*
X134097900Y-56417170D01*
X120425000Y-57305000D02*
X120425000Y-56960000D01*
X118000000Y-85650000D02*
X106850000Y-85650000D01*
X117500000Y-104500000D02*
X124261999Y-104500000D01*
D67*
X125998500Y-65111000D02*
X125500000Y-64612500D01*
D63*
X110000000Y-112760000D02*
X110000000Y-113000000D01*
D65*
X121250000Y-94750000D02*
X121170000Y-94750000D01*
D63*
X114572900Y-114245400D02*
X117754600Y-114245400D01*
X136387928Y-80500000D02*
X133000000Y-80500000D01*
X127385000Y-101059500D02*
X127385000Y-99600000D01*
X115675000Y-99825000D02*
X116350000Y-99825000D01*
X103550000Y-53000000D02*
X103500000Y-52950000D01*
X136000000Y-66800000D02*
X141025000Y-71825000D01*
D66*
X140944500Y-97000000D02*
X143000000Y-94944500D01*
D67*
X125500000Y-58610000D02*
X125500000Y-64612500D01*
X105500000Y-52950000D02*
X107950000Y-52950000D01*
X114450000Y-52920000D02*
X107980000Y-52920000D01*
D63*
X141025000Y-74975000D02*
X141000000Y-75000000D01*
D65*
X138500000Y-62500000D02*
X138400000Y-62400000D01*
D67*
X114450000Y-52920000D02*
X119810000Y-52920000D01*
D63*
X103750000Y-114762500D02*
X104410000Y-114102500D01*
X123900000Y-71600000D02*
X124000000Y-71500000D01*
X119350000Y-55460000D02*
X119900000Y-54910000D01*
X138500000Y-80000000D02*
X149180400Y-69319600D01*
D67*
X107980000Y-52920000D02*
X107950000Y-52950000D01*
D63*
X143975000Y-72500000D02*
X143975000Y-71525000D01*
X119950000Y-58450000D02*
X120950000Y-58450000D01*
X138000000Y-97755756D02*
X137965600Y-97721356D01*
X103750000Y-114762500D02*
X102737500Y-114762500D01*
X108370000Y-111130000D02*
X107000000Y-109760000D01*
X148356600Y-112908400D02*
X148910000Y-112355000D01*
D65*
X123500000Y-74555500D02*
X123555500Y-74500000D01*
D63*
X122305000Y-100195000D02*
X121500000Y-101000000D01*
X120425000Y-56960000D02*
X120425000Y-55435000D01*
X143975000Y-71525000D02*
X148000000Y-67500000D01*
X133840000Y-81840000D02*
X135500000Y-81840000D01*
D65*
X112000000Y-72500000D02*
X113889000Y-72500000D01*
D63*
X113432000Y-63555500D02*
X112937500Y-64050000D01*
D66*
X117775334Y-70000000D02*
X124900000Y-70000000D01*
D63*
X123000000Y-98000000D02*
X123575000Y-98575000D01*
X108370000Y-111130000D02*
X110000000Y-112760000D01*
X112500000Y-109500000D02*
X114500000Y-109500000D01*
D65*
X138400000Y-62400000D02*
X136000000Y-62400000D01*
D67*
X114450000Y-55460000D02*
X112937500Y-56972500D01*
D63*
X148000000Y-67500000D02*
X148000000Y-66800000D01*
X124261999Y-104500000D02*
X125944500Y-102817499D01*
X147000000Y-77500000D02*
X147000000Y-80000000D01*
X138000000Y-97244244D02*
X138000000Y-95985200D01*
X104910000Y-113102500D02*
X104410000Y-113102500D01*
X113000000Y-79500000D02*
X114500000Y-78000000D01*
D65*
X118439000Y-72550000D02*
X118389000Y-72500000D01*
D63*
X113037356Y-112537356D02*
X113037356Y-112987100D01*
X149480000Y-77500000D02*
X149480000Y-77980000D01*
X118450000Y-56960000D02*
X118950000Y-56460000D01*
X116000000Y-75500000D02*
X116000000Y-76500000D01*
D67*
X110500000Y-69500000D02*
X110500000Y-71500000D01*
D63*
X129055500Y-102500000D02*
X129055500Y-100000500D01*
D67*
X103550000Y-58500000D02*
X103550000Y-53000000D01*
D63*
X141025000Y-72500000D02*
X141025000Y-74975000D01*
D66*
X132465000Y-101455000D02*
X132500000Y-101490000D01*
D67*
X110500000Y-71500000D02*
X106500000Y-75500000D01*
D63*
X149480000Y-77980000D02*
X150000000Y-78500000D01*
X106237500Y-113762500D02*
X107000000Y-113000000D01*
X143975000Y-73525000D02*
X142500000Y-75000000D01*
D67*
X114450000Y-55460000D02*
X119350000Y-55460000D01*
D66*
X117500000Y-72500000D02*
X117500000Y-70275334D01*
D63*
X119500000Y-107000000D02*
X124555500Y-107000000D01*
X134530700Y-65000000D02*
X134930700Y-64600000D01*
D67*
X127000000Y-65111000D02*
X125998500Y-65111000D01*
D63*
X148000000Y-52800000D02*
X146334400Y-52800000D01*
X117160000Y-81000000D02*
X118000000Y-81840000D01*
X110580000Y-86920000D02*
X118000000Y-86920000D01*
X108370000Y-111130000D02*
X108500000Y-111000000D01*
X114270000Y-113942500D02*
X114572900Y-114245400D01*
X135990800Y-97080000D02*
X135500000Y-97080000D01*
X135100000Y-66800000D02*
X134530700Y-66230700D01*
X107237500Y-114262500D02*
X105570000Y-114262500D01*
X122950000Y-60960000D02*
X121737500Y-60960000D01*
X125000000Y-101500000D02*
X125000000Y-100810000D01*
X121937500Y-71600000D02*
X123900000Y-71600000D01*
X142500000Y-75000000D02*
X141000000Y-75000000D01*
X106850000Y-85650000D02*
X105000000Y-87500000D01*
X121500000Y-101000000D02*
X121000000Y-101000000D01*
X142000000Y-80000000D02*
X142000000Y-78000000D01*
X146334400Y-52800000D02*
X146034400Y-52500000D01*
X117754600Y-114245400D02*
X118500000Y-113500000D01*
X133000000Y-105500000D02*
X134500000Y-107000000D01*
X133810000Y-114705000D02*
X131795000Y-114705000D01*
X138500000Y-80500000D02*
X138500000Y-80000000D01*
D65*
X109000000Y-113000000D02*
X107240000Y-111240000D01*
D63*
X143975000Y-72500000D02*
X143975000Y-73525000D01*
D65*
X135500000Y-88190000D02*
X128190000Y-88190000D01*
D63*
X118000000Y-89460000D02*
X116945200Y-89460000D01*
D67*
X115500000Y-63555500D02*
X113432000Y-63555500D01*
D63*
X137042400Y-98131600D02*
X135990800Y-97080000D01*
X116697500Y-113177500D02*
X117020000Y-113500000D01*
X136000000Y-101000000D02*
X135500000Y-101500000D01*
X135500000Y-92000000D02*
X137000000Y-92000000D01*
X147000000Y-77000000D02*
X147000000Y-77500000D01*
X102237500Y-111081001D02*
X102237500Y-113762500D01*
D66*
X140055500Y-97000000D02*
X140055500Y-97444500D01*
D63*
X113755000Y-113177500D02*
X116697500Y-113177500D01*
X142500000Y-70975000D02*
X137225000Y-65700000D01*
X110000000Y-113423300D02*
X110089200Y-113512500D01*
X112000000Y-112000000D02*
X112500000Y-112000000D01*
X147500000Y-77500000D02*
X148520000Y-77500000D01*
X124444500Y-74500000D02*
X125500000Y-74500000D01*
X114020000Y-113442500D02*
X113755000Y-113177500D01*
X108987500Y-114012500D02*
X108589200Y-114012500D01*
D64*
X102237500Y-113762500D02*
X103750000Y-113762500D01*
D63*
X121000000Y-76500000D02*
X118000000Y-79500000D01*
X117890000Y-83000000D02*
X118000000Y-83110000D01*
X105000000Y-92500000D02*
X110580000Y-86920000D01*
X122000000Y-105444500D02*
X123889000Y-105444500D01*
X108987500Y-113512500D02*
X108987500Y-114012500D01*
D65*
X107240000Y-111240000D02*
X107000000Y-111240000D01*
D63*
X116750000Y-66250000D02*
X116500000Y-66000000D01*
X147000000Y-77000000D02*
X147500000Y-77500000D01*
X122305000Y-99109200D02*
X122305000Y-99600000D01*
X104500000Y-109136000D02*
X104182501Y-109136000D01*
D65*
X128190000Y-88190000D02*
X128000000Y-88000000D01*
D63*
X136310000Y-95810000D02*
X135500000Y-95810000D01*
X138000000Y-95985200D02*
X136554800Y-94540000D01*
D66*
X124950000Y-67062500D02*
X126012500Y-66000000D01*
X135500000Y-99500000D02*
X135500000Y-98350000D01*
D65*
X123500000Y-76500000D02*
X123500000Y-74555500D01*
X128000000Y-78500000D02*
X128000000Y-80500000D01*
D63*
X148400000Y-56500000D02*
X148000000Y-56100000D01*
D65*
X128000000Y-80500000D02*
X124120000Y-84380000D01*
D63*
X133000000Y-89000000D02*
X133460000Y-89460000D01*
D65*
X126000000Y-76500000D02*
X128000000Y-78500000D01*
X124120000Y-84380000D02*
X118000000Y-84380000D01*
D66*
X140055500Y-97444500D02*
X139500000Y-98000000D01*
D63*
X118950000Y-56460000D02*
X119785000Y-56460000D01*
X146500000Y-76500000D02*
X147000000Y-77000000D01*
X118000000Y-88190000D02*
X114310000Y-88190000D01*
X114310000Y-88190000D02*
X105000000Y-97500000D01*
X136648728Y-90730000D02*
X138067200Y-89311528D01*
X114500000Y-109500000D02*
X115000000Y-109000000D01*
D65*
X105000000Y-102500000D02*
X105000000Y-101100001D01*
D63*
X107237500Y-114262500D02*
X107500000Y-114000000D01*
X149180400Y-66395470D02*
X148484930Y-65700000D01*
D65*
X116000000Y-72974500D02*
X116000000Y-74530000D01*
D63*
X116920000Y-97080000D02*
X118000000Y-97080000D01*
X113500000Y-100500000D02*
X116920000Y-97080000D01*
D67*
X114555500Y-69500000D02*
X110500000Y-69500000D01*
D63*
X114375800Y-114442500D02*
X114572900Y-114245400D01*
X134097900Y-56417170D02*
X134097900Y-75902100D01*
X122000000Y-88000000D02*
X122000000Y-96500000D01*
X104410000Y-114102500D02*
X104410000Y-113102500D01*
X119765000Y-98735000D02*
X119765000Y-99600000D01*
D65*
X136390000Y-83110000D02*
X137000000Y-82500000D01*
D66*
X143000000Y-94944500D02*
X143000000Y-81500000D01*
D63*
X136500000Y-114500000D02*
X137042400Y-113957600D01*
X116945200Y-89460000D02*
X105000000Y-101405200D01*
X105000000Y-101405200D02*
X105000000Y-102500000D01*
X116000000Y-83000000D02*
X117890000Y-83000000D01*
D65*
X135500000Y-83110000D02*
X136390000Y-83110000D01*
X128000000Y-88000000D02*
X128000000Y-83500000D01*
X105410000Y-113102500D02*
X105410000Y-110935000D01*
X121000000Y-92500000D02*
X120500000Y-92000000D01*
D63*
X111125000Y-80450000D02*
X105050000Y-80450000D01*
X136500000Y-101000000D02*
X136000000Y-101000000D01*
D65*
X105050000Y-80450000D02*
X105000000Y-80500000D01*
D67*
X110500000Y-69500000D02*
X109500000Y-68500000D01*
D66*
X126012500Y-66000000D02*
X127000000Y-66000000D01*
D63*
X133500000Y-92324800D02*
X134445200Y-93270000D01*
X132500000Y-89000000D02*
X133000000Y-89000000D01*
D67*
X119810000Y-52920000D02*
X119900000Y-53010000D01*
X115000000Y-66000000D02*
X115000000Y-64944500D01*
D63*
X133460000Y-89460000D02*
X135500000Y-89460000D01*
D65*
X114950000Y-65950000D02*
X115000000Y-66000000D01*
D63*
X136500000Y-80000000D02*
X131000000Y-80000000D01*
X137000000Y-92000000D02*
X138500000Y-90500000D01*
X138500000Y-82000000D02*
X136500000Y-80000000D01*
X131000000Y-80000000D02*
X130500000Y-80500000D01*
X120425000Y-55435000D02*
X119900000Y-54910000D01*
D66*
X133735000Y-100679500D02*
X135555500Y-102500000D01*
D63*
X108589200Y-114012500D02*
X108500000Y-114101700D01*
X132000000Y-91500000D02*
X135040000Y-94540000D01*
X135500000Y-84380000D02*
X136120000Y-84380000D01*
X137965600Y-97721356D02*
X137965600Y-97278644D01*
X137965600Y-97278644D02*
X138000000Y-97244244D01*
X135040000Y-94540000D02*
X135500000Y-94540000D01*
X136554800Y-94540000D02*
X135500000Y-94540000D01*
X129925000Y-104925000D02*
X129925000Y-99600000D01*
X134690400Y-109690400D02*
X129925000Y-104925000D01*
D65*
X120230000Y-90730000D02*
X118000000Y-90730000D01*
X121000000Y-91000000D02*
X120500000Y-91000000D01*
D63*
X115500000Y-108693050D02*
X115500000Y-100000000D01*
X117825000Y-98350000D02*
X118000000Y-98350000D01*
X118310000Y-95500000D02*
X118000000Y-95810000D01*
X116350000Y-99825000D02*
X117825000Y-98350000D01*
X113500000Y-83944500D02*
X113944500Y-83944500D01*
D65*
X121000000Y-93500000D02*
X120770000Y-93270000D01*
D66*
X133735000Y-99600000D02*
X133735000Y-100679500D01*
D63*
X126000000Y-97500000D02*
X126000000Y-99485000D01*
X121937500Y-73500000D02*
X125000000Y-73500000D01*
X135500000Y-86920000D02*
X136580000Y-86920000D01*
D67*
X109500000Y-68500000D02*
X105000000Y-64000000D01*
D66*
X135500000Y-102555500D02*
X135555500Y-102500000D01*
X135500000Y-104000000D02*
X135500000Y-102555500D01*
D63*
X119500000Y-95500000D02*
X118310000Y-95500000D01*
X116500000Y-66000000D02*
X115889000Y-66000000D01*
X120000000Y-95000000D02*
X119500000Y-95500000D01*
X138067200Y-82179272D02*
X136387928Y-80500000D01*
X133000000Y-80500000D02*
X132000000Y-81500000D01*
X136120000Y-84380000D02*
X137000000Y-83500000D01*
X149500000Y-56500000D02*
X148400000Y-56500000D01*
X136350000Y-85650000D02*
X137000000Y-85000000D01*
D66*
X132465000Y-99600000D02*
X132465000Y-101455000D01*
D63*
X138000000Y-65000000D02*
X145800000Y-57200000D01*
X145800000Y-57200000D02*
X148000000Y-57200000D01*
D65*
X120960000Y-94540000D02*
X118000000Y-94540000D01*
X121170000Y-94750000D02*
X120960000Y-94540000D01*
D66*
X132500000Y-102510000D02*
X132500000Y-103212500D01*
X132500000Y-103212500D02*
X133000000Y-103712500D01*
D67*
X106500000Y-75500000D02*
X105000000Y-75500000D01*
X114500000Y-69555500D02*
X114555500Y-69500000D01*
X114500000Y-71000000D02*
X114500000Y-69555500D01*
X115555500Y-68500000D02*
X114555500Y-69500000D01*
D63*
X137225000Y-65700000D02*
X136000000Y-65700000D01*
D67*
X101500000Y-62000000D02*
X102500000Y-61000000D01*
X101500000Y-65500000D02*
X101500000Y-62000000D01*
X107062500Y-61000000D02*
X111062500Y-65000000D01*
X102500000Y-61000000D02*
X107062500Y-61000000D01*
D65*
X119950000Y-59470000D02*
X119950000Y-61172500D01*
X113500000Y-83055500D02*
X113500000Y-81900000D01*
X113500000Y-81900000D02*
X113000000Y-81400000D01*
X114155500Y-81400000D02*
X114555500Y-81000000D01*
X113000000Y-81400000D02*
X114155500Y-81400000D01*
D66*
X120062500Y-72550000D02*
X118439000Y-72550000D01*
D67*
X117680500Y-68500000D02*
X118118000Y-68937500D01*
X116000000Y-71055500D02*
X116000000Y-72085500D01*
X116444500Y-68500000D02*
X117680500Y-68500000D01*
D63*
X110000000Y-113000000D02*
X110000000Y-113423300D01*
X113210400Y-113160144D02*
X113210400Y-113177500D01*
X111500000Y-111500000D02*
X112000000Y-112000000D01*
X113210400Y-113177500D02*
X113255000Y-113177500D01*
X112500000Y-112000000D02*
X113037356Y-112537356D01*
D66*
X124950000Y-70050000D02*
X124950000Y-67062500D01*
D63*
X110500000Y-112500000D02*
X110500000Y-113000000D01*
M02*
