G04 #@! TF.GenerationSoftware,KiCad,Pcbnew,9.0.6*
G04 #@! TF.CreationDate,2026-01-01T21:38:39-05:00*
G04 #@! TF.ProjectId,Experimental,45787065-7269-46d6-956e-74616c2e6b69,rev?*
G04 #@! TF.SameCoordinates,Original*
G04 #@! TF.FileFunction,Soldermask,Bot*
G04 #@! TF.FilePolarity,Negative*
%FSLAX46Y46*%
G04 Gerber Fmt 4.6, Leading zero omitted, Abs format (unit mm)*
G04 Created by KiCad (PCBNEW 9.0.6) date 2026-01-01 21:38:39*
%MOMM*%
%LPD*%
G01*
G04 APERTURE LIST*
G04 APERTURE END LIST*
G36*
X104826824Y-145638682D02*
G01*
X105035757Y-145706569D01*
X105231498Y-145806304D01*
X105409227Y-145935432D01*
X105564568Y-146090773D01*
X105693696Y-146268502D01*
X105793431Y-146464243D01*
X105861318Y-146673176D01*
X105895684Y-146890157D01*
X105895684Y-147109843D01*
X105861318Y-147326824D01*
X105793431Y-147535757D01*
X105693696Y-147731498D01*
X105564568Y-147909227D01*
X105409227Y-148064568D01*
X105231498Y-148193696D01*
X105035757Y-148293431D01*
X104826824Y-148361318D01*
X104609843Y-148395684D01*
X104390157Y-148395684D01*
X104173176Y-148361318D01*
X103964243Y-148293431D01*
X103768502Y-148193696D01*
X103590773Y-148064568D01*
X103435432Y-147909227D01*
X103306304Y-147731498D01*
X103206569Y-147535757D01*
X103138682Y-147326824D01*
X103104316Y-147109843D01*
X103104316Y-146890157D01*
X103138682Y-146673176D01*
X103206569Y-146464243D01*
X103306304Y-146268502D01*
X103435432Y-146090773D01*
X103590773Y-145935432D01*
X103768502Y-145806304D01*
X103964243Y-145706569D01*
X104173176Y-145638682D01*
X104390157Y-145604316D01*
X104609843Y-145604316D01*
X104826824Y-145638682D01*
G37*
G36*
X147154115Y-145100818D02*
G01*
X147205378Y-145106766D01*
X147222892Y-145114499D01*
X147245670Y-145119030D01*
X147270054Y-145135323D01*
X147290788Y-145144478D01*
X147304950Y-145158640D01*
X147326776Y-145173224D01*
X147341359Y-145195049D01*
X147355521Y-145209211D01*
X147364675Y-145229943D01*
X147380970Y-145254330D01*
X147385500Y-145277108D01*
X147393233Y-145294621D01*
X147399182Y-145345898D01*
X147399999Y-145350002D01*
X147399999Y-145352932D01*
X147400000Y-145352941D01*
X147400000Y-146673176D01*
X147400000Y-147649999D01*
X147399180Y-147654116D01*
X147393233Y-147705378D01*
X147385501Y-147722888D01*
X147380970Y-147745670D01*
X147364673Y-147770058D01*
X147355521Y-147790788D01*
X147341361Y-147804947D01*
X147326776Y-147826776D01*
X147304947Y-147841361D01*
X147290788Y-147855521D01*
X147270058Y-147864673D01*
X147245670Y-147880970D01*
X147222889Y-147885501D01*
X147205378Y-147893233D01*
X147154102Y-147899182D01*
X147149998Y-147899999D01*
X147147066Y-147899999D01*
X147147058Y-147900000D01*
X144852942Y-147900000D01*
X144852941Y-147899999D01*
X144850001Y-147900000D01*
X144845883Y-147899181D01*
X144794621Y-147893233D01*
X144777110Y-147885501D01*
X144754330Y-147880970D01*
X144729943Y-147864675D01*
X144709211Y-147855521D01*
X144695049Y-147841359D01*
X144673224Y-147826776D01*
X144658640Y-147804950D01*
X144644478Y-147790788D01*
X144635323Y-147770054D01*
X144619030Y-147745670D01*
X144614499Y-147722893D01*
X144606766Y-147705378D01*
X144600817Y-147654101D01*
X144600001Y-147649998D01*
X144600000Y-147647066D01*
X144600000Y-147647058D01*
X144600000Y-145352941D01*
X144600000Y-145352940D01*
X144600000Y-145350001D01*
X144600818Y-145345886D01*
X144606766Y-145294621D01*
X144614499Y-145277105D01*
X144619030Y-145254330D01*
X144635321Y-145229947D01*
X144644478Y-145209211D01*
X144658642Y-145195046D01*
X144673224Y-145173224D01*
X144695046Y-145158642D01*
X144709211Y-145144478D01*
X144729947Y-145135321D01*
X144754330Y-145119030D01*
X144777104Y-145114500D01*
X144794621Y-145106766D01*
X144845898Y-145100817D01*
X144850002Y-145100001D01*
X144852933Y-145100000D01*
X144852942Y-145100000D01*
X147147058Y-145100000D01*
X147149999Y-145100000D01*
X147154115Y-145100818D01*
G37*
G36*
X120691342Y-145720637D02*
G01*
X120804381Y-145785900D01*
X120896677Y-145878196D01*
X120961940Y-145991235D01*
X120995722Y-146117314D01*
X121000000Y-146182577D01*
X121000000Y-146982577D01*
X120995722Y-147047840D01*
X120961940Y-147173919D01*
X120896677Y-147286958D01*
X120804381Y-147379254D01*
X120691342Y-147444517D01*
X120565263Y-147478299D01*
X120434737Y-147478299D01*
X120308658Y-147444517D01*
X120195619Y-147379254D01*
X120103323Y-147286958D01*
X120038060Y-147173919D01*
X120004278Y-147047840D01*
X120000000Y-146982577D01*
X120000000Y-146182577D01*
X120004278Y-146117314D01*
X120038060Y-145991235D01*
X120103323Y-145878196D01*
X120195619Y-145785900D01*
X120308658Y-145720637D01*
X120434737Y-145686855D01*
X120565263Y-145686855D01*
X120691342Y-145720637D01*
G37*
G36*
X129331342Y-145720637D02*
G01*
X129444381Y-145785900D01*
X129536677Y-145878196D01*
X129601940Y-145991235D01*
X129635722Y-146117314D01*
X129640000Y-146182577D01*
X129640000Y-146982577D01*
X129635722Y-147047840D01*
X129601940Y-147173919D01*
X129536677Y-147286958D01*
X129444381Y-147379254D01*
X129331342Y-147444517D01*
X129205263Y-147478299D01*
X129074737Y-147478299D01*
X128948658Y-147444517D01*
X128835619Y-147379254D01*
X128743323Y-147286958D01*
X128678060Y-147173919D01*
X128644278Y-147047840D01*
X128640000Y-146982577D01*
X128640000Y-146182577D01*
X128644278Y-146117314D01*
X128678060Y-145991235D01*
X128743323Y-145878196D01*
X128835619Y-145785900D01*
X128948658Y-145720637D01*
X129074737Y-145686855D01*
X129205263Y-145686855D01*
X129331342Y-145720637D01*
G37*
G36*
X120691342Y-141390637D02*
G01*
X120804381Y-141455900D01*
X120896677Y-141548196D01*
X120961940Y-141661235D01*
X120995722Y-141787314D01*
X121000000Y-141852577D01*
X121000000Y-142952577D01*
X120995722Y-143017840D01*
X120961940Y-143143919D01*
X120896677Y-143256958D01*
X120804381Y-143349254D01*
X120691342Y-143414517D01*
X120565263Y-143448299D01*
X120434737Y-143448299D01*
X120308658Y-143414517D01*
X120195619Y-143349254D01*
X120103323Y-143256958D01*
X120038060Y-143143919D01*
X120004278Y-143017840D01*
X120000000Y-142952577D01*
X120000000Y-141852577D01*
X120004278Y-141787314D01*
X120038060Y-141661235D01*
X120103323Y-141548196D01*
X120195619Y-141455900D01*
X120308658Y-141390637D01*
X120434737Y-141356855D01*
X120565263Y-141356855D01*
X120691342Y-141390637D01*
G37*
G36*
X129331342Y-141390637D02*
G01*
X129444381Y-141455900D01*
X129536677Y-141548196D01*
X129601940Y-141661235D01*
X129635722Y-141787314D01*
X129640000Y-141852577D01*
X129640000Y-142952577D01*
X129635722Y-143017840D01*
X129601940Y-143143919D01*
X129536677Y-143256958D01*
X129444381Y-143349254D01*
X129331342Y-143414517D01*
X129205263Y-143448299D01*
X129074737Y-143448299D01*
X128948658Y-143414517D01*
X128835619Y-143349254D01*
X128743323Y-143256958D01*
X128678060Y-143143919D01*
X128644278Y-143017840D01*
X128640000Y-142952577D01*
X128640000Y-141852577D01*
X128644278Y-141787314D01*
X128678060Y-141661235D01*
X128743323Y-141548196D01*
X128835619Y-141455900D01*
X128948658Y-141390637D01*
X129074737Y-141356855D01*
X129205263Y-141356855D01*
X129331342Y-141390637D01*
G37*
G36*
X104826824Y-140638682D02*
G01*
X105035757Y-140706569D01*
X105231498Y-140806304D01*
X105409227Y-140935432D01*
X105564568Y-141090773D01*
X105693696Y-141268502D01*
X105793431Y-141464243D01*
X105861318Y-141673176D01*
X105895684Y-141890157D01*
X105895684Y-142109843D01*
X105861318Y-142326824D01*
X105793431Y-142535757D01*
X105693696Y-142731498D01*
X105564568Y-142909227D01*
X105409227Y-143064568D01*
X105231498Y-143193696D01*
X105035757Y-143293431D01*
X104826824Y-143361318D01*
X104609843Y-143395684D01*
X104390157Y-143395684D01*
X104173176Y-143361318D01*
X103964243Y-143293431D01*
X103768502Y-143193696D01*
X103590773Y-143064568D01*
X103435432Y-142909227D01*
X103306304Y-142731498D01*
X103206569Y-142535757D01*
X103138682Y-142326824D01*
X103104316Y-142109843D01*
X103104316Y-141890157D01*
X103138682Y-141673176D01*
X103206569Y-141464243D01*
X103306304Y-141268502D01*
X103435432Y-141090773D01*
X103590773Y-140935432D01*
X103768502Y-140806304D01*
X103964243Y-140706569D01*
X104173176Y-140638682D01*
X104390157Y-140604316D01*
X104609843Y-140604316D01*
X104826824Y-140638682D01*
G37*
G36*
X122054372Y-142602316D02*
G01*
X122127847Y-142644737D01*
X122187840Y-142704730D01*
X122230261Y-142778205D01*
X122252220Y-142860156D01*
X122252220Y-142944998D01*
X122230261Y-143026949D01*
X122187840Y-143100424D01*
X122127847Y-143160417D01*
X122054372Y-143202838D01*
X121972421Y-143224797D01*
X121887579Y-143224797D01*
X121805628Y-143202838D01*
X121732153Y-143160417D01*
X121672160Y-143100424D01*
X121629739Y-143026949D01*
X121607780Y-142944998D01*
X121607780Y-142860156D01*
X121629739Y-142778205D01*
X121672160Y-142704730D01*
X121732153Y-142644737D01*
X121805628Y-142602316D01*
X121887579Y-142580357D01*
X121972421Y-142580357D01*
X122054372Y-142602316D01*
G37*
G36*
X127834372Y-142602316D02*
G01*
X127907847Y-142644737D01*
X127967840Y-142704730D01*
X128010261Y-142778205D01*
X128032220Y-142860156D01*
X128032220Y-142944998D01*
X128010261Y-143026949D01*
X127967840Y-143100424D01*
X127907847Y-143160417D01*
X127834372Y-143202838D01*
X127752421Y-143224797D01*
X127667579Y-143224797D01*
X127585628Y-143202838D01*
X127512153Y-143160417D01*
X127452160Y-143100424D01*
X127409739Y-143026949D01*
X127387780Y-142944998D01*
X127387780Y-142860156D01*
X127409739Y-142778205D01*
X127452160Y-142704730D01*
X127512153Y-142644737D01*
X127585628Y-142602316D01*
X127667579Y-142580357D01*
X127752421Y-142580357D01*
X127834372Y-142602316D01*
G37*
G36*
X146326824Y-140138682D02*
G01*
X146535757Y-140206569D01*
X146731498Y-140306304D01*
X146909227Y-140435432D01*
X147064568Y-140590773D01*
X147193696Y-140768502D01*
X147293431Y-140964243D01*
X147361318Y-141173176D01*
X147395684Y-141390157D01*
X147395684Y-141609843D01*
X147361318Y-141826824D01*
X147293431Y-142035757D01*
X147193696Y-142231498D01*
X147064568Y-142409227D01*
X146909227Y-142564568D01*
X146731498Y-142693696D01*
X146535757Y-142793431D01*
X146326824Y-142861318D01*
X146109843Y-142895684D01*
X145890157Y-142895684D01*
X145673176Y-142861318D01*
X145464243Y-142793431D01*
X145268502Y-142693696D01*
X145090773Y-142564568D01*
X144935432Y-142409227D01*
X144806304Y-142231498D01*
X144706569Y-142035757D01*
X144638682Y-141826824D01*
X144604316Y-141609843D01*
X144604316Y-141390157D01*
X144638682Y-141173176D01*
X144706569Y-140964243D01*
X144806304Y-140768502D01*
X144935432Y-140590773D01*
X145090773Y-140435432D01*
X145268502Y-140306304D01*
X145464243Y-140206569D01*
X145673176Y-140138682D01*
X145890157Y-140104316D01*
X146109843Y-140104316D01*
X146326824Y-140138682D01*
G37*
G36*
X104826824Y-135638682D02*
G01*
X105035757Y-135706569D01*
X105231498Y-135806304D01*
X105409227Y-135935432D01*
X105564568Y-136090773D01*
X105693696Y-136268502D01*
X105793431Y-136464243D01*
X105861318Y-136673176D01*
X105895684Y-136890157D01*
X105895684Y-137109843D01*
X105861318Y-137326824D01*
X105793431Y-137535757D01*
X105693696Y-137731498D01*
X105564568Y-137909227D01*
X105409227Y-138064568D01*
X105231498Y-138193696D01*
X105035757Y-138293431D01*
X104826824Y-138361318D01*
X104609843Y-138395684D01*
X104390157Y-138395684D01*
X104173176Y-138361318D01*
X103964243Y-138293431D01*
X103768502Y-138193696D01*
X103590773Y-138064568D01*
X103435432Y-137909227D01*
X103306304Y-137731498D01*
X103206569Y-137535757D01*
X103138682Y-137326824D01*
X103104316Y-137109843D01*
X103104316Y-136890157D01*
X103138682Y-136673176D01*
X103206569Y-136464243D01*
X103306304Y-136268502D01*
X103435432Y-136090773D01*
X103590773Y-135935432D01*
X103768502Y-135806304D01*
X103964243Y-135706569D01*
X104173176Y-135638682D01*
X104390157Y-135604316D01*
X104609843Y-135604316D01*
X104826824Y-135638682D01*
G37*
G36*
X146326824Y-135138682D02*
G01*
X146535757Y-135206569D01*
X146731498Y-135306304D01*
X146909227Y-135435432D01*
X147064568Y-135590773D01*
X147193696Y-135768502D01*
X147293431Y-135964243D01*
X147361318Y-136173176D01*
X147395684Y-136390157D01*
X147395684Y-136609843D01*
X147361318Y-136826824D01*
X147293431Y-137035757D01*
X147193696Y-137231498D01*
X147064568Y-137409227D01*
X146909227Y-137564568D01*
X146731498Y-137693696D01*
X146535757Y-137793431D01*
X146326824Y-137861318D01*
X146109843Y-137895684D01*
X145890157Y-137895684D01*
X145673176Y-137861318D01*
X145464243Y-137793431D01*
X145268502Y-137693696D01*
X145090773Y-137564568D01*
X144935432Y-137409227D01*
X144806304Y-137231498D01*
X144706569Y-137035757D01*
X144638682Y-136826824D01*
X144604316Y-136609843D01*
X144604316Y-136390157D01*
X144638682Y-136173176D01*
X144706569Y-135964243D01*
X144806304Y-135768502D01*
X144935432Y-135590773D01*
X145090773Y-135435432D01*
X145268502Y-135306304D01*
X145464243Y-135206569D01*
X145673176Y-135138682D01*
X145890157Y-135104316D01*
X146109843Y-135104316D01*
X146326824Y-135138682D01*
G37*
G36*
X105654115Y-130600818D02*
G01*
X105705378Y-130606766D01*
X105722892Y-130614499D01*
X105745670Y-130619030D01*
X105770054Y-130635323D01*
X105790788Y-130644478D01*
X105804950Y-130658640D01*
X105826776Y-130673224D01*
X105841359Y-130695049D01*
X105855521Y-130709211D01*
X105864675Y-130729943D01*
X105880970Y-130754330D01*
X105885500Y-130777108D01*
X105893233Y-130794621D01*
X105899182Y-130845898D01*
X105899999Y-130850002D01*
X105899999Y-130852932D01*
X105900000Y-130852941D01*
X105900000Y-132035700D01*
X105900000Y-133149999D01*
X105899180Y-133154116D01*
X105893233Y-133205378D01*
X105885501Y-133222888D01*
X105880970Y-133245670D01*
X105864673Y-133270058D01*
X105855521Y-133290788D01*
X105841361Y-133304947D01*
X105826776Y-133326776D01*
X105804947Y-133341361D01*
X105790788Y-133355521D01*
X105770058Y-133364673D01*
X105745670Y-133380970D01*
X105722889Y-133385501D01*
X105705378Y-133393233D01*
X105654102Y-133399182D01*
X105649998Y-133399999D01*
X105647066Y-133399999D01*
X105647058Y-133400000D01*
X103352942Y-133400000D01*
X103352941Y-133399999D01*
X103350001Y-133400000D01*
X103345883Y-133399181D01*
X103294621Y-133393233D01*
X103277110Y-133385501D01*
X103254330Y-133380970D01*
X103229943Y-133364675D01*
X103209211Y-133355521D01*
X103195049Y-133341359D01*
X103173224Y-133326776D01*
X103158640Y-133304950D01*
X103144478Y-133290788D01*
X103135323Y-133270054D01*
X103119030Y-133245670D01*
X103114499Y-133222893D01*
X103106766Y-133205378D01*
X103100817Y-133154101D01*
X103100001Y-133149998D01*
X103100000Y-133147066D01*
X103100000Y-133147058D01*
X103100000Y-130852941D01*
X103100000Y-130852940D01*
X103100000Y-130850001D01*
X103100818Y-130845886D01*
X103106766Y-130794621D01*
X103114499Y-130777105D01*
X103119030Y-130754330D01*
X103135321Y-130729947D01*
X103144478Y-130709211D01*
X103158642Y-130695046D01*
X103173224Y-130673224D01*
X103195046Y-130658642D01*
X103209211Y-130644478D01*
X103229947Y-130635321D01*
X103254330Y-130619030D01*
X103277104Y-130614500D01*
X103294621Y-130606766D01*
X103345898Y-130600817D01*
X103350002Y-130600001D01*
X103352933Y-130600000D01*
X103352942Y-130600000D01*
X105647058Y-130600000D01*
X105649999Y-130600000D01*
X105654115Y-130600818D01*
G37*
G36*
X146326824Y-130138682D02*
G01*
X146535757Y-130206569D01*
X146731498Y-130306304D01*
X146909227Y-130435432D01*
X147064568Y-130590773D01*
X147193696Y-130768502D01*
X147293431Y-130964243D01*
X147361318Y-131173176D01*
X147395684Y-131390157D01*
X147395684Y-131609843D01*
X147361318Y-131826824D01*
X147293431Y-132035757D01*
X147193696Y-132231498D01*
X147064568Y-132409227D01*
X146909227Y-132564568D01*
X146731498Y-132693696D01*
X146535757Y-132793431D01*
X146326824Y-132861318D01*
X146109843Y-132895684D01*
X145890157Y-132895684D01*
X145673176Y-132861318D01*
X145464243Y-132793431D01*
X145268502Y-132693696D01*
X145090773Y-132564568D01*
X144935432Y-132409227D01*
X144806304Y-132231498D01*
X144706569Y-132035757D01*
X144638682Y-131826824D01*
X144604316Y-131609843D01*
X144604316Y-131390157D01*
X144638682Y-131173176D01*
X144706569Y-130964243D01*
X144806304Y-130768502D01*
X144935432Y-130590773D01*
X145090773Y-130435432D01*
X145268502Y-130306304D01*
X145464243Y-130206569D01*
X145673176Y-130138682D01*
X145890157Y-130104316D01*
X146109843Y-130104316D01*
X146326824Y-130138682D01*
G37*
G36*
X106154115Y-101100818D02*
G01*
X106205378Y-101106766D01*
X106222892Y-101114499D01*
X106245670Y-101119030D01*
X106270054Y-101135323D01*
X106290788Y-101144478D01*
X106304950Y-101158640D01*
X106326776Y-101173224D01*
X106341359Y-101195049D01*
X106355521Y-101209211D01*
X106364675Y-101229943D01*
X106380970Y-101254330D01*
X106385500Y-101277108D01*
X106393233Y-101294621D01*
X106399182Y-101345898D01*
X106399999Y-101350002D01*
X106399999Y-101352932D01*
X106400000Y-101352941D01*
X106400000Y-102509827D01*
X106400000Y-103649999D01*
X106399180Y-103654116D01*
X106393233Y-103705378D01*
X106385501Y-103722888D01*
X106380970Y-103745670D01*
X106364673Y-103770058D01*
X106355521Y-103790788D01*
X106341361Y-103804947D01*
X106326776Y-103826776D01*
X106304947Y-103841361D01*
X106290788Y-103855521D01*
X106270058Y-103864673D01*
X106245670Y-103880970D01*
X106222889Y-103885501D01*
X106205378Y-103893233D01*
X106154102Y-103899182D01*
X106149998Y-103899999D01*
X106147066Y-103899999D01*
X106147058Y-103900000D01*
X103852942Y-103900000D01*
X103852941Y-103899999D01*
X103850001Y-103900000D01*
X103845883Y-103899181D01*
X103794621Y-103893233D01*
X103777110Y-103885501D01*
X103754330Y-103880970D01*
X103729943Y-103864675D01*
X103709211Y-103855521D01*
X103695049Y-103841359D01*
X103673224Y-103826776D01*
X103658640Y-103804950D01*
X103644478Y-103790788D01*
X103635323Y-103770054D01*
X103619030Y-103745670D01*
X103614499Y-103722893D01*
X103606766Y-103705378D01*
X103600817Y-103654101D01*
X103600001Y-103649998D01*
X103600000Y-103647066D01*
X103600000Y-103647058D01*
X103600000Y-101352941D01*
X103600000Y-101352940D01*
X103600000Y-101350001D01*
X103600818Y-101345886D01*
X103606766Y-101294621D01*
X103614499Y-101277105D01*
X103619030Y-101254330D01*
X103635321Y-101229947D01*
X103644478Y-101209211D01*
X103658642Y-101195046D01*
X103673224Y-101173224D01*
X103695046Y-101158642D01*
X103709211Y-101144478D01*
X103729947Y-101135321D01*
X103754330Y-101119030D01*
X103777104Y-101114500D01*
X103794621Y-101106766D01*
X103845898Y-101100817D01*
X103850002Y-101100001D01*
X103852933Y-101100000D01*
X103852942Y-101100000D01*
X106147058Y-101100000D01*
X106149999Y-101100000D01*
X106154115Y-101100818D01*
G37*
G36*
X146826824Y-101038682D02*
G01*
X147035757Y-101106569D01*
X147231498Y-101206304D01*
X147409227Y-101335432D01*
X147564568Y-101490773D01*
X147693696Y-101668502D01*
X147793431Y-101864243D01*
X147861318Y-102073176D01*
X147895684Y-102290157D01*
X147895684Y-102509843D01*
X147861318Y-102726824D01*
X147793431Y-102935757D01*
X147693696Y-103131498D01*
X147564568Y-103309227D01*
X147409227Y-103464568D01*
X147231498Y-103593696D01*
X147035757Y-103693431D01*
X146826824Y-103761318D01*
X146609843Y-103795684D01*
X146390157Y-103795684D01*
X146173176Y-103761318D01*
X145964243Y-103693431D01*
X145768502Y-103593696D01*
X145590773Y-103464568D01*
X145435432Y-103309227D01*
X145306304Y-103131498D01*
X145206569Y-102935757D01*
X145138682Y-102726824D01*
X145104316Y-102509843D01*
X145104316Y-102290157D01*
X145138682Y-102073176D01*
X145206569Y-101864243D01*
X145306304Y-101668502D01*
X145435432Y-101490773D01*
X145590773Y-101335432D01*
X145768502Y-101206304D01*
X145964243Y-101106569D01*
X146173176Y-101038682D01*
X146390157Y-101004316D01*
X146609843Y-101004316D01*
X146826824Y-101038682D01*
G37*
G36*
X105326824Y-96138682D02*
G01*
X105535757Y-96206569D01*
X105731498Y-96306304D01*
X105909227Y-96435432D01*
X106064568Y-96590773D01*
X106193696Y-96768502D01*
X106293431Y-96964243D01*
X106361318Y-97173176D01*
X106395684Y-97390157D01*
X106395684Y-97609843D01*
X106361318Y-97826824D01*
X106293431Y-98035757D01*
X106193696Y-98231498D01*
X106064568Y-98409227D01*
X105909227Y-98564568D01*
X105731498Y-98693696D01*
X105535757Y-98793431D01*
X105326824Y-98861318D01*
X105109843Y-98895684D01*
X104890157Y-98895684D01*
X104673176Y-98861318D01*
X104464243Y-98793431D01*
X104268502Y-98693696D01*
X104090773Y-98564568D01*
X103935432Y-98409227D01*
X103806304Y-98231498D01*
X103706569Y-98035757D01*
X103638682Y-97826824D01*
X103604316Y-97609843D01*
X103604316Y-97390157D01*
X103638682Y-97173176D01*
X103706569Y-96964243D01*
X103806304Y-96768502D01*
X103935432Y-96590773D01*
X104090773Y-96435432D01*
X104268502Y-96306304D01*
X104464243Y-96206569D01*
X104673176Y-96138682D01*
X104890157Y-96104316D01*
X105109843Y-96104316D01*
X105326824Y-96138682D01*
G37*
G36*
X146826824Y-96038682D02*
G01*
X147035757Y-96106569D01*
X147231498Y-96206304D01*
X147409227Y-96335432D01*
X147564568Y-96490773D01*
X147693696Y-96668502D01*
X147793431Y-96864243D01*
X147861318Y-97073176D01*
X147895684Y-97290157D01*
X147895684Y-97509843D01*
X147861318Y-97726824D01*
X147793431Y-97935757D01*
X147693696Y-98131498D01*
X147564568Y-98309227D01*
X147409227Y-98464568D01*
X147231498Y-98593696D01*
X147035757Y-98693431D01*
X146826824Y-98761318D01*
X146609843Y-98795684D01*
X146390157Y-98795684D01*
X146173176Y-98761318D01*
X145964243Y-98693431D01*
X145768502Y-98593696D01*
X145590773Y-98464568D01*
X145435432Y-98309227D01*
X145306304Y-98131498D01*
X145206569Y-97935757D01*
X145138682Y-97726824D01*
X145104316Y-97509843D01*
X145104316Y-97290157D01*
X145138682Y-97073176D01*
X145206569Y-96864243D01*
X145306304Y-96668502D01*
X145435432Y-96490773D01*
X145590773Y-96335432D01*
X145768502Y-96206304D01*
X145964243Y-96106569D01*
X146173176Y-96038682D01*
X146390157Y-96004316D01*
X146609843Y-96004316D01*
X146826824Y-96038682D01*
G37*
G36*
X105326824Y-91138682D02*
G01*
X105535757Y-91206569D01*
X105731498Y-91306304D01*
X105909227Y-91435432D01*
X106064568Y-91590773D01*
X106193696Y-91768502D01*
X106293431Y-91964243D01*
X106361318Y-92173176D01*
X106395684Y-92390157D01*
X106395684Y-92609843D01*
X106361318Y-92826824D01*
X106293431Y-93035757D01*
X106193696Y-93231498D01*
X106064568Y-93409227D01*
X105909227Y-93564568D01*
X105731498Y-93693696D01*
X105535757Y-93793431D01*
X105326824Y-93861318D01*
X105109843Y-93895684D01*
X104890157Y-93895684D01*
X104673176Y-93861318D01*
X104464243Y-93793431D01*
X104268502Y-93693696D01*
X104090773Y-93564568D01*
X103935432Y-93409227D01*
X103806304Y-93231498D01*
X103706569Y-93035757D01*
X103638682Y-92826824D01*
X103604316Y-92609843D01*
X103604316Y-92390157D01*
X103638682Y-92173176D01*
X103706569Y-91964243D01*
X103806304Y-91768502D01*
X103935432Y-91590773D01*
X104090773Y-91435432D01*
X104268502Y-91306304D01*
X104464243Y-91206569D01*
X104673176Y-91138682D01*
X104890157Y-91104316D01*
X105109843Y-91104316D01*
X105326824Y-91138682D01*
G37*
G36*
X146826824Y-91038682D02*
G01*
X147035757Y-91106569D01*
X147231498Y-91206304D01*
X147409227Y-91335432D01*
X147564568Y-91490773D01*
X147693696Y-91668502D01*
X147793431Y-91864243D01*
X147861318Y-92073176D01*
X147895684Y-92290157D01*
X147895684Y-92509843D01*
X147861318Y-92726824D01*
X147793431Y-92935757D01*
X147693696Y-93131498D01*
X147564568Y-93309227D01*
X147409227Y-93464568D01*
X147231498Y-93593696D01*
X147035757Y-93693431D01*
X146826824Y-93761318D01*
X146609843Y-93795684D01*
X146390157Y-93795684D01*
X146173176Y-93761318D01*
X145964243Y-93693431D01*
X145768502Y-93593696D01*
X145590773Y-93464568D01*
X145435432Y-93309227D01*
X145306304Y-93131498D01*
X145206569Y-92935757D01*
X145138682Y-92726824D01*
X145104316Y-92509843D01*
X145104316Y-92290157D01*
X145138682Y-92073176D01*
X145206569Y-91864243D01*
X145306304Y-91668502D01*
X145435432Y-91490773D01*
X145590773Y-91335432D01*
X145768502Y-91206304D01*
X145964243Y-91106569D01*
X146173176Y-91038682D01*
X146390157Y-91004316D01*
X146609843Y-91004316D01*
X146826824Y-91038682D01*
G37*
G36*
X129362835Y-89684515D02*
G01*
X129403388Y-89711612D01*
X129430485Y-89752165D01*
X129440000Y-89800000D01*
X129440000Y-90200000D01*
X129430485Y-90247835D01*
X129403388Y-90288388D01*
X129362835Y-90315485D01*
X129315000Y-90325000D01*
X129065000Y-90325000D01*
X129017165Y-90315485D01*
X128976612Y-90288388D01*
X128949515Y-90247835D01*
X128940000Y-90200000D01*
X128940000Y-89800000D01*
X128949515Y-89752165D01*
X128976612Y-89711612D01*
X129017165Y-89684515D01*
X129065000Y-89675000D01*
X129315000Y-89675000D01*
X129362835Y-89684515D01*
G37*
G36*
X130632835Y-89684515D02*
G01*
X130673388Y-89711612D01*
X130700485Y-89752165D01*
X130710000Y-89800000D01*
X130710000Y-90200000D01*
X130700485Y-90247835D01*
X130673388Y-90288388D01*
X130632835Y-90315485D01*
X130585000Y-90325000D01*
X130335000Y-90325000D01*
X130287165Y-90315485D01*
X130246612Y-90288388D01*
X130219515Y-90247835D01*
X130210000Y-90200000D01*
X130210000Y-89800000D01*
X130219515Y-89752165D01*
X130246612Y-89711612D01*
X130287165Y-89684515D01*
X130335000Y-89675000D01*
X130585000Y-89675000D01*
X130632835Y-89684515D01*
G37*
G36*
X131902835Y-89684515D02*
G01*
X131943388Y-89711612D01*
X131970485Y-89752165D01*
X131980000Y-89800000D01*
X131980000Y-90200000D01*
X131970485Y-90247835D01*
X131943388Y-90288388D01*
X131902835Y-90315485D01*
X131855000Y-90325000D01*
X131605000Y-90325000D01*
X131557165Y-90315485D01*
X131516612Y-90288388D01*
X131489515Y-90247835D01*
X131480000Y-90200000D01*
X131480000Y-89800000D01*
X131489515Y-89752165D01*
X131516612Y-89711612D01*
X131557165Y-89684515D01*
X131605000Y-89675000D01*
X131855000Y-89675000D01*
X131902835Y-89684515D01*
G37*
G36*
X133172835Y-89684515D02*
G01*
X133213388Y-89711612D01*
X133240485Y-89752165D01*
X133250000Y-89800000D01*
X133250000Y-90200000D01*
X133240485Y-90247835D01*
X133213388Y-90288388D01*
X133172835Y-90315485D01*
X133125000Y-90325000D01*
X132875000Y-90325000D01*
X132827165Y-90315485D01*
X132786612Y-90288388D01*
X132759515Y-90247835D01*
X132750000Y-90200000D01*
X132750000Y-89800000D01*
X132759515Y-89752165D01*
X132786612Y-89711612D01*
X132827165Y-89684515D01*
X132875000Y-89675000D01*
X133125000Y-89675000D01*
X133172835Y-89684515D01*
G37*
G36*
X105326824Y-86138682D02*
G01*
X105535757Y-86206569D01*
X105731498Y-86306304D01*
X105909227Y-86435432D01*
X106064568Y-86590773D01*
X106193696Y-86768502D01*
X106293431Y-86964243D01*
X106361318Y-87173176D01*
X106395684Y-87390157D01*
X106395684Y-87609843D01*
X106361318Y-87826824D01*
X106293431Y-88035757D01*
X106193696Y-88231498D01*
X106064568Y-88409227D01*
X105909227Y-88564568D01*
X105731498Y-88693696D01*
X105535757Y-88793431D01*
X105326824Y-88861318D01*
X105109843Y-88895684D01*
X104890157Y-88895684D01*
X104673176Y-88861318D01*
X104464243Y-88793431D01*
X104268502Y-88693696D01*
X104090773Y-88564568D01*
X103935432Y-88409227D01*
X103806304Y-88231498D01*
X103706569Y-88035757D01*
X103638682Y-87826824D01*
X103604316Y-87609843D01*
X103604316Y-87390157D01*
X103638682Y-87173176D01*
X103706569Y-86964243D01*
X103806304Y-86768502D01*
X103935432Y-86590773D01*
X104090773Y-86435432D01*
X104268502Y-86306304D01*
X104464243Y-86206569D01*
X104673176Y-86138682D01*
X104890157Y-86104316D01*
X105109843Y-86104316D01*
X105326824Y-86138682D01*
G37*
G36*
X147654115Y-86000818D02*
G01*
X147705378Y-86006766D01*
X147722892Y-86014499D01*
X147745670Y-86019030D01*
X147770054Y-86035323D01*
X147790788Y-86044478D01*
X147804950Y-86058640D01*
X147826776Y-86073224D01*
X147841359Y-86095049D01*
X147855521Y-86109211D01*
X147864675Y-86129943D01*
X147880970Y-86154330D01*
X147885500Y-86177108D01*
X147893233Y-86194621D01*
X147899182Y-86245898D01*
X147899999Y-86250002D01*
X147899999Y-86252932D01*
X147900000Y-86252941D01*
X147900000Y-87609827D01*
X147900000Y-88549999D01*
X147899180Y-88554116D01*
X147893233Y-88605378D01*
X147885501Y-88622888D01*
X147880970Y-88645670D01*
X147864673Y-88670058D01*
X147855521Y-88690788D01*
X147841361Y-88704947D01*
X147826776Y-88726776D01*
X147804947Y-88741361D01*
X147790788Y-88755521D01*
X147770058Y-88764673D01*
X147745670Y-88780970D01*
X147722889Y-88785501D01*
X147705378Y-88793233D01*
X147654102Y-88799182D01*
X147649998Y-88799999D01*
X147647066Y-88799999D01*
X147647058Y-88800000D01*
X145352942Y-88800000D01*
X145352941Y-88799999D01*
X145350001Y-88800000D01*
X145345883Y-88799181D01*
X145294621Y-88793233D01*
X145277110Y-88785501D01*
X145254330Y-88780970D01*
X145229943Y-88764675D01*
X145209211Y-88755521D01*
X145195049Y-88741359D01*
X145173224Y-88726776D01*
X145158640Y-88704950D01*
X145144478Y-88690788D01*
X145135323Y-88670054D01*
X145119030Y-88645670D01*
X145114499Y-88622893D01*
X145106766Y-88605378D01*
X145100817Y-88554101D01*
X145100001Y-88549998D01*
X145100000Y-88547066D01*
X145100000Y-88547058D01*
X145100000Y-86252941D01*
X145100000Y-86252940D01*
X145100000Y-86250001D01*
X145100818Y-86245886D01*
X145106766Y-86194621D01*
X145114499Y-86177105D01*
X145119030Y-86154330D01*
X145135321Y-86129947D01*
X145144478Y-86109211D01*
X145158642Y-86095046D01*
X145173224Y-86073224D01*
X145195046Y-86058642D01*
X145209211Y-86044478D01*
X145229947Y-86035321D01*
X145254330Y-86019030D01*
X145277104Y-86014500D01*
X145294621Y-86006766D01*
X145345898Y-86000817D01*
X145350002Y-86000001D01*
X145352933Y-86000000D01*
X145352942Y-86000000D01*
X147647058Y-86000000D01*
X147649999Y-86000000D01*
X147654115Y-86000818D01*
G37*
G36*
X133245000Y-87950000D02*
G01*
X128945000Y-87950000D01*
X128945000Y-84550000D01*
X133245000Y-84550000D01*
X133245000Y-87950000D01*
G37*
G36*
X107220762Y-82081795D02*
G01*
X107280499Y-82089660D01*
X107295523Y-82096665D01*
X107314035Y-82100348D01*
X107338552Y-82116730D01*
X107363362Y-82128299D01*
X107378456Y-82143393D01*
X107398628Y-82156872D01*
X107412106Y-82177043D01*
X107427202Y-82192139D01*
X107438772Y-82216951D01*
X107455152Y-82241465D01*
X107458832Y-82259970D01*
X107467638Y-82278853D01*
X107532362Y-82278853D01*
X107541167Y-82259969D01*
X107544848Y-82241465D01*
X107561225Y-82216955D01*
X107572797Y-82192139D01*
X107587895Y-82177040D01*
X107601372Y-82156872D01*
X107621540Y-82143395D01*
X107636637Y-82128299D01*
X107661449Y-82116728D01*
X107685965Y-82100348D01*
X107704474Y-82096666D01*
X107719500Y-82089660D01*
X107779239Y-82081795D01*
X107785750Y-82080500D01*
X108103250Y-82080500D01*
X108109762Y-82081795D01*
X108169499Y-82089660D01*
X108184523Y-82096665D01*
X108203035Y-82100348D01*
X108227552Y-82116730D01*
X108252362Y-82128299D01*
X108267456Y-82143393D01*
X108287628Y-82156872D01*
X108301106Y-82177043D01*
X108316200Y-82192137D01*
X108327767Y-82216944D01*
X108344152Y-82241465D01*
X108347834Y-82259978D01*
X108354839Y-82275000D01*
X108362701Y-82334724D01*
X108364000Y-82341250D01*
X108364000Y-82658750D01*
X108362701Y-82665277D01*
X108354839Y-82724999D01*
X108347834Y-82740019D01*
X108344152Y-82758535D01*
X108327766Y-82783057D01*
X108316200Y-82807862D01*
X108301108Y-82822953D01*
X108287628Y-82843128D01*
X108267453Y-82856608D01*
X108252362Y-82871700D01*
X108227557Y-82883266D01*
X108203035Y-82899652D01*
X108184519Y-82903334D01*
X108169499Y-82910339D01*
X108109777Y-82918201D01*
X108103250Y-82919500D01*
X107785750Y-82919500D01*
X107779224Y-82918201D01*
X107719500Y-82910339D01*
X107704478Y-82903334D01*
X107685965Y-82899652D01*
X107661444Y-82883267D01*
X107636637Y-82871700D01*
X107621543Y-82856606D01*
X107601372Y-82843128D01*
X107587893Y-82822956D01*
X107572799Y-82807862D01*
X107561230Y-82783052D01*
X107544848Y-82758535D01*
X107541166Y-82740024D01*
X107532363Y-82721146D01*
X107467637Y-82721146D01*
X107458834Y-82740023D01*
X107455152Y-82758535D01*
X107438767Y-82783055D01*
X107427200Y-82807862D01*
X107412108Y-82822953D01*
X107398628Y-82843128D01*
X107378453Y-82856608D01*
X107363362Y-82871700D01*
X107338557Y-82883266D01*
X107314035Y-82899652D01*
X107295519Y-82903334D01*
X107280499Y-82910339D01*
X107220777Y-82918201D01*
X107214250Y-82919500D01*
X106896750Y-82919500D01*
X106890224Y-82918201D01*
X106830500Y-82910339D01*
X106815478Y-82903334D01*
X106796965Y-82899652D01*
X106772444Y-82883267D01*
X106747637Y-82871700D01*
X106732543Y-82856606D01*
X106712372Y-82843128D01*
X106698893Y-82822956D01*
X106683799Y-82807862D01*
X106672230Y-82783052D01*
X106655848Y-82758535D01*
X106652165Y-82740023D01*
X106645160Y-82724999D01*
X106637295Y-82665262D01*
X106636000Y-82658750D01*
X106636000Y-82341250D01*
X106637295Y-82334739D01*
X106645160Y-82275000D01*
X106652166Y-82259974D01*
X106655848Y-82241465D01*
X106672228Y-82216949D01*
X106683799Y-82192137D01*
X106698895Y-82177040D01*
X106712372Y-82156872D01*
X106732540Y-82143395D01*
X106747637Y-82128299D01*
X106772449Y-82116728D01*
X106796965Y-82100348D01*
X106815474Y-82096666D01*
X106830500Y-82089660D01*
X106890239Y-82081795D01*
X106896750Y-82080500D01*
X107214250Y-82080500D01*
X107220762Y-82081795D01*
G37*
G36*
X129362835Y-82184515D02*
G01*
X129403388Y-82211612D01*
X129430485Y-82252165D01*
X129440000Y-82300000D01*
X129440000Y-82700000D01*
X129430485Y-82747835D01*
X129403388Y-82788388D01*
X129362835Y-82815485D01*
X129315000Y-82825000D01*
X129065000Y-82825000D01*
X129017165Y-82815485D01*
X128976612Y-82788388D01*
X128949515Y-82747835D01*
X128940000Y-82700000D01*
X128940000Y-82300000D01*
X128949515Y-82252165D01*
X128976612Y-82211612D01*
X129017165Y-82184515D01*
X129065000Y-82175000D01*
X129315000Y-82175000D01*
X129362835Y-82184515D01*
G37*
G36*
X130632835Y-82184515D02*
G01*
X130673388Y-82211612D01*
X130700485Y-82252165D01*
X130710000Y-82300000D01*
X130710000Y-82700000D01*
X130700485Y-82747835D01*
X130673388Y-82788388D01*
X130632835Y-82815485D01*
X130585000Y-82825000D01*
X130335000Y-82825000D01*
X130287165Y-82815485D01*
X130246612Y-82788388D01*
X130219515Y-82747835D01*
X130210000Y-82700000D01*
X130210000Y-82300000D01*
X130219515Y-82252165D01*
X130246612Y-82211612D01*
X130287165Y-82184515D01*
X130335000Y-82175000D01*
X130585000Y-82175000D01*
X130632835Y-82184515D01*
G37*
G36*
X131902835Y-82184515D02*
G01*
X131943388Y-82211612D01*
X131970485Y-82252165D01*
X131980000Y-82300000D01*
X131980000Y-82700000D01*
X131970485Y-82747835D01*
X131943388Y-82788388D01*
X131902835Y-82815485D01*
X131855000Y-82825000D01*
X131605000Y-82825000D01*
X131557165Y-82815485D01*
X131516612Y-82788388D01*
X131489515Y-82747835D01*
X131480000Y-82700000D01*
X131480000Y-82300000D01*
X131489515Y-82252165D01*
X131516612Y-82211612D01*
X131557165Y-82184515D01*
X131605000Y-82175000D01*
X131855000Y-82175000D01*
X131902835Y-82184515D01*
G37*
G36*
X133172835Y-82184515D02*
G01*
X133213388Y-82211612D01*
X133240485Y-82252165D01*
X133250000Y-82300000D01*
X133250000Y-82700000D01*
X133240485Y-82747835D01*
X133213388Y-82788388D01*
X133172835Y-82815485D01*
X133125000Y-82825000D01*
X132875000Y-82825000D01*
X132827165Y-82815485D01*
X132786612Y-82788388D01*
X132759515Y-82747835D01*
X132750000Y-82700000D01*
X132750000Y-82300000D01*
X132759515Y-82252165D01*
X132786612Y-82211612D01*
X132827165Y-82184515D01*
X132875000Y-82175000D01*
X133125000Y-82175000D01*
X133172835Y-82184515D01*
G37*
G36*
X105326824Y-79138682D02*
G01*
X105535757Y-79206569D01*
X105731498Y-79306304D01*
X105909227Y-79435432D01*
X106064568Y-79590773D01*
X106193696Y-79768502D01*
X106293431Y-79964243D01*
X106361318Y-80173176D01*
X106395684Y-80390157D01*
X106395684Y-80609843D01*
X106361318Y-80826824D01*
X106293431Y-81035757D01*
X106193696Y-81231498D01*
X106064568Y-81409227D01*
X105909227Y-81564568D01*
X105731498Y-81693696D01*
X105535757Y-81793431D01*
X105326824Y-81861318D01*
X105109843Y-81895684D01*
X104890157Y-81895684D01*
X104673176Y-81861318D01*
X104464243Y-81793431D01*
X104268502Y-81693696D01*
X104090773Y-81564568D01*
X103935432Y-81409227D01*
X103806304Y-81231498D01*
X103706569Y-81035757D01*
X103638682Y-80826824D01*
X103604316Y-80609843D01*
X103604316Y-80390157D01*
X103638682Y-80173176D01*
X103706569Y-79964243D01*
X103806304Y-79768502D01*
X103935432Y-79590773D01*
X104090773Y-79435432D01*
X104268502Y-79306304D01*
X104464243Y-79206569D01*
X104673176Y-79138682D01*
X104890157Y-79104316D01*
X105109843Y-79104316D01*
X105326824Y-79138682D01*
G37*
G36*
X112228599Y-76746409D02*
G01*
X112371225Y-76805487D01*
X112499585Y-76891254D01*
X112608746Y-77000415D01*
X112694513Y-77128775D01*
X112753591Y-77271401D01*
X112783708Y-77422812D01*
X112783708Y-77577188D01*
X112753591Y-77728599D01*
X112694513Y-77871225D01*
X112608746Y-77999585D01*
X112499585Y-78108746D01*
X112371225Y-78194513D01*
X112228599Y-78253591D01*
X112077188Y-78283708D01*
X111922812Y-78283708D01*
X111771401Y-78253591D01*
X111628775Y-78194513D01*
X111500415Y-78108746D01*
X111391254Y-77999585D01*
X111305487Y-77871225D01*
X111246409Y-77728599D01*
X111216292Y-77577188D01*
X111216292Y-77422812D01*
X111246409Y-77271401D01*
X111305487Y-77128775D01*
X111391254Y-77000415D01*
X111500415Y-76891254D01*
X111628775Y-76805487D01*
X111771401Y-76746409D01*
X111922812Y-76716292D01*
X112077188Y-76716292D01*
X112228599Y-76746409D01*
G37*
G36*
X106154115Y-74100818D02*
G01*
X106205378Y-74106766D01*
X106222892Y-74114499D01*
X106245670Y-74119030D01*
X106270054Y-74135323D01*
X106290788Y-74144478D01*
X106304950Y-74158640D01*
X106326776Y-74173224D01*
X106341359Y-74195049D01*
X106355521Y-74209211D01*
X106364675Y-74229943D01*
X106380970Y-74254330D01*
X106385500Y-74277108D01*
X106393233Y-74294621D01*
X106399182Y-74345898D01*
X106399999Y-74350002D01*
X106399999Y-74352932D01*
X106400000Y-74352941D01*
X106400000Y-76647058D01*
X106400000Y-76649999D01*
X106399180Y-76654116D01*
X106393233Y-76705378D01*
X106385501Y-76722888D01*
X106380970Y-76745670D01*
X106364673Y-76770058D01*
X106355521Y-76790788D01*
X106341361Y-76804947D01*
X106326776Y-76826776D01*
X106304947Y-76841361D01*
X106290788Y-76855521D01*
X106270058Y-76864673D01*
X106245670Y-76880970D01*
X106222889Y-76885501D01*
X106205378Y-76893233D01*
X106154102Y-76899182D01*
X106149998Y-76899999D01*
X106147066Y-76899999D01*
X106147058Y-76900000D01*
X103852942Y-76900000D01*
X103852941Y-76899999D01*
X103850001Y-76900000D01*
X103845883Y-76899181D01*
X103794621Y-76893233D01*
X103777110Y-76885501D01*
X103754330Y-76880970D01*
X103729943Y-76864675D01*
X103709211Y-76855521D01*
X103695049Y-76841359D01*
X103673224Y-76826776D01*
X103658640Y-76804950D01*
X103644478Y-76790788D01*
X103635323Y-76770054D01*
X103619030Y-76745670D01*
X103614499Y-76722893D01*
X103606766Y-76705378D01*
X103600817Y-76654101D01*
X103600001Y-76649998D01*
X103600000Y-76647066D01*
X103600000Y-76647058D01*
X103600000Y-74352941D01*
X103600000Y-74352940D01*
X103600000Y-74350001D01*
X103600818Y-74345886D01*
X103606766Y-74294621D01*
X103614499Y-74277105D01*
X103619030Y-74254330D01*
X103635321Y-74229947D01*
X103644478Y-74209211D01*
X103658642Y-74195046D01*
X103673224Y-74173224D01*
X103695046Y-74158642D01*
X103709211Y-74144478D01*
X103729947Y-74135321D01*
X103754330Y-74119030D01*
X103777104Y-74114500D01*
X103794621Y-74106766D01*
X103845898Y-74100817D01*
X103850002Y-74100001D01*
X103852933Y-74100000D01*
X103852942Y-74100000D01*
X106147058Y-74100000D01*
X106149999Y-74100000D01*
X106154115Y-74100818D01*
G37*
G36*
X112787500Y-73287500D02*
G01*
X111212500Y-73287500D01*
X111212500Y-71712500D01*
X112787500Y-71712500D01*
X112787500Y-73287500D01*
G37*
G36*
X107665262Y-69137295D02*
G01*
X107724999Y-69145160D01*
X107740023Y-69152165D01*
X107758535Y-69155848D01*
X107783052Y-69172230D01*
X107807862Y-69183799D01*
X107822956Y-69198893D01*
X107843128Y-69212372D01*
X107856606Y-69232543D01*
X107871700Y-69247637D01*
X107883267Y-69272444D01*
X107899652Y-69296965D01*
X107903334Y-69315478D01*
X107910339Y-69330500D01*
X107918201Y-69390224D01*
X107919500Y-69396750D01*
X107919500Y-69714250D01*
X107918201Y-69720777D01*
X107910339Y-69780499D01*
X107903334Y-69795519D01*
X107899652Y-69814035D01*
X107883266Y-69838557D01*
X107871700Y-69863362D01*
X107856608Y-69878453D01*
X107843128Y-69898628D01*
X107822953Y-69912108D01*
X107807862Y-69927200D01*
X107783055Y-69938767D01*
X107758535Y-69955152D01*
X107740023Y-69958834D01*
X107721146Y-69967637D01*
X107721146Y-70032363D01*
X107740024Y-70041166D01*
X107758535Y-70044848D01*
X107783052Y-70061230D01*
X107807862Y-70072799D01*
X107822956Y-70087893D01*
X107843128Y-70101372D01*
X107856606Y-70121543D01*
X107871700Y-70136637D01*
X107883267Y-70161444D01*
X107899652Y-70185965D01*
X107903334Y-70204478D01*
X107910339Y-70219500D01*
X107918201Y-70279224D01*
X107919500Y-70285750D01*
X107919500Y-70603250D01*
X107918201Y-70609777D01*
X107910339Y-70669499D01*
X107903334Y-70684519D01*
X107899652Y-70703035D01*
X107883266Y-70727557D01*
X107871700Y-70752362D01*
X107856608Y-70767453D01*
X107843128Y-70787628D01*
X107822953Y-70801108D01*
X107807862Y-70816200D01*
X107783057Y-70827766D01*
X107758535Y-70844152D01*
X107740019Y-70847834D01*
X107724999Y-70854839D01*
X107665277Y-70862701D01*
X107658750Y-70864000D01*
X107341250Y-70864000D01*
X107334724Y-70862701D01*
X107275000Y-70854839D01*
X107259978Y-70847834D01*
X107241465Y-70844152D01*
X107216944Y-70827767D01*
X107192137Y-70816200D01*
X107177043Y-70801106D01*
X107156872Y-70787628D01*
X107143393Y-70767456D01*
X107128299Y-70752362D01*
X107116730Y-70727552D01*
X107100348Y-70703035D01*
X107096665Y-70684523D01*
X107089660Y-70669499D01*
X107081795Y-70609762D01*
X107080500Y-70603250D01*
X107080500Y-70285750D01*
X107081795Y-70279239D01*
X107089660Y-70219500D01*
X107096666Y-70204474D01*
X107100348Y-70185965D01*
X107116728Y-70161449D01*
X107128299Y-70136637D01*
X107143395Y-70121540D01*
X107156872Y-70101372D01*
X107177040Y-70087895D01*
X107192139Y-70072797D01*
X107216955Y-70061225D01*
X107241465Y-70044848D01*
X107259969Y-70041167D01*
X107278853Y-70032362D01*
X107278853Y-69967638D01*
X107259970Y-69958832D01*
X107241465Y-69955152D01*
X107216951Y-69938772D01*
X107192139Y-69927202D01*
X107177043Y-69912106D01*
X107156872Y-69898628D01*
X107143393Y-69878456D01*
X107128299Y-69863362D01*
X107116730Y-69838552D01*
X107100348Y-69814035D01*
X107096665Y-69795523D01*
X107089660Y-69780499D01*
X107081795Y-69720762D01*
X107080500Y-69714250D01*
X107080500Y-69396750D01*
X107081795Y-69390239D01*
X107089660Y-69330500D01*
X107096666Y-69315474D01*
X107100348Y-69296965D01*
X107116728Y-69272449D01*
X107128299Y-69247637D01*
X107143395Y-69232540D01*
X107156872Y-69212372D01*
X107177040Y-69198895D01*
X107192137Y-69183799D01*
X107216949Y-69172228D01*
X107241465Y-69155848D01*
X107259974Y-69152166D01*
X107275000Y-69145160D01*
X107334739Y-69137295D01*
X107341250Y-69136000D01*
X107658750Y-69136000D01*
X107665262Y-69137295D01*
G37*
G36*
X105326824Y-67638682D02*
G01*
X105535757Y-67706569D01*
X105731498Y-67806304D01*
X105909227Y-67935432D01*
X106064568Y-68090773D01*
X106193696Y-68268502D01*
X106293431Y-68464243D01*
X106361318Y-68673176D01*
X106395684Y-68890157D01*
X106395684Y-69109843D01*
X106361318Y-69326824D01*
X106293431Y-69535757D01*
X106193696Y-69731498D01*
X106064568Y-69909227D01*
X105909227Y-70064568D01*
X105731498Y-70193696D01*
X105535757Y-70293431D01*
X105326824Y-70361318D01*
X105109843Y-70395684D01*
X104890157Y-70395684D01*
X104673176Y-70361318D01*
X104464243Y-70293431D01*
X104268502Y-70193696D01*
X104090773Y-70064568D01*
X103935432Y-69909227D01*
X103806304Y-69731498D01*
X103706569Y-69535757D01*
X103638682Y-69326824D01*
X103604316Y-69109843D01*
X103604316Y-68890157D01*
X103638682Y-68673176D01*
X103706569Y-68464243D01*
X103806304Y-68268502D01*
X103935432Y-68090773D01*
X104090773Y-67935432D01*
X104268502Y-67806304D01*
X104464243Y-67706569D01*
X104673176Y-67638682D01*
X104890157Y-67604316D01*
X105109843Y-67604316D01*
X105326824Y-67638682D01*
G37*
G36*
X106154115Y-62600818D02*
G01*
X106205378Y-62606766D01*
X106222892Y-62614499D01*
X106245670Y-62619030D01*
X106270054Y-62635323D01*
X106290788Y-62644478D01*
X106304950Y-62658640D01*
X106326776Y-62673224D01*
X106341359Y-62695049D01*
X106355521Y-62709211D01*
X106364675Y-62729943D01*
X106380970Y-62754330D01*
X106385500Y-62777108D01*
X106393233Y-62794621D01*
X106399182Y-62845898D01*
X106399999Y-62850002D01*
X106399999Y-62852932D01*
X106400000Y-62852941D01*
X106400000Y-65147058D01*
X106400000Y-65149999D01*
X106399180Y-65154116D01*
X106393233Y-65205378D01*
X106385501Y-65222888D01*
X106380970Y-65245670D01*
X106364673Y-65270058D01*
X106355521Y-65290788D01*
X106341361Y-65304947D01*
X106326776Y-65326776D01*
X106304947Y-65341361D01*
X106290788Y-65355521D01*
X106270058Y-65364673D01*
X106245670Y-65380970D01*
X106222889Y-65385501D01*
X106205378Y-65393233D01*
X106154102Y-65399182D01*
X106149998Y-65399999D01*
X106147066Y-65399999D01*
X106147058Y-65400000D01*
X103852942Y-65400000D01*
X103852941Y-65399999D01*
X103850001Y-65400000D01*
X103845883Y-65399181D01*
X103794621Y-65393233D01*
X103777110Y-65385501D01*
X103754330Y-65380970D01*
X103729943Y-65364675D01*
X103709211Y-65355521D01*
X103695049Y-65341359D01*
X103673224Y-65326776D01*
X103658640Y-65304950D01*
X103644478Y-65290788D01*
X103635323Y-65270054D01*
X103619030Y-65245670D01*
X103614499Y-65222893D01*
X103606766Y-65205378D01*
X103600817Y-65154101D01*
X103600001Y-65149998D01*
X103600000Y-65147066D01*
X103600000Y-65147058D01*
X103600000Y-62852941D01*
X103600000Y-62852940D01*
X103600000Y-62850001D01*
X103600818Y-62845886D01*
X103606766Y-62794621D01*
X103614499Y-62777105D01*
X103619030Y-62754330D01*
X103635321Y-62729947D01*
X103644478Y-62709211D01*
X103658642Y-62695046D01*
X103673224Y-62673224D01*
X103695046Y-62658642D01*
X103709211Y-62644478D01*
X103729947Y-62635321D01*
X103754330Y-62619030D01*
X103777104Y-62614500D01*
X103794621Y-62606766D01*
X103845898Y-62600817D01*
X103850002Y-62600001D01*
X103852933Y-62600000D01*
X103852942Y-62600000D01*
X106147058Y-62600000D01*
X106149999Y-62600000D01*
X106154115Y-62600818D01*
G37*
G36*
X114727802Y-57084208D02*
G01*
X114901127Y-57156001D01*
X115057114Y-57260229D01*
X115189771Y-57392886D01*
X115293999Y-57548873D01*
X115365792Y-57722198D01*
X115402392Y-57906198D01*
X115402392Y-58093802D01*
X115365792Y-58277802D01*
X115293999Y-58451127D01*
X115189771Y-58607114D01*
X115057114Y-58739771D01*
X114901127Y-58843999D01*
X114727802Y-58915792D01*
X114543802Y-58952392D01*
X114356198Y-58952392D01*
X114172198Y-58915792D01*
X113998873Y-58843999D01*
X113842886Y-58739771D01*
X113710229Y-58607114D01*
X113606001Y-58451127D01*
X113534208Y-58277802D01*
X113497608Y-58093802D01*
X113497608Y-57906198D01*
X113534208Y-57722198D01*
X113606001Y-57548873D01*
X113710229Y-57392886D01*
X113842886Y-57260229D01*
X113998873Y-57156001D01*
X114172198Y-57084208D01*
X114356198Y-57047608D01*
X114543802Y-57047608D01*
X114727802Y-57084208D01*
G37*
G36*
X114727802Y-54544208D02*
G01*
X114901127Y-54616001D01*
X115057114Y-54720229D01*
X115189771Y-54852886D01*
X115293999Y-55008873D01*
X115365792Y-55182198D01*
X115402392Y-55366198D01*
X115402392Y-55553802D01*
X115365792Y-55737802D01*
X115293999Y-55911127D01*
X115189771Y-56067114D01*
X115057114Y-56199771D01*
X114901127Y-56303999D01*
X114727802Y-56375792D01*
X114543802Y-56412392D01*
X114356198Y-56412392D01*
X114172198Y-56375792D01*
X113998873Y-56303999D01*
X113842886Y-56199771D01*
X113710229Y-56067114D01*
X113606001Y-55911127D01*
X113534208Y-55737802D01*
X113497608Y-55553802D01*
X113497608Y-55366198D01*
X113534208Y-55182198D01*
X113606001Y-55008873D01*
X113710229Y-54852886D01*
X113842886Y-54720229D01*
X113998873Y-54616001D01*
X114172198Y-54544208D01*
X114356198Y-54507608D01*
X114543802Y-54507608D01*
X114727802Y-54544208D01*
G37*
G36*
X115344034Y-51970764D02*
G01*
X115377125Y-51992875D01*
X115399236Y-52025966D01*
X115407000Y-52065000D01*
X115407000Y-53775000D01*
X115399236Y-53814034D01*
X115377125Y-53847125D01*
X115344034Y-53869236D01*
X115305000Y-53877000D01*
X113595000Y-53877000D01*
X113555966Y-53869236D01*
X113522875Y-53847125D01*
X113500764Y-53814034D01*
X113493000Y-53775000D01*
X113493000Y-52065000D01*
X113500764Y-52025966D01*
X113522875Y-51992875D01*
X113555966Y-51970764D01*
X113595000Y-51963000D01*
X115305000Y-51963000D01*
X115344034Y-51970764D01*
G37*
G36*
X103854116Y-52075818D02*
G01*
X103905379Y-52081766D01*
X103922892Y-52089499D01*
X103945671Y-52094030D01*
X103970057Y-52110324D01*
X103990788Y-52119478D01*
X104004946Y-52133636D01*
X104026777Y-52148223D01*
X104041363Y-52170053D01*
X104055521Y-52184211D01*
X104064673Y-52204939D01*
X104080970Y-52229329D01*
X104085501Y-52252109D01*
X104093233Y-52269620D01*
X104099178Y-52320872D01*
X104100000Y-52325000D01*
X104100000Y-53575000D01*
X104099178Y-53579128D01*
X104093233Y-53630379D01*
X104085501Y-53647888D01*
X104080970Y-53670671D01*
X104064672Y-53695062D01*
X104055521Y-53715788D01*
X104041365Y-53729943D01*
X104026777Y-53751777D01*
X104004943Y-53766365D01*
X103990788Y-53780521D01*
X103970062Y-53789672D01*
X103945671Y-53805970D01*
X103922888Y-53810501D01*
X103905379Y-53818233D01*
X103854129Y-53824178D01*
X103850000Y-53825000D01*
X103150000Y-53825000D01*
X103145873Y-53824179D01*
X103094620Y-53818233D01*
X103077109Y-53810501D01*
X103054329Y-53805970D01*
X103029939Y-53789673D01*
X103009211Y-53780521D01*
X102995053Y-53766363D01*
X102973223Y-53751777D01*
X102958636Y-53729946D01*
X102944478Y-53715788D01*
X102935324Y-53695057D01*
X102919030Y-53670671D01*
X102914499Y-53647892D01*
X102906766Y-53630379D01*
X102900818Y-53579117D01*
X102900000Y-53575000D01*
X102900000Y-52325000D01*
X102900818Y-52320885D01*
X102906766Y-52269620D01*
X102914499Y-52252105D01*
X102919030Y-52229329D01*
X102935323Y-52204944D01*
X102944478Y-52184211D01*
X102958638Y-52170050D01*
X102973223Y-52148223D01*
X102995050Y-52133638D01*
X103009211Y-52119478D01*
X103029944Y-52110323D01*
X103054329Y-52094030D01*
X103077105Y-52089499D01*
X103094620Y-52081766D01*
X103145884Y-52075818D01*
X103150000Y-52075000D01*
X103850000Y-52075000D01*
X103854116Y-52075818D01*
G37*
G36*
X105568836Y-52080133D02*
G01*
X105578316Y-52080133D01*
X105605623Y-52087449D01*
X105674100Y-52101070D01*
X105706423Y-52114459D01*
X105729610Y-52120672D01*
X105750401Y-52132676D01*
X105782722Y-52146064D01*
X105840770Y-52184850D01*
X105865257Y-52198988D01*
X105871959Y-52205690D01*
X105880482Y-52211385D01*
X105963614Y-52294517D01*
X105969308Y-52303039D01*
X105976012Y-52309743D01*
X105990151Y-52334233D01*
X106028935Y-52392277D01*
X106042321Y-52424594D01*
X106054328Y-52445390D01*
X106060541Y-52468580D01*
X106073929Y-52500899D01*
X106087547Y-52569366D01*
X106094867Y-52596684D01*
X106095794Y-52610827D01*
X106097110Y-52617444D01*
X106099754Y-52671250D01*
X106100000Y-52675000D01*
X106100000Y-53225000D01*
X106099754Y-53228752D01*
X106097110Y-53282555D01*
X106095794Y-53289170D01*
X106094867Y-53303316D01*
X106087546Y-53330636D01*
X106073929Y-53399100D01*
X106060542Y-53431416D01*
X106054328Y-53454610D01*
X106042320Y-53475407D01*
X106028935Y-53507722D01*
X105990155Y-53565759D01*
X105976012Y-53590257D01*
X105969306Y-53596962D01*
X105963614Y-53605482D01*
X105880482Y-53688614D01*
X105871962Y-53694306D01*
X105865257Y-53701012D01*
X105840759Y-53715155D01*
X105782722Y-53753935D01*
X105750407Y-53767320D01*
X105729610Y-53779328D01*
X105706416Y-53785542D01*
X105674100Y-53798929D01*
X105605629Y-53812548D01*
X105578316Y-53819867D01*
X105568836Y-53819867D01*
X105558786Y-53821866D01*
X105441214Y-53821866D01*
X105431164Y-53819867D01*
X105421684Y-53819867D01*
X105394371Y-53812548D01*
X105325899Y-53798929D01*
X105293580Y-53785541D01*
X105270390Y-53779328D01*
X105249594Y-53767321D01*
X105217277Y-53753935D01*
X105159233Y-53715151D01*
X105134743Y-53701012D01*
X105128039Y-53694308D01*
X105119517Y-53688614D01*
X105036385Y-53605482D01*
X105030690Y-53596959D01*
X105023988Y-53590257D01*
X105009850Y-53565770D01*
X104971064Y-53507722D01*
X104957676Y-53475401D01*
X104945672Y-53454610D01*
X104939459Y-53431423D01*
X104926070Y-53399100D01*
X104912449Y-53330622D01*
X104905133Y-53303316D01*
X104904206Y-53289178D01*
X104902889Y-53282555D01*
X104900245Y-53228746D01*
X104900000Y-53225000D01*
X104900000Y-52675000D01*
X104900245Y-52671256D01*
X104902889Y-52617444D01*
X104904206Y-52610820D01*
X104905133Y-52596684D01*
X104912448Y-52569380D01*
X104926070Y-52500899D01*
X104939459Y-52468573D01*
X104945672Y-52445390D01*
X104957674Y-52424600D01*
X104971064Y-52392277D01*
X105009854Y-52334222D01*
X105023988Y-52309743D01*
X105030688Y-52303042D01*
X105036385Y-52294517D01*
X105119517Y-52211385D01*
X105128042Y-52205688D01*
X105134743Y-52198988D01*
X105159222Y-52184854D01*
X105217277Y-52146064D01*
X105249600Y-52132674D01*
X105270390Y-52120672D01*
X105293573Y-52114459D01*
X105325899Y-52101070D01*
X105394377Y-52087449D01*
X105421684Y-52080133D01*
X105431164Y-52080133D01*
X105441214Y-52078134D01*
X105558786Y-52078134D01*
X105568836Y-52080133D01*
G37*
M02*
