G04 #@! TF.GenerationSoftware,KiCad,Pcbnew,9.0.3*
G04 #@! TF.CreationDate,2025-12-20T12:13:59-05:00*
G04 #@! TF.ProjectId,Experimental,45787065-7269-46d6-956e-74616c2e6b69,rev?*
G04 #@! TF.SameCoordinates,Original*
G04 #@! TF.FileFunction,AssemblyDrawing,Bot*
%FSLAX46Y46*%
G04 Gerber Fmt 4.6, Leading zero omitted, Abs format (unit mm)*
G04 Created by KiCad (PCBNEW 9.0.3) date 2025-12-20 12:13:59*
%MOMM*%
%LPD*%
G01*
G04 APERTURE LIST*
%ADD10C,0.254000*%
%ADD11C,0.150000*%
%ADD12C,0.040000*%
%ADD13C,0.080000*%
%ADD14C,0.100000*%
%ADD15C,0.060000*%
%ADD16C,0.075000*%
%ADD17C,0.127000*%
%ADD18C,0.200000*%
G04 APERTURE END LIST*
D10*
X111816428Y-114953365D02*
X111876904Y-115013842D01*
X111876904Y-115013842D02*
X112058333Y-115074318D01*
X112058333Y-115074318D02*
X112179285Y-115074318D01*
X112179285Y-115074318D02*
X112360714Y-115013842D01*
X112360714Y-115013842D02*
X112481666Y-114892889D01*
X112481666Y-114892889D02*
X112542143Y-114771937D01*
X112542143Y-114771937D02*
X112602619Y-114530032D01*
X112602619Y-114530032D02*
X112602619Y-114348603D01*
X112602619Y-114348603D02*
X112542143Y-114106699D01*
X112542143Y-114106699D02*
X112481666Y-113985746D01*
X112481666Y-113985746D02*
X112360714Y-113864794D01*
X112360714Y-113864794D02*
X112179285Y-113804318D01*
X112179285Y-113804318D02*
X112058333Y-113804318D01*
X112058333Y-113804318D02*
X111876904Y-113864794D01*
X111876904Y-113864794D02*
X111816428Y-113925270D01*
X110606904Y-115074318D02*
X111332619Y-115074318D01*
X110969762Y-115074318D02*
X110969762Y-113804318D01*
X110969762Y-113804318D02*
X111090714Y-113985746D01*
X111090714Y-113985746D02*
X111211666Y-114106699D01*
X111211666Y-114106699D02*
X111332619Y-114167175D01*
X109518333Y-114227651D02*
X109518333Y-115074318D01*
X109820714Y-113743842D02*
X110123095Y-114650984D01*
X110123095Y-114650984D02*
X109336904Y-114650984D01*
D11*
X136952381Y-103454819D02*
X137523809Y-103454819D01*
X137238095Y-103454819D02*
X137238095Y-102454819D01*
X137238095Y-102454819D02*
X137333333Y-102597676D01*
X137333333Y-102597676D02*
X137428571Y-102692914D01*
X137428571Y-102692914D02*
X137523809Y-102740533D01*
X136095238Y-102788152D02*
X136095238Y-103454819D01*
X136523809Y-102788152D02*
X136523809Y-103311961D01*
X136523809Y-103311961D02*
X136476190Y-103407200D01*
X136476190Y-103407200D02*
X136380952Y-103454819D01*
X136380952Y-103454819D02*
X136238095Y-103454819D01*
X136238095Y-103454819D02*
X136142857Y-103407200D01*
X136142857Y-103407200D02*
X136095238Y-103359580D01*
X135761904Y-102788152D02*
X135380952Y-102788152D01*
X135619047Y-103454819D02*
X135619047Y-102597676D01*
X135619047Y-102597676D02*
X135571428Y-102502438D01*
X135571428Y-102502438D02*
X135476190Y-102454819D01*
X135476190Y-102454819D02*
X135380952Y-102454819D01*
D12*
X135541666Y-103089765D02*
X135553570Y-103101670D01*
X135553570Y-103101670D02*
X135589285Y-103113574D01*
X135589285Y-103113574D02*
X135613094Y-103113574D01*
X135613094Y-103113574D02*
X135648808Y-103101670D01*
X135648808Y-103101670D02*
X135672618Y-103077860D01*
X135672618Y-103077860D02*
X135684523Y-103054050D01*
X135684523Y-103054050D02*
X135696427Y-103006431D01*
X135696427Y-103006431D02*
X135696427Y-102970717D01*
X135696427Y-102970717D02*
X135684523Y-102923098D01*
X135684523Y-102923098D02*
X135672618Y-102899289D01*
X135672618Y-102899289D02*
X135648808Y-102875479D01*
X135648808Y-102875479D02*
X135613094Y-102863574D01*
X135613094Y-102863574D02*
X135589285Y-102863574D01*
X135589285Y-102863574D02*
X135553570Y-102875479D01*
X135553570Y-102875479D02*
X135541666Y-102887384D01*
X135303570Y-103113574D02*
X135446427Y-103113574D01*
X135374999Y-103113574D02*
X135374999Y-102863574D01*
X135374999Y-102863574D02*
X135398808Y-102899289D01*
X135398808Y-102899289D02*
X135422618Y-102923098D01*
X135422618Y-102923098D02*
X135446427Y-102935003D01*
X110728165Y-75388333D02*
X110740070Y-75376429D01*
X110740070Y-75376429D02*
X110751974Y-75340714D01*
X110751974Y-75340714D02*
X110751974Y-75316905D01*
X110751974Y-75316905D02*
X110740070Y-75281191D01*
X110740070Y-75281191D02*
X110716260Y-75257381D01*
X110716260Y-75257381D02*
X110692450Y-75245476D01*
X110692450Y-75245476D02*
X110644831Y-75233572D01*
X110644831Y-75233572D02*
X110609117Y-75233572D01*
X110609117Y-75233572D02*
X110561498Y-75245476D01*
X110561498Y-75245476D02*
X110537689Y-75257381D01*
X110537689Y-75257381D02*
X110513879Y-75281191D01*
X110513879Y-75281191D02*
X110501974Y-75316905D01*
X110501974Y-75316905D02*
X110501974Y-75340714D01*
X110501974Y-75340714D02*
X110513879Y-75376429D01*
X110513879Y-75376429D02*
X110525784Y-75388333D01*
X110501974Y-75602619D02*
X110501974Y-75555000D01*
X110501974Y-75555000D02*
X110513879Y-75531191D01*
X110513879Y-75531191D02*
X110525784Y-75519286D01*
X110525784Y-75519286D02*
X110561498Y-75495476D01*
X110561498Y-75495476D02*
X110609117Y-75483572D01*
X110609117Y-75483572D02*
X110704355Y-75483572D01*
X110704355Y-75483572D02*
X110728165Y-75495476D01*
X110728165Y-75495476D02*
X110740070Y-75507381D01*
X110740070Y-75507381D02*
X110751974Y-75531191D01*
X110751974Y-75531191D02*
X110751974Y-75578810D01*
X110751974Y-75578810D02*
X110740070Y-75602619D01*
X110740070Y-75602619D02*
X110728165Y-75614524D01*
X110728165Y-75614524D02*
X110704355Y-75626429D01*
X110704355Y-75626429D02*
X110644831Y-75626429D01*
X110644831Y-75626429D02*
X110621022Y-75614524D01*
X110621022Y-75614524D02*
X110609117Y-75602619D01*
X110609117Y-75602619D02*
X110597212Y-75578810D01*
X110597212Y-75578810D02*
X110597212Y-75531191D01*
X110597212Y-75531191D02*
X110609117Y-75507381D01*
X110609117Y-75507381D02*
X110621022Y-75495476D01*
X110621022Y-75495476D02*
X110644831Y-75483572D01*
D11*
X124095238Y-96954819D02*
X124666666Y-96954819D01*
X124380952Y-96954819D02*
X124380952Y-95954819D01*
X124380952Y-95954819D02*
X124476190Y-96097676D01*
X124476190Y-96097676D02*
X124571428Y-96192914D01*
X124571428Y-96192914D02*
X124666666Y-96240533D01*
X123476190Y-95954819D02*
X123380952Y-95954819D01*
X123380952Y-95954819D02*
X123285714Y-96002438D01*
X123285714Y-96002438D02*
X123238095Y-96050057D01*
X123238095Y-96050057D02*
X123190476Y-96145295D01*
X123190476Y-96145295D02*
X123142857Y-96335771D01*
X123142857Y-96335771D02*
X123142857Y-96573866D01*
X123142857Y-96573866D02*
X123190476Y-96764342D01*
X123190476Y-96764342D02*
X123238095Y-96859580D01*
X123238095Y-96859580D02*
X123285714Y-96907200D01*
X123285714Y-96907200D02*
X123380952Y-96954819D01*
X123380952Y-96954819D02*
X123476190Y-96954819D01*
X123476190Y-96954819D02*
X123571428Y-96907200D01*
X123571428Y-96907200D02*
X123619047Y-96859580D01*
X123619047Y-96859580D02*
X123666666Y-96764342D01*
X123666666Y-96764342D02*
X123714285Y-96573866D01*
X123714285Y-96573866D02*
X123714285Y-96335771D01*
X123714285Y-96335771D02*
X123666666Y-96145295D01*
X123666666Y-96145295D02*
X123619047Y-96050057D01*
X123619047Y-96050057D02*
X123571428Y-96002438D01*
X123571428Y-96002438D02*
X123476190Y-95954819D01*
X122285714Y-96288152D02*
X122285714Y-96954819D01*
X122714285Y-96288152D02*
X122714285Y-96811961D01*
X122714285Y-96811961D02*
X122666666Y-96907200D01*
X122666666Y-96907200D02*
X122571428Y-96954819D01*
X122571428Y-96954819D02*
X122428571Y-96954819D01*
X122428571Y-96954819D02*
X122333333Y-96907200D01*
X122333333Y-96907200D02*
X122285714Y-96859580D01*
X121952380Y-96288152D02*
X121571428Y-96288152D01*
X121809523Y-96954819D02*
X121809523Y-96097676D01*
X121809523Y-96097676D02*
X121761904Y-96002438D01*
X121761904Y-96002438D02*
X121666666Y-95954819D01*
X121666666Y-95954819D02*
X121571428Y-95954819D01*
X119952380Y-96954819D02*
X120523808Y-96954819D01*
X120238094Y-96954819D02*
X120238094Y-95954819D01*
X120238094Y-95954819D02*
X120333332Y-96097676D01*
X120333332Y-96097676D02*
X120428570Y-96192914D01*
X120428570Y-96192914D02*
X120523808Y-96240533D01*
X119523808Y-96954819D02*
X119523808Y-96288152D01*
X119523808Y-96383390D02*
X119476189Y-96335771D01*
X119476189Y-96335771D02*
X119380951Y-96288152D01*
X119380951Y-96288152D02*
X119238094Y-96288152D01*
X119238094Y-96288152D02*
X119142856Y-96335771D01*
X119142856Y-96335771D02*
X119095237Y-96431009D01*
X119095237Y-96431009D02*
X119095237Y-96954819D01*
X119095237Y-96431009D02*
X119047618Y-96335771D01*
X119047618Y-96335771D02*
X118952380Y-96288152D01*
X118952380Y-96288152D02*
X118809523Y-96288152D01*
X118809523Y-96288152D02*
X118714284Y-96335771D01*
X118714284Y-96335771D02*
X118666665Y-96431009D01*
X118666665Y-96431009D02*
X118666665Y-96954819D01*
X117999999Y-95954819D02*
X117809523Y-95954819D01*
X117809523Y-95954819D02*
X117714285Y-96002438D01*
X117714285Y-96002438D02*
X117619047Y-96097676D01*
X117619047Y-96097676D02*
X117571428Y-96288152D01*
X117571428Y-96288152D02*
X117571428Y-96621485D01*
X117571428Y-96621485D02*
X117619047Y-96811961D01*
X117619047Y-96811961D02*
X117714285Y-96907200D01*
X117714285Y-96907200D02*
X117809523Y-96954819D01*
X117809523Y-96954819D02*
X117999999Y-96954819D01*
X117999999Y-96954819D02*
X118095237Y-96907200D01*
X118095237Y-96907200D02*
X118190475Y-96811961D01*
X118190475Y-96811961D02*
X118238094Y-96621485D01*
X118238094Y-96621485D02*
X118238094Y-96288152D01*
X118238094Y-96288152D02*
X118190475Y-96097676D01*
X118190475Y-96097676D02*
X118095237Y-96002438D01*
X118095237Y-96002438D02*
X117999999Y-95954819D01*
X117142856Y-96954819D02*
X117142856Y-95954819D01*
X116714285Y-96954819D02*
X116714285Y-96431009D01*
X116714285Y-96431009D02*
X116761904Y-96335771D01*
X116761904Y-96335771D02*
X116857142Y-96288152D01*
X116857142Y-96288152D02*
X116999999Y-96288152D01*
X116999999Y-96288152D02*
X117095237Y-96335771D01*
X117095237Y-96335771D02*
X117142856Y-96383390D01*
X116238094Y-96954819D02*
X116238094Y-96288152D01*
X116238094Y-96383390D02*
X116190475Y-96335771D01*
X116190475Y-96335771D02*
X116095237Y-96288152D01*
X116095237Y-96288152D02*
X115952380Y-96288152D01*
X115952380Y-96288152D02*
X115857142Y-96335771D01*
X115857142Y-96335771D02*
X115809523Y-96431009D01*
X115809523Y-96431009D02*
X115809523Y-96954819D01*
X115809523Y-96431009D02*
X115761904Y-96335771D01*
X115761904Y-96335771D02*
X115666666Y-96288152D01*
X115666666Y-96288152D02*
X115523809Y-96288152D01*
X115523809Y-96288152D02*
X115428570Y-96335771D01*
X115428570Y-96335771D02*
X115380951Y-96431009D01*
X115380951Y-96431009D02*
X115380951Y-96954819D01*
D13*
X129679530Y-93228571D02*
X129703340Y-93204762D01*
X129703340Y-93204762D02*
X129727149Y-93133333D01*
X129727149Y-93133333D02*
X129727149Y-93085714D01*
X129727149Y-93085714D02*
X129703340Y-93014286D01*
X129703340Y-93014286D02*
X129655720Y-92966667D01*
X129655720Y-92966667D02*
X129608101Y-92942857D01*
X129608101Y-92942857D02*
X129512863Y-92919048D01*
X129512863Y-92919048D02*
X129441435Y-92919048D01*
X129441435Y-92919048D02*
X129346197Y-92942857D01*
X129346197Y-92942857D02*
X129298578Y-92966667D01*
X129298578Y-92966667D02*
X129250959Y-93014286D01*
X129250959Y-93014286D02*
X129227149Y-93085714D01*
X129227149Y-93085714D02*
X129227149Y-93133333D01*
X129227149Y-93133333D02*
X129250959Y-93204762D01*
X129250959Y-93204762D02*
X129274768Y-93228571D01*
X129727149Y-93704762D02*
X129727149Y-93419048D01*
X129727149Y-93561905D02*
X129227149Y-93561905D01*
X129227149Y-93561905D02*
X129298578Y-93514286D01*
X129298578Y-93514286D02*
X129346197Y-93466667D01*
X129346197Y-93466667D02*
X129370006Y-93419048D01*
X129227149Y-94014285D02*
X129227149Y-94061904D01*
X129227149Y-94061904D02*
X129250959Y-94109523D01*
X129250959Y-94109523D02*
X129274768Y-94133333D01*
X129274768Y-94133333D02*
X129322387Y-94157142D01*
X129322387Y-94157142D02*
X129417625Y-94180952D01*
X129417625Y-94180952D02*
X129536673Y-94180952D01*
X129536673Y-94180952D02*
X129631911Y-94157142D01*
X129631911Y-94157142D02*
X129679530Y-94133333D01*
X129679530Y-94133333D02*
X129703340Y-94109523D01*
X129703340Y-94109523D02*
X129727149Y-94061904D01*
X129727149Y-94061904D02*
X129727149Y-94014285D01*
X129727149Y-94014285D02*
X129703340Y-93966666D01*
X129703340Y-93966666D02*
X129679530Y-93942857D01*
X129679530Y-93942857D02*
X129631911Y-93919047D01*
X129631911Y-93919047D02*
X129536673Y-93895238D01*
X129536673Y-93895238D02*
X129417625Y-93895238D01*
X129417625Y-93895238D02*
X129322387Y-93919047D01*
X129322387Y-93919047D02*
X129274768Y-93942857D01*
X129274768Y-93942857D02*
X129250959Y-93966666D01*
X129250959Y-93966666D02*
X129227149Y-94014285D01*
D14*
X142871190Y-59999800D02*
X142728333Y-60047419D01*
X142728333Y-60047419D02*
X142490238Y-60047419D01*
X142490238Y-60047419D02*
X142395000Y-59999800D01*
X142395000Y-59999800D02*
X142347381Y-59952180D01*
X142347381Y-59952180D02*
X142299762Y-59856942D01*
X142299762Y-59856942D02*
X142299762Y-59761704D01*
X142299762Y-59761704D02*
X142347381Y-59666466D01*
X142347381Y-59666466D02*
X142395000Y-59618847D01*
X142395000Y-59618847D02*
X142490238Y-59571228D01*
X142490238Y-59571228D02*
X142680714Y-59523609D01*
X142680714Y-59523609D02*
X142775952Y-59475990D01*
X142775952Y-59475990D02*
X142823571Y-59428371D01*
X142823571Y-59428371D02*
X142871190Y-59333133D01*
X142871190Y-59333133D02*
X142871190Y-59237895D01*
X142871190Y-59237895D02*
X142823571Y-59142657D01*
X142823571Y-59142657D02*
X142775952Y-59095038D01*
X142775952Y-59095038D02*
X142680714Y-59047419D01*
X142680714Y-59047419D02*
X142442619Y-59047419D01*
X142442619Y-59047419D02*
X142299762Y-59095038D01*
X141871190Y-60047419D02*
X141871190Y-59047419D01*
X141871190Y-59047419D02*
X141633095Y-59047419D01*
X141633095Y-59047419D02*
X141490238Y-59095038D01*
X141490238Y-59095038D02*
X141395000Y-59190276D01*
X141395000Y-59190276D02*
X141347381Y-59285514D01*
X141347381Y-59285514D02*
X141299762Y-59475990D01*
X141299762Y-59475990D02*
X141299762Y-59618847D01*
X141299762Y-59618847D02*
X141347381Y-59809323D01*
X141347381Y-59809323D02*
X141395000Y-59904561D01*
X141395000Y-59904561D02*
X141490238Y-59999800D01*
X141490238Y-59999800D02*
X141633095Y-60047419D01*
X141633095Y-60047419D02*
X141871190Y-60047419D01*
X140299762Y-59952180D02*
X140347381Y-59999800D01*
X140347381Y-59999800D02*
X140490238Y-60047419D01*
X140490238Y-60047419D02*
X140585476Y-60047419D01*
X140585476Y-60047419D02*
X140728333Y-59999800D01*
X140728333Y-59999800D02*
X140823571Y-59904561D01*
X140823571Y-59904561D02*
X140871190Y-59809323D01*
X140871190Y-59809323D02*
X140918809Y-59618847D01*
X140918809Y-59618847D02*
X140918809Y-59475990D01*
X140918809Y-59475990D02*
X140871190Y-59285514D01*
X140871190Y-59285514D02*
X140823571Y-59190276D01*
X140823571Y-59190276D02*
X140728333Y-59095038D01*
X140728333Y-59095038D02*
X140585476Y-59047419D01*
X140585476Y-59047419D02*
X140490238Y-59047419D01*
X140490238Y-59047419D02*
X140347381Y-59095038D01*
X140347381Y-59095038D02*
X140299762Y-59142657D01*
X139442619Y-60047419D02*
X139442619Y-59523609D01*
X139442619Y-59523609D02*
X139490238Y-59428371D01*
X139490238Y-59428371D02*
X139585476Y-59380752D01*
X139585476Y-59380752D02*
X139775952Y-59380752D01*
X139775952Y-59380752D02*
X139871190Y-59428371D01*
X139442619Y-59999800D02*
X139537857Y-60047419D01*
X139537857Y-60047419D02*
X139775952Y-60047419D01*
X139775952Y-60047419D02*
X139871190Y-59999800D01*
X139871190Y-59999800D02*
X139918809Y-59904561D01*
X139918809Y-59904561D02*
X139918809Y-59809323D01*
X139918809Y-59809323D02*
X139871190Y-59714085D01*
X139871190Y-59714085D02*
X139775952Y-59666466D01*
X139775952Y-59666466D02*
X139537857Y-59666466D01*
X139537857Y-59666466D02*
X139442619Y-59618847D01*
X138966428Y-60047419D02*
X138966428Y-59380752D01*
X138966428Y-59571228D02*
X138918809Y-59475990D01*
X138918809Y-59475990D02*
X138871190Y-59428371D01*
X138871190Y-59428371D02*
X138775952Y-59380752D01*
X138775952Y-59380752D02*
X138680714Y-59380752D01*
X137918809Y-60047419D02*
X137918809Y-59047419D01*
X137918809Y-59999800D02*
X138014047Y-60047419D01*
X138014047Y-60047419D02*
X138204523Y-60047419D01*
X138204523Y-60047419D02*
X138299761Y-59999800D01*
X138299761Y-59999800D02*
X138347380Y-59952180D01*
X138347380Y-59952180D02*
X138394999Y-59856942D01*
X138394999Y-59856942D02*
X138394999Y-59571228D01*
X138394999Y-59571228D02*
X138347380Y-59475990D01*
X138347380Y-59475990D02*
X138299761Y-59428371D01*
X138299761Y-59428371D02*
X138204523Y-59380752D01*
X138204523Y-59380752D02*
X138014047Y-59380752D01*
X138014047Y-59380752D02*
X137918809Y-59428371D01*
X136918809Y-60047419D02*
X137490237Y-60047419D01*
X137204523Y-60047419D02*
X137204523Y-59047419D01*
X137204523Y-59047419D02*
X137299761Y-59190276D01*
X137299761Y-59190276D02*
X137394999Y-59285514D01*
X137394999Y-59285514D02*
X137490237Y-59333133D01*
D15*
X137247618Y-106781927D02*
X137438094Y-106781927D01*
X137438094Y-106781927D02*
X137457142Y-106972403D01*
X137457142Y-106972403D02*
X137438094Y-106953356D01*
X137438094Y-106953356D02*
X137399999Y-106934308D01*
X137399999Y-106934308D02*
X137304761Y-106934308D01*
X137304761Y-106934308D02*
X137266666Y-106953356D01*
X137266666Y-106953356D02*
X137247618Y-106972403D01*
X137247618Y-106972403D02*
X137228571Y-107010499D01*
X137228571Y-107010499D02*
X137228571Y-107105737D01*
X137228571Y-107105737D02*
X137247618Y-107143832D01*
X137247618Y-107143832D02*
X137266666Y-107162880D01*
X137266666Y-107162880D02*
X137304761Y-107181927D01*
X137304761Y-107181927D02*
X137399999Y-107181927D01*
X137399999Y-107181927D02*
X137438094Y-107162880D01*
X137438094Y-107162880D02*
X137457142Y-107143832D01*
X137095238Y-106915260D02*
X137000000Y-107181927D01*
X137000000Y-107181927D02*
X136904761Y-106915260D01*
X136542857Y-107181927D02*
X136771428Y-107181927D01*
X136657142Y-107181927D02*
X136657142Y-106781927D01*
X136657142Y-106781927D02*
X136695238Y-106839070D01*
X136695238Y-106839070D02*
X136733333Y-106877165D01*
X136733333Y-106877165D02*
X136771428Y-106896213D01*
D11*
X130541697Y-86721523D02*
X130541697Y-86321322D01*
X130541697Y-86521422D02*
X129841345Y-86521422D01*
X129841345Y-86521422D02*
X129941395Y-86454722D01*
X129941395Y-86454722D02*
X130008095Y-86388022D01*
X130008095Y-86388022D02*
X130041445Y-86321322D01*
X129841345Y-87155074D02*
X129841345Y-87221775D01*
X129841345Y-87221775D02*
X129874695Y-87288475D01*
X129874695Y-87288475D02*
X129908045Y-87321825D01*
X129908045Y-87321825D02*
X129974745Y-87355175D01*
X129974745Y-87355175D02*
X130108145Y-87388525D01*
X130108145Y-87388525D02*
X130274896Y-87388525D01*
X130274896Y-87388525D02*
X130408296Y-87355175D01*
X130408296Y-87355175D02*
X130474996Y-87321825D01*
X130474996Y-87321825D02*
X130508347Y-87288475D01*
X130508347Y-87288475D02*
X130541697Y-87221775D01*
X130541697Y-87221775D02*
X130541697Y-87155074D01*
X130541697Y-87155074D02*
X130508347Y-87088374D01*
X130508347Y-87088374D02*
X130474996Y-87055024D01*
X130474996Y-87055024D02*
X130408296Y-87021674D01*
X130408296Y-87021674D02*
X130274896Y-86988324D01*
X130274896Y-86988324D02*
X130108145Y-86988324D01*
X130108145Y-86988324D02*
X129974745Y-87021674D01*
X129974745Y-87021674D02*
X129908045Y-87055024D01*
X129908045Y-87055024D02*
X129874695Y-87088374D01*
X129874695Y-87088374D02*
X129841345Y-87155074D01*
X130541697Y-87688676D02*
X129841345Y-87688676D01*
X130274896Y-87755376D02*
X130541697Y-87955477D01*
X130074795Y-87955477D02*
X130341596Y-87688676D01*
X136452381Y-110954819D02*
X137023809Y-110954819D01*
X136738095Y-110954819D02*
X136738095Y-109954819D01*
X136738095Y-109954819D02*
X136833333Y-110097676D01*
X136833333Y-110097676D02*
X136928571Y-110192914D01*
X136928571Y-110192914D02*
X137023809Y-110240533D01*
X135595238Y-110288152D02*
X135595238Y-110954819D01*
X136023809Y-110288152D02*
X136023809Y-110811961D01*
X136023809Y-110811961D02*
X135976190Y-110907200D01*
X135976190Y-110907200D02*
X135880952Y-110954819D01*
X135880952Y-110954819D02*
X135738095Y-110954819D01*
X135738095Y-110954819D02*
X135642857Y-110907200D01*
X135642857Y-110907200D02*
X135595238Y-110859580D01*
X135261904Y-110288152D02*
X134880952Y-110288152D01*
X135119047Y-110954819D02*
X135119047Y-110097676D01*
X135119047Y-110097676D02*
X135071428Y-110002438D01*
X135071428Y-110002438D02*
X134976190Y-109954819D01*
X134976190Y-109954819D02*
X134880952Y-109954819D01*
D12*
X135541666Y-109089765D02*
X135553570Y-109101670D01*
X135553570Y-109101670D02*
X135589285Y-109113574D01*
X135589285Y-109113574D02*
X135613094Y-109113574D01*
X135613094Y-109113574D02*
X135648808Y-109101670D01*
X135648808Y-109101670D02*
X135672618Y-109077860D01*
X135672618Y-109077860D02*
X135684523Y-109054050D01*
X135684523Y-109054050D02*
X135696427Y-109006431D01*
X135696427Y-109006431D02*
X135696427Y-108970717D01*
X135696427Y-108970717D02*
X135684523Y-108923098D01*
X135684523Y-108923098D02*
X135672618Y-108899289D01*
X135672618Y-108899289D02*
X135648808Y-108875479D01*
X135648808Y-108875479D02*
X135613094Y-108863574D01*
X135613094Y-108863574D02*
X135589285Y-108863574D01*
X135589285Y-108863574D02*
X135553570Y-108875479D01*
X135553570Y-108875479D02*
X135541666Y-108887384D01*
X135446427Y-108887384D02*
X135434523Y-108875479D01*
X135434523Y-108875479D02*
X135410713Y-108863574D01*
X135410713Y-108863574D02*
X135351189Y-108863574D01*
X135351189Y-108863574D02*
X135327380Y-108875479D01*
X135327380Y-108875479D02*
X135315475Y-108887384D01*
X135315475Y-108887384D02*
X135303570Y-108911193D01*
X135303570Y-108911193D02*
X135303570Y-108935003D01*
X135303570Y-108935003D02*
X135315475Y-108970717D01*
X135315475Y-108970717D02*
X135458332Y-109113574D01*
X135458332Y-109113574D02*
X135303570Y-109113574D01*
D10*
X135816428Y-97453365D02*
X135876904Y-97513842D01*
X135876904Y-97513842D02*
X136058333Y-97574318D01*
X136058333Y-97574318D02*
X136179285Y-97574318D01*
X136179285Y-97574318D02*
X136360714Y-97513842D01*
X136360714Y-97513842D02*
X136481666Y-97392889D01*
X136481666Y-97392889D02*
X136542143Y-97271937D01*
X136542143Y-97271937D02*
X136602619Y-97030032D01*
X136602619Y-97030032D02*
X136602619Y-96848603D01*
X136602619Y-96848603D02*
X136542143Y-96606699D01*
X136542143Y-96606699D02*
X136481666Y-96485746D01*
X136481666Y-96485746D02*
X136360714Y-96364794D01*
X136360714Y-96364794D02*
X136179285Y-96304318D01*
X136179285Y-96304318D02*
X136058333Y-96304318D01*
X136058333Y-96304318D02*
X135876904Y-96364794D01*
X135876904Y-96364794D02*
X135816428Y-96425270D01*
X134606904Y-97574318D02*
X135332619Y-97574318D01*
X134969762Y-97574318D02*
X134969762Y-96304318D01*
X134969762Y-96304318D02*
X135090714Y-96485746D01*
X135090714Y-96485746D02*
X135211666Y-96606699D01*
X135211666Y-96606699D02*
X135332619Y-96667175D01*
X133397380Y-97574318D02*
X134123095Y-97574318D01*
X133760238Y-97574318D02*
X133760238Y-96304318D01*
X133760238Y-96304318D02*
X133881190Y-96485746D01*
X133881190Y-96485746D02*
X134002142Y-96606699D01*
X134002142Y-96606699D02*
X134123095Y-96667175D01*
D11*
X125579819Y-83011905D02*
X126389342Y-83011905D01*
X126389342Y-83011905D02*
X126484580Y-83059524D01*
X126484580Y-83059524D02*
X126532200Y-83107143D01*
X126532200Y-83107143D02*
X126579819Y-83202381D01*
X126579819Y-83202381D02*
X126579819Y-83392857D01*
X126579819Y-83392857D02*
X126532200Y-83488095D01*
X126532200Y-83488095D02*
X126484580Y-83535714D01*
X126484580Y-83535714D02*
X126389342Y-83583333D01*
X126389342Y-83583333D02*
X125579819Y-83583333D01*
X126579819Y-84583333D02*
X126579819Y-84011905D01*
X126579819Y-84297619D02*
X125579819Y-84297619D01*
X125579819Y-84297619D02*
X125722676Y-84202381D01*
X125722676Y-84202381D02*
X125817914Y-84107143D01*
X125817914Y-84107143D02*
X125865533Y-84011905D01*
X125579819Y-85202381D02*
X125579819Y-85297619D01*
X125579819Y-85297619D02*
X125627438Y-85392857D01*
X125627438Y-85392857D02*
X125675057Y-85440476D01*
X125675057Y-85440476D02*
X125770295Y-85488095D01*
X125770295Y-85488095D02*
X125960771Y-85535714D01*
X125960771Y-85535714D02*
X126198866Y-85535714D01*
X126198866Y-85535714D02*
X126389342Y-85488095D01*
X126389342Y-85488095D02*
X126484580Y-85440476D01*
X126484580Y-85440476D02*
X126532200Y-85392857D01*
X126532200Y-85392857D02*
X126579819Y-85297619D01*
X126579819Y-85297619D02*
X126579819Y-85202381D01*
X126579819Y-85202381D02*
X126532200Y-85107143D01*
X126532200Y-85107143D02*
X126484580Y-85059524D01*
X126484580Y-85059524D02*
X126389342Y-85011905D01*
X126389342Y-85011905D02*
X126198866Y-84964286D01*
X126198866Y-84964286D02*
X125960771Y-84964286D01*
X125960771Y-84964286D02*
X125770295Y-85011905D01*
X125770295Y-85011905D02*
X125675057Y-85059524D01*
X125675057Y-85059524D02*
X125627438Y-85107143D01*
X125627438Y-85107143D02*
X125579819Y-85202381D01*
X129529819Y-78107143D02*
X130529819Y-78345238D01*
X130529819Y-78345238D02*
X129815533Y-78535714D01*
X129815533Y-78535714D02*
X130529819Y-78726190D01*
X130529819Y-78726190D02*
X129529819Y-78964286D01*
X130482200Y-79297619D02*
X130529819Y-79440476D01*
X130529819Y-79440476D02*
X130529819Y-79678571D01*
X130529819Y-79678571D02*
X130482200Y-79773809D01*
X130482200Y-79773809D02*
X130434580Y-79821428D01*
X130434580Y-79821428D02*
X130339342Y-79869047D01*
X130339342Y-79869047D02*
X130244104Y-79869047D01*
X130244104Y-79869047D02*
X130148866Y-79821428D01*
X130148866Y-79821428D02*
X130101247Y-79773809D01*
X130101247Y-79773809D02*
X130053628Y-79678571D01*
X130053628Y-79678571D02*
X130006009Y-79488095D01*
X130006009Y-79488095D02*
X129958390Y-79392857D01*
X129958390Y-79392857D02*
X129910771Y-79345238D01*
X129910771Y-79345238D02*
X129815533Y-79297619D01*
X129815533Y-79297619D02*
X129720295Y-79297619D01*
X129720295Y-79297619D02*
X129625057Y-79345238D01*
X129625057Y-79345238D02*
X129577438Y-79392857D01*
X129577438Y-79392857D02*
X129529819Y-79488095D01*
X129529819Y-79488095D02*
X129529819Y-79726190D01*
X129529819Y-79726190D02*
X129577438Y-79869047D01*
X129529819Y-80488095D02*
X129529819Y-80678571D01*
X129529819Y-80678571D02*
X129577438Y-80773809D01*
X129577438Y-80773809D02*
X129672676Y-80869047D01*
X129672676Y-80869047D02*
X129863152Y-80916666D01*
X129863152Y-80916666D02*
X130196485Y-80916666D01*
X130196485Y-80916666D02*
X130386961Y-80869047D01*
X130386961Y-80869047D02*
X130482200Y-80773809D01*
X130482200Y-80773809D02*
X130529819Y-80678571D01*
X130529819Y-80678571D02*
X130529819Y-80488095D01*
X130529819Y-80488095D02*
X130482200Y-80392857D01*
X130482200Y-80392857D02*
X130386961Y-80297619D01*
X130386961Y-80297619D02*
X130196485Y-80250000D01*
X130196485Y-80250000D02*
X129863152Y-80250000D01*
X129863152Y-80250000D02*
X129672676Y-80297619D01*
X129672676Y-80297619D02*
X129577438Y-80392857D01*
X129577438Y-80392857D02*
X129529819Y-80488095D01*
X130529819Y-81345238D02*
X129529819Y-81345238D01*
X129529819Y-81345238D02*
X130529819Y-81916666D01*
X130529819Y-81916666D02*
X129529819Y-81916666D01*
X130148866Y-82392857D02*
X130148866Y-83154762D01*
X129958390Y-83773809D02*
X129910771Y-83678571D01*
X129910771Y-83678571D02*
X129863152Y-83630952D01*
X129863152Y-83630952D02*
X129767914Y-83583333D01*
X129767914Y-83583333D02*
X129720295Y-83583333D01*
X129720295Y-83583333D02*
X129625057Y-83630952D01*
X129625057Y-83630952D02*
X129577438Y-83678571D01*
X129577438Y-83678571D02*
X129529819Y-83773809D01*
X129529819Y-83773809D02*
X129529819Y-83964285D01*
X129529819Y-83964285D02*
X129577438Y-84059523D01*
X129577438Y-84059523D02*
X129625057Y-84107142D01*
X129625057Y-84107142D02*
X129720295Y-84154761D01*
X129720295Y-84154761D02*
X129767914Y-84154761D01*
X129767914Y-84154761D02*
X129863152Y-84107142D01*
X129863152Y-84107142D02*
X129910771Y-84059523D01*
X129910771Y-84059523D02*
X129958390Y-83964285D01*
X129958390Y-83964285D02*
X129958390Y-83773809D01*
X129958390Y-83773809D02*
X130006009Y-83678571D01*
X130006009Y-83678571D02*
X130053628Y-83630952D01*
X130053628Y-83630952D02*
X130148866Y-83583333D01*
X130148866Y-83583333D02*
X130339342Y-83583333D01*
X130339342Y-83583333D02*
X130434580Y-83630952D01*
X130434580Y-83630952D02*
X130482200Y-83678571D01*
X130482200Y-83678571D02*
X130529819Y-83773809D01*
X130529819Y-83773809D02*
X130529819Y-83964285D01*
X130529819Y-83964285D02*
X130482200Y-84059523D01*
X130482200Y-84059523D02*
X130434580Y-84107142D01*
X130434580Y-84107142D02*
X130339342Y-84154761D01*
X130339342Y-84154761D02*
X130148866Y-84154761D01*
X130148866Y-84154761D02*
X130053628Y-84107142D01*
X130053628Y-84107142D02*
X130006009Y-84059523D01*
X130006009Y-84059523D02*
X129958390Y-83964285D01*
X130148866Y-84583333D02*
X130148866Y-85345238D01*
X130006009Y-86154761D02*
X130006009Y-85821428D01*
X130529819Y-85821428D02*
X129529819Y-85821428D01*
X129529819Y-85821428D02*
X129529819Y-86297618D01*
X130529819Y-86821428D02*
X130482200Y-86726190D01*
X130482200Y-86726190D02*
X130386961Y-86678571D01*
X130386961Y-86678571D02*
X129529819Y-86678571D01*
X130529819Y-87630952D02*
X130006009Y-87630952D01*
X130006009Y-87630952D02*
X129910771Y-87583333D01*
X129910771Y-87583333D02*
X129863152Y-87488095D01*
X129863152Y-87488095D02*
X129863152Y-87297619D01*
X129863152Y-87297619D02*
X129910771Y-87202381D01*
X130482200Y-87630952D02*
X130529819Y-87535714D01*
X130529819Y-87535714D02*
X130529819Y-87297619D01*
X130529819Y-87297619D02*
X130482200Y-87202381D01*
X130482200Y-87202381D02*
X130386961Y-87154762D01*
X130386961Y-87154762D02*
X130291723Y-87154762D01*
X130291723Y-87154762D02*
X130196485Y-87202381D01*
X130196485Y-87202381D02*
X130148866Y-87297619D01*
X130148866Y-87297619D02*
X130148866Y-87535714D01*
X130148866Y-87535714D02*
X130101247Y-87630952D01*
X130482200Y-88059524D02*
X130529819Y-88154762D01*
X130529819Y-88154762D02*
X130529819Y-88345238D01*
X130529819Y-88345238D02*
X130482200Y-88440476D01*
X130482200Y-88440476D02*
X130386961Y-88488095D01*
X130386961Y-88488095D02*
X130339342Y-88488095D01*
X130339342Y-88488095D02*
X130244104Y-88440476D01*
X130244104Y-88440476D02*
X130196485Y-88345238D01*
X130196485Y-88345238D02*
X130196485Y-88202381D01*
X130196485Y-88202381D02*
X130148866Y-88107143D01*
X130148866Y-88107143D02*
X130053628Y-88059524D01*
X130053628Y-88059524D02*
X130006009Y-88059524D01*
X130006009Y-88059524D02*
X129910771Y-88107143D01*
X129910771Y-88107143D02*
X129863152Y-88202381D01*
X129863152Y-88202381D02*
X129863152Y-88345238D01*
X129863152Y-88345238D02*
X129910771Y-88440476D01*
X130529819Y-88916667D02*
X129529819Y-88916667D01*
X130529819Y-89345238D02*
X130006009Y-89345238D01*
X130006009Y-89345238D02*
X129910771Y-89297619D01*
X129910771Y-89297619D02*
X129863152Y-89202381D01*
X129863152Y-89202381D02*
X129863152Y-89059524D01*
X129863152Y-89059524D02*
X129910771Y-88964286D01*
X129910771Y-88964286D02*
X129958390Y-88916667D01*
X130529819Y-90345238D02*
X130529819Y-89773810D01*
X130529819Y-90059524D02*
X129529819Y-90059524D01*
X129529819Y-90059524D02*
X129672676Y-89964286D01*
X129672676Y-89964286D02*
X129767914Y-89869048D01*
X129767914Y-89869048D02*
X129815533Y-89773810D01*
D16*
X112757447Y-80894909D02*
X112757447Y-80394909D01*
X112757447Y-80394909D02*
X112590780Y-80752052D01*
X112590780Y-80752052D02*
X112424114Y-80394909D01*
X112424114Y-80394909D02*
X112424114Y-80894909D01*
X111971732Y-80894909D02*
X111971732Y-80633004D01*
X111971732Y-80633004D02*
X111995542Y-80585385D01*
X111995542Y-80585385D02*
X112043161Y-80561576D01*
X112043161Y-80561576D02*
X112138399Y-80561576D01*
X112138399Y-80561576D02*
X112186018Y-80585385D01*
X111971732Y-80871100D02*
X112019351Y-80894909D01*
X112019351Y-80894909D02*
X112138399Y-80894909D01*
X112138399Y-80894909D02*
X112186018Y-80871100D01*
X112186018Y-80871100D02*
X112209827Y-80823480D01*
X112209827Y-80823480D02*
X112209827Y-80775861D01*
X112209827Y-80775861D02*
X112186018Y-80728242D01*
X112186018Y-80728242D02*
X112138399Y-80704433D01*
X112138399Y-80704433D02*
X112019351Y-80704433D01*
X112019351Y-80704433D02*
X111971732Y-80680623D01*
X111519351Y-80561576D02*
X111519351Y-80966338D01*
X111519351Y-80966338D02*
X111543161Y-81013957D01*
X111543161Y-81013957D02*
X111566970Y-81037766D01*
X111566970Y-81037766D02*
X111614589Y-81061576D01*
X111614589Y-81061576D02*
X111686018Y-81061576D01*
X111686018Y-81061576D02*
X111733637Y-81037766D01*
X111519351Y-80871100D02*
X111566970Y-80894909D01*
X111566970Y-80894909D02*
X111662208Y-80894909D01*
X111662208Y-80894909D02*
X111709827Y-80871100D01*
X111709827Y-80871100D02*
X111733637Y-80847290D01*
X111733637Y-80847290D02*
X111757446Y-80799671D01*
X111757446Y-80799671D02*
X111757446Y-80656814D01*
X111757446Y-80656814D02*
X111733637Y-80609195D01*
X111733637Y-80609195D02*
X111709827Y-80585385D01*
X111709827Y-80585385D02*
X111662208Y-80561576D01*
X111662208Y-80561576D02*
X111566970Y-80561576D01*
X111566970Y-80561576D02*
X111519351Y-80585385D01*
X111281256Y-80561576D02*
X111281256Y-80894909D01*
X111281256Y-80609195D02*
X111257446Y-80585385D01*
X111257446Y-80585385D02*
X111209827Y-80561576D01*
X111209827Y-80561576D02*
X111138399Y-80561576D01*
X111138399Y-80561576D02*
X111090780Y-80585385D01*
X111090780Y-80585385D02*
X111066970Y-80633004D01*
X111066970Y-80633004D02*
X111066970Y-80894909D01*
X110757446Y-80894909D02*
X110805065Y-80871100D01*
X110805065Y-80871100D02*
X110828875Y-80847290D01*
X110828875Y-80847290D02*
X110852684Y-80799671D01*
X110852684Y-80799671D02*
X110852684Y-80656814D01*
X110852684Y-80656814D02*
X110828875Y-80609195D01*
X110828875Y-80609195D02*
X110805065Y-80585385D01*
X110805065Y-80585385D02*
X110757446Y-80561576D01*
X110757446Y-80561576D02*
X110686018Y-80561576D01*
X110686018Y-80561576D02*
X110638399Y-80585385D01*
X110638399Y-80585385D02*
X110614589Y-80609195D01*
X110614589Y-80609195D02*
X110590780Y-80656814D01*
X110590780Y-80656814D02*
X110590780Y-80799671D01*
X110590780Y-80799671D02*
X110614589Y-80847290D01*
X110614589Y-80847290D02*
X110638399Y-80871100D01*
X110638399Y-80871100D02*
X110686018Y-80894909D01*
X110686018Y-80894909D02*
X110757446Y-80894909D01*
X110376494Y-80894909D02*
X110376494Y-80561576D01*
X110376494Y-80609195D02*
X110352684Y-80585385D01*
X110352684Y-80585385D02*
X110305065Y-80561576D01*
X110305065Y-80561576D02*
X110233637Y-80561576D01*
X110233637Y-80561576D02*
X110186018Y-80585385D01*
X110186018Y-80585385D02*
X110162208Y-80633004D01*
X110162208Y-80633004D02*
X110162208Y-80894909D01*
X110162208Y-80633004D02*
X110138399Y-80585385D01*
X110138399Y-80585385D02*
X110090780Y-80561576D01*
X110090780Y-80561576D02*
X110019351Y-80561576D01*
X110019351Y-80561576D02*
X109971732Y-80585385D01*
X109971732Y-80585385D02*
X109947922Y-80633004D01*
X109947922Y-80633004D02*
X109947922Y-80894909D01*
X109519351Y-80871100D02*
X109566970Y-80894909D01*
X109566970Y-80894909D02*
X109662208Y-80894909D01*
X109662208Y-80894909D02*
X109709827Y-80871100D01*
X109709827Y-80871100D02*
X109733636Y-80823480D01*
X109733636Y-80823480D02*
X109733636Y-80633004D01*
X109733636Y-80633004D02*
X109709827Y-80585385D01*
X109709827Y-80585385D02*
X109662208Y-80561576D01*
X109662208Y-80561576D02*
X109566970Y-80561576D01*
X109566970Y-80561576D02*
X109519351Y-80585385D01*
X109519351Y-80585385D02*
X109495541Y-80633004D01*
X109495541Y-80633004D02*
X109495541Y-80680623D01*
X109495541Y-80680623D02*
X109733636Y-80728242D01*
X109352684Y-80561576D02*
X109162208Y-80561576D01*
X109281256Y-80394909D02*
X109281256Y-80823480D01*
X109281256Y-80823480D02*
X109257446Y-80871100D01*
X109257446Y-80871100D02*
X109209827Y-80894909D01*
X109209827Y-80894909D02*
X109162208Y-80894909D01*
X108805066Y-80871100D02*
X108852685Y-80894909D01*
X108852685Y-80894909D02*
X108947923Y-80894909D01*
X108947923Y-80894909D02*
X108995542Y-80871100D01*
X108995542Y-80871100D02*
X109019351Y-80823480D01*
X109019351Y-80823480D02*
X109019351Y-80633004D01*
X109019351Y-80633004D02*
X108995542Y-80585385D01*
X108995542Y-80585385D02*
X108947923Y-80561576D01*
X108947923Y-80561576D02*
X108852685Y-80561576D01*
X108852685Y-80561576D02*
X108805066Y-80585385D01*
X108805066Y-80585385D02*
X108781256Y-80633004D01*
X108781256Y-80633004D02*
X108781256Y-80680623D01*
X108781256Y-80680623D02*
X109019351Y-80728242D01*
X108566971Y-80894909D02*
X108566971Y-80561576D01*
X108566971Y-80656814D02*
X108543161Y-80609195D01*
X108543161Y-80609195D02*
X108519352Y-80585385D01*
X108519352Y-80585385D02*
X108471733Y-80561576D01*
X108471733Y-80561576D02*
X108424114Y-80561576D01*
X107995542Y-80894909D02*
X108281256Y-80894909D01*
X108138399Y-80894909D02*
X108138399Y-80394909D01*
X108138399Y-80394909D02*
X108186018Y-80466338D01*
X108186018Y-80466338D02*
X108233637Y-80513957D01*
X108233637Y-80513957D02*
X108281256Y-80537766D01*
D11*
X142380952Y-103242319D02*
X142857142Y-103242319D01*
X142857142Y-103242319D02*
X142904761Y-103718509D01*
X142904761Y-103718509D02*
X142857142Y-103670890D01*
X142857142Y-103670890D02*
X142761904Y-103623271D01*
X142761904Y-103623271D02*
X142523809Y-103623271D01*
X142523809Y-103623271D02*
X142428571Y-103670890D01*
X142428571Y-103670890D02*
X142380952Y-103718509D01*
X142380952Y-103718509D02*
X142333333Y-103813747D01*
X142333333Y-103813747D02*
X142333333Y-104051842D01*
X142333333Y-104051842D02*
X142380952Y-104147080D01*
X142380952Y-104147080D02*
X142428571Y-104194700D01*
X142428571Y-104194700D02*
X142523809Y-104242319D01*
X142523809Y-104242319D02*
X142761904Y-104242319D01*
X142761904Y-104242319D02*
X142857142Y-104194700D01*
X142857142Y-104194700D02*
X142904761Y-104147080D01*
X141904761Y-104147080D02*
X141857142Y-104194700D01*
X141857142Y-104194700D02*
X141904761Y-104242319D01*
X141904761Y-104242319D02*
X141952380Y-104194700D01*
X141952380Y-104194700D02*
X141904761Y-104147080D01*
X141904761Y-104147080D02*
X141904761Y-104242319D01*
X141000000Y-103575652D02*
X141000000Y-104242319D01*
X141238095Y-103194700D02*
X141476190Y-103908985D01*
X141476190Y-103908985D02*
X140857143Y-103908985D01*
X140476190Y-104242319D02*
X140476190Y-103242319D01*
X140380952Y-103861366D02*
X140095238Y-104242319D01*
X140095238Y-103575652D02*
X140476190Y-103956604D01*
D12*
X140833400Y-96767167D02*
X140709591Y-96680500D01*
X140833400Y-96618595D02*
X140573400Y-96618595D01*
X140573400Y-96618595D02*
X140573400Y-96717643D01*
X140573400Y-96717643D02*
X140585781Y-96742405D01*
X140585781Y-96742405D02*
X140598162Y-96754786D01*
X140598162Y-96754786D02*
X140622924Y-96767167D01*
X140622924Y-96767167D02*
X140660067Y-96767167D01*
X140660067Y-96767167D02*
X140684829Y-96754786D01*
X140684829Y-96754786D02*
X140697210Y-96742405D01*
X140697210Y-96742405D02*
X140709591Y-96717643D01*
X140709591Y-96717643D02*
X140709591Y-96618595D01*
X140684829Y-96915738D02*
X140672448Y-96890976D01*
X140672448Y-96890976D02*
X140660067Y-96878595D01*
X140660067Y-96878595D02*
X140635305Y-96866214D01*
X140635305Y-96866214D02*
X140622924Y-96866214D01*
X140622924Y-96866214D02*
X140598162Y-96878595D01*
X140598162Y-96878595D02*
X140585781Y-96890976D01*
X140585781Y-96890976D02*
X140573400Y-96915738D01*
X140573400Y-96915738D02*
X140573400Y-96965262D01*
X140573400Y-96965262D02*
X140585781Y-96990024D01*
X140585781Y-96990024D02*
X140598162Y-97002405D01*
X140598162Y-97002405D02*
X140622924Y-97014786D01*
X140622924Y-97014786D02*
X140635305Y-97014786D01*
X140635305Y-97014786D02*
X140660067Y-97002405D01*
X140660067Y-97002405D02*
X140672448Y-96990024D01*
X140672448Y-96990024D02*
X140684829Y-96965262D01*
X140684829Y-96965262D02*
X140684829Y-96915738D01*
X140684829Y-96915738D02*
X140697210Y-96890976D01*
X140697210Y-96890976D02*
X140709591Y-96878595D01*
X140709591Y-96878595D02*
X140734353Y-96866214D01*
X140734353Y-96866214D02*
X140783877Y-96866214D01*
X140783877Y-96866214D02*
X140808639Y-96878595D01*
X140808639Y-96878595D02*
X140821020Y-96890976D01*
X140821020Y-96890976D02*
X140833400Y-96915738D01*
X140833400Y-96915738D02*
X140833400Y-96965262D01*
X140833400Y-96965262D02*
X140821020Y-96990024D01*
X140821020Y-96990024D02*
X140808639Y-97002405D01*
X140808639Y-97002405D02*
X140783877Y-97014786D01*
X140783877Y-97014786D02*
X140734353Y-97014786D01*
X140734353Y-97014786D02*
X140709591Y-97002405D01*
X140709591Y-97002405D02*
X140697210Y-96990024D01*
X140697210Y-96990024D02*
X140684829Y-96965262D01*
D11*
X143880952Y-109954819D02*
X144214285Y-109478628D01*
X144452380Y-109954819D02*
X144452380Y-108954819D01*
X144452380Y-108954819D02*
X144071428Y-108954819D01*
X144071428Y-108954819D02*
X143976190Y-109002438D01*
X143976190Y-109002438D02*
X143928571Y-109050057D01*
X143928571Y-109050057D02*
X143880952Y-109145295D01*
X143880952Y-109145295D02*
X143880952Y-109288152D01*
X143880952Y-109288152D02*
X143928571Y-109383390D01*
X143928571Y-109383390D02*
X143976190Y-109431009D01*
X143976190Y-109431009D02*
X144071428Y-109478628D01*
X144071428Y-109478628D02*
X144452380Y-109478628D01*
X143452380Y-109431009D02*
X143119047Y-109431009D01*
X142976190Y-109954819D02*
X143452380Y-109954819D01*
X143452380Y-109954819D02*
X143452380Y-108954819D01*
X143452380Y-108954819D02*
X142976190Y-108954819D01*
X142547618Y-109954819D02*
X142547618Y-108954819D01*
X142547618Y-108954819D02*
X142309523Y-108954819D01*
X142309523Y-108954819D02*
X142166666Y-109002438D01*
X142166666Y-109002438D02*
X142071428Y-109097676D01*
X142071428Y-109097676D02*
X142023809Y-109192914D01*
X142023809Y-109192914D02*
X141976190Y-109383390D01*
X141976190Y-109383390D02*
X141976190Y-109526247D01*
X141976190Y-109526247D02*
X142023809Y-109716723D01*
X142023809Y-109716723D02*
X142071428Y-109811961D01*
X142071428Y-109811961D02*
X142166666Y-109907200D01*
X142166666Y-109907200D02*
X142309523Y-109954819D01*
X142309523Y-109954819D02*
X142547618Y-109954819D01*
X141785714Y-110050057D02*
X141023809Y-110050057D01*
X140309523Y-109954819D02*
X140785713Y-109954819D01*
X140785713Y-109954819D02*
X140785713Y-108954819D01*
X139976189Y-109431009D02*
X139642856Y-109431009D01*
X139499999Y-109954819D02*
X139976189Y-109954819D01*
X139976189Y-109954819D02*
X139976189Y-108954819D01*
X139976189Y-108954819D02*
X139499999Y-108954819D01*
X139071427Y-109954819D02*
X139071427Y-108954819D01*
X139071427Y-108954819D02*
X138833332Y-108954819D01*
X138833332Y-108954819D02*
X138690475Y-109002438D01*
X138690475Y-109002438D02*
X138595237Y-109097676D01*
X138595237Y-109097676D02*
X138547618Y-109192914D01*
X138547618Y-109192914D02*
X138499999Y-109383390D01*
X138499999Y-109383390D02*
X138499999Y-109526247D01*
X138499999Y-109526247D02*
X138547618Y-109716723D01*
X138547618Y-109716723D02*
X138595237Y-109811961D01*
X138595237Y-109811961D02*
X138690475Y-109907200D01*
X138690475Y-109907200D02*
X138833332Y-109954819D01*
X138833332Y-109954819D02*
X139071427Y-109954819D01*
D15*
X140142857Y-108281927D02*
X140066666Y-108281927D01*
X140066666Y-108281927D02*
X140028571Y-108300975D01*
X140028571Y-108300975D02*
X139990476Y-108339070D01*
X139990476Y-108339070D02*
X139971428Y-108415260D01*
X139971428Y-108415260D02*
X139971428Y-108548594D01*
X139971428Y-108548594D02*
X139990476Y-108624784D01*
X139990476Y-108624784D02*
X140028571Y-108662880D01*
X140028571Y-108662880D02*
X140066666Y-108681927D01*
X140066666Y-108681927D02*
X140142857Y-108681927D01*
X140142857Y-108681927D02*
X140180952Y-108662880D01*
X140180952Y-108662880D02*
X140219047Y-108624784D01*
X140219047Y-108624784D02*
X140238095Y-108548594D01*
X140238095Y-108548594D02*
X140238095Y-108415260D01*
X140238095Y-108415260D02*
X140219047Y-108339070D01*
X140219047Y-108339070D02*
X140180952Y-108300975D01*
X140180952Y-108300975D02*
X140142857Y-108281927D01*
X139799999Y-108415260D02*
X139799999Y-108681927D01*
X139799999Y-108453356D02*
X139780952Y-108434308D01*
X139780952Y-108434308D02*
X139742857Y-108415260D01*
X139742857Y-108415260D02*
X139685714Y-108415260D01*
X139685714Y-108415260D02*
X139647618Y-108434308D01*
X139647618Y-108434308D02*
X139628571Y-108472403D01*
X139628571Y-108472403D02*
X139628571Y-108681927D01*
X139247618Y-108681927D02*
X139438094Y-108681927D01*
X139438094Y-108681927D02*
X139438094Y-108281927D01*
X139114284Y-108681927D02*
X139114284Y-108415260D01*
X139114284Y-108281927D02*
X139133332Y-108300975D01*
X139133332Y-108300975D02*
X139114284Y-108320022D01*
X139114284Y-108320022D02*
X139095237Y-108300975D01*
X139095237Y-108300975D02*
X139114284Y-108281927D01*
X139114284Y-108281927D02*
X139114284Y-108320022D01*
X138752380Y-108415260D02*
X138752380Y-108739070D01*
X138752380Y-108739070D02*
X138771427Y-108777165D01*
X138771427Y-108777165D02*
X138790475Y-108796213D01*
X138790475Y-108796213D02*
X138828570Y-108815260D01*
X138828570Y-108815260D02*
X138885713Y-108815260D01*
X138885713Y-108815260D02*
X138923808Y-108796213D01*
X138752380Y-108662880D02*
X138790475Y-108681927D01*
X138790475Y-108681927D02*
X138866666Y-108681927D01*
X138866666Y-108681927D02*
X138904761Y-108662880D01*
X138904761Y-108662880D02*
X138923808Y-108643832D01*
X138923808Y-108643832D02*
X138942856Y-108605737D01*
X138942856Y-108605737D02*
X138942856Y-108491451D01*
X138942856Y-108491451D02*
X138923808Y-108453356D01*
X138923808Y-108453356D02*
X138904761Y-108434308D01*
X138904761Y-108434308D02*
X138866666Y-108415260D01*
X138866666Y-108415260D02*
X138790475Y-108415260D01*
X138790475Y-108415260D02*
X138752380Y-108434308D01*
X138561903Y-108681927D02*
X138561903Y-108281927D01*
X138390475Y-108681927D02*
X138390475Y-108472403D01*
X138390475Y-108472403D02*
X138409522Y-108434308D01*
X138409522Y-108434308D02*
X138447618Y-108415260D01*
X138447618Y-108415260D02*
X138504761Y-108415260D01*
X138504761Y-108415260D02*
X138542856Y-108434308D01*
X138542856Y-108434308D02*
X138561903Y-108453356D01*
X138257141Y-108415260D02*
X138104760Y-108415260D01*
X138199998Y-108281927D02*
X138199998Y-108624784D01*
X138199998Y-108624784D02*
X138180951Y-108662880D01*
X138180951Y-108662880D02*
X138142856Y-108681927D01*
X138142856Y-108681927D02*
X138104760Y-108681927D01*
X137761904Y-108681927D02*
X137990475Y-108681927D01*
X137876189Y-108681927D02*
X137876189Y-108281927D01*
X137876189Y-108281927D02*
X137914285Y-108339070D01*
X137914285Y-108339070D02*
X137952380Y-108377165D01*
X137952380Y-108377165D02*
X137990475Y-108396213D01*
D10*
X125316428Y-101953365D02*
X125376904Y-102013842D01*
X125376904Y-102013842D02*
X125558333Y-102074318D01*
X125558333Y-102074318D02*
X125679285Y-102074318D01*
X125679285Y-102074318D02*
X125860714Y-102013842D01*
X125860714Y-102013842D02*
X125981666Y-101892889D01*
X125981666Y-101892889D02*
X126042143Y-101771937D01*
X126042143Y-101771937D02*
X126102619Y-101530032D01*
X126102619Y-101530032D02*
X126102619Y-101348603D01*
X126102619Y-101348603D02*
X126042143Y-101106699D01*
X126042143Y-101106699D02*
X125981666Y-100985746D01*
X125981666Y-100985746D02*
X125860714Y-100864794D01*
X125860714Y-100864794D02*
X125679285Y-100804318D01*
X125679285Y-100804318D02*
X125558333Y-100804318D01*
X125558333Y-100804318D02*
X125376904Y-100864794D01*
X125376904Y-100864794D02*
X125316428Y-100925270D01*
X124106904Y-102074318D02*
X124832619Y-102074318D01*
X124469762Y-102074318D02*
X124469762Y-100804318D01*
X124469762Y-100804318D02*
X124590714Y-100985746D01*
X124590714Y-100985746D02*
X124711666Y-101106699D01*
X124711666Y-101106699D02*
X124832619Y-101167175D01*
X123683571Y-100804318D02*
X122897380Y-100804318D01*
X122897380Y-100804318D02*
X123320714Y-101288127D01*
X123320714Y-101288127D02*
X123139285Y-101288127D01*
X123139285Y-101288127D02*
X123018333Y-101348603D01*
X123018333Y-101348603D02*
X122957857Y-101409080D01*
X122957857Y-101409080D02*
X122897380Y-101530032D01*
X122897380Y-101530032D02*
X122897380Y-101832413D01*
X122897380Y-101832413D02*
X122957857Y-101953365D01*
X122957857Y-101953365D02*
X123018333Y-102013842D01*
X123018333Y-102013842D02*
X123139285Y-102074318D01*
X123139285Y-102074318D02*
X123502142Y-102074318D01*
X123502142Y-102074318D02*
X123623095Y-102013842D01*
X123623095Y-102013842D02*
X123683571Y-101953365D01*
D17*
X101088400Y-82230000D02*
X104188400Y-82230000D01*
X104188400Y-82230000D02*
X104188400Y-79630000D01*
X104188400Y-79630000D02*
X101088400Y-79630000D01*
X101088400Y-79630000D02*
X101088400Y-82230000D01*
D18*
X100648400Y-81925000D02*
G75*
G02*
X100448400Y-81925000I-100000J0D01*
G01*
X100448400Y-81925000D02*
G75*
G02*
X100648400Y-81925000I100000J0D01*
G01*
D14*
X114750000Y-114500000D02*
G75*
G02*
X102250000Y-114500000I-6250000J0D01*
G01*
X102250000Y-114500000D02*
G75*
G02*
X114750000Y-114500000I6250000J0D01*
G01*
X134500000Y-102750000D02*
X133500000Y-102750000D01*
X134500000Y-103250000D02*
X134500000Y-102750000D01*
X133500000Y-102750000D02*
X133500000Y-103250000D01*
X133500000Y-103250000D02*
X134500000Y-103250000D01*
D17*
X107400000Y-76800000D02*
X107400000Y-75200000D01*
X107400000Y-75200000D02*
X106600000Y-75200000D01*
X106600000Y-75200000D02*
X106600000Y-76800000D01*
X106600000Y-76800000D02*
X107400000Y-76800000D01*
X109538400Y-76800000D02*
X109538400Y-75200000D01*
X109538400Y-75200000D02*
X108738400Y-75200000D01*
X108738400Y-75200000D02*
X108738400Y-76800000D01*
X108738400Y-76800000D02*
X109538400Y-76800000D01*
X112538400Y-75990000D02*
X112538400Y-74390000D01*
X112538400Y-74390000D02*
X111738400Y-74390000D01*
X111738400Y-74390000D02*
X111738400Y-75990000D01*
X111738400Y-75990000D02*
X112538400Y-75990000D01*
D14*
X110888400Y-75930000D02*
X110888400Y-74930000D01*
X110388400Y-75930000D02*
X110888400Y-75930000D01*
X110888400Y-74930000D02*
X110388400Y-74930000D01*
X110388400Y-74930000D02*
X110388400Y-75930000D01*
D17*
X105608400Y-79650000D02*
X105608400Y-81710000D01*
X105608400Y-81710000D02*
X107668400Y-81710000D01*
X107668400Y-81710000D02*
X107668400Y-79650000D01*
X107668400Y-79650000D02*
X105608400Y-79650000D01*
D18*
X107038400Y-82180000D02*
G75*
G02*
X106838400Y-82180000I-100000J0D01*
G01*
X106838400Y-82180000D02*
G75*
G02*
X107038400Y-82180000I100000J0D01*
G01*
D14*
X116375000Y-98500000D02*
X116375000Y-100500000D01*
X117625000Y-98500000D02*
X116375000Y-98500000D01*
X116375000Y-100500000D02*
X117625000Y-100500000D01*
X117625000Y-100500000D02*
X117625000Y-98500000D01*
D17*
X103600000Y-75200000D02*
X103600000Y-76800000D01*
X103600000Y-76800000D02*
X104400000Y-76800000D01*
X104400000Y-76800000D02*
X104400000Y-75200000D01*
X104400000Y-75200000D02*
X103600000Y-75200000D01*
D14*
X133045000Y-51840000D02*
X133045000Y-67790000D01*
X133855000Y-51840000D02*
X133045000Y-51840000D01*
X134045000Y-51640000D02*
X134045000Y-46740000D01*
X134055000Y-51640000D02*
X133855000Y-51840000D01*
X134545000Y-50240000D02*
X144545000Y-50240000D01*
X134545000Y-46240000D02*
X144545000Y-46240000D01*
X135855000Y-51640000D02*
X134055000Y-51640000D01*
X136055000Y-51840000D02*
X135855000Y-51640000D01*
X136055000Y-51840000D02*
X136055000Y-51990000D01*
X142480000Y-51990000D02*
X136055000Y-51990000D01*
X143005000Y-51640000D02*
X142480000Y-51990000D01*
X145045000Y-46740000D02*
X145045000Y-51640000D01*
X145255000Y-51640000D02*
X143005000Y-51640000D01*
X145255000Y-51640000D02*
X145455000Y-51840000D01*
X145455000Y-51840000D02*
X146895000Y-51840000D01*
X146895000Y-67790000D02*
X133045000Y-67790000D01*
X146895000Y-51840000D02*
X146895000Y-67790000D01*
X134045000Y-50740000D02*
G75*
G02*
X134545000Y-50240000I500001J-1D01*
G01*
X134045000Y-46740000D02*
G75*
G02*
X134545000Y-46240000I500001J-1D01*
G01*
X144545000Y-50240000D02*
G75*
G02*
X145045000Y-50740000I0J-500000D01*
G01*
X144545000Y-46240000D02*
G75*
G02*
X145045000Y-46740000I0J-500000D01*
G01*
D17*
X114500000Y-109340000D02*
X114500000Y-102610000D01*
X114500000Y-102610000D02*
X124500000Y-102610000D01*
X124500000Y-102610000D02*
X124500000Y-109340000D01*
X124500000Y-109340000D02*
X114500000Y-109340000D01*
D18*
X113885000Y-106500000D02*
G75*
G02*
X113685000Y-106500000I-100000J0D01*
G01*
X113685000Y-106500000D02*
G75*
G02*
X113885000Y-106500000I100000J0D01*
G01*
D14*
X133500000Y-105337500D02*
X133100000Y-105737500D01*
X136000000Y-105337500D02*
X133500000Y-105337500D01*
X133100000Y-105737500D02*
X133100000Y-106937500D01*
X133100000Y-106937500D02*
X136000000Y-106937500D01*
X136000000Y-106937500D02*
X136000000Y-105337500D01*
D17*
X105900000Y-76800000D02*
X105900000Y-75200000D01*
X105900000Y-75200000D02*
X105100000Y-75200000D01*
X105100000Y-75200000D02*
X105100000Y-76800000D01*
X105100000Y-76800000D02*
X105900000Y-76800000D01*
D14*
X134500000Y-108750000D02*
X133500000Y-108750000D01*
X134500000Y-109250000D02*
X134500000Y-108750000D01*
X133500000Y-108750000D02*
X133500000Y-109250000D01*
X133500000Y-109250000D02*
X134500000Y-109250000D01*
X130325000Y-98195000D02*
X126325000Y-98195000D01*
X126325000Y-98195000D02*
X126325000Y-98195000D01*
X126325000Y-98195000D02*
X130325000Y-98195000D01*
X130325000Y-98195000D02*
X130325000Y-98195000D01*
X126325000Y-98195000D02*
X125025000Y-97145000D01*
X125025000Y-97145000D02*
X125025000Y-91595000D01*
X125025000Y-91595000D02*
X131625000Y-91595000D01*
X131625000Y-91595000D02*
X131625000Y-97145000D01*
X131625000Y-97145000D02*
X130325000Y-98195000D01*
X133075000Y-87250000D02*
X132075000Y-88250000D01*
X127075000Y-88250000D01*
X127075000Y-80250000D01*
X133075000Y-80250000D01*
X133075000Y-87250000D01*
X109388400Y-81167500D02*
X109888400Y-81667500D01*
X109388400Y-79667500D02*
X109388400Y-81167500D01*
X109888400Y-81667500D02*
X111388400Y-81667500D01*
X111388400Y-81667500D02*
X111388400Y-79667500D01*
X111388400Y-79667500D02*
X109388400Y-79667500D01*
X138730000Y-103262500D02*
X138730000Y-104312500D01*
X139270000Y-103262500D02*
X138730000Y-103262500D01*
X138730000Y-104312500D02*
X139270000Y-104312500D01*
X139270000Y-104312500D02*
X139270000Y-103262500D01*
X139100000Y-107087500D02*
X138600000Y-107087500D01*
X138600000Y-107087500D02*
X138600000Y-105487500D01*
X139400000Y-106787500D02*
X139100000Y-107087500D01*
X139400000Y-105487500D02*
X139400000Y-106787500D01*
X138600000Y-105487500D02*
X139400000Y-105487500D01*
D17*
X102100000Y-75200000D02*
X102100000Y-76800000D01*
X102100000Y-76800000D02*
X102900000Y-76800000D01*
X102900000Y-76800000D02*
X102900000Y-75200000D01*
X102900000Y-75200000D02*
X102100000Y-75200000D01*
D14*
X121600000Y-99700000D02*
X121600000Y-101300000D01*
X121600000Y-101300000D02*
X122400000Y-101300000D01*
X122400000Y-101300000D02*
X122400000Y-99700000D01*
X122400000Y-99700000D02*
X121600000Y-99700000D01*
M02*
