%TF.GenerationSoftware,KiCad,Pcbnew,9.0.3*%
%TF.CreationDate,2025-12-20T12:10:28-05:00*%
%TF.ProjectId,Experimental,45787065-7269-46d6-956e-74616c2e6b69,rev?*%
%TF.SameCoordinates,Original*%
%TF.FileFunction,Copper,L3,Inr*%
%TF.FilePolarity,Positive*%
%FSLAX46Y46*%
G04 Gerber Fmt 4.6, Leading zero omitted, Abs format (unit mm)*
G04 Created by KiCad (PCBNEW 9.0.3) date 2025-12-20 12:10:28*
%MOMM*%
%LPD*%
G01*
G04 APERTURE LIST*
G04 Aperture macros list*
%AMRoundRect*
0 Rectangle with rounded corners*
0 $1 Rounding radius*
0 $2 $3 $4 $5 $6 $7 $8 $9 X,Y pos of 4 corners*
0 Add a 4 corners polygon primitive as box body*
4,1,4,$2,$3,$4,$5,$6,$7,$8,$9,$2,$3,0*
0 Add four circle primitives for the rounded corners*
1,1,$1+$1,$2,$3*
1,1,$1+$1,$4,$5*
1,1,$1+$1,$6,$7*
1,1,$1+$1,$8,$9*
0 Add four rect primitives between the rounded corners*
20,1,$1+$1,$2,$3,$4,$5,0*
20,1,$1+$1,$4,$5,$6,$7,0*
20,1,$1+$1,$6,$7,$8,$9,0*
20,1,$1+$1,$8,$9,$2,$3,0*%
G04 Aperture macros list end*
%TA.AperFunction,HeatsinkPad*%
%ADD10O,1.000000X2.100000*%
%TD*%
%TA.AperFunction,HeatsinkPad*%
%ADD11O,1.000000X1.800000*%
%TD*%
%TA.AperFunction,ComponentPad*%
%ADD12RoundRect,0.250000X-0.350000X-0.625000X0.350000X-0.625000X0.350000X0.625000X-0.350000X0.625000X0*%
%TD*%
%TA.AperFunction,ComponentPad*%
%ADD13O,1.200000X1.750000*%
%TD*%
%TA.AperFunction,ComponentPad*%
%ADD14RoundRect,0.250001X1.149999X-1.149999X1.149999X1.149999X-1.149999X1.149999X-1.149999X-1.149999X0*%
%TD*%
%TA.AperFunction,ComponentPad*%
%ADD15C,2.800000*%
%TD*%
%TA.AperFunction,HeatsinkPad*%
%ADD16C,0.600000*%
%TD*%
%TA.AperFunction,ViaPad*%
%ADD17C,0.600000*%
%TD*%
G04 APERTURE END LIST*
D10*
%TO.N,GND*%
%TO.C,PowerUpload1*%
X121818400Y-113895000D03*
D11*
X121818400Y-118075000D03*
D10*
X130458400Y-113895000D03*
D11*
X130458400Y-118075000D03*
%TD*%
D12*
%TO.N,GND*%
%TO.C,J5 -/+*%
X116000000Y-117000000D03*
D13*
%TO.N,+7.4V*%
X118000000Y-117000000D03*
%TD*%
D14*
%TO.N,GND*%
%TO.C,J8*%
X145967500Y-87500000D03*
D15*
X145967500Y-82500000D03*
%TD*%
D14*
%TO.N,+3V3*%
%TO.C,J1*%
X146000000Y-76000000D03*
D15*
X146000000Y-71000000D03*
%TD*%
D16*
%TO.N,N/C*%
%TO.C,ESP32S3*%
X122850000Y-79590000D03*
X122850000Y-80990000D03*
X123550000Y-78890000D03*
X123550000Y-80290000D03*
X123550000Y-81690000D03*
X124250000Y-79590000D03*
X124250000Y-80990000D03*
X124950000Y-78890000D03*
X124950000Y-80290000D03*
X124950000Y-81690000D03*
X125650000Y-79590000D03*
X125650000Y-80990000D03*
%TD*%
D14*
%TO.N,GND*%
%TO.C,J6*%
X104467500Y-109250000D03*
D15*
%TO.N,Net-(J6-Pin_2)*%
X104467500Y-104250000D03*
%TD*%
D14*
%TO.N,Net-(ESP32S3-IO42)*%
%TO.C,J4*%
X146000000Y-109000000D03*
D15*
%TO.N,Net-(ESP32S3-IO45)*%
X146000000Y-104000000D03*
%TO.N,Net-(ESP32S3-IO46)*%
X146000000Y-99000000D03*
%TO.N,Net-(ESP32S3-IO47)*%
X146000000Y-94000000D03*
%TD*%
D14*
%TO.N,Net-(ESP32S3-IO7)*%
%TO.C,J3*%
X105000000Y-71000000D03*
D15*
%TO.N,Net-(ESP32S3-IO6)*%
X105000000Y-66000000D03*
%TO.N,Net-(ESP32S3-IO5)*%
X105000000Y-61000000D03*
%TO.N,Net-(ESP32S3-IO4)*%
X105000000Y-56000000D03*
%TD*%
D14*
%TO.N,GND*%
%TO.C,J2*%
X104467500Y-97750000D03*
D15*
%TO.N,Net-(J2-Pin_2)*%
X104467500Y-92750000D03*
%TD*%
D17*
%TO.N,GND*%
X101500000Y-79000000D03*
X103000000Y-79000000D03*
%TO.N,+3V3*%
X107500000Y-82500000D03*
%TO.N,GND*%
X119500000Y-109000000D03*
%TO.N,/PYRO_N_MOSFET_A1/Pyro*%
X125500000Y-89000000D03*
X115000000Y-100000000D03*
%TO.N,GND*%
X122000000Y-99000000D03*
%TO.N,/PYRO_N_MOSFET_A1/Charge_Pyro*%
X117000000Y-119500000D03*
X124000000Y-93000000D03*
%TO.N,/PYRO_N_MOSFET_A1/Pyro2*%
X113500000Y-88655000D03*
X123845000Y-88655000D03*
%TO.N,/POWER_MANAGEMENT/LED*%
X122500000Y-92000000D03*
X104500000Y-117500000D03*
%TO.N,*%
X114000000Y-119500000D03*
%TO.N,+3V3*%
X103000000Y-78000000D03*
X118000000Y-60500000D03*
%TO.N,GND*%
X109500000Y-113000000D03*
X107015000Y-119015000D03*
X143000000Y-87500000D03*
X143000000Y-82500000D03*
%TO.N,+3V3*%
X143000000Y-76000000D03*
X143000000Y-71000000D03*
%TO.N,Net-(ESP32S3-IO45)*%
X138500000Y-96500000D03*
%TO.N,+3V3*%
X138000000Y-87000000D03*
%TO.N,GND*%
X137500000Y-94500000D03*
%TO.N,/Storage/DAT0*%
X135877354Y-85877354D03*
%TO.N,+5V*%
X124861400Y-112138600D03*
X126000000Y-107500000D03*
X128000000Y-111500000D03*
%TO.N,Net-(Q1-S)*%
X113000000Y-106500000D03*
X110750000Y-108750000D03*
%TO.N,+7.4V*%
X116500000Y-108000000D03*
%TO.N,Net-(Q1-S)*%
X112000000Y-95910500D03*
%TO.N,GND*%
X120500000Y-59000000D03*
X109000000Y-74310000D03*
X112000000Y-73500000D03*
X139000000Y-107075000D03*
X107000000Y-73500000D03*
X118000000Y-97000000D03*
%TO.N,Net-(Barometer1-SDO)*%
X105500000Y-78500000D03*
%TO.N,GND*%
X134500000Y-53216359D03*
X104000000Y-73500000D03*
X120357000Y-113000000D03*
X105500000Y-73500000D03*
X108500000Y-80680000D03*
X129191700Y-116808300D03*
X131000000Y-112500000D03*
X128950000Y-107500000D03*
X128500000Y-87000000D03*
X129000000Y-52500000D03*
X109500000Y-103500000D03*
X135000000Y-63500000D03*
X120100000Y-111000000D03*
X134550000Y-105000000D03*
X115500000Y-58000000D03*
X112337500Y-91645000D03*
X141500000Y-56500000D03*
X122946700Y-116946700D03*
X134480000Y-109000000D03*
X120500000Y-66400000D03*
X129500000Y-67000000D03*
X132900000Y-110500000D03*
X140500000Y-65500000D03*
X128325000Y-97395000D03*
X120500000Y-64200000D03*
X117000000Y-72570000D03*
X138550000Y-56500000D03*
X135500000Y-71500000D03*
X102500000Y-73500000D03*
X110500000Y-74000000D03*
X146500000Y-54500000D03*
%TO.N,+3V3*%
X104000000Y-78000000D03*
X104500000Y-84350354D03*
X132310000Y-79500000D03*
X139000000Y-103277500D03*
X133600000Y-107275000D03*
X111034200Y-77034200D03*
X120000000Y-81500000D03*
X101500000Y-75500000D03*
X117000000Y-73840000D03*
X106388400Y-77760000D03*
X129000000Y-53600000D03*
X139500000Y-69500000D03*
X129000000Y-54700000D03*
X110138400Y-77000000D03*
X113500000Y-78000000D03*
%TO.N,/NEO-6M-GPS/SCL*%
X129000000Y-59000000D03*
X112000000Y-87500000D03*
X121250000Y-84250000D03*
X119500000Y-88000000D03*
X106500000Y-82500000D03*
X110000000Y-83500000D03*
X103122646Y-84877354D03*
%TO.N,/NEO-6M-GPS/SDA*%
X130671000Y-59973000D03*
X117000000Y-86500000D03*
%TO.N,/Storage/Digital_IN*%
X127877354Y-81377354D03*
%TO.N,/Storage/Digital_OUT*%
X135618000Y-83000000D03*
%TO.N,/NEO-6M-GPS/GPS_RXD1*%
X126556879Y-56500000D03*
X126500000Y-70500000D03*
%TO.N,/NEO-6M-GPS/GPS_TXD1*%
X126000000Y-72500000D03*
X128000000Y-58500000D03*
%TO.N,/Storage/CLK*%
X137000000Y-70500000D03*
X135000000Y-70500000D03*
X128925000Y-89575000D03*
%TO.N,/Storage/DAT3{slash}CD*%
X132971290Y-88528709D03*
%TO.N,/Storage/HOLD{slash}RESET*%
X135618000Y-81500000D03*
%TO.N,/NEO-6M-GPS/TIMEPULSE*%
X126000000Y-62000000D03*
X127500000Y-66500000D03*
X129000000Y-69500000D03*
X125000000Y-60000000D03*
%TO.N,/Storage/WP*%
X133000000Y-82000000D03*
%TO.N,/Storage/CMD*%
X134527646Y-87782354D03*
%TD*%
%TA.AperFunction,Conductor*%
%TO.N,GND*%
G36*
X149942539Y-50520185D02*
G01*
X149988294Y-50572989D01*
X149999500Y-50624500D01*
X149999500Y-51128095D01*
X149979815Y-51195134D01*
X149927011Y-51240889D01*
X149857853Y-51250833D01*
X149802615Y-51228414D01*
X149786432Y-51216656D01*
X149575996Y-51109433D01*
X149351368Y-51036446D01*
X149118097Y-50999500D01*
X149118092Y-50999500D01*
X148881908Y-50999500D01*
X148881903Y-50999500D01*
X148648631Y-51036446D01*
X148424003Y-51109433D01*
X148213566Y-51216657D01*
X148104550Y-51295862D01*
X148022490Y-51355483D01*
X148022488Y-51355485D01*
X148022487Y-51355485D01*
X147855485Y-51522487D01*
X147855485Y-51522488D01*
X147855483Y-51522490D01*
X147824454Y-51565198D01*
X147716657Y-51713566D01*
X147609433Y-51924003D01*
X147536446Y-52148631D01*
X147499500Y-52381902D01*
X147499500Y-52618097D01*
X147536446Y-52851368D01*
X147609433Y-53075996D01*
X147683222Y-53220814D01*
X147716657Y-53286433D01*
X147855483Y-53477510D01*
X148022490Y-53644517D01*
X148213567Y-53783343D01*
X148273802Y-53814034D01*
X148424003Y-53890566D01*
X148424005Y-53890566D01*
X148424008Y-53890568D01*
X148544412Y-53929689D01*
X148648631Y-53963553D01*
X148881903Y-54000500D01*
X148881908Y-54000500D01*
X149118097Y-54000500D01*
X149351368Y-53963553D01*
X149575992Y-53890568D01*
X149786433Y-53783343D01*
X149802612Y-53771587D01*
X149868418Y-53748106D01*
X149936472Y-53763930D01*
X149985168Y-53814034D01*
X149999500Y-53871904D01*
X149999500Y-118128095D01*
X149979815Y-118195134D01*
X149927011Y-118240889D01*
X149857853Y-118250833D01*
X149802615Y-118228414D01*
X149786432Y-118216656D01*
X149575996Y-118109433D01*
X149351368Y-118036446D01*
X149118097Y-117999500D01*
X149118092Y-117999500D01*
X148881908Y-117999500D01*
X148881903Y-117999500D01*
X148648631Y-118036446D01*
X148424003Y-118109433D01*
X148213566Y-118216657D01*
X148140509Y-118269737D01*
X148022490Y-118355483D01*
X148022488Y-118355485D01*
X148022487Y-118355485D01*
X147855485Y-118522487D01*
X147855485Y-118522488D01*
X147855483Y-118522490D01*
X147795862Y-118604550D01*
X147716657Y-118713566D01*
X147609433Y-118924003D01*
X147536446Y-119148631D01*
X147499500Y-119381902D01*
X147499500Y-119618097D01*
X147536446Y-119851368D01*
X147609433Y-120075996D01*
X147716656Y-120286432D01*
X147728414Y-120302615D01*
X147751893Y-120368422D01*
X147736067Y-120436476D01*
X147685961Y-120485170D01*
X147628095Y-120499500D01*
X117302190Y-120499500D01*
X117235151Y-120479815D01*
X117189396Y-120427011D01*
X117179452Y-120357853D01*
X117208477Y-120294297D01*
X117254738Y-120260939D01*
X117379172Y-120209397D01*
X117379172Y-120209396D01*
X117379179Y-120209394D01*
X117510289Y-120121789D01*
X117621789Y-120010289D01*
X117709394Y-119879179D01*
X117769737Y-119733497D01*
X117800500Y-119578842D01*
X117800500Y-119421158D01*
X117800500Y-119421155D01*
X117800499Y-119421153D01*
X117769738Y-119266510D01*
X117769737Y-119266503D01*
X117769735Y-119266498D01*
X117709397Y-119120827D01*
X117709390Y-119120814D01*
X117621789Y-118989711D01*
X117621786Y-118989707D01*
X117510292Y-118878213D01*
X117510288Y-118878210D01*
X117379185Y-118790609D01*
X117379172Y-118790602D01*
X117233501Y-118730264D01*
X117233489Y-118730261D01*
X117078845Y-118699500D01*
X117078842Y-118699500D01*
X116921158Y-118699500D01*
X116921155Y-118699500D01*
X116766510Y-118730261D01*
X116766498Y-118730264D01*
X116620827Y-118790602D01*
X116620814Y-118790609D01*
X116489711Y-118878210D01*
X116489707Y-118878213D01*
X116378213Y-118989707D01*
X116378210Y-118989711D01*
X116290609Y-119120814D01*
X116290602Y-119120827D01*
X116230264Y-119266498D01*
X116230261Y-119266510D01*
X116199500Y-119421153D01*
X116199500Y-119578846D01*
X116230261Y-119733489D01*
X116230264Y-119733501D01*
X116290602Y-119879172D01*
X116290609Y-119879185D01*
X116378210Y-120010288D01*
X116378213Y-120010292D01*
X116489707Y-120121786D01*
X116489711Y-120121789D01*
X116620814Y-120209390D01*
X116620827Y-120209397D01*
X116745262Y-120260939D01*
X116799666Y-120304779D01*
X116821731Y-120371074D01*
X116804452Y-120438773D01*
X116753315Y-120486384D01*
X116697810Y-120499500D01*
X114302190Y-120499500D01*
X114235151Y-120479815D01*
X114189396Y-120427011D01*
X114179452Y-120357853D01*
X114208477Y-120294297D01*
X114254738Y-120260939D01*
X114379172Y-120209397D01*
X114379172Y-120209396D01*
X114379179Y-120209394D01*
X114510289Y-120121789D01*
X114621789Y-120010289D01*
X114709394Y-119879179D01*
X114769737Y-119733497D01*
X114800500Y-119578842D01*
X114800500Y-119421158D01*
X114800500Y-119421155D01*
X114800499Y-119421153D01*
X114769738Y-119266510D01*
X114769737Y-119266503D01*
X114769735Y-119266498D01*
X114709397Y-119120827D01*
X114709390Y-119120814D01*
X114621789Y-118989711D01*
X114621786Y-118989707D01*
X114510292Y-118878213D01*
X114510288Y-118878210D01*
X114379185Y-118790609D01*
X114379172Y-118790602D01*
X114233501Y-118730264D01*
X114233489Y-118730261D01*
X114078845Y-118699500D01*
X114078842Y-118699500D01*
X113921158Y-118699500D01*
X113921155Y-118699500D01*
X113766510Y-118730261D01*
X113766498Y-118730264D01*
X113620827Y-118790602D01*
X113620814Y-118790609D01*
X113489711Y-118878210D01*
X113489707Y-118878213D01*
X113378213Y-118989707D01*
X113378210Y-118989711D01*
X113290609Y-119120814D01*
X113290602Y-119120827D01*
X113230264Y-119266498D01*
X113230261Y-119266510D01*
X113199500Y-119421153D01*
X113199500Y-119578846D01*
X113230261Y-119733489D01*
X113230264Y-119733501D01*
X113290602Y-119879172D01*
X113290609Y-119879185D01*
X113378210Y-120010288D01*
X113378213Y-120010292D01*
X113489707Y-120121786D01*
X113489711Y-120121789D01*
X113620814Y-120209390D01*
X113620827Y-120209397D01*
X113745262Y-120260939D01*
X113799666Y-120304779D01*
X113821731Y-120371074D01*
X113804452Y-120438773D01*
X113753315Y-120486384D01*
X113697810Y-120499500D01*
X103371905Y-120499500D01*
X103304866Y-120479815D01*
X103259111Y-120427011D01*
X103249167Y-120357853D01*
X103271586Y-120302615D01*
X103277629Y-120294297D01*
X103283343Y-120286433D01*
X103390568Y-120075992D01*
X103463553Y-119851368D01*
X103471043Y-119804076D01*
X103500500Y-119618097D01*
X103500500Y-119381902D01*
X103463553Y-119148631D01*
X103390566Y-118924003D01*
X103299358Y-118744999D01*
X103283343Y-118713567D01*
X103144517Y-118522490D01*
X102977510Y-118355483D01*
X102786433Y-118216657D01*
X102785597Y-118216231D01*
X102575996Y-118109433D01*
X102351368Y-118036446D01*
X102118097Y-117999500D01*
X102118092Y-117999500D01*
X101881908Y-117999500D01*
X101881903Y-117999500D01*
X101648631Y-118036446D01*
X101424003Y-118109433D01*
X101213566Y-118216657D01*
X101140509Y-118269737D01*
X101022490Y-118355483D01*
X101022488Y-118355485D01*
X101022487Y-118355485D01*
X100855485Y-118522487D01*
X100855485Y-118522488D01*
X100855483Y-118522490D01*
X100777773Y-118629448D01*
X100724818Y-118702334D01*
X100669488Y-118744999D01*
X100599874Y-118750978D01*
X100538079Y-118718372D01*
X100503722Y-118657533D01*
X100500500Y-118629448D01*
X100500500Y-117421153D01*
X103699500Y-117421153D01*
X103699500Y-117578846D01*
X103730261Y-117733489D01*
X103730264Y-117733501D01*
X103790602Y-117879172D01*
X103790609Y-117879185D01*
X103878210Y-118010288D01*
X103878213Y-118010292D01*
X103989707Y-118121786D01*
X103989711Y-118121789D01*
X104120814Y-118209390D01*
X104120827Y-118209397D01*
X104196857Y-118240889D01*
X104266503Y-118269737D01*
X104421153Y-118300499D01*
X104421156Y-118300500D01*
X104421158Y-118300500D01*
X104578844Y-118300500D01*
X104578845Y-118300499D01*
X104733497Y-118269737D01*
X104846166Y-118223067D01*
X104879172Y-118209397D01*
X104879172Y-118209396D01*
X104879179Y-118209394D01*
X105010289Y-118121789D01*
X105121789Y-118010289D01*
X105209394Y-117879179D01*
X105269737Y-117733497D01*
X105300500Y-117578842D01*
X105300500Y-117421158D01*
X105300500Y-117421155D01*
X105300499Y-117421153D01*
X105269738Y-117266510D01*
X105269737Y-117266503D01*
X105269735Y-117266498D01*
X105209397Y-117120827D01*
X105209390Y-117120814D01*
X105121789Y-116989711D01*
X105121786Y-116989707D01*
X105010292Y-116878213D01*
X105010288Y-116878210D01*
X104879185Y-116790609D01*
X104879172Y-116790602D01*
X104776507Y-116748078D01*
X104733497Y-116730263D01*
X104733489Y-116730261D01*
X104578845Y-116699500D01*
X104578842Y-116699500D01*
X104421158Y-116699500D01*
X104421155Y-116699500D01*
X104266510Y-116730261D01*
X104266498Y-116730264D01*
X104120827Y-116790602D01*
X104120814Y-116790609D01*
X103989711Y-116878210D01*
X103989707Y-116878213D01*
X103878213Y-116989707D01*
X103878210Y-116989711D01*
X103790609Y-117120814D01*
X103790602Y-117120827D01*
X103730264Y-117266498D01*
X103730261Y-117266510D01*
X103699500Y-117421153D01*
X100500500Y-117421153D01*
X100500500Y-116638389D01*
X116899500Y-116638389D01*
X116899500Y-117361611D01*
X116926598Y-117532701D01*
X116980127Y-117697445D01*
X117058768Y-117851788D01*
X117160586Y-117991928D01*
X117283072Y-118114414D01*
X117423212Y-118216232D01*
X117577555Y-118294873D01*
X117742299Y-118348402D01*
X117913389Y-118375500D01*
X117913390Y-118375500D01*
X118086610Y-118375500D01*
X118086611Y-118375500D01*
X118257701Y-118348402D01*
X118422445Y-118294873D01*
X118576788Y-118216232D01*
X118716928Y-118114414D01*
X118839414Y-117991928D01*
X118941232Y-117851788D01*
X119019873Y-117697445D01*
X119073402Y-117532701D01*
X119100500Y-117361611D01*
X119100500Y-116638389D01*
X119073402Y-116467299D01*
X119019873Y-116302555D01*
X118941232Y-116148212D01*
X118839414Y-116008072D01*
X118716928Y-115885586D01*
X118576788Y-115783768D01*
X118422445Y-115705127D01*
X118257701Y-115651598D01*
X118257699Y-115651597D01*
X118257698Y-115651597D01*
X118126271Y-115630781D01*
X118086611Y-115624500D01*
X117913389Y-115624500D01*
X117873728Y-115630781D01*
X117742302Y-115651597D01*
X117577552Y-115705128D01*
X117423211Y-115783768D01*
X117343256Y-115841859D01*
X117283072Y-115885586D01*
X117283070Y-115885588D01*
X117283069Y-115885588D01*
X117160588Y-116008069D01*
X117160588Y-116008070D01*
X117160586Y-116008072D01*
X117116859Y-116068256D01*
X117058768Y-116148211D01*
X116980128Y-116302552D01*
X116926597Y-116467302D01*
X116899500Y-116638389D01*
X100500500Y-116638389D01*
X100500500Y-114398992D01*
X109974500Y-114398992D01*
X109974500Y-114601007D01*
X110013907Y-114799119D01*
X110013909Y-114799127D01*
X110091212Y-114985752D01*
X110091217Y-114985762D01*
X110203441Y-115153718D01*
X110346281Y-115296558D01*
X110514237Y-115408782D01*
X110514241Y-115408784D01*
X110514244Y-115408786D01*
X110700873Y-115486091D01*
X110898992Y-115525499D01*
X110898996Y-115525500D01*
X110898997Y-115525500D01*
X111101004Y-115525500D01*
X111101005Y-115525499D01*
X111299127Y-115486091D01*
X111485756Y-115408786D01*
X111653718Y-115296558D01*
X111796558Y-115153718D01*
X111908786Y-114985756D01*
X111986091Y-114799127D01*
X112025500Y-114601003D01*
X112025500Y-114398997D01*
X112014139Y-114341880D01*
X112014139Y-114341877D01*
X112010944Y-114325817D01*
X122722900Y-114325817D01*
X122722900Y-114464182D01*
X122758712Y-114597835D01*
X122758713Y-114597838D01*
X122827892Y-114717661D01*
X122827894Y-114717664D01*
X122827895Y-114717665D01*
X122925735Y-114815505D01*
X123045564Y-114884688D01*
X123179217Y-114920500D01*
X123179219Y-114920500D01*
X123317581Y-114920500D01*
X123317583Y-114920500D01*
X123451236Y-114884688D01*
X123571065Y-114815505D01*
X123668905Y-114717665D01*
X123738088Y-114597836D01*
X123773900Y-114464183D01*
X123773900Y-114325817D01*
X128502900Y-114325817D01*
X128502900Y-114464182D01*
X128538712Y-114597835D01*
X128538713Y-114597838D01*
X128607892Y-114717661D01*
X128607894Y-114717664D01*
X128607895Y-114717665D01*
X128705735Y-114815505D01*
X128825564Y-114884688D01*
X128959217Y-114920500D01*
X128959219Y-114920500D01*
X129097581Y-114920500D01*
X129097583Y-114920500D01*
X129231236Y-114884688D01*
X129351065Y-114815505D01*
X129448905Y-114717665D01*
X129518088Y-114597836D01*
X129553900Y-114464183D01*
X129553900Y-114325817D01*
X129518088Y-114192164D01*
X129448905Y-114072335D01*
X129351065Y-113974495D01*
X129351064Y-113974494D01*
X129351061Y-113974492D01*
X129231238Y-113905313D01*
X129231237Y-113905312D01*
X129231236Y-113905312D01*
X129097583Y-113869500D01*
X128959217Y-113869500D01*
X128825564Y-113905312D01*
X128825561Y-113905313D01*
X128705738Y-113974492D01*
X128705733Y-113974496D01*
X128607896Y-114072333D01*
X128607892Y-114072338D01*
X128538713Y-114192161D01*
X128538712Y-114192164D01*
X128502900Y-114325817D01*
X123773900Y-114325817D01*
X123738088Y-114192164D01*
X123668905Y-114072335D01*
X123571065Y-113974495D01*
X123571064Y-113974494D01*
X123571061Y-113974492D01*
X123451238Y-113905313D01*
X123451237Y-113905312D01*
X123451236Y-113905312D01*
X123317583Y-113869500D01*
X123179217Y-113869500D01*
X123045564Y-113905312D01*
X123045561Y-113905313D01*
X122925738Y-113974492D01*
X122925733Y-113974496D01*
X122827896Y-114072333D01*
X122827892Y-114072338D01*
X122758713Y-114192161D01*
X122758712Y-114192164D01*
X122722900Y-114325817D01*
X112010944Y-114325817D01*
X111986092Y-114200880D01*
X111986091Y-114200873D01*
X111908786Y-114014244D01*
X111908784Y-114014241D01*
X111908782Y-114014237D01*
X111796558Y-113846281D01*
X111653718Y-113703441D01*
X111485762Y-113591217D01*
X111485752Y-113591212D01*
X111299127Y-113513909D01*
X111299119Y-113513907D01*
X111101007Y-113474500D01*
X111101003Y-113474500D01*
X110898997Y-113474500D01*
X110898992Y-113474500D01*
X110700880Y-113513907D01*
X110700872Y-113513909D01*
X110514247Y-113591212D01*
X110514237Y-113591217D01*
X110346281Y-113703441D01*
X110203441Y-113846281D01*
X110091217Y-114014237D01*
X110091212Y-114014247D01*
X110013909Y-114200872D01*
X110013907Y-114200880D01*
X109974500Y-114398992D01*
X100500500Y-114398992D01*
X100500500Y-112059753D01*
X124060900Y-112059753D01*
X124060900Y-112217446D01*
X124091661Y-112372089D01*
X124091664Y-112372101D01*
X124152002Y-112517772D01*
X124152009Y-112517785D01*
X124239610Y-112648888D01*
X124239613Y-112648892D01*
X124351107Y-112760386D01*
X124351111Y-112760389D01*
X124482214Y-112847990D01*
X124482227Y-112847997D01*
X124627898Y-112908335D01*
X124627903Y-112908337D01*
X124782553Y-112939099D01*
X124782556Y-112939100D01*
X124782558Y-112939100D01*
X124940244Y-112939100D01*
X124940245Y-112939099D01*
X125094897Y-112908337D01*
X125240579Y-112847994D01*
X125371689Y-112760389D01*
X125483189Y-112648889D01*
X125570794Y-112517779D01*
X125631137Y-112372097D01*
X125661900Y-112217442D01*
X125661900Y-112059758D01*
X125661900Y-112059755D01*
X125661899Y-112059753D01*
X125631137Y-111905103D01*
X125631135Y-111905098D01*
X125570797Y-111759427D01*
X125570790Y-111759414D01*
X125483189Y-111628311D01*
X125483186Y-111628307D01*
X125371690Y-111516811D01*
X125240585Y-111429209D01*
X125240572Y-111429202D01*
X125221140Y-111421153D01*
X127199500Y-111421153D01*
X127199500Y-111578846D01*
X127230261Y-111733489D01*
X127230264Y-111733501D01*
X127290602Y-111879172D01*
X127290609Y-111879185D01*
X127378210Y-112010288D01*
X127378213Y-112010292D01*
X127489707Y-112121786D01*
X127489711Y-112121789D01*
X127620814Y-112209390D01*
X127620827Y-112209397D01*
X127766498Y-112269735D01*
X127766503Y-112269737D01*
X127921153Y-112300499D01*
X127921156Y-112300500D01*
X127921158Y-112300500D01*
X128078844Y-112300500D01*
X128078845Y-112300499D01*
X128233497Y-112269737D01*
X128359740Y-112217446D01*
X128379172Y-112209397D01*
X128379172Y-112209396D01*
X128379179Y-112209394D01*
X128510289Y-112121789D01*
X128621789Y-112010289D01*
X128709394Y-111879179D01*
X128769737Y-111733497D01*
X128800500Y-111578842D01*
X128800500Y-111421158D01*
X128800500Y-111421155D01*
X128800499Y-111421153D01*
X128790097Y-111368861D01*
X128769737Y-111266503D01*
X128769735Y-111266498D01*
X128709397Y-111120827D01*
X128709390Y-111120814D01*
X128621789Y-110989711D01*
X128621786Y-110989707D01*
X128510292Y-110878213D01*
X128510288Y-110878210D01*
X128379185Y-110790609D01*
X128379172Y-110790602D01*
X128233501Y-110730264D01*
X128233489Y-110730261D01*
X128078845Y-110699500D01*
X128078842Y-110699500D01*
X127921158Y-110699500D01*
X127921155Y-110699500D01*
X127766510Y-110730261D01*
X127766498Y-110730264D01*
X127620827Y-110790602D01*
X127620814Y-110790609D01*
X127489711Y-110878210D01*
X127489707Y-110878213D01*
X127378213Y-110989707D01*
X127378210Y-110989711D01*
X127290609Y-111120814D01*
X127290602Y-111120827D01*
X127230264Y-111266498D01*
X127230261Y-111266510D01*
X127199500Y-111421153D01*
X125221140Y-111421153D01*
X125094901Y-111368864D01*
X125094889Y-111368861D01*
X124940245Y-111338100D01*
X124940242Y-111338100D01*
X124782558Y-111338100D01*
X124782555Y-111338100D01*
X124627910Y-111368861D01*
X124627898Y-111368864D01*
X124482227Y-111429202D01*
X124482214Y-111429209D01*
X124351111Y-111516810D01*
X124351107Y-111516813D01*
X124239613Y-111628307D01*
X124239610Y-111628311D01*
X124152009Y-111759414D01*
X124152002Y-111759427D01*
X124091664Y-111905098D01*
X124091661Y-111905110D01*
X124060900Y-112059753D01*
X100500500Y-112059753D01*
X100500500Y-108671153D01*
X109949500Y-108671153D01*
X109949500Y-108828846D01*
X109980261Y-108983489D01*
X109980264Y-108983501D01*
X110040602Y-109129172D01*
X110040609Y-109129185D01*
X110128210Y-109260288D01*
X110128213Y-109260292D01*
X110239707Y-109371786D01*
X110239711Y-109371789D01*
X110370814Y-109459390D01*
X110370827Y-109459397D01*
X110516498Y-109519735D01*
X110516503Y-109519737D01*
X110671153Y-109550499D01*
X110671156Y-109550500D01*
X110671158Y-109550500D01*
X110828844Y-109550500D01*
X110828845Y-109550499D01*
X110983497Y-109519737D01*
X111129179Y-109459394D01*
X111260289Y-109371789D01*
X111371789Y-109260289D01*
X111459394Y-109129179D01*
X111519737Y-108983497D01*
X111550500Y-108828842D01*
X111550500Y-108671158D01*
X111550500Y-108671155D01*
X111550499Y-108671153D01*
X111519738Y-108516510D01*
X111519737Y-108516503D01*
X111517163Y-108510288D01*
X111459397Y-108370827D01*
X111459390Y-108370814D01*
X111371789Y-108239711D01*
X111371786Y-108239707D01*
X111260292Y-108128213D01*
X111260288Y-108128210D01*
X111129185Y-108040609D01*
X111129173Y-108040602D01*
X111102674Y-108029627D01*
X110983501Y-107980264D01*
X110983489Y-107980261D01*
X110828845Y-107949500D01*
X110828842Y-107949500D01*
X110671158Y-107949500D01*
X110671155Y-107949500D01*
X110516510Y-107980261D01*
X110516498Y-107980264D01*
X110370827Y-108040602D01*
X110370814Y-108040609D01*
X110239711Y-108128210D01*
X110239707Y-108128213D01*
X110128213Y-108239707D01*
X110128210Y-108239711D01*
X110040609Y-108370814D01*
X110040602Y-108370827D01*
X109980264Y-108516498D01*
X109980261Y-108516510D01*
X109949500Y-108671153D01*
X100500500Y-108671153D01*
X100500500Y-107921153D01*
X115699500Y-107921153D01*
X115699500Y-108078846D01*
X115730261Y-108233489D01*
X115730264Y-108233501D01*
X115790602Y-108379172D01*
X115790609Y-108379185D01*
X115878210Y-108510288D01*
X115878213Y-108510292D01*
X115989707Y-108621786D01*
X115989711Y-108621789D01*
X116120814Y-108709390D01*
X116120827Y-108709397D01*
X116266498Y-108769735D01*
X116266503Y-108769737D01*
X116421153Y-108800499D01*
X116421156Y-108800500D01*
X116421158Y-108800500D01*
X116578844Y-108800500D01*
X116578845Y-108800499D01*
X116733497Y-108769737D01*
X116879179Y-108709394D01*
X117010289Y-108621789D01*
X117121789Y-108510289D01*
X117209394Y-108379179D01*
X117212854Y-108370827D01*
X117241984Y-108300499D01*
X117269737Y-108233497D01*
X117300500Y-108078842D01*
X117300500Y-107921158D01*
X117300500Y-107921155D01*
X117300499Y-107921153D01*
X117273474Y-107785292D01*
X117269737Y-107766503D01*
X117256062Y-107733489D01*
X117208842Y-107619487D01*
X117201373Y-107550018D01*
X117232648Y-107487539D01*
X117275950Y-107457474D01*
X117363637Y-107421153D01*
X125199500Y-107421153D01*
X125199500Y-107578846D01*
X125230261Y-107733489D01*
X125230264Y-107733501D01*
X125290602Y-107879172D01*
X125290609Y-107879185D01*
X125378210Y-108010288D01*
X125378213Y-108010292D01*
X125489707Y-108121786D01*
X125489711Y-108121789D01*
X125620814Y-108209390D01*
X125620827Y-108209397D01*
X125694013Y-108239711D01*
X125766503Y-108269737D01*
X125921153Y-108300499D01*
X125921156Y-108300500D01*
X125921158Y-108300500D01*
X126078844Y-108300500D01*
X126078845Y-108300499D01*
X126233497Y-108269737D01*
X126379179Y-108209394D01*
X126510289Y-108121789D01*
X126621789Y-108010289D01*
X126709394Y-107879179D01*
X126769737Y-107733497D01*
X126800500Y-107578842D01*
X126800500Y-107421158D01*
X126800500Y-107421155D01*
X126800499Y-107421153D01*
X126787110Y-107353842D01*
X126769737Y-107266503D01*
X126740597Y-107196153D01*
X132799500Y-107196153D01*
X132799500Y-107353846D01*
X132830261Y-107508489D01*
X132830264Y-107508501D01*
X132890602Y-107654172D01*
X132890609Y-107654185D01*
X132978210Y-107785288D01*
X132978213Y-107785292D01*
X133089707Y-107896786D01*
X133089711Y-107896789D01*
X133220814Y-107984390D01*
X133220827Y-107984397D01*
X133330024Y-108029627D01*
X133366503Y-108044737D01*
X133521153Y-108075499D01*
X133521156Y-108075500D01*
X133521158Y-108075500D01*
X133678844Y-108075500D01*
X133678845Y-108075499D01*
X133833497Y-108044737D01*
X133979179Y-107984394D01*
X134110289Y-107896789D01*
X134207094Y-107799984D01*
X144099500Y-107799984D01*
X144099500Y-110200015D01*
X144110000Y-110302795D01*
X144110001Y-110302796D01*
X144165186Y-110469335D01*
X144165187Y-110469337D01*
X144257286Y-110618651D01*
X144257289Y-110618655D01*
X144381344Y-110742710D01*
X144381348Y-110742713D01*
X144530662Y-110834812D01*
X144530664Y-110834813D01*
X144530666Y-110834814D01*
X144697203Y-110889999D01*
X144799992Y-110900500D01*
X144799997Y-110900500D01*
X147200003Y-110900500D01*
X147200008Y-110900500D01*
X147302797Y-110889999D01*
X147469334Y-110834814D01*
X147618655Y-110742711D01*
X147742711Y-110618655D01*
X147834814Y-110469334D01*
X147889999Y-110302797D01*
X147900500Y-110200008D01*
X147900500Y-107799992D01*
X147889999Y-107697203D01*
X147834814Y-107530666D01*
X147821142Y-107508501D01*
X147742713Y-107381348D01*
X147742710Y-107381344D01*
X147618655Y-107257289D01*
X147618651Y-107257286D01*
X147469337Y-107165187D01*
X147469335Y-107165186D01*
X147386065Y-107137593D01*
X147302797Y-107110001D01*
X147302795Y-107110000D01*
X147200015Y-107099500D01*
X147200008Y-107099500D01*
X144799992Y-107099500D01*
X144799984Y-107099500D01*
X144697204Y-107110000D01*
X144697203Y-107110001D01*
X144530664Y-107165186D01*
X144530662Y-107165187D01*
X144381348Y-107257286D01*
X144381344Y-107257289D01*
X144257289Y-107381344D01*
X144257286Y-107381348D01*
X144165187Y-107530662D01*
X144165186Y-107530664D01*
X144110001Y-107697203D01*
X144110000Y-107697204D01*
X144099500Y-107799984D01*
X134207094Y-107799984D01*
X134221789Y-107785289D01*
X134256393Y-107733501D01*
X134260106Y-107727944D01*
X134309390Y-107654185D01*
X134309390Y-107654184D01*
X134309394Y-107654179D01*
X134369737Y-107508497D01*
X134400500Y-107353842D01*
X134400500Y-107196158D01*
X134400500Y-107196155D01*
X134400499Y-107196153D01*
X134395201Y-107169519D01*
X134369737Y-107041503D01*
X134356808Y-107010289D01*
X134309397Y-106895827D01*
X134309390Y-106895814D01*
X134221789Y-106764711D01*
X134221786Y-106764707D01*
X134110292Y-106653213D01*
X134110288Y-106653210D01*
X133979185Y-106565609D01*
X133979172Y-106565602D01*
X133833501Y-106505264D01*
X133833489Y-106505261D01*
X133678845Y-106474500D01*
X133678842Y-106474500D01*
X133521158Y-106474500D01*
X133521155Y-106474500D01*
X133366510Y-106505261D01*
X133366498Y-106505264D01*
X133220827Y-106565602D01*
X133220814Y-106565609D01*
X133089711Y-106653210D01*
X133089707Y-106653213D01*
X132978213Y-106764707D01*
X132978210Y-106764711D01*
X132890609Y-106895814D01*
X132890602Y-106895827D01*
X132830264Y-107041498D01*
X132830261Y-107041510D01*
X132799500Y-107196153D01*
X126740597Y-107196153D01*
X126727770Y-107165186D01*
X126709397Y-107120827D01*
X126709390Y-107120814D01*
X126621789Y-106989711D01*
X126621786Y-106989707D01*
X126510292Y-106878213D01*
X126510288Y-106878210D01*
X126379185Y-106790609D01*
X126379172Y-106790602D01*
X126233501Y-106730264D01*
X126233489Y-106730261D01*
X126078845Y-106699500D01*
X126078842Y-106699500D01*
X125921158Y-106699500D01*
X125921155Y-106699500D01*
X125766510Y-106730261D01*
X125766498Y-106730264D01*
X125620827Y-106790602D01*
X125620814Y-106790609D01*
X125489711Y-106878210D01*
X125489707Y-106878213D01*
X125378213Y-106989707D01*
X125378210Y-106989711D01*
X125290609Y-107120814D01*
X125290602Y-107120827D01*
X125230264Y-107266498D01*
X125230261Y-107266510D01*
X125199500Y-107421153D01*
X117363637Y-107421153D01*
X117436283Y-107391062D01*
X117600969Y-107281023D01*
X117741023Y-107140969D01*
X117851062Y-106976283D01*
X117926859Y-106793293D01*
X117965500Y-106599033D01*
X117965500Y-106425585D01*
X121284500Y-106425585D01*
X121284500Y-106574414D01*
X121313530Y-106720363D01*
X121313533Y-106720372D01*
X121370480Y-106857857D01*
X121370487Y-106857870D01*
X121453163Y-106981602D01*
X121453166Y-106981606D01*
X121558393Y-107086833D01*
X121558397Y-107086836D01*
X121682129Y-107169512D01*
X121682142Y-107169519D01*
X121746456Y-107196158D01*
X121819629Y-107226467D01*
X121819631Y-107226467D01*
X121819636Y-107226469D01*
X121965585Y-107255499D01*
X121965589Y-107255500D01*
X121965590Y-107255500D01*
X122114411Y-107255500D01*
X122114412Y-107255499D01*
X122163063Y-107245822D01*
X122260363Y-107226469D01*
X122260366Y-107226467D01*
X122260371Y-107226467D01*
X122397864Y-107169516D01*
X122521603Y-107086836D01*
X122626836Y-106981603D01*
X122709516Y-106857864D01*
X122766467Y-106720371D01*
X122770619Y-106699500D01*
X122790602Y-106599033D01*
X122795500Y-106574410D01*
X122795500Y-106425590D01*
X122790601Y-106400962D01*
X122766469Y-106279636D01*
X122766466Y-106279627D01*
X122709519Y-106142142D01*
X122709512Y-106142129D01*
X122626836Y-106018397D01*
X122626833Y-106018393D01*
X122521606Y-105913166D01*
X122521602Y-105913163D01*
X122397870Y-105830487D01*
X122397857Y-105830480D01*
X122260372Y-105773533D01*
X122260363Y-105773530D01*
X122114414Y-105744500D01*
X122114410Y-105744500D01*
X121965590Y-105744500D01*
X121965585Y-105744500D01*
X121819636Y-105773530D01*
X121819627Y-105773533D01*
X121682142Y-105830480D01*
X121682129Y-105830487D01*
X121558397Y-105913163D01*
X121558393Y-105913166D01*
X121453166Y-106018393D01*
X121453163Y-106018397D01*
X121370487Y-106142129D01*
X121370480Y-106142142D01*
X121313533Y-106279627D01*
X121313530Y-106279636D01*
X121284500Y-106425585D01*
X117965500Y-106425585D01*
X117965500Y-106400967D01*
X117965500Y-106400964D01*
X117965499Y-106400962D01*
X117926859Y-106206707D01*
X117851062Y-106023717D01*
X117741023Y-105859031D01*
X117741021Y-105859028D01*
X117600971Y-105718978D01*
X117518626Y-105663957D01*
X117436283Y-105608938D01*
X117375109Y-105583599D01*
X117253293Y-105533141D01*
X117253285Y-105533139D01*
X117059036Y-105494500D01*
X117059033Y-105494500D01*
X116860967Y-105494500D01*
X116860964Y-105494500D01*
X116666714Y-105533139D01*
X116666706Y-105533141D01*
X116483718Y-105608937D01*
X116319028Y-105718978D01*
X116178978Y-105859028D01*
X116068937Y-106023718D01*
X115993141Y-106206706D01*
X115993139Y-106206714D01*
X115954500Y-106400962D01*
X115954500Y-106599037D01*
X115993139Y-106793285D01*
X115993141Y-106793293D01*
X116068938Y-106976285D01*
X116161335Y-107114567D01*
X116182213Y-107181244D01*
X116163728Y-107248624D01*
X116124637Y-107285352D01*
X116125886Y-107287221D01*
X115989711Y-107378210D01*
X115989707Y-107378213D01*
X115878213Y-107489707D01*
X115878210Y-107489711D01*
X115790609Y-107620814D01*
X115790602Y-107620827D01*
X115730264Y-107766498D01*
X115730261Y-107766510D01*
X115699500Y-107921153D01*
X100500500Y-107921153D01*
X100500500Y-106421153D01*
X112199500Y-106421153D01*
X112199500Y-106578846D01*
X112230261Y-106733489D01*
X112230264Y-106733501D01*
X112290602Y-106879172D01*
X112290609Y-106879185D01*
X112378210Y-107010288D01*
X112378213Y-107010292D01*
X112489707Y-107121786D01*
X112489711Y-107121789D01*
X112620814Y-107209390D01*
X112620827Y-107209397D01*
X112758683Y-107266498D01*
X112766503Y-107269737D01*
X112871418Y-107290606D01*
X112921153Y-107300499D01*
X112921156Y-107300500D01*
X112921158Y-107300500D01*
X113078844Y-107300500D01*
X113078845Y-107300499D01*
X113233497Y-107269737D01*
X113379179Y-107209394D01*
X113510289Y-107121789D01*
X113621789Y-107010289D01*
X113709394Y-106879179D01*
X113769737Y-106733497D01*
X113800500Y-106578842D01*
X113800500Y-106421158D01*
X113800500Y-106421155D01*
X113800499Y-106421153D01*
X113772348Y-106279629D01*
X113769737Y-106266503D01*
X113744969Y-106206707D01*
X113709397Y-106120827D01*
X113709390Y-106120814D01*
X113621789Y-105989711D01*
X113621786Y-105989707D01*
X113510292Y-105878213D01*
X113510288Y-105878210D01*
X113379185Y-105790609D01*
X113379172Y-105790602D01*
X113233501Y-105730264D01*
X113233489Y-105730261D01*
X113078845Y-105699500D01*
X113078842Y-105699500D01*
X112921158Y-105699500D01*
X112921155Y-105699500D01*
X112766510Y-105730261D01*
X112766498Y-105730264D01*
X112620827Y-105790602D01*
X112620814Y-105790609D01*
X112489711Y-105878210D01*
X112489707Y-105878213D01*
X112378213Y-105989707D01*
X112378210Y-105989711D01*
X112290609Y-106120814D01*
X112290602Y-106120827D01*
X112230264Y-106266498D01*
X112230261Y-106266510D01*
X112199500Y-106421153D01*
X100500500Y-106421153D01*
X100500500Y-104125441D01*
X102567000Y-104125441D01*
X102567000Y-104374558D01*
X102567001Y-104374575D01*
X102599517Y-104621561D01*
X102663998Y-104862207D01*
X102759330Y-105092361D01*
X102759337Y-105092376D01*
X102883900Y-105308126D01*
X103035560Y-105505774D01*
X103035566Y-105505781D01*
X103211718Y-105681933D01*
X103211725Y-105681939D01*
X103409373Y-105833599D01*
X103625123Y-105958162D01*
X103625138Y-105958169D01*
X103701278Y-105989707D01*
X103855293Y-106053502D01*
X104095935Y-106117982D01*
X104342935Y-106150500D01*
X104342942Y-106150500D01*
X104592058Y-106150500D01*
X104592065Y-106150500D01*
X104839065Y-106117982D01*
X105079707Y-106053502D01*
X105309873Y-105958164D01*
X105525627Y-105833599D01*
X105723276Y-105681938D01*
X105899438Y-105505776D01*
X106051099Y-105308127D01*
X106175664Y-105092373D01*
X106271002Y-104862207D01*
X106335482Y-104621565D01*
X106368000Y-104374565D01*
X106368000Y-104125435D01*
X106335482Y-103878435D01*
X106271002Y-103637793D01*
X106175664Y-103407627D01*
X106164213Y-103387793D01*
X106087295Y-103254566D01*
X106055013Y-103198653D01*
X138199500Y-103198653D01*
X138199500Y-103356346D01*
X138230261Y-103510989D01*
X138230264Y-103511001D01*
X138290602Y-103656672D01*
X138290609Y-103656685D01*
X138378210Y-103787788D01*
X138378213Y-103787792D01*
X138489707Y-103899286D01*
X138489711Y-103899289D01*
X138620814Y-103986890D01*
X138620827Y-103986897D01*
X138766498Y-104047235D01*
X138766503Y-104047237D01*
X138921153Y-104077999D01*
X138921156Y-104078000D01*
X138921158Y-104078000D01*
X139078844Y-104078000D01*
X139078845Y-104077999D01*
X139233497Y-104047237D01*
X139379179Y-103986894D01*
X139510289Y-103899289D01*
X139534137Y-103875441D01*
X144099500Y-103875441D01*
X144099500Y-104124558D01*
X144099501Y-104124575D01*
X144132017Y-104371561D01*
X144196498Y-104612207D01*
X144291830Y-104842361D01*
X144291837Y-104842376D01*
X144416400Y-105058126D01*
X144568060Y-105255774D01*
X144568066Y-105255781D01*
X144744218Y-105431933D01*
X144744225Y-105431939D01*
X144941873Y-105583599D01*
X145157623Y-105708162D01*
X145157638Y-105708169D01*
X145210981Y-105730264D01*
X145387793Y-105803502D01*
X145628435Y-105867982D01*
X145875435Y-105900500D01*
X145875442Y-105900500D01*
X146124558Y-105900500D01*
X146124565Y-105900500D01*
X146371565Y-105867982D01*
X146612207Y-105803502D01*
X146842373Y-105708164D01*
X147058127Y-105583599D01*
X147255776Y-105431938D01*
X147431938Y-105255776D01*
X147583599Y-105058127D01*
X147708164Y-104842373D01*
X147803502Y-104612207D01*
X147867982Y-104371565D01*
X147900500Y-104124565D01*
X147900500Y-103875435D01*
X147867982Y-103628435D01*
X147803502Y-103387793D01*
X147749253Y-103256825D01*
X147708169Y-103157638D01*
X147708162Y-103157623D01*
X147583599Y-102941873D01*
X147431939Y-102744225D01*
X147431933Y-102744218D01*
X147255781Y-102568066D01*
X147255774Y-102568060D01*
X147058126Y-102416400D01*
X146842376Y-102291837D01*
X146842361Y-102291830D01*
X146612207Y-102196498D01*
X146371561Y-102132017D01*
X146124575Y-102099501D01*
X146124570Y-102099500D01*
X146124565Y-102099500D01*
X145875435Y-102099500D01*
X145875429Y-102099500D01*
X145875424Y-102099501D01*
X145628438Y-102132017D01*
X145387792Y-102196498D01*
X145157638Y-102291830D01*
X145157623Y-102291837D01*
X144941873Y-102416400D01*
X144744225Y-102568060D01*
X144744218Y-102568066D01*
X144568066Y-102744218D01*
X144568060Y-102744225D01*
X144416400Y-102941873D01*
X144291837Y-103157623D01*
X144291830Y-103157638D01*
X144196498Y-103387792D01*
X144132017Y-103628438D01*
X144099501Y-103875424D01*
X144099500Y-103875441D01*
X139534137Y-103875441D01*
X139621789Y-103787789D01*
X139709394Y-103656679D01*
X139769737Y-103510997D01*
X139800500Y-103356342D01*
X139800500Y-103198658D01*
X139800500Y-103198655D01*
X139800499Y-103198653D01*
X139799150Y-103191873D01*
X139769737Y-103044003D01*
X139769735Y-103043998D01*
X139709397Y-102898327D01*
X139709390Y-102898314D01*
X139621789Y-102767211D01*
X139621786Y-102767207D01*
X139510292Y-102655713D01*
X139510288Y-102655710D01*
X139379185Y-102568109D01*
X139379172Y-102568102D01*
X139233501Y-102507764D01*
X139233489Y-102507761D01*
X139078845Y-102477000D01*
X139078842Y-102477000D01*
X138921158Y-102477000D01*
X138921155Y-102477000D01*
X138766510Y-102507761D01*
X138766498Y-102507764D01*
X138620827Y-102568102D01*
X138620814Y-102568109D01*
X138489711Y-102655710D01*
X138489707Y-102655713D01*
X138378213Y-102767207D01*
X138378210Y-102767211D01*
X138290609Y-102898314D01*
X138290602Y-102898327D01*
X138230264Y-103043998D01*
X138230261Y-103044010D01*
X138199500Y-103198653D01*
X106055013Y-103198653D01*
X106051099Y-103191873D01*
X105899439Y-102994225D01*
X105899433Y-102994218D01*
X105723281Y-102818066D01*
X105723274Y-102818060D01*
X105525626Y-102666400D01*
X105309876Y-102541837D01*
X105309861Y-102541830D01*
X105079707Y-102446498D01*
X104839061Y-102382017D01*
X104592075Y-102349501D01*
X104592070Y-102349500D01*
X104592065Y-102349500D01*
X104342935Y-102349500D01*
X104342929Y-102349500D01*
X104342924Y-102349501D01*
X104095938Y-102382017D01*
X103855292Y-102446498D01*
X103625138Y-102541830D01*
X103625123Y-102541837D01*
X103409373Y-102666400D01*
X103211725Y-102818060D01*
X103211718Y-102818066D01*
X103035566Y-102994218D01*
X103035560Y-102994225D01*
X102883900Y-103191873D01*
X102759337Y-103407623D01*
X102759330Y-103407638D01*
X102663998Y-103637792D01*
X102599517Y-103878438D01*
X102567001Y-104125424D01*
X102567000Y-104125441D01*
X100500500Y-104125441D01*
X100500500Y-99921153D01*
X114199500Y-99921153D01*
X114199500Y-100078846D01*
X114230261Y-100233489D01*
X114230264Y-100233501D01*
X114290602Y-100379172D01*
X114290609Y-100379185D01*
X114378210Y-100510288D01*
X114378213Y-100510292D01*
X114489707Y-100621786D01*
X114489711Y-100621789D01*
X114620814Y-100709390D01*
X114620827Y-100709397D01*
X114766498Y-100769735D01*
X114766503Y-100769737D01*
X114921153Y-100800499D01*
X114921156Y-100800500D01*
X114921158Y-100800500D01*
X115078844Y-100800500D01*
X115078845Y-100800499D01*
X115233497Y-100769737D01*
X115379179Y-100709394D01*
X115510289Y-100621789D01*
X115621789Y-100510289D01*
X115709394Y-100379179D01*
X115769737Y-100233497D01*
X115800500Y-100078842D01*
X115800500Y-99921158D01*
X115800500Y-99921155D01*
X115800499Y-99921153D01*
X115784829Y-99842376D01*
X115769737Y-99766503D01*
X115769735Y-99766498D01*
X115709397Y-99620827D01*
X115709390Y-99620814D01*
X115621789Y-99489711D01*
X115621786Y-99489707D01*
X115510292Y-99378213D01*
X115510288Y-99378210D01*
X115379185Y-99290609D01*
X115379172Y-99290602D01*
X115233501Y-99230264D01*
X115233489Y-99230261D01*
X115078845Y-99199500D01*
X115078842Y-99199500D01*
X114921158Y-99199500D01*
X114921155Y-99199500D01*
X114766510Y-99230261D01*
X114766498Y-99230264D01*
X114620827Y-99290602D01*
X114620814Y-99290609D01*
X114489711Y-99378210D01*
X114489707Y-99378213D01*
X114378213Y-99489707D01*
X114378210Y-99489711D01*
X114290609Y-99620814D01*
X114290602Y-99620827D01*
X114230264Y-99766498D01*
X114230261Y-99766510D01*
X114199500Y-99921153D01*
X100500500Y-99921153D01*
X100500500Y-98875441D01*
X144099500Y-98875441D01*
X144099500Y-99124558D01*
X144099501Y-99124575D01*
X144132017Y-99371561D01*
X144196498Y-99612207D01*
X144291830Y-99842361D01*
X144291837Y-99842376D01*
X144416400Y-100058126D01*
X144568060Y-100255774D01*
X144568066Y-100255781D01*
X144744218Y-100431933D01*
X144744225Y-100431939D01*
X144941873Y-100583599D01*
X145157623Y-100708162D01*
X145157638Y-100708169D01*
X145256825Y-100749253D01*
X145387793Y-100803502D01*
X145628435Y-100867982D01*
X145875435Y-100900500D01*
X145875442Y-100900500D01*
X146124558Y-100900500D01*
X146124565Y-100900500D01*
X146371565Y-100867982D01*
X146612207Y-100803502D01*
X146842373Y-100708164D01*
X147058127Y-100583599D01*
X147255776Y-100431938D01*
X147431938Y-100255776D01*
X147583599Y-100058127D01*
X147708164Y-99842373D01*
X147803502Y-99612207D01*
X147867982Y-99371565D01*
X147900500Y-99124565D01*
X147900500Y-98875435D01*
X147867982Y-98628435D01*
X147803502Y-98387793D01*
X147708164Y-98157627D01*
X147583599Y-97941873D01*
X147431938Y-97744224D01*
X147431933Y-97744218D01*
X147255781Y-97568066D01*
X147255774Y-97568060D01*
X147058126Y-97416400D01*
X146842376Y-97291837D01*
X146842361Y-97291830D01*
X146612207Y-97196498D01*
X146371561Y-97132017D01*
X146124575Y-97099501D01*
X146124570Y-97099500D01*
X146124565Y-97099500D01*
X145875435Y-97099500D01*
X145875429Y-97099500D01*
X145875424Y-97099501D01*
X145628438Y-97132017D01*
X145387792Y-97196498D01*
X145157638Y-97291830D01*
X145157623Y-97291837D01*
X144941873Y-97416400D01*
X144744225Y-97568060D01*
X144744218Y-97568066D01*
X144568066Y-97744218D01*
X144568060Y-97744225D01*
X144416400Y-97941873D01*
X144291837Y-98157623D01*
X144291830Y-98157638D01*
X144196498Y-98387792D01*
X144132017Y-98628438D01*
X144099501Y-98875424D01*
X144099500Y-98875441D01*
X100500500Y-98875441D01*
X100500500Y-95831653D01*
X111199500Y-95831653D01*
X111199500Y-95989346D01*
X111230261Y-96143989D01*
X111230264Y-96144001D01*
X111290602Y-96289672D01*
X111290609Y-96289685D01*
X111378210Y-96420788D01*
X111378213Y-96420792D01*
X111489707Y-96532286D01*
X111489711Y-96532289D01*
X111620814Y-96619890D01*
X111620827Y-96619897D01*
X111766498Y-96680235D01*
X111766503Y-96680237D01*
X111921153Y-96710999D01*
X111921156Y-96711000D01*
X111921158Y-96711000D01*
X112078844Y-96711000D01*
X112078845Y-96710999D01*
X112233497Y-96680237D01*
X112379179Y-96619894D01*
X112510289Y-96532289D01*
X112621425Y-96421153D01*
X137699500Y-96421153D01*
X137699500Y-96578846D01*
X137730261Y-96733489D01*
X137730264Y-96733501D01*
X137790602Y-96879172D01*
X137790609Y-96879185D01*
X137878210Y-97010288D01*
X137878213Y-97010292D01*
X137989707Y-97121786D01*
X137989711Y-97121789D01*
X138120814Y-97209390D01*
X138120827Y-97209397D01*
X138266498Y-97269735D01*
X138266503Y-97269737D01*
X138421153Y-97300499D01*
X138421156Y-97300500D01*
X138421158Y-97300500D01*
X138578844Y-97300500D01*
X138578845Y-97300499D01*
X138733497Y-97269737D01*
X138879179Y-97209394D01*
X139010289Y-97121789D01*
X139121789Y-97010289D01*
X139209394Y-96879179D01*
X139269737Y-96733497D01*
X139300500Y-96578842D01*
X139300500Y-96421158D01*
X139300500Y-96421155D01*
X139300499Y-96421153D01*
X139274347Y-96289679D01*
X139269737Y-96266503D01*
X139269735Y-96266498D01*
X139209397Y-96120827D01*
X139209390Y-96120814D01*
X139121789Y-95989711D01*
X139121786Y-95989707D01*
X139010292Y-95878213D01*
X139010288Y-95878210D01*
X138879185Y-95790609D01*
X138879172Y-95790602D01*
X138733501Y-95730264D01*
X138733489Y-95730261D01*
X138578845Y-95699500D01*
X138578842Y-95699500D01*
X138421158Y-95699500D01*
X138421155Y-95699500D01*
X138266510Y-95730261D01*
X138266498Y-95730264D01*
X138120827Y-95790602D01*
X138120814Y-95790609D01*
X137989711Y-95878210D01*
X137989707Y-95878213D01*
X137878213Y-95989707D01*
X137878210Y-95989711D01*
X137790609Y-96120814D01*
X137790602Y-96120827D01*
X137730264Y-96266498D01*
X137730261Y-96266510D01*
X137699500Y-96421153D01*
X112621425Y-96421153D01*
X112621789Y-96420789D01*
X112709394Y-96289679D01*
X112769737Y-96143997D01*
X112800500Y-95989342D01*
X112800500Y-95831658D01*
X112800500Y-95831655D01*
X112800499Y-95831653D01*
X112780331Y-95730263D01*
X112769737Y-95677003D01*
X112731048Y-95583599D01*
X112709397Y-95531327D01*
X112709390Y-95531314D01*
X112621789Y-95400211D01*
X112621786Y-95400207D01*
X112510292Y-95288713D01*
X112510288Y-95288710D01*
X112379185Y-95201109D01*
X112379172Y-95201102D01*
X112233501Y-95140764D01*
X112233489Y-95140761D01*
X112078845Y-95110000D01*
X112078842Y-95110000D01*
X111921158Y-95110000D01*
X111921155Y-95110000D01*
X111766510Y-95140761D01*
X111766498Y-95140764D01*
X111620827Y-95201102D01*
X111620814Y-95201109D01*
X111489711Y-95288710D01*
X111489707Y-95288713D01*
X111378213Y-95400207D01*
X111378210Y-95400211D01*
X111290609Y-95531314D01*
X111290602Y-95531327D01*
X111230264Y-95676998D01*
X111230261Y-95677010D01*
X111199500Y-95831653D01*
X100500500Y-95831653D01*
X100500500Y-92625441D01*
X102567000Y-92625441D01*
X102567000Y-92874558D01*
X102567001Y-92874575D01*
X102599517Y-93121561D01*
X102663998Y-93362207D01*
X102759330Y-93592361D01*
X102759337Y-93592376D01*
X102883900Y-93808126D01*
X103035560Y-94005774D01*
X103035566Y-94005781D01*
X103211718Y-94181933D01*
X103211725Y-94181939D01*
X103409373Y-94333599D01*
X103625123Y-94458162D01*
X103625138Y-94458169D01*
X103724325Y-94499253D01*
X103855293Y-94553502D01*
X104095935Y-94617982D01*
X104342935Y-94650500D01*
X104342942Y-94650500D01*
X104592058Y-94650500D01*
X104592065Y-94650500D01*
X104839065Y-94617982D01*
X105079707Y-94553502D01*
X105309873Y-94458164D01*
X105525627Y-94333599D01*
X105723276Y-94181938D01*
X105899438Y-94005776D01*
X105999447Y-93875441D01*
X144099500Y-93875441D01*
X144099500Y-94124558D01*
X144099501Y-94124575D01*
X144132017Y-94371561D01*
X144196498Y-94612207D01*
X144291830Y-94842361D01*
X144291837Y-94842376D01*
X144416400Y-95058126D01*
X144568060Y-95255774D01*
X144568066Y-95255781D01*
X144744218Y-95431933D01*
X144744225Y-95431939D01*
X144941873Y-95583599D01*
X145157623Y-95708162D01*
X145157638Y-95708169D01*
X145210981Y-95730264D01*
X145387793Y-95803502D01*
X145628435Y-95867982D01*
X145875435Y-95900500D01*
X145875442Y-95900500D01*
X146124558Y-95900500D01*
X146124565Y-95900500D01*
X146371565Y-95867982D01*
X146612207Y-95803502D01*
X146842373Y-95708164D01*
X147058127Y-95583599D01*
X147255776Y-95431938D01*
X147431938Y-95255776D01*
X147583599Y-95058127D01*
X147708164Y-94842373D01*
X147803502Y-94612207D01*
X147867982Y-94371565D01*
X147900500Y-94124565D01*
X147900500Y-93875435D01*
X147867982Y-93628435D01*
X147803502Y-93387793D01*
X147739592Y-93233501D01*
X147708169Y-93157638D01*
X147708162Y-93157623D01*
X147583599Y-92941873D01*
X147431939Y-92744225D01*
X147431933Y-92744218D01*
X147255781Y-92568066D01*
X147255774Y-92568060D01*
X147058126Y-92416400D01*
X146842376Y-92291837D01*
X146842361Y-92291830D01*
X146612207Y-92196498D01*
X146371565Y-92132018D01*
X146371564Y-92132017D01*
X146371561Y-92132017D01*
X146124575Y-92099501D01*
X146124570Y-92099500D01*
X146124565Y-92099500D01*
X145875435Y-92099500D01*
X145875429Y-92099500D01*
X145875424Y-92099501D01*
X145628438Y-92132017D01*
X145387792Y-92196498D01*
X145157638Y-92291830D01*
X145157623Y-92291837D01*
X144941873Y-92416400D01*
X144744225Y-92568060D01*
X144744218Y-92568066D01*
X144568066Y-92744218D01*
X144568060Y-92744225D01*
X144416400Y-92941873D01*
X144291837Y-93157623D01*
X144291830Y-93157638D01*
X144196498Y-93387792D01*
X144132017Y-93628438D01*
X144099501Y-93875424D01*
X144099500Y-93875441D01*
X105999447Y-93875441D01*
X106051099Y-93808127D01*
X106175664Y-93592373D01*
X106271002Y-93362207D01*
X106335482Y-93121565D01*
X106368000Y-92874565D01*
X106368000Y-92625435D01*
X106335482Y-92378435D01*
X106271002Y-92137793D01*
X106181269Y-91921158D01*
X106181267Y-91921153D01*
X121699500Y-91921153D01*
X121699500Y-92078846D01*
X121730261Y-92233489D01*
X121730264Y-92233501D01*
X121790602Y-92379172D01*
X121790609Y-92379185D01*
X121878210Y-92510288D01*
X121878213Y-92510292D01*
X121989707Y-92621786D01*
X121989711Y-92621789D01*
X122120814Y-92709390D01*
X122120827Y-92709397D01*
X122258683Y-92766498D01*
X122266503Y-92769737D01*
X122421153Y-92800499D01*
X122421156Y-92800500D01*
X122421158Y-92800500D01*
X122578844Y-92800500D01*
X122578845Y-92800499D01*
X122733497Y-92769737D01*
X122879179Y-92709394D01*
X123010289Y-92621789D01*
X123047331Y-92584747D01*
X123108653Y-92551261D01*
X123178345Y-92556245D01*
X123234279Y-92598115D01*
X123258697Y-92663579D01*
X123249575Y-92719878D01*
X123230263Y-92766502D01*
X123230261Y-92766510D01*
X123199500Y-92921153D01*
X123199500Y-93078846D01*
X123230261Y-93233489D01*
X123230264Y-93233501D01*
X123290602Y-93379172D01*
X123290609Y-93379185D01*
X123378210Y-93510288D01*
X123378213Y-93510292D01*
X123489707Y-93621786D01*
X123489711Y-93621789D01*
X123620814Y-93709390D01*
X123620827Y-93709397D01*
X123735306Y-93756815D01*
X123766503Y-93769737D01*
X123921153Y-93800499D01*
X123921156Y-93800500D01*
X123921158Y-93800500D01*
X124078844Y-93800500D01*
X124078845Y-93800499D01*
X124233497Y-93769737D01*
X124379179Y-93709394D01*
X124510289Y-93621789D01*
X124621789Y-93510289D01*
X124709394Y-93379179D01*
X124769737Y-93233497D01*
X124800500Y-93078842D01*
X124800500Y-92921158D01*
X124800500Y-92921155D01*
X124800499Y-92921153D01*
X124791232Y-92874565D01*
X124769737Y-92766503D01*
X124760506Y-92744218D01*
X124709397Y-92620827D01*
X124709390Y-92620814D01*
X124621789Y-92489711D01*
X124621786Y-92489707D01*
X124510292Y-92378213D01*
X124510288Y-92378210D01*
X124379185Y-92290609D01*
X124379172Y-92290602D01*
X124233501Y-92230264D01*
X124233489Y-92230261D01*
X124078845Y-92199500D01*
X124078842Y-92199500D01*
X123921158Y-92199500D01*
X123921155Y-92199500D01*
X123766510Y-92230261D01*
X123766498Y-92230264D01*
X123620827Y-92290602D01*
X123620814Y-92290609D01*
X123489711Y-92378210D01*
X123489706Y-92378214D01*
X123452666Y-92415254D01*
X123391343Y-92448739D01*
X123321651Y-92443753D01*
X123265718Y-92401881D01*
X123241302Y-92336417D01*
X123250424Y-92280121D01*
X123269737Y-92233497D01*
X123300500Y-92078842D01*
X123300500Y-91921158D01*
X123300500Y-91921155D01*
X123300499Y-91921153D01*
X123269738Y-91766510D01*
X123269737Y-91766503D01*
X123269735Y-91766498D01*
X123209397Y-91620827D01*
X123209390Y-91620814D01*
X123121789Y-91489711D01*
X123121786Y-91489707D01*
X123010292Y-91378213D01*
X123010288Y-91378210D01*
X122879185Y-91290609D01*
X122879172Y-91290602D01*
X122733501Y-91230264D01*
X122733489Y-91230261D01*
X122578845Y-91199500D01*
X122578842Y-91199500D01*
X122421158Y-91199500D01*
X122421155Y-91199500D01*
X122266510Y-91230261D01*
X122266498Y-91230264D01*
X122120827Y-91290602D01*
X122120814Y-91290609D01*
X121989711Y-91378210D01*
X121989707Y-91378213D01*
X121878213Y-91489707D01*
X121878210Y-91489711D01*
X121790609Y-91620814D01*
X121790602Y-91620827D01*
X121730264Y-91766498D01*
X121730261Y-91766510D01*
X121699500Y-91921153D01*
X106181267Y-91921153D01*
X106175669Y-91907638D01*
X106175662Y-91907623D01*
X106051099Y-91691873D01*
X105899439Y-91494225D01*
X105899433Y-91494218D01*
X105723281Y-91318066D01*
X105723274Y-91318060D01*
X105525626Y-91166400D01*
X105309876Y-91041837D01*
X105309861Y-91041830D01*
X105079707Y-90946498D01*
X104839061Y-90882017D01*
X104592075Y-90849501D01*
X104592070Y-90849500D01*
X104592065Y-90849500D01*
X104342935Y-90849500D01*
X104342929Y-90849500D01*
X104342924Y-90849501D01*
X104095938Y-90882017D01*
X103855292Y-90946498D01*
X103625138Y-91041830D01*
X103625123Y-91041837D01*
X103409373Y-91166400D01*
X103211725Y-91318060D01*
X103211718Y-91318066D01*
X103035566Y-91494218D01*
X103035560Y-91494225D01*
X102883900Y-91691873D01*
X102759337Y-91907623D01*
X102759330Y-91907638D01*
X102663998Y-92137792D01*
X102599517Y-92378438D01*
X102567001Y-92625424D01*
X102567000Y-92625441D01*
X100500500Y-92625441D01*
X100500500Y-88576153D01*
X112699500Y-88576153D01*
X112699500Y-88733846D01*
X112730261Y-88888489D01*
X112730264Y-88888501D01*
X112790602Y-89034172D01*
X112790609Y-89034185D01*
X112878210Y-89165288D01*
X112878213Y-89165292D01*
X112989707Y-89276786D01*
X112989711Y-89276789D01*
X113120814Y-89364390D01*
X113120827Y-89364397D01*
X113266498Y-89424735D01*
X113266503Y-89424737D01*
X113421153Y-89455499D01*
X113421156Y-89455500D01*
X113421158Y-89455500D01*
X113578844Y-89455500D01*
X113578845Y-89455499D01*
X113733497Y-89424737D01*
X113879179Y-89364394D01*
X114010289Y-89276789D01*
X114121789Y-89165289D01*
X114209394Y-89034179D01*
X114269737Y-88888497D01*
X114300500Y-88733842D01*
X114300500Y-88576158D01*
X114300500Y-88576155D01*
X114300499Y-88576153D01*
X114291122Y-88529013D01*
X114269737Y-88421503D01*
X114257061Y-88390900D01*
X114209397Y-88275827D01*
X114209390Y-88275814D01*
X114121789Y-88144711D01*
X114121786Y-88144707D01*
X114010289Y-88033210D01*
X113987776Y-88018168D01*
X113879185Y-87945609D01*
X113879172Y-87945602D01*
X113820146Y-87921153D01*
X118699500Y-87921153D01*
X118699500Y-88078846D01*
X118730261Y-88233489D01*
X118730264Y-88233501D01*
X118790602Y-88379172D01*
X118790609Y-88379185D01*
X118878210Y-88510288D01*
X118878213Y-88510292D01*
X118989707Y-88621786D01*
X118989711Y-88621789D01*
X119120814Y-88709390D01*
X119120827Y-88709397D01*
X119248302Y-88762198D01*
X119266503Y-88769737D01*
X119421153Y-88800499D01*
X119421156Y-88800500D01*
X119421158Y-88800500D01*
X119578844Y-88800500D01*
X119578845Y-88800499D01*
X119733497Y-88769737D01*
X119879179Y-88709394D01*
X120010289Y-88621789D01*
X120055925Y-88576153D01*
X123044500Y-88576153D01*
X123044500Y-88733846D01*
X123075261Y-88888489D01*
X123075264Y-88888501D01*
X123135602Y-89034172D01*
X123135609Y-89034185D01*
X123223210Y-89165288D01*
X123223213Y-89165292D01*
X123334707Y-89276786D01*
X123334711Y-89276789D01*
X123465814Y-89364390D01*
X123465827Y-89364397D01*
X123611498Y-89424735D01*
X123611503Y-89424737D01*
X123766153Y-89455499D01*
X123766156Y-89455500D01*
X123766158Y-89455500D01*
X123923844Y-89455500D01*
X123923845Y-89455499D01*
X124078497Y-89424737D01*
X124224179Y-89364394D01*
X124355289Y-89276789D01*
X124466789Y-89165289D01*
X124493049Y-89125988D01*
X124546659Y-89081183D01*
X124615984Y-89072474D01*
X124679012Y-89102628D01*
X124715732Y-89162070D01*
X124717768Y-89170685D01*
X124730262Y-89233492D01*
X124730264Y-89233501D01*
X124790602Y-89379172D01*
X124790609Y-89379185D01*
X124878210Y-89510288D01*
X124878213Y-89510292D01*
X124989707Y-89621786D01*
X124989711Y-89621789D01*
X125120814Y-89709390D01*
X125120827Y-89709397D01*
X125266498Y-89769735D01*
X125266503Y-89769737D01*
X125421153Y-89800499D01*
X125421156Y-89800500D01*
X125421158Y-89800500D01*
X125578844Y-89800500D01*
X125578845Y-89800499D01*
X125733497Y-89769737D01*
X125879179Y-89709394D01*
X126010289Y-89621789D01*
X126121789Y-89510289D01*
X126131235Y-89496153D01*
X128124500Y-89496153D01*
X128124500Y-89653846D01*
X128155261Y-89808489D01*
X128155264Y-89808501D01*
X128215602Y-89954172D01*
X128215609Y-89954185D01*
X128303210Y-90085288D01*
X128303213Y-90085292D01*
X128414707Y-90196786D01*
X128414711Y-90196789D01*
X128545814Y-90284390D01*
X128545827Y-90284397D01*
X128691498Y-90344735D01*
X128691503Y-90344737D01*
X128846153Y-90375499D01*
X128846156Y-90375500D01*
X128846158Y-90375500D01*
X129003844Y-90375500D01*
X129003845Y-90375499D01*
X129158497Y-90344737D01*
X129304179Y-90284394D01*
X129435289Y-90196789D01*
X129546789Y-90085289D01*
X129634394Y-89954179D01*
X129694737Y-89808497D01*
X129725500Y-89653842D01*
X129725500Y-89496158D01*
X129725500Y-89496155D01*
X129725499Y-89496153D01*
X129694737Y-89341503D01*
X129676903Y-89298447D01*
X129634397Y-89195827D01*
X129634390Y-89195814D01*
X129546789Y-89064711D01*
X129546786Y-89064707D01*
X129435292Y-88953213D01*
X129435288Y-88953210D01*
X129304185Y-88865609D01*
X129304172Y-88865602D01*
X129158501Y-88805264D01*
X129158489Y-88805261D01*
X129003845Y-88774500D01*
X129003842Y-88774500D01*
X128846158Y-88774500D01*
X128846155Y-88774500D01*
X128691510Y-88805261D01*
X128691498Y-88805264D01*
X128545827Y-88865602D01*
X128545814Y-88865609D01*
X128414711Y-88953210D01*
X128414707Y-88953213D01*
X128303213Y-89064707D01*
X128303210Y-89064711D01*
X128215609Y-89195814D01*
X128215602Y-89195827D01*
X128155264Y-89341498D01*
X128155261Y-89341510D01*
X128124500Y-89496153D01*
X126131235Y-89496153D01*
X126158399Y-89455499D01*
X126181334Y-89421175D01*
X126181335Y-89421173D01*
X126209387Y-89379190D01*
X126209390Y-89379185D01*
X126209394Y-89379179D01*
X126269737Y-89233497D01*
X126300500Y-89078842D01*
X126300500Y-88921158D01*
X126300500Y-88921155D01*
X126300499Y-88921153D01*
X126294002Y-88888489D01*
X126269737Y-88766503D01*
X126256209Y-88733844D01*
X126209397Y-88620827D01*
X126209390Y-88620814D01*
X126137127Y-88512666D01*
X126137126Y-88512665D01*
X126135540Y-88510292D01*
X126121789Y-88489711D01*
X126121787Y-88489708D01*
X126081941Y-88449862D01*
X132170790Y-88449862D01*
X132170790Y-88607555D01*
X132201551Y-88762198D01*
X132201554Y-88762210D01*
X132261892Y-88907881D01*
X132261899Y-88907894D01*
X132349500Y-89038997D01*
X132349503Y-89039001D01*
X132460997Y-89150495D01*
X132461001Y-89150498D01*
X132592104Y-89238099D01*
X132592117Y-89238106D01*
X132737788Y-89298444D01*
X132737793Y-89298446D01*
X132892443Y-89329208D01*
X132892446Y-89329209D01*
X132892448Y-89329209D01*
X133050134Y-89329209D01*
X133050135Y-89329208D01*
X133204787Y-89298446D01*
X133350469Y-89238103D01*
X133481579Y-89150498D01*
X133593079Y-89038998D01*
X133680684Y-88907888D01*
X133741027Y-88762206D01*
X133771790Y-88607551D01*
X133771790Y-88457939D01*
X133791475Y-88390900D01*
X133844279Y-88345145D01*
X133913437Y-88335201D01*
X133976993Y-88364226D01*
X133983471Y-88370258D01*
X134017353Y-88404140D01*
X134017357Y-88404143D01*
X134148460Y-88491744D01*
X134148473Y-88491751D01*
X134238433Y-88529013D01*
X134294149Y-88552091D01*
X134447145Y-88582524D01*
X134448799Y-88582853D01*
X134448802Y-88582854D01*
X134448804Y-88582854D01*
X134606490Y-88582854D01*
X134606491Y-88582853D01*
X134761143Y-88552091D01*
X134906825Y-88491748D01*
X135037935Y-88404143D01*
X135149435Y-88292643D01*
X135237040Y-88161533D01*
X135297383Y-88015851D01*
X135328146Y-87861196D01*
X135328146Y-87703512D01*
X135328146Y-87703509D01*
X135328145Y-87703507D01*
X135311890Y-87621789D01*
X135297383Y-87548857D01*
X135281408Y-87510289D01*
X135237043Y-87403181D01*
X135237036Y-87403168D01*
X135149435Y-87272065D01*
X135149432Y-87272061D01*
X135037938Y-87160567D01*
X135037934Y-87160564D01*
X134906831Y-87072963D01*
X134906818Y-87072956D01*
X134802210Y-87029627D01*
X134761147Y-87012618D01*
X134761135Y-87012615D01*
X134606491Y-86981854D01*
X134606488Y-86981854D01*
X134448804Y-86981854D01*
X134448801Y-86981854D01*
X134294156Y-87012615D01*
X134294144Y-87012618D01*
X134148473Y-87072956D01*
X134148460Y-87072963D01*
X134017357Y-87160564D01*
X134017353Y-87160567D01*
X133905859Y-87272061D01*
X133905856Y-87272065D01*
X133818255Y-87403168D01*
X133818248Y-87403181D01*
X133757910Y-87548852D01*
X133757907Y-87548864D01*
X133727146Y-87703507D01*
X133727146Y-87853124D01*
X133707461Y-87920163D01*
X133654657Y-87965918D01*
X133585499Y-87975862D01*
X133521943Y-87946837D01*
X133515465Y-87940805D01*
X133481582Y-87906922D01*
X133481578Y-87906919D01*
X133350475Y-87819318D01*
X133350462Y-87819311D01*
X133204791Y-87758973D01*
X133204779Y-87758970D01*
X133050135Y-87728209D01*
X133050132Y-87728209D01*
X132892448Y-87728209D01*
X132892445Y-87728209D01*
X132737800Y-87758970D01*
X132737788Y-87758973D01*
X132592117Y-87819311D01*
X132592104Y-87819318D01*
X132461001Y-87906919D01*
X132460997Y-87906922D01*
X132349503Y-88018416D01*
X132349500Y-88018420D01*
X132261899Y-88149523D01*
X132261892Y-88149536D01*
X132201554Y-88295207D01*
X132201551Y-88295219D01*
X132170790Y-88449862D01*
X126081941Y-88449862D01*
X126010292Y-88378213D01*
X126010288Y-88378210D01*
X125879185Y-88290609D01*
X125879172Y-88290602D01*
X125733501Y-88230264D01*
X125733489Y-88230261D01*
X125578845Y-88199500D01*
X125578842Y-88199500D01*
X125421158Y-88199500D01*
X125421155Y-88199500D01*
X125266510Y-88230261D01*
X125266498Y-88230264D01*
X125120827Y-88290602D01*
X125120814Y-88290609D01*
X124989711Y-88378210D01*
X124989707Y-88378213D01*
X124878213Y-88489707D01*
X124851950Y-88529013D01*
X124798337Y-88573817D01*
X124729012Y-88582524D01*
X124665985Y-88552369D01*
X124629266Y-88492926D01*
X124627231Y-88484312D01*
X124614738Y-88421510D01*
X124614737Y-88421503D01*
X124602061Y-88390900D01*
X124554397Y-88275827D01*
X124554390Y-88275814D01*
X124466789Y-88144711D01*
X124466786Y-88144707D01*
X124355292Y-88033213D01*
X124355288Y-88033210D01*
X124224185Y-87945609D01*
X124224172Y-87945602D01*
X124078501Y-87885264D01*
X124078489Y-87885261D01*
X123923845Y-87854500D01*
X123923842Y-87854500D01*
X123766158Y-87854500D01*
X123766155Y-87854500D01*
X123611510Y-87885261D01*
X123611498Y-87885264D01*
X123465827Y-87945602D01*
X123465814Y-87945609D01*
X123334711Y-88033210D01*
X123334707Y-88033213D01*
X123223213Y-88144707D01*
X123223210Y-88144711D01*
X123135609Y-88275814D01*
X123135602Y-88275827D01*
X123075264Y-88421498D01*
X123075261Y-88421510D01*
X123044500Y-88576153D01*
X120055925Y-88576153D01*
X120121789Y-88510289D01*
X120209394Y-88379179D01*
X120269737Y-88233497D01*
X120300500Y-88078842D01*
X120300500Y-87921158D01*
X120300500Y-87921155D01*
X120300499Y-87921153D01*
X120293360Y-87885263D01*
X120269737Y-87766503D01*
X120246080Y-87709390D01*
X120209397Y-87620827D01*
X120209390Y-87620814D01*
X120121789Y-87489711D01*
X120121786Y-87489707D01*
X120010292Y-87378213D01*
X120010288Y-87378210D01*
X119879185Y-87290609D01*
X119879172Y-87290602D01*
X119733501Y-87230264D01*
X119733489Y-87230261D01*
X119578845Y-87199500D01*
X119578842Y-87199500D01*
X119421158Y-87199500D01*
X119421155Y-87199500D01*
X119266510Y-87230261D01*
X119266498Y-87230264D01*
X119120827Y-87290602D01*
X119120814Y-87290609D01*
X118989711Y-87378210D01*
X118989707Y-87378213D01*
X118878213Y-87489707D01*
X118878210Y-87489711D01*
X118790609Y-87620814D01*
X118790602Y-87620827D01*
X118730264Y-87766498D01*
X118730261Y-87766510D01*
X118699500Y-87921153D01*
X113820146Y-87921153D01*
X113733501Y-87885264D01*
X113733489Y-87885261D01*
X113578845Y-87854500D01*
X113578842Y-87854500D01*
X113421158Y-87854500D01*
X113421155Y-87854500D01*
X113266510Y-87885261D01*
X113266498Y-87885264D01*
X113120827Y-87945602D01*
X113120814Y-87945609D01*
X112989711Y-88033210D01*
X112989707Y-88033213D01*
X112878213Y-88144707D01*
X112878210Y-88144711D01*
X112790609Y-88275814D01*
X112790602Y-88275827D01*
X112730264Y-88421498D01*
X112730261Y-88421510D01*
X112699500Y-88576153D01*
X100500500Y-88576153D01*
X100500500Y-87421153D01*
X111199500Y-87421153D01*
X111199500Y-87578846D01*
X111230261Y-87733489D01*
X111230264Y-87733501D01*
X111290602Y-87879172D01*
X111290609Y-87879185D01*
X111378210Y-88010288D01*
X111378213Y-88010292D01*
X111489707Y-88121786D01*
X111489711Y-88121789D01*
X111620814Y-88209390D01*
X111620827Y-88209397D01*
X111766498Y-88269735D01*
X111766503Y-88269737D01*
X111894574Y-88295212D01*
X111921153Y-88300499D01*
X111921156Y-88300500D01*
X111921158Y-88300500D01*
X112078844Y-88300500D01*
X112078845Y-88300499D01*
X112233497Y-88269737D01*
X112379179Y-88209394D01*
X112510289Y-88121789D01*
X112621789Y-88010289D01*
X112709394Y-87879179D01*
X112769737Y-87733497D01*
X112800500Y-87578842D01*
X112800500Y-87421158D01*
X112800500Y-87421155D01*
X112800499Y-87421153D01*
X112796923Y-87403175D01*
X112769737Y-87266503D01*
X112756062Y-87233489D01*
X112709397Y-87120827D01*
X112709390Y-87120814D01*
X112621789Y-86989711D01*
X112621786Y-86989707D01*
X112510292Y-86878213D01*
X112510288Y-86878210D01*
X112379185Y-86790609D01*
X112379172Y-86790602D01*
X112233501Y-86730264D01*
X112233489Y-86730261D01*
X112078845Y-86699500D01*
X112078842Y-86699500D01*
X111921158Y-86699500D01*
X111921155Y-86699500D01*
X111766510Y-86730261D01*
X111766498Y-86730264D01*
X111620827Y-86790602D01*
X111620814Y-86790609D01*
X111489711Y-86878210D01*
X111489707Y-86878213D01*
X111378213Y-86989707D01*
X111378210Y-86989711D01*
X111290609Y-87120814D01*
X111290602Y-87120827D01*
X111230264Y-87266498D01*
X111230261Y-87266510D01*
X111199500Y-87421153D01*
X100500500Y-87421153D01*
X100500500Y-86421153D01*
X116199500Y-86421153D01*
X116199500Y-86578846D01*
X116230261Y-86733489D01*
X116230264Y-86733501D01*
X116290602Y-86879172D01*
X116290609Y-86879185D01*
X116378210Y-87010288D01*
X116378213Y-87010292D01*
X116489707Y-87121786D01*
X116489711Y-87121789D01*
X116620814Y-87209390D01*
X116620827Y-87209397D01*
X116758683Y-87266498D01*
X116766503Y-87269737D01*
X116921153Y-87300499D01*
X116921156Y-87300500D01*
X116921158Y-87300500D01*
X117078844Y-87300500D01*
X117078845Y-87300499D01*
X117233497Y-87269737D01*
X117379179Y-87209394D01*
X117510289Y-87121789D01*
X117621789Y-87010289D01*
X117681348Y-86921153D01*
X137199500Y-86921153D01*
X137199500Y-87078846D01*
X137230261Y-87233489D01*
X137230264Y-87233501D01*
X137290602Y-87379172D01*
X137290609Y-87379185D01*
X137378210Y-87510288D01*
X137378213Y-87510292D01*
X137489707Y-87621786D01*
X137489711Y-87621789D01*
X137620814Y-87709390D01*
X137620827Y-87709397D01*
X137740516Y-87758973D01*
X137766503Y-87769737D01*
X137921153Y-87800499D01*
X137921156Y-87800500D01*
X137921158Y-87800500D01*
X138078844Y-87800500D01*
X138078845Y-87800499D01*
X138233497Y-87769737D01*
X138379179Y-87709394D01*
X138510289Y-87621789D01*
X138621789Y-87510289D01*
X138709394Y-87379179D01*
X138769737Y-87233497D01*
X138800500Y-87078842D01*
X138800500Y-86921158D01*
X138800500Y-86921155D01*
X138800499Y-86921153D01*
X138774531Y-86790606D01*
X138769737Y-86766503D01*
X138756062Y-86733489D01*
X138709397Y-86620827D01*
X138709390Y-86620814D01*
X138621789Y-86489711D01*
X138621786Y-86489707D01*
X138510292Y-86378213D01*
X138510288Y-86378210D01*
X138379185Y-86290609D01*
X138379172Y-86290602D01*
X138233501Y-86230264D01*
X138233489Y-86230261D01*
X138078845Y-86199500D01*
X138078842Y-86199500D01*
X137921158Y-86199500D01*
X137921155Y-86199500D01*
X137766510Y-86230261D01*
X137766498Y-86230264D01*
X137620827Y-86290602D01*
X137620814Y-86290609D01*
X137489711Y-86378210D01*
X137489707Y-86378213D01*
X137378213Y-86489707D01*
X137378210Y-86489711D01*
X137290609Y-86620814D01*
X137290602Y-86620827D01*
X137230264Y-86766498D01*
X137230261Y-86766510D01*
X137199500Y-86921153D01*
X117681348Y-86921153D01*
X117709394Y-86879179D01*
X117769737Y-86733497D01*
X117800500Y-86578842D01*
X117800500Y-86421158D01*
X117800500Y-86421155D01*
X117800499Y-86421153D01*
X117774531Y-86290606D01*
X117769737Y-86266503D01*
X117765607Y-86256533D01*
X117709397Y-86120827D01*
X117709390Y-86120814D01*
X117621789Y-85989711D01*
X117621786Y-85989707D01*
X117510292Y-85878213D01*
X117510288Y-85878210D01*
X117391005Y-85798507D01*
X135076854Y-85798507D01*
X135076854Y-85956200D01*
X135107615Y-86110843D01*
X135107618Y-86110855D01*
X135167956Y-86256526D01*
X135167963Y-86256539D01*
X135255564Y-86387642D01*
X135255567Y-86387646D01*
X135367061Y-86499140D01*
X135367065Y-86499143D01*
X135498168Y-86586744D01*
X135498181Y-86586751D01*
X135643852Y-86647089D01*
X135643857Y-86647091D01*
X135798507Y-86677853D01*
X135798510Y-86677854D01*
X135798512Y-86677854D01*
X135956198Y-86677854D01*
X135956199Y-86677853D01*
X136110851Y-86647091D01*
X136256533Y-86586748D01*
X136387643Y-86499143D01*
X136499143Y-86387643D01*
X136586748Y-86256533D01*
X136647091Y-86110851D01*
X136677854Y-85956196D01*
X136677854Y-85798512D01*
X136677854Y-85798509D01*
X136677853Y-85798507D01*
X136676281Y-85790602D01*
X136647091Y-85643857D01*
X136587148Y-85499140D01*
X136586751Y-85498181D01*
X136586744Y-85498168D01*
X136499143Y-85367065D01*
X136499140Y-85367061D01*
X136387646Y-85255567D01*
X136387642Y-85255564D01*
X136256539Y-85167963D01*
X136256526Y-85167956D01*
X136110855Y-85107618D01*
X136110843Y-85107615D01*
X135956199Y-85076854D01*
X135956196Y-85076854D01*
X135798512Y-85076854D01*
X135798509Y-85076854D01*
X135643864Y-85107615D01*
X135643852Y-85107618D01*
X135498181Y-85167956D01*
X135498168Y-85167963D01*
X135367065Y-85255564D01*
X135367061Y-85255567D01*
X135255567Y-85367061D01*
X135255564Y-85367065D01*
X135167963Y-85498168D01*
X135167956Y-85498181D01*
X135107618Y-85643852D01*
X135107615Y-85643864D01*
X135076854Y-85798507D01*
X117391005Y-85798507D01*
X117379185Y-85790609D01*
X117379172Y-85790602D01*
X117233501Y-85730264D01*
X117233489Y-85730261D01*
X117078845Y-85699500D01*
X117078842Y-85699500D01*
X116921158Y-85699500D01*
X116921155Y-85699500D01*
X116766510Y-85730261D01*
X116766498Y-85730264D01*
X116620827Y-85790602D01*
X116620814Y-85790609D01*
X116489711Y-85878210D01*
X116489707Y-85878213D01*
X116378213Y-85989707D01*
X116378210Y-85989711D01*
X116290609Y-86120814D01*
X116290602Y-86120827D01*
X116230264Y-86266498D01*
X116230261Y-86266510D01*
X116199500Y-86421153D01*
X100500500Y-86421153D01*
X100500500Y-84798507D01*
X102322146Y-84798507D01*
X102322146Y-84956200D01*
X102352907Y-85110843D01*
X102352910Y-85110855D01*
X102413248Y-85256526D01*
X102413255Y-85256539D01*
X102500856Y-85387642D01*
X102500859Y-85387646D01*
X102612353Y-85499140D01*
X102612357Y-85499143D01*
X102743460Y-85586744D01*
X102743473Y-85586751D01*
X102881329Y-85643852D01*
X102889149Y-85647091D01*
X103043799Y-85677853D01*
X103043802Y-85677854D01*
X103043804Y-85677854D01*
X103201490Y-85677854D01*
X103201491Y-85677853D01*
X103356143Y-85647091D01*
X103501825Y-85586748D01*
X103632935Y-85499143D01*
X103744435Y-85387643D01*
X103832040Y-85256533D01*
X103892383Y-85110851D01*
X103892384Y-85110843D01*
X103894152Y-85105019D01*
X103895871Y-85105540D01*
X103924316Y-85051134D01*
X103985024Y-85016547D01*
X104054794Y-85020271D01*
X104082458Y-85034115D01*
X104106979Y-85050499D01*
X104120821Y-85059748D01*
X104120823Y-85059749D01*
X104120827Y-85059751D01*
X104236390Y-85107618D01*
X104266503Y-85120091D01*
X104421153Y-85150853D01*
X104421156Y-85150854D01*
X104421158Y-85150854D01*
X104578844Y-85150854D01*
X104578845Y-85150853D01*
X104733497Y-85120091D01*
X104879179Y-85059748D01*
X105010289Y-84972143D01*
X105121789Y-84860643D01*
X105209394Y-84729533D01*
X105269737Y-84583851D01*
X105300500Y-84429196D01*
X105300500Y-84271512D01*
X105300500Y-84271508D01*
X105270897Y-84122689D01*
X105269737Y-84116857D01*
X105253387Y-84077385D01*
X105209397Y-83971181D01*
X105209390Y-83971168D01*
X105121789Y-83840065D01*
X105121786Y-83840061D01*
X105010292Y-83728567D01*
X105010288Y-83728564D01*
X104879185Y-83640963D01*
X104879172Y-83640956D01*
X104733501Y-83580618D01*
X104733489Y-83580615D01*
X104578845Y-83549854D01*
X104578842Y-83549854D01*
X104421158Y-83549854D01*
X104421155Y-83549854D01*
X104266510Y-83580615D01*
X104266498Y-83580618D01*
X104120827Y-83640956D01*
X104120814Y-83640963D01*
X103989711Y-83728564D01*
X103989707Y-83728567D01*
X103878213Y-83840061D01*
X103878210Y-83840065D01*
X103790609Y-83971168D01*
X103790602Y-83971181D01*
X103730264Y-84116852D01*
X103728494Y-84122689D01*
X103726780Y-84122169D01*
X103698303Y-84176600D01*
X103637584Y-84211169D01*
X103567815Y-84207423D01*
X103540187Y-84193592D01*
X103501831Y-84167963D01*
X103501818Y-84167956D01*
X103356147Y-84107618D01*
X103356135Y-84107615D01*
X103201491Y-84076854D01*
X103201488Y-84076854D01*
X103043804Y-84076854D01*
X103043801Y-84076854D01*
X102889156Y-84107615D01*
X102889144Y-84107618D01*
X102743473Y-84167956D01*
X102743460Y-84167963D01*
X102612357Y-84255564D01*
X102612353Y-84255567D01*
X102500859Y-84367061D01*
X102500856Y-84367065D01*
X102413255Y-84498168D01*
X102413248Y-84498181D01*
X102352910Y-84643852D01*
X102352907Y-84643864D01*
X102322146Y-84798507D01*
X100500500Y-84798507D01*
X100500500Y-83421153D01*
X109199500Y-83421153D01*
X109199500Y-83578846D01*
X109230261Y-83733489D01*
X109230264Y-83733501D01*
X109290602Y-83879172D01*
X109290609Y-83879185D01*
X109378210Y-84010288D01*
X109378213Y-84010292D01*
X109489707Y-84121786D01*
X109489711Y-84121789D01*
X109620814Y-84209390D01*
X109620827Y-84209397D01*
X109732293Y-84255567D01*
X109766503Y-84269737D01*
X109921153Y-84300499D01*
X109921156Y-84300500D01*
X109921158Y-84300500D01*
X110078844Y-84300500D01*
X110078845Y-84300499D01*
X110233497Y-84269737D01*
X110379179Y-84209394D01*
X110436411Y-84171153D01*
X120449500Y-84171153D01*
X120449500Y-84328846D01*
X120480261Y-84483489D01*
X120480264Y-84483501D01*
X120540602Y-84629172D01*
X120540609Y-84629185D01*
X120628210Y-84760288D01*
X120628213Y-84760292D01*
X120739707Y-84871786D01*
X120739711Y-84871789D01*
X120870814Y-84959390D01*
X120870827Y-84959397D01*
X121016498Y-85019735D01*
X121016503Y-85019737D01*
X121171153Y-85050499D01*
X121171156Y-85050500D01*
X121171158Y-85050500D01*
X121328844Y-85050500D01*
X121328845Y-85050499D01*
X121483497Y-85019737D01*
X121629179Y-84959394D01*
X121760289Y-84871789D01*
X121871789Y-84760289D01*
X121959394Y-84629179D01*
X122019737Y-84483497D01*
X122050500Y-84328842D01*
X122050500Y-84171158D01*
X122050500Y-84171155D01*
X122050499Y-84171153D01*
X122031847Y-84077385D01*
X122019737Y-84016503D01*
X122000959Y-83971168D01*
X121959397Y-83870827D01*
X121959390Y-83870814D01*
X121871789Y-83739711D01*
X121871786Y-83739707D01*
X121760292Y-83628213D01*
X121760288Y-83628210D01*
X121629185Y-83540609D01*
X121629172Y-83540602D01*
X121483501Y-83480264D01*
X121483489Y-83480261D01*
X121328845Y-83449500D01*
X121328842Y-83449500D01*
X121171158Y-83449500D01*
X121171155Y-83449500D01*
X121016510Y-83480261D01*
X121016498Y-83480264D01*
X120870827Y-83540602D01*
X120870814Y-83540609D01*
X120739711Y-83628210D01*
X120739707Y-83628213D01*
X120628213Y-83739707D01*
X120628210Y-83739711D01*
X120540609Y-83870814D01*
X120540602Y-83870827D01*
X120480264Y-84016498D01*
X120480261Y-84016510D01*
X120449500Y-84171153D01*
X110436411Y-84171153D01*
X110510289Y-84121789D01*
X110524463Y-84107615D01*
X110554694Y-84077385D01*
X110621786Y-84010292D01*
X110621789Y-84010289D01*
X110709394Y-83879179D01*
X110712854Y-83870827D01*
X110741984Y-83800499D01*
X110769737Y-83733497D01*
X110800500Y-83578842D01*
X110800500Y-83421158D01*
X110800500Y-83421155D01*
X110800499Y-83421153D01*
X110769738Y-83266510D01*
X110769737Y-83266503D01*
X110746080Y-83209390D01*
X110709397Y-83120827D01*
X110709390Y-83120814D01*
X110621789Y-82989711D01*
X110621786Y-82989707D01*
X110510292Y-82878213D01*
X110510288Y-82878210D01*
X110379185Y-82790609D01*
X110379172Y-82790602D01*
X110233501Y-82730264D01*
X110233489Y-82730261D01*
X110078845Y-82699500D01*
X110078842Y-82699500D01*
X109921158Y-82699500D01*
X109921155Y-82699500D01*
X109766510Y-82730261D01*
X109766498Y-82730264D01*
X109620827Y-82790602D01*
X109620814Y-82790609D01*
X109489711Y-82878210D01*
X109489707Y-82878213D01*
X109378213Y-82989707D01*
X109378210Y-82989711D01*
X109290609Y-83120814D01*
X109290602Y-83120827D01*
X109230264Y-83266498D01*
X109230261Y-83266510D01*
X109199500Y-83421153D01*
X100500500Y-83421153D01*
X100500500Y-82421153D01*
X105699500Y-82421153D01*
X105699500Y-82578846D01*
X105730261Y-82733489D01*
X105730264Y-82733501D01*
X105790602Y-82879172D01*
X105790609Y-82879185D01*
X105878210Y-83010288D01*
X105878213Y-83010292D01*
X105989707Y-83121786D01*
X105989711Y-83121789D01*
X106120814Y-83209390D01*
X106120827Y-83209397D01*
X106258683Y-83266498D01*
X106266503Y-83269737D01*
X106421153Y-83300499D01*
X106421156Y-83300500D01*
X106421158Y-83300500D01*
X106578844Y-83300500D01*
X106578845Y-83300499D01*
X106733497Y-83269737D01*
X106879179Y-83209394D01*
X106931110Y-83174694D01*
X106997785Y-83153816D01*
X107065165Y-83172300D01*
X107068863Y-83174676D01*
X107120821Y-83209394D01*
X107120823Y-83209395D01*
X107120825Y-83209396D01*
X107258683Y-83266498D01*
X107266503Y-83269737D01*
X107421153Y-83300499D01*
X107421156Y-83300500D01*
X107421158Y-83300500D01*
X107578844Y-83300500D01*
X107578845Y-83300499D01*
X107589179Y-83298443D01*
X107614287Y-83293450D01*
X107614292Y-83293449D01*
X107699800Y-83276439D01*
X107733497Y-83269737D01*
X107879179Y-83209394D01*
X108010289Y-83121789D01*
X108121789Y-83010289D01*
X108209394Y-82879179D01*
X108269737Y-82733497D01*
X108300500Y-82578842D01*
X108300500Y-82421158D01*
X108300500Y-82421155D01*
X108300499Y-82421153D01*
X108276499Y-82300499D01*
X108269737Y-82266503D01*
X108256062Y-82233489D01*
X108209397Y-82120827D01*
X108209390Y-82120814D01*
X108121789Y-81989711D01*
X108121786Y-81989707D01*
X108010292Y-81878213D01*
X108010288Y-81878210D01*
X107879185Y-81790609D01*
X107879172Y-81790602D01*
X107733501Y-81730264D01*
X107733489Y-81730261D01*
X107578845Y-81699500D01*
X107578842Y-81699500D01*
X107421158Y-81699500D01*
X107421155Y-81699500D01*
X107266510Y-81730261D01*
X107266498Y-81730264D01*
X107120827Y-81790602D01*
X107120814Y-81790609D01*
X107068891Y-81825304D01*
X107002214Y-81846182D01*
X106934833Y-81827698D01*
X106931109Y-81825304D01*
X106879185Y-81790609D01*
X106879172Y-81790602D01*
X106733501Y-81730264D01*
X106733489Y-81730261D01*
X106578845Y-81699500D01*
X106578842Y-81699500D01*
X106421158Y-81699500D01*
X106421155Y-81699500D01*
X106266510Y-81730261D01*
X106266498Y-81730264D01*
X106120827Y-81790602D01*
X106120814Y-81790609D01*
X105989711Y-81878210D01*
X105989707Y-81878213D01*
X105878213Y-81989707D01*
X105878210Y-81989711D01*
X105790609Y-82120814D01*
X105790602Y-82120827D01*
X105730264Y-82266498D01*
X105730261Y-82266510D01*
X105699500Y-82421153D01*
X100500500Y-82421153D01*
X100500500Y-81421153D01*
X119199500Y-81421153D01*
X119199500Y-81578846D01*
X119230261Y-81733489D01*
X119230264Y-81733501D01*
X119290602Y-81879172D01*
X119290609Y-81879185D01*
X119378210Y-82010288D01*
X119378213Y-82010292D01*
X119489707Y-82121786D01*
X119489711Y-82121789D01*
X119620814Y-82209390D01*
X119620827Y-82209397D01*
X119718853Y-82250000D01*
X119766503Y-82269737D01*
X119921153Y-82300499D01*
X119921156Y-82300500D01*
X119921158Y-82300500D01*
X120078844Y-82300500D01*
X120078845Y-82300499D01*
X120233497Y-82269737D01*
X120346166Y-82223067D01*
X120379172Y-82209397D01*
X120379172Y-82209396D01*
X120379179Y-82209394D01*
X120510289Y-82121789D01*
X120621789Y-82010289D01*
X120709394Y-81879179D01*
X120769737Y-81733497D01*
X120800500Y-81578842D01*
X120800500Y-81421158D01*
X120800500Y-81421155D01*
X120800499Y-81421153D01*
X120774531Y-81290606D01*
X120769737Y-81266503D01*
X120760819Y-81244973D01*
X120709397Y-81120827D01*
X120709390Y-81120814D01*
X120621789Y-80989711D01*
X120621786Y-80989707D01*
X120510292Y-80878213D01*
X120510288Y-80878210D01*
X120379185Y-80790609D01*
X120379172Y-80790602D01*
X120233501Y-80730264D01*
X120233489Y-80730261D01*
X120078845Y-80699500D01*
X120078842Y-80699500D01*
X119921158Y-80699500D01*
X119921155Y-80699500D01*
X119766510Y-80730261D01*
X119766498Y-80730264D01*
X119620827Y-80790602D01*
X119620814Y-80790609D01*
X119489711Y-80878210D01*
X119489707Y-80878213D01*
X119378213Y-80989707D01*
X119378210Y-80989711D01*
X119290609Y-81120814D01*
X119290602Y-81120827D01*
X119230264Y-81266498D01*
X119230261Y-81266510D01*
X119199500Y-81421153D01*
X100500500Y-81421153D01*
X100500500Y-79511153D01*
X122049500Y-79511153D01*
X122049500Y-79668846D01*
X122080261Y-79823489D01*
X122080264Y-79823501D01*
X122140602Y-79969172D01*
X122140609Y-79969185D01*
X122228210Y-80100288D01*
X122228213Y-80100292D01*
X122330240Y-80202319D01*
X122363725Y-80263642D01*
X122358741Y-80333334D01*
X122330240Y-80377681D01*
X122228213Y-80479707D01*
X122228210Y-80479711D01*
X122140609Y-80610814D01*
X122140602Y-80610827D01*
X122080264Y-80756498D01*
X122080261Y-80756510D01*
X122049500Y-80911153D01*
X122049500Y-81068846D01*
X122080261Y-81223489D01*
X122080264Y-81223501D01*
X122140602Y-81369172D01*
X122140609Y-81369185D01*
X122228210Y-81500288D01*
X122228213Y-81500292D01*
X122339707Y-81611786D01*
X122339711Y-81611789D01*
X122470814Y-81699390D01*
X122470827Y-81699397D01*
X122553163Y-81733501D01*
X122616503Y-81759737D01*
X122671831Y-81770742D01*
X122733740Y-81803126D01*
X122768315Y-81863841D01*
X122769256Y-81868166D01*
X122780261Y-81923492D01*
X122780264Y-81923501D01*
X122840602Y-82069172D01*
X122840609Y-82069185D01*
X122928210Y-82200288D01*
X122928213Y-82200292D01*
X123039707Y-82311786D01*
X123039711Y-82311789D01*
X123170814Y-82399390D01*
X123170827Y-82399397D01*
X123316498Y-82459735D01*
X123316503Y-82459737D01*
X123471153Y-82490499D01*
X123471156Y-82490500D01*
X123471158Y-82490500D01*
X123628844Y-82490500D01*
X123628845Y-82490499D01*
X123783497Y-82459737D01*
X123929179Y-82399394D01*
X124060289Y-82311789D01*
X124105580Y-82266498D01*
X124162319Y-82209760D01*
X124223642Y-82176275D01*
X124293334Y-82181259D01*
X124337681Y-82209760D01*
X124439707Y-82311786D01*
X124439711Y-82311789D01*
X124570814Y-82399390D01*
X124570827Y-82399397D01*
X124716498Y-82459735D01*
X124716503Y-82459737D01*
X124871153Y-82490499D01*
X124871156Y-82490500D01*
X124871158Y-82490500D01*
X125028844Y-82490500D01*
X125028845Y-82490499D01*
X125183497Y-82459737D01*
X125329179Y-82399394D01*
X125460289Y-82311789D01*
X125571789Y-82200289D01*
X125659394Y-82069179D01*
X125719737Y-81923497D01*
X125730743Y-81868166D01*
X125763125Y-81806258D01*
X125823841Y-81771683D01*
X125828118Y-81770752D01*
X125883497Y-81759737D01*
X126029179Y-81699394D01*
X126160289Y-81611789D01*
X126271789Y-81500289D01*
X126359394Y-81369179D01*
X126388667Y-81298507D01*
X127076854Y-81298507D01*
X127076854Y-81456200D01*
X127107615Y-81610843D01*
X127107618Y-81610855D01*
X127167956Y-81756526D01*
X127167963Y-81756539D01*
X127255564Y-81887642D01*
X127255567Y-81887646D01*
X127367061Y-81999140D01*
X127367065Y-81999143D01*
X127498168Y-82086744D01*
X127498181Y-82086751D01*
X127582779Y-82121792D01*
X127643857Y-82147091D01*
X127790574Y-82176275D01*
X127798507Y-82177853D01*
X127798510Y-82177854D01*
X127798512Y-82177854D01*
X127956198Y-82177854D01*
X127956199Y-82177853D01*
X128110851Y-82147091D01*
X128256533Y-82086748D01*
X128387643Y-81999143D01*
X128465633Y-81921153D01*
X132199500Y-81921153D01*
X132199500Y-82078846D01*
X132230261Y-82233489D01*
X132230264Y-82233501D01*
X132290602Y-82379172D01*
X132290609Y-82379185D01*
X132378210Y-82510288D01*
X132378213Y-82510292D01*
X132489707Y-82621786D01*
X132489711Y-82621789D01*
X132620814Y-82709390D01*
X132620827Y-82709397D01*
X132758683Y-82766498D01*
X132766503Y-82769737D01*
X132921153Y-82800499D01*
X132921156Y-82800500D01*
X132921158Y-82800500D01*
X133078844Y-82800500D01*
X133078845Y-82800499D01*
X133233497Y-82769737D01*
X133379179Y-82709394D01*
X133510289Y-82621789D01*
X133621789Y-82510289D01*
X133709394Y-82379179D01*
X133769737Y-82233497D01*
X133800500Y-82078842D01*
X133800500Y-81921158D01*
X133800500Y-81921155D01*
X133800499Y-81921153D01*
X133785586Y-81846182D01*
X133769737Y-81766503D01*
X133769735Y-81766498D01*
X133709397Y-81620827D01*
X133709390Y-81620814D01*
X133621790Y-81489712D01*
X133621784Y-81489705D01*
X133553232Y-81421153D01*
X134817500Y-81421153D01*
X134817500Y-81578846D01*
X134848261Y-81733489D01*
X134848264Y-81733501D01*
X134908602Y-81879172D01*
X134908609Y-81879185D01*
X134996210Y-82010288D01*
X134996213Y-82010292D01*
X135107707Y-82121786D01*
X135107710Y-82121788D01*
X135107711Y-82121789D01*
X135133219Y-82138833D01*
X135145289Y-82146898D01*
X135190093Y-82200511D01*
X135198800Y-82269836D01*
X135168645Y-82332863D01*
X135145289Y-82353102D01*
X135107707Y-82378213D01*
X134996213Y-82489707D01*
X134996210Y-82489711D01*
X134908609Y-82620814D01*
X134908602Y-82620827D01*
X134848264Y-82766498D01*
X134848261Y-82766510D01*
X134817500Y-82921153D01*
X134817500Y-83078846D01*
X134848261Y-83233489D01*
X134848264Y-83233501D01*
X134908602Y-83379172D01*
X134908609Y-83379185D01*
X134996210Y-83510288D01*
X134996213Y-83510292D01*
X135107707Y-83621786D01*
X135107711Y-83621789D01*
X135238814Y-83709390D01*
X135238827Y-83709397D01*
X135312013Y-83739711D01*
X135384503Y-83769737D01*
X135539153Y-83800499D01*
X135539156Y-83800500D01*
X135539158Y-83800500D01*
X135696844Y-83800500D01*
X135696845Y-83800499D01*
X135851497Y-83769737D01*
X135997179Y-83709394D01*
X136128289Y-83621789D01*
X136239789Y-83510289D01*
X136327394Y-83379179D01*
X136387737Y-83233497D01*
X136418500Y-83078842D01*
X136418500Y-82921158D01*
X136418500Y-82921155D01*
X136418499Y-82921153D01*
X136392531Y-82790606D01*
X136387737Y-82766503D01*
X136374062Y-82733489D01*
X136327397Y-82620827D01*
X136327390Y-82620814D01*
X136239789Y-82489711D01*
X136239786Y-82489707D01*
X136128292Y-82378213D01*
X136128284Y-82378207D01*
X136090712Y-82353102D01*
X136045906Y-82299490D01*
X136037199Y-82230165D01*
X136067353Y-82167138D01*
X136090712Y-82146898D01*
X136117279Y-82129145D01*
X136128289Y-82121789D01*
X136239789Y-82010289D01*
X136327394Y-81879179D01*
X136387737Y-81733497D01*
X136418500Y-81578842D01*
X136418500Y-81421158D01*
X136418500Y-81421155D01*
X136418499Y-81421153D01*
X136392531Y-81290606D01*
X136387737Y-81266503D01*
X136378819Y-81244973D01*
X136327397Y-81120827D01*
X136327390Y-81120814D01*
X136239789Y-80989711D01*
X136239786Y-80989707D01*
X136128292Y-80878213D01*
X136128288Y-80878210D01*
X135997185Y-80790609D01*
X135997172Y-80790602D01*
X135851501Y-80730264D01*
X135851489Y-80730261D01*
X135696845Y-80699500D01*
X135696842Y-80699500D01*
X135539158Y-80699500D01*
X135539155Y-80699500D01*
X135384510Y-80730261D01*
X135384498Y-80730264D01*
X135238827Y-80790602D01*
X135238814Y-80790609D01*
X135107711Y-80878210D01*
X135107707Y-80878213D01*
X134996213Y-80989707D01*
X134996210Y-80989711D01*
X134908609Y-81120814D01*
X134908602Y-81120827D01*
X134848264Y-81266498D01*
X134848261Y-81266510D01*
X134817500Y-81421153D01*
X133553232Y-81421153D01*
X133510292Y-81378213D01*
X133510288Y-81378210D01*
X133379185Y-81290609D01*
X133379172Y-81290602D01*
X133233501Y-81230264D01*
X133233489Y-81230261D01*
X133078845Y-81199500D01*
X133078842Y-81199500D01*
X132921158Y-81199500D01*
X132921155Y-81199500D01*
X132766510Y-81230261D01*
X132766498Y-81230264D01*
X132620827Y-81290602D01*
X132620814Y-81290609D01*
X132489711Y-81378210D01*
X132489707Y-81378213D01*
X132378213Y-81489707D01*
X132378210Y-81489711D01*
X132290609Y-81620814D01*
X132290602Y-81620827D01*
X132230264Y-81766498D01*
X132230261Y-81766510D01*
X132199500Y-81921153D01*
X128465633Y-81921153D01*
X128499143Y-81887643D01*
X128520959Y-81854992D01*
X128526852Y-81846174D01*
X128526853Y-81846172D01*
X128555616Y-81803126D01*
X128586748Y-81756533D01*
X128647091Y-81610851D01*
X128677854Y-81456196D01*
X128677854Y-81298512D01*
X128677854Y-81298509D01*
X128677853Y-81298507D01*
X128667204Y-81244973D01*
X128647091Y-81143857D01*
X128616019Y-81068842D01*
X128586751Y-80998181D01*
X128586744Y-80998168D01*
X128499143Y-80867065D01*
X128499140Y-80867061D01*
X128387646Y-80755567D01*
X128387642Y-80755564D01*
X128256539Y-80667963D01*
X128256526Y-80667956D01*
X128110855Y-80607618D01*
X128110843Y-80607615D01*
X127956199Y-80576854D01*
X127956196Y-80576854D01*
X127798512Y-80576854D01*
X127798509Y-80576854D01*
X127643864Y-80607615D01*
X127643852Y-80607618D01*
X127498181Y-80667956D01*
X127498168Y-80667963D01*
X127367065Y-80755564D01*
X127367061Y-80755567D01*
X127255567Y-80867061D01*
X127255564Y-80867065D01*
X127167963Y-80998168D01*
X127167956Y-80998181D01*
X127107618Y-81143852D01*
X127107615Y-81143864D01*
X127076854Y-81298507D01*
X126388667Y-81298507D01*
X126419737Y-81223497D01*
X126450500Y-81068842D01*
X126450500Y-80911158D01*
X126450500Y-80911155D01*
X126450499Y-80911153D01*
X126441729Y-80867065D01*
X126419737Y-80756503D01*
X126419349Y-80755567D01*
X126359397Y-80610827D01*
X126359390Y-80610814D01*
X126271789Y-80479711D01*
X126271786Y-80479707D01*
X126169760Y-80377681D01*
X126136275Y-80316358D01*
X126141259Y-80246666D01*
X126169760Y-80202319D01*
X126271786Y-80100292D01*
X126271789Y-80100289D01*
X126359394Y-79969179D01*
X126419737Y-79823497D01*
X126450500Y-79668842D01*
X126450500Y-79511158D01*
X126450500Y-79511155D01*
X126450499Y-79511153D01*
X126436199Y-79439257D01*
X126432598Y-79421153D01*
X131509500Y-79421153D01*
X131509500Y-79578846D01*
X131540261Y-79733489D01*
X131540264Y-79733501D01*
X131600602Y-79879172D01*
X131600609Y-79879185D01*
X131688210Y-80010288D01*
X131688213Y-80010292D01*
X131799707Y-80121786D01*
X131799711Y-80121789D01*
X131930814Y-80209390D01*
X131930827Y-80209397D01*
X132020804Y-80246666D01*
X132076503Y-80269737D01*
X132231153Y-80300499D01*
X132231156Y-80300500D01*
X132231158Y-80300500D01*
X132388844Y-80300500D01*
X132388845Y-80300499D01*
X132543497Y-80269737D01*
X132689179Y-80209394D01*
X132820289Y-80121789D01*
X132931789Y-80010289D01*
X133019394Y-79879179D01*
X133079737Y-79733497D01*
X133110500Y-79578842D01*
X133110500Y-79421158D01*
X133110500Y-79421155D01*
X133110499Y-79421153D01*
X133079737Y-79266503D01*
X133079735Y-79266498D01*
X133019397Y-79120827D01*
X133019390Y-79120814D01*
X132931789Y-78989711D01*
X132931786Y-78989707D01*
X132820292Y-78878213D01*
X132820288Y-78878210D01*
X132689185Y-78790609D01*
X132689172Y-78790602D01*
X132543501Y-78730264D01*
X132543489Y-78730261D01*
X132388845Y-78699500D01*
X132388842Y-78699500D01*
X132231158Y-78699500D01*
X132231155Y-78699500D01*
X132076510Y-78730261D01*
X132076498Y-78730264D01*
X131930827Y-78790602D01*
X131930814Y-78790609D01*
X131799711Y-78878210D01*
X131799707Y-78878213D01*
X131688213Y-78989707D01*
X131688210Y-78989711D01*
X131600609Y-79120814D01*
X131600602Y-79120827D01*
X131540264Y-79266498D01*
X131540261Y-79266510D01*
X131509500Y-79421153D01*
X126432598Y-79421153D01*
X126419738Y-79356508D01*
X126419737Y-79356507D01*
X126419737Y-79356503D01*
X126382456Y-79266498D01*
X126359397Y-79210827D01*
X126359390Y-79210814D01*
X126271789Y-79079711D01*
X126271786Y-79079707D01*
X126160292Y-78968213D01*
X126160288Y-78968210D01*
X126029185Y-78880609D01*
X126029172Y-78880602D01*
X125883501Y-78820264D01*
X125883492Y-78820261D01*
X125828166Y-78809256D01*
X125766256Y-78776870D01*
X125731682Y-78716154D01*
X125730750Y-78711874D01*
X125719737Y-78656503D01*
X125667230Y-78529738D01*
X125659397Y-78510827D01*
X125659390Y-78510814D01*
X125571789Y-78379711D01*
X125571786Y-78379707D01*
X125460292Y-78268213D01*
X125460288Y-78268210D01*
X125329185Y-78180609D01*
X125329172Y-78180602D01*
X125183501Y-78120264D01*
X125183489Y-78120261D01*
X125028845Y-78089500D01*
X125028842Y-78089500D01*
X124871158Y-78089500D01*
X124871155Y-78089500D01*
X124716510Y-78120261D01*
X124716498Y-78120264D01*
X124570827Y-78180602D01*
X124570814Y-78180609D01*
X124439711Y-78268210D01*
X124439707Y-78268213D01*
X124337681Y-78370240D01*
X124276358Y-78403725D01*
X124206666Y-78398741D01*
X124162319Y-78370240D01*
X124060292Y-78268213D01*
X124060288Y-78268210D01*
X123929185Y-78180609D01*
X123929172Y-78180602D01*
X123783501Y-78120264D01*
X123783489Y-78120261D01*
X123628845Y-78089500D01*
X123628842Y-78089500D01*
X123471158Y-78089500D01*
X123471155Y-78089500D01*
X123316510Y-78120261D01*
X123316498Y-78120264D01*
X123170827Y-78180602D01*
X123170814Y-78180609D01*
X123039711Y-78268210D01*
X123039707Y-78268213D01*
X122928213Y-78379707D01*
X122928210Y-78379711D01*
X122840609Y-78510814D01*
X122840602Y-78510827D01*
X122780264Y-78656498D01*
X122780262Y-78656505D01*
X122769256Y-78711833D01*
X122736870Y-78773743D01*
X122676153Y-78808316D01*
X122671833Y-78809256D01*
X122616505Y-78820262D01*
X122616498Y-78820264D01*
X122470827Y-78880602D01*
X122470814Y-78880609D01*
X122339711Y-78968210D01*
X122339707Y-78968213D01*
X122228213Y-79079707D01*
X122228210Y-79079711D01*
X122140609Y-79210814D01*
X122140602Y-79210827D01*
X122080264Y-79356498D01*
X122080261Y-79356510D01*
X122049500Y-79511153D01*
X100500500Y-79511153D01*
X100500500Y-77921153D01*
X102199500Y-77921153D01*
X102199500Y-78078846D01*
X102230261Y-78233489D01*
X102230264Y-78233501D01*
X102290602Y-78379172D01*
X102290609Y-78379185D01*
X102378210Y-78510288D01*
X102378213Y-78510292D01*
X102489707Y-78621786D01*
X102489711Y-78621789D01*
X102620814Y-78709390D01*
X102620827Y-78709397D01*
X102766498Y-78769735D01*
X102766503Y-78769737D01*
X102883921Y-78793093D01*
X102921153Y-78800499D01*
X102921156Y-78800500D01*
X102921158Y-78800500D01*
X103078844Y-78800500D01*
X103078845Y-78800499D01*
X103233497Y-78769737D01*
X103379179Y-78709394D01*
X103431110Y-78674694D01*
X103497785Y-78653816D01*
X103565165Y-78672300D01*
X103568863Y-78674676D01*
X103620821Y-78709394D01*
X103620823Y-78709395D01*
X103620825Y-78709396D01*
X103766498Y-78769735D01*
X103766503Y-78769737D01*
X103883921Y-78793093D01*
X103921153Y-78800499D01*
X103921156Y-78800500D01*
X103921158Y-78800500D01*
X104078844Y-78800500D01*
X104078845Y-78800499D01*
X104233497Y-78769737D01*
X104373291Y-78711833D01*
X104379172Y-78709397D01*
X104379172Y-78709396D01*
X104379179Y-78709394D01*
X104510289Y-78621789D01*
X104511186Y-78620891D01*
X104511773Y-78620571D01*
X104514999Y-78617924D01*
X104515500Y-78618535D01*
X104572504Y-78587402D01*
X104642196Y-78592380D01*
X104698134Y-78634246D01*
X104720491Y-78684374D01*
X104730261Y-78733491D01*
X104730264Y-78733501D01*
X104790602Y-78879172D01*
X104790609Y-78879185D01*
X104878210Y-79010288D01*
X104878213Y-79010292D01*
X104989707Y-79121786D01*
X104989711Y-79121789D01*
X105120814Y-79209390D01*
X105120827Y-79209397D01*
X105258683Y-79266498D01*
X105266503Y-79269737D01*
X105421153Y-79300499D01*
X105421156Y-79300500D01*
X105421158Y-79300500D01*
X105578844Y-79300500D01*
X105578845Y-79300499D01*
X105733497Y-79269737D01*
X105846166Y-79223067D01*
X105879172Y-79209397D01*
X105879172Y-79209396D01*
X105879179Y-79209394D01*
X106010289Y-79121789D01*
X106121789Y-79010289D01*
X106209394Y-78879179D01*
X106269737Y-78733497D01*
X106274531Y-78709396D01*
X106284296Y-78660308D01*
X106316681Y-78598397D01*
X106377397Y-78563823D01*
X106405913Y-78560500D01*
X106467244Y-78560500D01*
X106467245Y-78560499D01*
X106621897Y-78529737D01*
X106767579Y-78469394D01*
X106898689Y-78381789D01*
X107010189Y-78270289D01*
X107097794Y-78139179D01*
X107158137Y-77993497D01*
X107172527Y-77921153D01*
X112699500Y-77921153D01*
X112699500Y-78078846D01*
X112730261Y-78233489D01*
X112730264Y-78233501D01*
X112790602Y-78379172D01*
X112790609Y-78379185D01*
X112878210Y-78510288D01*
X112878213Y-78510292D01*
X112989707Y-78621786D01*
X112989711Y-78621789D01*
X113120814Y-78709390D01*
X113120827Y-78709397D01*
X113266498Y-78769735D01*
X113266503Y-78769737D01*
X113383921Y-78793093D01*
X113421153Y-78800499D01*
X113421156Y-78800500D01*
X113421158Y-78800500D01*
X113578844Y-78800500D01*
X113578845Y-78800499D01*
X113733497Y-78769737D01*
X113873291Y-78711833D01*
X113879172Y-78709397D01*
X113879172Y-78709396D01*
X113879179Y-78709394D01*
X114010289Y-78621789D01*
X114121789Y-78510289D01*
X114209394Y-78379179D01*
X114269737Y-78233497D01*
X114300500Y-78078842D01*
X114300500Y-77921158D01*
X114300500Y-77921155D01*
X114300499Y-77921153D01*
X114284127Y-77838846D01*
X114269737Y-77766503D01*
X114259882Y-77742710D01*
X114209397Y-77620827D01*
X114209390Y-77620814D01*
X114121789Y-77489711D01*
X114121786Y-77489707D01*
X114010292Y-77378213D01*
X114010288Y-77378210D01*
X113879185Y-77290609D01*
X113879172Y-77290602D01*
X113733501Y-77230264D01*
X113733489Y-77230261D01*
X113578845Y-77199500D01*
X113578842Y-77199500D01*
X113421158Y-77199500D01*
X113421155Y-77199500D01*
X113266510Y-77230261D01*
X113266498Y-77230264D01*
X113120827Y-77290602D01*
X113120814Y-77290609D01*
X112989711Y-77378210D01*
X112989707Y-77378213D01*
X112878213Y-77489707D01*
X112878210Y-77489711D01*
X112790609Y-77620814D01*
X112790602Y-77620827D01*
X112730264Y-77766498D01*
X112730261Y-77766510D01*
X112699500Y-77921153D01*
X107172527Y-77921153D01*
X107188900Y-77838842D01*
X107188900Y-77681158D01*
X107188900Y-77681155D01*
X107188899Y-77681153D01*
X107185010Y-77661603D01*
X107158137Y-77526503D01*
X107151421Y-77510288D01*
X107097797Y-77380827D01*
X107097790Y-77380814D01*
X107010189Y-77249711D01*
X107010186Y-77249707D01*
X106898692Y-77138213D01*
X106898688Y-77138210D01*
X106767585Y-77050609D01*
X106767572Y-77050602D01*
X106716932Y-77029627D01*
X106621901Y-76990264D01*
X106621889Y-76990261D01*
X106467245Y-76959500D01*
X106467242Y-76959500D01*
X106309558Y-76959500D01*
X106309555Y-76959500D01*
X106154910Y-76990261D01*
X106154898Y-76990264D01*
X106009227Y-77050602D01*
X106009214Y-77050609D01*
X105878111Y-77138210D01*
X105878107Y-77138213D01*
X105766613Y-77249707D01*
X105766610Y-77249711D01*
X105679009Y-77380814D01*
X105679002Y-77380827D01*
X105618664Y-77526498D01*
X105618661Y-77526508D01*
X105604104Y-77599692D01*
X105571719Y-77661603D01*
X105511003Y-77696177D01*
X105482487Y-77699500D01*
X105421155Y-77699500D01*
X105266510Y-77730261D01*
X105266498Y-77730264D01*
X105120827Y-77790602D01*
X105120814Y-77790609D01*
X104989711Y-77878210D01*
X104989708Y-77878212D01*
X104988798Y-77879123D01*
X104988204Y-77879446D01*
X104985001Y-77882076D01*
X104984502Y-77881468D01*
X104927471Y-77912602D01*
X104857780Y-77907611D01*
X104801851Y-77865734D01*
X104779508Y-77815624D01*
X104769738Y-77766509D01*
X104769737Y-77766503D01*
X104759882Y-77742710D01*
X104709397Y-77620827D01*
X104709390Y-77620814D01*
X104621789Y-77489711D01*
X104621786Y-77489707D01*
X104510292Y-77378213D01*
X104510288Y-77378210D01*
X104379185Y-77290609D01*
X104379172Y-77290602D01*
X104233501Y-77230264D01*
X104233489Y-77230261D01*
X104078845Y-77199500D01*
X104078842Y-77199500D01*
X103921158Y-77199500D01*
X103921155Y-77199500D01*
X103766510Y-77230261D01*
X103766498Y-77230264D01*
X103620827Y-77290602D01*
X103620814Y-77290609D01*
X103568891Y-77325304D01*
X103502214Y-77346182D01*
X103434833Y-77327698D01*
X103431109Y-77325304D01*
X103379185Y-77290609D01*
X103379172Y-77290602D01*
X103233501Y-77230264D01*
X103233489Y-77230261D01*
X103078845Y-77199500D01*
X103078842Y-77199500D01*
X102921158Y-77199500D01*
X102921155Y-77199500D01*
X102766510Y-77230261D01*
X102766498Y-77230264D01*
X102620827Y-77290602D01*
X102620814Y-77290609D01*
X102489711Y-77378210D01*
X102489707Y-77378213D01*
X102378213Y-77489707D01*
X102378210Y-77489711D01*
X102290609Y-77620814D01*
X102290602Y-77620827D01*
X102230264Y-77766498D01*
X102230261Y-77766510D01*
X102199500Y-77921153D01*
X100500500Y-77921153D01*
X100500500Y-76921153D01*
X109337900Y-76921153D01*
X109337900Y-77078846D01*
X109368661Y-77233489D01*
X109368664Y-77233501D01*
X109429002Y-77379172D01*
X109429009Y-77379185D01*
X109516610Y-77510288D01*
X109516613Y-77510292D01*
X109628107Y-77621786D01*
X109628111Y-77621789D01*
X109759214Y-77709390D01*
X109759227Y-77709397D01*
X109897083Y-77766498D01*
X109904903Y-77769737D01*
X110059553Y-77800499D01*
X110059556Y-77800500D01*
X110059558Y-77800500D01*
X110217244Y-77800500D01*
X110217245Y-77800499D01*
X110371897Y-77769737D01*
X110509592Y-77712701D01*
X110579062Y-77705233D01*
X110625935Y-77724160D01*
X110655016Y-77743591D01*
X110655027Y-77743597D01*
X110768526Y-77790609D01*
X110800703Y-77803937D01*
X110955353Y-77834699D01*
X110955356Y-77834700D01*
X110955358Y-77834700D01*
X111113044Y-77834700D01*
X111113045Y-77834699D01*
X111267697Y-77803937D01*
X111413379Y-77743594D01*
X111544489Y-77655989D01*
X111655989Y-77544489D01*
X111743594Y-77413379D01*
X111803937Y-77267697D01*
X111834700Y-77113042D01*
X111834700Y-76955358D01*
X111834700Y-76955355D01*
X111834699Y-76955353D01*
X111803938Y-76800710D01*
X111803937Y-76800703D01*
X111766116Y-76709394D01*
X111743597Y-76655027D01*
X111743590Y-76655014D01*
X111655989Y-76523911D01*
X111655986Y-76523907D01*
X111544492Y-76412413D01*
X111544488Y-76412410D01*
X111413385Y-76324809D01*
X111413372Y-76324802D01*
X111267701Y-76264464D01*
X111267689Y-76264461D01*
X111113045Y-76233700D01*
X111113042Y-76233700D01*
X110955358Y-76233700D01*
X110955355Y-76233700D01*
X110800710Y-76264461D01*
X110800698Y-76264464D01*
X110663006Y-76321498D01*
X110593537Y-76328967D01*
X110546664Y-76310040D01*
X110517582Y-76290608D01*
X110517581Y-76290607D01*
X110517579Y-76290606D01*
X110517576Y-76290604D01*
X110517571Y-76290602D01*
X110371901Y-76230264D01*
X110371889Y-76230261D01*
X110217245Y-76199500D01*
X110217242Y-76199500D01*
X110059558Y-76199500D01*
X110059555Y-76199500D01*
X109904910Y-76230261D01*
X109904898Y-76230264D01*
X109759227Y-76290602D01*
X109759214Y-76290609D01*
X109628111Y-76378210D01*
X109628107Y-76378213D01*
X109516613Y-76489707D01*
X109516610Y-76489711D01*
X109429009Y-76620814D01*
X109429002Y-76620827D01*
X109368664Y-76766498D01*
X109368661Y-76766510D01*
X109337900Y-76921153D01*
X100500500Y-76921153D01*
X100500500Y-75802190D01*
X100520185Y-75735151D01*
X100572989Y-75689396D01*
X100642147Y-75679452D01*
X100705703Y-75708477D01*
X100739061Y-75754738D01*
X100790602Y-75879172D01*
X100790609Y-75879185D01*
X100878210Y-76010288D01*
X100878213Y-76010292D01*
X100989707Y-76121786D01*
X100989711Y-76121789D01*
X101120814Y-76209390D01*
X101120827Y-76209397D01*
X101266498Y-76269735D01*
X101266503Y-76269737D01*
X101421153Y-76300499D01*
X101421156Y-76300500D01*
X101421158Y-76300500D01*
X101578844Y-76300500D01*
X101578845Y-76300499D01*
X101733497Y-76269737D01*
X101879179Y-76209394D01*
X102010289Y-76121789D01*
X102121789Y-76010289D01*
X102181348Y-75921153D01*
X142199500Y-75921153D01*
X142199500Y-76078846D01*
X142230261Y-76233489D01*
X142230264Y-76233501D01*
X142290602Y-76379172D01*
X142290609Y-76379185D01*
X142378210Y-76510288D01*
X142378213Y-76510292D01*
X142489707Y-76621786D01*
X142489711Y-76621789D01*
X142620814Y-76709390D01*
X142620827Y-76709397D01*
X142758683Y-76766498D01*
X142766503Y-76769737D01*
X142921153Y-76800499D01*
X142921156Y-76800500D01*
X142921158Y-76800500D01*
X143078844Y-76800500D01*
X143078845Y-76800499D01*
X143233497Y-76769737D01*
X143379179Y-76709394D01*
X143510289Y-76621789D01*
X143621789Y-76510289D01*
X143709394Y-76379179D01*
X143769737Y-76233497D01*
X143800500Y-76078842D01*
X143800500Y-75921158D01*
X143800500Y-75921155D01*
X143800499Y-75921153D01*
X143789849Y-75867611D01*
X143769737Y-75766503D01*
X143745702Y-75708477D01*
X143709397Y-75620827D01*
X143709390Y-75620814D01*
X143621789Y-75489711D01*
X143621786Y-75489707D01*
X143510292Y-75378213D01*
X143510288Y-75378210D01*
X143379185Y-75290609D01*
X143379172Y-75290602D01*
X143233501Y-75230264D01*
X143233489Y-75230261D01*
X143078845Y-75199500D01*
X143078842Y-75199500D01*
X142921158Y-75199500D01*
X142921155Y-75199500D01*
X142766510Y-75230261D01*
X142766498Y-75230264D01*
X142620827Y-75290602D01*
X142620814Y-75290609D01*
X142489711Y-75378210D01*
X142489707Y-75378213D01*
X142378213Y-75489707D01*
X142378210Y-75489711D01*
X142290609Y-75620814D01*
X142290602Y-75620827D01*
X142230264Y-75766498D01*
X142230261Y-75766510D01*
X142199500Y-75921153D01*
X102181348Y-75921153D01*
X102209394Y-75879179D01*
X102269737Y-75733497D01*
X102300500Y-75578842D01*
X102300500Y-75421158D01*
X102300500Y-75421155D01*
X102300499Y-75421153D01*
X102274531Y-75290606D01*
X102269737Y-75266503D01*
X102260938Y-75245261D01*
X102209397Y-75120827D01*
X102209390Y-75120814D01*
X102121789Y-74989711D01*
X102121786Y-74989707D01*
X102010292Y-74878213D01*
X102010288Y-74878210D01*
X101893216Y-74799984D01*
X144099500Y-74799984D01*
X144099500Y-77200015D01*
X144110000Y-77302795D01*
X144110001Y-77302797D01*
X144132713Y-77371336D01*
X144165186Y-77469335D01*
X144165187Y-77469337D01*
X144257286Y-77618651D01*
X144257289Y-77618655D01*
X144381344Y-77742710D01*
X144381348Y-77742713D01*
X144530662Y-77834812D01*
X144530664Y-77834813D01*
X144530666Y-77834814D01*
X144697203Y-77889999D01*
X144799992Y-77900500D01*
X144799997Y-77900500D01*
X147200003Y-77900500D01*
X147200008Y-77900500D01*
X147302797Y-77889999D01*
X147469334Y-77834814D01*
X147618655Y-77742711D01*
X147742711Y-77618655D01*
X147834814Y-77469334D01*
X147889999Y-77302797D01*
X147900500Y-77200008D01*
X147900500Y-74799992D01*
X147889999Y-74697203D01*
X147834814Y-74530666D01*
X147742711Y-74381345D01*
X147618655Y-74257289D01*
X147618651Y-74257286D01*
X147469337Y-74165187D01*
X147469335Y-74165186D01*
X147386065Y-74137593D01*
X147302797Y-74110001D01*
X147302795Y-74110000D01*
X147200015Y-74099500D01*
X147200008Y-74099500D01*
X144799992Y-74099500D01*
X144799984Y-74099500D01*
X144697204Y-74110000D01*
X144697203Y-74110001D01*
X144530664Y-74165186D01*
X144530662Y-74165187D01*
X144381348Y-74257286D01*
X144381344Y-74257289D01*
X144257289Y-74381344D01*
X144257286Y-74381348D01*
X144165187Y-74530662D01*
X144165186Y-74530664D01*
X144110001Y-74697203D01*
X144110000Y-74697204D01*
X144099500Y-74799984D01*
X101893216Y-74799984D01*
X101879185Y-74790609D01*
X101879172Y-74790602D01*
X101733501Y-74730264D01*
X101733489Y-74730261D01*
X101578845Y-74699500D01*
X101578842Y-74699500D01*
X101421158Y-74699500D01*
X101421155Y-74699500D01*
X101266510Y-74730261D01*
X101266498Y-74730264D01*
X101120827Y-74790602D01*
X101120814Y-74790609D01*
X100989711Y-74878210D01*
X100989707Y-74878213D01*
X100878213Y-74989707D01*
X100878210Y-74989711D01*
X100790609Y-75120814D01*
X100790602Y-75120827D01*
X100739061Y-75245261D01*
X100695220Y-75299665D01*
X100628926Y-75321730D01*
X100561227Y-75304451D01*
X100513616Y-75253314D01*
X100500500Y-75197809D01*
X100500500Y-73761153D01*
X116199500Y-73761153D01*
X116199500Y-73918846D01*
X116230261Y-74073489D01*
X116230264Y-74073501D01*
X116290602Y-74219172D01*
X116290609Y-74219185D01*
X116378210Y-74350288D01*
X116378213Y-74350292D01*
X116489707Y-74461786D01*
X116489711Y-74461789D01*
X116620814Y-74549390D01*
X116620827Y-74549397D01*
X116766498Y-74609735D01*
X116766503Y-74609737D01*
X116921153Y-74640499D01*
X116921156Y-74640500D01*
X116921158Y-74640500D01*
X117078844Y-74640500D01*
X117078845Y-74640499D01*
X117233497Y-74609737D01*
X117379179Y-74549394D01*
X117510289Y-74461789D01*
X117621789Y-74350289D01*
X117709394Y-74219179D01*
X117769737Y-74073497D01*
X117800500Y-73918842D01*
X117800500Y-73761158D01*
X117800500Y-73761155D01*
X117800499Y-73761153D01*
X117769738Y-73606510D01*
X117769737Y-73606503D01*
X117769735Y-73606498D01*
X117709397Y-73460827D01*
X117709390Y-73460814D01*
X117621789Y-73329711D01*
X117621786Y-73329707D01*
X117510292Y-73218213D01*
X117510288Y-73218210D01*
X117379185Y-73130609D01*
X117379172Y-73130602D01*
X117233501Y-73070264D01*
X117233489Y-73070261D01*
X117078845Y-73039500D01*
X117078842Y-73039500D01*
X116921158Y-73039500D01*
X116921155Y-73039500D01*
X116766510Y-73070261D01*
X116766498Y-73070264D01*
X116620827Y-73130602D01*
X116620814Y-73130609D01*
X116489711Y-73218210D01*
X116489707Y-73218213D01*
X116378213Y-73329707D01*
X116378210Y-73329711D01*
X116290609Y-73460814D01*
X116290602Y-73460827D01*
X116230264Y-73606498D01*
X116230261Y-73606510D01*
X116199500Y-73761153D01*
X100500500Y-73761153D01*
X100500500Y-69799984D01*
X103099500Y-69799984D01*
X103099500Y-72200015D01*
X103110000Y-72302795D01*
X103110001Y-72302796D01*
X103165186Y-72469335D01*
X103165187Y-72469337D01*
X103257286Y-72618651D01*
X103257289Y-72618655D01*
X103381344Y-72742710D01*
X103381348Y-72742713D01*
X103530662Y-72834812D01*
X103530664Y-72834813D01*
X103530666Y-72834814D01*
X103697203Y-72889999D01*
X103799992Y-72900500D01*
X103799997Y-72900500D01*
X106200003Y-72900500D01*
X106200008Y-72900500D01*
X106302797Y-72889999D01*
X106469334Y-72834814D01*
X106618655Y-72742711D01*
X106742711Y-72618655D01*
X106834814Y-72469334D01*
X106850780Y-72421153D01*
X125199500Y-72421153D01*
X125199500Y-72578846D01*
X125230261Y-72733489D01*
X125230264Y-72733501D01*
X125290602Y-72879172D01*
X125290609Y-72879185D01*
X125378210Y-73010288D01*
X125378213Y-73010292D01*
X125489707Y-73121786D01*
X125489711Y-73121789D01*
X125620814Y-73209390D01*
X125620827Y-73209397D01*
X125766498Y-73269735D01*
X125766503Y-73269737D01*
X125921153Y-73300499D01*
X125921156Y-73300500D01*
X125921158Y-73300500D01*
X126078844Y-73300500D01*
X126078845Y-73300499D01*
X126233497Y-73269737D01*
X126379179Y-73209394D01*
X126510289Y-73121789D01*
X126621789Y-73010289D01*
X126709394Y-72879179D01*
X126769737Y-72733497D01*
X126800500Y-72578842D01*
X126800500Y-72421158D01*
X126800500Y-72421155D01*
X126800499Y-72421153D01*
X126769738Y-72266510D01*
X126769737Y-72266503D01*
X126742192Y-72200002D01*
X126709397Y-72120827D01*
X126709390Y-72120814D01*
X126621789Y-71989711D01*
X126621786Y-71989707D01*
X126510292Y-71878213D01*
X126510288Y-71878210D01*
X126379185Y-71790609D01*
X126379172Y-71790602D01*
X126233501Y-71730264D01*
X126233489Y-71730261D01*
X126078845Y-71699500D01*
X126078842Y-71699500D01*
X125921158Y-71699500D01*
X125921155Y-71699500D01*
X125766510Y-71730261D01*
X125766498Y-71730264D01*
X125620827Y-71790602D01*
X125620814Y-71790609D01*
X125489711Y-71878210D01*
X125489707Y-71878213D01*
X125378213Y-71989707D01*
X125378210Y-71989711D01*
X125290609Y-72120814D01*
X125290602Y-72120827D01*
X125230264Y-72266498D01*
X125230261Y-72266510D01*
X125199500Y-72421153D01*
X106850780Y-72421153D01*
X106889999Y-72302797D01*
X106900500Y-72200008D01*
X106900500Y-70421153D01*
X125699500Y-70421153D01*
X125699500Y-70578846D01*
X125730261Y-70733489D01*
X125730264Y-70733501D01*
X125790602Y-70879172D01*
X125790609Y-70879185D01*
X125878210Y-71010288D01*
X125878213Y-71010292D01*
X125989707Y-71121786D01*
X125989711Y-71121789D01*
X126120814Y-71209390D01*
X126120827Y-71209397D01*
X126266498Y-71269735D01*
X126266503Y-71269737D01*
X126421153Y-71300499D01*
X126421156Y-71300500D01*
X126421158Y-71300500D01*
X126578844Y-71300500D01*
X126578845Y-71300499D01*
X126733497Y-71269737D01*
X126879179Y-71209394D01*
X127010289Y-71121789D01*
X127121789Y-71010289D01*
X127209394Y-70879179D01*
X127269737Y-70733497D01*
X127300500Y-70578842D01*
X127300500Y-70421158D01*
X127300500Y-70421155D01*
X127300499Y-70421153D01*
X134199500Y-70421153D01*
X134199500Y-70578846D01*
X134230261Y-70733489D01*
X134230264Y-70733501D01*
X134290602Y-70879172D01*
X134290609Y-70879185D01*
X134378210Y-71010288D01*
X134378213Y-71010292D01*
X134489707Y-71121786D01*
X134489711Y-71121789D01*
X134620814Y-71209390D01*
X134620827Y-71209397D01*
X134766498Y-71269735D01*
X134766503Y-71269737D01*
X134921153Y-71300499D01*
X134921156Y-71300500D01*
X134921158Y-71300500D01*
X135078844Y-71300500D01*
X135078845Y-71300499D01*
X135233497Y-71269737D01*
X135379179Y-71209394D01*
X135510289Y-71121789D01*
X135621789Y-71010289D01*
X135709394Y-70879179D01*
X135769737Y-70733497D01*
X135800500Y-70578842D01*
X135800500Y-70421158D01*
X135800500Y-70421155D01*
X135800499Y-70421153D01*
X136199500Y-70421153D01*
X136199500Y-70578846D01*
X136230261Y-70733489D01*
X136230264Y-70733501D01*
X136290602Y-70879172D01*
X136290609Y-70879185D01*
X136378210Y-71010288D01*
X136378213Y-71010292D01*
X136489707Y-71121786D01*
X136489711Y-71121789D01*
X136620814Y-71209390D01*
X136620827Y-71209397D01*
X136766498Y-71269735D01*
X136766503Y-71269737D01*
X136921153Y-71300499D01*
X136921156Y-71300500D01*
X136921158Y-71300500D01*
X137078844Y-71300500D01*
X137078845Y-71300499D01*
X137233497Y-71269737D01*
X137379179Y-71209394D01*
X137510289Y-71121789D01*
X137621789Y-71010289D01*
X137681348Y-70921153D01*
X142199500Y-70921153D01*
X142199500Y-71078846D01*
X142230261Y-71233489D01*
X142230264Y-71233501D01*
X142290602Y-71379172D01*
X142290609Y-71379185D01*
X142378210Y-71510288D01*
X142378213Y-71510292D01*
X142489707Y-71621786D01*
X142489711Y-71621789D01*
X142620814Y-71709390D01*
X142620827Y-71709397D01*
X142766498Y-71769735D01*
X142766503Y-71769737D01*
X142921153Y-71800499D01*
X142921156Y-71800500D01*
X142921158Y-71800500D01*
X143078844Y-71800500D01*
X143078845Y-71800499D01*
X143233497Y-71769737D01*
X143379179Y-71709394D01*
X143510289Y-71621789D01*
X143621789Y-71510289D01*
X143709394Y-71379179D01*
X143712550Y-71371561D01*
X143741984Y-71300499D01*
X143769737Y-71233497D01*
X143800500Y-71078842D01*
X143800500Y-70921158D01*
X143800500Y-70921155D01*
X143795410Y-70895568D01*
X143795410Y-70895567D01*
X143791407Y-70875441D01*
X144099500Y-70875441D01*
X144099500Y-71124558D01*
X144099501Y-71124575D01*
X144132017Y-71371561D01*
X144196498Y-71612207D01*
X144291830Y-71842361D01*
X144291837Y-71842376D01*
X144416400Y-72058126D01*
X144568060Y-72255774D01*
X144568066Y-72255781D01*
X144744218Y-72431933D01*
X144744225Y-72431939D01*
X144941873Y-72583599D01*
X145157623Y-72708162D01*
X145157638Y-72708169D01*
X145256825Y-72749253D01*
X145387793Y-72803502D01*
X145628435Y-72867982D01*
X145875435Y-72900500D01*
X145875442Y-72900500D01*
X146124558Y-72900500D01*
X146124565Y-72900500D01*
X146371565Y-72867982D01*
X146612207Y-72803502D01*
X146842373Y-72708164D01*
X147058127Y-72583599D01*
X147255776Y-72431938D01*
X147431938Y-72255776D01*
X147583599Y-72058127D01*
X147708164Y-71842373D01*
X147803502Y-71612207D01*
X147867982Y-71371565D01*
X147900500Y-71124565D01*
X147900500Y-70875435D01*
X147867982Y-70628435D01*
X147803502Y-70387793D01*
X147729605Y-70209390D01*
X147708169Y-70157638D01*
X147708162Y-70157623D01*
X147583599Y-69941873D01*
X147431939Y-69744225D01*
X147431933Y-69744218D01*
X147255781Y-69568066D01*
X147255774Y-69568060D01*
X147058126Y-69416400D01*
X146842376Y-69291837D01*
X146842361Y-69291830D01*
X146612207Y-69196498D01*
X146371561Y-69132017D01*
X146124575Y-69099501D01*
X146124570Y-69099500D01*
X146124565Y-69099500D01*
X145875435Y-69099500D01*
X145875429Y-69099500D01*
X145875424Y-69099501D01*
X145628438Y-69132017D01*
X145387792Y-69196498D01*
X145157638Y-69291830D01*
X145157623Y-69291837D01*
X144941873Y-69416400D01*
X144744225Y-69568060D01*
X144744218Y-69568066D01*
X144568066Y-69744218D01*
X144568060Y-69744225D01*
X144416400Y-69941873D01*
X144291837Y-70157623D01*
X144291830Y-70157638D01*
X144196498Y-70387792D01*
X144132017Y-70628438D01*
X144099501Y-70875424D01*
X144099500Y-70875441D01*
X143791407Y-70875441D01*
X143769738Y-70766510D01*
X143769737Y-70766503D01*
X143756062Y-70733489D01*
X143709397Y-70620827D01*
X143709390Y-70620814D01*
X143621789Y-70489711D01*
X143621786Y-70489707D01*
X143510292Y-70378213D01*
X143510288Y-70378210D01*
X143379185Y-70290609D01*
X143379172Y-70290602D01*
X143233501Y-70230264D01*
X143233489Y-70230261D01*
X143078845Y-70199500D01*
X143078842Y-70199500D01*
X142921158Y-70199500D01*
X142921155Y-70199500D01*
X142766510Y-70230261D01*
X142766498Y-70230264D01*
X142620827Y-70290602D01*
X142620814Y-70290609D01*
X142489711Y-70378210D01*
X142489707Y-70378213D01*
X142378213Y-70489707D01*
X142378210Y-70489711D01*
X142290609Y-70620814D01*
X142290602Y-70620827D01*
X142230264Y-70766498D01*
X142230261Y-70766510D01*
X142199500Y-70921153D01*
X137681348Y-70921153D01*
X137709394Y-70879179D01*
X137769737Y-70733497D01*
X137800500Y-70578842D01*
X137800500Y-70421158D01*
X137800500Y-70421155D01*
X137800499Y-70421153D01*
X137774531Y-70290606D01*
X137769737Y-70266503D01*
X137769735Y-70266498D01*
X137709397Y-70120827D01*
X137709390Y-70120814D01*
X137621789Y-69989711D01*
X137621786Y-69989707D01*
X137510292Y-69878213D01*
X137510288Y-69878210D01*
X137379185Y-69790609D01*
X137379172Y-69790602D01*
X137233501Y-69730264D01*
X137233489Y-69730261D01*
X137078845Y-69699500D01*
X137078842Y-69699500D01*
X136921158Y-69699500D01*
X136921155Y-69699500D01*
X136766510Y-69730261D01*
X136766498Y-69730264D01*
X136620827Y-69790602D01*
X136620814Y-69790609D01*
X136489711Y-69878210D01*
X136489707Y-69878213D01*
X136378213Y-69989707D01*
X136378210Y-69989711D01*
X136290609Y-70120814D01*
X136290602Y-70120827D01*
X136230264Y-70266498D01*
X136230261Y-70266510D01*
X136199500Y-70421153D01*
X135800499Y-70421153D01*
X135774531Y-70290606D01*
X135769737Y-70266503D01*
X135769735Y-70266498D01*
X135709397Y-70120827D01*
X135709390Y-70120814D01*
X135621789Y-69989711D01*
X135621786Y-69989707D01*
X135510292Y-69878213D01*
X135510288Y-69878210D01*
X135379185Y-69790609D01*
X135379172Y-69790602D01*
X135233501Y-69730264D01*
X135233489Y-69730261D01*
X135078845Y-69699500D01*
X135078842Y-69699500D01*
X134921158Y-69699500D01*
X134921155Y-69699500D01*
X134766510Y-69730261D01*
X134766498Y-69730264D01*
X134620827Y-69790602D01*
X134620814Y-69790609D01*
X134489711Y-69878210D01*
X134489707Y-69878213D01*
X134378213Y-69989707D01*
X134378210Y-69989711D01*
X134290609Y-70120814D01*
X134290602Y-70120827D01*
X134230264Y-70266498D01*
X134230261Y-70266510D01*
X134199500Y-70421153D01*
X127300499Y-70421153D01*
X127274531Y-70290606D01*
X127269737Y-70266503D01*
X127269735Y-70266498D01*
X127209397Y-70120827D01*
X127209390Y-70120814D01*
X127121789Y-69989711D01*
X127121786Y-69989707D01*
X127010292Y-69878213D01*
X127010288Y-69878210D01*
X126879185Y-69790609D01*
X126879172Y-69790602D01*
X126733501Y-69730264D01*
X126733489Y-69730261D01*
X126578845Y-69699500D01*
X126578842Y-69699500D01*
X126421158Y-69699500D01*
X126421155Y-69699500D01*
X126266510Y-69730261D01*
X126266498Y-69730264D01*
X126120827Y-69790602D01*
X126120814Y-69790609D01*
X125989711Y-69878210D01*
X125989707Y-69878213D01*
X125878213Y-69989707D01*
X125878210Y-69989711D01*
X125790609Y-70120814D01*
X125790602Y-70120827D01*
X125730264Y-70266498D01*
X125730261Y-70266510D01*
X125699500Y-70421153D01*
X106900500Y-70421153D01*
X106900500Y-69799992D01*
X106889999Y-69697203D01*
X106834814Y-69530666D01*
X106767265Y-69421153D01*
X128199500Y-69421153D01*
X128199500Y-69578846D01*
X128230261Y-69733489D01*
X128230264Y-69733501D01*
X128290602Y-69879172D01*
X128290609Y-69879185D01*
X128378210Y-70010288D01*
X128378213Y-70010292D01*
X128489707Y-70121786D01*
X128489711Y-70121789D01*
X128620814Y-70209390D01*
X128620827Y-70209397D01*
X128758683Y-70266498D01*
X128766503Y-70269737D01*
X128921153Y-70300499D01*
X128921156Y-70300500D01*
X128921158Y-70300500D01*
X129078844Y-70300500D01*
X129078845Y-70300499D01*
X129089179Y-70298443D01*
X129114287Y-70293450D01*
X129114292Y-70293449D01*
X129199800Y-70276439D01*
X129233497Y-70269737D01*
X129379179Y-70209394D01*
X129510289Y-70121789D01*
X129621789Y-70010289D01*
X129709394Y-69879179D01*
X129769737Y-69733497D01*
X129800500Y-69578842D01*
X129800500Y-69421158D01*
X129800500Y-69421155D01*
X129800499Y-69421153D01*
X138699500Y-69421153D01*
X138699500Y-69578846D01*
X138730261Y-69733489D01*
X138730264Y-69733501D01*
X138790602Y-69879172D01*
X138790609Y-69879185D01*
X138878210Y-70010288D01*
X138878213Y-70010292D01*
X138989707Y-70121786D01*
X138989711Y-70121789D01*
X139120814Y-70209390D01*
X139120827Y-70209397D01*
X139258683Y-70266498D01*
X139266503Y-70269737D01*
X139421153Y-70300499D01*
X139421156Y-70300500D01*
X139421158Y-70300500D01*
X139578844Y-70300500D01*
X139578845Y-70300499D01*
X139733497Y-70269737D01*
X139879179Y-70209394D01*
X140010289Y-70121789D01*
X140121789Y-70010289D01*
X140209394Y-69879179D01*
X140269737Y-69733497D01*
X140300500Y-69578842D01*
X140300500Y-69421158D01*
X140300500Y-69421155D01*
X140300499Y-69421153D01*
X140269738Y-69266510D01*
X140269737Y-69266503D01*
X140269735Y-69266498D01*
X140209397Y-69120827D01*
X140209390Y-69120814D01*
X140121789Y-68989711D01*
X140121786Y-68989707D01*
X140010292Y-68878213D01*
X140010288Y-68878210D01*
X139879185Y-68790609D01*
X139879172Y-68790602D01*
X139733501Y-68730264D01*
X139733489Y-68730261D01*
X139578845Y-68699500D01*
X139578842Y-68699500D01*
X139421158Y-68699500D01*
X139421155Y-68699500D01*
X139266510Y-68730261D01*
X139266498Y-68730264D01*
X139120827Y-68790602D01*
X139120814Y-68790609D01*
X138989711Y-68878210D01*
X138989707Y-68878213D01*
X138878213Y-68989707D01*
X138878210Y-68989711D01*
X138790609Y-69120814D01*
X138790602Y-69120827D01*
X138730264Y-69266498D01*
X138730261Y-69266510D01*
X138699500Y-69421153D01*
X129800499Y-69421153D01*
X129769738Y-69266510D01*
X129769737Y-69266503D01*
X129769735Y-69266498D01*
X129709397Y-69120827D01*
X129709390Y-69120814D01*
X129621789Y-68989711D01*
X129621786Y-68989707D01*
X129510292Y-68878213D01*
X129510288Y-68878210D01*
X129379185Y-68790609D01*
X129379172Y-68790602D01*
X129233501Y-68730264D01*
X129233489Y-68730261D01*
X129078845Y-68699500D01*
X129078842Y-68699500D01*
X128921158Y-68699500D01*
X128921155Y-68699500D01*
X128766510Y-68730261D01*
X128766498Y-68730264D01*
X128620827Y-68790602D01*
X128620814Y-68790609D01*
X128489711Y-68878210D01*
X128489707Y-68878213D01*
X128378213Y-68989707D01*
X128378210Y-68989711D01*
X128290609Y-69120814D01*
X128290602Y-69120827D01*
X128230264Y-69266498D01*
X128230261Y-69266510D01*
X128199500Y-69421153D01*
X106767265Y-69421153D01*
X106742711Y-69381345D01*
X106618655Y-69257289D01*
X106618651Y-69257286D01*
X106469337Y-69165187D01*
X106469335Y-69165186D01*
X106369237Y-69132017D01*
X106302797Y-69110001D01*
X106302795Y-69110000D01*
X106200015Y-69099500D01*
X106200008Y-69099500D01*
X103799992Y-69099500D01*
X103799984Y-69099500D01*
X103697204Y-69110000D01*
X103697203Y-69110001D01*
X103530664Y-69165186D01*
X103530662Y-69165187D01*
X103381348Y-69257286D01*
X103381344Y-69257289D01*
X103257289Y-69381344D01*
X103257286Y-69381348D01*
X103165187Y-69530662D01*
X103165186Y-69530664D01*
X103110001Y-69697203D01*
X103110000Y-69697204D01*
X103099500Y-69799984D01*
X100500500Y-69799984D01*
X100500500Y-65875441D01*
X103099500Y-65875441D01*
X103099500Y-66124558D01*
X103099501Y-66124575D01*
X103132017Y-66371561D01*
X103196498Y-66612207D01*
X103291830Y-66842361D01*
X103291837Y-66842376D01*
X103416400Y-67058126D01*
X103568060Y-67255774D01*
X103568066Y-67255781D01*
X103744218Y-67431933D01*
X103744225Y-67431939D01*
X103941873Y-67583599D01*
X104157623Y-67708162D01*
X104157638Y-67708169D01*
X104256825Y-67749253D01*
X104387793Y-67803502D01*
X104628435Y-67867982D01*
X104875435Y-67900500D01*
X104875442Y-67900500D01*
X105124558Y-67900500D01*
X105124565Y-67900500D01*
X105371565Y-67867982D01*
X105612207Y-67803502D01*
X105842373Y-67708164D01*
X106058127Y-67583599D01*
X106255776Y-67431938D01*
X106431938Y-67255776D01*
X106583599Y-67058127D01*
X106708164Y-66842373D01*
X106803502Y-66612207D01*
X106854695Y-66421153D01*
X126699500Y-66421153D01*
X126699500Y-66578846D01*
X126730261Y-66733489D01*
X126730264Y-66733501D01*
X126790602Y-66879172D01*
X126790609Y-66879185D01*
X126878210Y-67010288D01*
X126878213Y-67010292D01*
X126989707Y-67121786D01*
X126989711Y-67121789D01*
X127120814Y-67209390D01*
X127120827Y-67209397D01*
X127232810Y-67255781D01*
X127266503Y-67269737D01*
X127421153Y-67300499D01*
X127421156Y-67300500D01*
X127421158Y-67300500D01*
X127578844Y-67300500D01*
X127578845Y-67300499D01*
X127733497Y-67269737D01*
X127879179Y-67209394D01*
X128010289Y-67121789D01*
X128121789Y-67010289D01*
X128209394Y-66879179D01*
X128269737Y-66733497D01*
X128300500Y-66578842D01*
X128300500Y-66421158D01*
X128300500Y-66421155D01*
X128300499Y-66421153D01*
X128269738Y-66266510D01*
X128269737Y-66266503D01*
X128210942Y-66124558D01*
X128209397Y-66120827D01*
X128209390Y-66120814D01*
X128121789Y-65989711D01*
X128121786Y-65989707D01*
X128010292Y-65878213D01*
X128010288Y-65878210D01*
X127879185Y-65790609D01*
X127879172Y-65790602D01*
X127733501Y-65730264D01*
X127733489Y-65730261D01*
X127578845Y-65699500D01*
X127578842Y-65699500D01*
X127421158Y-65699500D01*
X127421155Y-65699500D01*
X127266510Y-65730261D01*
X127266498Y-65730264D01*
X127120827Y-65790602D01*
X127120814Y-65790609D01*
X126989711Y-65878210D01*
X126989707Y-65878213D01*
X126878213Y-65989707D01*
X126878210Y-65989711D01*
X126790609Y-66120814D01*
X126790602Y-66120827D01*
X126730264Y-66266498D01*
X126730261Y-66266510D01*
X126699500Y-66421153D01*
X106854695Y-66421153D01*
X106867982Y-66371565D01*
X106900500Y-66124565D01*
X106900500Y-65875435D01*
X106867982Y-65628435D01*
X106803502Y-65387793D01*
X106708164Y-65157627D01*
X106583599Y-64941873D01*
X106431938Y-64744224D01*
X106431933Y-64744218D01*
X106255781Y-64568066D01*
X106255774Y-64568060D01*
X106058126Y-64416400D01*
X105842376Y-64291837D01*
X105842361Y-64291830D01*
X105612207Y-64196498D01*
X105371561Y-64132017D01*
X105124575Y-64099501D01*
X105124570Y-64099500D01*
X105124565Y-64099500D01*
X104875435Y-64099500D01*
X104875429Y-64099500D01*
X104875424Y-64099501D01*
X104628438Y-64132017D01*
X104387792Y-64196498D01*
X104157638Y-64291830D01*
X104157623Y-64291837D01*
X103941873Y-64416400D01*
X103744225Y-64568060D01*
X103744218Y-64568066D01*
X103568066Y-64744218D01*
X103568060Y-64744225D01*
X103416400Y-64941873D01*
X103291837Y-65157623D01*
X103291830Y-65157638D01*
X103196498Y-65387792D01*
X103132017Y-65628438D01*
X103099501Y-65875424D01*
X103099500Y-65875441D01*
X100500500Y-65875441D01*
X100500500Y-60875441D01*
X103099500Y-60875441D01*
X103099500Y-61124558D01*
X103099501Y-61124575D01*
X103132017Y-61371561D01*
X103196498Y-61612207D01*
X103291830Y-61842361D01*
X103291837Y-61842376D01*
X103416400Y-62058126D01*
X103568060Y-62255774D01*
X103568066Y-62255781D01*
X103744218Y-62431933D01*
X103744225Y-62431939D01*
X103941873Y-62583599D01*
X104157623Y-62708162D01*
X104157638Y-62708169D01*
X104256825Y-62749253D01*
X104387793Y-62803502D01*
X104628435Y-62867982D01*
X104875435Y-62900500D01*
X104875442Y-62900500D01*
X105124558Y-62900500D01*
X105124565Y-62900500D01*
X105371565Y-62867982D01*
X105612207Y-62803502D01*
X105842373Y-62708164D01*
X106058127Y-62583599D01*
X106255776Y-62431938D01*
X106431938Y-62255776D01*
X106583599Y-62058127D01*
X106662678Y-61921158D01*
X106662681Y-61921153D01*
X125199500Y-61921153D01*
X125199500Y-62078846D01*
X125230261Y-62233489D01*
X125230264Y-62233501D01*
X125290602Y-62379172D01*
X125290609Y-62379185D01*
X125378210Y-62510288D01*
X125378213Y-62510292D01*
X125489707Y-62621786D01*
X125489711Y-62621789D01*
X125620814Y-62709390D01*
X125620827Y-62709397D01*
X125766498Y-62769735D01*
X125766503Y-62769737D01*
X125921153Y-62800499D01*
X125921156Y-62800500D01*
X125921158Y-62800500D01*
X126078844Y-62800500D01*
X126078845Y-62800499D01*
X126233497Y-62769737D01*
X126379179Y-62709394D01*
X126510289Y-62621789D01*
X126621789Y-62510289D01*
X126709394Y-62379179D01*
X126769737Y-62233497D01*
X126800500Y-62078842D01*
X126800500Y-61921158D01*
X126800500Y-61921155D01*
X126800499Y-61921153D01*
X126784829Y-61842376D01*
X126769737Y-61766503D01*
X126769735Y-61766498D01*
X126709397Y-61620827D01*
X126709390Y-61620814D01*
X126621789Y-61489711D01*
X126621786Y-61489707D01*
X126510292Y-61378213D01*
X126510288Y-61378210D01*
X126379185Y-61290609D01*
X126379172Y-61290602D01*
X126233501Y-61230264D01*
X126233489Y-61230261D01*
X126078845Y-61199500D01*
X126078842Y-61199500D01*
X125921158Y-61199500D01*
X125921155Y-61199500D01*
X125766510Y-61230261D01*
X125766498Y-61230264D01*
X125620827Y-61290602D01*
X125620814Y-61290609D01*
X125489711Y-61378210D01*
X125489707Y-61378213D01*
X125378213Y-61489707D01*
X125378210Y-61489711D01*
X125290609Y-61620814D01*
X125290602Y-61620827D01*
X125230264Y-61766498D01*
X125230261Y-61766510D01*
X125199500Y-61921153D01*
X106662681Y-61921153D01*
X106701990Y-61853067D01*
X106701990Y-61853066D01*
X106708164Y-61842373D01*
X106803502Y-61612207D01*
X106867982Y-61371565D01*
X106900500Y-61124565D01*
X106900500Y-60875435D01*
X106867982Y-60628435D01*
X106812441Y-60421153D01*
X117199500Y-60421153D01*
X117199500Y-60578846D01*
X117230261Y-60733489D01*
X117230264Y-60733501D01*
X117290602Y-60879172D01*
X117290609Y-60879185D01*
X117378210Y-61010288D01*
X117378213Y-61010292D01*
X117489707Y-61121786D01*
X117489711Y-61121789D01*
X117620814Y-61209390D01*
X117620827Y-61209397D01*
X117766498Y-61269735D01*
X117766503Y-61269737D01*
X117921153Y-61300499D01*
X117921156Y-61300500D01*
X117921158Y-61300500D01*
X118078844Y-61300500D01*
X118078845Y-61300499D01*
X118233497Y-61269737D01*
X118379179Y-61209394D01*
X118510289Y-61121789D01*
X118621789Y-61010289D01*
X118709394Y-60879179D01*
X118769737Y-60733497D01*
X118800500Y-60578842D01*
X118800500Y-60421158D01*
X118800500Y-60421155D01*
X118800499Y-60421153D01*
X118769738Y-60266510D01*
X118769737Y-60266503D01*
X118724644Y-60157638D01*
X118709397Y-60120827D01*
X118709390Y-60120814D01*
X118621790Y-59989712D01*
X118621784Y-59989705D01*
X118553232Y-59921153D01*
X124199500Y-59921153D01*
X124199500Y-60078846D01*
X124230261Y-60233489D01*
X124230264Y-60233501D01*
X124290602Y-60379172D01*
X124290609Y-60379185D01*
X124378210Y-60510288D01*
X124378213Y-60510292D01*
X124489707Y-60621786D01*
X124489711Y-60621789D01*
X124620814Y-60709390D01*
X124620827Y-60709397D01*
X124701321Y-60742738D01*
X124766503Y-60769737D01*
X124921153Y-60800499D01*
X124921156Y-60800500D01*
X124921158Y-60800500D01*
X125078844Y-60800500D01*
X125078845Y-60800499D01*
X125233497Y-60769737D01*
X125379179Y-60709394D01*
X125510289Y-60621789D01*
X125621789Y-60510289D01*
X125709394Y-60379179D01*
X125769737Y-60233497D01*
X125800500Y-60078842D01*
X125800500Y-59921158D01*
X125800500Y-59921155D01*
X125800499Y-59921153D01*
X125795128Y-59894153D01*
X129870500Y-59894153D01*
X129870500Y-60051846D01*
X129901261Y-60206489D01*
X129901264Y-60206501D01*
X129961602Y-60352172D01*
X129961609Y-60352185D01*
X130049210Y-60483288D01*
X130049213Y-60483292D01*
X130160707Y-60594786D01*
X130160711Y-60594789D01*
X130291814Y-60682390D01*
X130291827Y-60682397D01*
X130415176Y-60733489D01*
X130437503Y-60742737D01*
X130592153Y-60773499D01*
X130592156Y-60773500D01*
X130592158Y-60773500D01*
X130749844Y-60773500D01*
X130749845Y-60773499D01*
X130904497Y-60742737D01*
X131050179Y-60682394D01*
X131181289Y-60594789D01*
X131292789Y-60483289D01*
X131380394Y-60352179D01*
X131440737Y-60206497D01*
X131471500Y-60051842D01*
X131471500Y-59894158D01*
X131471500Y-59894155D01*
X131471499Y-59894153D01*
X131452870Y-59800499D01*
X131440737Y-59739503D01*
X131428264Y-59709390D01*
X131380397Y-59593827D01*
X131380390Y-59593814D01*
X131292789Y-59462711D01*
X131292786Y-59462707D01*
X131181292Y-59351213D01*
X131181288Y-59351210D01*
X131050185Y-59263609D01*
X131050172Y-59263602D01*
X130904501Y-59203264D01*
X130904489Y-59203261D01*
X130749845Y-59172500D01*
X130749842Y-59172500D01*
X130592158Y-59172500D01*
X130592155Y-59172500D01*
X130437510Y-59203261D01*
X130437498Y-59203264D01*
X130291827Y-59263602D01*
X130291814Y-59263609D01*
X130160711Y-59351210D01*
X130160707Y-59351213D01*
X130049213Y-59462707D01*
X130049210Y-59462711D01*
X129961609Y-59593814D01*
X129961602Y-59593827D01*
X129901264Y-59739498D01*
X129901261Y-59739510D01*
X129870500Y-59894153D01*
X125795128Y-59894153D01*
X125774531Y-59790606D01*
X125769737Y-59766503D01*
X125758551Y-59739498D01*
X125709397Y-59620827D01*
X125709390Y-59620814D01*
X125621789Y-59489711D01*
X125621786Y-59489707D01*
X125510292Y-59378213D01*
X125510288Y-59378210D01*
X125379185Y-59290609D01*
X125379172Y-59290602D01*
X125233501Y-59230264D01*
X125233489Y-59230261D01*
X125078845Y-59199500D01*
X125078842Y-59199500D01*
X124921158Y-59199500D01*
X124921155Y-59199500D01*
X124766510Y-59230261D01*
X124766498Y-59230264D01*
X124620827Y-59290602D01*
X124620814Y-59290609D01*
X124489711Y-59378210D01*
X124489707Y-59378213D01*
X124378213Y-59489707D01*
X124378210Y-59489711D01*
X124290609Y-59620814D01*
X124290602Y-59620827D01*
X124230264Y-59766498D01*
X124230261Y-59766510D01*
X124199500Y-59921153D01*
X118553232Y-59921153D01*
X118510292Y-59878213D01*
X118510288Y-59878210D01*
X118379185Y-59790609D01*
X118379172Y-59790602D01*
X118233501Y-59730264D01*
X118233489Y-59730261D01*
X118078845Y-59699500D01*
X118078842Y-59699500D01*
X117921158Y-59699500D01*
X117921155Y-59699500D01*
X117766510Y-59730261D01*
X117766498Y-59730264D01*
X117620827Y-59790602D01*
X117620814Y-59790609D01*
X117489711Y-59878210D01*
X117489707Y-59878213D01*
X117378213Y-59989707D01*
X117378210Y-59989711D01*
X117290609Y-60120814D01*
X117290602Y-60120827D01*
X117230264Y-60266498D01*
X117230261Y-60266510D01*
X117199500Y-60421153D01*
X106812441Y-60421153D01*
X106803502Y-60387793D01*
X106739592Y-60233501D01*
X106708169Y-60157638D01*
X106708162Y-60157623D01*
X106583599Y-59941873D01*
X106431939Y-59744225D01*
X106431933Y-59744218D01*
X106255781Y-59568066D01*
X106255774Y-59568060D01*
X106058126Y-59416400D01*
X105842376Y-59291837D01*
X105842361Y-59291830D01*
X105612207Y-59196498D01*
X105371561Y-59132017D01*
X105124575Y-59099501D01*
X105124570Y-59099500D01*
X105124565Y-59099500D01*
X104875435Y-59099500D01*
X104875429Y-59099500D01*
X104875424Y-59099501D01*
X104628438Y-59132017D01*
X104387792Y-59196498D01*
X104157638Y-59291830D01*
X104157623Y-59291837D01*
X103941873Y-59416400D01*
X103744225Y-59568060D01*
X103744218Y-59568066D01*
X103568066Y-59744218D01*
X103568060Y-59744225D01*
X103416400Y-59941873D01*
X103291837Y-60157623D01*
X103291830Y-60157638D01*
X103196498Y-60387792D01*
X103132017Y-60628438D01*
X103099501Y-60875424D01*
X103099500Y-60875441D01*
X100500500Y-60875441D01*
X100500500Y-58421153D01*
X127199500Y-58421153D01*
X127199500Y-58578846D01*
X127230261Y-58733489D01*
X127230264Y-58733501D01*
X127290602Y-58879172D01*
X127290609Y-58879185D01*
X127378210Y-59010288D01*
X127378213Y-59010292D01*
X127489707Y-59121786D01*
X127489711Y-59121789D01*
X127620814Y-59209390D01*
X127620827Y-59209397D01*
X127756450Y-59265573D01*
X127766503Y-59269737D01*
X127886736Y-59293653D01*
X127921153Y-59300499D01*
X127921156Y-59300500D01*
X127921158Y-59300500D01*
X128078843Y-59300500D01*
X128095304Y-59297225D01*
X128144568Y-59287426D01*
X128214158Y-59293653D01*
X128269336Y-59336515D01*
X128283320Y-59361589D01*
X128290606Y-59379179D01*
X128290609Y-59379185D01*
X128378210Y-59510288D01*
X128378213Y-59510292D01*
X128489707Y-59621786D01*
X128489711Y-59621789D01*
X128620814Y-59709390D01*
X128620827Y-59709397D01*
X128758683Y-59766498D01*
X128766503Y-59769737D01*
X128921153Y-59800499D01*
X128921156Y-59800500D01*
X128921158Y-59800500D01*
X129078844Y-59800500D01*
X129078845Y-59800499D01*
X129233497Y-59769737D01*
X129379179Y-59709394D01*
X129510289Y-59621789D01*
X129621789Y-59510289D01*
X129709394Y-59379179D01*
X129769737Y-59233497D01*
X129800500Y-59078842D01*
X129800500Y-58921158D01*
X129800500Y-58921155D01*
X129800499Y-58921153D01*
X129769738Y-58766510D01*
X129769737Y-58766503D01*
X129756062Y-58733489D01*
X129709397Y-58620827D01*
X129709390Y-58620814D01*
X129621789Y-58489711D01*
X129621786Y-58489707D01*
X129510292Y-58378213D01*
X129510288Y-58378210D01*
X129379185Y-58290609D01*
X129379172Y-58290602D01*
X129233501Y-58230264D01*
X129233489Y-58230261D01*
X129078845Y-58199500D01*
X129078842Y-58199500D01*
X128921158Y-58199500D01*
X128921153Y-58199500D01*
X128855431Y-58212573D01*
X128785839Y-58206346D01*
X128730662Y-58163482D01*
X128716679Y-58138409D01*
X128709392Y-58120817D01*
X128621789Y-57989711D01*
X128621786Y-57989707D01*
X128510292Y-57878213D01*
X128510288Y-57878210D01*
X128379185Y-57790609D01*
X128379172Y-57790602D01*
X128233501Y-57730264D01*
X128233489Y-57730261D01*
X128078845Y-57699500D01*
X128078842Y-57699500D01*
X127921158Y-57699500D01*
X127921155Y-57699500D01*
X127766510Y-57730261D01*
X127766498Y-57730264D01*
X127620827Y-57790602D01*
X127620814Y-57790609D01*
X127489711Y-57878210D01*
X127489707Y-57878213D01*
X127378213Y-57989707D01*
X127378210Y-57989711D01*
X127290609Y-58120814D01*
X127290602Y-58120827D01*
X127230264Y-58266498D01*
X127230261Y-58266510D01*
X127199500Y-58421153D01*
X100500500Y-58421153D01*
X100500500Y-55875441D01*
X103099500Y-55875441D01*
X103099500Y-56124558D01*
X103099501Y-56124575D01*
X103132017Y-56371561D01*
X103196498Y-56612207D01*
X103291830Y-56842361D01*
X103291837Y-56842376D01*
X103416400Y-57058126D01*
X103568060Y-57255774D01*
X103568066Y-57255781D01*
X103744218Y-57431933D01*
X103744225Y-57431939D01*
X103941873Y-57583599D01*
X104157623Y-57708162D01*
X104157638Y-57708169D01*
X104210981Y-57730264D01*
X104387793Y-57803502D01*
X104628435Y-57867982D01*
X104875435Y-57900500D01*
X104875442Y-57900500D01*
X105124558Y-57900500D01*
X105124565Y-57900500D01*
X105371565Y-57867982D01*
X105612207Y-57803502D01*
X105842373Y-57708164D01*
X106058127Y-57583599D01*
X106255776Y-57431938D01*
X106431938Y-57255776D01*
X106583599Y-57058127D01*
X106708164Y-56842373D01*
X106803502Y-56612207D01*
X106854695Y-56421153D01*
X125756379Y-56421153D01*
X125756379Y-56578846D01*
X125787140Y-56733489D01*
X125787143Y-56733501D01*
X125847481Y-56879172D01*
X125847488Y-56879185D01*
X125935089Y-57010288D01*
X125935092Y-57010292D01*
X126046586Y-57121786D01*
X126046590Y-57121789D01*
X126177693Y-57209390D01*
X126177706Y-57209397D01*
X126289689Y-57255781D01*
X126323382Y-57269737D01*
X126478032Y-57300499D01*
X126478035Y-57300500D01*
X126478037Y-57300500D01*
X126635723Y-57300500D01*
X126635724Y-57300499D01*
X126790376Y-57269737D01*
X126936058Y-57209394D01*
X127067168Y-57121789D01*
X127178668Y-57010289D01*
X127266273Y-56879179D01*
X127326616Y-56733497D01*
X127357379Y-56578842D01*
X127357379Y-56421158D01*
X127357379Y-56421155D01*
X127357378Y-56421153D01*
X127326617Y-56266510D01*
X127326616Y-56266503D01*
X127267821Y-56124558D01*
X127266276Y-56120827D01*
X127266269Y-56120814D01*
X127178668Y-55989711D01*
X127178665Y-55989707D01*
X127067171Y-55878213D01*
X127067167Y-55878210D01*
X126936064Y-55790609D01*
X126936051Y-55790602D01*
X126790380Y-55730264D01*
X126790368Y-55730261D01*
X126635724Y-55699500D01*
X126635721Y-55699500D01*
X126478037Y-55699500D01*
X126478034Y-55699500D01*
X126323389Y-55730261D01*
X126323377Y-55730264D01*
X126177706Y-55790602D01*
X126177693Y-55790609D01*
X126046590Y-55878210D01*
X126046586Y-55878213D01*
X125935092Y-55989707D01*
X125935089Y-55989711D01*
X125847488Y-56120814D01*
X125847481Y-56120827D01*
X125787143Y-56266498D01*
X125787140Y-56266510D01*
X125756379Y-56421153D01*
X106854695Y-56421153D01*
X106867982Y-56371565D01*
X106900500Y-56124565D01*
X106900500Y-55875435D01*
X106867982Y-55628435D01*
X106803502Y-55387793D01*
X106729979Y-55210292D01*
X106708169Y-55157638D01*
X106708162Y-55157623D01*
X106583599Y-54941873D01*
X106431939Y-54744225D01*
X106431933Y-54744218D01*
X106255781Y-54568066D01*
X106255774Y-54568060D01*
X106058126Y-54416400D01*
X105842376Y-54291837D01*
X105842361Y-54291830D01*
X105612207Y-54196498D01*
X105446937Y-54152214D01*
X105371565Y-54132018D01*
X105371564Y-54132017D01*
X105371561Y-54132017D01*
X105124575Y-54099501D01*
X105124570Y-54099500D01*
X105124565Y-54099500D01*
X104875435Y-54099500D01*
X104875429Y-54099500D01*
X104875424Y-54099501D01*
X104628438Y-54132017D01*
X104387792Y-54196498D01*
X104157638Y-54291830D01*
X104157623Y-54291837D01*
X103941873Y-54416400D01*
X103744225Y-54568060D01*
X103744218Y-54568066D01*
X103568066Y-54744218D01*
X103568060Y-54744225D01*
X103416400Y-54941873D01*
X103291837Y-55157623D01*
X103291830Y-55157638D01*
X103196498Y-55387792D01*
X103132017Y-55628438D01*
X103099501Y-55875424D01*
X103099500Y-55875441D01*
X100500500Y-55875441D01*
X100500500Y-53521153D01*
X128199500Y-53521153D01*
X128199500Y-53678846D01*
X128230261Y-53833489D01*
X128230264Y-53833501D01*
X128290602Y-53979172D01*
X128290609Y-53979185D01*
X128358713Y-54081109D01*
X128379591Y-54147787D01*
X128361107Y-54215167D01*
X128358713Y-54218891D01*
X128290609Y-54320814D01*
X128290602Y-54320827D01*
X128230264Y-54466498D01*
X128230261Y-54466510D01*
X128199500Y-54621153D01*
X128199500Y-54778846D01*
X128230261Y-54933489D01*
X128230264Y-54933501D01*
X128290602Y-55079172D01*
X128290609Y-55079185D01*
X128378210Y-55210288D01*
X128378213Y-55210292D01*
X128489707Y-55321786D01*
X128489711Y-55321789D01*
X128620814Y-55409390D01*
X128620827Y-55409397D01*
X128766498Y-55469735D01*
X128766503Y-55469737D01*
X128921153Y-55500499D01*
X128921156Y-55500500D01*
X128921158Y-55500500D01*
X129078844Y-55500500D01*
X129078845Y-55500499D01*
X129233497Y-55469737D01*
X129379179Y-55409394D01*
X129510289Y-55321789D01*
X129621789Y-55210289D01*
X129709394Y-55079179D01*
X129769737Y-54933497D01*
X129800500Y-54778842D01*
X129800500Y-54621158D01*
X129800500Y-54621155D01*
X129800499Y-54621153D01*
X129769738Y-54466510D01*
X129769737Y-54466503D01*
X129748984Y-54416400D01*
X129709397Y-54320827D01*
X129709393Y-54320820D01*
X129690027Y-54291837D01*
X129641284Y-54218888D01*
X129620408Y-54152214D01*
X129638892Y-54084834D01*
X129641257Y-54081152D01*
X129709394Y-53979179D01*
X129715867Y-53963553D01*
X129723067Y-53946166D01*
X129769737Y-53833497D01*
X129800500Y-53678842D01*
X129800500Y-53521158D01*
X129800500Y-53521155D01*
X129800499Y-53521153D01*
X129769738Y-53366510D01*
X129769737Y-53366503D01*
X129736571Y-53286433D01*
X129709397Y-53220827D01*
X129709390Y-53220814D01*
X129621789Y-53089711D01*
X129621786Y-53089707D01*
X129510292Y-52978213D01*
X129510288Y-52978210D01*
X129379185Y-52890609D01*
X129379172Y-52890602D01*
X129233501Y-52830264D01*
X129233489Y-52830261D01*
X129078845Y-52799500D01*
X129078842Y-52799500D01*
X128921158Y-52799500D01*
X128921155Y-52799500D01*
X128766510Y-52830261D01*
X128766498Y-52830264D01*
X128620827Y-52890602D01*
X128620814Y-52890609D01*
X128489711Y-52978210D01*
X128489707Y-52978213D01*
X128378213Y-53089707D01*
X128378210Y-53089711D01*
X128290609Y-53220814D01*
X128290602Y-53220827D01*
X128230264Y-53366498D01*
X128230261Y-53366510D01*
X128199500Y-53521153D01*
X100500500Y-53521153D01*
X100500500Y-52370551D01*
X100520185Y-52303512D01*
X100572989Y-52257757D01*
X100642147Y-52247813D01*
X100705703Y-52276838D01*
X100724815Y-52297662D01*
X100855483Y-52477510D01*
X101022490Y-52644517D01*
X101213567Y-52783343D01*
X101254258Y-52804076D01*
X101424003Y-52890566D01*
X101424005Y-52890566D01*
X101424008Y-52890568D01*
X101544412Y-52929689D01*
X101648631Y-52963553D01*
X101881903Y-53000500D01*
X101881908Y-53000500D01*
X102118097Y-53000500D01*
X102351368Y-52963553D01*
X102357754Y-52961478D01*
X102575992Y-52890568D01*
X102786433Y-52783343D01*
X102977510Y-52644517D01*
X103144517Y-52477510D01*
X103283343Y-52286433D01*
X103390568Y-52075992D01*
X103463553Y-51851368D01*
X103471043Y-51804076D01*
X103500500Y-51618097D01*
X103500500Y-51381902D01*
X103463553Y-51148631D01*
X103390566Y-50924003D01*
X103283343Y-50713567D01*
X103271586Y-50697385D01*
X103248107Y-50631578D01*
X103263933Y-50563524D01*
X103314039Y-50514830D01*
X103371905Y-50500500D01*
X149875500Y-50500500D01*
X149942539Y-50520185D01*
G37*
%TD.AperFunction*%
%TD*%
M02*
