%TF.GenerationSoftware,KiCad,Pcbnew,9.0.3*%
%TF.CreationDate,2025-12-20T12:10:28-05:00*%
%TF.ProjectId,Experimental,45787065-7269-46d6-956e-74616c2e6b69,rev?*%
%TF.SameCoordinates,Original*%
%TF.FileFunction,Legend,Top*%
%TF.FilePolarity,Positive*%
%FSLAX46Y46*%
G04 Gerber Fmt 4.6, Leading zero omitted, Abs format (unit mm)*
G04 Created by KiCad (PCBNEW 9.0.3) date 2025-12-20 12:10:28*
%MOMM*%
%LPD*%
G01*
G04 APERTURE LIST*
G04 Aperture macros list*
%AMRoundRect*
0 Rectangle with rounded corners*
0 $1 Rounding radius*
0 $2 $3 $4 $5 $6 $7 $8 $9 X,Y pos of 4 corners*
0 Add a 4 corners polygon primitive as box body*
4,1,4,$2,$3,$4,$5,$6,$7,$8,$9,$2,$3,0*
0 Add four circle primitives for the rounded corners*
1,1,$1+$1,$2,$3*
1,1,$1+$1,$4,$5*
1,1,$1+$1,$6,$7*
1,1,$1+$1,$8,$9*
0 Add four rect primitives between the rounded corners*
20,1,$1+$1,$2,$3,$4,$5,0*
20,1,$1+$1,$4,$5,$6,$7,0*
20,1,$1+$1,$6,$7,$8,$9,0*
20,1,$1+$1,$8,$9,$2,$3,0*%
G04 Aperture macros list end*
%ADD10C,0.150000*%
%ADD11C,0.120000*%
%ADD12C,0.076200*%
%ADD13C,0.100000*%
%ADD14C,0.127000*%
%ADD15C,0.200000*%
%ADD16C,0.650000*%
%ADD17RoundRect,0.150000X-0.150000X-0.425000X0.150000X-0.425000X0.150000X0.425000X-0.150000X0.425000X0*%
%ADD18RoundRect,0.075000X-0.075000X-0.500000X0.075000X-0.500000X0.075000X0.500000X-0.075000X0.500000X0*%
%ADD19O,1.000000X2.100000*%
%ADD20O,1.000000X1.800000*%
%ADD21RoundRect,0.250000X-0.350000X-0.625000X0.350000X-0.625000X0.350000X0.625000X-0.350000X0.625000X0*%
%ADD22O,1.200000X1.750000*%
%ADD23RoundRect,0.218750X0.218750X0.256250X-0.218750X0.256250X-0.218750X-0.256250X0.218750X-0.256250X0*%
%ADD24RoundRect,0.250001X1.149999X-1.149999X1.149999X1.149999X-1.149999X1.149999X-1.149999X-1.149999X0*%
%ADD25C,2.800000*%
%ADD26RoundRect,0.209750X-0.209750X0.209750X-0.209750X-0.209750X0.209750X-0.209750X0.209750X0.209750X0*%
%ADD27RoundRect,0.209750X0.209750X-0.209750X0.209750X0.209750X-0.209750X0.209750X-0.209750X-0.209750X0*%
%ADD28RoundRect,0.135000X0.185000X-0.135000X0.185000X0.135000X-0.185000X0.135000X-0.185000X-0.135000X0*%
%ADD29RoundRect,0.150000X0.587500X0.150000X-0.587500X0.150000X-0.587500X-0.150000X0.587500X-0.150000X0*%
%ADD30RoundRect,0.147500X-0.147500X-0.172500X0.147500X-0.172500X0.147500X0.172500X-0.147500X0.172500X0*%
%ADD31R,1.575000X1.575000*%
%ADD32C,1.575000*%
%ADD33R,1.500000X0.900000*%
%ADD34R,0.900000X1.500000*%
%ADD35C,0.600000*%
%ADD36R,3.900000X3.900000*%
%ADD37RoundRect,0.150000X-0.150000X0.587500X-0.150000X-0.587500X0.150000X-0.587500X0.150000X0.587500X0*%
%ADD38R,1.600000X1.000000*%
%ADD39RoundRect,0.209750X0.209750X0.209750X-0.209750X0.209750X-0.209750X-0.209750X0.209750X-0.209750X0*%
%ADD40RoundRect,0.250000X-0.400000X-0.450000X0.400000X-0.450000X0.400000X0.450000X-0.400000X0.450000X0*%
%ADD41RoundRect,0.209750X-0.209750X-0.209750X0.209750X-0.209750X0.209750X0.209750X-0.209750X0.209750X0*%
%ADD42RoundRect,0.102000X-0.525000X-1.100000X0.525000X-1.100000X0.525000X1.100000X-0.525000X1.100000X0*%
%ADD43RoundRect,0.102000X-0.500000X-0.525000X0.500000X-0.525000X0.500000X0.525000X-0.500000X0.525000X0*%
%ADD44RoundRect,0.250000X0.400000X0.450000X-0.400000X0.450000X-0.400000X-0.450000X0.400000X-0.450000X0*%
%ADD45RoundRect,0.102000X-0.900000X-0.400000X0.900000X-0.400000X0.900000X0.400000X-0.900000X0.400000X0*%
%ADD46RoundRect,0.102000X-0.855000X-0.855000X0.855000X-0.855000X0.855000X0.855000X-0.855000X0.855000X0*%
%ADD47C,1.914000*%
G04 APERTURE END LIST*
D10*
X114773809Y-113381569D02*
X114773809Y-114095854D01*
X114773809Y-114095854D02*
X114726190Y-114238711D01*
X114726190Y-114238711D02*
X114630952Y-114333950D01*
X114630952Y-114333950D02*
X114488095Y-114381569D01*
X114488095Y-114381569D02*
X114392857Y-114381569D01*
X115726190Y-113381569D02*
X115250000Y-113381569D01*
X115250000Y-113381569D02*
X115202381Y-113857759D01*
X115202381Y-113857759D02*
X115250000Y-113810140D01*
X115250000Y-113810140D02*
X115345238Y-113762521D01*
X115345238Y-113762521D02*
X115583333Y-113762521D01*
X115583333Y-113762521D02*
X115678571Y-113810140D01*
X115678571Y-113810140D02*
X115726190Y-113857759D01*
X115726190Y-113857759D02*
X115773809Y-113952997D01*
X115773809Y-113952997D02*
X115773809Y-114191092D01*
X115773809Y-114191092D02*
X115726190Y-114286330D01*
X115726190Y-114286330D02*
X115678571Y-114333950D01*
X115678571Y-114333950D02*
X115583333Y-114381569D01*
X115583333Y-114381569D02*
X115345238Y-114381569D01*
X115345238Y-114381569D02*
X115250000Y-114333950D01*
X115250000Y-114333950D02*
X115202381Y-114286330D01*
X116964286Y-114000616D02*
X117726191Y-114000616D01*
X118916666Y-113333950D02*
X118059524Y-114619664D01*
X119250000Y-114000616D02*
X120011905Y-114000616D01*
X119630952Y-114381569D02*
X119630952Y-113619664D01*
X101000000Y-115861009D02*
X101142857Y-115908628D01*
X101142857Y-115908628D02*
X101190476Y-115956247D01*
X101190476Y-115956247D02*
X101238095Y-116051485D01*
X101238095Y-116051485D02*
X101238095Y-116194342D01*
X101238095Y-116194342D02*
X101190476Y-116289580D01*
X101190476Y-116289580D02*
X101142857Y-116337200D01*
X101142857Y-116337200D02*
X101047619Y-116384819D01*
X101047619Y-116384819D02*
X100666667Y-116384819D01*
X100666667Y-116384819D02*
X100666667Y-115384819D01*
X100666667Y-115384819D02*
X101000000Y-115384819D01*
X101000000Y-115384819D02*
X101095238Y-115432438D01*
X101095238Y-115432438D02*
X101142857Y-115480057D01*
X101142857Y-115480057D02*
X101190476Y-115575295D01*
X101190476Y-115575295D02*
X101190476Y-115670533D01*
X101190476Y-115670533D02*
X101142857Y-115765771D01*
X101142857Y-115765771D02*
X101095238Y-115813390D01*
X101095238Y-115813390D02*
X101000000Y-115861009D01*
X101000000Y-115861009D02*
X100666667Y-115861009D01*
X102142857Y-116384819D02*
X101666667Y-116384819D01*
X101666667Y-116384819D02*
X101666667Y-115384819D01*
X102476191Y-116384819D02*
X102476191Y-115384819D01*
X102952381Y-116384819D02*
X102952381Y-115384819D01*
X102952381Y-115384819D02*
X103523809Y-116384819D01*
X103523809Y-116384819D02*
X103523809Y-115384819D01*
X104000000Y-116384819D02*
X104000000Y-115384819D01*
X104571428Y-116384819D02*
X104142857Y-115813390D01*
X104571428Y-115384819D02*
X104000000Y-115956247D01*
X105190476Y-115908628D02*
X105190476Y-116384819D01*
X104857143Y-115384819D02*
X105190476Y-115908628D01*
X105190476Y-115908628D02*
X105523809Y-115384819D01*
X106380952Y-116384819D02*
X105809524Y-116384819D01*
X106095238Y-116384819D02*
X106095238Y-115384819D01*
X106095238Y-115384819D02*
X106000000Y-115527676D01*
X106000000Y-115527676D02*
X105904762Y-115622914D01*
X105904762Y-115622914D02*
X105809524Y-115670533D01*
X140049069Y-85583333D02*
X140763354Y-85583333D01*
X140763354Y-85583333D02*
X140906211Y-85630952D01*
X140906211Y-85630952D02*
X141001450Y-85726190D01*
X141001450Y-85726190D02*
X141049069Y-85869047D01*
X141049069Y-85869047D02*
X141049069Y-85964285D01*
X140477640Y-84964285D02*
X140430021Y-85059523D01*
X140430021Y-85059523D02*
X140382402Y-85107142D01*
X140382402Y-85107142D02*
X140287164Y-85154761D01*
X140287164Y-85154761D02*
X140239545Y-85154761D01*
X140239545Y-85154761D02*
X140144307Y-85107142D01*
X140144307Y-85107142D02*
X140096688Y-85059523D01*
X140096688Y-85059523D02*
X140049069Y-84964285D01*
X140049069Y-84964285D02*
X140049069Y-84773809D01*
X140049069Y-84773809D02*
X140096688Y-84678571D01*
X140096688Y-84678571D02*
X140144307Y-84630952D01*
X140144307Y-84630952D02*
X140239545Y-84583333D01*
X140239545Y-84583333D02*
X140287164Y-84583333D01*
X140287164Y-84583333D02*
X140382402Y-84630952D01*
X140382402Y-84630952D02*
X140430021Y-84678571D01*
X140430021Y-84678571D02*
X140477640Y-84773809D01*
X140477640Y-84773809D02*
X140477640Y-84964285D01*
X140477640Y-84964285D02*
X140525259Y-85059523D01*
X140525259Y-85059523D02*
X140572878Y-85107142D01*
X140572878Y-85107142D02*
X140668116Y-85154761D01*
X140668116Y-85154761D02*
X140858592Y-85154761D01*
X140858592Y-85154761D02*
X140953830Y-85107142D01*
X140953830Y-85107142D02*
X141001450Y-85059523D01*
X141001450Y-85059523D02*
X141049069Y-84964285D01*
X141049069Y-84964285D02*
X141049069Y-84773809D01*
X141049069Y-84773809D02*
X141001450Y-84678571D01*
X141001450Y-84678571D02*
X140953830Y-84630952D01*
X140953830Y-84630952D02*
X140858592Y-84583333D01*
X140858592Y-84583333D02*
X140668116Y-84583333D01*
X140668116Y-84583333D02*
X140572878Y-84630952D01*
X140572878Y-84630952D02*
X140525259Y-84678571D01*
X140525259Y-84678571D02*
X140477640Y-84773809D01*
X145487319Y-67326190D02*
X146201604Y-67326190D01*
X146201604Y-67326190D02*
X146344461Y-67373809D01*
X146344461Y-67373809D02*
X146439700Y-67469047D01*
X146439700Y-67469047D02*
X146487319Y-67611904D01*
X146487319Y-67611904D02*
X146487319Y-67707142D01*
X146487319Y-66326190D02*
X146487319Y-66897618D01*
X146487319Y-66611904D02*
X145487319Y-66611904D01*
X145487319Y-66611904D02*
X145630176Y-66707142D01*
X145630176Y-66707142D02*
X145725414Y-66802380D01*
X145725414Y-66802380D02*
X145773033Y-66897618D01*
X107604638Y-77660520D02*
X107370858Y-77326548D01*
X107203872Y-77660520D02*
X107203872Y-76959180D01*
X107203872Y-76959180D02*
X107471049Y-76959180D01*
X107471049Y-76959180D02*
X107537844Y-76992577D01*
X107537844Y-76992577D02*
X107571241Y-77025974D01*
X107571241Y-77025974D02*
X107604638Y-77092768D01*
X107604638Y-77092768D02*
X107604638Y-77192960D01*
X107604638Y-77192960D02*
X107571241Y-77259754D01*
X107571241Y-77259754D02*
X107537844Y-77293151D01*
X107537844Y-77293151D02*
X107471049Y-77326548D01*
X107471049Y-77326548D02*
X107203872Y-77326548D01*
X107871815Y-77025974D02*
X107905212Y-76992577D01*
X107905212Y-76992577D02*
X107972007Y-76959180D01*
X107972007Y-76959180D02*
X108138992Y-76959180D01*
X108138992Y-76959180D02*
X108205787Y-76992577D01*
X108205787Y-76992577D02*
X108239184Y-77025974D01*
X108239184Y-77025974D02*
X108272581Y-77092768D01*
X108272581Y-77092768D02*
X108272581Y-77159563D01*
X108272581Y-77159563D02*
X108239184Y-77259754D01*
X108239184Y-77259754D02*
X107838418Y-77660520D01*
X107838418Y-77660520D02*
X108272581Y-77660520D01*
X108940524Y-77660520D02*
X108539758Y-77660520D01*
X108740141Y-77660520D02*
X108740141Y-76959180D01*
X108740141Y-76959180D02*
X108673347Y-77059371D01*
X108673347Y-77059371D02*
X108606552Y-77126165D01*
X108606552Y-77126165D02*
X108539758Y-77159563D01*
X108049138Y-114660520D02*
X107815358Y-114326548D01*
X107648372Y-114660520D02*
X107648372Y-113959180D01*
X107648372Y-113959180D02*
X107915549Y-113959180D01*
X107915549Y-113959180D02*
X107982344Y-113992577D01*
X107982344Y-113992577D02*
X108015741Y-114025974D01*
X108015741Y-114025974D02*
X108049138Y-114092768D01*
X108049138Y-114092768D02*
X108049138Y-114192960D01*
X108049138Y-114192960D02*
X108015741Y-114259754D01*
X108015741Y-114259754D02*
X107982344Y-114293151D01*
X107982344Y-114293151D02*
X107915549Y-114326548D01*
X107915549Y-114326548D02*
X107648372Y-114326548D01*
X108316315Y-114025974D02*
X108349712Y-113992577D01*
X108349712Y-113992577D02*
X108416507Y-113959180D01*
X108416507Y-113959180D02*
X108583492Y-113959180D01*
X108583492Y-113959180D02*
X108650287Y-113992577D01*
X108650287Y-113992577D02*
X108683684Y-114025974D01*
X108683684Y-114025974D02*
X108717081Y-114092768D01*
X108717081Y-114092768D02*
X108717081Y-114159563D01*
X108717081Y-114159563D02*
X108683684Y-114259754D01*
X108683684Y-114259754D02*
X108282918Y-114660520D01*
X108282918Y-114660520D02*
X108717081Y-114660520D01*
X109151244Y-113959180D02*
X109218038Y-113959180D01*
X109218038Y-113959180D02*
X109284832Y-113992577D01*
X109284832Y-113992577D02*
X109318230Y-114025974D01*
X109318230Y-114025974D02*
X109351627Y-114092768D01*
X109351627Y-114092768D02*
X109385024Y-114226357D01*
X109385024Y-114226357D02*
X109385024Y-114393343D01*
X109385024Y-114393343D02*
X109351627Y-114526931D01*
X109351627Y-114526931D02*
X109318230Y-114593725D01*
X109318230Y-114593725D02*
X109284832Y-114627123D01*
X109284832Y-114627123D02*
X109218038Y-114660520D01*
X109218038Y-114660520D02*
X109151244Y-114660520D01*
X109151244Y-114660520D02*
X109084450Y-114627123D01*
X109084450Y-114627123D02*
X109051052Y-114593725D01*
X109051052Y-114593725D02*
X109017655Y-114526931D01*
X109017655Y-114526931D02*
X108984258Y-114393343D01*
X108984258Y-114393343D02*
X108984258Y-114226357D01*
X108984258Y-114226357D02*
X109017655Y-114092768D01*
X109017655Y-114092768D02*
X109051052Y-114025974D01*
X109051052Y-114025974D02*
X109084450Y-113992577D01*
X109084450Y-113992577D02*
X109151244Y-113959180D01*
X107549138Y-116660520D02*
X107315358Y-116326548D01*
X107148372Y-116660520D02*
X107148372Y-115959180D01*
X107148372Y-115959180D02*
X107415549Y-115959180D01*
X107415549Y-115959180D02*
X107482344Y-115992577D01*
X107482344Y-115992577D02*
X107515741Y-116025974D01*
X107515741Y-116025974D02*
X107549138Y-116092768D01*
X107549138Y-116092768D02*
X107549138Y-116192960D01*
X107549138Y-116192960D02*
X107515741Y-116259754D01*
X107515741Y-116259754D02*
X107482344Y-116293151D01*
X107482344Y-116293151D02*
X107415549Y-116326548D01*
X107415549Y-116326548D02*
X107148372Y-116326548D01*
X108217081Y-116660520D02*
X107816315Y-116660520D01*
X108016698Y-116660520D02*
X108016698Y-115959180D01*
X108016698Y-115959180D02*
X107949904Y-116059371D01*
X107949904Y-116059371D02*
X107883109Y-116126165D01*
X107883109Y-116126165D02*
X107816315Y-116159563D01*
X108551052Y-116660520D02*
X108684641Y-116660520D01*
X108684641Y-116660520D02*
X108751435Y-116627123D01*
X108751435Y-116627123D02*
X108784832Y-116593725D01*
X108784832Y-116593725D02*
X108851627Y-116493534D01*
X108851627Y-116493534D02*
X108885024Y-116359945D01*
X108885024Y-116359945D02*
X108885024Y-116092768D01*
X108885024Y-116092768D02*
X108851627Y-116025974D01*
X108851627Y-116025974D02*
X108818230Y-115992577D01*
X108818230Y-115992577D02*
X108751435Y-115959180D01*
X108751435Y-115959180D02*
X108617847Y-115959180D01*
X108617847Y-115959180D02*
X108551052Y-115992577D01*
X108551052Y-115992577D02*
X108517655Y-116025974D01*
X108517655Y-116025974D02*
X108484258Y-116092768D01*
X108484258Y-116092768D02*
X108484258Y-116259754D01*
X108484258Y-116259754D02*
X108517655Y-116326548D01*
X108517655Y-116326548D02*
X108551052Y-116359945D01*
X108551052Y-116359945D02*
X108617847Y-116393343D01*
X108617847Y-116393343D02*
X108751435Y-116393343D01*
X108751435Y-116393343D02*
X108818230Y-116359945D01*
X108818230Y-116359945D02*
X108851627Y-116326548D01*
X108851627Y-116326548D02*
X108885024Y-116259754D01*
X108049138Y-118910520D02*
X107815358Y-118576548D01*
X107648372Y-118910520D02*
X107648372Y-118209180D01*
X107648372Y-118209180D02*
X107915549Y-118209180D01*
X107915549Y-118209180D02*
X107982344Y-118242577D01*
X107982344Y-118242577D02*
X108015741Y-118275974D01*
X108015741Y-118275974D02*
X108049138Y-118342768D01*
X108049138Y-118342768D02*
X108049138Y-118442960D01*
X108049138Y-118442960D02*
X108015741Y-118509754D01*
X108015741Y-118509754D02*
X107982344Y-118543151D01*
X107982344Y-118543151D02*
X107915549Y-118576548D01*
X107915549Y-118576548D02*
X107648372Y-118576548D01*
X108717081Y-118910520D02*
X108316315Y-118910520D01*
X108516698Y-118910520D02*
X108516698Y-118209180D01*
X108516698Y-118209180D02*
X108449904Y-118309371D01*
X108449904Y-118309371D02*
X108383109Y-118376165D01*
X108383109Y-118376165D02*
X108316315Y-118409563D01*
X109117847Y-118509754D02*
X109051052Y-118476357D01*
X109051052Y-118476357D02*
X109017655Y-118442960D01*
X109017655Y-118442960D02*
X108984258Y-118376165D01*
X108984258Y-118376165D02*
X108984258Y-118342768D01*
X108984258Y-118342768D02*
X109017655Y-118275974D01*
X109017655Y-118275974D02*
X109051052Y-118242577D01*
X109051052Y-118242577D02*
X109117847Y-118209180D01*
X109117847Y-118209180D02*
X109251435Y-118209180D01*
X109251435Y-118209180D02*
X109318230Y-118242577D01*
X109318230Y-118242577D02*
X109351627Y-118275974D01*
X109351627Y-118275974D02*
X109385024Y-118342768D01*
X109385024Y-118342768D02*
X109385024Y-118376165D01*
X109385024Y-118376165D02*
X109351627Y-118442960D01*
X109351627Y-118442960D02*
X109318230Y-118476357D01*
X109318230Y-118476357D02*
X109251435Y-118509754D01*
X109251435Y-118509754D02*
X109117847Y-118509754D01*
X109117847Y-118509754D02*
X109051052Y-118543151D01*
X109051052Y-118543151D02*
X109017655Y-118576548D01*
X109017655Y-118576548D02*
X108984258Y-118643343D01*
X108984258Y-118643343D02*
X108984258Y-118776931D01*
X108984258Y-118776931D02*
X109017655Y-118843725D01*
X109017655Y-118843725D02*
X109051052Y-118877123D01*
X109051052Y-118877123D02*
X109117847Y-118910520D01*
X109117847Y-118910520D02*
X109251435Y-118910520D01*
X109251435Y-118910520D02*
X109318230Y-118877123D01*
X109318230Y-118877123D02*
X109351627Y-118843725D01*
X109351627Y-118843725D02*
X109385024Y-118776931D01*
X109385024Y-118776931D02*
X109385024Y-118643343D01*
X109385024Y-118643343D02*
X109351627Y-118576548D01*
X109351627Y-118576548D02*
X109318230Y-118543151D01*
X109318230Y-118543151D02*
X109251435Y-118509754D01*
X103429523Y-118194819D02*
X103096190Y-117718628D01*
X102858095Y-118194819D02*
X102858095Y-117194819D01*
X102858095Y-117194819D02*
X103239047Y-117194819D01*
X103239047Y-117194819D02*
X103334285Y-117242438D01*
X103334285Y-117242438D02*
X103381904Y-117290057D01*
X103381904Y-117290057D02*
X103429523Y-117385295D01*
X103429523Y-117385295D02*
X103429523Y-117528152D01*
X103429523Y-117528152D02*
X103381904Y-117623390D01*
X103381904Y-117623390D02*
X103334285Y-117671009D01*
X103334285Y-117671009D02*
X103239047Y-117718628D01*
X103239047Y-117718628D02*
X102858095Y-117718628D01*
X103762857Y-117194819D02*
X104429523Y-117194819D01*
X104429523Y-117194819D02*
X104000952Y-118194819D01*
X111404761Y-116976807D02*
X111309523Y-116929188D01*
X111309523Y-116929188D02*
X111214285Y-116833950D01*
X111214285Y-116833950D02*
X111071428Y-116691092D01*
X111071428Y-116691092D02*
X110976190Y-116643473D01*
X110976190Y-116643473D02*
X110880952Y-116643473D01*
X110928571Y-116881569D02*
X110833333Y-116833950D01*
X110833333Y-116833950D02*
X110738095Y-116738711D01*
X110738095Y-116738711D02*
X110690476Y-116548235D01*
X110690476Y-116548235D02*
X110690476Y-116214902D01*
X110690476Y-116214902D02*
X110738095Y-116024426D01*
X110738095Y-116024426D02*
X110833333Y-115929188D01*
X110833333Y-115929188D02*
X110928571Y-115881569D01*
X110928571Y-115881569D02*
X111119047Y-115881569D01*
X111119047Y-115881569D02*
X111214285Y-115929188D01*
X111214285Y-115929188D02*
X111309523Y-116024426D01*
X111309523Y-116024426D02*
X111357142Y-116214902D01*
X111357142Y-116214902D02*
X111357142Y-116548235D01*
X111357142Y-116548235D02*
X111309523Y-116738711D01*
X111309523Y-116738711D02*
X111214285Y-116833950D01*
X111214285Y-116833950D02*
X111119047Y-116881569D01*
X111119047Y-116881569D02*
X110928571Y-116881569D01*
X112214285Y-116214902D02*
X112214285Y-116881569D01*
X111976190Y-115833950D02*
X111738095Y-116548235D01*
X111738095Y-116548235D02*
X112357142Y-116548235D01*
X104470714Y-120454819D02*
X104470714Y-119454819D01*
X104470714Y-119454819D02*
X104708809Y-119454819D01*
X104708809Y-119454819D02*
X104851666Y-119502438D01*
X104851666Y-119502438D02*
X104946904Y-119597676D01*
X104946904Y-119597676D02*
X104994523Y-119692914D01*
X104994523Y-119692914D02*
X105042142Y-119883390D01*
X105042142Y-119883390D02*
X105042142Y-120026247D01*
X105042142Y-120026247D02*
X104994523Y-120216723D01*
X104994523Y-120216723D02*
X104946904Y-120311961D01*
X104946904Y-120311961D02*
X104851666Y-120407200D01*
X104851666Y-120407200D02*
X104708809Y-120454819D01*
X104708809Y-120454819D02*
X104470714Y-120454819D01*
X105899285Y-119454819D02*
X105708809Y-119454819D01*
X105708809Y-119454819D02*
X105613571Y-119502438D01*
X105613571Y-119502438D02*
X105565952Y-119550057D01*
X105565952Y-119550057D02*
X105470714Y-119692914D01*
X105470714Y-119692914D02*
X105423095Y-119883390D01*
X105423095Y-119883390D02*
X105423095Y-120264342D01*
X105423095Y-120264342D02*
X105470714Y-120359580D01*
X105470714Y-120359580D02*
X105518333Y-120407200D01*
X105518333Y-120407200D02*
X105613571Y-120454819D01*
X105613571Y-120454819D02*
X105804047Y-120454819D01*
X105804047Y-120454819D02*
X105899285Y-120407200D01*
X105899285Y-120407200D02*
X105946904Y-120359580D01*
X105946904Y-120359580D02*
X105994523Y-120264342D01*
X105994523Y-120264342D02*
X105994523Y-120026247D01*
X105994523Y-120026247D02*
X105946904Y-119931009D01*
X105946904Y-119931009D02*
X105899285Y-119883390D01*
X105899285Y-119883390D02*
X105804047Y-119835771D01*
X105804047Y-119835771D02*
X105613571Y-119835771D01*
X105613571Y-119835771D02*
X105518333Y-119883390D01*
X105518333Y-119883390D02*
X105470714Y-119931009D01*
X105470714Y-119931009D02*
X105423095Y-120026247D01*
X112992261Y-93246807D02*
X112897023Y-93199188D01*
X112897023Y-93199188D02*
X112801785Y-93103950D01*
X112801785Y-93103950D02*
X112658928Y-92961092D01*
X112658928Y-92961092D02*
X112563690Y-92913473D01*
X112563690Y-92913473D02*
X112468452Y-92913473D01*
X112516071Y-93151569D02*
X112420833Y-93103950D01*
X112420833Y-93103950D02*
X112325595Y-93008711D01*
X112325595Y-93008711D02*
X112277976Y-92818235D01*
X112277976Y-92818235D02*
X112277976Y-92484902D01*
X112277976Y-92484902D02*
X112325595Y-92294426D01*
X112325595Y-92294426D02*
X112420833Y-92199188D01*
X112420833Y-92199188D02*
X112516071Y-92151569D01*
X112516071Y-92151569D02*
X112706547Y-92151569D01*
X112706547Y-92151569D02*
X112801785Y-92199188D01*
X112801785Y-92199188D02*
X112897023Y-92294426D01*
X112897023Y-92294426D02*
X112944642Y-92484902D01*
X112944642Y-92484902D02*
X112944642Y-92818235D01*
X112944642Y-92818235D02*
X112897023Y-93008711D01*
X112897023Y-93008711D02*
X112801785Y-93103950D01*
X112801785Y-93103950D02*
X112706547Y-93151569D01*
X112706547Y-93151569D02*
X112516071Y-93151569D01*
X113897023Y-93151569D02*
X113325595Y-93151569D01*
X113611309Y-93151569D02*
X113611309Y-92151569D01*
X113611309Y-92151569D02*
X113516071Y-92294426D01*
X113516071Y-92294426D02*
X113420833Y-92389664D01*
X113420833Y-92389664D02*
X113325595Y-92437283D01*
X120789405Y-109431569D02*
X120789405Y-108431569D01*
X120789405Y-108431569D02*
X121027500Y-108431569D01*
X121027500Y-108431569D02*
X121170357Y-108479188D01*
X121170357Y-108479188D02*
X121265595Y-108574426D01*
X121265595Y-108574426D02*
X121313214Y-108669664D01*
X121313214Y-108669664D02*
X121360833Y-108860140D01*
X121360833Y-108860140D02*
X121360833Y-109002997D01*
X121360833Y-109002997D02*
X121313214Y-109193473D01*
X121313214Y-109193473D02*
X121265595Y-109288711D01*
X121265595Y-109288711D02*
X121170357Y-109383950D01*
X121170357Y-109383950D02*
X121027500Y-109431569D01*
X121027500Y-109431569D02*
X120789405Y-109431569D01*
X121741786Y-108526807D02*
X121789405Y-108479188D01*
X121789405Y-108479188D02*
X121884643Y-108431569D01*
X121884643Y-108431569D02*
X122122738Y-108431569D01*
X122122738Y-108431569D02*
X122217976Y-108479188D01*
X122217976Y-108479188D02*
X122265595Y-108526807D01*
X122265595Y-108526807D02*
X122313214Y-108622045D01*
X122313214Y-108622045D02*
X122313214Y-108717283D01*
X122313214Y-108717283D02*
X122265595Y-108860140D01*
X122265595Y-108860140D02*
X121694167Y-109431569D01*
X121694167Y-109431569D02*
X122313214Y-109431569D01*
X109669642Y-105226807D02*
X109574404Y-105179188D01*
X109574404Y-105179188D02*
X109479166Y-105083950D01*
X109479166Y-105083950D02*
X109336309Y-104941092D01*
X109336309Y-104941092D02*
X109241071Y-104893473D01*
X109241071Y-104893473D02*
X109145833Y-104893473D01*
X109193452Y-105131569D02*
X109098214Y-105083950D01*
X109098214Y-105083950D02*
X109002976Y-104988711D01*
X109002976Y-104988711D02*
X108955357Y-104798235D01*
X108955357Y-104798235D02*
X108955357Y-104464902D01*
X108955357Y-104464902D02*
X109002976Y-104274426D01*
X109002976Y-104274426D02*
X109098214Y-104179188D01*
X109098214Y-104179188D02*
X109193452Y-104131569D01*
X109193452Y-104131569D02*
X109383928Y-104131569D01*
X109383928Y-104131569D02*
X109479166Y-104179188D01*
X109479166Y-104179188D02*
X109574404Y-104274426D01*
X109574404Y-104274426D02*
X109622023Y-104464902D01*
X109622023Y-104464902D02*
X109622023Y-104798235D01*
X109622023Y-104798235D02*
X109574404Y-104988711D01*
X109574404Y-104988711D02*
X109479166Y-105083950D01*
X109479166Y-105083950D02*
X109383928Y-105131569D01*
X109383928Y-105131569D02*
X109193452Y-105131569D01*
X110002976Y-104226807D02*
X110050595Y-104179188D01*
X110050595Y-104179188D02*
X110145833Y-104131569D01*
X110145833Y-104131569D02*
X110383928Y-104131569D01*
X110383928Y-104131569D02*
X110479166Y-104179188D01*
X110479166Y-104179188D02*
X110526785Y-104226807D01*
X110526785Y-104226807D02*
X110574404Y-104322045D01*
X110574404Y-104322045D02*
X110574404Y-104417283D01*
X110574404Y-104417283D02*
X110526785Y-104560140D01*
X110526785Y-104560140D02*
X109955357Y-105131569D01*
X109955357Y-105131569D02*
X110574404Y-105131569D01*
X110764881Y-105226807D02*
X111526785Y-105226807D01*
X111669643Y-104131569D02*
X112288690Y-104131569D01*
X112288690Y-104131569D02*
X111955357Y-104512521D01*
X111955357Y-104512521D02*
X112098214Y-104512521D01*
X112098214Y-104512521D02*
X112193452Y-104560140D01*
X112193452Y-104560140D02*
X112241071Y-104607759D01*
X112241071Y-104607759D02*
X112288690Y-104702997D01*
X112288690Y-104702997D02*
X112288690Y-104941092D01*
X112288690Y-104941092D02*
X112241071Y-105036330D01*
X112241071Y-105036330D02*
X112193452Y-105083950D01*
X112193452Y-105083950D02*
X112098214Y-105131569D01*
X112098214Y-105131569D02*
X111812500Y-105131569D01*
X111812500Y-105131569D02*
X111717262Y-105083950D01*
X111717262Y-105083950D02*
X111669643Y-105036330D01*
X112669643Y-104226807D02*
X112717262Y-104179188D01*
X112717262Y-104179188D02*
X112812500Y-104131569D01*
X112812500Y-104131569D02*
X113050595Y-104131569D01*
X113050595Y-104131569D02*
X113145833Y-104179188D01*
X113145833Y-104179188D02*
X113193452Y-104226807D01*
X113193452Y-104226807D02*
X113241071Y-104322045D01*
X113241071Y-104322045D02*
X113241071Y-104417283D01*
X113241071Y-104417283D02*
X113193452Y-104560140D01*
X113193452Y-104560140D02*
X112622024Y-105131569D01*
X112622024Y-105131569D02*
X113241071Y-105131569D01*
X113669643Y-105131569D02*
X113669643Y-104464902D01*
X113669643Y-104560140D02*
X113717262Y-104512521D01*
X113717262Y-104512521D02*
X113812500Y-104464902D01*
X113812500Y-104464902D02*
X113955357Y-104464902D01*
X113955357Y-104464902D02*
X114050595Y-104512521D01*
X114050595Y-104512521D02*
X114098214Y-104607759D01*
X114098214Y-104607759D02*
X114098214Y-105131569D01*
X114098214Y-104607759D02*
X114145833Y-104512521D01*
X114145833Y-104512521D02*
X114241071Y-104464902D01*
X114241071Y-104464902D02*
X114383928Y-104464902D01*
X114383928Y-104464902D02*
X114479167Y-104512521D01*
X114479167Y-104512521D02*
X114526786Y-104607759D01*
X114526786Y-104607759D02*
X114526786Y-105131569D01*
X114907738Y-104131569D02*
X115145833Y-105131569D01*
X115145833Y-105131569D02*
X115336309Y-104417283D01*
X115336309Y-104417283D02*
X115526785Y-105131569D01*
X115526785Y-105131569D02*
X115764881Y-104131569D01*
X116669642Y-105131569D02*
X116098214Y-105131569D01*
X116383928Y-105131569D02*
X116383928Y-104131569D01*
X116383928Y-104131569D02*
X116288690Y-104274426D01*
X116288690Y-104274426D02*
X116193452Y-104369664D01*
X116193452Y-104369664D02*
X116098214Y-104417283D01*
X139811457Y-53684919D02*
X139811457Y-54142512D01*
X139811457Y-54142512D02*
X139780950Y-54234030D01*
X139780950Y-54234030D02*
X139719938Y-54295043D01*
X139719938Y-54295043D02*
X139628419Y-54325549D01*
X139628419Y-54325549D02*
X139567407Y-54325549D01*
X140055506Y-53684919D02*
X140482593Y-53684919D01*
X140482593Y-53684919D02*
X140208037Y-54325549D01*
X112549138Y-89271520D02*
X112315358Y-88937548D01*
X112148372Y-89271520D02*
X112148372Y-88570180D01*
X112148372Y-88570180D02*
X112415549Y-88570180D01*
X112415549Y-88570180D02*
X112482344Y-88603577D01*
X112482344Y-88603577D02*
X112515741Y-88636974D01*
X112515741Y-88636974D02*
X112549138Y-88703768D01*
X112549138Y-88703768D02*
X112549138Y-88803960D01*
X112549138Y-88803960D02*
X112515741Y-88870754D01*
X112515741Y-88870754D02*
X112482344Y-88904151D01*
X112482344Y-88904151D02*
X112415549Y-88937548D01*
X112415549Y-88937548D02*
X112148372Y-88937548D01*
X113217081Y-89271520D02*
X112816315Y-89271520D01*
X113016698Y-89271520D02*
X113016698Y-88570180D01*
X113016698Y-88570180D02*
X112949904Y-88670371D01*
X112949904Y-88670371D02*
X112883109Y-88737165D01*
X112883109Y-88737165D02*
X112816315Y-88770563D01*
X113818230Y-88803960D02*
X113818230Y-89271520D01*
X113651244Y-88536783D02*
X113484258Y-89037740D01*
X113484258Y-89037740D02*
X113918421Y-89037740D01*
X111383110Y-90716020D02*
X111149330Y-90382048D01*
X110982344Y-90716020D02*
X110982344Y-90014680D01*
X110982344Y-90014680D02*
X111249521Y-90014680D01*
X111249521Y-90014680D02*
X111316316Y-90048077D01*
X111316316Y-90048077D02*
X111349713Y-90081474D01*
X111349713Y-90081474D02*
X111383110Y-90148268D01*
X111383110Y-90148268D02*
X111383110Y-90248460D01*
X111383110Y-90248460D02*
X111349713Y-90315254D01*
X111349713Y-90315254D02*
X111316316Y-90348651D01*
X111316316Y-90348651D02*
X111249521Y-90382048D01*
X111249521Y-90382048D02*
X110982344Y-90382048D01*
X111984259Y-90248460D02*
X111984259Y-90716020D01*
X111817273Y-89981283D02*
X111650287Y-90482240D01*
X111650287Y-90482240D02*
X112084450Y-90482240D01*
X112284405Y-113478069D02*
X112284405Y-112478069D01*
X112284405Y-112478069D02*
X112522500Y-112478069D01*
X112522500Y-112478069D02*
X112665357Y-112525688D01*
X112665357Y-112525688D02*
X112760595Y-112620926D01*
X112760595Y-112620926D02*
X112808214Y-112716164D01*
X112808214Y-112716164D02*
X112855833Y-112906640D01*
X112855833Y-112906640D02*
X112855833Y-113049497D01*
X112855833Y-113049497D02*
X112808214Y-113239973D01*
X112808214Y-113239973D02*
X112760595Y-113335211D01*
X112760595Y-113335211D02*
X112665357Y-113430450D01*
X112665357Y-113430450D02*
X112522500Y-113478069D01*
X112522500Y-113478069D02*
X112284405Y-113478069D01*
X113808214Y-113478069D02*
X113236786Y-113478069D01*
X113522500Y-113478069D02*
X113522500Y-112478069D01*
X113522500Y-112478069D02*
X113427262Y-112620926D01*
X113427262Y-112620926D02*
X113332024Y-112716164D01*
X113332024Y-112716164D02*
X113236786Y-112763783D01*
X130734405Y-108931569D02*
X130734405Y-107931569D01*
X130734405Y-107931569D02*
X130972500Y-107931569D01*
X130972500Y-107931569D02*
X131115357Y-107979188D01*
X131115357Y-107979188D02*
X131210595Y-108074426D01*
X131210595Y-108074426D02*
X131258214Y-108169664D01*
X131258214Y-108169664D02*
X131305833Y-108360140D01*
X131305833Y-108360140D02*
X131305833Y-108502997D01*
X131305833Y-108502997D02*
X131258214Y-108693473D01*
X131258214Y-108693473D02*
X131210595Y-108788711D01*
X131210595Y-108788711D02*
X131115357Y-108883950D01*
X131115357Y-108883950D02*
X130972500Y-108931569D01*
X130972500Y-108931569D02*
X130734405Y-108931569D01*
X131639167Y-107931569D02*
X132258214Y-107931569D01*
X132258214Y-107931569D02*
X131924881Y-108312521D01*
X131924881Y-108312521D02*
X132067738Y-108312521D01*
X132067738Y-108312521D02*
X132162976Y-108360140D01*
X132162976Y-108360140D02*
X132210595Y-108407759D01*
X132210595Y-108407759D02*
X132258214Y-108502997D01*
X132258214Y-108502997D02*
X132258214Y-108741092D01*
X132258214Y-108741092D02*
X132210595Y-108836330D01*
X132210595Y-108836330D02*
X132162976Y-108883950D01*
X132162976Y-108883950D02*
X132067738Y-108931569D01*
X132067738Y-108931569D02*
X131782024Y-108931569D01*
X131782024Y-108931569D02*
X131686786Y-108883950D01*
X131686786Y-108883950D02*
X131639167Y-108836330D01*
X104166666Y-88331569D02*
X104166666Y-89045854D01*
X104166666Y-89045854D02*
X104119047Y-89188711D01*
X104119047Y-89188711D02*
X104023809Y-89283950D01*
X104023809Y-89283950D02*
X103880952Y-89331569D01*
X103880952Y-89331569D02*
X103785714Y-89331569D01*
X104595238Y-88426807D02*
X104642857Y-88379188D01*
X104642857Y-88379188D02*
X104738095Y-88331569D01*
X104738095Y-88331569D02*
X104976190Y-88331569D01*
X104976190Y-88331569D02*
X105071428Y-88379188D01*
X105071428Y-88379188D02*
X105119047Y-88426807D01*
X105119047Y-88426807D02*
X105166666Y-88522045D01*
X105166666Y-88522045D02*
X105166666Y-88617283D01*
X105166666Y-88617283D02*
X105119047Y-88760140D01*
X105119047Y-88760140D02*
X104547619Y-89331569D01*
X104547619Y-89331569D02*
X105166666Y-89331569D01*
X126784405Y-105931569D02*
X126784405Y-104931569D01*
X126784405Y-104931569D02*
X127022500Y-104931569D01*
X127022500Y-104931569D02*
X127165357Y-104979188D01*
X127165357Y-104979188D02*
X127260595Y-105074426D01*
X127260595Y-105074426D02*
X127308214Y-105169664D01*
X127308214Y-105169664D02*
X127355833Y-105360140D01*
X127355833Y-105360140D02*
X127355833Y-105502997D01*
X127355833Y-105502997D02*
X127308214Y-105693473D01*
X127308214Y-105693473D02*
X127260595Y-105788711D01*
X127260595Y-105788711D02*
X127165357Y-105883950D01*
X127165357Y-105883950D02*
X127022500Y-105931569D01*
X127022500Y-105931569D02*
X126784405Y-105931569D01*
X128212976Y-105264902D02*
X128212976Y-105931569D01*
X127974881Y-104883950D02*
X127736786Y-105598235D01*
X127736786Y-105598235D02*
X128355833Y-105598235D01*
D11*
%TO.C,PowerUpload1*%
X121468400Y-116900000D02*
X121468400Y-115200000D01*
X130808400Y-116900000D02*
X130808400Y-115200000D01*
%TO.C,J5 -/+*%
X113640000Y-114890000D02*
X113640000Y-116140000D01*
X113940000Y-115190000D02*
X113940000Y-119910000D01*
X113940000Y-116500000D02*
X114550000Y-116500000D01*
X113940000Y-117800000D02*
X114550000Y-117800000D01*
X113940000Y-119910000D02*
X120060000Y-119910000D01*
X114550000Y-115800000D02*
X114550000Y-119300000D01*
X114550000Y-119300000D02*
X119450000Y-119300000D01*
X114890000Y-114890000D02*
X113640000Y-114890000D01*
X115400000Y-114990000D02*
X115400000Y-115190000D01*
X115700000Y-114990000D02*
X115400000Y-114990000D01*
X115700000Y-115090000D02*
X115400000Y-115090000D01*
X115700000Y-115190000D02*
X115700000Y-114990000D01*
X116500000Y-115190000D02*
X116500000Y-115800000D01*
X116500000Y-115800000D02*
X114550000Y-115800000D01*
X116900000Y-118800000D02*
X117100000Y-118800000D01*
X116900000Y-119300000D02*
X116900000Y-118800000D01*
X117000000Y-119300000D02*
X117000000Y-118800000D01*
X117100000Y-118800000D02*
X117100000Y-119300000D01*
X117500000Y-115800000D02*
X117500000Y-115190000D01*
X119450000Y-115800000D02*
X117500000Y-115800000D01*
X119450000Y-119300000D02*
X119450000Y-115800000D01*
X120060000Y-115190000D02*
X113940000Y-115190000D01*
X120060000Y-116500000D02*
X119450000Y-116500000D01*
X120060000Y-117800000D02*
X119450000Y-117800000D01*
X120060000Y-119910000D02*
X120060000Y-115190000D01*
%TO.C,BLINKY1*%
X104272500Y-115235000D02*
X104272500Y-113765000D01*
X104272500Y-113765000D02*
X101987500Y-113765000D01*
X101987500Y-115235000D02*
X104272500Y-115235000D01*
%TO.C,J8*%
X141847500Y-90620000D02*
X141847500Y-79880000D01*
X145467500Y-90620000D02*
X145467500Y-89380000D01*
X146467500Y-90620000D02*
X146467500Y-89380000D01*
X147767500Y-90620000D02*
X147767500Y-89380000D01*
X149887500Y-90620000D02*
X141847500Y-90620000D01*
X149887500Y-87800000D02*
X149887500Y-90620000D01*
X145467500Y-85620000D02*
X145467500Y-84312000D01*
X146467500Y-85620000D02*
X146467500Y-84312000D01*
X147767500Y-85620000D02*
X147767500Y-83043000D01*
X147767500Y-81957000D02*
X147767500Y-79880000D01*
X145467500Y-80688000D02*
X145467500Y-79880000D01*
X146467500Y-80688000D02*
X146467500Y-79880000D01*
X141847500Y-79880000D02*
X149887500Y-79880000D01*
X149887500Y-79880000D02*
X149887500Y-87200000D01*
X150497500Y-87940000D02*
X149887500Y-87500000D01*
X150497500Y-87060000D01*
X150497500Y-87940000D01*
G36*
X150497500Y-87940000D02*
G01*
X149887500Y-87500000D01*
X150497500Y-87060000D01*
X150497500Y-87940000D01*
G37*
%TO.C,J1*%
X141880000Y-79120000D02*
X141880000Y-68380000D01*
X145500000Y-79120000D02*
X145500000Y-77880000D01*
X146500000Y-79120000D02*
X146500000Y-77880000D01*
X147800000Y-79120000D02*
X147800000Y-77880000D01*
X149920000Y-79120000D02*
X141880000Y-79120000D01*
X149920000Y-76300000D02*
X149920000Y-79120000D01*
X145500000Y-74120000D02*
X145500000Y-72812000D01*
X146500000Y-74120000D02*
X146500000Y-72812000D01*
X147800000Y-74120000D02*
X147800000Y-71543000D01*
X147800000Y-70457000D02*
X147800000Y-68380000D01*
X145500000Y-69188000D02*
X145500000Y-68380000D01*
X146500000Y-69188000D02*
X146500000Y-68380000D01*
X141880000Y-68380000D02*
X149920000Y-68380000D01*
X149920000Y-68380000D02*
X149920000Y-75700000D01*
X150530000Y-76440000D02*
X149920000Y-76000000D01*
X150530000Y-75560000D01*
X150530000Y-76440000D01*
G36*
X150530000Y-76440000D02*
G01*
X149920000Y-76000000D01*
X150530000Y-75560000D01*
X150530000Y-76440000D01*
G37*
D12*
%TO.C,R21*%
X108817500Y-78055500D02*
G75*
G02*
X108944500Y-78182500I0J-127000D01*
G01*
X108944500Y-78817500D02*
G75*
G02*
X108817500Y-78944500I-127000J0D01*
G01*
X107293500Y-78944500D02*
G75*
G02*
X107166500Y-78817500I0J127000D01*
G01*
X107166500Y-78182500D02*
G75*
G02*
X107293500Y-78055500I127000J0D01*
G01*
%TO.C,R20*%
X109262000Y-115055500D02*
G75*
G02*
X109389000Y-115182500I0J-127000D01*
G01*
X109389000Y-115817500D02*
G75*
G02*
X109262000Y-115944500I-127000J0D01*
G01*
X107738000Y-115944500D02*
G75*
G02*
X107611000Y-115817500I0J127000D01*
G01*
X107611000Y-115182500D02*
G75*
G02*
X107738000Y-115055500I127000J0D01*
G01*
%TO.C,R19*%
X106738000Y-117944500D02*
G75*
G02*
X106611000Y-117817500I0J127000D01*
G01*
X106611000Y-117182500D02*
G75*
G02*
X106738000Y-117055500I127000J0D01*
G01*
X108262000Y-117055500D02*
G75*
G02*
X108389000Y-117182500I0J-127000D01*
G01*
X108389000Y-117817500D02*
G75*
G02*
X108262000Y-117944500I-127000J0D01*
G01*
%TO.C,R18*%
X108738000Y-120444500D02*
G75*
G02*
X108611000Y-120317500I0J127000D01*
G01*
X108611000Y-119682500D02*
G75*
G02*
X108738000Y-119555500I127000J0D01*
G01*
X110262000Y-119555500D02*
G75*
G02*
X110389000Y-119682500I0J-127000D01*
G01*
X110389000Y-120317500D02*
G75*
G02*
X110262000Y-120444500I-127000J0D01*
G01*
D11*
%TO.C,R7*%
X101620000Y-117143641D02*
X101620000Y-116836359D01*
X102380000Y-117143641D02*
X102380000Y-116836359D01*
%TO.C,Q4*%
X111500000Y-120560000D02*
X112150000Y-120560000D01*
X111500000Y-120560000D02*
X110850000Y-120560000D01*
X111500000Y-117440000D02*
X112150000Y-117440000D01*
X111500000Y-117440000D02*
X110850000Y-117440000D01*
X112902500Y-120840000D02*
X112422500Y-120840000D01*
X112662500Y-120510000D01*
X112902500Y-120840000D01*
G36*
X112902500Y-120840000D02*
G01*
X112422500Y-120840000D01*
X112662500Y-120510000D01*
X112902500Y-120840000D01*
G37*
D13*
%TO.C,D6*%
X106460000Y-120000000D02*
G75*
G02*
X106360000Y-120000000I-50000J0D01*
G01*
X106360000Y-120000000D02*
G75*
G02*
X106460000Y-120000000I50000J0D01*
G01*
D11*
%TO.C,ESP32S3*%
X116550000Y-71180000D02*
X134950000Y-71180000D01*
X116550000Y-89780000D02*
X116550000Y-90780000D01*
X116550000Y-90780000D02*
X118050000Y-90780000D01*
X134950000Y-71180000D02*
X134950000Y-71880000D01*
X134950000Y-90780000D02*
X133450000Y-90780000D01*
X134950000Y-90780000D02*
X134950000Y-89780000D01*
X116550000Y-71930000D02*
X116050000Y-71930000D01*
X116550000Y-71430000D01*
X116550000Y-71930000D01*
G36*
X116550000Y-71930000D02*
G01*
X116050000Y-71930000D01*
X116550000Y-71430000D01*
X116550000Y-71930000D01*
G37*
%TO.C,J6*%
X100347500Y-112370000D02*
X100347500Y-101630000D01*
X103967500Y-112370000D02*
X103967500Y-111130000D01*
X104967500Y-112370000D02*
X104967500Y-111130000D01*
X106267500Y-112370000D02*
X106267500Y-111130000D01*
X108387500Y-112370000D02*
X100347500Y-112370000D01*
X108387500Y-109550000D02*
X108387500Y-112370000D01*
X103967500Y-107370000D02*
X103967500Y-106062000D01*
X104967500Y-107370000D02*
X104967500Y-106062000D01*
X106267500Y-107370000D02*
X106267500Y-104793000D01*
X106267500Y-103707000D02*
X106267500Y-101630000D01*
X103967500Y-102438000D02*
X103967500Y-101630000D01*
X104967500Y-102438000D02*
X104967500Y-101630000D01*
X100347500Y-101630000D02*
X108387500Y-101630000D01*
X108387500Y-101630000D02*
X108387500Y-108950000D01*
X108997500Y-109690000D02*
X108387500Y-109250000D01*
X108997500Y-108810000D01*
X108997500Y-109690000D01*
G36*
X108997500Y-109690000D02*
G01*
X108387500Y-109250000D01*
X108997500Y-108810000D01*
X108997500Y-109690000D01*
G37*
D12*
%TO.C,R17*%
X115738000Y-60944500D02*
G75*
G02*
X115611000Y-60817500I0J127000D01*
G01*
X115611000Y-60182500D02*
G75*
G02*
X115738000Y-60055500I127000J0D01*
G01*
X117262000Y-60055500D02*
G75*
G02*
X117389000Y-60182500I0J-127000D01*
G01*
X117389000Y-60817500D02*
G75*
G02*
X117262000Y-60944500I-127000J0D01*
G01*
D11*
%TO.C,Q1*%
X114560000Y-95500000D02*
X114560000Y-94850000D01*
X114560000Y-95500000D02*
X114560000Y-96150000D01*
X111440000Y-95500000D02*
X111440000Y-94850000D01*
X111440000Y-95500000D02*
X111440000Y-96150000D01*
X114840000Y-94577500D02*
X114510000Y-94337500D01*
X114840000Y-94097500D01*
X114840000Y-94577500D01*
G36*
X114840000Y-94577500D02*
G01*
X114510000Y-94337500D01*
X114840000Y-94097500D01*
X114840000Y-94577500D01*
G37*
%TO.C,Boot2*%
X114248400Y-56060000D02*
X110428400Y-56060000D01*
X110428400Y-56060000D02*
X110428400Y-57410000D01*
X114248400Y-57410000D02*
X114248400Y-56060000D01*
X114248400Y-59910000D02*
X114248400Y-58930000D01*
X110428400Y-59910000D02*
X110428400Y-58930000D01*
X114248400Y-62410000D02*
X114248400Y-61430000D01*
X110428400Y-62410000D02*
X110428400Y-61430000D01*
X114248400Y-65280000D02*
X114248400Y-63930000D01*
X114248400Y-65280000D02*
X110428400Y-65280000D01*
X110428400Y-65280000D02*
X110428400Y-63930000D01*
%TO.C,J4*%
X141880000Y-112120000D02*
X141880000Y-91380000D01*
X145500000Y-112120000D02*
X145500000Y-110880000D01*
X146500000Y-112120000D02*
X146500000Y-110880000D01*
X147800000Y-112120000D02*
X147800000Y-110880000D01*
X149920000Y-112120000D02*
X141880000Y-112120000D01*
X149920000Y-109300000D02*
X149920000Y-112120000D01*
X145500000Y-107120000D02*
X145500000Y-105812000D01*
X146500000Y-107120000D02*
X146500000Y-105812000D01*
X147800000Y-107120000D02*
X147800000Y-104543000D01*
X147800000Y-103457000D02*
X147800000Y-99543000D01*
X145500000Y-102188000D02*
X145500000Y-100812000D01*
X146500000Y-102188000D02*
X146500000Y-100812000D01*
X147800000Y-98457000D02*
X147800000Y-94543000D01*
X145500000Y-97188000D02*
X145500000Y-95812000D01*
X146500000Y-97188000D02*
X146500000Y-95812000D01*
X147800000Y-93457000D02*
X147800000Y-91380000D01*
X145500000Y-92188000D02*
X145500000Y-91380000D01*
X146500000Y-92188000D02*
X146500000Y-91380000D01*
X141880000Y-91380000D02*
X149920000Y-91380000D01*
X149920000Y-91380000D02*
X149920000Y-108700000D01*
X150530000Y-109440000D02*
X149920000Y-109000000D01*
X150530000Y-108560000D01*
X150530000Y-109440000D01*
G36*
X150530000Y-109440000D02*
G01*
X149920000Y-109000000D01*
X150530000Y-108560000D01*
X150530000Y-109440000D01*
G37*
%TO.C,J3*%
X100880000Y-74120000D02*
X100880000Y-53380000D01*
X104500000Y-74120000D02*
X104500000Y-72880000D01*
X105500000Y-74120000D02*
X105500000Y-72880000D01*
X106800000Y-74120000D02*
X106800000Y-72880000D01*
X108920000Y-74120000D02*
X100880000Y-74120000D01*
X108920000Y-71300000D02*
X108920000Y-74120000D01*
X104500000Y-69120000D02*
X104500000Y-67812000D01*
X105500000Y-69120000D02*
X105500000Y-67812000D01*
X106800000Y-69120000D02*
X106800000Y-66543000D01*
X106800000Y-65457000D02*
X106800000Y-61543000D01*
X104500000Y-64188000D02*
X104500000Y-62812000D01*
X105500000Y-64188000D02*
X105500000Y-62812000D01*
X106800000Y-60457000D02*
X106800000Y-56543000D01*
X104500000Y-59188000D02*
X104500000Y-57812000D01*
X105500000Y-59188000D02*
X105500000Y-57812000D01*
X106800000Y-55457000D02*
X106800000Y-53380000D01*
X104500000Y-54188000D02*
X104500000Y-53380000D01*
X105500000Y-54188000D02*
X105500000Y-53380000D01*
X100880000Y-53380000D02*
X108920000Y-53380000D01*
X108920000Y-53380000D02*
X108920000Y-70700000D01*
X109530000Y-71440000D02*
X108920000Y-71000000D01*
X109530000Y-70560000D01*
X109530000Y-71440000D01*
G36*
X109530000Y-71440000D02*
G01*
X108920000Y-71000000D01*
X109530000Y-70560000D01*
X109530000Y-71440000D01*
G37*
D12*
%TO.C,R1*%
X127944500Y-116262000D02*
G75*
G02*
X127817500Y-116389000I-127000J0D01*
G01*
X127182500Y-116389000D02*
G75*
G02*
X127055500Y-116262000I0J127000D01*
G01*
X127055500Y-114738000D02*
G75*
G02*
X127182500Y-114611000I127000J0D01*
G01*
X127817500Y-114611000D02*
G75*
G02*
X127944500Y-114738000I0J-127000D01*
G01*
D11*
%TO.C,D2*%
X119190000Y-109990000D02*
X119190000Y-112010000D01*
X119190000Y-109990000D02*
X122950000Y-109990000D01*
X119190000Y-112010000D02*
X122950000Y-112010000D01*
D12*
%TO.C,R15*%
X110618000Y-103238000D02*
G75*
G02*
X110745000Y-103111000I127000J0D01*
G01*
X111380000Y-103111000D02*
G75*
G02*
X111507000Y-103238000I0J-127000D01*
G01*
X111507000Y-104762000D02*
G75*
G02*
X111380000Y-104889000I-127000J0D01*
G01*
X110745000Y-104889000D02*
G75*
G02*
X110618000Y-104762000I0J127000D01*
G01*
%TO.C,R2*%
X125444500Y-116262000D02*
G75*
G02*
X125317500Y-116389000I-127000J0D01*
G01*
X124682500Y-116389000D02*
G75*
G02*
X124555500Y-116262000I0J127000D01*
G01*
X124555500Y-114738000D02*
G75*
G02*
X124682500Y-114611000I127000J0D01*
G01*
X125317500Y-114611000D02*
G75*
G02*
X125444500Y-114738000I0J-127000D01*
G01*
D11*
%TO.C,Q2_32mW1*%
X112062500Y-109060000D02*
X112712500Y-109060000D01*
X112062500Y-109060000D02*
X111412500Y-109060000D01*
X112062500Y-105940000D02*
X112712500Y-105940000D01*
X112062500Y-105940000D02*
X111412500Y-105940000D01*
X113465000Y-109340000D02*
X112985000Y-109340000D01*
X113225000Y-109010000D01*
X113465000Y-109340000D01*
G36*
X113465000Y-109340000D02*
G01*
X112985000Y-109340000D01*
X113225000Y-109010000D01*
X113465000Y-109340000D01*
G37*
D14*
%TO.C,J7*%
X140325000Y-54950000D02*
X139725000Y-54950000D01*
X139725000Y-54950000D02*
X139725000Y-55200000D01*
X139725000Y-55200000D02*
X139325000Y-55200000D01*
X140725000Y-55200000D02*
X140325000Y-55200000D01*
X140325000Y-55200000D02*
X140325000Y-54950000D01*
D15*
X140105000Y-59110000D02*
G75*
G02*
X139905000Y-59110000I-100000J0D01*
G01*
X139905000Y-59110000D02*
G75*
G02*
X140105000Y-59110000I100000J0D01*
G01*
D12*
%TO.C,R16*%
X112618000Y-101742800D02*
G75*
G02*
X112745000Y-101615800I127000J0D01*
G01*
X113380000Y-101615800D02*
G75*
G02*
X113507000Y-101742800I0J-127000D01*
G01*
X113507000Y-103266800D02*
G75*
G02*
X113380000Y-103393800I-127000J0D01*
G01*
X112745000Y-103393800D02*
G75*
G02*
X112618000Y-103266800I0J127000D01*
G01*
%TO.C,R14*%
X112555500Y-89793500D02*
G75*
G02*
X112682500Y-89666500I127000J0D01*
G01*
X113317500Y-89666500D02*
G75*
G02*
X113444500Y-89793500I0J-127000D01*
G01*
X113444500Y-91317500D02*
G75*
G02*
X113317500Y-91444500I-127000J0D01*
G01*
X112682500Y-91444500D02*
G75*
G02*
X112555500Y-91317500I0J127000D01*
G01*
%TO.C,R4*%
X111055500Y-91238000D02*
G75*
G02*
X111182500Y-91111000I127000J0D01*
G01*
X111817500Y-91111000D02*
G75*
G02*
X111944500Y-91238000I0J-127000D01*
G01*
X111944500Y-92762000D02*
G75*
G02*
X111817500Y-92889000I-127000J0D01*
G01*
X111182500Y-92889000D02*
G75*
G02*
X111055500Y-92762000I0J127000D01*
G01*
D11*
%TO.C,D1*%
X114360000Y-112010000D02*
X114360000Y-109990000D01*
X114360000Y-112010000D02*
X110600000Y-112010000D01*
X114360000Y-109990000D02*
X110600000Y-109990000D01*
%TO.C,D3*%
X133810000Y-111510000D02*
X133810000Y-109490000D01*
X133810000Y-111510000D02*
X130050000Y-111510000D01*
X133810000Y-109490000D02*
X130050000Y-109490000D01*
%TO.C,J2*%
X100347500Y-100870000D02*
X100347500Y-90130000D01*
X103967500Y-100870000D02*
X103967500Y-99630000D01*
X104967500Y-100870000D02*
X104967500Y-99630000D01*
X106267500Y-100870000D02*
X106267500Y-99630000D01*
X108387500Y-100870000D02*
X100347500Y-100870000D01*
X108387500Y-98050000D02*
X108387500Y-100870000D01*
X103967500Y-95870000D02*
X103967500Y-94562000D01*
X104967500Y-95870000D02*
X104967500Y-94562000D01*
X106267500Y-95870000D02*
X106267500Y-93293000D01*
X106267500Y-92207000D02*
X106267500Y-90130000D01*
X103967500Y-90938000D02*
X103967500Y-90130000D01*
X104967500Y-90938000D02*
X104967500Y-90130000D01*
X100347500Y-90130000D02*
X108387500Y-90130000D01*
X108387500Y-90130000D02*
X108387500Y-97450000D01*
X108997500Y-98190000D02*
X108387500Y-97750000D01*
X108997500Y-97310000D01*
X108997500Y-98190000D01*
G36*
X108997500Y-98190000D02*
G01*
X108387500Y-97750000D01*
X108997500Y-97310000D01*
X108997500Y-98190000D01*
G37*
%TO.C,D4*%
X129860000Y-108510000D02*
X129860000Y-106490000D01*
X129860000Y-108510000D02*
X126100000Y-108510000D01*
X129860000Y-106490000D02*
X126100000Y-106490000D01*
D15*
%TO.C,U6*%
X117500000Y-52100000D02*
G75*
G02*
X117300000Y-52100000I-100000J0D01*
G01*
X117300000Y-52100000D02*
G75*
G02*
X117500000Y-52100000I100000J0D01*
G01*
D14*
X118900000Y-51780000D02*
X118900000Y-51500000D01*
X118900000Y-51500000D02*
X131100000Y-51500000D01*
X131100000Y-51500000D02*
X131100000Y-51780000D01*
X118900000Y-67220000D02*
X118900000Y-67500000D01*
X118900000Y-67500000D02*
X131100000Y-67500000D01*
X131100000Y-67500000D02*
X131100000Y-67220000D01*
D11*
%TO.C,Boot1*%
X136390000Y-95110000D02*
X140210000Y-95110000D01*
X140210000Y-95110000D02*
X140210000Y-93760000D01*
X136390000Y-93760000D02*
X136390000Y-95110000D01*
X136390000Y-91260000D02*
X136390000Y-92240000D01*
X140210000Y-91260000D02*
X140210000Y-92240000D01*
X136390000Y-88760000D02*
X136390000Y-89740000D01*
X140210000Y-88760000D02*
X140210000Y-89740000D01*
X136390000Y-85890000D02*
X136390000Y-87240000D01*
X136390000Y-85890000D02*
X140210000Y-85890000D01*
X140210000Y-85890000D02*
X140210000Y-87240000D01*
D12*
%TO.C,R5*%
X135206500Y-92055500D02*
G75*
G02*
X135333500Y-92182500I0J-127000D01*
G01*
X135333500Y-92817500D02*
G75*
G02*
X135206500Y-92944500I-127000J0D01*
G01*
X133682500Y-92944500D02*
G75*
G02*
X133555500Y-92817500I0J127000D01*
G01*
X133555500Y-92182500D02*
G75*
G02*
X133682500Y-92055500I127000J0D01*
G01*
%TD*%
%LPC*%
D16*
%TO.C,PowerUpload1*%
X123248400Y-114395000D03*
X129028400Y-114395000D03*
D17*
X122938400Y-113320000D03*
X123738400Y-113320000D03*
D18*
X124888400Y-113320000D03*
X125888400Y-113320000D03*
X126388400Y-113320000D03*
X127388400Y-113320000D03*
D17*
X128538400Y-113320000D03*
X129338400Y-113320000D03*
X129338400Y-113320000D03*
X128538400Y-113320000D03*
D18*
X127888400Y-113320000D03*
X126888400Y-113320000D03*
X125388400Y-113320000D03*
X124388400Y-113320000D03*
D17*
X123738400Y-113320000D03*
X122938400Y-113320000D03*
D19*
X121818400Y-113895000D03*
D20*
X121818400Y-118075000D03*
D19*
X130458400Y-113895000D03*
D20*
X130458400Y-118075000D03*
%TD*%
D21*
%TO.C,J5 -/+*%
X116000000Y-117000000D03*
D22*
X118000000Y-117000000D03*
%TD*%
D23*
%TO.C,BLINKY1*%
X103575000Y-114500000D03*
X102000000Y-114500000D03*
%TD*%
D24*
%TO.C,J8*%
X145967500Y-87500000D03*
D25*
X145967500Y-82500000D03*
%TD*%
D24*
%TO.C,J1*%
X146000000Y-76000000D03*
D25*
X146000000Y-71000000D03*
%TD*%
D26*
%TO.C,R21*%
X108500000Y-78500000D03*
X107611000Y-78500000D03*
%TD*%
%TO.C,R20*%
X108944500Y-115500000D03*
X108055500Y-115500000D03*
%TD*%
D27*
%TO.C,R19*%
X107055500Y-117500000D03*
X107944500Y-117500000D03*
%TD*%
%TO.C,R18*%
X109055500Y-120000000D03*
X109944500Y-120000000D03*
%TD*%
D28*
%TO.C,R7*%
X102000000Y-117500000D03*
X102000000Y-116480000D03*
%TD*%
D29*
%TO.C,Q4*%
X112437500Y-119950000D03*
X112437500Y-118050000D03*
X110562500Y-119000000D03*
%TD*%
D30*
%TO.C,D6*%
X107015000Y-120000000D03*
X107985000Y-120000000D03*
%TD*%
D31*
%TO.C,C14*%
X111000000Y-114500000D03*
D32*
X106000000Y-114500000D03*
%TD*%
D33*
%TO.C,ESP32S3*%
X117000000Y-72570000D03*
X117000000Y-73840000D03*
X117000000Y-75110000D03*
X117000000Y-76380000D03*
X117000000Y-77650000D03*
X117000000Y-78920000D03*
X117000000Y-80190000D03*
X117000000Y-81460000D03*
X117000000Y-82730000D03*
X117000000Y-84000000D03*
X117000000Y-85270000D03*
X117000000Y-86540000D03*
X117000000Y-87810000D03*
X117000000Y-89080000D03*
D34*
X118765000Y-90330000D03*
X120035000Y-90330000D03*
X121305000Y-90330000D03*
X122575000Y-90330000D03*
X123845000Y-90330000D03*
X125115000Y-90330000D03*
X126385000Y-90330000D03*
X127655000Y-90330000D03*
X128925000Y-90330000D03*
X130195000Y-90330000D03*
X131465000Y-90330000D03*
X132735000Y-90330000D03*
D33*
X134500000Y-89080000D03*
X134500000Y-87810000D03*
X134500000Y-86540000D03*
X134500000Y-85270000D03*
X134500000Y-84000000D03*
X134500000Y-82730000D03*
X134500000Y-81460000D03*
X134500000Y-80190000D03*
X134500000Y-78920000D03*
X134500000Y-77650000D03*
X134500000Y-76380000D03*
X134500000Y-75110000D03*
X134500000Y-73840000D03*
X134500000Y-72570000D03*
D35*
X122850000Y-79590000D03*
X122850000Y-80990000D03*
X123550000Y-78890000D03*
X123550000Y-80290000D03*
X123550000Y-81690000D03*
X124250000Y-79590000D03*
D36*
X124250000Y-80290000D03*
D35*
X124250000Y-80990000D03*
X124950000Y-78890000D03*
X124950000Y-80290000D03*
X124950000Y-81690000D03*
X125650000Y-79590000D03*
X125650000Y-80990000D03*
%TD*%
D24*
%TO.C,J6*%
X104467500Y-109250000D03*
D25*
X104467500Y-104250000D03*
%TD*%
D27*
%TO.C,R17*%
X116055500Y-60500000D03*
X116944500Y-60500000D03*
%TD*%
D37*
%TO.C,Q1*%
X113950000Y-94562500D03*
X112050000Y-94562500D03*
X113000000Y-96437500D03*
%TD*%
D38*
%TO.C,Boot2*%
X113538400Y-58170000D03*
X113538400Y-60670000D03*
X113538400Y-63170000D03*
X111138400Y-58170000D03*
X111138400Y-60670000D03*
X111138400Y-63170000D03*
%TD*%
D24*
%TO.C,J4*%
X146000000Y-109000000D03*
D25*
X146000000Y-104000000D03*
X146000000Y-99000000D03*
X146000000Y-94000000D03*
%TD*%
D24*
%TO.C,J3*%
X105000000Y-71000000D03*
D25*
X105000000Y-66000000D03*
X105000000Y-61000000D03*
X105000000Y-56000000D03*
%TD*%
D39*
%TO.C,R1*%
X127500000Y-115944500D03*
X127500000Y-115055500D03*
%TD*%
D40*
%TO.C,D2*%
X120100000Y-111000000D03*
X123000000Y-111000000D03*
%TD*%
D41*
%TO.C,R15*%
X111062500Y-103555500D03*
X111062500Y-104444500D03*
%TD*%
D39*
%TO.C,R2*%
X125000000Y-115944500D03*
X125000000Y-115055500D03*
%TD*%
D29*
%TO.C,Q2_32mW1*%
X113000000Y-108450000D03*
X113000000Y-106550000D03*
X111125000Y-107500000D03*
%TD*%
D42*
%TO.C,J7*%
X141500000Y-56500000D03*
D43*
X140025000Y-58025000D03*
D42*
X138550000Y-56500000D03*
%TD*%
D41*
%TO.C,R16*%
X113062500Y-102060300D03*
X113062500Y-102949300D03*
%TD*%
%TO.C,R14*%
X113000000Y-90111000D03*
X113000000Y-91000000D03*
%TD*%
%TO.C,R4*%
X111500000Y-91555500D03*
X111500000Y-92444500D03*
%TD*%
D44*
%TO.C,D1*%
X113450000Y-111000000D03*
X110550000Y-111000000D03*
%TD*%
%TO.C,D3*%
X132900000Y-110500000D03*
X130000000Y-110500000D03*
%TD*%
D24*
%TO.C,J2*%
X104467500Y-97750000D03*
D25*
X104467500Y-92750000D03*
%TD*%
D44*
%TO.C,D4*%
X128950000Y-107500000D03*
X126050000Y-107500000D03*
%TD*%
D45*
%TO.C,U6*%
X119000000Y-52500000D03*
X119000000Y-53600000D03*
X119000000Y-54700000D03*
X119000000Y-55800000D03*
X119000000Y-56900000D03*
X119000000Y-58000000D03*
X119000000Y-59100000D03*
X119000000Y-62100000D03*
X119000000Y-63200000D03*
X119000000Y-64300000D03*
X119000000Y-65400000D03*
X119000000Y-66500000D03*
X131000000Y-66500000D03*
X131000000Y-65400000D03*
X131000000Y-64300000D03*
X131000000Y-63200000D03*
X131000000Y-62100000D03*
X131000000Y-59100000D03*
X131000000Y-58000000D03*
X131000000Y-56900000D03*
X131000000Y-55800000D03*
X131000000Y-54700000D03*
X131000000Y-53600000D03*
X131000000Y-52500000D03*
%TD*%
D46*
%TO.C,PS1*%
X116960000Y-106500000D03*
D47*
X119500000Y-106500000D03*
X122040000Y-106500000D03*
%TD*%
D38*
%TO.C,Boot1*%
X137100000Y-93000000D03*
X137100000Y-90500000D03*
X137100000Y-88000000D03*
X139500000Y-93000000D03*
X139500000Y-90500000D03*
X139500000Y-88000000D03*
%TD*%
D26*
%TO.C,R5*%
X134889000Y-92500000D03*
X134000000Y-92500000D03*
%TD*%
%LPD*%
M02*
