M48
; DRILL file {KiCad 9.0.3} date 2025-12-20T12:10:28-0500
; FORMAT={-:-/ absolute / inch / decimal}
; #@! TF.CreationDate,2025-12-20T12:10:28-05:00
; #@! TF.GenerationSoftware,Kicad,Pcbnew,9.0.3
; #@! TF.FileFunction,Plated,1,4,PTH
FMAT,2
INCH
; #@! TA.AperFunction,Plated,PTH,ComponentDrill
T1C0.0079
; #@! TA.AperFunction,Plated,PTH,ViaDrill
T2C0.0118
; #@! TA.AperFunction,Plated,PTH,ComponentDrill
T3C0.0236
; #@! TA.AperFunction,Plated,PTH,ComponentDrill
T4C0.0295
; #@! TA.AperFunction,Plated,PTH,ComponentDrill
T5C0.0398
; #@! TA.AperFunction,Plated,PTH,ComponentDrill
T6C0.0413
; #@! TA.AperFunction,Plated,PTH,ComponentDrill
T7C0.0512
%
G90
G05
T1
X4.8366Y-3.1335
X4.8366Y-3.1886
X4.8642Y-3.1059
X4.8642Y-3.161
X4.8642Y-3.2161
X4.8917Y-3.1335
X4.8917Y-3.1886
X4.9193Y-3.1059
X4.9193Y-3.161
X4.9193Y-3.2161
X4.9469Y-3.1335
X4.9469Y-3.1886
T2
X3.9961Y-2.9724
X3.9961Y-3.1102
X4.0354Y-2.8937
X4.0551Y-3.0709
X4.0551Y-3.1102
X4.0599Y-3.3416
X4.0945Y-2.8937
X4.0945Y-3.0709
X4.1142Y-3.3209
X4.1142Y-4.626
X4.1535Y-2.8937
X4.1535Y-3.0906
X4.1885Y-3.0614
X4.1929Y-3.248
X4.2126Y-2.8937
X4.2132Y-4.6856
X4.2323Y-3.248
X4.2717Y-3.1764
X4.2913Y-2.9256
X4.311Y-4.0748
X4.311Y-4.4488
X4.3307Y-3.2874
X4.3362Y-3.0315
X4.3504Y-2.9134
X4.3602Y-4.2815
X4.3714Y-3.0328
X4.4094Y-2.8937
X4.4094Y-3.4449
X4.4094Y-3.776
X4.4227Y-3.6081
X4.4488Y-4.1929
X4.4685Y-3.0709
X4.4685Y-3.4904
X4.4882Y-4.7047
X4.5276Y-3.937
X4.5472Y-2.2835
X4.5866Y-4.252
X4.6063Y-2.8571
X4.6063Y-2.9071
X4.6063Y-3.4055
X4.6063Y-4.7047
X4.6457Y-2.3819
X4.6457Y-3.8189
X4.7047Y-3.4646
X4.7047Y-4.2913
X4.7244Y-3.2087
X4.7283Y-4.3701
X4.7385Y-4.4488
X4.7441Y-2.3228
X4.7441Y-2.5276
X4.7441Y-2.6142
X4.7736Y-3.3169
X4.8031Y-3.8976
X4.8228Y-3.622
X4.8404Y-4.6042
X4.8758Y-3.4904
X4.8819Y-3.6614
X4.9158Y-4.4149
X4.9213Y-2.3622
X4.9409Y-3.5039
X4.9606Y-2.4409
X4.9606Y-2.8543
X4.9606Y-4.2323
X4.9803Y-2.7756
X4.9826Y-2.2244
X5.0197Y-2.6181
X5.0345Y-3.2038
X5.0394Y-2.3031
X5.0394Y-4.3898
X5.0522Y-3.8344
X5.0591Y-3.4252
X5.0758Y-3.5266
X5.0768Y-4.2323
X5.0787Y-2.0669
X5.0787Y-2.1102
X5.0787Y-2.1535
X5.0787Y-2.3228
X5.0787Y-2.7362
X5.0863Y-4.5988
X5.0984Y-2.6378
X5.1445Y-2.3611
X5.1575Y-4.4291
X5.2091Y-3.1299
X5.2323Y-4.3504
X5.2351Y-3.4854
X5.2362Y-3.2283
X5.2598Y-4.2234
X5.2945Y-4.2913
X5.2953Y-2.0951
X5.2964Y-3.456
X5.2972Y-4.1339
X5.315Y-2.5
X5.315Y-2.7756
X5.3346Y-2.815
X5.3393Y-3.2087
X5.3393Y-3.2677
X5.3495Y-3.381
X5.3937Y-2.7756
X5.4134Y-3.7205
X5.4331Y-3.4252
X5.4528Y-3.7992
X5.4547Y-2.2244
X5.4724Y-4.066
X5.4724Y-4.2156
X5.4921Y-2.7362
X5.5315Y-2.5787
X5.5709Y-2.2244
X5.6299Y-2.7953
X5.6299Y-2.9921
X5.6299Y-3.248
X5.6299Y-3.4449
X5.7677Y-2.1457
T4
X4.5669Y-4.6063
X4.6457Y-4.6063
T5
X4.6047Y-4.1929
X4.7047Y-4.1929
X4.8047Y-4.1929
T6
X4.1732Y-4.5079
X4.3701Y-4.5079
T7
X4.1129Y-3.6516
X4.1129Y-3.8484
X4.1129Y-4.1043
X4.1129Y-4.3012
X4.1339Y-2.2047
X4.1339Y-2.4016
X4.1339Y-2.5984
X4.1339Y-2.7953
X5.7468Y-3.248
X5.7468Y-3.4449
X5.748Y-2.7953
X5.748Y-2.9921
X5.748Y-3.7008
X5.748Y-3.8976
X5.748Y-4.0945
X5.748Y-4.2913
T3
G00X4.796Y-4.4624
M15
G01X4.796Y-4.5057
M16
G05
G00X4.796Y-4.6329
M15
G01X4.796Y-4.6644
M16
G05
G00X5.1362Y-4.4624
M15
G01X5.1362Y-4.5057
M16
G05
G00X5.1362Y-4.6329
M15
G01X5.1362Y-4.6644
M16
G05
M30
