%TF.GenerationSoftware,KiCad,Pcbnew,9.0.3*%
%TF.CreationDate,2025-12-20T12:10:28-05:00*%
%TF.ProjectId,Experimental,45787065-7269-46d6-956e-74616c2e6b69,rev?*%
%TF.SameCoordinates,Original*%
%TF.FileFunction,Soldermask,Top*%
%TF.FilePolarity,Negative*%
%FSLAX46Y46*%
G04 Gerber Fmt 4.6, Leading zero omitted, Abs format (unit mm)*
G04 Created by KiCad (PCBNEW 9.0.3) date 2025-12-20 12:10:28*
%MOMM*%
%LPD*%
G01*
G04 APERTURE LIST*
G04 Aperture macros list*
%AMRoundRect*
0 Rectangle with rounded corners*
0 $1 Rounding radius*
0 $2 $3 $4 $5 $6 $7 $8 $9 X,Y pos of 4 corners*
0 Add a 4 corners polygon primitive as box body*
4,1,4,$2,$3,$4,$5,$6,$7,$8,$9,$2,$3,0*
0 Add four circle primitives for the rounded corners*
1,1,$1+$1,$2,$3*
1,1,$1+$1,$4,$5*
1,1,$1+$1,$6,$7*
1,1,$1+$1,$8,$9*
0 Add four rect primitives between the rounded corners*
20,1,$1+$1,$2,$3,$4,$5,0*
20,1,$1+$1,$4,$5,$6,$7,0*
20,1,$1+$1,$6,$7,$8,$9,0*
20,1,$1+$1,$8,$9,$2,$3,0*%
G04 Aperture macros list end*
%ADD10RoundRect,0.150000X-0.150000X-0.425000X0.150000X-0.425000X0.150000X0.425000X-0.150000X0.425000X0*%
%ADD11RoundRect,0.075000X-0.075000X-0.500000X0.075000X-0.500000X0.075000X0.500000X-0.075000X0.500000X0*%
%ADD12O,1.000000X2.100000*%
%ADD13O,1.000000X1.800000*%
%ADD14RoundRect,0.250000X-0.350000X-0.625000X0.350000X-0.625000X0.350000X0.625000X-0.350000X0.625000X0*%
%ADD15O,1.200000X1.750000*%
%ADD16RoundRect,0.218750X0.218750X0.256250X-0.218750X0.256250X-0.218750X-0.256250X0.218750X-0.256250X0*%
%ADD17RoundRect,0.250001X1.149999X-1.149999X1.149999X1.149999X-1.149999X1.149999X-1.149999X-1.149999X0*%
%ADD18C,2.800000*%
%ADD19RoundRect,0.209750X-0.209750X0.209750X-0.209750X-0.209750X0.209750X-0.209750X0.209750X0.209750X0*%
%ADD20RoundRect,0.209750X0.209750X-0.209750X0.209750X0.209750X-0.209750X0.209750X-0.209750X-0.209750X0*%
%ADD21RoundRect,0.135000X0.185000X-0.135000X0.185000X0.135000X-0.185000X0.135000X-0.185000X-0.135000X0*%
%ADD22RoundRect,0.150000X0.587500X0.150000X-0.587500X0.150000X-0.587500X-0.150000X0.587500X-0.150000X0*%
%ADD23RoundRect,0.147500X-0.147500X-0.172500X0.147500X-0.172500X0.147500X0.172500X-0.147500X0.172500X0*%
%ADD24R,1.575000X1.575000*%
%ADD25C,1.575000*%
%ADD26R,1.500000X0.900000*%
%ADD27R,0.900000X1.500000*%
%ADD28C,0.600000*%
%ADD29R,3.900000X3.900000*%
%ADD30RoundRect,0.150000X-0.150000X0.587500X-0.150000X-0.587500X0.150000X-0.587500X0.150000X0.587500X0*%
%ADD31R,1.600000X1.000000*%
%ADD32RoundRect,0.209750X0.209750X0.209750X-0.209750X0.209750X-0.209750X-0.209750X0.209750X-0.209750X0*%
%ADD33RoundRect,0.250000X-0.400000X-0.450000X0.400000X-0.450000X0.400000X0.450000X-0.400000X0.450000X0*%
%ADD34RoundRect,0.209750X-0.209750X-0.209750X0.209750X-0.209750X0.209750X0.209750X-0.209750X0.209750X0*%
%ADD35RoundRect,0.102000X-0.525000X-1.100000X0.525000X-1.100000X0.525000X1.100000X-0.525000X1.100000X0*%
%ADD36RoundRect,0.102000X-0.500000X-0.525000X0.500000X-0.525000X0.500000X0.525000X-0.500000X0.525000X0*%
%ADD37RoundRect,0.250000X0.400000X0.450000X-0.400000X0.450000X-0.400000X-0.450000X0.400000X-0.450000X0*%
%ADD38RoundRect,0.102000X-0.900000X-0.400000X0.900000X-0.400000X0.900000X0.400000X-0.900000X0.400000X0*%
%ADD39RoundRect,0.102000X-0.855000X-0.855000X0.855000X-0.855000X0.855000X0.855000X-0.855000X0.855000X0*%
%ADD40C,1.914000*%
G04 APERTURE END LIST*
D10*
%TO.C,PowerUpload1*%
X122938400Y-113320000D03*
X123738400Y-113320000D03*
D11*
X124888400Y-113320000D03*
X125888400Y-113320000D03*
X126388400Y-113320000D03*
X127388400Y-113320000D03*
D10*
X128538400Y-113320000D03*
X129338400Y-113320000D03*
X129338400Y-113320000D03*
X128538400Y-113320000D03*
D11*
X127888400Y-113320000D03*
X126888400Y-113320000D03*
X125388400Y-113320000D03*
X124388400Y-113320000D03*
D10*
X123738400Y-113320000D03*
X122938400Y-113320000D03*
D12*
X121818400Y-113895000D03*
D13*
X121818400Y-118075000D03*
D12*
X130458400Y-113895000D03*
D13*
X130458400Y-118075000D03*
%TD*%
D14*
%TO.C,J5 -/+*%
X116000000Y-117000000D03*
D15*
X118000000Y-117000000D03*
%TD*%
D16*
%TO.C,BLINKY1*%
X103575000Y-114500000D03*
X102000000Y-114500000D03*
%TD*%
D17*
%TO.C,J8*%
X145967500Y-87500000D03*
D18*
X145967500Y-82500000D03*
%TD*%
D17*
%TO.C,J1*%
X146000000Y-76000000D03*
D18*
X146000000Y-71000000D03*
%TD*%
D19*
%TO.C,R21*%
X108500000Y-78500000D03*
X107611000Y-78500000D03*
%TD*%
%TO.C,R20*%
X108944500Y-115500000D03*
X108055500Y-115500000D03*
%TD*%
D20*
%TO.C,R19*%
X107055500Y-117500000D03*
X107944500Y-117500000D03*
%TD*%
%TO.C,R18*%
X109055500Y-120000000D03*
X109944500Y-120000000D03*
%TD*%
D21*
%TO.C,R7*%
X102000000Y-117500000D03*
X102000000Y-116480000D03*
%TD*%
D22*
%TO.C,Q4*%
X112437500Y-119950000D03*
X112437500Y-118050000D03*
X110562500Y-119000000D03*
%TD*%
D23*
%TO.C,D6*%
X107015000Y-120000000D03*
X107985000Y-120000000D03*
%TD*%
D24*
%TO.C,C14*%
X111000000Y-114500000D03*
D25*
X106000000Y-114500000D03*
%TD*%
D26*
%TO.C,ESP32S3*%
X117000000Y-72570000D03*
X117000000Y-73840000D03*
X117000000Y-75110000D03*
X117000000Y-76380000D03*
X117000000Y-77650000D03*
X117000000Y-78920000D03*
X117000000Y-80190000D03*
X117000000Y-81460000D03*
X117000000Y-82730000D03*
X117000000Y-84000000D03*
X117000000Y-85270000D03*
X117000000Y-86540000D03*
X117000000Y-87810000D03*
X117000000Y-89080000D03*
D27*
X118765000Y-90330000D03*
X120035000Y-90330000D03*
X121305000Y-90330000D03*
X122575000Y-90330000D03*
X123845000Y-90330000D03*
X125115000Y-90330000D03*
X126385000Y-90330000D03*
X127655000Y-90330000D03*
X128925000Y-90330000D03*
X130195000Y-90330000D03*
X131465000Y-90330000D03*
X132735000Y-90330000D03*
D26*
X134500000Y-89080000D03*
X134500000Y-87810000D03*
X134500000Y-86540000D03*
X134500000Y-85270000D03*
X134500000Y-84000000D03*
X134500000Y-82730000D03*
X134500000Y-81460000D03*
X134500000Y-80190000D03*
X134500000Y-78920000D03*
X134500000Y-77650000D03*
X134500000Y-76380000D03*
X134500000Y-75110000D03*
X134500000Y-73840000D03*
X134500000Y-72570000D03*
D28*
X122850000Y-79590000D03*
X122850000Y-80990000D03*
X123550000Y-78890000D03*
X123550000Y-80290000D03*
X123550000Y-81690000D03*
X124250000Y-79590000D03*
D29*
X124250000Y-80290000D03*
D28*
X124250000Y-80990000D03*
X124950000Y-78890000D03*
X124950000Y-80290000D03*
X124950000Y-81690000D03*
X125650000Y-79590000D03*
X125650000Y-80990000D03*
%TD*%
D17*
%TO.C,J6*%
X104467500Y-109250000D03*
D18*
X104467500Y-104250000D03*
%TD*%
D20*
%TO.C,R17*%
X116055500Y-60500000D03*
X116944500Y-60500000D03*
%TD*%
D30*
%TO.C,Q1*%
X113950000Y-94562500D03*
X112050000Y-94562500D03*
X113000000Y-96437500D03*
%TD*%
D31*
%TO.C,Boot2*%
X113538400Y-58170000D03*
X113538400Y-60670000D03*
X113538400Y-63170000D03*
X111138400Y-58170000D03*
X111138400Y-60670000D03*
X111138400Y-63170000D03*
%TD*%
D17*
%TO.C,J4*%
X146000000Y-109000000D03*
D18*
X146000000Y-104000000D03*
X146000000Y-99000000D03*
X146000000Y-94000000D03*
%TD*%
D17*
%TO.C,J3*%
X105000000Y-71000000D03*
D18*
X105000000Y-66000000D03*
X105000000Y-61000000D03*
X105000000Y-56000000D03*
%TD*%
D32*
%TO.C,R1*%
X127500000Y-115944500D03*
X127500000Y-115055500D03*
%TD*%
D33*
%TO.C,D2*%
X120100000Y-111000000D03*
X123000000Y-111000000D03*
%TD*%
D34*
%TO.C,R15*%
X111062500Y-103555500D03*
X111062500Y-104444500D03*
%TD*%
D32*
%TO.C,R2*%
X125000000Y-115944500D03*
X125000000Y-115055500D03*
%TD*%
D22*
%TO.C,Q2_32mW1*%
X113000000Y-108450000D03*
X113000000Y-106550000D03*
X111125000Y-107500000D03*
%TD*%
D35*
%TO.C,J7*%
X141500000Y-56500000D03*
D36*
X140025000Y-58025000D03*
D35*
X138550000Y-56500000D03*
%TD*%
D34*
%TO.C,R16*%
X113062500Y-102060300D03*
X113062500Y-102949300D03*
%TD*%
%TO.C,R14*%
X113000000Y-90111000D03*
X113000000Y-91000000D03*
%TD*%
%TO.C,R4*%
X111500000Y-91555500D03*
X111500000Y-92444500D03*
%TD*%
D37*
%TO.C,D1*%
X113450000Y-111000000D03*
X110550000Y-111000000D03*
%TD*%
%TO.C,D3*%
X132900000Y-110500000D03*
X130000000Y-110500000D03*
%TD*%
D17*
%TO.C,J2*%
X104467500Y-97750000D03*
D18*
X104467500Y-92750000D03*
%TD*%
D37*
%TO.C,D4*%
X128950000Y-107500000D03*
X126050000Y-107500000D03*
%TD*%
D38*
%TO.C,U6*%
X119000000Y-52500000D03*
X119000000Y-53600000D03*
X119000000Y-54700000D03*
X119000000Y-55800000D03*
X119000000Y-56900000D03*
X119000000Y-58000000D03*
X119000000Y-59100000D03*
X119000000Y-62100000D03*
X119000000Y-63200000D03*
X119000000Y-64300000D03*
X119000000Y-65400000D03*
X119000000Y-66500000D03*
X131000000Y-66500000D03*
X131000000Y-65400000D03*
X131000000Y-64300000D03*
X131000000Y-63200000D03*
X131000000Y-62100000D03*
X131000000Y-59100000D03*
X131000000Y-58000000D03*
X131000000Y-56900000D03*
X131000000Y-55800000D03*
X131000000Y-54700000D03*
X131000000Y-53600000D03*
X131000000Y-52500000D03*
%TD*%
D39*
%TO.C,PS1*%
X116960000Y-106500000D03*
D40*
X119500000Y-106500000D03*
X122040000Y-106500000D03*
%TD*%
D31*
%TO.C,Boot1*%
X137100000Y-93000000D03*
X137100000Y-90500000D03*
X137100000Y-88000000D03*
X139500000Y-93000000D03*
X139500000Y-90500000D03*
X139500000Y-88000000D03*
%TD*%
D19*
%TO.C,R5*%
X134889000Y-92500000D03*
X134000000Y-92500000D03*
%TD*%
M02*
